<?xml version="1.0" encoding="utf-8"?>
<!-- Generator: Adobe Illustrator 21.1.0, SVG Export Plug-In . SVG Version: 6.00 Build 0)  -->
<svg version="1.1" id="Layer_1" xmlns:sketch="http://www.bohemiancoding.com/sketch/ns"
	 xmlns="http://www.w3.org/2000/svg" xmlns:xlink="http://www.w3.org/1999/xlink" x="0px" y="0px" width="80px" height="35px"
	 viewBox="0 0 80 35" enable-background="new 0 0 80 35" xml:space="preserve">
<rect y="0" fill="#000000" width="80" height="35"/>
<g enable-background="new    ">
	<path fill="#FFFFFF" d="M26.17,16.18l-2.3,0.42c-0.08-0.46-0.25-0.81-0.53-1.04c-0.27-0.23-0.63-0.35-1.07-0.35
		c-0.58,0-1.04,0.2-1.39,0.6c-0.35,0.4-0.52,1.07-0.52,2.01c0,1.05,0.18,1.78,0.53,2.22c0.35,0.43,0.82,0.65,1.42,0.65
		c0.44,0,0.81-0.13,1.09-0.38s0.48-0.68,0.6-1.3l2.29,0.39c-0.24,1.05-0.69,1.85-1.37,2.38c-0.68,0.54-1.58,0.8-2.71,0.8
		c-1.29,0-2.32-0.41-3.08-1.22c-0.77-0.81-1.15-1.94-1.15-3.38c0-1.46,0.38-2.59,1.15-3.4s1.81-1.22,3.12-1.22
		c1.07,0,1.93,0.23,2.56,0.69C25.44,14.53,25.89,15.23,26.17,16.18z"/>
	<path fill="#FFFFFF" d="M27.94,22.39V10.22h2.33v12.17H27.94z"/>
	<path fill="#FFFFFF" d="M32.12,17.86c0-0.77,0.19-1.52,0.57-2.25c0.38-0.73,0.92-1.28,1.62-1.66c0.7-0.38,1.48-0.57,2.35-0.57
		c1.33,0,2.43,0.43,3.28,1.3s1.28,1.96,1.28,3.28c0,1.33-0.43,2.44-1.29,3.32c-0.86,0.88-1.94,1.32-3.25,1.32
		c-0.81,0-1.58-0.18-2.31-0.55c-0.73-0.37-1.29-0.9-1.67-1.61C32.31,19.73,32.12,18.87,32.12,17.86z M34.51,17.98
		c0,0.88,0.21,1.54,0.62,2.01s0.93,0.7,1.54,0.7s1.12-0.23,1.53-0.7c0.41-0.46,0.62-1.14,0.62-2.03c0-0.86-0.21-1.53-0.62-1.99
		c-0.41-0.46-0.92-0.7-1.53-0.7s-1.12,0.23-1.54,0.7C34.72,16.44,34.51,17.11,34.51,17.98z"/>
	<path fill="#FFFFFF" d="M42.22,19.87l2.34-0.36c0.1,0.45,0.3,0.8,0.61,1.03c0.3,0.24,0.73,0.35,1.28,0.35
		c0.6,0,1.06-0.11,1.36-0.33c0.2-0.15,0.31-0.36,0.31-0.62c0-0.18-0.05-0.32-0.17-0.44c-0.12-0.11-0.38-0.21-0.78-0.31
		c-1.88-0.42-3.07-0.79-3.58-1.14c-0.7-0.48-1.05-1.14-1.05-1.98c0-0.76,0.3-1.41,0.9-1.93c0.6-0.52,1.54-0.78,2.81-0.78
		c1.21,0,2.1,0.2,2.69,0.59c0.59,0.39,0.99,0.97,1.21,1.74l-2.2,0.41c-0.09-0.34-0.27-0.61-0.54-0.79
		c-0.26-0.18-0.64-0.27-1.12-0.27c-0.61,0-1.05,0.09-1.32,0.26c-0.18,0.12-0.27,0.28-0.27,0.47c0,0.17,0.08,0.31,0.23,0.42
		c0.21,0.15,0.94,0.37,2.18,0.66c1.24,0.28,2.11,0.63,2.6,1.04c0.49,0.41,0.73,0.99,0.73,1.73c0,0.81-0.34,1.5-1.01,2.08
		c-0.67,0.58-1.67,0.87-3,0.87c-1.2,0-2.15-0.24-2.85-0.73S42.44,20.71,42.22,19.87z"/>
	<path fill="#FFFFFF" d="M57.61,19.58l2.32,0.39c-0.3,0.85-0.77,1.5-1.42,1.95c-0.65,0.45-1.45,0.67-2.42,0.67
		c-1.53,0-2.67-0.5-3.4-1.5c-0.58-0.8-0.87-1.82-0.87-3.04c0-1.46,0.38-2.6,1.15-3.43s1.73-1.24,2.9-1.24c1.31,0,2.35,0.43,3.1,1.3
		c0.76,0.87,1.12,2.19,1.09,3.98h-5.84c0.02,0.69,0.21,1.23,0.56,1.61c0.36,0.38,0.81,0.58,1.34,0.58c0.37,0,0.67-0.1,0.92-0.3
		S57.48,20.03,57.61,19.58z M57.74,17.23c-0.02-0.67-0.19-1.19-0.52-1.54c-0.33-0.35-0.74-0.53-1.21-0.53
		c-0.51,0-0.93,0.19-1.26,0.56c-0.33,0.37-0.5,0.87-0.49,1.51H57.74z"/>
</g>
</svg>
