<?xml version="1.0" encoding="utf-8"?>
<!-- Generator: Adobe Illustrator 26.3.1, SVG Export Plug-In . SVG Version: 6.00 Build 0)  -->
<svg version="1.1" id="Layer_1_00000152247080648650375080000017664692054338464385_"
	 xmlns="http://www.w3.org/2000/svg" xmlns:xlink="http://www.w3.org/1999/xlink" x="0px" y="0px" viewBox="0 0 1920 1080"
	 style="enable-background:new 0 0 1920 1080;" xml:space="preserve">
<style type="text/css">
	.st0{fill:#FFCFCF;}
	.st1{fill:#FFFFFF;}
	.st2{fill:#D8D8D6;}
	.st3{fill:#E9E9E9;}
	.st4{fill:#878787;}
	.st5{fill:none;stroke:#878787;stroke-width:0.4525;stroke-miterlimit:10;}
	.st6{fill:#E9E9E9;stroke:#878787;stroke-width:0.4525;stroke-miterlimit:10;}
	.st7{fill:none;stroke:#878787;stroke-width:0.4828;stroke-miterlimit:10;}
	.st8{fill:none;stroke:#878787;stroke-width:0.4594;stroke-miterlimit:10;}
	.st9{fill:none;stroke:#2D2D2D;stroke-width:2;stroke-miterlimit:10;}
	.st10{fill:#C6C9CE;stroke:#878787;stroke-width:0.2107;stroke-miterlimit:10;}
	.st11{fill:none;stroke:#878787;stroke-width:0.2107;stroke-miterlimit:10;}
	.st12{fill:none;stroke:#878787;stroke-width:0.4643;stroke-miterlimit:10;}
	.st13{fill:none;stroke:#878787;stroke-width:0.4767;stroke-miterlimit:10;}
	.st14{fill:none;stroke:#6D6D6D;stroke-width:0.3834;stroke-miterlimit:10;}
	.st15{fill:#6D6D6D;}
	.st16{fill:none;stroke:#2D2D2D;stroke-width:5;stroke-miterlimit:10;}
	.st17{fill:none;stroke:#FFFFFF;stroke-width:3;stroke-miterlimit:10;}
	.st18{fill:none;stroke:#2D2D2D;stroke-width:10;stroke-miterlimit:10;}
	.st19{fill:none;stroke:#FFFFFF;stroke-width:6;stroke-miterlimit:10;}
	.st20{fill:none;stroke:#A8A8A8;stroke-width:2;stroke-miterlimit:10;}
	.st21{fill:none;stroke:#A8A8A8;stroke-width:2;stroke-miterlimit:10;stroke-dasharray:37.9869,2.849;}
	.st22{fill:none;stroke:#A8A8A8;stroke-width:2;stroke-miterlimit:10;stroke-dasharray:29.0184,2.1764;}
	.st23{fill:none;stroke:#A8A8A8;stroke-width:2;stroke-miterlimit:10;stroke-dasharray:38.3349,2.8751;}
	.st24{fill:none;stroke:#A8A8A8;stroke-width:2;stroke-miterlimit:10;stroke-dasharray:30.8163,2.3112;}
	.st25{fill:none;stroke:#2D2D2D;stroke-width:3;stroke-miterlimit:10;}
	.st26{fill:none;stroke:#A0A0A0;stroke-width:0.4174;stroke-miterlimit:10;}
	.st27{fill:none;stroke:#A0A0A0;stroke-width:0.9353;stroke-linecap:square;stroke-miterlimit:10;}
	.st28{opacity:0.3;fill:#FFFFFF;enable-background:new    ;}
	.st29{fill:#008246;}
	.st30{fill:#003E87;}
	.st31{fill:#FEFEFE;}
	.st32{fill:#FFFFFF;stroke:#000000;stroke-width:2;stroke-miterlimit:10;}
	.st33{fill:#FF0000;}
	.st34{fill:none;stroke:#FEFEFE;stroke-width:0.8048;stroke-miterlimit:10;}
	.st35{fill:none;stroke:#FEFEFE;stroke-width:0.2831;stroke-miterlimit:10;}
	.st36{fill:#2D2D2D;}
	.st37{font-family:'Arial-BoldMT';}
	.st38{font-size:5px;}
	.st39{font-family:'ArialMT';}
	.st40{font-size:14px;}
</style>
<g id="base">
	<g id="area">
		<g>
			<rect x="507.2" y="536.4" class="st0" width="221.8" height="117.2"/>
			<path class="st1" d="M726.6,538.9v112.2H509.7V538.9H726.6 M731.6,533.9H504.7v122.2h226.8L731.6,533.9L731.6,533.9z"/>
		</g>
		<g>
			<rect x="507.2" y="481.1" class="st2" width="67.2" height="47.6"/>
			<g>
				<path class="st1" d="M571.9,483.6v42.6h-62.2v-42.6H571.9 M576.9,478.6h-72.2v52.6h72.2V478.6L576.9,478.6z"/>
			</g>
		</g>
		<g>
			<polygon class="st2" points="616,497.9 616,474.3 608.9,474.3 608.9,497.9 582.2,497.9 582.2,419.1 627.2,419.1 627.2,456.9 
				641.5,456.9 641.5,480.1 677.2,480.1 677.2,497.9 			"/>
			<g>
				<path class="st1" d="M624.7,421.6v32.8v5h5h9.3v18.2v5h5h30.7v12.8h-56.2v-18.7v-5h-5h-2.1h-5v5v18.7h-21.7v-73.8L624.7,421.6
					 M629.7,416.6h-50v83.8h31.7v-23.7h2.1v23.7h66.2v-22.8H644v-23.2h-14.3V416.6L629.7,416.6z"/>
			</g>
		</g>
		<g>
			<rect x="633.7" y="419.1" class="st2" width="30.6" height="30.9"/>
			<g>
				<path class="st1" d="M661.8,421.6v25.9h-25.6v-25.9H661.8 M666.8,416.6h-35.6v35.9h35.6V416.6L666.8,416.6z"/>
			</g>
		</g>
		<g>
			<polygon class="st2" points="751,497.9 751,493.6 705.6,493.6 705.6,479.4 743,479.4 743,472.2 705.6,472.2 705.6,441.5 
				743,441.5 743,418.8 815.7,419.1 815.7,480.5 779.6,480.5 779.6,435.4 772.5,435.4 772.5,497.9 			"/>
			<g>
				<path class="st1" d="M745.5,421.3l67.7,0.3V478h-31.1v-40v-5h-5H775h-5v5v57.5h-16.5v-4.3h-5h-40.4V482h32.4h5v-5v-2.2v-5h-5
					h-32.4V444h32.4h5v-5V421.3 M740.5,416.3V439h-37.4v35.8h37.4v2.2h-37.4v19.2h45.4v4.3H775V438h2.1v45h41.1v-66.3L740.5,416.3
					L740.5,416.3z"/>
			</g>
		</g>
		<g>
			<rect x="823.9" y="418.8" class="st0" width="39" height="79.1"/>
			<path class="st1" d="M860.4,421.3v74.1h-34v-74.1H860.4 M865.4,416.3h-44v84.1h44V416.3L865.4,416.3z"/>
		</g>
		<g>
			<rect x="872.6" y="418.8" class="st0" width="145.5" height="78.6"/>
			<path class="st1" d="M1015.6,421.3v73.6H875.1v-73.6H1015.6 M1020.6,416.3H870.1v83.6h150.5V416.3L1020.6,416.3z"/>
		</g>
		<g>
			<polygon class="st0" points="1023.1,497.4 1023.1,419.1 1061.5,418.8 1061.5,497.4 			"/>
			<path class="st1" d="M1059,421.3v73.6h-33.3v-73.3L1059,421.3 M1064,416.3l-43.3,0.4V500h43.3V416.3L1064,416.3z"/>
		</g>
		<g>
			<rect x="1069.6" y="418.8" class="st0" width="82" height="78.6"/>
			<path class="st1" d="M1149.1,421.3v73.6h-77v-73.6H1149.1 M1154.1,416.3h-87v83.6h87V416.3L1154.1,416.3z"/>
		</g>
		<g>
			<rect x="1159.4" y="419.2" class="st2" width="61.8" height="78.3"/>
			<path class="st1" d="M1218.6,421.7V495h-56.8v-73.3H1218.6 M1223.6,416.7h-66.8V500h66.8V416.7L1223.6,416.7z"/>
		</g>
		<g>
			<rect x="1229.1" y="419.2" class="st0" width="34" height="78.3"/>
			<g>
				<path class="st1" d="M1260.6,421.7V495h-29v-73.3H1260.6 M1265.6,416.7h-39V500h39V416.7L1265.6,416.7z"/>
			</g>
		</g>
		<g>
			<path class="st1" d="M1302.2,421.7V495h-28.5v-73.3H1302.2 M1307.2,416.7h-38.5V500h38.5V416.7L1307.2,416.7z"/>
		</g>
		<g>
			<polygon class="st2" points="1270.9,497.4 1270.9,419.2 1352.1,419.2 1352.1,427.6 1410,427.6 1410,497.4 			"/>
			<g>
				<path class="st1" d="M1349.6,421.7v3.4v5h5h52.9V495h-134.1v-73.3H1349.6 M1354.6,416.7h-86.3V500h144.1v-74.9h-57.9v-8.4
					H1354.6z"/>
			</g>
		</g>
		<g>
			<rect x="1337.6" y="569.9" class="st0" width="72.7" height="38.7"/>
			<path class="st1" d="M1407.7,572.4v33.7H1340v-33.7H1407.7 M1412.7,567.4H1335v43.7h77.7V567.4L1412.7,567.4z"/>
		</g>
		<g>
			<polygon class="st2" points="1305.1,653.5 1305.1,645.2 1302.9,645.2 1302.9,598.1 1329.8,598.1 1329.8,615.1 1353.7,615.1 
				1353.7,653.5 			"/>
			<g>
				<path class="st1" d="M1327.3,600.6v12v5h5h18.9V651h-43.7v-3.3v-5h-2.2v-42.1L1327.3,600.6 M1332.3,595.6h-31.9v52.1h2.2v8.3
					h53.7v-43.4h-23.9L1332.3,595.6L1332.3,595.6z"/>
			</g>
		</g>
		<g>
			<rect x="1189.1" y="536.2" class="st0" width="107.2" height="117.7"/>
			<path class="st1" d="M1293.8,538.7v112.7h-102.2V538.7H1293.8 M1298.8,533.7h-112.2v122.7h112.2V533.7L1298.8,533.7z"/>
		</g>
		<g>
			<rect x="1076.5" y="536.2" class="st0" width="105.8" height="117.2"/>
			<path class="st1" d="M1179.7,538.7V651H1079V538.7H1179.7 M1184.7,533.7H1074V656h110.8V533.7H1184.7z"/>
		</g>
		<g>
			<polygon class="st0" points="962.9,653.5 964.1,536.2 1069.7,536.2 1069.7,653.5 			"/>
			<path class="st1" d="M1067.2,538.7V651H965.5l1.1-112.2L1067.2,538.7 M1072.2,533.7H961.7L960.4,656h111.8L1072.2,533.7
				L1072.2,533.7z"/>
		</g>
		<g>
			<rect x="765.7" y="536.4" class="st2" width="191.4" height="117"/>
			<g>
				<path class="st1" d="M954.7,538.9v112H768.2v-112H954.7 M959.7,533.9H763.2v122h196.4v-122H959.7z"/>
			</g>
		</g>
		<g>
			<polygon class="st2" points="735.6,592.3 736,536.4 758.2,536.4 758.2,592.3 			"/>
			<g>
				<path class="st1" d="M755.7,538.9v50.9h-17.6l0.4-50.9H755.7 M760.7,533.9h-27.2l-0.4,60.9h27.6L760.7,533.9L760.7,533.9z"/>
			</g>
		</g>
		<g>
			<polygon class="st0" points="736,653.6 736.6,599.3 758.2,599.3 758.2,653.6 			"/>
			<path class="st1" d="M755.7,601.8V651h-17.1l0.5-49.2H755.7 M760.7,596.8h-26.6l-0.6,59.2h27.2L760.7,596.8L760.7,596.8z"/>
		</g>
		<g>
			<rect x="1337.6" y="527.8" class="st0" width="72.7" height="38.7"/>
			<path class="st1" d="M1407.7,530.3V564H1340v-33.7H1407.7 M1412.7,525.3H1335V569h77.7V525.3L1412.7,525.3z"/>
		</g>
	</g>
	<g id="misc">
		<g>
			<g>
				<rect x="1356.1" y="616.3" class="st3" width="35.6" height="15.7"/>
				<path class="st4" d="M1391.4,616.5v15.2h-35.1v-15.2H1391.4 M1391.8,616.1h-36v16.1h36V616.1L1391.8,616.1z"/>
			</g>
			<line class="st5" x1="1386.8" y1="616.1" x2="1386.8" y2="632.2"/>
			<line class="st5" x1="1381.6" y1="616.1" x2="1381.6" y2="632.2"/>
			<line class="st5" x1="1376.3" y1="616.1" x2="1376.3" y2="632.2"/>
			<line class="st5" x1="1371.1" y1="616.1" x2="1371.1" y2="632.2"/>
			<line class="st5" x1="1365.8" y1="616.1" x2="1365.8" y2="632.2"/>
			<line class="st5" x1="1360.6" y1="616.1" x2="1360.6" y2="632.2"/>
		</g>
		<g>
			<g>
				<rect x="1356.1" y="635" class="st3" width="35.6" height="15.7"/>
				<path class="st4" d="M1391.4,635.2v15.2h-35.1v-15.2H1391.4 M1391.8,634.8h-36v16.1h36V634.8L1391.8,634.8z"/>
			</g>
			<line class="st5" x1="1386.8" y1="634.8" x2="1386.8" y2="650.9"/>
			<line class="st5" x1="1381.6" y1="634.8" x2="1381.6" y2="650.9"/>
			<line class="st5" x1="1376.3" y1="634.8" x2="1376.3" y2="650.9"/>
			<line class="st5" x1="1371.1" y1="634.8" x2="1371.1" y2="650.9"/>
			<line class="st5" x1="1365.8" y1="634.8" x2="1365.8" y2="650.9"/>
			<line class="st5" x1="1360.6" y1="634.8" x2="1360.6" y2="650.9"/>
		</g>
		<g>
			<rect x="1391.6" y="616.3" class="st3" width="14.9" height="34.3"/>
			<g>
				<path class="st4" d="M1406.3,616.5v33.9h-14.5v-33.9H1406.3 M1406.8,616.1h-15.4v34.8h15.4V616.1L1406.8,616.1z"/>
			</g>
		</g>
		<g>
			<g>
				<rect x="559.2" y="419.5" class="st3" width="15.7" height="57"/>
				<path class="st4" d="M574.6,419.7v56.6h-15.2v-56.6H574.6 M575.1,419.3H559v57.5h16.1V419.3L575.1,419.3z"/>
			</g>
			<line class="st5" x1="559" y1="445.8" x2="575.1" y2="445.8"/>
			<line class="st5" x1="559" y1="451" x2="575.1" y2="451"/>
			<line class="st5" x1="559" y1="456.3" x2="575.1" y2="456.3"/>
			<line class="st5" x1="559" y1="461.5" x2="575.1" y2="461.5"/>
			<polyline class="st6" points="551.3,466.2 559,466.8 575.1,466.8 			"/>
			<line class="st5" x1="559" y1="472" x2="575.1" y2="472"/>
		</g>
		<g>
			<g>
				<rect x="526.6" y="419.4" class="st3" width="32.4" height="16.5"/>
				<path class="st4" d="M558.8,419.7v16h-31.9v-16H558.8 M559.2,419.2h-32.9v17h32.9V419.2L559.2,419.2z"/>
			</g>
			<line class="st7" x1="531.4" y1="436.1" x2="531.4" y2="419.2"/>
			<line class="st7" x1="537.1" y1="436.1" x2="537.1" y2="419.2"/>
			<line class="st7" x1="542.8" y1="436.1" x2="542.8" y2="419.2"/>
			<line class="st7" x1="548.5" y1="436.1" x2="548.5" y2="419.2"/>
			<line class="st7" x1="554.1" y1="436.1" x2="554.1" y2="419.2"/>
		</g>
		<g>
			<g>
				<rect x="511.1" y="419.5" class="st3" width="15.3" height="46"/>
				<path class="st4" d="M526.2,419.7v45.6h-14.8v-45.6H526.2 M526.7,419.3h-15.8v46.5h15.8V419.3L526.7,419.3z"/>
			</g>
			<line class="st8" x1="526.7" y1="460" x2="510.9" y2="460"/>
			<line class="st8" x1="526.7" y1="454.4" x2="510.9" y2="454.4"/>
			<line class="st8" x1="526.7" y1="448.9" x2="510.9" y2="448.9"/>
			<line class="st8" x1="526.7" y1="443.3" x2="510.9" y2="443.3"/>
		</g>
		<polyline class="st9" points="550.1,465.8 557.1,465.8 557.1,439.2 529,439.2 529,465.8 536,465.8 		"/>
		<rect x="534.7" y="442.2" class="st10" width="16.9" height="19.3"/>
		<line class="st11" x1="551.6" y1="442.2" x2="534.7" y2="461.4"/>
		<line class="st11" x1="534.7" y1="442.2" x2="551.6" y2="461.4"/>
		<line class="st12" x1="559.4" y1="440.8" x2="574.7" y2="440.8"/>
		<line class="st13" x1="526.7" y1="437.3" x2="511.7" y2="437.3"/>
		<g>
			<g>
				<polyline class="st14" points="1358.2,624.4 1397.7,624.4 1397.7,640 1395.9,640 				"/>
				<g>
					<polygon class="st15" points="1396.2,642.3 1396.2,637.6 1393.9,640 					"/>
				</g>
			</g>
		</g>
		<g>
			<g>
				<polyline class="st14" points="567.6,477.6 567.6,428 518.8,428 518.8,436 				"/>
				<g>
					<polygon class="st15" points="521.1,435.7 516.5,435.7 518.8,438 					"/>
				</g>
			</g>
		</g>
	</g>
	<g id="inner_x5F_walls_x5F_thick">
		<line class="st16" x1="732.5" y1="664.3" x2="732.5" y2="647.8"/>
		<line class="st16" x1="959.7" y1="664.1" x2="959.7" y2="648.5"/>
		<line class="st16" x1="846.9" y1="664.2" x2="846.9" y2="648.6"/>
		<line class="st16" x1="506" y1="664.2" x2="506" y2="647.7"/>
		<line class="st16" x1="1300.4" y1="664.2" x2="1300.4" y2="647.7"/>
		<line class="st16" x1="1411.7" y1="664.2" x2="1411.7" y2="647.7"/>
		<line class="st16" x1="506" y1="421.9" x2="506" y2="408.4"/>
		<line class="st16" x1="1411.7" y1="421.9" x2="1411.7" y2="408.4"/>
		<line class="st17" x1="732.5" y1="664.3" x2="732.5" y2="648.8"/>
		<line class="st17" x1="959.7" y1="664.1" x2="959.7" y2="649.5"/>
		<line class="st17" x1="846.9" y1="664.2" x2="846.9" y2="649.6"/>
		<line class="st17" x1="506" y1="664.2" x2="506" y2="648.7"/>
		<line class="st17" x1="1300.4" y1="664.2" x2="1300.4" y2="648.7"/>
		<line class="st17" x1="1411.7" y1="664.2" x2="1411.7" y2="648.7"/>
		<line class="st17" x1="506" y1="420.9" x2="506" y2="408.4"/>
		<line class="st17" x1="1411.7" y1="420.9" x2="1411.7" y2="408.4"/>
		<line class="st16" x1="619.6" y1="664.3" x2="619.6" y2="647.8"/>
		<line class="st17" x1="619.6" y1="664.3" x2="619.6" y2="648.8"/>
		<line class="st16" x1="1186.6" y1="664.2" x2="1186.6" y2="647.7"/>
		<line class="st17" x1="1186.6" y1="664.2" x2="1186.6" y2="648.7"/>
	</g>
	<g id="outer_x5F_walls_x5F_btm">
		<polyline class="st18" points="1415.5,661 1332.5,661 1304.6,661 1295.2,661 1193.3,661 1181.8,661 1080,661 1072.2,661 
			1044.2,661 957.3,661 929.3,661 854.7,661 844.9,661 816.9,661 766.9,661 739,661 727,661 625.6,661 613.6,661 565.2,661 
			560.7,661 512.2,661 499.8,661 499.8,645 499.8,594.8 499.8,577 499.8,488.7 499.8,411.5 1415.5,411.5 		"/>
		<polyline class="st19" points="1413.5,661 1332.5,661 1304.6,661 1295.2,661 1193.3,661 1181.8,661 1080,661 1072.2,661 
			1044.2,661 957.3,661 929.3,661 854.7,661 844.9,661 816.9,661 766.9,661 739,661 727,661 625.6,661 613.6,661 565.2,661 
			560.7,661 512.2,661 499.8,661 499.8,645 499.8,594.8 499.8,577 499.8,488.7 499.8,411.5 1413.5,411.5 		"/>
	</g>
	<g id="outer_x5F_glass">
		<g>
			<g>
				<line class="st20" x1="1294.1" y1="661" x2="1274.1" y2="661"/>
				<line class="st21" x1="1271.2" y1="661" x2="986.8" y2="661"/>
				<line class="st20" x1="985.4" y1="661" x2="965.4" y2="661"/>
			</g>
		</g>
		<g>
			<g>
				<line class="st20" x1="727" y1="661" x2="707" y2="661"/>
				<line class="st22" x1="704.8" y1="661" x2="643.5" y2="661"/>
				<line class="st20" x1="642.4" y1="661" x2="622.4" y2="661"/>
			</g>
		</g>
		<g>
			<g>
				<line class="st20" x1="499.8" y1="661" x2="499.8" y2="641"/>
				<line class="st23" x1="499.8" y1="638.1" x2="499.8" y2="433.5"/>
				<line class="st20" x1="499.8" y1="432.1" x2="499.8" y2="412.1"/>
			</g>
		</g>
		<g>
			<g>
				<line class="st20" x1="617" y1="661" x2="597" y2="661"/>
				<line class="st24" x1="594.7" y1="661" x2="529.6" y2="661"/>
				<line class="st20" x1="528.4" y1="661" x2="508.4" y2="661"/>
			</g>
		</g>
	</g>
	<g id="inner_x5F_walls">
		<line class="st25" x1="1414.1" y1="523" x2="1414.1" y2="665.7"/>
		<line class="st25" x1="1414.1" y1="407.3" x2="1414.1" y2="510.3"/>
		<line class="st25" x1="578.4" y1="504" x2="578.4" y2="415.6"/>
		<polyline class="st25" points="504.2,532.4 578.4,532.4 578.4,529.9 		"/>
		<line class="st25" x1="992.8" y1="532.4" x2="1158.2" y2="532.4"/>
		<line class="st25" x1="949.2" y1="532.4" x2="979.7" y2="532.4"/>
		<line class="st25" x1="659.9" y1="532.4" x2="733.5" y2="532.4"/>
		<line class="st25" x1="578.4" y1="532.4" x2="646.7" y2="532.4"/>
		<line class="st25" x1="1325.2" y1="501.6" x2="1414" y2="501.6"/>
		<line class="st25" x1="1305.6" y1="501.6" x2="1330" y2="501.6"/>
		<line class="st25" x1="1263.9" y1="501.6" x2="1292.5" y2="501.6"/>
		<line class="st25" x1="1221.2" y1="501.6" x2="1250.9" y2="501.6"/>
		<line class="st25" x1="1083.2" y1="501.6" x2="1208.2" y2="501.6"/>
		<line class="st25" x1="883.5" y1="501.6" x2="1070.9" y2="501.6"/>
		<line class="st25" x1="849" y1="501.6" x2="870.3" y2="501.6"/>
		<line class="st25" x1="696.8" y1="501.6" x2="835.9" y2="501.6"/>
		<line class="st25" x1="579.7" y1="501.6" x2="683.7" y2="501.6"/>
		<line class="st25" x1="867" y1="501.6" x2="867" y2="415.6"/>
		<polyline class="st25" points="819.9,502.7 819.9,484.5 776.4,484.5 		"/>
		<line class="st25" x1="819.9" y1="484.5" x2="819.9" y2="415.6"/>
		<line class="st25" x1="1267.1" y1="501.6" x2="1267.1" y2="416.1"/>
		<line class="st25" x1="1225" y1="502.7" x2="1225" y2="415.7"/>
		<line class="st25" x1="1155.5" y1="501.6" x2="1155.5" y2="414.6"/>
		<line class="st25" x1="1065.6" y1="502.7" x2="1065.6" y2="415.7"/>
		<line class="st25" x1="1020.6" y1="497.2" x2="1020.6" y2="502.7"/>
		<line class="st25" x1="1020.6" y1="415.7" x2="1020.6" y2="484"/>
		<polyline class="st9" points="745.3,532.8 732.5,532.8 732.5,595.9 760.7,595.9 		"/>
		<line class="st9" x1="761.7" y1="656.7" x2="761.7" y2="532.8"/>
		<line class="st25" x1="733" y1="613" x2="733" y2="595.9"/>
		<line class="st25" x1="733" y1="648.8" x2="733" y2="626.1"/>
		<line class="st9" x1="923.3" y1="532.8" x2="758.4" y2="532.8"/>
		<polyline class="st9" points="959.8,649.4 960.4,532.8 949.2,532.8 		"/>
		<line class="st25" x1="1281.6" y1="533.1" x2="1300.8" y2="533.1"/>
		<line class="st9" x1="1299.4" y1="647.7" x2="1299.4" y2="533.7"/>
		<polyline class="st25" points="1333.5,590.7 1333.5,611 1415.2,611 		"/>
		<line class="st25" x1="1333.5" y1="556.7" x2="1333.5" y2="577.7"/>
		<polyline class="st25" points="1333.5,523.3 1333.5,525.7 1333.5,544 		"/>
		<line class="st25" x1="1333.5" y1="501.6" x2="1333.5" y2="510.3"/>
		<line class="st25" x1="1414.8" y1="527" x2="1333" y2="527"/>
		<line class="st9" x1="1185.6" y1="647.7" x2="1185.6" y2="533.3"/>
		<line class="st9" x1="1073.1" y1="656.7" x2="1073.1" y2="532.2"/>
		<polyline class="st25" points="1356.1,415.4 1356.1,423.4 1414,423.4 		"/>
		<line class="st25" x1="960.5" y1="529.9" x2="960.5" y2="532.8"/>
		<line class="st25" x1="960.5" y1="502.7" x2="960.5" y2="504.1"/>
		<line class="st9" x1="1328.5" y1="594.3" x2="1332.3" y2="594.3"/>
		<line class="st9" x1="1299.1" y1="594.3" x2="1303.6" y2="594.3"/>
		<polyline class="st9" points="630.3,415.4 630.3,453.4 681.3,453.4 681.3,457 		"/>
		<line class="st9" x1="667.3" y1="449.1" x2="667.3" y2="453.1"/>
		<line class="st9" x1="667.3" y1="416" x2="667.3" y2="436.3"/>
		<polyline class="st9" points="644.9,469.9 644.9,476.9 681.7,476.9 		"/>
		<line class="st9" x1="644.9" y1="453.4" x2="644.9" y2="456.9"/>
		<line class="st9" x1="680.9" y1="469.9" x2="680.9" y2="502"/>
		<line class="st9" x1="612.4" y1="476.8" x2="612.4" y2="500.4"/>
		<polyline class="st9" points="747.6,501.6 747.6,496.6 702.1,496.6 		"/>
		<line class="st9" x1="702.1" y1="419.5" x2="702.1" y2="416.3"/>
		<line class="st9" x1="702.1" y1="501.6" x2="702.1" y2="432.6"/>
		<line class="st9" x1="739.6" y1="419.6" x2="739.6" y2="415.7"/>
		<polyline class="st9" points="701.8,437.9 739.6,437.9 739.6,432.5 		"/>
		<line class="st9" x1="702.1" y1="475.7" x2="740.5" y2="475.7"/>
		<line class="st9" x1="776.1" y1="502" x2="776.1" y2="438"/>
		<line class="st25" x1="1281.8" y1="532.5" x2="1303.4" y2="532.5"/>
		<line class="st25" x1="1171.3" y1="532.5" x2="1268.5" y2="532.5"/>
		<line class="st25" x1="1414.1" y1="567.4" x2="1333" y2="567.4"/>
	</g>
	<g id="doors">
		<path class="st26" d="M579.2,517.1c-7.9,0-12.7,5.5-12.7,12.1"/>
		<g>
			<path class="st26" d="M579.2,516.9c-7.9,0-12.7-5.5-12.7-12.1"/>
			<line class="st27" x1="579.4" y1="504.5" x2="566.8" y2="504.5"/>
			<path class="st28" d="M566.5,504.8c0,6.6,4.8,12.1,12.7,12.1v-12.1L566.5,504.8z"/>
		</g>
		<g>
			<line class="st27" x1="579.4" y1="529.5" x2="566.8" y2="529.5"/>
			<path class="st28" d="M566.5,529.2c0-6.6,4.8-12.1,12.7-12.1v12.1H566.5z"/>
		</g>
		<path class="st26" d="M961.4,517.1c-7.9,0-12.7,5.5-12.7,12.1"/>
		<g>
			<path class="st26" d="M961.4,516.9c-7.9,0-12.7-5.5-12.7-12.1"/>
			<line class="st27" x1="961.7" y1="504.5" x2="949" y2="504.5"/>
			<path class="st28" d="M948.7,504.8c0,6.6,4.8,12.1,12.7,12.1v-12.1L948.7,504.8z"/>
		</g>
		<g>
			<line class="st27" x1="961.7" y1="529.5" x2="949" y2="529.5"/>
			<path class="st28" d="M948.7,529.2c0-6.6,4.8-12.1,12.7-12.1v12.1H948.7z"/>
		</g>
		<path class="st26" d="M936.3,532.5c0,7.9,5.5,12.7,12.1,12.7"/>
		<g>
			<path class="st26" d="M936.2,532.5c0,7.9-5.5,12.7-12.1,12.7"/>
			<line class="st27" x1="923.8" y1="532.3" x2="923.8" y2="545"/>
			<path class="st28" d="M924.1,545.2c6.6,0,12.1-4.8,12.1-12.7h-12.1V545.2z"/>
		</g>
		<g>
			<line class="st27" x1="948.7" y1="532.3" x2="948.7" y2="545"/>
			<path class="st28" d="M948.4,545.2c-6.6,0-12.1-4.8-12.1-12.7h12.1V545.2z"/>
		</g>
		<g>
			<path class="st26" d="M733.9,625.7c-7.9,0-12.7-5.5-12.7-12.1"/>
			<line class="st27" x1="734.1" y1="613.4" x2="721.4" y2="613.4"/>
			<path class="st28" d="M721.2,613.7c0,6.6,4.8,12.1,12.7,12.1v-12.1H721.2z"/>
		</g>
		<g>
			<path class="st26" d="M647,531.6c0,7.9,5.5,12.7,12.1,12.7"/>
			<line class="st27" x1="659.4" y1="531.4" x2="659.4" y2="544"/>
			<path class="st28" d="M659.1,544.3c-6.6,0-12.1-4.8-12.1-12.7h12.1V544.3z"/>
		</g>
		<g>
			<path class="st26" d="M696.6,502.5c0-7.9-5.5-12.7-12.1-12.7"/>
			<line class="st27" x1="684.2" y1="502.7" x2="684.2" y2="490"/>
			<path class="st28" d="M684.5,489.8c6.6,0,12.1,4.8,12.1,12.7h-12.1V489.8z"/>
		</g>
		<g>
			<path class="st26" d="M883.2,502.5c0-7.9-5.5-12.7-12.1-12.7"/>
			<line class="st27" x1="870.8" y1="502.7" x2="870.8" y2="490"/>
			<path class="st28" d="M871.1,489.8c6.6,0,12.1,4.8,12.1,12.7h-12.1V489.8z"/>
		</g>
		<g>
			<path class="st26" d="M836.1,502.5c0-7.9,5.5-12.7,12.1-12.7"/>
			<line class="st27" x1="848.5" y1="502.7" x2="848.5" y2="490"/>
			<path class="st28" d="M848.2,489.8c-6.6,0-12.1,4.8-12.1,12.7h12.1V489.8z"/>
		</g>
		<g>
			<path class="st26" d="M1019.9,484.4c7.9,0,12.7,5.5,12.7,12.1"/>
			<line class="st27" x1="1019.6" y1="496.7" x2="1032.3" y2="496.7"/>
			<path class="st28" d="M1032.5,496.4c0-6.6-4.8-12.1-12.7-12.1v12.1H1032.5z"/>
		</g>
		<g>
			<path class="st26" d="M1082.9,502.5c0-7.9-5.5-12.7-12.1-12.7"/>
			<line class="st27" x1="1070.5" y1="502.7" x2="1070.5" y2="490"/>
			<path class="st28" d="M1070.8,489.8c6.6,0,12.1,4.8,12.1,12.7h-12.1V489.8z"/>
		</g>
		<g>
			<path class="st26" d="M1158.4,531.7c0,7.9,5.5,12.7,12.1,12.7"/>
			<line class="st27" x1="1170.8" y1="531.4" x2="1170.8" y2="544.1"/>
			<path class="st28" d="M1170.5,544.3c-6.6,0-12.1-4.8-12.2-12.9h12.1L1170.5,544.3z"/>
		</g>
		<g>
			<path class="st26" d="M992.5,531.6c0,7.9-5.5,12.7-12.1,12.7"/>
			<line class="st27" x1="980.1" y1="531.3" x2="980.1" y2="544"/>
			<path class="st28" d="M980.4,544.2c6.6,0,12.1-4.8,12.1-12.7h-12.1V544.2z"/>
		</g>
		<g>
			<path class="st26" d="M1281.3,531.7c0,7.9-5.5,12.7-12.1,12.7"/>
			<line class="st27" x1="1268.9" y1="531.4" x2="1268.9" y2="544.1"/>
			<path class="st28" d="M1269.2,544.3c6.6,0,12.1-4.8,12.1-12.7h-12.1V544.3z"/>
		</g>
		<g>
			<path class="st26" d="M1292.8,502.5c0-7.9,5.5-12.7,12.1-12.7"/>
			<line class="st27" x1="1305.1" y1="502.7" x2="1305.1" y2="490"/>
			<path class="st28" d="M1304.8,489.8c-6.6,0-12.1,4.8-12.1,12.7h12.1V489.8z"/>
		</g>
		<g>
			<path class="st26" d="M1332.7,510.6c7.9,0,12.7,5.5,12.7,12.1"/>
			<line class="st27" x1="1332.5" y1="523" x2="1345.2" y2="523"/>
			<path class="st28" d="M1345.4,522.7c0-6.6-4.8-12.1-12.7-12.1v12.1H1345.4z"/>
		</g>
		<g>
			<path class="st26" d="M1332.7,578.1c7.9,0,12.7,5.5,12.7,12.1"/>
			<line class="st27" x1="1332.5" y1="590.5" x2="1345.2" y2="590.5"/>
			<path class="st28" d="M1345.4,590.2c0-6.6-4.8-12.1-12.7-12.1v12.1H1345.4z"/>
		</g>
		<path class="st26" d="M1316.4,594c0,7.9,5.5,12.7,12.1,12.7"/>
		<g>
			<path class="st26" d="M1316.2,594c0,7.9-5.5,12.7-12.1,12.7"/>
			<line class="st27" x1="1303.8" y1="593.7" x2="1303.8" y2="606.4"/>
			<path class="st28" d="M1304.1,606.6c6.6,0,12.1-4.8,12.1-12.7h-12.1V606.6z"/>
		</g>
		<g>
			<line class="st27" x1="1328.8" y1="593.7" x2="1328.8" y2="606.4"/>
			<path class="st28" d="M1328.5,606.6c-6.6,0-12.1-4.8-12.1-12.7h12.1V606.6z"/>
		</g>
		<g>
			<path class="st26" d="M745.5,532.5c0,7.9,5.5,12.7,12.1,12.7"/>
			<line class="st27" x1="757.9" y1="532.3" x2="757.9" y2="544.9"/>
			<path class="st28" d="M757.6,545.2c-6.6,0-12.1-4.8-12.1-12.7h12.1V545.2z"/>
		</g>
		<g>
			<path class="st26" d="M667,436.5c7.9,0,12.7,5.5,12.7,12.1"/>
			<line class="st27" x1="666.8" y1="448.9" x2="679.5" y2="448.9"/>
			<path class="st28" d="M679.7,448.6c0-6.6-4.8-12.1-12.7-12.1v12.1H679.7z"/>
		</g>
		<g>
			<path class="st26" d="M1251.2,502.5c0-7.9,5.5-12.7,12.1-12.7"/>
			<line class="st27" x1="1263.5" y1="502.7" x2="1263.5" y2="490"/>
			<path class="st28" d="M1263.2,489.8c-6.6,0-12.1,4.8-12.1,12.7h12.1V489.8z"/>
		</g>
		<g>
			<path class="st26" d="M1208.5,502.5c0-7.9,5.5-12.7,12.1-12.7"/>
			<line class="st27" x1="1220.8" y1="502.7" x2="1220.8" y2="490"/>
			<path class="st28" d="M1220.6,489.8c-6.6,0-12.1,4.8-12.1,12.7h12.1V489.8z"/>
		</g>
		<g>
			<path class="st26" d="M681.6,469.6c-7.9,0-12.7-5.5-12.7-12.1"/>
			<line class="st27" x1="681.9" y1="457.2" x2="669.2" y2="457.2"/>
			<path class="st28" d="M669,457.5c0,6.6,4.8,12.1,12.7,12.1v-12.1H669z"/>
		</g>
		<g>
			<path class="st26" d="M645.3,469.6c-7.9,0-12.7-5.5-12.7-12.1"/>
			<line class="st27" x1="645.5" y1="457.2" x2="632.8" y2="457.2"/>
			<path class="st28" d="M632.6,457.5c0,6.6,4.8,12.1,12.7,12.1v-12.1H632.6z"/>
		</g>
		<g>
			<path class="st26" d="M739.3,432.1c7.9,0,12.7-5.5,12.7-12.1"/>
			<line class="st27" x1="739" y1="419.8" x2="751.7" y2="419.8"/>
			<path class="st28" d="M751.9,420c0,6.6-4.8,12.1-12.7,12.1V420H751.9z"/>
		</g>
		<g>
			<path class="st26" d="M701.8,432.1c7.9,0,12.7-5.5,12.7-12.1"/>
			<line class="st27" x1="701.6" y1="419.8" x2="714.2" y2="419.8"/>
			<path class="st28" d="M714.5,420c0,6.6-4.8,12.1-12.7,12.1V420H714.5z"/>
		</g>
		<g>
			<path class="st26" d="M1332.6,544.3c7.9,0,12.7,5.5,12.7,12.1"/>
			<line class="st27" x1="1332.4" y1="556.7" x2="1345.1" y2="556.7"/>
			<path class="st28" d="M1345.3,556.4c0-6.6-4.8-12.1-12.7-12.1v12.1H1345.3z"/>
		</g>
		<g>
			<path class="st26" d="M1413.2,510.6c7.9,0,12.7,5.5,12.7,12.1"/>
			<line class="st27" x1="1413" y1="523" x2="1425.6" y2="523"/>
			<path class="st28" d="M1425.9,522.7c0-6.6-4.8-12.1-12.7-12.1v12.1H1425.9z"/>
		</g>
	</g>
	<g id="labels">
		<g id="labels_1_">
			<g>
				<circle class="st29" cx="542.8" cy="504.9" r="7"/>
				<polygon class="st1" points="546.3,503.5 546.3,509.8 545.5,510.6 538.5,510.6 539.4,509.9 539.4,503.6 537.9,503.6 
					542.8,499.1 547.7,503.5 				"/>
				<g id="exit_9_">
					<g>
						<g>
							<path class="st29" d="M544.2,509.6l-1.7-3.1c0,0.4-0.1,1-0.2,1.3c0,0.4-0.4,0.5-0.6,0.5l0,0h-3.4l0.9-1h2l0.1-1.9l0.8-1.5
								h-0.7l0,0c0,0-0.1,0.1-0.2,0.2l-0.6,0.9c-0.1,0.1-0.2,0.2-0.4,0.2c-0.1,0-0.2,0-0.2-0.1c-0.2-0.1-0.3-0.4-0.1-0.6l0.6-0.9
								l0,0c0.2-0.2,0.3-0.4,0.4-0.5c0.2-0.1,0.3-0.1,0.5-0.1c0,0,0,0,0.1,0h1.3c0.1,0,0.3,0,0.4,0c0.7,0,1,0.2,1.1,0.4l0.1,0.1
								l0.8,1h1.2c0.2,0,0.4,0.2,0.4,0.4s-0.2,0.4-0.4,0.4H545c-0.1,0-0.3-0.1-0.3-0.2l-0.6-0.8l-0.6,1.2l2,4L544.2,509.6z"/>
							<path class="st1" d="M543.2,503.1c0.7,0,1,0.2,1.1,0.3c0,0,0.1,0,0.1,0.1l0.8,1.1h1.2c0.2,0,0.3,0.2,0.3,0.4
								s-0.2,0.4-0.3,0.4H545c-0.1,0-0.2,0-0.3-0.1l-0.7-0.9l-0.7,1.4l1.9,3.9h-1.1l-1.8-3.3c0,0-0.2,1.1-0.2,1.5s-0.5,0.4-0.5,0.4
								h-3.2l0.7-0.8h2.1l0.1-2l0.9-1.6l0,0h-0.9l0,0l0,0c0,0-0.1,0.1-0.2,0.2l-0.6,0.9c-0.1,0.1-0.2,0.2-0.3,0.2s-0.1,0-0.2,0
								c-0.2-0.1-0.2-0.3-0.1-0.5l0.6-0.9l0,0c0.2-0.2,0.3-0.4,0.4-0.4c0.2-0.1,0.3-0.1,0.4-0.1c0,0,0,0,0.1,0h1.4
								C543,503.1,543.1,503.1,543.2,503.1 M543.2,502.9v0.2V502.9c-0.1,0-0.3,0-0.4,0h-1.3c0,0,0,0-0.1,0s-0.3,0-0.5,0.1
								c-0.1,0.1-0.3,0.2-0.5,0.5l0,0l-0.6,0.9c-0.2,0.2-0.1,0.6,0.2,0.7c0.1,0,0.2,0.1,0.3,0.1c0.2,0,0.3-0.1,0.5-0.3l0.5-0.9
								l0.1-0.1l0,0h0.6l-0.7,1.3l0,0l0,0l-0.1,1.8h-1.9h-0.1v0.1l-0.7,0.8l-0.3,0.3h0.4h3.2l0,0l0,0c0,0,0.2,0,0.3-0.1
								c0.2-0.1,0.4-0.3,0.4-0.5s0.1-0.6,0.1-1l1.5,2.8v0.1h0.1h1.1h0.3l-0.1-0.3l-1.9-3.8l0.5-1.1l0.5,0.7c0.1,0.1,0.3,0.2,0.4,0.2
								h1.4c0.3,0,0.5-0.2,0.5-0.5s-0.2-0.5-0.5-0.5h-1.1l-0.8-1l-0.1-0.1c-0.1-0.1-0.2-0.2-0.4-0.2
								C543.8,502.9,543.5,502.9,543.2,502.9L543.2,502.9z"/>
						</g>
						<g>
							<path class="st29" d="M543.8,503c-0.5,0-0.9-0.4-0.9-0.9s0.4-0.9,0.9-0.9s0.9,0.4,0.9,0.9S544.3,503,543.8,503z"/>
							<path class="st1" d="M543.8,501.3c0.5,0,0.8,0.4,0.8,0.8s-0.4,0.8-0.8,0.8c-0.5,0-0.8-0.4-0.8-0.8S543.4,501.3,543.8,501.3
								 M543.8,501.1c-0.6,0-1,0.5-1,1c0,0.6,0.5,1,1,1s1-0.5,1-1S544.4,501.1,543.8,501.1L543.8,501.1z"/>
						</g>
					</g>
				</g>
			</g>
			<g>
				<circle class="st30" cx="798" cy="449.8" r="7"/>
				<path class="st31" d="M796.8,450.3c0,0.2-0.2,0.4-0.4,0.4s-0.4-0.2-0.4-0.4v-2.5l0,0c0-0.6,0.5-1,1-1l0,0h1.8l0,0
					c0.6,0,1,0.5,1,1l0,0v2.5c0,0.2-0.2,0.4-0.4,0.4s-0.4-0.2-0.4-0.4V448l0,0v6.3c0,0.3-0.2,0.5-0.5,0.5s-0.5-0.2-0.5-0.5v-3.7
					h-0.2v3.7c0,0.3-0.2,0.5-0.5,0.5s-0.5-0.2-0.5-0.5V448h-0.2L796.8,450.3L796.8,450.3L796.8,450.3z"/>
				<circle class="st31" cx="798" cy="445.7" r="0.8"/>
			</g>
			<g>
				<circle class="st30" cx="604.4" cy="450" r="7"/>
				<path class="st31" d="M602.8,450.3c0,0.2-0.3,0.3-0.4,0.2c-0.2,0-0.3-0.3-0.2-0.4l0.8-2.4c0.1-0.4,0.5-0.7,1-0.7l0,0l0,0h1.2
					l0,0l0,0c0.5,0,1,0.3,1.1,0.7l0.7,2.4c0,0.2,0,0.4-0.2,0.4s-0.4,0-0.4-0.2l-0.6-2.2h-0.3l1.1,3.8h-0.8v2.8
					c0,0.2-0.2,0.4-0.4,0.4s-0.4-0.2-0.4-0.4v-2.8h-0.5v2.8c0,0.2-0.2,0.4-0.4,0.4s-0.4-0.2-0.4-0.4v-2.8h-0.8l1.1-3.8h-0.3
					L602.8,450.3L602.8,450.3z"/>
				<circle class="st31" cx="604.5" cy="446" r="0.8"/>
			</g>
			<g>
				<circle class="st29" cx="1329.4" cy="633.5" r="7"/>
				<polygon class="st1" points="1333,632.1 1333,638.3 1332.1,639.2 1325.2,639.2 1326,638.5 1326,632.2 1324.5,632.2 
					1329.4,627.7 1334.3,632.1 				"/>
				<g id="exit_1_">
					<g>
						<g>
							<path class="st29" d="M1330.8,638.2l-1.7-3.1c-0.1,0.4-0.1,1-0.2,1.3c-0.1,0.4-0.4,0.5-0.6,0.5l0,0h-3.4l0.9-1h2.1l0.1-1.9
								l0.8-1.5h-0.7l0,0c0,0-0.1,0.1-0.2,0.2l-0.6,0.9c-0.1,0.1-0.2,0.2-0.4,0.2c-0.1,0-0.2,0-0.2-0.1c-0.2-0.1-0.3-0.4-0.1-0.6
								l0.6-0.9l0,0c0.2-0.2,0.3-0.4,0.4-0.5c0.2-0.1,0.3-0.1,0.4-0.1c0,0,0,0,0.1,0h1.3c0.1,0,0.3,0,0.4,0c0.7,0,1,0.2,1.1,0.4
								l0.1,0.1l0.8,1h1.2c0.2,0,0.4,0.2,0.4,0.4s-0.2,0.4-0.4,0.4h-1.4c-0.1,0-0.3-0.1-0.3-0.2l-0.6-0.8l-0.6,1.2l2,4L1330.8,638.2
								z"/>
							<path class="st1" d="M1329.8,631.7c0.7,0,0.9,0.2,1.1,0.3c0,0,0.1,0,0.1,0.1l0.8,1.1h1.2c0.2,0,0.3,0.2,0.3,0.3
								s-0.2,0.3-0.3,0.3h-1.4c-0.1,0-0.2,0-0.3-0.1l-0.7-0.9l-0.7,1.4l1.9,3.9h-1.1l-1.8-3.3c0,0-0.2,1.2-0.2,1.5
								c-0.1,0.4-0.5,0.4-0.5,0.4h-3.2l0.7-0.8h2.1l0.1-2l0.9-1.6l0,0h-0.9l0,0l0,0c0,0-0.1,0.2-0.2,0.2l-0.6,0.9
								c-0.1,0.1-0.2,0.2-0.3,0.2c-0.1,0-0.1,0-0.2,0c-0.2-0.1-0.2-0.3-0.1-0.5l0.6-0.9l0,0c0.2-0.2,0.3-0.4,0.4-0.4
								c0.2-0.1,0.3-0.1,0.4-0.1c0,0,0,0,0.1,0h1.4C1329.6,631.7,1329.7,631.7,1329.8,631.7 M1329.8,631.5v0.2V631.5
								c-0.1,0-0.3,0-0.4,0h-1.3h-0.1c-0.1,0-0.3,0-0.5,0.1c-0.1,0.1-0.3,0.2-0.5,0.5l0,0l-0.6,0.9c-0.2,0.2-0.1,0.6,0.2,0.7
								c0.1,0,0.2,0.1,0.3,0.1c0.2,0,0.3-0.1,0.4-0.3l0.6-0.9c0,0,0.1-0.1,0.1-0.2l0,0h0.6l-0.7,1.3l0,0l0,0l-0.1,1.8h-1.9h-0.1
								l-0.1,0.1l-0.7,0.8l-0.3,0.3h0.4h3.2l0,0l0,0c0,0,0.2,0,0.3-0.1c0.2-0.1,0.4-0.3,0.4-0.5s0.1-0.6,0.1-1l1.5,2.8l0.1,0.1h0.1
								h1.1h0.3l-0.1-0.3l-1.9-3.8l0.5-1.1l0.5,0.7c0.1,0.1,0.3,0.2,0.4,0.2h1.4c0.3,0,0.5-0.2,0.5-0.5s-0.2-0.5-0.5-0.5h-1.1
								l-0.8-1l-0.1-0.1c-0.1-0.1-0.2-0.2-0.4-0.2C1330.4,631.5,1330.2,631.5,1329.8,631.5L1329.8,631.5z"/>
						</g>
						<g>
							<path class="st29" d="M1330.5,631.6c-0.5,0-0.9-0.4-0.9-0.9s0.4-0.9,0.9-0.9s0.9,0.4,0.9,0.9S1331,631.6,1330.5,631.6z"/>
							<path class="st1" d="M1330.5,629.9c0.5,0,0.8,0.4,0.8,0.8s-0.4,0.8-0.8,0.8s-0.8-0.4-0.8-0.8
								C1329.6,630.3,1330,629.9,1330.5,629.9 M1330.5,629.7c-0.6,0-1,0.5-1,1s0.4,1,1,1s1-0.5,1-1S1331,629.7,1330.5,629.7
								L1330.5,629.7z"/>
						</g>
					</g>
				</g>
			</g>
			<rect x="110.5" y="84.9" class="st32" width="232" height="272.5"/>
			<g>
				<circle class="st29" cx="157.6" cy="118.4" r="19.9"/>
				<polygon class="st1" points="167.7,114.6 167.7,132.3 165.2,134.8 145.5,134.8 147.9,132.7 147.9,114.7 143.6,114.7 157.6,102 
					171.5,114.6 				"/>
				<g id="exit_14_">
					<g>
						<g>
							<path class="st29" d="M161.6,131.8l-4.8-8.8c-0.1,1-0.4,2.8-0.5,3.6c-0.1,1.1-1.2,1.4-1.7,1.5l0,0H145l2.4-2.9h5.8l0.4-5.3
								l2.3-4.2h-2h-0.1c-0.1,0.1-0.3,0.4-0.4,0.6l-1.6,2.5c-0.2,0.4-0.6,0.6-1.1,0.6c-0.2,0-0.5-0.1-0.7-0.2
								c-0.6-0.4-0.8-1.1-0.4-1.7l1.6-2.5l0,0c0.5-0.7,0.9-1.1,1.2-1.3c0.5-0.3,1-0.3,1.3-0.3c0.1,0,0.1,0,0.2,0h3.8
								c0.4,0,0.8-0.1,1.1-0.1c2,0,2.9,0.6,3.2,1c0.1,0.1,0.2,0.2,0.3,0.3l2.2,2.9h3.4c0.7,0,1.3,0.6,1.3,1.3s-0.6,1.3-1.3,1.3h-4
								c-0.4,0-0.8-0.2-1-0.5l-1.7-2.3l-1.6,3.5l5.6,11.4L161.6,131.8z"/>
							<path class="st1" d="M158.8,113.3c1.9,0,2.7,0.6,3,1c0.1,0.1,0.2,0.1,0.3,0.2l2.3,3h3.5c0.5,0,1,0.4,1,1s-0.4,1-1,1h-4
								c-0.3,0-0.6-0.1-0.8-0.4l-2-2.6l-1.9,4.1l5.5,11.1l-3-0.1l-5.1-9.3c0,0-0.5,3.3-0.6,4.4c-0.1,1.2-1.5,1.2-1.5,1.2h-9l2-2.4h6
								l0.4-5.6l2.4-4.6l0,0h-2.5h-0.1h-0.1c-0.1,0.1-0.4,0.4-0.5,0.7l-1.6,2.5c-0.2,0.3-0.5,0.5-0.8,0.5c-0.2,0-0.4-0.1-0.5-0.2
								c-0.5-0.3-0.6-0.9-0.3-1.4l1.6-2.5l0,0c0.4-0.7,0.8-1.1,1.1-1.2c0.4-0.3,0.9-0.3,1.2-0.3c0.1,0,0.1,0,0.2,0h3.9
								C158.1,113.3,158.5,113.3,158.8,113.3 M158.8,112.8v0.5V112.8c-0.4,0-0.7,0-1.1,0.1h-3.8c-0.1,0-0.1,0-0.2,0
								c-0.4,0-0.9,0.1-1.4,0.4c-0.4,0.2-0.8,0.7-1.3,1.4c0,0,0,0,0,0.1l-1.6,2.5c-0.4,0.7-0.2,1.7,0.5,2.1c0.2,0.2,0.5,0.2,0.8,0.2
								c0.5,0,1-0.3,1.3-0.7l1.6-2.5c0.1-0.2,0.2-0.3,0.3-0.4l0,0h1.6l-2,3.8l-0.1,0.1v0.1l-0.3,5h-5.5h-0.3l-0.2,0.2l-2,2.4
								l-0.8,0.9h1.2h9l0,0l0,0c0,0,0.4,0,0.9-0.2c0.6-0.3,1-0.8,1.1-1.5c0.1-0.6,0.3-1.8,0.4-2.8l4.3,7.9l0.1,0.3h0.3l3,0.1h0.9
								l-0.4-0.8l-5.4-10.9l1.4-3l1.4,1.9c0.3,0.4,0.7,0.6,1.2,0.6h4c0.8,0,1.5-0.7,1.5-1.5s-0.7-1.5-1.5-1.5h-3.2l-2.1-2.8
								c-0.1-0.1-0.2-0.2-0.3-0.3c-0.3-0.3-0.6-0.5-1.1-0.7C160.5,112.9,159.7,112.8,158.8,112.8L158.8,112.8z"/>
						</g>
						<g>
							<path class="st29" d="M160.6,113.2c-1.4,0-2.6-1.2-2.6-2.6s1.2-2.6,2.6-2.6s2.6,1.2,2.6,2.6S162,113.2,160.6,113.2z"/>
							<path class="st1" d="M160.6,108.2c1.3,0,2.4,1.1,2.4,2.3s-1.1,2.3-2.4,2.3s-2.4-1.1-2.4-2.3S159.3,108.2,160.6,108.2
								 M160.6,107.7c-1.6,0-2.9,1.3-2.9,2.9s1.3,2.9,2.9,2.9c1.6,0,2.9-1.3,2.9-2.9S162.1,107.7,160.6,107.7L160.6,107.7z"/>
						</g>
					</g>
				</g>
			</g>
			<g>
				<g>
					<path class="st33" d="M157.6,242.7c-11.7,0-21.2-9.5-21.2-21.2s9.5-21.2,21.2-21.2s21.2,9.5,21.2,21.2S169.3,242.7,157.6,242.7
						z"/>
					<path class="st1" d="M157.6,201.6c11,0,19.9,8.9,19.9,19.9s-8.9,19.9-19.9,19.9s-19.9-8.9-19.9-19.9S146.6,201.6,157.6,201.6
						 M157.6,199.1c-12.4,0-22.4,10.1-22.4,22.4s10.1,22.4,22.4,22.4s22.4-10.1,22.4-22.4S169.9,199.1,157.6,199.1L157.6,199.1z"/>
				</g>
				<g id="fire_17_">
					<g>
						<path class="st1" d="M168.8,213.3v-4.5l-6.7,0.8v0.8h-3.5v-1.7h-0.9c0,0,0-0.4-0.3-0.8c-0.8-1.2-2.6-1.3-3.4-0.4
							c-1.6,1.6,0,3.3,0,3.3c-1.6,0.7-2.9,1.9-3.4,3c-0.6,1.5,0.9,1.7,1.3,1.1c1.9-2.9,3.9-2.8,3.9-2.8v0.7
							c-3.3,1.1-3.1,4.1-3.1,4.1s0,17.4,0,18.6c0,1,1,0.9,1,0.9c1.4,0,3.2,0,3.2,0s2.6,0,3.6,0s1.1-0.8,1.1-1.4s0-15.2,0-18.2
							s-3-4.1-3-4.1v-1h3.5v0.8L168.8,213.3z M155.5,209.9c-0.5,0-0.9-0.4-0.9-0.9s0.4-0.9,0.9-0.9s0.9,0.4,0.9,0.9
							S156.1,209.9,155.5,209.9z"/>
					</g>
				</g>
			</g>
			<g>
				<g>
					<path class="st29" d="M157.6,191.1c-11.7,0-21.2-9.5-21.2-21.2s9.5-21.2,21.2-21.2s21.2,9.5,21.2,21.2S169.3,191.1,157.6,191.1
						z"/>
					<path class="st1" d="M157.6,150.1c11,0,19.9,8.9,19.9,19.9s-8.9,19.9-19.9,19.9s-19.9-8.9-19.9-19.9S146.6,150.1,157.6,150.1
						 M157.6,147.6c-12.4,0-22.4,10.1-22.4,22.4s10.1,22.4,22.4,22.4S180,182.3,180,170S169.9,147.6,157.6,147.6L157.6,147.6z"/>
				</g>
				<g id="aid_1_">
					<polygon class="st1" points="170.8,166.3 161.3,166.3 161.3,156.8 154,156.8 154,166.3 144.4,166.3 144.4,173.7 154,173.7 
						154,183.2 161.3,183.2 161.3,173.7 170.8,173.7 					"/>
				</g>
			</g>
			<g>
				<g>
					<path class="st33" d="M157.6,294.3c-11.7,0-21.2-9.5-21.2-21.2s9.5-21.2,21.2-21.2s21.2,9.5,21.2,21.2S169.3,294.3,157.6,294.3
						z"/>
					<path class="st1" d="M157.6,253.2c11,0,19.9,8.9,19.9,19.9s-8.9,19.9-19.9,19.9s-19.9-8.9-19.9-19.9S146.6,253.2,157.6,253.2
						 M157.6,250.7c-12.4,0-22.4,10-22.4,22.4s10.1,22.4,22.4,22.4s22.4-10,22.4-22.4S169.9,250.7,157.6,250.7L157.6,250.7z"/>
				</g>
				<path class="st1" d="M167.4,271c-2.3,3.2-3.9,2.4-3.9,2.4c1.5-3.2-0.4-7.5-0.4-7.5c-2.7,3.2-3,2.2-3,2.2
					c1.2-4.1-2.7-9.5-2.7-9.5c1.9,4.7-2.5,9.4-2.5,9.4c-0.2-1.5-1.2-2.9-1.2-2.9c-3.3,5.5-2.7,7.6-2.7,7.6c-0.6-1.1-2.5-2-2.5-2
					c-6.1,15.1,6,15.6,6,15.6c-5.9-4.2-4.4-7-4.4-7c0.9,1,2.7,1,2.7,1c-0.7-1.6-0.2-3.5-0.2-3.5c1.2,2.2,3.4,2,3.4,2
					c-1.5-2.6,1.9-5.8,1.9-5.8c-0.5,1.5,0.6,5.4,0.6,5.4c0.1-0.4,0.4-0.5,1.1-0.9c0.6-0.4,1.1-1.4,1.1-1.4c0.8,3,1.2,3.4,1.2,3.4
					c1,0.2,1.9-1,1.9-1c2,5.4-4.6,7.7-4.6,7.7C171.4,286.1,167.4,271,167.4,271z"/>
			</g>
			<g>
				<circle class="st30" cx="157.6" cy="324.7" r="19.9"/>
				<path class="st31" d="M162.4,327.3c0,0.5-0.4,0.9-0.9,0.9s-0.9-0.4-0.9-0.9v-6l0,0c0-1.3,1.1-2.4,2.4-2.4l0,0h4.3l0,0
					c1.3,0,2.4,1.1,2.4,2.4l0,0v6c0,0.5-0.4,0.9-0.9,0.9s-0.9-0.4-0.9-0.9v-5.5h-0.5v14.9c0,0.6-0.5,1.1-1.1,1.1s-1.1-0.5-1.1-1.1
					v-8.6H165v8.6c0,0.6-0.5,1.1-1.1,1.1s-1.1-0.5-1.1-1.1v-14.9h-0.5L162.4,327.3L162.4,327.3z"/>
				<circle class="st31" cx="165.2" cy="316.5" r="2"/>
				<path class="st31" d="M145.6,326.5c-0.1,0.4-0.6,0.7-1,0.5c-0.4-0.1-0.7-0.6-0.6-1l1.6-5.6c0.3-1,1.3-1.8,2.3-1.8l0,0l0,0h2.7
					l0,0c0,0,0,0,0.1,0c1.1,0,2,0.7,2.3,1.8l1.6,5.6c0.1,0.4-0.1,0.9-0.6,1c-0.4,0.1-0.9-0.1-1-0.5l-1.5-5.2H151l2.6,8.9h-2.4v6.6
					c0,0.5-0.4,0.9-0.9,0.9s-0.9-0.4-0.9-0.9v-6.6H149v6.6c0,0.5-0.4,0.9-0.9,0.9s-0.9-0.4-0.9-0.9v-6.6H145l2.6-8.9h-0.5
					L145.6,326.5L145.6,326.5z"/>
				<circle class="st31" cx="149.4" cy="316.4" r="2"/>
				<line class="st34" x1="157.6" y1="308.2" x2="157.6" y2="340.8"/>
			</g>
			<g>
				<circle class="st30" cx="649" cy="434.5" r="7"/>
				<path class="st31" d="M650.7,435.5c0,0.2-0.1,0.3-0.3,0.3s-0.3-0.1-0.3-0.3v-2.1l0,0c0-0.5,0.4-0.8,0.8-0.8l0,0h1.5l0,0
					c0.5,0,0.8,0.4,0.8,0.8l0,0v2.1c0,0.2-0.1,0.3-0.3,0.3s-0.3-0.1-0.3-0.3v-1.9h-0.2v5.2c0,0.2-0.2,0.4-0.4,0.4s-0.4-0.2-0.4-0.4
					v-3h-0.1v3c0,0.2-0.2,0.4-0.4,0.4s-0.4-0.2-0.4-0.4v-5.2h-0.2L650.7,435.5L650.7,435.5z"/>
				<circle class="st31" cx="651.7" cy="431.7" r="0.7"/>
				<path class="st31" d="M644.8,435.2c0,0.1-0.2,0.2-0.4,0.2c-0.1,0-0.2-0.2-0.2-0.4l0.6-2c0.1-0.4,0.5-0.6,0.8-0.6l0,0l0,0h0.9
					l0,0l0,0c0.4,0,0.7,0.2,0.8,0.6l0.6,2c0,0.1,0,0.3-0.2,0.4c-0.1,0-0.3,0-0.4-0.2l-0.5-1.8h-0.2l0.9,3.1h-0.8v2.3
					c0,0.2-0.1,0.3-0.3,0.3s-0.3-0.1-0.3-0.3v-2.3H646v2.3c0,0.2-0.1,0.3-0.3,0.3s-0.3-0.1-0.3-0.3v-2.3h-0.8l0.9-3.1h-0.2
					L644.8,435.2L644.8,435.2z"/>
				<circle class="st31" cx="646.1" cy="431.6" r="0.7"/>
				<line class="st35" x1="649" y1="428.7" x2="649" y2="440.2"/>
			</g>
		</g>
	</g>
	<g>
		<text transform="matrix(1 0 0 1 609.6951 590.843)" class="st36 st37 st38">PROJECT</text>
		<text transform="matrix(1 0 0 1 611.4951 596.843)" class="st36 st37 st38">OFFICE</text>
	</g>
	<g>
		<text transform="matrix(1 0 0 1 1007.8952 592.4203)" class="st36 st37 st38">BUDDA</text>
		<text transform="matrix(1 0 0 1 1009.1342 598.4203)" class="st36 st37 st38">ROOM</text>
	</g>
	<text transform="matrix(1 0 0 1 1222.658 591.9436)" class="st36 st37 st38">GOLDEN PAVILION</text>
	<text transform="matrix(1 0 0 1 1235.458 597.9436)" class="st36 st37 st38">ROOM</text>
	<text transform="matrix(1 0 0 1 1119.619 595.0498)" class="st36 st37 st38">OFFICE</text>
	<text transform="matrix(1 0 0 1 1353.5996 546.3497)" class="st36 st37 st38">CHERRY BLOSSOM</text>
	<text transform="matrix(1 0 0 1 1369.1001 552.3497)" class="st36 st37 st38">ROOM</text>
	<text transform="matrix(1 0 0 1 1362.3879 587.5499)" class="st36 st37 st38">TOKYO BAY</text>
	<text transform="matrix(1 0 0 1 1367.788 593.5499)" class="st36 st37 st38">ROOM</text>
	<text transform="matrix(1 0 0 1 1186.6429 459.1799)" class="st36 st37 st38">I.T. </text>
	<text transform="matrix(1 0 0 1 1182.3429 465.1799)" class="st36 st37 st38">STORE</text>
	<text transform="matrix(1 0 0 1 1099.6068 455.6002)" class="st36 st37 st38">TRAINING</text>
	<text transform="matrix(1 0 0 1 1103.0068 461.6002)" class="st36 st37 st38">ROOM</text>
	<text transform="matrix(1 0 0 1 1034.0774 452.9335)" class="st36 st37 st38">MOUNT</text>
	<text transform="matrix(1 0 0 1 1037.9774 458.9335)" class="st36 st37 st38">FUJI</text>
	<text transform="matrix(1 0 0 1 1035.4774 464.9335)" class="st36 st37 st38">ROOM</text>
	<text transform="matrix(1 0 0 1 925.016 458.8551)" class="st36 st37 st38">KITCHEN / CANTEEN 02</text>
	<text transform="matrix(1 0 0 1 192.4901 125.5198)" class="st36 st39 st40">EMERGENCY EXIT</text>
	<text transform="matrix(1 0 0 1 192.4903 176.9599)" class="st36 st39 st40">FIRST AID</text>
	<text transform="matrix(1 0 0 1 192.49 229.0098)" class="st36 st39 st40">EXTINGUISHER</text>
	<text transform="matrix(1 0 0 1 192.4902 279.0198)" class="st36 st39 st40">FIRE BLANKET</text>
	<text transform="matrix(1 0 0 1 192.49 331.2998)" class="st36 st39 st40">TOILETS</text>
	<g>
		<text transform="matrix(1 0 0 1 848.9998 594.4501)" class="st36 st37 st38">PLANT 3</text>
	</g>
	<text transform="matrix(1 0 0 1 1239.7001 459.2001)" class="st36 st37 st38">LOPS</text>
	<g>
		<g>
			<path class="st29" d="M985.4,437.5c-3.7,0-6.7-3-6.7-6.7s3-6.7,6.7-6.7s6.7,3,6.7,6.7C992.1,434.5,989.1,437.5,985.4,437.5z"/>
			<path class="st1" d="M985.4,424.5c3.5,0,6.3,2.8,6.3,6.3s-2.8,6.3-6.3,6.3s-6.3-2.8-6.3-6.3C979.1,427.3,981.9,424.5,985.4,424.5
				 M985.4,423.7c-3.9,0-7.1,3.2-7.1,7.1s3.2,7.1,7.1,7.1s7.1-3.2,7.1-7.1C992.5,426.9,989.3,423.7,985.4,423.7L985.4,423.7z"/>
		</g>
		<g id="aid_2_">
			<polygon class="st1" points="989.6,429.6 986.6,429.6 986.6,426.6 984.3,426.6 984.3,429.6 981.2,429.6 981.2,432 984.3,432 
				984.3,435 986.6,435 986.6,432 989.6,432 			"/>
		</g>
	</g>
</g>
</svg>
