<?xml version="1.0" encoding="UTF-8"?>
<svg xmlns="http://www.w3.org/2000/svg" viewBox="0 0 1920 1080">
  <defs>
    <style>
      .cls-1 {
        stroke-width: 2px;
      }

      .cls-1, .cls-2, .cls-3, .cls-4, .cls-5 {
        stroke-miterlimit: 10;
      }

      .cls-1, .cls-2, .cls-5 {
        stroke: #000;
      }

      .cls-1, .cls-6 {
        fill: #fff;
      }

      .cls-2 {
        stroke-width: 4.5px;
      }

      .cls-2, .cls-3, .cls-5 {
        fill: none;
      }

      .cls-7 {
        fill: #003e87;
      }

      .cls-7, .cls-8, .cls-9, .cls-10, .cls-11, .cls-6, .cls-12 {
        stroke-width: 0px;
      }

      .cls-8 {
        fill: red;
      }

      .cls-3 {
        stroke: #fefefe;
        stroke-width: .8px;
      }

      .cls-4 {
        fill: #e5e0ae;
        stroke: #fff;
      }

      .cls-4, .cls-5 {
        stroke-width: 9.1px;
      }

      .cls-9 {
        fill: #b3b9ff;
      }

      .cls-10 {
        fill: #008246;
      }

      .cls-11 {
        fill: #e0dede;
      }

      .cls-13 {
        font-size: 14px;
        isolation: isolate;
      }

      .cls-13, .cls-14 {
        fill: #000;
        font-family: ArialMT, Arial;
      }

      .cls-15 {
        letter-spacing: 0em;
      }

      .cls-14 {
        font-size: 24px;
      }

      .cls-16 {
        letter-spacing: 0em;
      }

      .cls-12 {
        fill: #fefefe;
      }
    </style>
  </defs>
  <g id="base">
    <g id="Layer_2" data-name="Layer 2">
      <g>
        <rect class="cls-11" x="339.9" y="242.8" width="136.9" height="112.5"/>
        <path class="cls-6" d="M472.2,247.4v103.4h-127.8v-103.4h127.8M481.3,238.3h-145.9v121.6h145.9v-121.6h0Z"/>
      </g>
      <g>
        <rect class="cls-11" x="485.9" y="242.8" width="67.2" height="112.5"/>
        <path class="cls-6" d="M548.5,247.4v103.4h-58.1v-103.4h58.1M557.6,238.3h-76.3v121.6h76.3v-121.6h0Z"/>
      </g>
      <g>
        <rect class="cls-11" x="562.1" y="242.8" width="67.2" height="112.5"/>
        <path class="cls-6" d="M624.8,247.4v103.4h-58.1v-103.4h58.1M633.9,238.3h-76.3v121.6h76.3v-121.6h0Z"/>
      </g>
      <g>
        <rect class="cls-11" x="638.4" y="242.8" width="57.8" height="112.5"/>
        <path class="cls-6" d="M691.7,247.4v103.4h-48.7v-103.4h48.7M700.7,238.3h-66.9v121.6h66.9v-121.6h0Z"/>
      </g>
      <g>
        <rect class="cls-11" x="705.3" y="242.8" width="67.2" height="112.5"/>
        <path class="cls-6" d="M767.9,247.4v103.4h-58.1v-103.4h58.1M777,238.3h-76.3v121.6h76.3v-121.6h0Z"/>
      </g>
      <g>
        <rect class="cls-11" x="781.6" y="242.8" width="33.1" height="112.5"/>
        <path class="cls-6" d="M810.2,247.4v103.4h-24.1v-103.4h24.1M819.3,238.3h-42.2v121.6h42.2v-121.6h0Z"/>
      </g>
      <g>
        <rect class="cls-11" x="823.8" y="242.8" width="185.7" height="112.5"/>
        <path class="cls-6" d="M1005,247.4v103.4h-176.6v-103.4h176.6M1014.1,238.3h-194.8v121.6h194.8v-121.6h0Z"/>
      </g>
      <g>
        <rect class="cls-11" x="1018.6" y="242.8" width="189.2" height="112.5"/>
        <path class="cls-6" d="M1203.3,247.4v103.4h-180.1v-103.4h180.1M1212.4,238.3h-198.3v121.6h198.3v-121.6h0Z"/>
      </g>
      <g>
        <rect class="cls-9" x="1216.9" y="242.8" width="120" height="112.5"/>
        <path class="cls-6" d="M1332.3,247.4v103.4h-110.9v-103.4h110.9M1341.4,238.3h-129.1v121.6h129.1v-121.6h0Z"/>
      </g>
      <g>
        <rect class="cls-11" x="1340.6" y="242.8" width="141.8" height="112.5"/>
        <path class="cls-6" d="M1477.9,247.4v103.4h-132.7v-103.4h132.7M1486.9,238.3h-150.9v121.6h150.9v-121.6h0Z"/>
      </g>
      <g>
        <rect class="cls-11" x="1491.5" y="242.8" width="64.8" height="112.5"/>
        <path class="cls-6" d="M1551.8,247.4v103.4h-55.7v-103.4h55.7M1560.9,238.3h-73.9v121.6h73.9v-121.6h0Z"/>
      </g>
      <g>
        <rect class="cls-11" x="1565.4" y="242.8" width="63.6" height="89"/>
        <path class="cls-6" d="M1624.5,247.4v79.9h-54.5v-79.9h54.5M1633.6,238.3h-72.7v98.1h72.7v-98.1h0Z"/>
      </g>
      <g>
        <rect class="cls-11" x="1565.4" y="336.8" width="62.1" height="19.7"/>
        <path class="cls-6" d="M1623,341.4v10.6h-53v-10.6h53M1632.1,332.3h-71.2v28.7h71.2v-28.7h0Z"/>
      </g>
      <g>
        <rect class="cls-11" x="1314.9" y="408.2" width="139.2" height="135.8"/>
        <path class="cls-6" d="M1449.5,412.7v126.7h-130.1v-126.7h130.1M1458.6,403.7h-148.3v144.8h148.3v-144.8h0Z"/>
      </g>
      <g>
        <rect class="cls-11" x="1216.9" y="408.2" width="88.9" height="135.8"/>
        <path class="cls-6" d="M1301.3,412.7v126.7h-79.8v-126.7h79.8M1310.3,403.7h-98v144.8h98v-144.8h0Z"/>
      </g>
      <g>
        <rect class="cls-11" x="1166.2" y="408.2" width="41.7" height="135.8"/>
        <path class="cls-6" d="M1203.3,412.7v126.7h-32.6v-126.7h32.6M1212.4,403.7h-50.8v144.8h50.8v-144.8h0Z"/>
      </g>
      <g>
        <rect class="cls-11" x="941.7" y="408.2" width="215.3" height="134"/>
        <path class="cls-6" d="M1152.5,412.7v124.9h-206.2v-124.9h206.2M1161.6,403.7h-224.4v143.1h224.4v-143.1h0Z"/>
      </g>
      <g>
        <rect class="cls-11" x="794.7" y="408.2" width="138" height="134"/>
        <path class="cls-6" d="M928.1,412.7v124.9h-128.9v-124.9h128.9M937.2,403.7h-147.1v143.1h147.1v-143.1h0Z"/>
      </g>
      <g>
        <rect class="cls-11" x="456.8" y="408.2" width="328.7" height="134"/>
        <path class="cls-6" d="M781,412.7v124.9h-319.7v-124.9h319.7M790.1,403.7h-337.8v143.1h337.8v-143.1h0Z"/>
      </g>
      <g>
        <polygon class="cls-9" points="339.9 545.2 339.9 406 447.7 408.1 447.7 545.2 339.9 545.2"/>
        <path class="cls-6" d="M344.5,410.7l98.7,1.9v128.1h-98.7v-130M335.4,401.4v148.4h116.9v-146.1l-116.9-2.3h0Z"/>
      </g>
      <g>
        <rect class="cls-11" x="1322.1" y="558.6" width="132" height="201.6"/>
        <path class="cls-6" d="M1449.5,563.2v192.6h-122.9v-192.6h122.9M1458.6,554.1h-141.1v210.7h141.1v-210.7h0Z"/>
      </g>
      <g>
        <rect class="cls-11" x="1495.9" y="553" width="133.1" height="271.8"/>
        <path class="cls-6" d="M1624.5,557.6v262.7h-124v-262.7h124M1633.6,548.5h-142.2v280.9h142.2v-280.9h0Z"/>
      </g>
      <g>
        <rect class="cls-11" x="1322.1" y="769.4" width="66.2" height="55.5"/>
        <path class="cls-6" d="M1383.7,773.9v46.4h-57.1v-46.4h57.1M1392.8,764.8h-75.2v64.6h75.2v-64.6h0Z"/>
      </g>
      <g>
        <rect class="cls-11" x="1397.3" y="769.4" width="58.1" height="56.4"/>
        <path class="cls-6" d="M1450.9,773.9v47.3h-49v-47.3h49M1460,764.8h-67.2v65.5h67.2v-65.5h0Z"/>
      </g>
      <polygon class="cls-4" points="1629.8 361 1460 362.4 1460 830.3 1491.3 829.4 1491.3 548.5 1633.6 548.5 1629.8 361"/>
    </g>
    <g id="Layer_1" data-name="Layer 1">
      <polyline class="cls-5" points="1483.5 829.4 1633.6 829.4 1633.6 429.3"/>
      <polyline class="cls-5" points="374 549.7 1317.5 549.7 1317.5 829.4 1467.6 829.4"/>
      <polyline class="cls-5" points="335.4 392.9 335.4 549.7 346.7 549.7"/>
      <polyline class="cls-5" points="1276.6 238.3 335.4 238.3 335.4 370.1"/>
      <polyline class="cls-5" points="1633.6 390.6 1633.6 238.3 1315.3 238.3"/>
      <line class="cls-5" x1="1596.2" y1="359.9" x2="1627.8" y2="359.9"/>
      <line class="cls-2" x1="1519.8" y1="359.9" x2="1575.6" y2="359.9"/>
      <line class="cls-2" x1="1421.2" y1="359.9" x2="1498.7" y2="359.9"/>
      <line class="cls-2" x1="1321" y1="359.9" x2="1401.7" y2="359.9"/>
      <line class="cls-2" x1="1201.8" y1="359.9" x2="1300.3" y2="359.9"/>
      <line class="cls-2" x1="860.5" y1="359.9" x2="1183" y2="359.9"/>
      <line class="cls-2" x1="809.4" y1="359.9" x2="841.5" y2="359.9"/>
      <line class="cls-2" x1="730.7" y1="359.9" x2="790.1" y2="359.9"/>
      <line class="cls-2" x1="670.2" y1="359.9" x2="710.4" y2="359.9"/>
      <line class="cls-2" x1="619.8" y1="359.9" x2="645.6" y2="359.9"/>
      <line class="cls-2" x1="542.3" y1="359.9" x2="601" y2="359.9"/>
      <line class="cls-2" x1="468.4" y1="359.9" x2="522.4" y2="359.9"/>
      <line class="cls-2" x1="336.5" y1="359.9" x2="448" y2="359.9"/>
      <line class="cls-2" x1="481.3" y1="238.3" x2="481.3" y2="359.9"/>
      <line class="cls-2" x1="557.6" y1="359.9" x2="557.6" y2="238.3"/>
      <line class="cls-2" x1="633.9" y1="359.9" x2="633.9" y2="238.3"/>
      <line class="cls-2" x1="700.7" y1="359.9" x2="700.7" y2="238.3"/>
      <line class="cls-2" x1="777" y1="359.9" x2="777" y2="238.3"/>
      <line class="cls-2" x1="819.3" y1="359.9" x2="819.3" y2="238.3"/>
      <line class="cls-2" x1="1014.1" y1="359.9" x2="1014.1" y2="238.3"/>
      <line class="cls-2" x1="1212.4" y1="359.9" x2="1212.4" y2="238.3"/>
      <line class="cls-2" x1="1341.4" y1="359.9" x2="1341.4" y2="238.3"/>
      <line class="cls-2" x1="1486.9" y1="359.9" x2="1486.9" y2="238.3"/>
      <line class="cls-2" x1="1560.9" y1="359.9" x2="1560.9" y2="238.3"/>
      <line class="cls-2" x1="1608.7" y1="336.4" x2="1633.6" y2="336.4"/>
      <line class="cls-2" x1="1560.9" y1="336.4" x2="1588.1" y2="336.4"/>
      <line class="cls-2" x1="1269.8" y1="402" x2="1460" y2="402"/>
      <line class="cls-2" x1="1201.8" y1="402" x2="1251.1" y2="402"/>
      <line class="cls-2" x1="971.5" y1="402" x2="1183" y2="402"/>
      <line class="cls-2" x1="919.6" y1="402" x2="948.6" y2="402"/>
      <line class="cls-2" x1="522.4" y1="402" x2="894.9" y2="402"/>
      <line class="cls-2" x1="399.5" y1="402" x2="502.4" y2="402"/>
      <line class="cls-2" x1="332.7" y1="402" x2="374.8" y2="402"/>
      <line class="cls-2" x1="452.3" y1="403.7" x2="452.3" y2="546.7"/>
      <line class="cls-2" x1="790.1" y1="403.7" x2="790.1" y2="546.7"/>
      <line class="cls-2" x1="937.2" y1="403.7" x2="937.2" y2="546.7"/>
      <line class="cls-2" x1="1161.6" y1="403.7" x2="1161.6" y2="546.7"/>
      <line class="cls-2" x1="1212.4" y1="403.7" x2="1212.4" y2="546.7"/>
      <line class="cls-2" x1="1310.3" y1="403.7" x2="1310.3" y2="546.7"/>
      <line class="cls-2" x1="1460" y1="794.9" x2="1460" y2="830.3"/>
      <line class="cls-2" x1="1460" y1="754.1" x2="1460" y2="775.6"/>
      <line class="cls-2" x1="1460" y1="576.4" x2="1460" y2="735.7"/>
      <line class="cls-2" x1="1460" y1="425" x2="1460" y2="558.5"/>
      <line class="cls-2" x1="1460" y1="390.6" x2="1460" y2="408"/>
      <line class="cls-2" x1="1460" y1="362.4" x2="1460" y2="371.4"/>
      <line class="cls-2" x1="1371.4" y1="764.8" x2="1459.7" y2="764.8"/>
      <line class="cls-2" x1="1321.9" y1="764.8" x2="1350.2" y2="764.8"/>
      <line class="cls-2" x1="1392.8" y1="766.3" x2="1392.8" y2="827"/>
      <polyline class="cls-2" points="1491.3 579 1491.3 548.5 1629.8 548.5"/>
      <line class="cls-2" x1="1491.3" y1="735.7" x2="1491.3" y2="601.6"/>
      <line class="cls-2" x1="1491.3" y1="825" x2="1491.3" y2="754.1"/>
      <line class="cls-2" x1="1320.9" y1="548.5" x2="1458.6" y2="548.5"/>
      <rect class="cls-1" x="350.9" y="682.7" width="441.5" height="142.7"/>
      <g>
        <g>
          <circle class="cls-10" cx="394.8" cy="718.9" r="19.9"/>
          <polygon class="cls-6" points="404.9 715.1 404.9 732.8 402.4 735.3 382.7 735.3 385.1 733.2 385.1 715.2 380.8 715.2 394.8 702.5 408.7 715.1 404.9 715.1"/>
          <g id="exit">
            <g>
              <g>
                <path class="cls-10" d="M398.8,732.3l-4.8-8.8c-.1,1-.4,2.8-.5,3.6-.1,1.1-1.2,1.4-1.7,1.5h-9.6l2.4-2.9h5.8l.4-5.3,2.3-4.2h-2.1c-.1,0-.3.4-.4.6l-1.6,2.5c-.2.4-.6.6-1.1.6s-.5,0-.7-.2c-.6-.4-.8-1.1-.4-1.7l1.6-2.5h0c.5-.7.9-1.1,1.2-1.3.5-.3,1-.3,1.3-.3h4c.4,0,.8,0,1.1,0,2,0,2.9.6,3.2,1,.1,0,.2.2.3.3l2.2,2.9h3.4c.7,0,1.3.6,1.3,1.3s-.6,1.3-1.3,1.3h-4c-.4,0-.8-.2-1-.5l-1.7-2.3-1.6,3.5,5.6,11.4-3.6-.4Z"/>
                <path class="cls-6" d="M396,713.8c1.9,0,2.7.6,3,1,.1,0,.2,0,.3.2l2.3,3h3.5c.5,0,1,.4,1,1s-.4,1-1,1h-4c-.3,0-.6,0-.8-.4l-2-2.6-1.9,4.1,5.5,11.1h-3c0-.1-5.1-9.4-5.1-9.4,0,0-.5,3.3-.6,4.4-.1,1.2-1.5,1.2-1.5,1.2h-9l2-2.4h6l.4-5.6,2.4-4.6h-2.7c-.1,0-.4.4-.5.7l-1.6,2.5c-.2.3-.5.5-.8.5s-.4,0-.5-.2c-.5-.3-.6-.9-.3-1.4l1.6-2.5h0c.4-.7.8-1.1,1.1-1.2.4-.3.9-.3,1.2-.3h4.1c.2,0,.6,0,.9,0M396,713.3v.5-.5c-.4,0-.7,0-1.1,0h-4c-.4,0-.9,0-1.4.4-.4.2-.8.7-1.3,1.4h0c0,0-1.6,2.6-1.6,2.6-.4.7-.2,1.7.5,2.1.2.2.5.2.8.2.5,0,1-.3,1.3-.7l1.6-2.5c.1-.2.2-.3.3-.4h1.6l-2,3.8h-.1v.2l-.3,5h-5.8l-.2.2-2,2.4-.8.9h10.2s.4,0,.9-.2c.6-.3,1-.8,1.1-1.5.1-.6.3-1.8.4-2.8l4.3,7.9v.3h3.4c0,.1.9.1.9.1l-.4-.8-5.4-10.9,1.4-3,1.4,1.9c.3.4.7.6,1.2.6h4c.8,0,1.5-.7,1.5-1.5s-.7-1.5-1.5-1.5h-3.2l-2.1-2.8c-.1,0-.2-.2-.3-.3-.3-.3-.6-.5-1.1-.7-.5-.4-1.3-.5-2.2-.5h0Z"/>
              </g>
              <g>
                <path class="cls-10" d="M397.8,713.7c-1.4,0-2.6-1.2-2.6-2.6s1.2-2.6,2.6-2.6,2.6,1.2,2.6,2.6-1.2,2.6-2.6,2.6Z"/>
                <path class="cls-6" d="M397.8,708.7c1.3,0,2.4,1.1,2.4,2.3s-1.1,2.3-2.4,2.3-2.4-1.1-2.4-2.3,1.1-2.3,2.4-2.3M397.8,708.2c-1.6,0-2.9,1.3-2.9,2.9s1.3,2.9,2.9,2.9,2.9-1.3,2.9-2.9-1.4-2.9-2.9-2.9h0Z"/>
              </g>
            </g>
          </g>
        </g>
        <text class="cls-13" transform="translate(429.7 726)"><tspan x="0" y="0">EMERGENC</tspan><tspan class="cls-15" x="80.9" y="0">Y</tspan><tspan x="90" y="0" xml:space="preserve"> EXI</tspan><tspan class="cls-15" x="116.4" y="0">T</tspan></text>
      </g>
      <g>
        <g>
          <g>
            <path class="cls-10" d="M394.8,796.1c-11.7,0-21.2-9.5-21.2-21.2s9.5-21.2,21.2-21.2,21.2,9.5,21.2,21.2-9.5,21.2-21.2,21.2Z"/>
            <path class="cls-6" d="M394.8,755.1c11,0,19.9,8.9,19.9,19.9s-8.9,19.9-19.9,19.9-19.9-8.9-19.9-19.9,8.9-19.9,19.9-19.9M394.8,752.6c-12.4,0-22.4,10.1-22.4,22.4s10.1,22.4,22.4,22.4,22.4-10.1,22.4-22.4-10.1-22.4-22.4-22.4h0Z"/>
          </g>
          <g id="aid">
            <polygon class="cls-6" points="408 771.3 398.5 771.3 398.5 761.8 391.2 761.8 391.2 771.3 381.6 771.3 381.6 778.7 391.2 778.7 391.2 788.2 398.5 788.2 398.5 778.7 408 778.7 408 771.3"/>
          </g>
        </g>
        <text class="cls-13" transform="translate(429.7 781.9)"><tspan x="0" y="0">FIRS</tspan><tspan class="cls-15" x="31.9" y="0">T</tspan><tspan class="cls-16" x="40.2" y="0"> </tspan><tspan x="43.3" y="0">AID</tspan></text>
      </g>
      <g>
        <g>
          <g>
            <path class="cls-8" d="M620.4,741.6c-11.7,0-21.2-9.5-21.2-21.2s9.5-21.2,21.2-21.2,21.2,9.5,21.2,21.2-9.5,21.2-21.2,21.2Z"/>
            <path class="cls-6" d="M620.4,700.5c11,0,19.9,8.9,19.9,19.9s-8.9,19.9-19.9,19.9-19.9-8.9-19.9-19.9,8.9-19.9,19.9-19.9M620.4,698c-12.4,0-22.4,10.1-22.4,22.4s10.1,22.4,22.4,22.4,22.4-10.1,22.4-22.4-10.1-22.4-22.4-22.4h0Z"/>
          </g>
          <g id="fire">
            <path class="cls-6" d="M631.6,712.2v-4.5l-6.7.8v.8h-3.5v-1.7h-.9s0-.4-.3-.8c-.8-1.2-2.6-1.3-3.4-.4-1.6,1.6,0,3.3,0,3.3-1.6.7-2.9,1.9-3.4,3-.6,1.5.9,1.7,1.3,1.1,1.9-2.9,3.9-2.8,3.9-2.8v.7c-3.3,1.1-3.1,4.1-3.1,4.1v18.6c0,1,1,.9,1,.9h6.8c1,0,1.1-.8,1.1-1.4v-18.2c0-3-3-4.1-3-4.1v-1h3.5v.8l6.7.8ZM618.3,708.8c-.5,0-.9-.4-.9-.9s.4-.9.9-.9.9.4.9.9-.3.9-.9.9Z"/>
          </g>
        </g>
        <text class="cls-13" transform="translate(655.3 727.9)"><tspan x="0" y="0">EXTINGUISHER</tspan></text>
      </g>
      <g>
        <g>
          <circle class="cls-7" cx="620.4" cy="778.8" r="19.9"/>
          <path class="cls-12" d="M625.2,781.4c0,.5-.4.9-.9.9s-.9-.4-.9-.9v-6h0c0-1.3,1.1-2.4,2.4-2.4h4.3c1.3,0,2.4,1.1,2.4,2.4h0v6c0,.5-.4.9-.9.9s-.9-.4-.9-.9v-5.5h-.5v14.9c0,.6-.5,1.1-1.1,1.1s-1.1-.5-1.1-1.1v-8.6h-.2v8.6c0,.6-.5,1.1-1.1,1.1s-1.1-.5-1.1-1.1v-14.9h-.5v5.5h.1Z"/>
          <circle class="cls-12" cx="628" cy="770.6" r="2"/>
          <path class="cls-12" d="M608.4,780.6c-.1.4-.6.7-1,.5-.4,0-.7-.6-.6-1l1.6-5.6c.3-1,1.3-1.8,2.3-1.8h2.8c1.1,0,2,.7,2.3,1.8l1.6,5.6c.1.4-.1.9-.6,1-.4,0-.9,0-1-.5l-1.5-5.2h-.5l2.6,8.9h-2.4v6.6c0,.5-.4.9-.9.9s-.9-.4-.9-.9v-6.6h-.4v6.6c0,.5-.4.9-.9.9s-.9-.4-.9-.9v-6.6h-2.2l2.6-8.9h-.5l-1.5,5.2h0Z"/>
          <circle class="cls-12" cx="612.2" cy="770.5" r="2"/>
          <line class="cls-3" x1="620.4" y1="762.3" x2="620.4" y2="794.9"/>
        </g>
        <text class="cls-13" transform="translate(655.3 785.4)"><tspan class="cls-15" x="0" y="0">T</tspan><tspan x="8.3" y="0">OILETS</tspan></text>
      </g>
      <text class="cls-14" transform="translate(1494.3 471.3)"><tspan x="0" y="0">Reception</tspan></text>
    </g>
  </g>
  <g id="nopointer-ep">
    <g>
      <circle class="cls-10" cx="320.1" cy="382.7" r="19.9"/>
      <polygon class="cls-6" points="330.2 378.9 330.2 396.6 327.7 399.1 308 399.1 310.4 397 310.4 379 306.1 379 320.1 366.3 334 378.9 330.2 378.9"/>
      <g id="exit-2" data-name="exit">
        <g>
          <g>
            <path class="cls-10" d="M324.1,396.1l-4.8-8.8c-.1,1-.4,2.8-.5,3.6-.1,1.1-1.2,1.4-1.7,1.5h-9.6l2.4-2.9h5.8l.4-5.3,2.3-4.2h-2.1c-.1,0-.3.4-.4.6l-1.6,2.5c-.2.4-.6.6-1.1.6s-.5,0-.7-.2c-.6-.4-.8-1.1-.4-1.7l1.6-2.5h0c.5-.7.9-1.1,1.2-1.3.5-.3,1-.3,1.3-.3h4c.4,0,.8,0,1.1,0,2,0,2.9.6,3.2,1,.1,0,.2.2.3.3l2.2,2.9h3.4c.7,0,1.3.6,1.3,1.3s-.6,1.3-1.3,1.3h-4c-.4,0-.8-.2-1-.5l-1.7-2.3-1.6,3.5,5.6,11.4-3.6-.4Z"/>
            <path class="cls-6" d="M321.3,377.6c1.9,0,2.7.6,3,1,.1,0,.2,0,.3.2l2.3,3h3.5c.5,0,1,.4,1,1s-.4,1-1,1h-4c-.3,0-.6,0-.8-.4l-2-2.6-1.9,4.1,5.5,11.1h-3c0-.1-5.1-9.4-5.1-9.4,0,0-.5,3.3-.6,4.4-.1,1.2-1.5,1.2-1.5,1.2h-9l2-2.4h6l.4-5.6,2.4-4.6h-2.7c-.1,0-.4.4-.5.7l-1.6,2.5c-.2.3-.5.5-.8.5s-.4,0-.5-.2c-.5-.3-.6-.9-.3-1.4l1.6-2.5h0c.4-.7.8-1.1,1.1-1.2.4-.3.9-.3,1.2-.3h4.1c.2,0,.6,0,.9,0M321.3,377.1v.5-.5c-.4,0-.7,0-1.1,0h-4c-.4,0-.9,0-1.4.4-.4.2-.8.7-1.3,1.4h0c0,0-1.6,2.6-1.6,2.6-.4.7-.2,1.7.5,2.1.2.2.5.2.8.2.5,0,1-.3,1.3-.7l1.6-2.5c.1-.2.2-.3.3-.4h1.6l-2,3.8h-.1v.2l-.3,5h-5.8l-.2.2-2,2.4-.8.9h10.2s.4,0,.9-.2c.6-.3,1-.8,1.1-1.5.1-.6.3-1.8.4-2.8l4.3,7.9v.3h3.4c0,.1.9.1.9.1l-.4-.8-5.4-10.9,1.4-3,1.4,1.9c.3.4.7.6,1.2.6h4c.8,0,1.5-.7,1.5-1.5s-.7-1.5-1.5-1.5h-3.2l-2.1-2.8c-.1,0-.2-.2-.3-.3-.3-.3-.6-.5-1.1-.7-.5-.4-1.3-.5-2.2-.5h0Z"/>
          </g>
          <g>
            <path class="cls-10" d="M323.1,377.5c-1.4,0-2.6-1.2-2.6-2.6s1.2-2.6,2.6-2.6,2.6,1.2,2.6,2.6-1.2,2.6-2.6,2.6Z"/>
            <path class="cls-6" d="M323.1,372.5c1.3,0,2.4,1.1,2.4,2.3s-1.1,2.3-2.4,2.3-2.4-1.1-2.4-2.3,1.1-2.3,2.4-2.3M323.1,372c-1.6,0-2.9,1.3-2.9,2.9s1.3,2.9,2.9,2.9,2.9-1.3,2.9-2.9-1.4-2.9-2.9-2.9h0Z"/>
          </g>
        </g>
      </g>
    </g>
    <g>
      <circle class="cls-10" cx="1299.3" cy="218.4" r="19.9"/>
      <polygon class="cls-6" points="1309.4 214.6 1309.4 232.3 1306.9 234.8 1287.2 234.8 1289.6 232.7 1289.6 214.7 1285.3 214.7 1299.3 202 1313.2 214.6 1309.4 214.6"/>
      <g id="exit-3" data-name="exit">
        <g>
          <g>
            <path class="cls-10" d="M1303.3,231.8l-4.8-8.8c-.1,1-.4,2.8-.5,3.6-.1,1.1-1.2,1.4-1.7,1.5h-9.6l2.4-2.9h5.8l.4-5.3,2.3-4.2h-2.1c-.1,0-.3.4-.4.6l-1.6,2.5c-.2.4-.6.6-1.1.6s-.5,0-.7-.2c-.6-.4-.8-1.1-.4-1.7l1.6-2.5h0c.5-.7.9-1.1,1.2-1.3.5-.3,1-.3,1.3-.3h4c.4,0,.8,0,1.1,0,2,0,2.9.6,3.2,1,.1,0,.2.2.3.3l2.2,2.9h3.4c.7,0,1.3.6,1.3,1.3s-.6,1.3-1.3,1.3h-4c-.4,0-.8-.2-1-.5l-1.7-2.3-1.6,3.5,5.6,11.4-3.6-.4Z"/>
            <path class="cls-6" d="M1300.5,213.3c1.9,0,2.7.6,3,1,.1,0,.2,0,.3.2l2.3,3h3.5c.5,0,1,.4,1,1s-.4,1-1,1h-4c-.3,0-.6,0-.8-.4l-2-2.6-1.9,4.1,5.5,11.1h-3c0-.1-5.1-9.4-5.1-9.4,0,0-.5,3.3-.6,4.4-.1,1.2-1.5,1.2-1.5,1.2h-9l2-2.4h6l.4-5.6,2.4-4.6h-2.7c-.1,0-.4.4-.5.7l-1.6,2.5c-.2.3-.5.5-.8.5s-.4,0-.5-.2c-.5-.3-.6-.9-.3-1.4l1.6-2.5h0c.4-.7.8-1.1,1.1-1.2.4-.3.9-.3,1.2-.3h4.1c.2,0,.6,0,.9,0M1300.5,212.8v.5-.5c-.4,0-.7,0-1.1,0h-4c-.4,0-.9,0-1.4.4-.4.2-.8.7-1.3,1.4h0c0,0-1.6,2.6-1.6,2.6-.4.7-.2,1.7.5,2.1.2.2.5.2.8.2.5,0,1-.3,1.3-.7l1.6-2.5c.1-.2.2-.3.3-.4h1.6l-2,3.8h-.1v.2l-.3,5h-5.8l-.2.2-2,2.4-.8.9h10.2s.4,0,.9-.2c.6-.3,1-.8,1.1-1.5.1-.6.3-1.8.4-2.8l4.3,7.9v.3h3.4c0,.1.9.1.9.1l-.4-.8-5.4-10.9,1.4-3,1.4,1.9c.3.4.7.6,1.2.6h4c.8,0,1.5-.7,1.5-1.5s-.7-1.5-1.5-1.5h-3.2l-2.1-2.8c-.1,0-.2-.2-.3-.3-.3-.3-.6-.5-1.1-.7-.5-.4-1.3-.5-2.2-.5h0Z"/>
          </g>
          <g>
            <path class="cls-10" d="M1302.3,213.2c-1.4,0-2.6-1.2-2.6-2.6s1.2-2.6,2.6-2.6,2.6,1.2,2.6,2.6-1.2,2.6-2.6,2.6Z"/>
            <path class="cls-6" d="M1302.3,208.2c1.3,0,2.4,1.1,2.4,2.3s-1.1,2.3-2.4,2.3-2.4-1.1-2.4-2.3,1.1-2.3,2.4-2.3M1302.3,207.7c-1.6,0-2.9,1.3-2.9,2.9s1.3,2.9,2.9,2.9,2.9-1.3,2.9-2.9-1.4-2.9-2.9-2.9h0Z"/>
          </g>
        </g>
      </g>
    </g>
    <g>
      <circle class="cls-10" cx="1647.7" cy="408" r="19.9"/>
      <polygon class="cls-6" points="1657.8 404.2 1657.8 421.9 1655.3 424.4 1635.6 424.4 1638 422.3 1638 404.3 1633.7 404.3 1647.7 391.6 1661.6 404.2 1657.8 404.2"/>
      <g id="exit-4" data-name="exit">
        <g>
          <g>
            <path class="cls-10" d="M1651.7,421.4l-4.8-8.8c-.1,1-.4,2.8-.5,3.6-.1,1.1-1.2,1.4-1.7,1.5h-9.6l2.4-2.9h5.8l.4-5.3,2.3-4.2h-2.1c-.1,0-.3.4-.4.6l-1.6,2.5c-.2.4-.6.6-1.1.6s-.5,0-.7-.2c-.6-.4-.8-1.1-.4-1.7l1.6-2.5h0c.5-.7.9-1.1,1.2-1.3.5-.3,1-.3,1.3-.3h4c.4,0,.8,0,1.1,0,2,0,2.9.6,3.2,1,.1,0,.2.2.3.3l2.2,2.9h3.4c.7,0,1.3.6,1.3,1.3s-.6,1.3-1.3,1.3h-4c-.4,0-.8-.2-1-.5l-1.7-2.3-1.6,3.5,5.6,11.4-3.6-.4Z"/>
            <path class="cls-6" d="M1648.9,402.9c1.9,0,2.7.6,3,1,.1,0,.2,0,.3.2l2.3,3h3.5c.5,0,1,.4,1,1s-.4,1-1,1h-4c-.3,0-.6,0-.8-.4l-2-2.6-1.9,4.1,5.5,11.1h-3c0-.1-5.1-9.4-5.1-9.4,0,0-.5,3.3-.6,4.4-.1,1.2-1.5,1.2-1.5,1.2h-9l2-2.4h6l.4-5.6,2.4-4.6h-2.7c-.1,0-.4.4-.5.7l-1.6,2.5c-.2.3-.5.5-.8.5s-.4,0-.5-.2c-.5-.3-.6-.9-.3-1.4l1.6-2.5h0c.4-.7.8-1.1,1.1-1.2.4-.3.9-.3,1.2-.3h4.1c.2,0,.6,0,.9,0M1648.9,402.4v.5-.5c-.4,0-.7,0-1.1,0h-4c-.4,0-.9,0-1.4.4-.4.2-.8.7-1.3,1.4h0c0,0-1.6,2.6-1.6,2.6-.4.7-.2,1.7.5,2.1.2.2.5.2.8.2.5,0,1-.3,1.3-.7l1.6-2.5c.1-.2.2-.3.3-.4h1.6l-2,3.8h-.1v.2l-.3,5h-5.8l-.2.2-2,2.4-.8.9h10.2s.4,0,.9-.2c.6-.3,1-.8,1.1-1.5.1-.6.3-1.8.4-2.8l4.3,7.9v.3h3.4c0,.1.9.1.9.1l-.4-.8-5.4-10.9,1.4-3,1.4,1.9c.3.4.7.6,1.2.6h4c.8,0,1.5-.7,1.5-1.5s-.7-1.5-1.5-1.5h-3.2l-2.1-2.8c-.1,0-.2-.2-.3-.3-.3-.3-.6-.5-1.1-.7-.5-.4-1.3-.5-2.2-.5h0Z"/>
          </g>
          <g>
            <path class="cls-10" d="M1650.7,402.8c-1.4,0-2.6-1.2-2.6-2.6s1.2-2.6,2.6-2.6,2.6,1.2,2.6,2.6-1.2,2.6-2.6,2.6Z"/>
            <path class="cls-6" d="M1650.7,397.8c1.3,0,2.4,1.1,2.4,2.3s-1.1,2.3-2.4,2.3-2.4-1.1-2.4-2.3,1.1-2.3,2.4-2.3M1650.7,397.3c-1.6,0-2.9,1.3-2.9,2.9s1.3,2.9,2.9,2.9,2.9-1.3,2.9-2.9-1.4-2.9-2.9-2.9h0Z"/>
          </g>
        </g>
      </g>
    </g>
    <g>
      <circle class="cls-10" cx="358.9" cy="561.8" r="19.9"/>
      <polygon class="cls-6" points="369 558 369 575.7 366.5 578.2 346.8 578.2 349.2 576.1 349.2 558.1 344.9 558.1 358.9 545.4 372.8 558 369 558"/>
      <g id="exit-5" data-name="exit">
        <g>
          <g>
            <path class="cls-10" d="M362.9,575.2l-4.8-8.8c-.1,1-.4,2.8-.5,3.6-.1,1.1-1.2,1.4-1.7,1.5h-9.6l2.4-2.9h5.8l.4-5.3,2.3-4.2h-2.1c-.1,0-.3.4-.4.6l-1.6,2.5c-.2.4-.6.6-1.1.6s-.5,0-.7-.2c-.6-.4-.8-1.1-.4-1.7l1.6-2.5h0c.5-.7.9-1.1,1.2-1.3.5-.3,1-.3,1.3-.3h4c.4,0,.8,0,1.1,0,2,0,2.9.6,3.2,1,.1,0,.2.2.3.3l2.2,2.9h3.4c.7,0,1.3.6,1.3,1.3s-.6,1.3-1.3,1.3h-4c-.4,0-.8-.2-1-.5l-1.7-2.3-1.6,3.5,5.6,11.4-3.6-.4Z"/>
            <path class="cls-6" d="M360.1,556.7c1.9,0,2.7.6,3,1,.1,0,.2,0,.3.2l2.3,3h3.5c.5,0,1,.4,1,1s-.4,1-1,1h-4c-.3,0-.6,0-.8-.4l-2-2.6-1.9,4.1,5.5,11.1h-3c0-.1-5.1-9.4-5.1-9.4,0,0-.5,3.3-.6,4.4-.1,1.2-1.5,1.2-1.5,1.2h-9l2-2.4h6l.4-5.6,2.4-4.6h-2.7c-.1,0-.4.4-.5.7l-1.6,2.5c-.2.3-.5.5-.8.5s-.4,0-.5-.2c-.5-.3-.6-.9-.3-1.4l1.6-2.5h0c.4-.7.8-1.1,1.1-1.2.4-.3.9-.3,1.2-.3h4.1c.2,0,.6,0,.9,0M360.1,556.2v.5-.5c-.4,0-.7,0-1.1,0h-4c-.4,0-.9,0-1.4.4-.4.2-.8.7-1.3,1.4h0c0,0-1.6,2.6-1.6,2.6-.4.7-.2,1.7.5,2.1.2.2.5.2.8.2.5,0,1-.3,1.3-.7l1.6-2.5c.1-.2.2-.3.3-.4h1.6l-2,3.8h-.1v.2l-.3,5h-5.8l-.2.2-2,2.4-.8.9h10.2s.4,0,.9-.2c.6-.3,1-.8,1.1-1.5.1-.6.3-1.8.4-2.8l4.3,7.9v.3h3.4c0,.1.9.1.9.1l-.4-.8-5.4-10.9,1.4-3,1.4,1.9c.3.4.7.6,1.2.6h4c.8,0,1.5-.7,1.5-1.5s-.7-1.5-1.5-1.5h-3.2l-2.1-2.8c-.1,0-.2-.2-.3-.3-.3-.3-.6-.5-1.1-.7-.5-.4-1.3-.5-2.2-.5h0Z"/>
          </g>
          <g>
            <path class="cls-10" d="M361.9,556.6c-1.4,0-2.6-1.2-2.6-2.6s1.2-2.6,2.6-2.6,2.6,1.2,2.6,2.6-1.2,2.6-2.6,2.6Z"/>
            <path class="cls-6" d="M361.9,551.6c1.3,0,2.4,1.1,2.4,2.3s-1.1,2.3-2.4,2.3-2.4-1.1-2.4-2.3,1.1-2.3,2.4-2.3M361.9,551.1c-1.6,0-2.9,1.3-2.9,2.9s1.3,2.9,2.9,2.9,2.9-1.3,2.9-2.9-1.4-2.9-2.9-2.9h0Z"/>
          </g>
        </g>
      </g>
    </g>
    <g>
      <circle class="cls-10" cx="1474.4" cy="843.1" r="19.9"/>
      <polygon class="cls-6" points="1484.5 839.3 1484.5 857 1482 859.5 1462.3 859.5 1464.7 857.4 1464.7 839.4 1460.4 839.4 1474.4 826.7 1488.3 839.3 1484.5 839.3"/>
      <g id="exit-6" data-name="exit">
        <g>
          <g>
            <path class="cls-10" d="M1478.4,856.5l-4.8-8.8c-.1,1-.4,2.8-.5,3.6-.1,1.1-1.2,1.4-1.7,1.5h-9.6l2.4-2.9h5.8l.4-5.3,2.3-4.2h-2.1c-.1,0-.3.4-.4.6l-1.6,2.5c-.2.4-.6.6-1.1.6s-.5,0-.7-.2c-.6-.4-.8-1.1-.4-1.7l1.6-2.5h0c.5-.7.9-1.1,1.2-1.3.5-.3,1-.3,1.3-.3h4c.4,0,.8,0,1.1,0,2,0,2.9.6,3.2,1,.1,0,.2.2.3.3l2.2,2.9h3.4c.7,0,1.3.6,1.3,1.3s-.6,1.3-1.3,1.3h-4c-.4,0-.8-.2-1-.5l-1.7-2.3-1.6,3.5,5.6,11.4-3.6-.4Z"/>
            <path class="cls-6" d="M1475.6,838c1.9,0,2.7.6,3,1,.1,0,.2,0,.3.2l2.3,3h3.5c.5,0,1,.4,1,1s-.4,1-1,1h-4c-.3,0-.6,0-.8-.4l-2-2.6-1.9,4.1,5.5,11.1h-3c0-.1-5.1-9.4-5.1-9.4,0,0-.5,3.3-.6,4.4-.1,1.2-1.5,1.2-1.5,1.2h-9l2-2.4h6l.4-5.6,2.4-4.6h-2.7c-.1,0-.4.4-.5.7l-1.6,2.5c-.2.3-.5.5-.8.5s-.4,0-.5-.2c-.5-.3-.6-.9-.3-1.4l1.6-2.5h0c.4-.7.8-1.1,1.1-1.2.4-.3.9-.3,1.2-.3h4.1c.2,0,.6,0,.9,0M1475.6,837.5v.5-.5c-.4,0-.7,0-1.1,0h-4c-.4,0-.9,0-1.4.4-.4.2-.8.7-1.3,1.4h0c0,0-1.6,2.6-1.6,2.6-.4.7-.2,1.7.5,2.1.2.2.5.2.8.2.5,0,1-.3,1.3-.7l1.6-2.5c.1-.2.2-.3.3-.4h1.6l-2,3.8h-.1v.2l-.3,5h-5.8l-.2.2-2,2.4-.8.9h10.2s.4,0,.9-.2c.6-.3,1-.8,1.1-1.5.1-.6.3-1.8.4-2.8l4.3,7.9v.3h3.4c0,.1.9.1.9.1l-.4-.8-5.4-10.9,1.4-3,1.4,1.9c.3.4.7.6,1.2.6h4c.8,0,1.5-.7,1.5-1.5s-.7-1.5-1.5-1.5h-3.2l-2.1-2.8c-.1,0-.2-.2-.3-.3-.3-.3-.6-.5-1.1-.7-.5-.4-1.3-.5-2.2-.5h0Z"/>
          </g>
          <g>
            <path class="cls-10" d="M1477.4,837.9c-1.4,0-2.6-1.2-2.6-2.6s1.2-2.6,2.6-2.6,2.6,1.2,2.6,2.6-1.2,2.6-2.6,2.6Z"/>
            <path class="cls-6" d="M1477.4,832.9c1.3,0,2.4,1.1,2.4,2.3s-1.1,2.3-2.4,2.3-2.4-1.1-2.4-2.3,1.1-2.3,2.4-2.3M1477.4,832.4c-1.6,0-2.9,1.3-2.9,2.9s1.3,2.9,2.9,2.9,2.9-1.3,2.9-2.9-1.4-2.9-2.9-2.9h0Z"/>
          </g>
        </g>
      </g>
    </g>
  </g>
</svg>