<?xml version="1.0" encoding="UTF-8"?>
<svg xmlns="http://www.w3.org/2000/svg" viewBox="0 0 1920 1080">
  <defs>
    <style>
      .cls-1 {
        font-family: Montserrat-Medium, Montserrat;
        font-size: 18px;
        font-weight: 500;
      }

      .cls-1, .cls-2 {
        fill: #000;
      }

      .cls-3 {
        stroke-width: 2px;
      }

      .cls-3, .cls-4, .cls-5, .cls-6, .cls-7, .cls-8 {
        stroke-miterlimit: 10;
      }

      .cls-3, .cls-6, .cls-7 {
        stroke: #000;
      }

      .cls-3, .cls-9 {
        fill: #fff;
      }

      .cls-4 {
        stroke-width: 7.8px;
      }

      .cls-4, .cls-10, .cls-5 {
        fill: #d6d6d6;
      }

      .cls-4, .cls-5 {
        stroke: #fff;
      }

      .cls-10, .cls-11, .cls-12, .cls-13, .cls-14, .cls-9, .cls-15, .cls-16 {
        stroke-width: 0px;
      }

      .cls-11 {
        fill: #003e87;
      }

      .cls-12 {
        fill: red;
      }

      .cls-5 {
        stroke-width: 5.2px;
      }

      .cls-13 {
        fill: #d1d8e5;
      }

      .cls-6 {
        stroke-width: 1.3px;
      }

      .cls-6, .cls-7, .cls-8 {
        fill: none;
      }

      .cls-17 {
        letter-spacing: 0em;
      }

      .cls-7 {
        stroke-width: 2.6px;
      }

      .cls-8 {
        stroke: #fefefe;
        stroke-width: .8px;
      }

      .cls-14 {
        fill: #008246;
      }

      .cls-2 {
        font-family: ArialMT, Arial;
        font-size: 14px;
        isolation: isolate;
      }

      .cls-18 {
        letter-spacing: 0em;
      }

      .cls-19 {
        letter-spacing: 0em;
      }

      .cls-20 {
        letter-spacing: 0em;
      }

      .cls-15 {
        fill: #f5f9dc;
      }

      .cls-16 {
        fill: #fefefe;
      }
    </style>
  </defs>
  <g id="base">
    <g>
      <polygon class="cls-10" points="324.9 498.7 522.1 498.7 522.1 582.7 324.9 584 324.9 498.7"/>
      <path class="cls-9" d="M518.2,502.6v76.3l-189.5,1.2v-77.5h189.5M526,494.8h-205.1v93.1l205.1-1.3v-91.8h0Z"/>
    </g>
    <g>
      <rect class="cls-10" x="529.9" y="498.7" width="86.2" height="84"/>
      <path class="cls-9" d="M612.3,502.6v76.2h-78.5v-76.2h78.5M620.1,494.8h-94v91.8h94v-91.8h0Z"/>
    </g>
    <g>
      <rect class="cls-10" x="939.1" y="553" width="44.5" height="29.8"/>
      <path class="cls-9" d="M979.7,556.9v22h-36.7v-22h36.7M987.5,549.1h-52.3v37.6h52.3v-37.6h0Z"/>
    </g>
    <g>
      <rect class="cls-10" x="878.2" y="541.5" width="53.2" height="41.2"/>
      <path class="cls-9" d="M927.5,545.4v33.5h-45.4v-33.5h45.4M935.3,537.6h-61v49h61v-49h0Z"/>
    </g>
    <g>
      <polygon class="cls-10" points="624 545.2 624 498.7 762.5 498.7 762.5 533.7 701.6 533.7 701.6 545.2 624 545.2"/>
      <path class="cls-9" d="M758.7,502.6v27.3h-61v11.5h-69.8v-38.8h130.8M766.4,494.8h-146.4v54.3h85.4v-11.5h61v-42.9h0Z"/>
    </g>
    <g>
      <polygon class="cls-10" points="770.3 582.7 770.3 556.2 817.5 556.2 817.5 582.9 770.3 582.7"/>
      <path class="cls-9" d="M813.6,560.1v18.8l-39.4-.2v-18.6h39.4M821.4,552.4h-54.9v34.2l54.9.2v-34.4h0Z"/>
    </g>
    <rect class="cls-4" x="839.5" y="537.6" width="34.4" height="20.8"/>
    <rect class="cls-4" x="839.5" y="558.4" width="34.4" height="14.7"/>
    <rect class="cls-4" x="839.5" y="573.1" width="34.8" height="13.6"/>
    <g>
      <polygon class="cls-15" points="324.9 819.1 324.9 591.8 1845.8 590.4 1845.8 819.1 324.9 819.1"/>
      <path class="cls-9" d="M1841.9,594.3v220.9H328.8v-219.6l1513.1-1.3M1849.7,586.5l-1528.7,1.3v235.1h1528.7v-236.5h0Z"/>
    </g>
    <g>
      <polygon class="cls-13" points="87.7 906.9 87.7 826.9 1407.7 827.9 1407.7 906.9 87.7 906.9"/>
      <path class="cls-9" d="M91.6,830.8l1312.2,1v71.2H91.6v-72.2M83.8,823v87.8h1327.7v-86.8l-1327.7-1h0Z"/>
    </g>
    <polygon class="cls-5" points="705.5 551.7 705.5 561 663.9 561 663.9 572.2 705.5 572.2 705.6 561.8 732.9 561 732.9 552.4 766.4 552.4 766.4 586.5 621.7 586.5 621.7 551.7 705.5 551.7"/>
    <rect class="cls-5" x="705.5" y="537.6" width="26.8" height="14.7"/>
    <path class="cls-4" d="M663.9,561v11.2h41.5v-11.2s-42.7-1.2-41.5,0Z"/>
    <rect class="cls-5" x="705.5" y="552.4" width="27.5" height="8.6"/>
    <g>
      <rect class="cls-10" x="325.6" y="299.3" width="196.5" height="83.3"/>
      <path class="cls-9" d="M518.2,303.2v75.5h-188.7v-75.5h188.7M526,295.4h-204.3v91.1h204.3v-91.1h0Z"/>
    </g>
    <g>
      <rect class="cls-10" x="529.9" y="299.3" width="61.9" height="83.3"/>
      <path class="cls-9" d="M587.9,303.2v75.5h-54.1v-75.5h54.1M595.7,295.4h-69.7v91.1h69.7v-91.1h0Z"/>
    </g>
    <g>
      <rect class="cls-10" x="599.6" y="299.3" width="163.7" height="83.3"/>
      <path class="cls-9" d="M759.4,303.2v75.5h-155.9v-75.5h155.9M767.2,295.4h-171.5v91.1h171.5v-91.1h0Z"/>
    </g>
    <rect class="cls-4" x="874.8" y="337.6" width="61.2" height="48.9"/>
    <rect class="cls-4" x="842.1" y="337.6" width="32.8" height="22.7"/>
    <rect class="cls-4" x="842.1" y="360.3" width="32.8" height="26.2"/>
    <polygon class="cls-4" points="821.4 351 821.4 386.5 842.1 386.5 842.2 351 821.4 351"/>
    <polygon class="cls-4" points="793.9 360.3 793.9 386.5 821.4 386.5 821.1 360.1 793.9 360.3"/>
    <polygon class="cls-4" points="768.1 360.2 768.1 386.4 793.9 386.5 793.9 360.3 768.1 360.2"/>
    <polygon class="cls-4" points="821.4 337.6 821.4 351 842.2 351 842.1 337.6 821.4 337.6"/>
    <polyline class="cls-7" points="926.5 537.6 935.3 537.6 935.3 586.5 321 587.9"/>
    <line class="cls-7" x1="835.1" y1="537.6" x2="914.6" y2="537.6"/>
    <polyline class="cls-7" points="736.8 494.8 766.4 494.8 766.4 537.6 827.7 537.6"/>
    <line class="cls-7" x1="711.4" y1="494.8" x2="724.9" y2="494.8"/>
    <line class="cls-7" x1="688.7" y1="494.8" x2="703.4" y2="494.8"/>
    <line class="cls-7" x1="656.2" y1="494.8" x2="680" y2="494.8"/>
    <line class="cls-7" x1="591.7" y1="494.8" x2="648.5" y2="494.8"/>
    <polyline class="cls-7" points="321 507.8 321 494.8 581.6 494.8"/>
    <line class="cls-7" x1="321" y1="532.9" x2="321" y2="518.9"/>
    <line class="cls-7" x1="321" y1="593.2" x2="321" y2="562.4"/>
    <line class="cls-7" x1="321" y1="625.4" x2="321" y2="602.8"/>
    <line class="cls-7" x1="321" y1="697.7" x2="321" y2="661.6"/>
    <line class="cls-7" x1="321" y1="763.4" x2="321" y2="732.6"/>
    <line class="cls-7" x1="321" y1="823" x2="321" y2="798.9"/>
    <line class="cls-6" x1="621.7" y1="587.5" x2="621.7" y2="494.8"/>
    <line class="cls-6" x1="621.7" y1="551.7" x2="821.4" y2="551.7"/>
    <line class="cls-6" x1="821.4" y1="537.6" x2="821.4" y2="586.8"/>
    <line class="cls-6" x1="766.4" y1="586.8" x2="766.4" y2="552.4"/>
    <line class="cls-6" x1="839.5" y1="537.6" x2="839.5" y2="586.7"/>
    <line class="cls-6" x1="874.3" y1="537.6" x2="874.3" y2="586.7"/>
    <line class="cls-6" x1="839.5" y1="558.4" x2="874.3" y2="558.4"/>
    <line class="cls-6" x1="839.5" y1="573.1" x2="874.3" y2="573.1"/>
    <line class="cls-7" x1="958.8" y1="549.1" x2="935.3" y2="549.1"/>
    <polyline class="cls-7" points="987.5 586.7 987.5 549.1 969.1 549.1"/>
    <polyline class="cls-6" points="732.9 537.6 732.9 561 663.9 561 663.9 572.2 705.5 572.2 705.5 537.6 766.4 537.6"/>
    <line class="cls-7" x1="1411.6" y1="849.1" x2="1411.6" y2="823"/>
    <polyline class="cls-7" points="83.8 880 83.8 910.8 814 910.8 839.5 910.8 1348.6 910.8 1368.7 910.8 1411.6 910.8 1411.6 880"/>
    <polyline class="cls-7" points="1849.7 798.9 1849.7 823 83.8 823 83.8 849.1"/>
    <line class="cls-7" x1="1849.7" y1="732.6" x2="1849.7" y2="763.4"/>
    <line class="cls-7" x1="1849.7" y1="661.6" x2="1849.7" y2="697.7"/>
    <polyline class="cls-7" points="935.3 586.5 1422.3 586.5 1445 586.5 1849.7 586.5 1849.7 625.4"/>
    <line class="cls-6" x1="283.4" y1="637.4" x2="1889.9" y2="637.4"/>
    <line class="cls-6" x1="283.4" y1="650.3" x2="1889.9" y2="650.3"/>
    <line class="cls-6" x1="283.4" y1="707.5" x2="1889.9" y2="707.5"/>
    <line class="cls-6" x1="283.4" y1="720.4" x2="1889.9" y2="720.4"/>
    <line class="cls-6" x1="283.4" y1="774.9" x2="1889.9" y2="774.9"/>
    <line class="cls-6" x1="283.4" y1="787.9" x2="1889.9" y2="787.9"/>
    <line class="cls-6" x1="55" y1="860.6" x2="1796.6" y2="860.6"/>
    <line class="cls-6" x1="55" y1="873.6" x2="1796.6" y2="873.6"/>
    <polyline class="cls-7" points="885.1 337.6 854.3 337.6 843.6 337.6 836.9 337.6 827.5 337.6 800.7 337.6 793.3 337.6 767.2 337.6 767.2 332.2 767.2 322.2 767.2 295.4 755.8 295.4 747.1 295.4 734.2 295.4 722.3 295.4 708.8 295.4 700.8 295.4 686.1 295.4 677.4 295.4 653.6 295.4 645.9 295.4 321.7 295.4 321.7 386.5 936 386.5 936 366.4"/>
    <polyline class="cls-7" points="936 357.7 936 337.6 899.7 337.6"/>
    <line class="cls-6" x1="526" y1="295.4" x2="526" y2="386.5"/>
    <line class="cls-6" x1="595.7" y1="295.4" x2="595.7" y2="386.5"/>
    <line class="cls-7" x1="767.2" y1="337.6" x2="767.2" y2="386.5"/>
    <line class="cls-6" x1="874.8" y1="386.5" x2="874.8" y2="337.6"/>
    <line class="cls-6" x1="842.1" y1="386.5" x2="842.1" y2="337.6"/>
    <line class="cls-6" x1="821.4" y1="386.5" x2="821.4" y2="337.6"/>
    <line class="cls-6" x1="766.4" y1="351" x2="842.1" y2="351"/>
    <line class="cls-6" x1="766.4" y1="360.3" x2="821.4" y2="360.3"/>
    <line class="cls-6" x1="793.9" y1="386.5" x2="793.9" y2="360.3"/>
    <line class="cls-6" x1="842.1" y1="360.3" x2="874.3" y2="360.3"/>
    <polygon class="cls-6" points="321 494.8 321 587.9 524.6 587.5 524.6 494.8 321 494.8"/>
    <polyline class="cls-6" points="874.5 537 848.4 537 848.4 519.2 874.5 519.2"/>
    <line class="cls-6" x1="867.2" y1="519.2" x2="867.2" y2="537.4"/>
    <line class="cls-6" x1="862.4" y1="519.2" x2="862.4" y2="537.4"/>
    <line class="cls-6" x1="857.7" y1="519.2" x2="857.7" y2="537.4"/>
    <line class="cls-6" x1="852.9" y1="519.2" x2="852.9" y2="537.4"/>
    <line class="cls-6" x1="871.9" y1="518.9" x2="871.9" y2="537.1"/>
  </g>
  <g id="nopointer-ep">
    <rect class="cls-3" x="1233.8" y="172.8" width="441.5" height="142.7"/>
    <g>
      <g>
        <circle class="cls-14" cx="1277.6" cy="208.9" r="19.9"/>
        <polygon class="cls-9" points="1287.7 205.1 1287.7 222.8 1285.2 225.3 1265.5 225.3 1267.9 223.2 1267.9 205.2 1263.6 205.2 1277.6 192.5 1291.5 205.1 1287.7 205.1"/>
        <g id="exit">
          <g>
            <g>
              <path class="cls-14" d="M1281.6,222.3l-4.8-8.8c-.1,1-.4,2.8-.5,3.6-.1,1.1-1.2,1.4-1.7,1.5h-9.6l2.4-2.9h5.8l.4-5.3,2.3-4.2h-2.1c-.1,0-.3.4-.4.6l-1.6,2.5c-.2.4-.6.6-1.1.6s-.5,0-.7-.2c-.6-.4-.8-1.1-.4-1.7l1.6-2.5h0c.5-.7.9-1.1,1.2-1.3.5-.3,1-.3,1.3-.3h4c.4,0,.8,0,1.1,0,2,0,2.9.6,3.2,1,.1,0,.2.2.3.3l2.2,2.9h3.4c.7,0,1.3.6,1.3,1.3s-.6,1.3-1.3,1.3h-4c-.4,0-.8-.2-1-.5l-1.7-2.3-1.6,3.5,5.6,11.4-3.6-.4Z"/>
              <path class="cls-9" d="M1278.8,203.8c1.9,0,2.7.6,3,1,.1,0,.2,0,.3.2l2.3,3h3.5c.5,0,1,.4,1,1s-.4,1-1,1h-4c-.3,0-.6,0-.8-.4l-2-2.6-1.9,4.1,5.5,11.1h-3c0-.1-5.1-9.4-5.1-9.4,0,0-.5,3.3-.6,4.4-.1,1.2-1.5,1.2-1.5,1.2h-9l2-2.4h6l.4-5.6,2.4-4.6h-2.7c-.1,0-.4.4-.5.7l-1.6,2.5c-.2.3-.5.5-.8.5s-.4,0-.5-.2c-.5-.3-.6-.9-.3-1.4l1.6-2.5h0c.4-.7.8-1.1,1.1-1.2.4-.3.9-.3,1.2-.3h4.1c.2,0,.6,0,.9,0M1278.8,203.3v.5-.5c-.4,0-.7,0-1.1,0h-4c-.4,0-.9,0-1.4.4-.4.2-.8.7-1.3,1.4h0c0,0-1.6,2.6-1.6,2.6-.4.7-.2,1.7.5,2.1.2.2.5.2.8.2.5,0,1-.3,1.3-.7l1.6-2.5c.1-.2.2-.3.3-.4h1.6l-2,3.8h-.1v.2l-.3,5h-5.8l-.2.2-2,2.4-.8.9h10.2s.4,0,.9-.2c.6-.3,1-.8,1.1-1.5.1-.6.3-1.8.4-2.8l4.3,7.9v.3h3.4c0,.1.9.1.9.1l-.4-.8-5.4-10.9,1.4-3,1.4,1.9c.3.4.7.6,1.2.6h4c.8,0,1.5-.7,1.5-1.5s-.7-1.5-1.5-1.5h-3.2l-2.1-2.8c-.1,0-.2-.2-.3-.3-.3-.3-.6-.5-1.1-.7-.5-.4-1.3-.5-2.2-.5h0Z"/>
            </g>
            <g>
              <path class="cls-14" d="M1280.6,203.7c-1.4,0-2.6-1.2-2.6-2.6s1.2-2.6,2.6-2.6,2.6,1.2,2.6,2.6-1.2,2.6-2.6,2.6Z"/>
              <path class="cls-9" d="M1280.6,198.7c1.3,0,2.4,1.1,2.4,2.3s-1.1,2.3-2.4,2.3-2.4-1.1-2.4-2.3,1.1-2.3,2.4-2.3M1280.6,198.2c-1.6,0-2.9,1.3-2.9,2.9s1.3,2.9,2.9,2.9,2.9-1.3,2.9-2.9-1.4-2.9-2.9-2.9h0Z"/>
            </g>
          </g>
        </g>
      </g>
      <text class="cls-2" transform="translate(1312.5 216)"><tspan x="0" y="0">EMERGENC</tspan><tspan class="cls-18" x="80.9" y="0">Y</tspan><tspan x="90" y="0" xml:space="preserve"> EXI</tspan><tspan class="cls-18" x="116.4" y="0">T</tspan></text>
    </g>
    <g>
      <g>
        <g>
          <path class="cls-14" d="M1277.6,286.1c-11.7,0-21.2-9.5-21.2-21.2s9.5-21.2,21.2-21.2,21.2,9.5,21.2,21.2-9.5,21.2-21.2,21.2Z"/>
          <path class="cls-9" d="M1277.6,245.1c11,0,19.9,8.9,19.9,19.9s-8.9,19.9-19.9,19.9-19.9-8.9-19.9-19.9,8.9-19.9,19.9-19.9M1277.6,242.6c-12.4,0-22.4,10.1-22.4,22.4s10.1,22.4,22.4,22.4,22.4-10.1,22.4-22.4-10.1-22.4-22.4-22.4h0Z"/>
        </g>
        <g id="aid">
          <polygon class="cls-9" points="1290.8 261.3 1281.3 261.3 1281.3 251.8 1274 251.8 1274 261.3 1264.4 261.3 1264.4 268.7 1274 268.7 1274 278.2 1281.3 278.2 1281.3 268.7 1290.8 268.7 1290.8 261.3"/>
        </g>
      </g>
      <text class="cls-2" transform="translate(1312.5 272)"><tspan x="0" y="0">FIRS</tspan><tspan class="cls-18" x="31.9" y="0">T</tspan><tspan class="cls-20" x="40.2" y="0"> </tspan><tspan x="43.3" y="0">AID</tspan></text>
    </g>
    <g>
      <g>
        <g>
          <path class="cls-12" d="M1503.3,231.6c-11.7,0-21.2-9.5-21.2-21.2s9.5-21.2,21.2-21.2,21.2,9.5,21.2,21.2-9.5,21.2-21.2,21.2Z"/>
          <path class="cls-9" d="M1503.3,190.5c11,0,19.9,8.9,19.9,19.9s-8.9,19.9-19.9,19.9-19.9-8.9-19.9-19.9,8.9-19.9,19.9-19.9M1503.3,188c-12.4,0-22.4,10.1-22.4,22.4s10.1,22.4,22.4,22.4,22.4-10.1,22.4-22.4-10.1-22.4-22.4-22.4h0Z"/>
        </g>
        <g id="fire">
          <path class="cls-9" d="M1514.5,202.2v-4.5l-6.7.8v.8h-3.5v-1.7h-.9s0-.4-.3-.8c-.8-1.2-2.6-1.3-3.4-.4-1.6,1.6,0,3.3,0,3.3-1.6.7-2.9,1.9-3.4,3-.6,1.5.9,1.7,1.3,1.1,1.9-2.9,3.9-2.8,3.9-2.8v.7c-3.3,1.1-3.1,4.1-3.1,4.1v18.6c0,1,1,.9,1,.9h6.8c1,0,1.1-.8,1.1-1.4v-18.2c0-3-3-4.1-3-4.1v-1h3.5v.8l6.7.8ZM1501.2,198.8c-.5,0-.9-.4-.9-.9s.4-.9.9-.9.9.4.9.9-.3.9-.9.9Z"/>
        </g>
      </g>
      <text class="cls-2" transform="translate(1538.2 217.9)"><tspan x="0" y="0">EXTINGUISHER</tspan></text>
    </g>
    <g>
      <g>
        <circle class="cls-11" cx="1503.3" cy="268.8" r="19.9"/>
        <path class="cls-16" d="M1508.1,271.4c0,.5-.4.9-.9.9s-.9-.4-.9-.9v-6h0c0-1.3,1.1-2.4,2.4-2.4h4.3c1.3,0,2.4,1.1,2.4,2.4h0v6c0,.5-.4.9-.9.9s-.9-.4-.9-.9v-5.5h-.5v14.9c0,.6-.5,1.1-1.1,1.1s-1.1-.5-1.1-1.1v-8.6h-.2v8.6c0,.6-.5,1.1-1.1,1.1s-1.1-.5-1.1-1.1v-14.9h-.5v5.5h.1Z"/>
        <circle class="cls-16" cx="1510.9" cy="260.6" r="2"/>
        <path class="cls-16" d="M1491.3,270.6c-.1.4-.6.7-1,.5-.4,0-.7-.6-.6-1l1.6-5.6c.3-1,1.3-1.8,2.3-1.8h2.8c1.1,0,2,.7,2.3,1.8l1.6,5.6c.1.4-.1.9-.6,1-.4,0-.9,0-1-.5l-1.5-5.2h-.5l2.6,8.9h-2.4v6.6c0,.5-.4.9-.9.9s-.9-.4-.9-.9v-6.6h-.4v6.6c0,.5-.4.9-.9.9s-.9-.4-.9-.9v-6.6h-2.2l2.6-8.9h-.5l-1.5,5.2h0Z"/>
        <circle class="cls-16" cx="1495.1" cy="260.5" r="2"/>
        <line class="cls-8" x1="1503.3" y1="252.3" x2="1503.3" y2="284.9"/>
      </g>
      <text class="cls-2" transform="translate(1538.2 275.4)"><tspan class="cls-18" x="0" y="0">T</tspan><tspan x="8.3" y="0">OILETS</tspan></text>
    </g>
    <g>
      <circle class="cls-14" cx="673.2" cy="484" r="15"/>
      <polygon class="cls-9" points="680.8 481.1 680.8 494.5 678.9 496.3 664.1 496.3 665.9 494.8 665.9 481.2 662.7 481.2 673.2 471.6 683.7 481.1 680.8 481.1"/>
      <g id="exit-2" data-name="exit">
        <g>
          <g>
            <path class="cls-14" d="M676.2,494.1l-3.6-6.6c0,.8-.3,2.1-.4,2.7,0,.8-.9,1.1-1.3,1.1h-7.2l1.8-2.2h4.4l.3-4,1.7-3.2h-1.6c0,0-.2.3-.3.5l-1.2,1.9c-.2.3-.5.5-.8.5s-.4,0-.5-.2c-.5-.3-.6-.8-.3-1.3l1.2-1.9h0c.4-.5.7-.8.9-1,.4-.2.8-.2,1-.2h3c.3,0,.6,0,.8,0,1.5,0,2.2.5,2.4.8,0,0,.2.2.2.2l1.7,2.2h2.6c.5,0,1,.5,1,1s-.5,1-1,1h-3c-.3,0-.6-.2-.8-.4l-1.3-1.7-1.2,2.6,4.2,8.6-2.7-.3Z"/>
            <path class="cls-9" d="M674.1,480.1c1.4,0,2,.5,2.3.8,0,0,.2,0,.2.2l1.7,2.3h2.6c.4,0,.8.3.8.8s-.3.8-.8.8h-3c-.2,0-.5,0-.6-.3l-1.5-2-1.4,3.1,4.1,8.4h-2.3c0,0-3.8-7.1-3.8-7.1,0,0-.4,2.5-.5,3.3,0,.9-1.1.9-1.1.9h-6.8l1.5-1.8h4.5l.3-4.2,1.8-3.5h-2c0,0-.3.3-.4.5l-1.2,1.9c-.2.2-.4.4-.6.4s-.3,0-.4-.2c-.4-.2-.5-.7-.2-1.1l1.2-1.9h0c.3-.5.6-.8.8-.9.3-.2.7-.2.9-.2h3.1c.2,0,.5,0,.7,0M674.1,479.8v.4-.4c-.3,0-.5,0-.8,0h-3c-.3,0-.7,0-1.1.3-.3.2-.6.5-1,1.1h0c0,0-1.2,2-1.2,2-.3.5-.2,1.3.4,1.6.2.2.4.2.6.2.4,0,.8-.2,1-.5l1.2-1.9c0-.2.2-.2.2-.3h1.2l-1.5,2.9h0v.2l-.2,3.8h-4.4l-.2.2-1.5,1.8-.6.7h7.7s.3,0,.7-.2c.5-.2.8-.6.8-1.1,0-.5.2-1.4.3-2.1l3.2,6v.2h2.6c0,0,.7,0,.7,0l-.3-.6-4.1-8.2,1.1-2.3,1.1,1.4c.2.3.5.5.9.5h3c.6,0,1.1-.5,1.1-1.1s-.5-1.1-1.1-1.1h-2.4l-1.6-2.1c0,0-.2-.2-.2-.2-.2-.2-.5-.4-.8-.5-.4-.3-1-.4-1.7-.4h0Z"/>
          </g>
          <g>
            <path class="cls-14" d="M675.5,480.1c-1.1,0-2-.9-2-2s.9-2,2-2,2,.9,2,2-.9,2-2,2Z"/>
            <path class="cls-9" d="M675.5,476.3c1,0,1.8.8,1.8,1.7s-.8,1.7-1.8,1.7-1.8-.8-1.8-1.7.8-1.7,1.8-1.7M675.5,475.9c-1.2,0-2.2,1-2.2,2.2s1,2.2,2.2,2.2,2.2-1,2.2-2.2-1.1-2.2-2.2-2.2h0Z"/>
          </g>
        </g>
      </g>
    </g>
    <g>
      <circle class="cls-14" cx="589" cy="484" r="15"/>
      <polygon class="cls-9" points="596.6 481.1 596.6 494.5 594.7 496.3 579.8 496.3 581.6 494.8 581.6 481.2 578.4 481.2 589 471.6 599.4 481.1 596.6 481.1"/>
      <g id="exit-3" data-name="exit">
        <g>
          <g>
            <path class="cls-14" d="M592,494.1l-3.6-6.6c0,.8-.3,2.1-.4,2.7,0,.8-.9,1.1-1.3,1.1h-7.2l1.8-2.2h4.4l.3-4,1.7-3.2h-1.6c0,0-.2.3-.3.5l-1.2,1.9c-.2.3-.5.5-.8.5s-.4,0-.5-.2c-.5-.3-.6-.8-.3-1.3l1.2-1.9h0c.4-.5.7-.8.9-1,.4-.2.8-.2,1-.2h3c.3,0,.6,0,.8,0,1.5,0,2.2.5,2.4.8,0,0,.2.2.2.2l1.7,2.2h2.6c.5,0,1,.5,1,1s-.5,1-1,1h-3c-.3,0-.6-.2-.8-.4l-1.3-1.7-1.2,2.6,4.2,8.6-2.7-.3Z"/>
            <path class="cls-9" d="M589.9,480.1c1.4,0,2,.5,2.3.8,0,0,.2,0,.2.2l1.7,2.3h2.6c.4,0,.8.3.8.8s-.3.8-.8.8h-3c-.2,0-.5,0-.6-.3l-1.5-2-1.4,3.1,4.1,8.4h-2.3c0,0-3.8-7.1-3.8-7.1,0,0-.4,2.5-.5,3.3,0,.9-1.1.9-1.1.9h-6.8l1.5-1.8h4.5l.3-4.2,1.8-3.5h-2c0,0-.3.3-.4.5l-1.2,1.9c-.2.2-.4.4-.6.4s-.3,0-.4-.2c-.4-.2-.5-.7-.2-1.1l1.2-1.9h0c.3-.5.6-.8.8-.9.3-.2.7-.2.9-.2h3.1c.2,0,.5,0,.7,0M589.9,479.8v.4-.4c-.3,0-.5,0-.8,0h-3c-.3,0-.7,0-1.1.3-.3.2-.6.5-1,1.1h0c0,0-1.2,2-1.2,2-.3.5-.2,1.3.4,1.6.2.2.4.2.6.2.4,0,.8-.2,1-.5l1.2-1.9c0-.2.2-.2.2-.3h1.2l-1.5,2.9h0v.2l-.2,3.8h-4.4l-.2.2-1.5,1.8-.6.7h7.7s.3,0,.7-.2c.5-.2.8-.6.8-1.1,0-.5.2-1.4.3-2.1l3.2,6v.2h2.6c0,0,.7,0,.7,0l-.3-.6-4.1-8.2,1.1-2.3,1.1,1.4c.2.3.5.5.9.5h3c.6,0,1.1-.5,1.1-1.1s-.5-1.1-1.1-1.1h-2.4l-1.6-2.1c0,0-.2-.2-.2-.2-.2-.2-.5-.4-.8-.5-.4-.3-1-.4-1.7-.4h0Z"/>
          </g>
          <g>
            <path class="cls-14" d="M591.2,480.1c-1.1,0-2-.9-2-2s.9-2,2-2,2,.9,2,2-.9,2-2,2Z"/>
            <path class="cls-9" d="M591.2,476.3c1,0,1.8.8,1.8,1.7s-.8,1.7-1.8,1.7-1.8-.8-1.8-1.7.8-1.7,1.8-1.7M591.2,475.9c-1.2,0-2.2,1-2.2,2.2s1,2.2,2.2,2.2,2.2-1,2.2-2.2-1.1-2.2-2.2-2.2h0Z"/>
          </g>
        </g>
      </g>
    </g>
    <g>
      <circle class="cls-14" cx="309.2" cy="522" r="15"/>
      <polygon class="cls-9" points="316.8 519.2 316.8 532.5 314.9 534.4 300 534.4 301.9 532.8 301.9 519.2 298.6 519.2 309.2 509.7 319.6 519.2 316.8 519.2"/>
      <g id="exit-4" data-name="exit">
        <g>
          <g>
            <path class="cls-14" d="M312.2,532.1l-3.6-6.6c0,.8-.3,2.1-.4,2.7,0,.8-.9,1.1-1.3,1.1h-7.2l1.8-2.2h4.4l.3-4,1.7-3.2h-1.6c0,0-.2.3-.3.5l-1.2,1.9c-.2.3-.5.5-.8.5s-.4,0-.5-.2c-.5-.3-.6-.8-.3-1.3l1.2-1.9h0c.4-.5.7-.8.9-1,.4-.2.8-.2,1-.2h3c.3,0,.6,0,.8,0,1.5,0,2.2.5,2.4.8,0,0,.2.2.2.2l1.7,2.2h2.6c.5,0,1,.5,1,1s-.5,1-1,1h-3c-.3,0-.6-.2-.8-.4l-1.3-1.7-1.2,2.6,4.2,8.6-2.7-.3Z"/>
            <path class="cls-9" d="M310.1,518.2c1.4,0,2,.5,2.3.8,0,0,.2,0,.2.2l1.7,2.3h2.6c.4,0,.8.3.8.8s-.3.8-.8.8h-3c-.2,0-.5,0-.6-.3l-1.5-2-1.4,3.1,4.1,8.4h-2.3c0,0-3.8-7.1-3.8-7.1,0,0-.4,2.5-.5,3.3,0,.9-1.1.9-1.1.9h-6.8l1.5-1.8h4.5l.3-4.2,1.8-3.5h-2c0,0-.3.3-.4.5l-1.2,1.9c-.2.2-.4.4-.6.4s-.3,0-.4-.2c-.4-.2-.5-.7-.2-1.1l1.2-1.9h0c.3-.5.6-.8.8-.9.3-.2.7-.2.9-.2h3.1c.2,0,.5,0,.7,0M310.1,517.8v.4-.4c-.3,0-.5,0-.8,0h-3c-.3,0-.7,0-1.1.3-.3.2-.6.5-1,1.1h0c0,0-1.2,2-1.2,2-.3.5-.2,1.3.4,1.6.2.2.4.2.6.2.4,0,.8-.2,1-.5l1.2-1.9c0-.2.2-.2.2-.3h1.2l-1.5,2.9h0v.2l-.2,3.8h-4.4l-.2.2-1.5,1.8-.6.7h7.7s.3,0,.7-.2c.5-.2.8-.6.8-1.1,0-.5.2-1.4.3-2.1l3.2,6v.2h2.6c0,0,.7,0,.7,0l-.3-.6-4.1-8.2,1.1-2.3,1.1,1.4c.2.3.5.5.9.5h3c.6,0,1.1-.5,1.1-1.1s-.5-1.1-1.1-1.1h-2.4l-1.6-2.1c0,0-.2-.2-.2-.2-.2-.2-.5-.4-.8-.5-.4-.3-1-.4-1.7-.4h0Z"/>
          </g>
          <g>
            <path class="cls-14" d="M311.4,518.1c-1.1,0-2-.9-2-2s.9-2,2-2,2,.9,2,2-.9,2-2,2Z"/>
            <path class="cls-9" d="M311.4,514.3c1,0,1.8.8,1.8,1.7s-.8,1.7-1.8,1.7-1.8-.8-1.8-1.7.8-1.7,1.8-1.7M311.4,514c-1.2,0-2.2,1-2.2,2.2s1,2.2,2.2,2.2,2.2-1,2.2-2.2-1.1-2.2-2.2-2.2h0Z"/>
          </g>
        </g>
      </g>
    </g>
    <g>
      <circle class="cls-14" cx="308.3" cy="606.8" r="15"/>
      <polygon class="cls-9" points="315.9 604 315.9 617.3 314 619.2 299.2 619.2 301 617.6 301 604 297.8 604 308.3 594.5 318.8 604 315.9 604"/>
      <g id="exit-5" data-name="exit">
        <g>
          <g>
            <path class="cls-14" d="M311.3,616.9l-3.6-6.6c0,.8-.3,2.1-.4,2.7,0,.8-.9,1.1-1.3,1.1h-7.2l1.8-2.2h4.4l.3-4,1.7-3.2h-1.6c0,0-.2.3-.3.5l-1.2,1.9c-.2.3-.5.5-.8.5s-.4,0-.5-.2c-.5-.3-.6-.8-.3-1.3l1.2-1.9h0c.4-.5.7-.8.9-1,.4-.2.8-.2,1-.2h3c.3,0,.6,0,.8,0,1.5,0,2.2.5,2.4.8,0,0,.2.2.2.2l1.7,2.2h2.6c.5,0,1,.5,1,1s-.5,1-1,1h-3c-.3,0-.6-.2-.8-.4l-1.3-1.7-1.2,2.6,4.2,8.6-2.7-.3Z"/>
            <path class="cls-9" d="M309.2,603c1.4,0,2,.5,2.3.8,0,0,.2,0,.2.2l1.7,2.3h2.6c.4,0,.8.3.8.8s-.3.8-.8.8h-3c-.2,0-.5,0-.6-.3l-1.5-2-1.4,3.1,4.1,8.4h-2.3c0,0-3.8-7.1-3.8-7.1,0,0-.4,2.5-.5,3.3,0,.9-1.1.9-1.1.9h-6.8l1.5-1.8h4.5l.3-4.2,1.8-3.5h-2c0,0-.3.3-.4.5l-1.2,1.9c-.2.2-.4.4-.6.4s-.3,0-.4-.2c-.4-.2-.5-.7-.2-1.1l1.2-1.9h0c.3-.5.6-.8.8-.9.3-.2.7-.2.9-.2h3.1c.2,0,.5,0,.7,0M309.2,602.6v.4-.4c-.3,0-.5,0-.8,0h-3c-.3,0-.7,0-1.1.3-.3.2-.6.5-1,1.1h0c0,0-1.2,2-1.2,2-.3.5-.2,1.3.4,1.6.2.2.4.2.6.2.4,0,.8-.2,1-.5l1.2-1.9c0-.2.2-.2.2-.3h1.2l-1.5,2.9h0v.2l-.2,3.8h-4.4l-.2.2-1.5,1.8-.6.7h7.7s.3,0,.7-.2c.5-.2.8-.6.8-1.1,0-.5.2-1.4.3-2.1l3.2,6v.2h2.6c0,0,.7,0,.7,0l-.3-.6-4.1-8.2,1.1-2.3,1.1,1.4c.2.3.5.5.9.5h3c.6,0,1.1-.5,1.1-1.1s-.5-1.1-1.1-1.1h-2.4l-1.6-2.1c0,0-.2-.2-.2-.2-.2-.2-.5-.4-.8-.5-.4-.3-1-.4-1.7-.4h0Z"/>
          </g>
          <g>
            <path class="cls-14" d="M310.6,602.9c-1.1,0-2-.9-2-2s.9-2,2-2,2,.9,2,2-.9,2-2,2Z"/>
            <path class="cls-9" d="M310.6,599.1c1,0,1.8.8,1.8,1.7s-.8,1.7-1.8,1.7-1.8-.8-1.8-1.7.8-1.7,1.8-1.7M310.6,598.8c-1.2,0-2.2,1-2.2,2.2s1,2.2,2.2,2.2,2.2-1,2.2-2.2-1.1-2.2-2.2-2.2h0Z"/>
          </g>
        </g>
      </g>
    </g>
    <g>
      <circle class="cls-14" cx="307.5" cy="806.4" r="15"/>
      <polygon class="cls-9" points="315.1 803.5 315.1 816.9 313.2 818.8 298.3 818.8 300.2 817.2 300.2 803.6 296.9 803.6 307.5 794 317.9 803.5 315.1 803.5"/>
      <g id="exit-6" data-name="exit">
        <g>
          <g>
            <path class="cls-14" d="M310.5,816.5l-3.6-6.6c0,.8-.3,2.1-.4,2.7,0,.8-.9,1.1-1.3,1.1h-7.2l1.8-2.2h4.4l.3-4,1.7-3.2h-1.6c0,0-.2.3-.3.5l-1.2,1.9c-.2.3-.5.5-.8.5s-.4,0-.5-.2c-.5-.3-.6-.8-.3-1.3l1.2-1.9h0c.4-.5.7-.8.9-1,.4-.2.8-.2,1-.2h3c.3,0,.6,0,.8,0,1.5,0,2.2.5,2.4.8,0,0,.2.2.2.2l1.7,2.2h2.6c.5,0,1,.5,1,1s-.5,1-1,1h-3c-.3,0-.6-.2-.8-.4l-1.3-1.7-1.2,2.6,4.2,8.6-2.7-.3Z"/>
            <path class="cls-9" d="M308.4,802.6c1.4,0,2,.5,2.3.8,0,0,.2,0,.2.2l1.7,2.3h2.6c.4,0,.8.3.8.8s-.3.8-.8.8h-3c-.2,0-.5,0-.6-.3l-1.5-2-1.4,3.1,4.1,8.4h-2.3c0,0-3.8-7.1-3.8-7.1,0,0-.4,2.5-.5,3.3,0,.9-1.1.9-1.1.9h-6.8l1.5-1.8h4.5l.3-4.2,1.8-3.5h-2c0,0-.3.3-.4.5l-1.2,1.9c-.2.2-.4.4-.6.4s-.3,0-.4-.2c-.4-.2-.5-.7-.2-1.1l1.2-1.9h0c.3-.5.6-.8.8-.9.3-.2.7-.2.9-.2h3.1c.2,0,.5,0,.7,0M308.4,802.2v.4-.4c-.3,0-.5,0-.8,0h-3c-.3,0-.7,0-1.1.3-.3.2-.6.5-1,1.1h0c0,0-1.2,2-1.2,2-.3.5-.2,1.3.4,1.6.2.2.4.2.6.2.4,0,.8-.2,1-.5l1.2-1.9c0-.2.2-.2.2-.3h1.2l-1.5,2.9h0v.2l-.2,3.8h-4.4l-.2.2-1.5,1.8-.6.7h7.7s.3,0,.7-.2c.5-.2.8-.6.8-1.1,0-.5.2-1.4.3-2.1l3.2,6v.2h2.6c0,0,.7,0,.7,0l-.3-.6-4.1-8.2,1.1-2.3,1.1,1.4c.2.3.5.5.9.5h3c.6,0,1.1-.5,1.1-1.1s-.5-1.1-1.1-1.1h-2.4l-1.6-2.1c0,0-.2-.2-.2-.2-.2-.2-.5-.4-.8-.5-.4-.3-1-.4-1.7-.4h0Z"/>
          </g>
          <g>
            <path class="cls-14" d="M309.7,802.5c-1.1,0-2-.9-2-2s.9-2,2-2,2,.9,2,2-.9,2-2,2Z"/>
            <path class="cls-9" d="M309.7,798.7c1,0,1.8.8,1.8,1.7s-.8,1.7-1.8,1.7-1.8-.8-1.8-1.7.8-1.7,1.8-1.7M309.7,798.3c-1.2,0-2.2,1-2.2,2.2s1,2.2,2.2,2.2,2.2-1,2.2-2.2-1.1-2.2-2.2-2.2h0Z"/>
          </g>
        </g>
      </g>
    </g>
    <g>
      <circle class="cls-14" cx="70.5" cy="834.5" r="15"/>
      <polygon class="cls-9" points="78.1 831.6 78.1 845 76.2 846.9 61.4 846.9 63.2 845.3 63.2 831.7 60 831.7 70.5 822.1 81 831.6 78.1 831.6"/>
      <g id="exit-7" data-name="exit">
        <g>
          <g>
            <path class="cls-14" d="M73.5,844.6l-3.6-6.6c0,.8-.3,2.1-.4,2.7,0,.8-.9,1.1-1.3,1.1h-7.2l1.8-2.2h4.4l.3-4,1.7-3.2h-1.6c0,0-.2.3-.3.5l-1.2,1.9c-.2.3-.5.5-.8.5s-.4,0-.5-.2c-.5-.3-.6-.8-.3-1.3l1.2-1.9h0c.4-.5.7-.8.9-1,.4-.2.8-.2,1-.2h3c.3,0,.6,0,.8,0,1.5,0,2.2.5,2.4.8,0,0,.2.2.2.2l1.7,2.2h2.6c.5,0,1,.5,1,1s-.5,1-1,1h-3c-.3,0-.6-.2-.8-.4l-1.3-1.7-1.2,2.6,4.2,8.6-2.7-.3Z"/>
            <path class="cls-9" d="M71.4,830.7c1.4,0,2,.5,2.3.8,0,0,.2,0,.2.2l1.7,2.3h2.6c.4,0,.8.3.8.8s-.3.8-.8.8h-3c-.2,0-.5,0-.6-.3l-1.5-2-1.4,3.1,4.1,8.4h-2.3c0,0-3.8-7.1-3.8-7.1,0,0-.4,2.5-.5,3.3,0,.9-1.1.9-1.1.9h-6.8l1.5-1.8h4.5l.3-4.2,1.8-3.5h-2c0,0-.3.3-.4.5l-1.2,1.9c-.2.2-.4.4-.6.4s-.3,0-.4-.2c-.4-.2-.5-.7-.2-1.1l1.2-1.9h0c.3-.5.6-.8.8-.9.3-.2.7-.2.9-.2h3.1c.2,0,.5,0,.7,0M71.4,830.3v.4-.4c-.3,0-.5,0-.8,0h-3c-.3,0-.7,0-1.1.3-.3.2-.6.5-1,1.1h0c0,0-1.2,2-1.2,2-.3.5-.2,1.3.4,1.6.2.2.4.2.6.2.4,0,.8-.2,1-.5l1.2-1.9c0-.2.2-.2.2-.3h1.2l-1.5,2.9h0v.2l-.2,3.8h-4.4l-.2.2-1.5,1.8-.6.7h7.7s.3,0,.7-.2c.5-.2.8-.6.8-1.1,0-.5.2-1.4.3-2.1l3.2,6v.2h2.6c0,0,.7,0,.7,0l-.3-.6-4.1-8.2,1.1-2.3,1.1,1.4c.2.3.5.5.9.5h3c.6,0,1.1-.5,1.1-1.1s-.5-1.1-1.1-1.1h-2.4l-1.6-2.1c0,0-.2-.2-.2-.2-.2-.2-.5-.4-.8-.5-.4-.3-1-.4-1.7-.4h0Z"/>
          </g>
          <g>
            <path class="cls-14" d="M72.8,830.6c-1.1,0-2-.9-2-2s.9-2,2-2,2,.9,2,2-.9,2-2,2Z"/>
            <path class="cls-9" d="M72.8,826.8c1,0,1.8.8,1.8,1.7s-.8,1.7-1.8,1.7-1.8-.8-1.8-1.7.8-1.7,1.8-1.7M72.8,826.4c-1.2,0-2.2,1-2.2,2.2s1,2.2,2.2,2.2,2.2-1,2.2-2.2-1.1-2.2-2.2-2.2h0Z"/>
          </g>
        </g>
      </g>
    </g>
    <g>
      <circle class="cls-14" cx="766.4" cy="514.1" r="15"/>
      <polygon class="cls-9" points="774.1 511.3 774.1 524.6 772.2 526.5 757.3 526.5 759.1 524.9 759.1 511.3 755.9 511.3 766.4 501.8 776.9 511.3 774.1 511.3"/>
      <g id="exit-8" data-name="exit">
        <g>
          <g>
            <path class="cls-14" d="M769.5,524.2l-3.6-6.6c0,.8-.3,2.1-.4,2.7,0,.8-.9,1.1-1.3,1.1h-7.2l1.8-2.2h4.4l.3-4,1.7-3.2h-1.6c0,0-.2.3-.3.5l-1.2,1.9c-.2.3-.5.5-.8.5s-.4,0-.5-.2c-.5-.3-.6-.8-.3-1.3l1.2-1.9h0c.4-.5.7-.8.9-1,.4-.2.8-.2,1-.2h3c.3,0,.6,0,.8,0,1.5,0,2.2.5,2.4.8,0,0,.2.2.2.2l1.7,2.2h2.6c.5,0,1,.5,1,1s-.5,1-1,1h-3c-.3,0-.6-.2-.8-.4l-1.3-1.7-1.2,2.6,4.2,8.6-2.7-.3Z"/>
            <path class="cls-9" d="M767.3,510.3c1.4,0,2,.5,2.3.8,0,0,.2,0,.2.2l1.7,2.3h2.6c.4,0,.8.3.8.8s-.3.8-.8.8h-3c-.2,0-.5,0-.6-.3l-1.5-2-1.4,3.1,4.1,8.4h-2.3c0,0-3.8-7.1-3.8-7.1,0,0-.4,2.5-.5,3.3,0,.9-1.1.9-1.1.9h-6.8l1.5-1.8h4.5l.3-4.2,1.8-3.5h-2c0,0-.3.3-.4.5l-1.2,1.9c-.2.2-.4.4-.6.4s-.3,0-.4-.2c-.4-.2-.5-.7-.2-1.1l1.2-1.9h0c.3-.5.6-.8.8-.9.3-.2.7-.2.9-.2h3.1c.2,0,.5,0,.7,0M767.3,509.9v.4-.4c-.3,0-.5,0-.8,0h-3c-.3,0-.7,0-1.1.3-.3.2-.6.5-1,1.1h0c0,0-1.2,2-1.2,2-.3.5-.2,1.3.4,1.6.2.2.4.2.6.2.4,0,.8-.2,1-.5l1.2-1.9c0-.2.2-.2.2-.3h1.2l-1.5,2.9h0v.2l-.2,3.8h-4.4l-.2.2-1.5,1.8-.6.7h7.7s.3,0,.7-.2c.5-.2.8-.6.8-1.1,0-.5.2-1.4.3-2.1l3.2,6v.2h2.6c0,0,.7,0,.7,0l-.3-.6-4.1-8.2,1.1-2.3,1.1,1.4c.2.3.5.5.9.5h3c.6,0,1.1-.5,1.1-1.1s-.5-1.1-1.1-1.1h-2.4l-1.6-2.1c0,0-.2-.2-.2-.2-.2-.2-.5-.4-.8-.5-.4-.3-1-.4-1.7-.4h0Z"/>
          </g>
          <g>
            <path class="cls-14" d="M768.7,510.2c-1.1,0-2-.9-2-2s.9-2,2-2,2,.9,2,2-.9,2-2,2Z"/>
            <path class="cls-9" d="M768.7,506.4c1,0,1.8.8,1.8,1.7s-.8,1.7-1.8,1.7-1.8-.8-1.8-1.7.8-1.7,1.8-1.7M768.7,506.1c-1.2,0-2.2,1-2.2,2.2s1,2.2,2.2,2.2,2.2-1,2.2-2.2-1.1-2.2-2.2-2.2h0Z"/>
          </g>
        </g>
      </g>
    </g>
    <g>
      <circle class="cls-14" cx="827.7" cy="527.4" r="15"/>
      <polygon class="cls-9" points="835.4 524.6 835.4 537.9 833.5 539.8 818.6 539.8 820.4 538.2 820.4 524.6 817.2 524.6 827.7 515.1 838.2 524.6 835.4 524.6"/>
      <g id="exit-9" data-name="exit">
        <g>
          <g>
            <path class="cls-14" d="M830.8,537.5l-3.6-6.6c0,.8-.3,2.1-.4,2.7,0,.8-.9,1.1-1.3,1.1h-7.2l1.8-2.2h4.4l.3-4,1.7-3.2h-1.6c0,0-.2.3-.3.5l-1.2,1.9c-.2.3-.5.5-.8.5s-.4,0-.5-.2c-.5-.3-.6-.8-.3-1.3l1.2-1.9h0c.4-.5.7-.8.9-1,.4-.2.8-.2,1-.2h3c.3,0,.6,0,.8,0,1.5,0,2.2.5,2.4.8,0,0,.2.2.2.2l1.7,2.2h2.6c.5,0,1,.5,1,1s-.5,1-1,1h-3c-.3,0-.6-.2-.8-.4l-1.3-1.7-1.2,2.6,4.2,8.6-2.7-.3Z"/>
            <path class="cls-9" d="M828.6,523.6c1.4,0,2,.5,2.3.8,0,0,.2,0,.2.2l1.7,2.3h2.6c.4,0,.8.3.8.8s-.3.8-.8.8h-3c-.2,0-.5,0-.6-.3l-1.5-2-1.4,3.1,4.1,8.4h-2.3c0,0-3.8-7.1-3.8-7.1,0,0-.4,2.5-.5,3.3,0,.9-1.1.9-1.1.9h-6.8l1.5-1.8h4.5l.3-4.2,1.8-3.5h-2c0,0-.3.3-.4.5l-1.2,1.9c-.2.2-.4.4-.6.4s-.3,0-.4-.2c-.4-.2-.5-.7-.2-1.1l1.2-1.9h0c.3-.5.6-.8.8-.9.3-.2.7-.2.9-.2h3.1c.2,0,.5,0,.7,0M828.6,523.2v.4-.4c-.3,0-.5,0-.8,0h-3c-.3,0-.7,0-1.1.3-.3.2-.6.5-1,1.1h0c0,0-1.2,2-1.2,2-.3.5-.2,1.3.4,1.6.2.2.4.2.6.2.4,0,.8-.2,1-.5l1.2-1.9c0-.2.2-.2.2-.3h1.2l-1.5,2.9h0v.2l-.2,3.8h-4.4l-.2.2-1.5,1.8-.6.7h7.7s.3,0,.7-.2c.5-.2.8-.6.8-1.1,0-.5.2-1.4.3-2.1l3.2,6v.2h2.6c0,0,.7,0,.7,0l-.3-.6-4.1-8.2,1.1-2.3,1.1,1.4c.2.3.5.5.9.5h3c.6,0,1.1-.5,1.1-1.1s-.5-1.1-1.1-1.1h-2.4l-1.6-2.1c0,0-.2-.2-.2-.2-.2-.2-.5-.4-.8-.5-.4-.3-1-.4-1.7-.4h0Z"/>
          </g>
          <g>
            <path class="cls-14" d="M830,523.5c-1.1,0-2-.9-2-2s.9-2,2-2,2,.9,2,2-.9,2-2,2Z"/>
            <path class="cls-9" d="M830,519.7c1,0,1.8.8,1.8,1.7s-.8,1.7-1.8,1.7-1.8-.8-1.8-1.7.8-1.7,1.8-1.7M830,519.4c-1.2,0-2.2,1-2.2,2.2s1,2.2,2.2,2.2,2.2-1,2.2-2.2-1.1-2.2-2.2-2.2h0Z"/>
          </g>
        </g>
      </g>
    </g>
    <g>
      <circle class="cls-14" cx="914.6" cy="526.4" r="15"/>
      <polygon class="cls-9" points="922.2 523.5 922.2 536.9 920.3 538.8 905.5 538.8 907.3 537.2 907.3 523.6 904 523.6 914.6 514 925.1 523.5 922.2 523.5"/>
      <g id="exit-10" data-name="exit">
        <g>
          <g>
            <path class="cls-14" d="M917.6,536.5l-3.6-6.6c0,.8-.3,2.1-.4,2.7,0,.8-.9,1.1-1.3,1.1h-7.2l1.8-2.2h4.4l.3-4,1.7-3.2h-1.6c0,0-.2.3-.3.5l-1.2,1.9c-.2.3-.5.5-.8.5s-.4,0-.5-.2c-.5-.3-.6-.8-.3-1.3l1.2-1.9h0c.4-.5.7-.8.9-1,.4-.2.8-.2,1-.2h3c.3,0,.6,0,.8,0,1.5,0,2.2.5,2.4.8,0,0,.2.2.2.2l1.7,2.2h2.6c.5,0,1,.5,1,1s-.5,1-1,1h-3c-.3,0-.6-.2-.8-.4l-1.3-1.7-1.2,2.6,4.2,8.6-2.7-.3Z"/>
            <path class="cls-9" d="M915.5,522.5c1.4,0,2,.5,2.3.8,0,0,.2,0,.2.2l1.7,2.3h2.6c.4,0,.8.3.8.8s-.3.8-.8.8h-3c-.2,0-.5,0-.6-.3l-1.5-2-1.4,3.1,4.1,8.4h-2.3c0,0-3.8-7.1-3.8-7.1,0,0-.4,2.5-.5,3.3,0,.9-1.1.9-1.1.9h-6.8l1.5-1.8h4.5l.3-4.2,1.8-3.5h-2c0,0-.3.3-.4.5l-1.2,1.9c-.2.2-.4.4-.6.4s-.3,0-.4-.2c-.4-.2-.5-.7-.2-1.1l1.2-1.9h0c.3-.5.6-.8.8-.9.3-.2.7-.2.9-.2h3.1c.2,0,.5,0,.7,0M915.5,522.2v.4-.4c-.3,0-.5,0-.8,0h-3c-.3,0-.7,0-1.1.3-.3.2-.6.5-1,1.1h0c0,0-1.2,2-1.2,2-.3.5-.2,1.3.4,1.6.2.2.4.2.6.2.4,0,.8-.2,1-.5l1.2-1.9c0-.2.2-.2.2-.3h1.2l-1.5,2.9h0v.2l-.2,3.8h-4.4l-.2.2-1.5,1.8-.6.7h7.7s.3,0,.7-.2c.5-.2.8-.6.8-1.1,0-.5.2-1.4.3-2.1l3.2,6v.2h2.6c0,0,.7,0,.7,0l-.3-.6-4.1-8.2,1.1-2.3,1.1,1.4c.2.3.5.5.9.5h3c.6,0,1.1-.5,1.1-1.1s-.5-1.1-1.1-1.1h-2.4l-1.6-2.1c0,0-.2-.2-.2-.2-.2-.2-.5-.4-.8-.5-.4-.3-1-.4-1.7-.4h0Z"/>
          </g>
          <g>
            <path class="cls-14" d="M916.8,522.5c-1.1,0-2-.9-2-2s.9-2,2-2,2,.9,2,2-.9,2-2,2Z"/>
            <path class="cls-9" d="M916.8,518.7c1,0,1.8.8,1.8,1.7s-.8,1.7-1.8,1.7-1.8-.8-1.8-1.7.8-1.7,1.8-1.7M916.8,518.3c-1.2,0-2.2,1-2.2,2.2s1,2.2,2.2,2.2,2.2-1,2.2-2.2-1.1-2.2-2.2-2.2h0Z"/>
          </g>
        </g>
      </g>
    </g>
    <g>
      <circle class="cls-14" cx="964.7" cy="539.7" r="15"/>
      <polygon class="cls-9" points="972.4 536.9 972.4 550.2 970.5 552.1 955.6 552.1 957.4 550.5 957.4 536.9 954.2 536.9 964.7 527.4 975.2 536.9 972.4 536.9"/>
      <g id="exit-11" data-name="exit">
        <g>
          <g>
            <path class="cls-14" d="M967.8,549.8l-3.6-6.6c0,.8-.3,2.1-.4,2.7,0,.8-.9,1.1-1.3,1.1h-7.2l1.8-2.2h4.4l.3-4,1.7-3.2h-1.6c0,0-.2.3-.3.5l-1.2,1.9c-.2.3-.5.5-.8.5s-.4,0-.5-.2c-.5-.3-.6-.8-.3-1.3l1.2-1.9h0c.4-.5.7-.8.9-1,.4-.2.8-.2,1-.2h3c.3,0,.6,0,.8,0,1.5,0,2.2.5,2.4.8,0,0,.2.2.2.2l1.7,2.2h2.6c.5,0,1,.5,1,1s-.5,1-1,1h-3c-.3,0-.6-.2-.8-.4l-1.3-1.7-1.2,2.6,4.2,8.6-2.7-.3Z"/>
            <path class="cls-9" d="M965.6,535.9c1.4,0,2,.5,2.3.8,0,0,.2,0,.2.2l1.7,2.3h2.6c.4,0,.8.3.8.8s-.3.8-.8.8h-3c-.2,0-.5,0-.6-.3l-1.5-2-1.4,3.1,4.1,8.4h-2.3c0,0-3.8-7.1-3.8-7.1,0,0-.4,2.5-.5,3.3,0,.9-1.1.9-1.1.9h-6.8l1.5-1.8h4.5l.3-4.2,1.8-3.5h-2c0,0-.3.3-.4.5l-1.2,1.9c-.2.2-.4.4-.6.4s-.3,0-.4-.2c-.4-.2-.5-.7-.2-1.1l1.2-1.9h0c.3-.5.6-.8.8-.9.3-.2.7-.2.9-.2h3.1c.2,0,.5,0,.7,0M965.6,535.5v.4-.4c-.3,0-.5,0-.8,0h-3c-.3,0-.7,0-1.1.3-.3.2-.6.5-1,1.1h0c0,0-1.2,2-1.2,2-.3.5-.2,1.3.4,1.6.2.2.4.2.6.2.4,0,.8-.2,1-.5l1.2-1.9c0-.2.2-.2.2-.3h1.2l-1.5,2.9h0v.2l-.2,3.8h-4.4l-.2.2-1.5,1.8-.6.7h7.7s.3,0,.7-.2c.5-.2.8-.6.8-1.1,0-.5.2-1.4.3-2.1l3.2,6v.2h2.6c0,0,.7,0,.7,0l-.3-.6-4.1-8.2,1.1-2.3,1.1,1.4c.2.3.5.5.9.5h3c.6,0,1.1-.5,1.1-1.1s-.5-1.1-1.1-1.1h-2.4l-1.6-2.1c0,0-.2-.2-.2-.2-.2-.2-.5-.4-.8-.5-.4-.3-1-.4-1.7-.4h0Z"/>
          </g>
          <g>
            <path class="cls-14" d="M967,535.8c-1.1,0-2-.9-2-2s.9-2,2-2,2,.9,2,2-.9,2-2,2Z"/>
            <path class="cls-9" d="M967,532c1,0,1.8.8,1.8,1.7s-.8,1.7-1.8,1.7-1.8-.8-1.8-1.7.8-1.7,1.8-1.7M967,531.7c-1.2,0-2.2,1-2.2,2.2s1,2.2,2.2,2.2,2.2-1,2.2-2.2-1.1-2.2-2.2-2.2h0Z"/>
          </g>
        </g>
      </g>
    </g>
    <g>
      <circle class="cls-14" cx="894.7" cy="332.1" r="15"/>
      <polygon class="cls-9" points="902.3 329.3 902.3 342.6 900.4 344.5 885.6 344.5 887.4 342.9 887.4 329.3 884.1 329.3 894.7 319.8 905.2 329.3 902.3 329.3"/>
      <g id="exit-12" data-name="exit">
        <g>
          <g>
            <path class="cls-14" d="M897.7,342.2l-3.6-6.6c0,.8-.3,2.1-.4,2.7,0,.8-.9,1.1-1.3,1.1h-7.2l1.8-2.2h4.4l.3-4,1.7-3.2h-1.6c0,0-.2.3-.3.5l-1.2,1.9c-.2.3-.5.5-.8.5s-.4,0-.5-.2c-.5-.3-.6-.8-.3-1.3l1.2-1.9h0c.4-.5.7-.8.9-1,.4-.2.8-.2,1-.2h3c.3,0,.6,0,.8,0,1.5,0,2.2.5,2.4.8,0,0,.2.2.2.2l1.7,2.2h2.6c.5,0,1,.5,1,1s-.5,1-1,1h-3c-.3,0-.6-.2-.8-.4l-1.3-1.7-1.2,2.6,4.2,8.6-2.7-.3Z"/>
            <path class="cls-9" d="M895.6,328.3c1.4,0,2,.5,2.3.8,0,0,.2,0,.2.2l1.7,2.3h2.6c.4,0,.8.3.8.8s-.3.8-.8.8h-3c-.2,0-.5,0-.6-.3l-1.5-2-1.4,3.1,4.1,8.4h-2.3c0,0-3.8-7.1-3.8-7.1,0,0-.4,2.5-.5,3.3,0,.9-1.1.9-1.1.9h-6.8l1.5-1.8h4.5l.3-4.2,1.8-3.5h-2c0,0-.3.3-.4.5l-1.2,1.9c-.2.2-.4.4-.6.4s-.3,0-.4-.2c-.4-.2-.5-.7-.2-1.1l1.2-1.9h0c.3-.5.6-.8.8-.9.3-.2.7-.2.9-.2h3.1c.2,0,.5,0,.7,0M895.6,327.9v.4-.4c-.3,0-.5,0-.8,0h-3c-.3,0-.7,0-1.1.3-.3.2-.6.5-1,1.1h0c0,0-1.2,2-1.2,2-.3.5-.2,1.3.4,1.6.2.2.4.2.6.2.4,0,.8-.2,1-.5l1.2-1.9c0-.2.2-.2.2-.3h1.2l-1.5,2.9h0v.2l-.2,3.8h-4.4l-.2.2-1.5,1.8-.6.7h7.7s.3,0,.7-.2c.5-.2.8-.6.8-1.1,0-.5.2-1.4.3-2.1l3.2,6v.2h2.6c0,0,.7,0,.7,0l-.3-.6-4.1-8.2,1.1-2.3,1.1,1.4c.2.3.5.5.9.5h3c.6,0,1.1-.5,1.1-1.1s-.5-1.1-1.1-1.1h-2.4l-1.6-2.1c0,0-.2-.2-.2-.2-.2-.2-.5-.4-.8-.5-.4-.3-1-.4-1.7-.4h0Z"/>
          </g>
          <g>
            <path class="cls-14" d="M896.9,328.2c-1.1,0-2-.9-2-2s.9-2,2-2,2,.9,2,2-.9,2-2,2Z"/>
            <path class="cls-9" d="M896.9,324.4c1,0,1.8.8,1.8,1.7s-.8,1.7-1.8,1.7-1.8-.8-1.8-1.7.8-1.7,1.8-1.7M896.9,324.1c-1.2,0-2.2,1-2.2,2.2s1,2.2,2.2,2.2,2.2-1,2.2-2.2-1.1-2.2-2.2-2.2h0Z"/>
          </g>
        </g>
      </g>
    </g>
    <g>
      <circle class="cls-14" cx="826.9" cy="917.9" r="15"/>
      <polygon class="cls-9" points="834.5 915.1 834.5 928.4 832.6 930.3 817.8 930.3 819.6 928.7 819.6 915.2 816.3 915.2 826.9 905.6 837.4 915.1 834.5 915.1"/>
      <g id="exit-13" data-name="exit">
        <g>
          <g>
            <path class="cls-14" d="M829.9,928l-3.6-6.6c0,.8-.3,2.1-.4,2.7,0,.8-.9,1.1-1.3,1.1h-7.2l1.8-2.2h4.4l.3-4,1.7-3.2h-1.6c0,0-.2.3-.3.5l-1.2,1.9c-.2.3-.5.5-.8.5s-.4,0-.5-.2c-.5-.3-.6-.8-.3-1.3l1.2-1.9h0c.4-.5.7-.8.9-1,.4-.2.8-.2,1-.2h3c.3,0,.6,0,.8,0,1.5,0,2.2.5,2.4.8,0,0,.2.2.2.2l1.7,2.2h2.6c.5,0,1,.5,1,1s-.5,1-1,1h-3c-.3,0-.6-.2-.8-.4l-1.3-1.7-1.2,2.6,4.2,8.6-2.7-.3Z"/>
            <path class="cls-9" d="M827.8,914.1c1.4,0,2,.5,2.3.8,0,0,.2,0,.2.2l1.7,2.3h2.6c.4,0,.8.3.8.8s-.3.8-.8.8h-3c-.2,0-.5,0-.6-.3l-1.5-2-1.4,3.1,4.1,8.4h-2.3c0,0-3.8-7.1-3.8-7.1,0,0-.4,2.5-.5,3.3,0,.9-1.1.9-1.1.9h-6.8l1.5-1.8h4.5l.3-4.2,1.8-3.5h-2c0,0-.3.3-.4.5l-1.2,1.9c-.2.2-.4.4-.6.4s-.3,0-.4-.2c-.4-.2-.5-.7-.2-1.1l1.2-1.9h0c.3-.5.6-.8.8-.9.3-.2.7-.2.9-.2h3.1c.2,0,.5,0,.7,0M827.8,913.7v.4-.4c-.3,0-.5,0-.8,0h-3c-.3,0-.7,0-1.1.3-.3.2-.6.5-1,1.1h0c0,0-1.2,2-1.2,2-.3.5-.2,1.3.4,1.6.2.2.4.2.6.2.4,0,.8-.2,1-.5l1.2-1.9c0-.2.2-.2.2-.3h1.2l-1.5,2.9h0v.2l-.2,3.8h-4.4l-.2.2-1.5,1.8-.6.7h7.7s.3,0,.7-.2c.5-.2.8-.6.8-1.1,0-.5.2-1.4.3-2.1l3.2,6v.2h2.6c0,0,.7,0,.7,0l-.3-.6-4.1-8.2,1.1-2.3,1.1,1.4c.2.3.5.5.9.5h3c.6,0,1.1-.5,1.1-1.1s-.5-1.1-1.1-1.1h-2.4l-1.6-2.1c0,0-.2-.2-.2-.2-.2-.2-.5-.4-.8-.5-.4-.3-1-.4-1.7-.4h0Z"/>
          </g>
          <g>
            <path class="cls-14" d="M829.1,914c-1.1,0-2-.9-2-2s.9-2,2-2,2,.9,2,2-.9,2-2,2Z"/>
            <path class="cls-9" d="M829.1,910.3c1,0,1.8.8,1.8,1.7s-.8,1.7-1.8,1.7-1.8-.8-1.8-1.7.8-1.7,1.8-1.7M829.1,909.9c-1.2,0-2.2,1-2.2,2.2s1,2.2,2.2,2.2,2.2-1,2.2-2.2-1.1-2.2-2.2-2.2h0Z"/>
          </g>
        </g>
      </g>
    </g>
    <g>
      <circle class="cls-14" cx="1364.8" cy="917.9" r="15"/>
      <polygon class="cls-9" points="1372.4 915.1 1372.4 928.4 1370.6 930.3 1355.7 930.3 1357.5 928.7 1357.5 915.2 1354.3 915.2 1364.8 905.6 1375.3 915.1 1372.4 915.1"/>
      <g id="exit-14" data-name="exit">
        <g>
          <g>
            <path class="cls-14" d="M1367.8,928l-3.6-6.6c0,.8-.3,2.1-.4,2.7,0,.8-.9,1.1-1.3,1.1h-7.2l1.8-2.2h4.4l.3-4,1.7-3.2h-1.6c0,0-.2.3-.3.5l-1.2,1.9c-.2.3-.5.5-.8.5s-.4,0-.5-.2c-.5-.3-.6-.8-.3-1.3l1.2-1.9h0c.4-.5.7-.8.9-1,.4-.2.8-.2,1-.2h3c.3,0,.6,0,.8,0,1.5,0,2.2.5,2.4.8,0,0,.2.2.2.2l1.7,2.2h2.6c.5,0,1,.5,1,1s-.5,1-1,1h-3c-.3,0-.6-.2-.8-.4l-1.3-1.7-1.2,2.6,4.2,8.6-2.7-.3Z"/>
            <path class="cls-9" d="M1365.7,914.1c1.4,0,2,.5,2.3.8,0,0,.2,0,.2.2l1.7,2.3h2.6c.4,0,.8.3.8.8s-.3.8-.8.8h-3c-.2,0-.5,0-.6-.3l-1.5-2-1.4,3.1,4.1,8.4h-2.3c0,0-3.8-7.1-3.8-7.1,0,0-.4,2.5-.5,3.3,0,.9-1.1.9-1.1.9h-6.8l1.5-1.8h4.5l.3-4.2,1.8-3.5h-2c0,0-.3.3-.4.5l-1.2,1.9c-.2.2-.4.4-.6.4s-.3,0-.4-.2c-.4-.2-.5-.7-.2-1.1l1.2-1.9h0c.3-.5.6-.8.8-.9.3-.2.7-.2.9-.2h3.1c.2,0,.5,0,.7,0M1365.7,913.7v.4-.4c-.3,0-.5,0-.8,0h-3c-.3,0-.7,0-1.1.3-.3.2-.6.5-1,1.1h0c0,0-1.2,2-1.2,2-.3.5-.2,1.3.4,1.6.2.2.4.2.6.2.4,0,.8-.2,1-.5l1.2-1.9c0-.2.2-.2.2-.3h1.2l-1.5,2.9h0v.2l-.2,3.8h-4.4l-.2.2-1.5,1.8-.6.7h7.7s.3,0,.7-.2c.5-.2.8-.6.8-1.1,0-.5.2-1.4.3-2.1l3.2,6v.2h2.6c0,0,.7,0,.7,0l-.3-.6-4.1-8.2,1.1-2.3,1.1,1.4c.2.3.5.5.9.5h3c.6,0,1.1-.5,1.1-1.1s-.5-1.1-1.1-1.1h-2.4l-1.6-2.1c0,0-.2-.2-.2-.2-.2-.2-.5-.4-.8-.5-.4-.3-1-.4-1.7-.4h0Z"/>
          </g>
          <g>
            <path class="cls-14" d="M1367.1,914c-1.1,0-2-.9-2-2s.9-2,2-2,2,.9,2,2-.9,2-2,2Z"/>
            <path class="cls-9" d="M1367.1,910.3c1,0,1.8.8,1.8,1.7s-.8,1.7-1.8,1.7-1.8-.8-1.8-1.7.8-1.7,1.8-1.7M1367.1,909.9c-1.2,0-2.2,1-2.2,2.2s1,2.2,2.2,2.2,2.2-1,2.2-2.2-1.1-2.2-2.2-2.2h0Z"/>
          </g>
        </g>
      </g>
    </g>
    <g>
      <circle class="cls-14" cx="1862.4" cy="609.9" r="15"/>
      <polygon class="cls-9" points="1870 607.1 1870 620.4 1868.1 622.3 1853.2 622.3 1855 620.7 1855 607.1 1851.8 607.1 1862.4 597.6 1872.8 607.1 1870 607.1"/>
      <g id="exit-15" data-name="exit">
        <g>
          <g>
            <path class="cls-14" d="M1865.4,620l-3.6-6.6c0,.8-.3,2.1-.4,2.7,0,.8-.9,1.1-1.3,1.1h-7.2l1.8-2.2h4.4l.3-4,1.7-3.2h-1.6c0,0-.2.3-.3.5l-1.2,1.9c-.2.3-.5.5-.8.5s-.4,0-.5-.2c-.5-.3-.6-.8-.3-1.3l1.2-1.9h0c.4-.5.7-.8.9-1,.4-.2.8-.2,1-.2h3c.3,0,.6,0,.8,0,1.5,0,2.2.5,2.4.8,0,0,.2.2.2.2l1.7,2.2h2.6c.5,0,1,.5,1,1s-.5,1-1,1h-3c-.3,0-.6-.2-.8-.4l-1.3-1.7-1.2,2.6,4.2,8.6-2.7-.3Z"/>
            <path class="cls-9" d="M1863.3,606.1c1.4,0,2,.5,2.3.8,0,0,.2,0,.2.2l1.7,2.3h2.6c.4,0,.8.3.8.8s-.3.8-.8.8h-3c-.2,0-.5,0-.6-.3l-1.5-2-1.4,3.1,4.1,8.4h-2.3c0,0-3.8-7.1-3.8-7.1,0,0-.4,2.5-.5,3.3,0,.9-1.1.9-1.1.9h-6.8l1.5-1.8h4.5l.3-4.2,1.8-3.5h-2c0,0-.3.3-.4.5l-1.2,1.9c-.2.2-.4.4-.6.4s-.3,0-.4-.2c-.4-.2-.5-.7-.2-1.1l1.2-1.9h0c.3-.5.6-.8.8-.9.3-.2.7-.2.9-.2h3.1c.2,0,.5,0,.7,0M1863.3,605.7v.4-.4c-.3,0-.5,0-.8,0h-3c-.3,0-.7,0-1.1.3-.3.2-.6.5-1,1.1h0c0,0-1.2,2-1.2,2-.3.5-.2,1.3.4,1.6.2.2.4.2.6.2.4,0,.8-.2,1-.5l1.2-1.9c0-.2.2-.2.2-.3h1.2l-1.5,2.9h0v.2l-.2,3.8h-4.4l-.2.2-1.5,1.8-.6.7h7.7s.3,0,.7-.2c.5-.2.8-.6.8-1.1,0-.5.2-1.4.3-2.1l3.2,6v.2h2.6c0,0,.7,0,.7,0l-.3-.6-4.1-8.2,1.1-2.3,1.1,1.4c.2.3.5.5.9.5h3c.6,0,1.1-.5,1.1-1.1s-.5-1.1-1.1-1.1h-2.4l-1.6-2.1c0,0-.2-.2-.2-.2-.2-.2-.5-.4-.8-.5-.4-.3-1-.4-1.7-.4h0Z"/>
          </g>
          <g>
            <path class="cls-14" d="M1864.6,606c-1.1,0-2-.9-2-2s.9-2,2-2,2,.9,2,2-.9,2-2,2Z"/>
            <path class="cls-9" d="M1864.6,602.2c1,0,1.8.8,1.8,1.7s-.8,1.7-1.8,1.7-1.8-.8-1.8-1.7.8-1.7,1.8-1.7M1864.6,601.9c-1.2,0-2.2,1-2.2,2.2s1,2.2,2.2,2.2,2.2-1,2.2-2.2-1.1-2.2-2.2-2.2h0Z"/>
          </g>
        </g>
      </g>
    </g>
    <g>
      <circle class="cls-14" cx="1861.5" cy="806.4" r="15"/>
      <polygon class="cls-9" points="1869.1 803.5 1869.1 816.9 1867.2 818.8 1852.4 818.8 1854.2 817.2 1854.2 803.6 1851 803.6 1861.5 794 1872 803.5 1869.1 803.5"/>
      <g id="exit-16" data-name="exit">
        <g>
          <g>
            <path class="cls-14" d="M1864.5,816.5l-3.6-6.6c0,.8-.3,2.1-.4,2.7,0,.8-.9,1.1-1.3,1.1h-7.2l1.8-2.2h4.4l.3-4,1.7-3.2h-1.6c0,0-.2.3-.3.5l-1.2,1.9c-.2.3-.5.5-.8.5s-.4,0-.5-.2c-.5-.3-.6-.8-.3-1.3l1.2-1.9h0c.4-.5.7-.8.9-1,.4-.2.8-.2,1-.2h3c.3,0,.6,0,.8,0,1.5,0,2.2.5,2.4.8,0,0,.2.2.2.2l1.7,2.2h2.6c.5,0,1,.5,1,1s-.5,1-1,1h-3c-.3,0-.6-.2-.8-.4l-1.3-1.7-1.2,2.6,4.2,8.6-2.7-.3Z"/>
            <path class="cls-9" d="M1862.4,802.6c1.4,0,2,.5,2.3.8,0,0,.2,0,.2.2l1.7,2.3h2.6c.4,0,.8.3.8.8s-.3.8-.8.8h-3c-.2,0-.5,0-.6-.3l-1.5-2-1.4,3.1,4.1,8.4h-2.3c0,0-3.8-7.1-3.8-7.1,0,0-.4,2.5-.5,3.3,0,.9-1.1.9-1.1.9h-6.8l1.5-1.8h4.5l.3-4.2,1.8-3.5h-2c0,0-.3.3-.4.5l-1.2,1.9c-.2.2-.4.4-.6.4s-.3,0-.4-.2c-.4-.2-.5-.7-.2-1.1l1.2-1.9h0c.3-.5.6-.8.8-.9.3-.2.7-.2.9-.2h3.1c.2,0,.5,0,.7,0M1862.4,802.2v.4-.4c-.3,0-.5,0-.8,0h-3c-.3,0-.7,0-1.1.3-.3.2-.6.5-1,1.1h0c0,0-1.2,2-1.2,2-.3.5-.2,1.3.4,1.6.2.2.4.2.6.2.4,0,.8-.2,1-.5l1.2-1.9c0-.2.2-.2.2-.3h1.2l-1.5,2.9h0v.2l-.2,3.8h-4.4l-.2.2-1.5,1.8-.6.7h7.7s.3,0,.7-.2c.5-.2.8-.6.8-1.1,0-.5.2-1.4.3-2.1l3.2,6v.2h2.6c0,0,.7,0,.7,0l-.3-.6-4.1-8.2,1.1-2.3,1.1,1.4c.2.3.5.5.9.5h3c.6,0,1.1-.5,1.1-1.1s-.5-1.1-1.1-1.1h-2.4l-1.6-2.1c0,0-.2-.2-.2-.2-.2-.2-.5-.4-.8-.5-.4-.3-1-.4-1.7-.4h0Z"/>
          </g>
          <g>
            <path class="cls-14" d="M1863.8,802.5c-1.1,0-2-.9-2-2s.9-2,2-2,2,.9,2,2-.9,2-2,2Z"/>
            <path class="cls-9" d="M1863.8,798.7c1,0,1.8.8,1.8,1.7s-.8,1.7-1.8,1.7-1.8-.8-1.8-1.7.8-1.7,1.8-1.7M1863.8,798.3c-1.2,0-2.2,1-2.2,2.2s1,2.2,2.2,2.2,2.2-1,2.2-2.2-1.1-2.2-2.2-2.2h0Z"/>
          </g>
        </g>
      </g>
    </g>
    <text class="cls-1" transform="translate(325.1 480)"><tspan x="0" y="0">GROUND F</tspan><tspan class="cls-19" x="102.1" y="0">L</tspan><tspan class="cls-17" x="112.6" y="0">OOR</tspan></text>
    <text class="cls-1" transform="translate(326 281.4)"><tspan x="0" y="0">MEZZANINE</tspan></text>
    <text class="cls-1" transform="translate(244.4 650.3)"><tspan x="0" y="0">M3</tspan></text>
    <text class="cls-1" transform="translate(244.4 720.4)"><tspan x="0" y="0">M2</tspan></text>
    <text class="cls-1" transform="translate(244.4 787.9)"><tspan x="0" y="0">M1</tspan></text>
    <text class="cls-1" transform="translate(19.4 873.6)"><tspan x="0" y="0">M0</tspan></text>
  </g>
</svg>