<?xml version="1.0" encoding="UTF-8"?>
<svg xmlns="http://www.w3.org/2000/svg" viewBox="0 0 1920 1080">
  <g id="base">
    <g id="walls">
      <g>
        <polygon points="324.86 498.66 522.14 498.66 522.14 582.67 324.86 583.96 324.86 498.66" fill="#d6d6d6" stroke-width="0"/>
        <path d="M518.25,502.55v76.25l-189.5,1.24v-77.49h189.5M526.03,494.77h-205.07v93.12l205.07-1.34v-91.78h0Z" fill="#fff" stroke-width="0"/>
      </g>
      <g>
        <rect x="529.93" y="498.66" width="86.25" height="83.99" fill="#d6d6d6" stroke-width="0"/>
        <path d="M612.28,502.55v76.2h-78.46v-76.2h78.46M620.07,494.77h-94.04v91.78h94.04v-91.78h0Z" fill="#fff" stroke-width="0"/>
      </g>
      <g>
        <rect x="939.15" y="553" width="44.46" height="29.78" fill="#d6d6d6" stroke-width="0"/>
        <path d="M979.72,556.9v21.99h-36.68v-21.99h36.68M987.51,549.11h-52.25v37.56h52.25v-37.56h0Z" fill="#fff" stroke-width="0"/>
      </g>
      <g>
        <rect x="878.19" y="541.53" width="53.17" height="41.25" fill="#d6d6d6" stroke-width="0"/>
        <path d="M927.47,545.43v33.46h-45.39v-33.46h45.39M935.26,537.64h-60.96v49.04h60.96v-49.04h0Z" fill="#fff" stroke-width="0"/>
      </g>
      <g>
        <polygon points="623.96 545.22 623.96 498.66 762.55 498.66 762.55 533.75 701.59 533.75 701.59 545.22 623.96 545.22" fill="#d6d6d6" stroke-width="0"/>
        <path d="M758.66,502.55v27.3h-60.96v11.47h-69.84v-38.77h130.8M766.44,494.77h-146.37v54.35h85.41v-11.47h60.96v-42.87h0Z" fill="#fff" stroke-width="0"/>
      </g>
      <g>
        <polygon points="770.34 582.67 770.34 556.25 817.48 556.25 817.48 582.88 770.34 582.67" fill="#d6d6d6" stroke-width="0"/>
        <path d="M813.59,560.14v18.82l-39.36-.18v-18.65h39.36M821.37,552.36h-54.93v34.19l54.93.25v-34.43h0Z" fill="#fff" stroke-width="0"/>
      </g>
      <rect x="839.46" y="537.64" width="34.42" height="20.77" fill="#d6d6d6" stroke="#fff" stroke-miterlimit="10" stroke-width="7.79"/>
      <rect x="839.46" y="558.41" width="34.42" height="14.74" fill="#d6d6d6" stroke="#fff" stroke-miterlimit="10" stroke-width="7.79"/>
      <rect x="839.46" y="573.14" width="34.83" height="13.6" fill="#d6d6d6" stroke="#fff" stroke-miterlimit="10" stroke-width="7.79"/>
      <g>
        <polygon points="324.86 819.12 324.86 591.77 1845.77 590.44 1845.77 819.12 324.86 819.12" fill="#f5f9dc" stroke-width="0"/>
        <path d="M1841.87,594.34v220.89H328.75v-219.56l1513.12-1.33M1849.66,586.54l-1528.7,1.34v235.13h1528.7v-236.47h0Z" fill="#fff" stroke-width="0"/>
      </g>
      <g>
        <polygon points="87.71 906.88 87.71 826.91 1407.66 827.91 1407.66 906.88 87.71 906.88" fill="#d1d8e5" stroke-width="0"/>
        <path d="M91.61,830.81l1312.15.99v71.18H91.61v-72.18M83.82,823.01v87.76h1327.73v-86.75l-1327.73-1h0Z" fill="#fff" stroke-width="0"/>
      </g>
      <polygon points="705.48 551.71 705.48 561 663.95 561 663.95 572.17 705.48 572.17 705.57 561.84 732.95 561 732.95 552.36 766.44 552.36 766.44 586.54 621.75 586.54 621.75 551.71 705.48 551.71" fill="#d6d6d6" stroke="#fff" stroke-miterlimit="10" stroke-width="5.19"/>
      <rect x="705.48" y="537.64" width="26.8" height="14.72" fill="#d6d6d6" stroke="#fff" stroke-miterlimit="10" stroke-width="5.19"/>
      <path d="M663.95,561v11.17h41.53v-11.17s-42.75-1.21-41.53,0Z" fill="#d6d6d6" stroke="#fff" stroke-miterlimit="10" stroke-width="7.79"/>
      <rect x="705.48" y="552.36" width="27.47" height="8.65" fill="#d6d6d6" stroke="#fff" stroke-miterlimit="10" stroke-width="5.19"/>
      <g>
        <rect x="325.61" y="299.27" width="196.53" height="83.32" fill="#d6d6d6" stroke-width="0"/>
        <path d="M518.25,303.17v75.53h-188.74v-75.53h188.74M526.03,295.38h-204.32v91.11h204.32v-91.11h0Z" fill="#fff" stroke-width="0"/>
      </g>
      <g>
        <rect x="529.93" y="299.27" width="61.88" height="83.32" fill="#d6d6d6" stroke-width="0"/>
        <path d="M587.92,303.17v75.53h-54.09v-75.53h54.09M595.7,295.38h-69.67v91.11h69.67v-91.11h0Z" fill="#fff" stroke-width="0"/>
      </g>
      <g>
        <rect x="599.6" y="299.27" width="163.71" height="83.32" fill="#d6d6d6" stroke-width="0"/>
        <path d="M759.41,303.17v75.53h-155.92v-75.53h155.92M767.2,295.38h-171.49v91.11h171.49v-91.11h0Z" fill="#fff" stroke-width="0"/>
      </g>
      <rect x="874.84" y="337.58" width="61.17" height="48.9" fill="#d6d6d6" stroke="#fff" stroke-miterlimit="10" stroke-width="7.79"/>
      <rect x="842.06" y="337.58" width="32.78" height="22.69" fill="#d6d6d6" stroke="#fff" stroke-miterlimit="10" stroke-width="7.79"/>
      <rect x="842.06" y="360.28" width="32.78" height="26.21" fill="#d6d6d6" stroke="#fff" stroke-miterlimit="10" stroke-width="7.79"/>
      <polygon points="821.37 350.98 821.37 386.49 842.06 386.49 842.22 350.98 821.37 350.98" fill="#d6d6d6" stroke="#fff" stroke-miterlimit="10" stroke-width="7.79"/>
      <polygon points="793.91 360.28 793.91 386.49 821.37 386.49 821.12 360.11 793.91 360.28" fill="#d6d6d6" stroke="#fff" stroke-miterlimit="10" stroke-width="7.79"/>
      <polygon points="768.12 360.19 768.12 386.4 793.91 386.49 793.91 360.28 768.12 360.19" fill="#d6d6d6" stroke="#fff" stroke-miterlimit="10" stroke-width="7.79"/>
      <polygon points="821.37 337.58 821.37 350.98 842.22 350.98 842.06 337.58 821.37 337.58" fill="#d6d6d6" stroke="#fff" stroke-miterlimit="10" stroke-width="7.79"/>
      <polyline points="926.46 537.64 935.26 537.64 935.26 586.54 320.96 587.88" fill="none" stroke="#000" stroke-miterlimit="10" stroke-width="2.6"/>
      <line x1="835.11" y1="537.64" x2="914.57" y2="537.64" fill="none" stroke="#000" stroke-miterlimit="10" stroke-width="2.6"/>
      <polyline points="736.8 494.77 766.44 494.77 766.44 537.64 827.74 537.64" fill="none" stroke="#000" stroke-miterlimit="10" stroke-width="2.6"/>
      <line x1="711.43" y1="494.77" x2="724.91" y2="494.77" fill="none" stroke="#000" stroke-miterlimit="10" stroke-width="2.6"/>
      <line x1="688.65" y1="494.77" x2="703.39" y2="494.77" fill="none" stroke="#000" stroke-miterlimit="10" stroke-width="2.6"/>
      <line x1="656.16" y1="494.77" x2="680.03" y2="494.77" fill="none" stroke="#000" stroke-miterlimit="10" stroke-width="2.6"/>
      <line x1="591.68" y1="494.77" x2="648.46" y2="494.77" fill="none" stroke="#000" stroke-miterlimit="10" stroke-width="2.6"/>
      <polyline points="320.96 507.83 320.96 494.77 581.55 494.77" fill="none" stroke="#000" stroke-miterlimit="10" stroke-width="2.6"/>
      <line x1="320.96" y1="532.95" x2="320.96" y2="518.88" fill="none" stroke="#000" stroke-miterlimit="10" stroke-width="2.6"/>
      <line x1="320.96" y1="593.24" x2="320.96" y2="562.43" fill="none" stroke="#000" stroke-miterlimit="10" stroke-width="2.6"/>
      <line x1="320.96" y1="625.4" x2="320.96" y2="602.79" fill="none" stroke="#000" stroke-miterlimit="10" stroke-width="2.6"/>
      <line x1="320.96" y1="697.74" x2="320.96" y2="661.57" fill="none" stroke="#000" stroke-miterlimit="10" stroke-width="2.6"/>
      <line x1="320.96" y1="763.39" x2="320.96" y2="732.58" fill="none" stroke="#000" stroke-miterlimit="10" stroke-width="2.6"/>
      <line x1="320.96" y1="823.01" x2="320.96" y2="798.9" fill="none" stroke="#000" stroke-miterlimit="10" stroke-width="2.6"/>
      <line x1="621.75" y1="587.55" x2="621.75" y2="494.77" fill="none" stroke="#000" stroke-miterlimit="10" stroke-width="1.3"/>
      <line x1="621.75" y1="551.71" x2="821.37" y2="551.71" fill="none" stroke="#000" stroke-miterlimit="10" stroke-width="1.3"/>
      <line x1="821.37" y1="537.64" x2="821.37" y2="586.79" fill="none" stroke="#000" stroke-miterlimit="10" stroke-width="1.3"/>
      <line x1="766.44" y1="586.79" x2="766.44" y2="552.36" fill="none" stroke="#000" stroke-miterlimit="10" stroke-width="1.3"/>
      <line x1="839.46" y1="537.64" x2="839.46" y2="586.74" fill="none" stroke="#000" stroke-miterlimit="10" stroke-width="1.3"/>
      <line x1="874.3" y1="537.64" x2="874.3" y2="586.67" fill="none" stroke="#000" stroke-miterlimit="10" stroke-width="1.3"/>
      <line x1="839.46" y1="558.41" x2="874.3" y2="558.41" fill="none" stroke="#000" stroke-miterlimit="10" stroke-width="1.3"/>
      <line x1="839.46" y1="573.14" x2="874.3" y2="573.14" fill="none" stroke="#000" stroke-miterlimit="10" stroke-width="1.3"/>
      <line x1="958.79" y1="549.11" x2="935.26" y2="549.11" fill="none" stroke="#000" stroke-miterlimit="10" stroke-width="2.6"/>
      <polyline points="987.51 586.67 987.51 549.11 969.09 549.11" fill="none" stroke="#000" stroke-miterlimit="10" stroke-width="2.6"/>
      <polyline points="732.95 537.64 732.95 561 663.95 561 663.95 572.17 705.48 572.17 705.48 537.64 766.44 537.64" fill="none" stroke="#000" stroke-miterlimit="10" stroke-width="1.3"/>
      <line x1="1411.55" y1="849.14" x2="1411.55" y2="823.01" fill="none" stroke="#000" stroke-miterlimit="10" stroke-width="2.6"/>
      <polyline points="83.82 879.95 83.82 910.77 814.01 910.77 839.46 910.77 1348.58 910.77 1368.68 910.77 1411.55 910.77 1411.55 879.95" fill="none" stroke="#000" stroke-miterlimit="10" stroke-width="2.6"/>
      <polyline points="1849.66 798.9 1849.66 823.01 83.82 823.01 83.82 849.14" fill="none" stroke="#000" stroke-miterlimit="10" stroke-width="2.6"/>
      <line x1="1849.66" y1="732.58" x2="1849.66" y2="763.39" fill="none" stroke="#000" stroke-miterlimit="10" stroke-width="2.6"/>
      <line x1="1849.66" y1="661.57" x2="1849.66" y2="697.74" fill="none" stroke="#000" stroke-miterlimit="10" stroke-width="2.6"/>
      <polyline points="935.26 586.54 1422.27 586.54 1445.04 586.54 1849.66 586.54 1849.66 625.4" fill="none" stroke="#000" stroke-miterlimit="10" stroke-width="2.6"/>
      <line x1="283.45" y1="637.37" x2="1889.85" y2="637.37" fill="none" stroke="#000" stroke-miterlimit="10" stroke-width="1.3"/>
      <line x1="283.45" y1="650.35" x2="1889.85" y2="650.35" fill="none" stroke="#000" stroke-miterlimit="10" stroke-width="1.3"/>
      <line x1="283.45" y1="707.46" x2="1889.85" y2="707.46" fill="none" stroke="#000" stroke-miterlimit="10" stroke-width="1.3"/>
      <line x1="283.45" y1="720.44" x2="1889.85" y2="720.44" fill="none" stroke="#000" stroke-miterlimit="10" stroke-width="1.3"/>
      <line x1="283.45" y1="774.95" x2="1889.85" y2="774.95" fill="none" stroke="#000" stroke-miterlimit="10" stroke-width="1.3"/>
      <line x1="283.45" y1="787.93" x2="1889.85" y2="787.93" fill="none" stroke="#000" stroke-miterlimit="10" stroke-width="1.3"/>
      <line x1="55.02" y1="860.61" x2="1796.65" y2="860.61" fill="none" stroke="#000" stroke-miterlimit="10" stroke-width="1.3"/>
      <line x1="55.02" y1="873.59" x2="1796.65" y2="873.59" fill="none" stroke="#000" stroke-miterlimit="10" stroke-width="1.3"/>
      <polyline points="885.1 337.58 854.28 337.58 843.56 337.58 836.87 337.58 827.49 337.58 800.69 337.58 793.32 337.58 767.2 337.58 767.2 332.22 767.2 322.18 767.2 295.38 755.81 295.38 747.1 295.38 734.2 295.38 722.31 295.38 708.83 295.38 700.79 295.38 686.06 295.38 677.43 295.38 653.57 295.38 645.86 295.38 321.72 295.38 321.72 386.49 936.01 386.49 936.01 366.39" fill="none" stroke="#000" stroke-miterlimit="10" stroke-width="2.6"/>
      <polyline points="936.01 357.68 936.01 337.58 899.67 337.58" fill="none" stroke="#000" stroke-miterlimit="10" stroke-width="2.6"/>
      <line x1="526.03" y1="295.38" x2="526.03" y2="386.49" fill="none" stroke="#000" stroke-miterlimit="10" stroke-width="1.3"/>
      <line x1="595.7" y1="295.38" x2="595.7" y2="386.49" fill="none" stroke="#000" stroke-miterlimit="10" stroke-width="1.3"/>
      <line x1="767.2" y1="337.58" x2="767.2" y2="386.49" fill="none" stroke="#000" stroke-miterlimit="10" stroke-width="2.6"/>
      <line x1="874.84" y1="386.49" x2="874.84" y2="337.58" fill="none" stroke="#000" stroke-miterlimit="10" stroke-width="1.3"/>
      <line x1="842.06" y1="386.49" x2="842.06" y2="337.58" fill="none" stroke="#000" stroke-miterlimit="10" stroke-width="1.3"/>
      <line x1="821.37" y1="386.49" x2="821.37" y2="337.58" fill="none" stroke="#000" stroke-miterlimit="10" stroke-width="1.3"/>
      <line x1="766.44" y1="350.98" x2="842.06" y2="350.98" fill="none" stroke="#000" stroke-miterlimit="10" stroke-width="1.3"/>
      <line x1="766.44" y1="360.28" x2="821.37" y2="360.28" fill="none" stroke="#000" stroke-miterlimit="10" stroke-width="1.3"/>
      <line x1="793.91" y1="386.49" x2="793.91" y2="360.28" fill="none" stroke="#000" stroke-miterlimit="10" stroke-width="1.3"/>
      <line x1="842.06" y1="360.28" x2="874.3" y2="360.28" fill="none" stroke="#000" stroke-miterlimit="10" stroke-width="1.3"/>
      <polygon points="320.96 494.77 320.96 587.88 524.61 587.55 524.61 494.77 320.96 494.77" fill="none" stroke="#000" stroke-miterlimit="10" stroke-width="1.3"/>
      <polyline points="874.5 537.04 848.45 537.04 848.45 519.2 874.5 519.2" fill="none" stroke="#000" stroke-miterlimit="10" stroke-width="1.3"/>
      <line x1="867.16" y1="519.2" x2="867.16" y2="537.42" fill="none" stroke="#000" stroke-miterlimit="10" stroke-width="1.3"/>
      <line x1="862.41" y1="519.2" x2="862.41" y2="537.42" fill="none" stroke="#000" stroke-miterlimit="10" stroke-width="1.3"/>
      <line x1="857.67" y1="519.2" x2="857.67" y2="537.42" fill="none" stroke="#000" stroke-miterlimit="10" stroke-width="1.3"/>
      <line x1="852.93" y1="519.2" x2="852.93" y2="537.42" fill="none" stroke="#000" stroke-miterlimit="10" stroke-width="1.3"/>
      <line x1="871.9" y1="518.86" x2="871.9" y2="537.08" fill="none" stroke="#000" stroke-miterlimit="10" stroke-width="1.3"/>
    </g>
  </g>
  <g id="nopointer">
    <g id="icons">
      <rect x="1233.77" y="172.76" width="441.45" height="142.67" fill="#fff" stroke="#000" stroke-miterlimit="10" stroke-width="2"/>
      <circle cx="1277.6" cy="208.91" r="19.9" fill="#008246" stroke-width="0"/>
      <polygon points="1287.7 205.11 1287.7 222.81 1285.2 225.31 1265.5 225.31 1267.9 223.21 1267.9 205.21 1263.6 205.21 1277.6 192.51 1291.5 205.11 1287.7 205.11" fill="#fff" stroke-width="0"/>
      <path d="M1281.6,222.31l-4.8-8.8c-.1,1-.4,2.8-.5,3.6-.1,1.1-1.2,1.4-1.7,1.5h-9.6l2.4-2.9h5.8l.4-5.3,2.3-4.2h-2.1c-.1.1-.3.4-.4.6l-1.6,2.5c-.2.4-.6.6-1.1.6-.2,0-.5-.1-.7-.2-.6-.4-.8-1.1-.4-1.7l1.6-2.5h0c.5-.7.9-1.1,1.2-1.3.5-.3,1-.3,1.3-.3h4c.4,0,.8-.1,1.1-.1,2,0,2.9.6,3.2,1,.1.1.2.2.3.3l2.2,2.9h3.4c.7,0,1.3.6,1.3,1.3s-.6,1.3-1.3,1.3h-4c-.4,0-.8-.2-1-.5l-1.7-2.3-1.6,3.5,5.6,11.4-3.6-.4Z" fill="#008246" stroke-width="0"/>
      <path d="M1278.8,203.81c1.9,0,2.7.6,3,1,.1.1.2.1.3.2l2.3,3h3.5c.5,0,1,.4,1,1s-.4,1-1,1h-4c-.3,0-.6-.1-.8-.4l-2-2.6-1.9,4.1,5.5,11.1-3-.1-5.1-9.3s-.5,3.3-.6,4.4c-.1,1.2-1.5,1.2-1.5,1.2h-9l2-2.4h6l.4-5.6,2.4-4.6h-2.7c-.1.1-.4.4-.5.7l-1.6,2.5c-.2.3-.5.5-.8.5-.2,0-.4-.1-.5-.2-.5-.3-.6-.9-.3-1.4l1.6-2.5h0c.4-.7.8-1.1,1.1-1.2.4-.3.9-.3,1.2-.3h4.1c.2-.1.6-.1.9-.1M1278.8,203.31v.5-.5c-.4,0-.7,0-1.1.1h-4c-.4,0-.9.1-1.4.4-.4.2-.8.7-1.3,1.4v.1l-1.6,2.5c-.4.7-.2,1.7.5,2.1.2.2.5.2.8.2.5,0,1-.3,1.3-.7l1.6-2.5c.1-.2.2-.3.3-.4h1.6l-2,3.8-.1.1v.1l-.3,5h-5.8l-.2.2-2,2.4-.8.9h10.2s.4,0,.9-.2c.6-.3,1-.8,1.1-1.5.1-.6.3-1.8.4-2.8l4.3,7.9.1.3h.3l3,.1h.9l-.4-.8-5.4-10.9,1.4-3,1.4,1.9c.3.4.7.6,1.2.6h4c.8,0,1.5-.7,1.5-1.5s-.7-1.5-1.5-1.5h-3.2l-2.1-2.8c-.1-.1-.2-.2-.3-.3-.3-.3-.6-.5-1.1-.7-.5-.4-1.3-.5-2.2-.5h0Z" fill="#fff" stroke-width="0"/>
      <path d="M1280.6,203.71c-1.4,0-2.6-1.2-2.6-2.6s1.2-2.6,2.6-2.6,2.6,1.2,2.6,2.6-1.2,2.6-2.6,2.6Z" fill="#008246" stroke-width="0"/>
      <path d="M1280.6,198.71c1.3,0,2.4,1.1,2.4,2.3s-1.1,2.3-2.4,2.3-2.4-1.1-2.4-2.3,1.1-2.3,2.4-2.3M1280.6,198.21c-1.6,0-2.9,1.3-2.9,2.9s1.3,2.9,2.9,2.9,2.9-1.3,2.9-2.9-1.4-2.9-2.9-2.9h0Z" fill="#fff" stroke-width="0"/>
      <path d="M1277.6,286.1c-11.7,0-21.2-9.5-21.2-21.2s9.5-21.2,21.2-21.2,21.2,9.5,21.2,21.2-9.5,21.2-21.2,21.2Z" fill="#008246" stroke-width="0"/>
      <path d="M1277.6,245.1c11,0,19.9,8.9,19.9,19.9s-8.9,19.9-19.9,19.9-19.9-8.9-19.9-19.9,8.9-19.9,19.9-19.9M1277.6,242.6c-12.4,0-22.4,10.1-22.4,22.4s10.1,22.4,22.4,22.4,22.4-10.1,22.4-22.4-10.1-22.4-22.4-22.4h0Z" fill="#fff" stroke-width="0"/>
      <polygon points="1290.8 261.3 1281.3 261.3 1281.3 251.8 1274 251.8 1274 261.3 1264.4 261.3 1264.4 268.7 1274 268.7 1274 278.2 1281.3 278.2 1281.3 268.7 1290.8 268.7 1290.8 261.3" fill="#fff" stroke-width="0"/>
      <path d="M1503.26,231.62c-11.7,0-21.2-9.5-21.2-21.2s9.5-21.2,21.2-21.2,21.2,9.5,21.2,21.2-9.5,21.2-21.2,21.2Z" fill="red" stroke-width="0"/>
      <path d="M1503.26,190.52c11,0,19.9,8.9,19.9,19.9s-8.9,19.9-19.9,19.9-19.9-8.9-19.9-19.9,8.9-19.9,19.9-19.9M1503.26,188.02c-12.4,0-22.4,10.1-22.4,22.4s10.1,22.4,22.4,22.4,22.4-10.1,22.4-22.4-10.1-22.4-22.4-22.4h0Z" fill="#fff" stroke-width="0"/>
      <path d="M1514.46,202.22v-4.5l-6.7.8v.8h-3.5v-1.7h-.9s0-.4-.3-.8c-.8-1.2-2.6-1.3-3.4-.4-1.6,1.6,0,3.3,0,3.3-1.6.7-2.9,1.9-3.4,3-.6,1.5.9,1.7,1.3,1.1,1.9-2.9,3.9-2.8,3.9-2.8v.7c-3.3,1.1-3.1,4.1-3.1,4.1v18.6c0,1,1,.9,1,.9h6.8c1,0,1.1-.8,1.1-1.4v-18.2c0-3-3-4.1-3-4.1v-1h3.5v.8l6.7.8ZM1501.16,198.82c-.5,0-.9-.4-.9-.9s.4-.9.9-.9.9.4.9.9-.3.9-.9.9Z" fill="#fff" stroke-width="0"/>
      <circle cx="1503.26" cy="268.78" r="19.9" fill="#003e87" stroke-width="0"/>
      <path d="M1508.06,271.38c0,.5-.4.9-.9.9s-.9-.4-.9-.9v-6h0c0-1.3,1.1-2.4,2.4-2.4h4.3c1.3,0,2.4,1.1,2.4,2.4h0v6c0,.5-.4.9-.9.9s-.9-.4-.9-.9v-5.5h-.5v14.9c0,.6-.5,1.1-1.1,1.1s-1.1-.5-1.1-1.1v-8.6h-.2v8.6c0,.6-.5,1.1-1.1,1.1s-1.1-.5-1.1-1.1v-14.9h-.5l.1,5.5h0Z" fill="#fefefe" stroke-width="0"/>
      <circle cx="1510.86" cy="260.58" r="2" fill="#fefefe" stroke-width="0"/>
      <path d="M1491.26,270.58c-.1.4-.6.7-1,.5-.4-.1-.7-.6-.6-1l1.6-5.6c.3-1,1.3-1.8,2.3-1.8h2.8c1.1,0,2,.7,2.3,1.8l1.6,5.6c.1.4-.1.9-.6,1-.4.1-.9-.1-1-.5l-1.5-5.2h-.5l2.6,8.9h-2.4v6.6c0,.5-.4.9-.9.9s-.9-.4-.9-.9v-6.6h-.4v6.6c0,.5-.4.9-.9.9s-.9-.4-.9-.9v-6.6h-2.2l2.6-8.9h-.5l-1.5,5.2h0Z" fill="#fefefe" stroke-width="0"/>
      <circle cx="1495.06" cy="260.48" r="2" fill="#fefefe" stroke-width="0"/>
      <line x1="1503.26" y1="252.28" x2="1503.26" y2="284.88" fill="none" stroke="#fefefe" stroke-miterlimit="10" stroke-width=".8"/>
      <circle cx="673.2" cy="483.98" r="15" fill="#008246" stroke-width="0"/>
      <polygon points="680.82 481.11 680.82 494.46 678.93 496.34 664.08 496.34 665.89 494.76 665.89 481.19 662.65 481.19 673.2 471.62 683.68 481.11 680.82 481.11" fill="#fff" stroke-width="0"/>
      <path d="M676.22,494.08l-3.62-6.63c-.08.75-.3,2.11-.38,2.71-.08.83-.9,1.06-1.28,1.13h-7.24l1.81-2.19h4.37l.3-3.99,1.73-3.17h-1.58c-.08.08-.23.3-.3.45l-1.21,1.88c-.15.3-.45.45-.83.45-.15,0-.38-.08-.53-.15-.45-.3-.6-.83-.3-1.28l1.21-1.88h0c.38-.53.68-.83.9-.98.38-.23.75-.23.98-.23h3.02c.3,0,.6-.08.83-.08,1.51,0,2.19.45,2.41.75.08.08.15.15.23.23l1.66,2.19h2.56c.53,0,.98.45.98.98s-.45.98-.98.98h-3.02c-.3,0-.6-.15-.75-.38l-1.28-1.73-1.21,2.64,4.22,8.59-2.71-.3Z" fill="#008246" stroke-width="0"/>
      <path d="M674.11,480.13c1.43,0,2.04.45,2.26.75.08.08.15.08.23.15l1.73,2.26h2.64c.38,0,.75.3.75.75s-.3.75-.75.75h-3.02c-.23,0-.45-.08-.6-.3l-1.51-1.96-1.43,3.09,4.15,8.37-2.26-.08-3.84-7.01s-.38,2.49-.45,3.32c-.08.9-1.13.9-1.13.9h-6.78l1.51-1.81h4.52l.3-4.22,1.81-3.47h-2.04c-.08.08-.3.3-.38.53l-1.21,1.88c-.15.23-.38.38-.6.38-.15,0-.3-.08-.38-.15-.38-.23-.45-.68-.23-1.06l1.21-1.88h0c.3-.53.6-.83.83-.9.3-.23.68-.23.9-.23h3.09c.15-.08.45-.08.68-.08M674.11,479.76v.38-.38c-.3,0-.53,0-.83.08h-3.02c-.3,0-.68.08-1.06.3-.3.15-.6.53-.98,1.06v.08l-1.21,1.88c-.3.53-.15,1.28.38,1.58.15.15.38.15.6.15.38,0,.75-.23.98-.53l1.21-1.88c.08-.15.15-.23.23-.3h1.21l-1.51,2.86-.08.08v.08l-.23,3.77h-4.37l-.15.15-1.51,1.81-.6.68h7.69s.3,0,.68-.15c.45-.23.75-.6.83-1.13.08-.45.23-1.36.3-2.11l3.24,5.95.08.23h.23l2.26.08h.68l-.3-.6-4.07-8.22,1.06-2.26,1.06,1.43c.23.3.53.45.9.45h3.02c.6,0,1.13-.53,1.13-1.13s-.53-1.13-1.13-1.13h-2.41l-1.58-2.11c-.08-.08-.15-.15-.23-.23-.23-.23-.45-.38-.83-.53-.38-.3-.98-.38-1.66-.38h0Z" fill="#fff" stroke-width="0"/>
      <path d="M675.46,480.06c-1.06,0-1.96-.9-1.96-1.96s.9-1.96,1.96-1.96,1.96.9,1.96,1.96-.9,1.96-1.96,1.96Z" fill="#008246" stroke-width="0"/>
      <path d="M675.46,476.29c.98,0,1.81.83,1.81,1.73s-.83,1.73-1.81,1.73-1.81-.83-1.81-1.73.83-1.73,1.81-1.73M675.46,475.91c-1.21,0-2.19.98-2.19,2.19s.98,2.19,2.19,2.19,2.19-.98,2.19-2.19-1.06-2.19-2.19-2.19h0Z" fill="#fff" stroke-width="0"/>
      <circle cx="588.96" cy="483.98" r="15" fill="#008246" stroke-width="0"/>
      <polygon points="596.57 481.11 596.57 494.46 594.69 496.34 579.84 496.34 581.65 494.76 581.65 481.19 578.4 481.19 588.96 471.62 599.43 481.11 596.57 481.11" fill="#fff" stroke-width="0"/>
      <path d="M591.97,494.08l-3.62-6.63c-.08.75-.3,2.11-.38,2.71-.08.83-.9,1.06-1.28,1.13h-7.24l1.81-2.19h4.37l.3-3.99,1.73-3.17h-1.58c-.08.08-.23.3-.3.45l-1.21,1.88c-.15.3-.45.45-.83.45-.15,0-.38-.08-.53-.15-.45-.3-.6-.83-.3-1.28l1.21-1.88h0c.38-.53.68-.83.9-.98.38-.23.75-.23.98-.23h3.02c.3,0,.6-.08.83-.08,1.51,0,2.19.45,2.41.75.08.08.15.15.23.23l1.66,2.19h2.56c.53,0,.98.45.98.98s-.45.98-.98.98h-3.02c-.3,0-.6-.15-.75-.38l-1.28-1.73-1.21,2.64,4.22,8.59-2.71-.3Z" fill="#008246" stroke-width="0"/>
      <path d="M589.86,480.13c1.43,0,2.04.45,2.26.75.08.08.15.08.23.15l1.73,2.26h2.64c.38,0,.75.3.75.75s-.3.75-.75.75h-3.02c-.23,0-.45-.08-.6-.3l-1.51-1.96-1.43,3.09,4.15,8.37-2.26-.08-3.84-7.01s-.38,2.49-.45,3.32c-.08.9-1.13.9-1.13.9h-6.78l1.51-1.81h4.52l.3-4.22,1.81-3.47h-2.04c-.08.08-.3.3-.38.53l-1.21,1.88c-.15.23-.38.38-.6.38-.15,0-.3-.08-.38-.15-.38-.23-.45-.68-.23-1.06l1.21-1.88h0c.3-.53.6-.83.83-.9.3-.23.68-.23.9-.23h3.09c.15-.08.45-.08.68-.08M589.86,479.76v.38-.38c-.3,0-.53,0-.83.08h-3.02c-.3,0-.68.08-1.06.3-.3.15-.6.53-.98,1.06v.08l-1.21,1.88c-.3.53-.15,1.28.38,1.58.15.15.38.15.6.15.38,0,.75-.23.98-.53l1.21-1.88c.08-.15.15-.23.23-.3h1.21l-1.51,2.86-.08.08v.08l-.23,3.77h-4.37l-.15.15-1.51,1.81-.6.68h7.69s.3,0,.68-.15c.45-.23.75-.6.83-1.13.08-.45.23-1.36.3-2.11l3.24,5.95.08.23h.23l2.26.08h.68l-.3-.6-4.07-8.22,1.06-2.26,1.06,1.43c.23.3.53.45.9.45h3.02c.6,0,1.13-.53,1.13-1.13s-.53-1.13-1.13-1.13h-2.41l-1.58-2.11c-.08-.08-.15-.15-.23-.23-.23-.23-.45-.38-.83-.53-.38-.3-.98-.38-1.66-.38h0Z" fill="#fff" stroke-width="0"/>
      <path d="M591.22,480.06c-1.06,0-1.96-.9-1.96-1.96s.9-1.96,1.96-1.96,1.96.9,1.96,1.96-.9,1.96-1.96,1.96Z" fill="#008246" stroke-width="0"/>
      <path d="M591.22,476.29c.98,0,1.81.83,1.81,1.73s-.83,1.73-1.81,1.73-1.81-.83-1.81-1.73.83-1.73,1.81-1.73M591.22,475.91c-1.21,0-2.19.98-2.19,2.19s.98,2.19,2.19,2.19,2.19-.98,2.19-2.19-1.06-2.19-2.19-2.19h0Z" fill="#fff" stroke-width="0"/>
      <circle cx="309.16" cy="522.04" r="15" fill="#008246" stroke-width="0"/>
      <polygon points="316.78 519.17 316.78 532.52 314.89 534.4 300.04 534.4 301.85 532.82 301.85 519.25 298.61 519.25 309.16 509.68 319.64 519.17 316.78 519.17" fill="#fff" stroke-width="0"/>
      <path d="M312.18,532.14l-3.62-6.63c-.08.75-.3,2.11-.38,2.71-.08.83-.9,1.06-1.28,1.13h-7.24l1.81-2.19h4.37l.3-3.99,1.73-3.17h-1.58c-.08.08-.23.3-.3.45l-1.21,1.88c-.15.3-.45.45-.83.45-.15,0-.38-.08-.53-.15-.45-.3-.6-.83-.3-1.28l1.21-1.88h0c.38-.53.68-.83.9-.98.38-.23.75-.23.98-.23h3.02c.3,0,.6-.08.83-.08,1.51,0,2.19.45,2.41.75.08.08.15.15.23.23l1.66,2.19h2.56c.53,0,.98.45.98.98s-.45.98-.98.98h-3.02c-.3,0-.6-.15-.75-.38l-1.28-1.73-1.21,2.64,4.22,8.59-2.71-.3Z" fill="#008246" stroke-width="0"/>
      <path d="M310.07,518.19c1.43,0,2.04.45,2.26.75.08.08.15.08.23.15l1.73,2.26h2.64c.38,0,.75.3.75.75s-.3.75-.75.75h-3.02c-.23,0-.45-.08-.6-.3l-1.51-1.96-1.43,3.09,4.15,8.37-2.26-.08-3.84-7.01s-.38,2.49-.45,3.32c-.08.9-1.13.9-1.13.9h-6.78l1.51-1.81h4.52l.3-4.22,1.81-3.47h-2.04c-.08.08-.3.3-.38.53l-1.21,1.88c-.15.23-.38.38-.6.38-.15,0-.3-.08-.38-.15-.38-.23-.45-.68-.23-1.06l1.21-1.88h0c.3-.53.6-.83.83-.9.3-.23.68-.23.9-.23h3.09c.15-.08.45-.08.68-.08M310.07,517.82v.38-.38c-.3,0-.53,0-.83.08h-3.02c-.3,0-.68.08-1.06.3-.3.15-.6.53-.98,1.06v.08l-1.21,1.88c-.3.53-.15,1.28.38,1.58.15.15.38.15.6.15.38,0,.75-.23.98-.53l1.21-1.88c.08-.15.15-.23.23-.3h1.21l-1.51,2.86-.08.08v.08l-.23,3.77h-4.37l-.15.15-1.51,1.81-.6.68h7.69s.3,0,.68-.15c.45-.23.75-.6.83-1.13.08-.45.23-1.36.3-2.11l3.24,5.95.08.23h.23l2.26.08h.68l-.3-.6-4.07-8.22,1.06-2.26,1.06,1.43c.23.3.53.45.9.45h3.02c.6,0,1.13-.53,1.13-1.13s-.53-1.13-1.13-1.13h-2.41l-1.58-2.11c-.08-.08-.15-.15-.23-.23-.23-.23-.45-.38-.83-.53-.38-.3-.98-.38-1.66-.38h0Z" fill="#fff" stroke-width="0"/>
      <path d="M311.42,518.12c-1.06,0-1.96-.9-1.96-1.96s.9-1.96,1.96-1.96,1.96.9,1.96,1.96-.9,1.96-1.96,1.96Z" fill="#008246" stroke-width="0"/>
      <path d="M311.42,514.35c.98,0,1.81.83,1.81,1.73s-.83,1.73-1.81,1.73-1.81-.83-1.81-1.73.83-1.73,1.81-1.73M311.42,513.97c-1.21,0-2.19.98-2.19,2.19s.98,2.19,2.19,2.19,2.19-.98,2.19-2.19-1.06-2.19-2.19-2.19h0Z" fill="#fff" stroke-width="0"/>
      <circle cx="308.31" cy="606.83" r="15" fill="#008246" stroke-width="0"/>
      <polygon points="315.93 603.97 315.93 617.31 314.04 619.2 299.19 619.2 301 617.61 301 604.05 297.76 604.05 308.31 594.47 318.79 603.97 315.93 603.97" fill="#fff" stroke-width="0"/>
      <path d="M311.33,616.94l-3.62-6.63c-.08.75-.3,2.11-.38,2.71-.08.83-.9,1.06-1.28,1.13h-7.24l1.81-2.19h4.37l.3-3.99,1.73-3.17h-1.58c-.08.08-.23.3-.3.45l-1.21,1.88c-.15.3-.45.45-.83.45-.15,0-.38-.08-.53-.15-.45-.3-.6-.83-.3-1.28l1.21-1.88h0c.38-.53.68-.83.9-.98.38-.23.75-.23.98-.23h3.02c.3,0,.6-.08.83-.08,1.51,0,2.19.45,2.41.75.08.08.15.15.23.23l1.66,2.19h2.56c.53,0,.98.45.98.98s-.45.98-.98.98h-3.02c-.3,0-.6-.15-.75-.38l-1.28-1.73-1.21,2.64,4.22,8.59-2.71-.3Z" fill="#008246" stroke-width="0"/>
      <path d="M309.22,602.99c1.43,0,2.04.45,2.26.75.08.08.15.08.23.15l1.73,2.26h2.64c.38,0,.75.3.75.75s-.3.75-.75.75h-3.02c-.23,0-.45-.08-.6-.3l-1.51-1.96-1.43,3.09,4.15,8.37-2.26-.08-3.84-7.01s-.38,2.49-.45,3.32c-.08.9-1.13.9-1.13.9h-6.78l1.51-1.81h4.52l.3-4.22,1.81-3.47h-2.04c-.08.08-.3.3-.38.53l-1.21,1.88c-.15.23-.38.38-.6.38-.15,0-.3-.08-.38-.15-.38-.23-.45-.68-.23-1.06l1.21-1.88h0c.3-.53.6-.83.83-.9.3-.23.68-.23.9-.23h3.09c.15-.08.45-.08.68-.08M309.22,602.61v.38-.38c-.3,0-.53,0-.83.08h-3.02c-.3,0-.68.08-1.06.3-.3.15-.6.53-.98,1.06v.08l-1.21,1.88c-.3.53-.15,1.28.38,1.58.15.15.38.15.6.15.38,0,.75-.23.98-.53l1.21-1.88c.08-.15.15-.23.23-.3h1.21l-1.51,2.86-.08.08v.08l-.23,3.77h-4.37l-.15.15-1.51,1.81-.6.68h7.69s.3,0,.68-.15c.45-.23.75-.6.83-1.13.08-.45.23-1.36.3-2.11l3.24,5.95.08.23h.23l2.26.08h.68l-.3-.6-4.07-8.22,1.06-2.26,1.06,1.43c.23.3.53.45.9.45h3.02c.6,0,1.13-.53,1.13-1.13s-.53-1.13-1.13-1.13h-2.41l-1.58-2.11c-.08-.08-.15-.15-.23-.23-.23-.23-.45-.38-.83-.53-.38-.3-.98-.38-1.66-.38h0Z" fill="#fff" stroke-width="0"/>
      <path d="M310.57,602.92c-1.06,0-1.96-.9-1.96-1.96s.9-1.96,1.96-1.96,1.96.9,1.96,1.96-.9,1.96-1.96,1.96Z" fill="#008246" stroke-width="0"/>
      <path d="M310.57,599.15c.98,0,1.81.83,1.81,1.73s-.83,1.73-1.81,1.73-1.81-.83-1.81-1.73.83-1.73,1.81-1.73M310.57,598.77c-1.21,0-2.19.98-2.19,2.19s.98,2.19,2.19,2.19,2.19-.98,2.19-2.19-1.06-2.19-2.19-2.19h0Z" fill="#fff" stroke-width="0"/>
      <circle cx="307.46" cy="806.4" r="15" fill="#008246" stroke-width="0"/>
      <polygon points="315.08 803.54 315.08 816.88 313.19 818.77 298.34 818.77 300.15 817.18 300.15 803.62 296.91 803.62 307.46 794.04 317.94 803.54 315.08 803.54" fill="#fff" stroke-width="0"/>
      <path d="M310.48,816.51l-3.62-6.63c-.08.75-.3,2.11-.38,2.71-.08.83-.9,1.06-1.28,1.13h-7.24l1.81-2.19h4.37l.3-3.99,1.73-3.17h-1.58c-.08.08-.23.3-.3.45l-1.21,1.88c-.15.3-.45.45-.83.45-.15,0-.38-.08-.53-.15-.45-.3-.6-.83-.3-1.28l1.21-1.88h0c.38-.53.68-.83.9-.98.38-.23.75-.23.98-.23h3.02c.3,0,.6-.08.83-.08,1.51,0,2.19.45,2.41.75.08.08.15.15.23.23l1.66,2.19h2.56c.53,0,.98.45.98.98s-.45.98-.98.98h-3.02c-.3,0-.6-.15-.75-.38l-1.28-1.73-1.21,2.64,4.22,8.59-2.71-.3Z" fill="#008246" stroke-width="0"/>
      <path d="M308.37,802.56c1.43,0,2.04.45,2.26.75.08.08.15.08.23.15l1.73,2.26h2.64c.38,0,.75.3.75.75s-.3.75-.75.75h-3.02c-.23,0-.45-.08-.6-.3l-1.51-1.96-1.43,3.09,4.15,8.37-2.26-.08-3.84-7.01s-.38,2.49-.45,3.32c-.08.9-1.13.9-1.13.9h-6.78l1.51-1.81h4.52l.3-4.22,1.81-3.47h-2.04c-.08.08-.3.3-.38.53l-1.21,1.88c-.15.23-.38.38-.6.38-.15,0-.3-.08-.38-.15-.38-.23-.45-.68-.23-1.06l1.21-1.88h0c.3-.53.6-.83.83-.9.3-.23.68-.23.9-.23h3.09c.15-.08.45-.08.68-.08M308.37,802.18v.38-.38c-.3,0-.53,0-.83.08h-3.02c-.3,0-.68.08-1.06.3-.3.15-.6.53-.98,1.06v.08l-1.21,1.88c-.3.53-.15,1.28.38,1.58.15.15.38.15.6.15.38,0,.75-.23.98-.53l1.21-1.88c.08-.15.15-.23.23-.3h1.21l-1.51,2.86-.08.08v.08l-.23,3.77h-4.37l-.15.15-1.51,1.81-.6.68h7.69s.3,0,.68-.15c.45-.23.75-.6.83-1.13.08-.45.23-1.36.3-2.11l3.24,5.95.08.23h.23l2.26.08h.68l-.3-.6-4.07-8.22,1.06-2.26,1.06,1.43c.23.3.53.45.9.45h3.02c.6,0,1.13-.53,1.13-1.13s-.53-1.13-1.13-1.13h-2.41l-1.58-2.11c-.08-.08-.15-.15-.23-.23-.23-.23-.45-.38-.83-.53-.38-.3-.98-.38-1.66-.38h0Z" fill="#fff" stroke-width="0"/>
      <path d="M309.72,802.48c-1.06,0-1.96-.9-1.96-1.96s.9-1.96,1.96-1.96,1.96.9,1.96,1.96-.9,1.96-1.96,1.96Z" fill="#008246" stroke-width="0"/>
      <path d="M309.72,798.72c.98,0,1.81.83,1.81,1.73s-.83,1.73-1.81,1.73-1.81-.83-1.81-1.73.83-1.73,1.81-1.73M309.72,798.34c-1.21,0-2.19.98-2.19,2.19s.98,2.19,2.19,2.19,2.19-.98,2.19-2.19-1.06-2.19-2.19-2.19h0Z" fill="#fff" stroke-width="0"/>
      <circle cx="70.52" cy="834.5" r="15" fill="#008246" stroke-width="0"/>
      <polygon points="78.13 831.64 78.13 844.98 76.24 846.87 61.39 846.87 63.2 845.28 63.2 831.72 59.96 831.72 70.52 822.14 80.99 831.64 78.13 831.64" fill="#fff" stroke-width="0"/>
      <path d="M73.53,844.61l-3.62-6.63c-.08.75-.3,2.11-.38,2.71-.08.83-.9,1.06-1.28,1.13h-7.24l1.81-2.19h4.37l.3-3.99,1.73-3.17h-1.58c-.08.08-.23.3-.3.45l-1.21,1.88c-.15.3-.45.45-.83.45-.15,0-.38-.08-.53-.15-.45-.3-.6-.83-.3-1.28l1.21-1.88h0c.38-.53.68-.83.9-.98.38-.23.75-.23.98-.23h3.02c.3,0,.6-.08.83-.08,1.51,0,2.19.45,2.41.75.08.08.15.15.23.23l1.66,2.19h2.56c.53,0,.98.45.98.98s-.45.98-.98.98h-3.02c-.3,0-.6-.15-.75-.38l-1.28-1.73-1.21,2.64,4.22,8.59-2.71-.3Z" fill="#008246" stroke-width="0"/>
      <path d="M71.42,830.66c1.43,0,2.04.45,2.26.75.08.08.15.08.23.15l1.73,2.26h2.64c.38,0,.75.3.75.75s-.3.75-.75.75h-3.02c-.23,0-.45-.08-.6-.3l-1.51-1.96-1.43,3.09,4.15,8.37-2.26-.08-3.84-7.01s-.38,2.49-.45,3.32c-.08.9-1.13.9-1.13.9h-6.78l1.51-1.81h4.52l.3-4.22,1.81-3.47h-2.04c-.08.08-.3.3-.38.53l-1.21,1.88c-.15.23-.38.38-.6.38-.15,0-.3-.08-.38-.15-.38-.23-.45-.68-.23-1.06l1.21-1.88h0c.3-.53.6-.83.83-.9.3-.23.68-.23.9-.23h3.09c.15-.08.45-.08.68-.08M71.42,830.28v.38-.38c-.3,0-.53,0-.83.08h-3.02c-.3,0-.68.08-1.06.3-.3.15-.6.53-.98,1.06v.08l-1.21,1.88c-.3.53-.15,1.28.38,1.58.15.15.38.15.6.15.38,0,.75-.23.98-.53l1.21-1.88c.08-.15.15-.23.23-.3h1.21l-1.51,2.86-.08.08v.08l-.23,3.77h-4.37l-.15.15-1.51,1.81-.6.68h7.69s.3,0,.68-.15c.45-.23.75-.6.83-1.13.08-.45.23-1.36.3-2.11l3.24,5.95.08.23h.23l2.26.08h.68l-.3-.6-4.07-8.22,1.06-2.26,1.06,1.43c.23.3.53.45.9.45h3.02c.6,0,1.13-.53,1.13-1.13s-.53-1.13-1.13-1.13h-2.41l-1.58-2.11c-.08-.08-.15-.15-.23-.23-.23-.23-.45-.38-.83-.53-.38-.3-.98-.38-1.66-.38h0Z" fill="#fff" stroke-width="0"/>
      <path d="M72.78,830.58c-1.06,0-1.96-.9-1.96-1.96s.9-1.96,1.96-1.96,1.96.9,1.96,1.96-.9,1.96-1.96,1.96Z" fill="#008246" stroke-width="0"/>
      <path d="M72.78,826.82c.98,0,1.81.83,1.81,1.73s-.83,1.73-1.81,1.73-1.81-.83-1.81-1.73.83-1.73,1.81-1.73M72.78,826.44c-1.21,0-2.19.98-2.19,2.19s.98,2.19,2.19,2.19,2.19-.98,2.19-2.19-1.06-2.19-2.19-2.19h0Z" fill="#fff" stroke-width="0"/>
      <circle cx="766.44" cy="514.14" r="15" fill="#008246" stroke-width="0"/>
      <polygon points="774.06 511.27 774.06 524.62 772.17 526.5 757.32 526.5 759.13 524.92 759.13 511.35 755.89 511.35 766.44 501.78 776.92 511.27 774.06 511.27" fill="#fff" stroke-width="0"/>
      <path d="M769.46,524.24l-3.62-6.63c-.08.75-.3,2.11-.38,2.71-.08.83-.9,1.06-1.28,1.13h-7.24l1.81-2.19h4.37l.3-3.99,1.73-3.17h-1.58c-.08.08-.23.3-.3.45l-1.21,1.88c-.15.3-.45.45-.83.45-.15,0-.38-.08-.53-.15-.45-.3-.6-.83-.3-1.28l1.21-1.88h0c.38-.53.68-.83.9-.98.38-.23.75-.23.98-.23h3.02c.3,0,.6-.08.83-.08,1.51,0,2.19.45,2.41.75.08.08.15.15.23.23l1.66,2.19h2.56c.53,0,.98.45.98.98s-.45.98-.98.98h-3.02c-.3,0-.6-.15-.75-.38l-1.28-1.73-1.21,2.64,4.22,8.59-2.71-.3Z" fill="#008246" stroke-width="0"/>
      <path d="M767.35,510.29c1.43,0,2.04.45,2.26.75.08.08.15.08.23.15l1.73,2.26h2.64c.38,0,.75.3.75.75s-.3.75-.75.75h-3.02c-.23,0-.45-.08-.6-.3l-1.51-1.96-1.43,3.09,4.15,8.37-2.26-.08-3.84-7.01s-.38,2.49-.45,3.32c-.08.9-1.13.9-1.13.9h-6.78l1.51-1.81h4.52l.3-4.22,1.81-3.47h-2.04c-.08.08-.3.3-.38.53l-1.21,1.88c-.15.23-.38.38-.6.38-.15,0-.3-.08-.38-.15-.38-.23-.45-.68-.23-1.06l1.21-1.88h0c.3-.53.6-.83.83-.9.3-.23.68-.23.9-.23h3.09c.15-.08.45-.08.68-.08M767.35,509.92v.38-.38c-.3,0-.53,0-.83.08h-3.02c-.3,0-.68.08-1.06.3-.3.15-.6.53-.98,1.06v.08l-1.21,1.88c-.3.53-.15,1.28.38,1.58.15.15.38.15.6.15.38,0,.75-.23.98-.53l1.21-1.88c.08-.15.15-.23.23-.3h1.21l-1.51,2.86-.08.08v.08l-.23,3.77h-4.37l-.15.15-1.51,1.81-.6.68h7.69s.3,0,.68-.15c.45-.23.75-.6.83-1.13.08-.45.23-1.36.3-2.11l3.24,5.95.08.23h.23l2.26.08h.68l-.3-.6-4.07-8.22,1.06-2.26,1.06,1.43c.23.3.53.45.9.45h3.02c.6,0,1.13-.53,1.13-1.13s-.53-1.13-1.13-1.13h-2.41l-1.58-2.11c-.08-.08-.15-.15-.23-.23-.23-.23-.45-.38-.83-.53-.38-.3-.98-.38-1.66-.38h0Z" fill="#fff" stroke-width="0"/>
      <path d="M768.7,510.22c-1.06,0-1.96-.9-1.96-1.96s.9-1.96,1.96-1.96,1.96.9,1.96,1.96-.9,1.96-1.96,1.96Z" fill="#008246" stroke-width="0"/>
      <path d="M768.7,506.45c.98,0,1.81.83,1.81,1.73s-.83,1.73-1.81,1.73-1.81-.83-1.81-1.73.83-1.73,1.81-1.73M768.7,506.07c-1.21,0-2.19.98-2.19,2.19s.98,2.19,2.19,2.19,2.19-.98,2.19-2.19-1.06-2.19-2.19-2.19h0Z" fill="#fff" stroke-width="0"/>
      <circle cx="827.74" cy="527.44" r="15" fill="#008246" stroke-width="0"/>
      <polygon points="835.35 524.57 835.35 537.92 833.47 539.8 818.62 539.8 820.43 538.22 820.43 524.65 817.19 524.65 827.74 515.08 838.22 524.57 835.35 524.57" fill="#fff" stroke-width="0"/>
      <path d="M830.75,537.54l-3.62-6.63c-.08.75-.3,2.11-.38,2.71-.08.83-.9,1.06-1.28,1.13h-7.24l1.81-2.19h4.37l.3-3.99,1.73-3.17h-1.58c-.08.08-.23.3-.3.45l-1.21,1.88c-.15.3-.45.45-.83.45-.15,0-.38-.08-.53-.15-.45-.3-.6-.83-.3-1.28l1.21-1.88h0c.38-.53.68-.83.9-.98.38-.23.75-.23.98-.23h3.02c.3,0,.6-.08.83-.08,1.51,0,2.19.45,2.41.75.08.08.15.15.23.23l1.66,2.19h2.56c.53,0,.98.45.98.98s-.45.98-.98.98h-3.02c-.3,0-.6-.15-.75-.38l-1.28-1.73-1.21,2.64,4.22,8.59-2.71-.3Z" fill="#008246" stroke-width="0"/>
      <path d="M828.64,523.59c1.43,0,2.04.45,2.26.75.08.08.15.08.23.15l1.73,2.26h2.64c.38,0,.75.3.75.75s-.3.75-.75.75h-3.02c-.23,0-.45-.08-.6-.3l-1.51-1.96-1.43,3.09,4.15,8.37-2.26-.08-3.84-7.01s-.38,2.49-.45,3.32c-.08.9-1.13.9-1.13.9h-6.78l1.51-1.81h4.52l.3-4.22,1.81-3.47h-2.04c-.08.08-.3.3-.38.53l-1.21,1.88c-.15.23-.38.38-.6.38-.15,0-.3-.08-.38-.15-.38-.23-.45-.68-.23-1.06l1.21-1.88h0c.3-.53.6-.83.83-.9.3-.23.68-.23.9-.23h3.09c.15-.08.45-.08.68-.08M828.64,523.22v.38-.38c-.3,0-.53,0-.83.08h-3.02c-.3,0-.68.08-1.06.3-.3.15-.6.53-.98,1.06v.08l-1.21,1.88c-.3.53-.15,1.28.38,1.58.15.15.38.15.6.15.38,0,.75-.23.98-.53l1.21-1.88c.08-.15.15-.23.23-.3h1.21l-1.51,2.86-.08.08v.08l-.23,3.77h-4.37l-.15.15-1.51,1.81-.6.68h7.69s.3,0,.68-.15c.45-.23.75-.6.83-1.13.08-.45.23-1.36.3-2.11l3.24,5.95.08.23h.23l2.26.08h.68l-.3-.6-4.07-8.22,1.06-2.26,1.06,1.43c.23.3.53.45.9.45h3.02c.6,0,1.13-.53,1.13-1.13s-.53-1.13-1.13-1.13h-2.41l-1.58-2.11c-.08-.08-.15-.15-.23-.23-.23-.23-.45-.38-.83-.53-.38-.3-.98-.38-1.66-.38h0Z" fill="#fff" stroke-width="0"/>
      <path d="M830,523.52c-1.06,0-1.96-.9-1.96-1.96s.9-1.96,1.96-1.96,1.96.9,1.96,1.96-.9,1.96-1.96,1.96Z" fill="#008246" stroke-width="0"/>
      <path d="M830,519.75c.98,0,1.81.83,1.81,1.73s-.83,1.73-1.81,1.73-1.81-.83-1.81-1.73.83-1.73,1.81-1.73M830,519.37c-1.21,0-2.19.98-2.19,2.19s.98,2.19,2.19,2.19,2.19-.98,2.19-2.19-1.06-2.19-2.19-2.19h0Z" fill="#fff" stroke-width="0"/>
      <circle cx="914.57" cy="526.39" r="15" fill="#008246" stroke-width="0"/>
      <polygon points="922.19 523.52 922.19 536.87 920.3 538.75 905.45 538.75 907.26 537.17 907.26 523.6 904.02 523.6 914.57 514.03 925.05 523.52 922.19 523.52" fill="#fff" stroke-width="0"/>
      <path d="M917.59,536.49l-3.62-6.63c-.08.75-.3,2.11-.38,2.71-.08.83-.9,1.06-1.28,1.13h-7.24l1.81-2.19h4.37l.3-3.99,1.73-3.17h-1.58c-.08.08-.23.3-.3.45l-1.21,1.88c-.15.3-.45.45-.83.45-.15,0-.38-.08-.53-.15-.45-.3-.6-.83-.3-1.28l1.21-1.88h0c.38-.53.68-.83.9-.98.38-.23.75-.23.98-.23h3.02c.3,0,.6-.08.83-.08,1.51,0,2.19.45,2.41.75.08.08.15.15.23.23l1.66,2.19h2.56c.53,0,.98.45.98.98s-.45.98-.98.98h-3.02c-.3,0-.6-.15-.75-.38l-1.28-1.73-1.21,2.64,4.22,8.59-2.71-.3Z" fill="#008246" stroke-width="0"/>
      <path d="M915.48,522.54c1.43,0,2.04.45,2.26.75.08.08.15.08.23.15l1.73,2.26h2.64c.38,0,.75.3.75.75s-.3.75-.75.75h-3.02c-.23,0-.45-.08-.6-.3l-1.51-1.96-1.43,3.09,4.15,8.37-2.26-.08-3.84-7.01s-.38,2.49-.45,3.32c-.08.9-1.13.9-1.13.9h-6.78l1.51-1.81h4.52l.3-4.22,1.81-3.47h-2.04c-.08.08-.3.3-.38.53l-1.21,1.88c-.15.23-.38.38-.6.38-.15,0-.3-.08-.38-.15-.38-.23-.45-.68-.23-1.06l1.21-1.88h0c.3-.53.6-.83.83-.9.3-.23.68-.23.9-.23h3.09c.15-.08.45-.08.68-.08M915.48,522.17v.38-.38c-.3,0-.53,0-.83.08h-3.02c-.3,0-.68.08-1.06.3-.3.15-.6.53-.98,1.06v.08l-1.21,1.88c-.3.53-.15,1.28.38,1.58.15.15.38.15.6.15.38,0,.75-.23.98-.53l1.21-1.88c.08-.15.15-.23.23-.3h1.21l-1.51,2.86-.08.08v.08l-.23,3.77h-4.37l-.15.15-1.51,1.81-.6.68h7.69s.3,0,.68-.15c.45-.23.75-.6.83-1.13.08-.45.23-1.36.3-2.11l3.24,5.95.08.23h.23l2.26.08h.68l-.3-.6-4.07-8.22,1.06-2.26,1.06,1.43c.23.3.53.45.9.45h3.02c.6,0,1.13-.53,1.13-1.13s-.53-1.13-1.13-1.13h-2.41l-1.58-2.11c-.08-.08-.15-.15-.23-.23-.23-.23-.45-.38-.83-.53-.38-.3-.98-.38-1.66-.38h0Z" fill="#fff" stroke-width="0"/>
      <path d="M916.83,522.47c-1.06,0-1.96-.9-1.96-1.96s.9-1.96,1.96-1.96,1.96.9,1.96,1.96-.9,1.96-1.96,1.96Z" fill="#008246" stroke-width="0"/>
      <path d="M916.83,518.7c.98,0,1.81.83,1.81,1.73s-.83,1.73-1.81,1.73-1.81-.83-1.81-1.73.83-1.73,1.81-1.73M916.83,518.32c-1.21,0-2.19.98-2.19,2.19s.98,2.19,2.19,2.19,2.19-.98,2.19-2.19-1.06-2.19-2.19-2.19h0Z" fill="#fff" stroke-width="0"/>
      <circle cx="964.74" cy="539.74" r="15" fill="#008246" stroke-width="0"/>
      <polygon points="972.35 536.87 972.35 550.22 970.47 552.1 955.62 552.1 957.43 550.52 957.43 536.95 954.19 536.95 964.74 527.38 975.22 536.87 972.35 536.87" fill="#fff" stroke-width="0"/>
      <path d="M967.76,549.84l-3.62-6.63c-.08.75-.3,2.11-.38,2.71-.08.83-.9,1.06-1.28,1.13h-7.24l1.81-2.19h4.37l.3-3.99,1.73-3.17h-1.58c-.08.08-.23.3-.3.45l-1.21,1.88c-.15.3-.45.45-.83.45-.15,0-.38-.08-.53-.15-.45-.3-.6-.83-.3-1.28l1.21-1.88h0c.38-.53.68-.83.9-.98.38-.23.75-.23.98-.23h3.02c.3,0,.6-.08.83-.08,1.51,0,2.19.45,2.41.75.08.08.15.15.23.23l1.66,2.19h2.56c.53,0,.98.45.98.98s-.45.98-.98.98h-3.02c-.3,0-.6-.15-.75-.38l-1.28-1.73-1.21,2.64,4.22,8.59-2.71-.3Z" fill="#008246" stroke-width="0"/>
      <path d="M965.65,535.89c1.43,0,2.04.45,2.26.75.08.08.15.08.23.15l1.73,2.26h2.64c.38,0,.75.3.75.75s-.3.75-.75.75h-3.02c-.23,0-.45-.08-.6-.3l-1.51-1.96-1.43,3.09,4.15,8.37-2.26-.08-3.84-7.01s-.38,2.49-.45,3.32c-.08.9-1.13.9-1.13.9h-6.78l1.51-1.81h4.52l.3-4.22,1.81-3.47h-2.04c-.08.08-.3.3-.38.53l-1.21,1.88c-.15.23-.38.38-.6.38-.15,0-.3-.08-.38-.15-.38-.23-.45-.68-.23-1.06l1.21-1.88h0c.3-.53.6-.83.83-.9.3-.23.68-.23.9-.23h3.09c.15-.08.45-.08.68-.08M965.65,535.52v.38-.38c-.3,0-.53,0-.83.08h-3.02c-.3,0-.68.08-1.06.3-.3.15-.6.53-.98,1.06v.08l-1.21,1.88c-.3.53-.15,1.28.38,1.58.15.15.38.15.6.15.38,0,.75-.23.98-.53l1.21-1.88c.08-.15.15-.23.23-.3h1.21l-1.51,2.86-.08.08v.08l-.23,3.77h-4.37l-.15.15-1.51,1.81-.6.68h7.69s.3,0,.68-.15c.45-.23.75-.6.83-1.13.08-.45.23-1.36.3-2.11l3.24,5.95.08.23h.23l2.26.08h.68l-.3-.6-4.07-8.22,1.06-2.26,1.06,1.43c.23.3.53.45.9.45h3.02c.6,0,1.13-.53,1.13-1.13s-.53-1.13-1.13-1.13h-2.41l-1.58-2.11c-.08-.08-.15-.15-.23-.23-.23-.23-.45-.38-.83-.53-.38-.3-.98-.38-1.66-.38h0Z" fill="#fff" stroke-width="0"/>
      <path d="M967,535.82c-1.06,0-1.96-.9-1.96-1.96s.9-1.96,1.96-1.96,1.96.9,1.96,1.96-.9,1.96-1.96,1.96Z" fill="#008246" stroke-width="0"/>
      <path d="M967,532.05c.98,0,1.81.83,1.81,1.73s-.83,1.73-1.81,1.73-1.81-.83-1.81-1.73.83-1.73,1.81-1.73M967,531.67c-1.21,0-2.19.98-2.19,2.19s.98,2.19,2.19,2.19,2.19-.98,2.19-2.19-1.06-2.19-2.19-2.19h0Z" fill="#fff" stroke-width="0"/>
      <circle cx="894.67" cy="332.13" r="15" fill="#008246" stroke-width="0"/>
      <polygon points="902.29 329.27 902.29 342.61 900.4 344.5 885.55 344.5 887.36 342.91 887.36 329.35 884.12 329.35 894.67 319.77 905.15 329.27 902.29 329.27" fill="#fff" stroke-width="0"/>
      <path d="M897.69,342.23l-3.62-6.63c-.08.75-.3,2.11-.38,2.71-.08.83-.9,1.06-1.28,1.13h-7.24l1.81-2.19h4.37l.3-3.99,1.73-3.17h-1.58c-.08.08-.23.3-.3.45l-1.21,1.88c-.15.3-.45.45-.83.45-.15,0-.38-.08-.53-.15-.45-.3-.6-.83-.3-1.28l1.21-1.88h0c.38-.53.68-.83.9-.98.38-.23.75-.23.98-.23h3.02c.3,0,.6-.08.83-.08,1.51,0,2.19.45,2.41.75.08.08.15.15.23.23l1.66,2.19h2.56c.53,0,.98.45.98.98s-.45.98-.98.98h-3.02c-.3,0-.6-.15-.75-.38l-1.28-1.73-1.21,2.64,4.22,8.59-2.71-.3Z" fill="#008246" stroke-width="0"/>
      <path d="M895.58,328.29c1.43,0,2.04.45,2.26.75.08.08.15.08.23.15l1.73,2.26h2.64c.38,0,.75.3.75.75s-.3.75-.75.75h-3.02c-.23,0-.45-.08-.6-.3l-1.51-1.96-1.43,3.09,4.15,8.37-2.26-.08-3.84-7.01s-.38,2.49-.45,3.32c-.08.9-1.13.9-1.13.9h-6.78l1.51-1.81h4.52l.3-4.22,1.81-3.47h-2.04c-.08.08-.3.3-.38.53l-1.21,1.88c-.15.23-.38.38-.6.38-.15,0-.3-.08-.38-.15-.38-.23-.45-.68-.23-1.06l1.21-1.88h0c.3-.53.6-.83.83-.9.3-.23.68-.23.9-.23h3.09c.15-.08.45-.08.68-.08M895.58,327.91v.38-.38c-.3,0-.53,0-.83.08h-3.02c-.3,0-.68.08-1.06.3-.3.15-.6.53-.98,1.06v.08l-1.21,1.88c-.3.53-.15,1.28.38,1.58.15.15.38.15.6.15.38,0,.75-.23.98-.53l1.21-1.88c.08-.15.15-.23.23-.3h1.21l-1.51,2.86-.08.08v.08l-.23,3.77h-4.37l-.15.15-1.51,1.81-.6.68h7.69s.3,0,.68-.15c.45-.23.75-.6.83-1.13.08-.45.23-1.36.3-2.11l3.24,5.95.08.23h.23l2.26.08h.68l-.3-.6-4.07-8.22,1.06-2.26,1.06,1.43c.23.3.53.45.9.45h3.02c.6,0,1.13-.53,1.13-1.13s-.53-1.13-1.13-1.13h-2.41l-1.58-2.11c-.08-.08-.15-.15-.23-.23-.23-.23-.45-.38-.83-.53-.38-.3-.98-.38-1.66-.38h0Z" fill="#fff" stroke-width="0"/>
      <path d="M896.93,328.21c-1.06,0-1.96-.9-1.96-1.96s.9-1.96,1.96-1.96,1.96.9,1.96,1.96-.9,1.96-1.96,1.96Z" fill="#008246" stroke-width="0"/>
      <path d="M896.93,324.45c.98,0,1.81.83,1.81,1.73s-.83,1.73-1.81,1.73-1.81-.83-1.81-1.73.83-1.73,1.81-1.73M896.93,324.07c-1.21,0-2.19.98-2.19,2.19s.98,2.19,2.19,2.19,2.19-.98,2.19-2.19-1.06-2.19-2.19-2.19h0Z" fill="#fff" stroke-width="0"/>
      <circle cx="826.89" cy="917.94" r="15" fill="#008246" stroke-width="0"/>
      <polygon points="834.5 915.08 834.5 928.42 832.62 930.3 817.77 930.3 819.58 928.72 819.58 915.15 816.34 915.15 826.89 905.58 837.37 915.08 834.5 915.08" fill="#fff" stroke-width="0"/>
      <path d="M829.9,928.04l-3.62-6.63c-.08.75-.3,2.11-.38,2.71-.08.83-.9,1.06-1.28,1.13h-7.24l1.81-2.19h4.37l.3-3.99,1.73-3.17h-1.58c-.08.08-.23.3-.3.45l-1.21,1.88c-.15.3-.45.45-.83.45-.15,0-.38-.08-.53-.15-.45-.3-.6-.83-.3-1.28l1.21-1.88h0c.38-.53.68-.83.9-.98.38-.23.75-.23.98-.23h3.02c.3,0,.6-.08.83-.08,1.51,0,2.19.45,2.41.75.08.08.15.15.23.23l1.66,2.19h2.56c.53,0,.98.45.98.98s-.45.98-.98.98h-3.02c-.3,0-.6-.15-.75-.38l-1.28-1.73-1.21,2.64,4.22,8.59-2.71-.3Z" fill="#008246" stroke-width="0"/>
      <path d="M827.79,914.1c1.43,0,2.04.45,2.26.75.08.08.15.08.23.15l1.73,2.26h2.64c.38,0,.75.3.75.75s-.3.75-.75.75h-3.02c-.23,0-.45-.08-.6-.3l-1.51-1.96-1.43,3.09,4.15,8.37-2.26-.08-3.84-7.01s-.38,2.49-.45,3.32c-.08.9-1.13.9-1.13.9h-6.78l1.51-1.81h4.52l.3-4.22,1.81-3.47h-2.04c-.08.08-.3.3-.38.53l-1.21,1.88c-.15.23-.38.38-.6.38-.15,0-.3-.08-.38-.15-.38-.23-.45-.68-.23-1.06l1.21-1.88h0c.3-.53.6-.83.83-.9.3-.23.68-.23.9-.23h3.09c.15-.08.45-.08.68-.08M827.79,913.72v.38-.38c-.3,0-.53,0-.83.08h-3.02c-.3,0-.68.08-1.06.3-.3.15-.6.53-.98,1.06v.08l-1.21,1.88c-.3.53-.15,1.28.38,1.58.15.15.38.15.6.15.38,0,.75-.23.98-.53l1.21-1.88c.08-.15.15-.23.23-.3h1.21l-1.51,2.86-.08.08v.08l-.23,3.77h-4.37l-.15.15-1.51,1.81-.6.68h7.69s.3,0,.68-.15c.45-.23.75-.6.83-1.13.08-.45.23-1.36.3-2.11l3.24,5.95.08.23h.23l2.26.08h.68l-.3-.6-4.07-8.22,1.06-2.26,1.06,1.43c.23.3.53.45.9.45h3.02c.6,0,1.13-.53,1.13-1.13s-.53-1.13-1.13-1.13h-2.41l-1.58-2.11c-.08-.08-.15-.15-.23-.23-.23-.23-.45-.38-.83-.53-.38-.3-.98-.38-1.66-.38h0Z" fill="#fff" stroke-width="0"/>
      <path d="M829.15,914.02c-1.06,0-1.96-.9-1.96-1.96s.9-1.96,1.96-1.96,1.96.9,1.96,1.96-.9,1.96-1.96,1.96Z" fill="#008246" stroke-width="0"/>
      <path d="M829.15,910.25c.98,0,1.81.83,1.81,1.73s-.83,1.73-1.81,1.73-1.81-.83-1.81-1.73.83-1.73,1.81-1.73M829.15,909.88c-1.21,0-2.19.98-2.19,2.19s.98,2.19,2.19,2.19,2.19-.98,2.19-2.19-1.06-2.19-2.19-2.19h0Z" fill="#fff" stroke-width="0"/>
      <circle cx="1364.83" cy="917.94" r="15" fill="#008246" stroke-width="0"/>
      <polygon points="1372.45 915.08 1372.45 928.42 1370.56 930.3 1355.71 930.3 1357.52 928.72 1357.52 915.15 1354.28 915.15 1364.83 905.58 1375.31 915.08 1372.45 915.08" fill="#fff" stroke-width="0"/>
      <path d="M1367.85,928.04l-3.62-6.63c-.08.75-.3,2.11-.38,2.71-.08.83-.9,1.06-1.28,1.13h-7.24l1.81-2.19h4.37l.3-3.99,1.73-3.17h-1.58c-.08.08-.23.3-.3.45l-1.21,1.88c-.15.3-.45.45-.83.45-.15,0-.38-.08-.53-.15-.45-.3-.6-.83-.3-1.28l1.21-1.88h0c.38-.53.68-.83.9-.98.38-.23.75-.23.98-.23h3.02c.3,0,.6-.08.83-.08,1.51,0,2.19.45,2.41.75.08.08.15.15.23.23l1.66,2.19h2.56c.53,0,.98.45.98.98s-.45.98-.98.98h-3.02c-.3,0-.6-.15-.75-.38l-1.28-1.73-1.21,2.64,4.22,8.59-2.71-.3Z" fill="#008246" stroke-width="0"/>
      <path d="M1365.74,914.1c1.43,0,2.04.45,2.26.75.08.08.15.08.23.15l1.73,2.26h2.64c.38,0,.75.3.75.75s-.3.75-.75.75h-3.02c-.23,0-.45-.08-.6-.3l-1.51-1.96-1.43,3.09,4.15,8.37-2.26-.08-3.84-7.01s-.38,2.49-.45,3.32c-.08.9-1.13.9-1.13.9h-6.78l1.51-1.81h4.52l.3-4.22,1.81-3.47h-2.04c-.08.08-.3.3-.38.53l-1.21,1.88c-.15.23-.38.38-.6.38-.15,0-.3-.08-.38-.15-.38-.23-.45-.68-.23-1.06l1.21-1.88h0c.3-.53.6-.83.83-.9.3-.23.68-.23.9-.23h3.09c.15-.08.45-.08.68-.08M1365.74,913.72v.38-.38c-.3,0-.53,0-.83.08h-3.02c-.3,0-.68.08-1.06.3-.3.15-.6.53-.98,1.06v.08l-1.21,1.88c-.3.53-.15,1.28.38,1.58.15.15.38.15.6.15.38,0,.75-.23.98-.53l1.21-1.88c.08-.15.15-.23.23-.3h1.21l-1.51,2.86-.08.08v.08l-.23,3.77h-4.37l-.15.15-1.51,1.81-.6.68h7.69s.3,0,.68-.15c.45-.23.75-.6.83-1.13.08-.45.23-1.36.3-2.11l3.24,5.95.08.23h.23l2.26.08h.68l-.3-.6-4.07-8.22,1.06-2.26,1.06,1.43c.23.3.53.45.9.45h3.02c.6,0,1.13-.53,1.13-1.13s-.53-1.13-1.13-1.13h-2.41l-1.58-2.11c-.08-.08-.15-.15-.23-.23-.23-.23-.45-.38-.83-.53-.38-.3-.98-.38-1.66-.38h0Z" fill="#fff" stroke-width="0"/>
      <path d="M1367.1,914.02c-1.06,0-1.96-.9-1.96-1.96s.9-1.96,1.96-1.96,1.96.9,1.96,1.96-.9,1.96-1.96,1.96Z" fill="#008246" stroke-width="0"/>
      <path d="M1367.1,910.25c.98,0,1.81.83,1.81,1.73s-.83,1.73-1.81,1.73-1.81-.83-1.81-1.73.83-1.73,1.81-1.73M1367.1,909.88c-1.21,0-2.19.98-2.19,2.19s.98,2.19,2.19,2.19,2.19-.98,2.19-2.19-1.06-2.19-2.19-2.19h0Z" fill="#fff" stroke-width="0"/>
      <circle cx="1862.35" cy="609.93" r="15" fill="#008246" stroke-width="0"/>
      <polygon points="1869.97 607.07 1869.97 620.41 1868.08 622.3 1853.23 622.3 1855.04 620.71 1855.04 607.15 1851.8 607.15 1862.35 597.57 1872.83 607.07 1869.97 607.07" fill="#fff" stroke-width="0"/>
      <path d="M1865.37,620.04l-3.62-6.63c-.08.75-.3,2.11-.38,2.71-.08.83-.9,1.06-1.28,1.13h-7.24l1.81-2.19h4.37l.3-3.99,1.73-3.17h-1.58c-.08.08-.23.3-.3.45l-1.21,1.88c-.15.3-.45.45-.83.45-.15,0-.38-.08-.53-.15-.45-.3-.6-.83-.3-1.28l1.21-1.88h0c.38-.53.68-.83.9-.98.38-.23.75-.23.98-.23h3.02c.3,0,.6-.08.83-.08,1.51,0,2.19.45,2.41.75.08.08.15.15.23.23l1.66,2.19h2.56c.53,0,.98.45.98.98s-.45.98-.98.98h-3.02c-.3,0-.6-.15-.75-.38l-1.28-1.73-1.21,2.64,4.22,8.59-2.71-.3Z" fill="#008246" stroke-width="0"/>
      <path d="M1863.26,606.09c1.43,0,2.04.45,2.26.75.08.08.15.08.23.15l1.73,2.26h2.64c.38,0,.75.3.75.75s-.3.75-.75.75h-3.02c-.23,0-.45-.08-.6-.3l-1.51-1.96-1.43,3.09,4.15,8.37-2.26-.08-3.84-7.01s-.38,2.49-.45,3.32c-.08.9-1.13.9-1.13.9h-6.78l1.51-1.81h4.52l.3-4.22,1.81-3.47h-2.04c-.08.08-.3.3-.38.53l-1.21,1.88c-.15.23-.38.38-.6.38-.15,0-.3-.08-.38-.15-.38-.23-.45-.68-.23-1.06l1.21-1.88h0c.3-.53.6-.83.83-.9.3-.23.68-.23.9-.23h3.09c.15-.08.45-.08.68-.08M1863.26,605.71v.38-.38c-.3,0-.53,0-.83.08h-3.02c-.3,0-.68.08-1.06.3-.3.15-.6.53-.98,1.06v.08l-1.21,1.88c-.3.53-.15,1.28.38,1.58.15.15.38.15.6.15.38,0,.75-.23.98-.53l1.21-1.88c.08-.15.15-.23.23-.3h1.21l-1.51,2.86-.08.08v.08l-.23,3.77h-4.37l-.15.15-1.51,1.81-.6.68h7.69s.3,0,.68-.15c.45-.23.75-.6.83-1.13.08-.45.23-1.36.3-2.11l3.24,5.95.08.23h.23l2.26.08h.68l-.3-.6-4.07-8.22,1.06-2.26,1.06,1.43c.23.3.53.45.9.45h3.02c.6,0,1.13-.53,1.13-1.13s-.53-1.13-1.13-1.13h-2.41l-1.58-2.11c-.08-.08-.15-.15-.23-.23-.23-.23-.45-.38-.83-.53-.38-.3-.98-.38-1.66-.38h0Z" fill="#fff" stroke-width="0"/>
      <path d="M1864.62,606.02c-1.06,0-1.96-.9-1.96-1.96s.9-1.96,1.96-1.96,1.96.9,1.96,1.96-.9,1.96-1.96,1.96Z" fill="#008246" stroke-width="0"/>
      <path d="M1864.62,602.25c.98,0,1.81.83,1.81,1.73s-.83,1.73-1.81,1.73-1.81-.83-1.81-1.73.83-1.73,1.81-1.73M1864.62,601.87c-1.21,0-2.19.98-2.19,2.19s.98,2.19,2.19,2.19,2.19-.98,2.19-2.19-1.06-2.19-2.19-2.19h0Z" fill="#fff" stroke-width="0"/>
      <circle cx="1861.5" cy="806.4" r="15" fill="#008246" stroke-width="0"/>
      <polygon points="1869.12 803.54 1869.12 816.88 1867.23 818.77 1852.38 818.77 1854.19 817.18 1854.19 803.62 1850.95 803.62 1861.5 794.04 1871.98 803.54 1869.12 803.54" fill="#fff" stroke-width="0"/>
      <path d="M1864.52,816.51l-3.62-6.63c-.08.75-.3,2.11-.38,2.71-.08.83-.9,1.06-1.28,1.13h-7.24l1.81-2.19h4.37l.3-3.99,1.73-3.17h-1.58c-.08.08-.23.3-.3.45l-1.21,1.88c-.15.3-.45.45-.83.45-.15,0-.38-.08-.53-.15-.45-.3-.6-.83-.3-1.28l1.21-1.88h0c.38-.53.68-.83.9-.98.38-.23.75-.23.98-.23h3.02c.3,0,.6-.08.83-.08,1.51,0,2.19.45,2.41.75.08.08.15.15.23.23l1.66,2.19h2.56c.53,0,.98.45.98.98s-.45.98-.98.98h-3.02c-.3,0-.6-.15-.75-.38l-1.28-1.73-1.21,2.64,4.22,8.59-2.71-.3Z" fill="#008246" stroke-width="0"/>
      <path d="M1862.41,802.56c1.43,0,2.04.45,2.26.75.08.08.15.08.23.15l1.73,2.26h2.64c.38,0,.75.3.75.75s-.3.75-.75.75h-3.02c-.23,0-.45-.08-.6-.3l-1.51-1.96-1.43,3.09,4.15,8.37-2.26-.08-3.84-7.01s-.38,2.49-.45,3.32c-.08.9-1.13.9-1.13.9h-6.78l1.51-1.81h4.52l.3-4.22,1.81-3.47h-2.04c-.08.08-.3.3-.38.53l-1.21,1.88c-.15.23-.38.38-.6.38-.15,0-.3-.08-.38-.15-.38-.23-.45-.68-.23-1.06l1.21-1.88h0c.3-.53.6-.83.83-.9.3-.23.68-.23.9-.23h3.09c.15-.08.45-.08.68-.08M1862.41,802.18v.38-.38c-.3,0-.53,0-.83.08h-3.02c-.3,0-.68.08-1.06.3-.3.15-.6.53-.98,1.06v.08l-1.21,1.88c-.3.53-.15,1.28.38,1.58.15.15.38.15.6.15.38,0,.75-.23.98-.53l1.21-1.88c.08-.15.15-.23.23-.3h1.21l-1.51,2.86-.08.08v.08l-.23,3.77h-4.37l-.15.15-1.51,1.81-.6.68h7.69s.3,0,.68-.15c.45-.23.75-.6.83-1.13.08-.45.23-1.36.3-2.11l3.24,5.95.08.23h.23l2.26.08h.68l-.3-.6-4.07-8.22,1.06-2.26,1.06,1.43c.23.3.53.45.9.45h3.02c.6,0,1.13-.53,1.13-1.13s-.53-1.13-1.13-1.13h-2.41l-1.58-2.11c-.08-.08-.15-.15-.23-.23-.23-.23-.45-.38-.83-.53-.38-.3-.98-.38-1.66-.38h0Z" fill="#fff" stroke-width="0"/>
      <path d="M1863.77,802.48c-1.06,0-1.96-.9-1.96-1.96s.9-1.96,1.96-1.96,1.96.9,1.96,1.96-.9,1.96-1.96,1.96Z" fill="#008246" stroke-width="0"/>
      <path d="M1863.77,798.72c.98,0,1.81.83,1.81,1.73s-.83,1.73-1.81,1.73-1.81-.83-1.81-1.73.83-1.73,1.81-1.73M1863.77,798.34c-1.21,0-2.19.98-2.19,2.19s.98,2.19,2.19,2.19,2.19-.98,2.19-2.19-1.06-2.19-2.19-2.19h0Z" fill="#fff" stroke-width="0"/>
    </g>
    <g id="text">
      <text transform="translate(244.38 650.35)" fill="#000" font-family="Montserrat-Medium, Montserrat" font-size="18" font-weight="500"><tspan x="0" y="0">M3</tspan></text>
      <text transform="translate(244.38 720.44)" fill="#000" font-family="Montserrat-Medium, Montserrat" font-size="18" font-weight="500"><tspan x="0" y="0">M2</tspan></text>
      <text transform="translate(244.38 787.93)" fill="#000" font-family="Montserrat-Medium, Montserrat" font-size="18" font-weight="500"><tspan x="0" y="0">M1</tspan></text>
      <text transform="translate(19.43 873.59)" fill="#000" font-family="Montserrat-Medium, Montserrat" font-size="18" font-weight="500"><tspan x="0" y="0">M0</tspan></text>
      <text transform="translate(325.14 480)" fill="#000" font-family="Montserrat-Medium, Montserrat" font-size="18" font-weight="500"><tspan x="0" y="0">GROUND F</tspan><tspan x="102.09" y="0" letter-spacing="-.01em">L</tspan><tspan x="112.55" y="0" letter-spacing="0em">OOR</tspan></text>
      <text transform="translate(326.01 281.38)" fill="#000" font-family="Montserrat-Medium, Montserrat" font-size="18" font-weight="500"><tspan x="0" y="0">MEZZANINE</tspan></text>
      <text transform="translate(1538.15 217.93)" fill="#000" font-family="ArialMT, Arial" font-size="14" isolation="isolate"><tspan x="0" y="0">EXTINGUISHER</tspan></text>
      <text transform="translate(1538.15 275.38)" fill="#000" font-family="ArialMT, Arial" font-size="14" isolation="isolate"><tspan x="0" y="0" letter-spacing="-.02em">T</tspan><tspan x="8.3" y="0">OILETS</tspan></text>
      <text transform="translate(1312.49 216.03)" fill="#000" font-family="ArialMT, Arial" font-size="14" isolation="isolate"><tspan x="0" y="0">EMERGENC</tspan><tspan x="80.9" y="0" letter-spacing="-.02em">Y</tspan><tspan x="89.98" y="0" xml:space="preserve"> EXI</tspan><tspan x="116.44" y="0" letter-spacing="-.02em">T</tspan></text>
      <text transform="translate(1312.49 271.96)" fill="#000" font-family="ArialMT, Arial" font-size="14" isolation="isolate"><tspan x="0" y="0">FIRS</tspan><tspan x="31.89" y="0" letter-spacing="-.02em">T</tspan><tspan x="40.19" y="0" letter-spacing="-.06em"> </tspan><tspan x="43.31" y="0">AID</tspan></text>
    </g>
  </g>
</svg>