<?xml version="1.0" encoding="UTF-8"?>
<svg id="Layer_1" data-name="Layer 1" xmlns="http://www.w3.org/2000/svg" version="1.1" viewBox="0 0 1920 1080">
  <defs>
    <style>
      .cls-1, .cls-2, .cls-3, .cls-4, .cls-5, .cls-6, .cls-7, .cls-8, .cls-9, .cls-10, .cls-11, .cls-12, .cls-13, .cls-14, .cls-15, .cls-16, .cls-17, .cls-18, .cls-19, .cls-20, .cls-21, .cls-22, .cls-23, .cls-24, .cls-25, .cls-26, .cls-27, .cls-28, .cls-29, .cls-30, .cls-31, .cls-32, .cls-33, .cls-34, .cls-35, .cls-36, .cls-37, .cls-38, .cls-39, .cls-40, .cls-41, .cls-42, .cls-43, .cls-44, .cls-45, .cls-46, .cls-47, .cls-48, .cls-49, .cls-50, .cls-51, .cls-52, .cls-53, .cls-54, .cls-55, .cls-56, .cls-57, .cls-58, .cls-59 {
        stroke-miterlimit: 10;
      }

      .cls-1, .cls-2, .cls-3, .cls-4, .cls-6, .cls-7, .cls-8, .cls-9, .cls-10, .cls-12, .cls-13, .cls-60, .cls-14, .cls-15, .cls-61, .cls-16, .cls-17, .cls-18, .cls-19, .cls-20, .cls-21, .cls-22, .cls-23, .cls-24, .cls-25, .cls-62, .cls-26, .cls-63, .cls-27, .cls-28, .cls-64, .cls-29, .cls-65, .cls-30, .cls-66, .cls-31, .cls-32, .cls-33, .cls-34, .cls-35, .cls-36, .cls-37, .cls-38, .cls-39, .cls-40, .cls-41, .cls-42, .cls-43, .cls-44, .cls-45, .cls-46, .cls-67, .cls-47, .cls-49, .cls-50, .cls-51, .cls-52, .cls-53, .cls-54, .cls-55, .cls-56, .cls-57, .cls-59 {
        fill: none;
      }

      .cls-1, .cls-2, .cls-3, .cls-4, .cls-6, .cls-7, .cls-8, .cls-9, .cls-14, .cls-15, .cls-19, .cls-20, .cls-22, .cls-26, .cls-28, .cls-30, .cls-31, .cls-34, .cls-35, .cls-41, .cls-42, .cls-46, .cls-51, .cls-52, .cls-53, .cls-54, .cls-59 {
        stroke-width: 1.2px;
      }

      .cls-1, .cls-16, .cls-55 {
        stroke: #212121;
      }

      .cls-2 {
        stroke-dasharray: 0 0 0 0 0 0 6.1 6.1;
      }

      .cls-2, .cls-3, .cls-4, .cls-6, .cls-7, .cls-8, .cls-9, .cls-14, .cls-15, .cls-19, .cls-20, .cls-22, .cls-26, .cls-28, .cls-30, .cls-31, .cls-34, .cls-35, .cls-41, .cls-42, .cls-46, .cls-51, .cls-52, .cls-53, .cls-54, .cls-59 {
        stroke: #515150;
      }

      .cls-3 {
        stroke-dasharray: 0 0 0 0 0 0 6.1 6.1;
      }

      .cls-68, .cls-69, .cls-70, .cls-71 {
        fill: #000;
      }

      .cls-68, .cls-71 {
        font-family: ArialMT, Arial;
        font-size: 14.7px;
      }

      .cls-4 {
        stroke-dasharray: 0 0 0 0 0 0 6 6;
      }

      .cls-5, .cls-11, .cls-72, .cls-73, .cls-74, .cls-75, .cls-76, .cls-77, .cls-78, .cls-79, .cls-80, .cls-81, .cls-58 {
        fill: #ededed;
      }

      .cls-5, .cls-72, .cls-73, .cls-74, .cls-75, .cls-76, .cls-77, .cls-78, .cls-79, .cls-80, .cls-81, .cls-58 {
        stroke: #1e1e1e;
      }

      .cls-6 {
        stroke-dasharray: 0 0 0 0 0 0 6.2 6.2;
      }

      .cls-7 {
        stroke-dasharray: 0 0 0 0 0 0 6.3 6.3;
      }

      .cls-8 {
        stroke-dasharray: 0 0 0 0 0 0 6 6;
      }

      .cls-69, .cls-82, .cls-83, .cls-62, .cls-84, .cls-85, .cls-86, .cls-87, .cls-88 {
        stroke-width: 0px;
      }

      .cls-82 {
        fill: #afa797;
      }

      .cls-9 {
        stroke-dasharray: 0 0 0 0 0 0 6.1 6.1;
      }

      .cls-10 {
        stroke-width: 10.8px;
      }

      .cls-10, .cls-23, .cls-29, .cls-36, .cls-39 {
        stroke: #848484;
      }

      .cls-11 {
        stroke-width: 3px;
      }

      .cls-11, .cls-12, .cls-33, .cls-37, .cls-49 {
        stroke: #ff0026;
      }

      .cls-72 {
        stroke-miterlimit: 10;
        stroke-width: 1px;
      }

      .cls-12 {
        stroke-width: .7px;
      }

      .cls-70 {
        font-size: 35.5px;
      }

      .cls-70, .cls-71, .cls-89, .cls-83, .cls-90, .cls-91, .cls-92, .cls-93 {
        isolation: isolate;
      }

      .cls-70, .cls-94 {
        font-family: Montserrat-Medium, Montserrat;
        font-weight: 500;
      }

      .cls-13, .cls-60, .cls-67 {
        stroke: #bac624;
      }

      .cls-13, .cls-66, .cls-67, .cls-56, .cls-57 {
        stroke-width: .6px;
      }

      .cls-60, .cls-74, .cls-63, .cls-65 {
        stroke-miterlimit: 10;
      }

      .cls-60, .cls-63 {
        stroke-width: .6px;
      }

      .cls-14 {
        stroke-dasharray: 0 0 0 0 0 0 6.2 6.2;
      }

      .cls-89 {
        font-size: 18px;
      }

      .cls-89, .cls-90, .cls-92, .cls-93 {
        fill: #2d2d2d;
        font-family: Arial-BoldMT, Arial;
        font-weight: 700;
      }

      .cls-15 {
        stroke-dasharray: 0 0 0 0 0 0 6.1 6.1;
      }

      .cls-61 {
        stroke-miterlimit: 10;
        stroke-width: .6px;
      }

      .cls-61, .cls-24, .cls-63, .cls-27, .cls-64, .cls-65, .cls-66, .cls-32, .cls-44, .cls-45, .cls-47, .cls-50, .cls-56, .cls-57 {
        stroke: #fff;
      }

      .cls-83 {
        opacity: .4;
      }

      .cls-83, .cls-85 {
        fill: #008246;
      }

      .cls-16, .cls-49 {
        stroke-width: 1.5px;
      }

      .cls-17 {
        stroke-width: 12.9px;
      }

      .cls-17, .cls-21, .cls-38, .cls-43 {
        stroke: #2b2b2b;
      }

      .cls-18 {
        stroke-width: 4px;
      }

      .cls-18, .cls-25, .cls-48 {
        stroke: #000;
      }

      .cls-90 {
        letter-spacing: 0em;
      }

      .cls-90, .cls-92, .cls-94 {
        font-size: 10px;
      }

      .cls-19 {
        stroke-dasharray: 0 0 0 0 0 0 6.3 6.3;
      }

      .cls-20 {
        stroke-dasharray: 0 0 0 0 0 0 6.2 6.2;
      }

      .cls-73 {
        stroke-miterlimit: 10;
        stroke-width: 1px;
      }

      .cls-21 {
        stroke-width: 10.1px;
      }

      .cls-22 {
        stroke-dasharray: 0 0 0 0 0 0 6.2 6.2;
      }

      .cls-74 {
        stroke-width: 1px;
      }

      .cls-23 {
        stroke-width: 4.9px;
      }

      .cls-24 {
        stroke-width: 1.5px;
      }

      .cls-25 {
        stroke-width: 2px;
      }

      .cls-26 {
        stroke-dasharray: 0 0 0 0 0 0 6.1 6.1;
      }

      .cls-27, .cls-32, .cls-44 {
        stroke-width: 1.9px;
      }

      .cls-28 {
        stroke-dasharray: 0 0 0 0 0 0 6 6;
      }

      .cls-75 {
        stroke-miterlimit: 10;
        stroke-width: 1px;
      }

      .cls-64 {
        stroke-miterlimit: 10;
        stroke-width: .6px;
      }

      .cls-29, .cls-43 {
        stroke-width: 7.1px;
      }

      .cls-65 {
        stroke-width: .7px;
      }

      .cls-30 {
        stroke-dasharray: 0 0 0 0 0 0 5.8 5.8;
      }

      .cls-66, .cls-67 {
        stroke-linejoin: bevel;
      }

      .cls-31 {
        stroke-dasharray: 0 0 0 0 0 0 6 6;
      }

      .cls-76 {
        stroke-miterlimit: 10;
        stroke-width: 1px;
      }

      .cls-32 {
        stroke-dasharray: 0 0 0 0 0 0 1.7 1.7;
      }

      .cls-33 {
        stroke-width: 6px;
      }

      .cls-34 {
        stroke-dasharray: 0 0 0 0 0 0 6.3 6.3;
      }

      .cls-77 {
        stroke-miterlimit: 10;
        stroke-width: 1px;
      }

      .cls-84 {
        fill: #ff0026;
      }

      .cls-35 {
        stroke-dasharray: 0 0 0 0 0 0 6.6 6.6;
      }

      .cls-36 {
        stroke-width: 4.6px;
      }

      .cls-37 {
        stroke-width: 4.9px;
      }

      .cls-38 {
        stroke-width: 7.4px;
      }

      .cls-39 {
        stroke-width: 7.7px;
      }

      .cls-40 {
        stroke: #929392;
        stroke-width: 3.7px;
      }

      .cls-41 {
        stroke-dasharray: 0 0 0 0 0 0 6.1 6.1;
      }

      .cls-42 {
        stroke-dasharray: 0 0 0 0 0 0 6 6;
      }

      .cls-93 {
        font-size: 16px;
      }

      .cls-44 {
        stroke-dasharray: 0 0 0 1.9;
      }

      .cls-45 {
        stroke-width: .7px;
      }

      .cls-46 {
        stroke-dasharray: 0 0 0 0 0 0 6.2 6.2;
      }

      .cls-47 {
        stroke-width: .6px;
      }

      .cls-48 {
        stroke-width: 1.8px;
      }

      .cls-48, .cls-86, .cls-94 {
        fill: #fff;
      }

      .cls-50 {
        stroke-dasharray: 0 0 0 1.2;
        stroke-width: 2.5px;
      }

      .cls-78 {
        stroke-miterlimit: 10;
        stroke-width: 1px;
      }

      .cls-79 {
        stroke-miterlimit: 10;
        stroke-width: 1px;
      }

      .cls-51 {
        stroke-dasharray: 0 0 0 0 0 0 6.2 6.2;
      }

      .cls-80 {
        stroke-miterlimit: 10;
        stroke-width: 1px;
      }

      .cls-52 {
        stroke-dasharray: 0 0 0 0 0 0 6.1 6.1;
      }

      .cls-87 {
        fill: #ccc2b4;
      }

      .cls-53 {
        stroke-dasharray: 0 0 0 0 0 0 6.3 6.3;
      }

      .cls-88 {
        fill: #848484;
      }

      .cls-54 {
        stroke-dasharray: 0 0 0 0 0 0 6.2 6.2;
      }

      .cls-81 {
        stroke-miterlimit: 10;
        stroke-width: .7px;
      }

      .cls-55 {
        stroke-width: .9px;
      }

      .cls-57 {
        stroke-dasharray: 0 0 0 3.7;
      }

      .cls-58 {
        stroke-width: 2px;
      }
    </style>
  </defs>
  <g id="base">
    <g id="boundry_back" data-name="boundry back">
      <rect class="cls-86" width="1920" height="1080"/>
      <path class="cls-87" d="M1812.1,1067s-194-16.5-286.2-42c-92.3-25.5-372.7-110.7-372.7-110.7l-250.4-90.3-229.9-83.6-24.4-9-27.5-10.3-49.3-11.4-42.5-16.1-66.8-22.8s-67.3-59.5-84.5-83.8c-29.4-41.6-64.8-138.1-81.8-186.6-25.3-72.1-87.5-295.9-87.5-295.9l76.9-18.4,47-10.2s9.9,44.1,16.9,63.7c4.1,11.5,19,46.3,29.2,59.5,11.4,14.8,55.4,50.3,55.4,50.3l10.8,9.3,26,12,44.3,17.8,61.2,24,65.1,25.6,134.5,63.8,2.1,21,171.9,87,11.2,5.7,11.2,5.7,61,30.2,68.7,40.1,48.9,28.2,136,62.9,124.8,66.9,6.2-9.6,13.2,6.9,7.8,11.5,130.3,32.2s174,64.9,183.3,67.7c8.8,2.7,30.4,29.1,30.4,29.1l16.8-8.6,13.1,8.5,21.1-36.5s-29.2-62.7-37.6-85.6c-2.2-5.9-4-24.9-4-24.9h8.2c0,.1.8,13.8,2,18.2,6.6,25.1,37.5,92.7,37.5,92.7l-15.7,32.5,16.8,5.9-18,42.9,4.1,22,5.8,14.8-.9,16.3-9.4,15.2,3.6,45.9"/>
    </g>
    <g id="green">
      <polygon class="cls-82" points="365.7 415.3 393.9 480.3 449.2 563.3 499.7 603.2 583.1 657.4 712.4 710.7 769.6 723.2 865.9 737.7 931.8 732.9 953.5 730.4 935.3 727.8 884.5 720.6 808.2 689.9 730.5 654.3 609.4 598.7 539.5 559 446 493.2 472.1 447 449 434.5 397.2 395.6 365.7 415.3"/>
      <polygon class="cls-82" points="327.4 301.9 306.4 134.9 325.8 159.1 399.2 256.3 395.3 341.7 337.5 323.2 327.4 301.9"/>
      <circle class="cls-25" cx="150" cy="418.7" r="73.8"/>
      <g>
        <line class="cls-18" x1="165.6" y1="490.8" x2="138.1" y2="363.8"/>
        <polygon class="cls-69" points="119.6 370.5 157.8 362.2 134.5 347.2 119.6 370.5"/>
      </g>
      <g class="cls-91">
        <text class="cls-70" transform="translate(116.8 333.5) rotate(-12.2)"><tspan x="0" y="0">N</tspan></text>
      </g>
    </g>
    <g id="carpark">
      <polygon class="cls-88" points="499.2 328.1 537.5 350.2 567.5 361.3 650.4 396.8 655.4 389 751.2 437.4 757.8 422.4 635.4 346.2 522.1 302.9 505.3 301.4 495.3 318.7 499.2 328.1"/>
      <polygon class="cls-88" points="422.5 254.5 399.1 235.7 384.5 252.8 399.3 272.9 462.3 332.2 495.1 343.5 514.6 297.1 422.5 254.5"/>
      <polygon class="cls-88" points="442.5 457.9 451.5 442.2 468.8 450.6 578.9 505.3 592.2 475.3 691.5 518.7 687.5 527.5 724.7 544.6 721.7 551.2 736.9 574.2 901.2 655.5 918.4 648.3 804.4 577.7 719.3 524.3 646.2 478 591 442.9 522.9 399.6 486.8 376.7 490.2 371.2 486.7 369.3 490.5 365.5 524.6 387.1 532.8 373.9 532 370.5 497 345.6 478.1 329.8 475.1 332.8 389.8 260.1 389.2 279.6 332.4 312.6 340.9 340.7 357 375 394.2 417.4 442.5 457.9"/>
      <polygon class="cls-88" points="883.5 488.8 901.5 528.7 926.7 547.6 958.2 541.6 966 528.9 883.5 488.8"/>
      <polygon class="cls-88" points="1406.9 762.7 1361.4 744.6 1302.4 720.7 1234.6 678.3 1137.2 631.7 1051.3 584.8 1054.3 578.5 1389.4 747.7 1406.9 762.7"/>
      <path class="cls-88" d="M1840.3,889.4l-12.2-5.7-5.2-1.3-9.2,4.7-14.1-8.5-16.8,8.6-11.9-12.6,33.5,57-7.7,5.7,7.5,95.2,2.9,13.5,18.2-1.3-3.3-45.5s9.3-15,9.7-15.2.7-15.4.7-15.4l-5.7-15.9-3.5-20.7,17-42.6h0Z"/>
      <line class="cls-56" x1="503.4" y1="362.7" x2="511.3" y2="358.5"/>
      <line class="cls-56" x1="507.5" y1="366.4" x2="516.2" y2="361.8"/>
      <polyline class="cls-56" points="512.2 369.6 520.6 364.5 503.6 353.1"/>
      <line class="cls-56" x1="498.8" y1="359.7" x2="506.7" y2="355.5"/>
      <line class="cls-56" x1="486.5" y1="392.2" x2="467.2" y2="432"/>
      <line class="cls-56" x1="475.7" y1="392.5" x2="492.9" y2="400.8"/>
      <line class="cls-56" x1="477.9" y1="388.1" x2="495.1" y2="396.4"/>
      <line class="cls-56" x1="473.6" y1="396.9" x2="490.8" y2="405.2"/>
      <line class="cls-56" x1="471.5" y1="401.3" x2="488.6" y2="409.6"/>
      <line class="cls-56" x1="469.3" y1="405.7" x2="486.5" y2="414.1"/>
      <line class="cls-56" x1="467.2" y1="410.1" x2="484.4" y2="418.5"/>
      <line class="cls-56" x1="465" y1="414.5" x2="482.2" y2="422.9"/>
      <line class="cls-56" x1="462.9" y1="419" x2="480.1" y2="427.3"/>
      <line class="cls-56" x1="460.8" y1="423.4" x2="478" y2="431.7"/>
      <line class="cls-56" x1="458.6" y1="427.8" x2="475.8" y2="436.1"/>
      <line class="cls-56" x1="513.7" y1="408.5" x2="494.5" y2="448.5"/>
      <line class="cls-56" x1="503" y1="408.7" x2="511.6" y2="412.9"/>
      <line class="cls-56" x1="505.1" y1="404.3" x2="513.7" y2="408.5"/>
      <line class="cls-56" x1="500.9" y1="413.1" x2="509.5" y2="417.3"/>
      <line class="cls-56" x1="498.7" y1="417.5" x2="507.3" y2="421.7"/>
      <line class="cls-56" x1="496.6" y1="422" x2="505.2" y2="426.1"/>
      <line class="cls-56" x1="494.4" y1="426.4" x2="503" y2="430.5"/>
      <line class="cls-56" x1="492.3" y1="430.8" x2="500.9" y2="435"/>
      <line class="cls-56" x1="490.2" y1="435.2" x2="498.8" y2="439.4"/>
      <line class="cls-56" x1="488" y1="439.6" x2="496.6" y2="443.8"/>
      <line class="cls-56" x1="485.9" y1="444" x2="494.5" y2="448.2"/>
      <line class="cls-56" x1="429.9" y1="406.8" x2="457" y2="371.7"/>
      <line class="cls-56" x1="440.5" y1="408.8" x2="432.9" y2="402.9"/>
      <line class="cls-56" x1="437.4" y1="412.6" x2="429.9" y2="406.8"/>
      <line class="cls-56" x1="443.5" y1="404.9" x2="435.9" y2="399"/>
      <line class="cls-56" x1="446.5" y1="401" x2="439" y2="395.2"/>
      <line class="cls-56" x1="449.5" y1="397.2" x2="442" y2="391.3"/>
      <line class="cls-56" x1="452.5" y1="393.3" x2="445" y2="387.4"/>
      <line class="cls-56" x1="455.5" y1="389.4" x2="448" y2="383.6"/>
      <line class="cls-56" x1="458.5" y1="385.6" x2="451" y2="379.7"/>
      <line class="cls-56" x1="461.6" y1="381.7" x2="454" y2="375.8"/>
      <line class="cls-56" x1="464.6" y1="377.8" x2="457" y2="372"/>
      <line class="cls-56" x1="456.9" y1="372" x2="463" y2="364.3"/>
      <line class="cls-56" x1="467.5" y1="374" x2="459.9" y2="368.1"/>
      <line class="cls-56" x1="464.5" y1="377.9" x2="456.9" y2="372"/>
      <line class="cls-56" x1="470.5" y1="370.1" x2="463" y2="364.3"/>
      <rect class="cls-60" x="492.6" y="349.7" width="8.9" height="8.9" transform="translate(-69.9 580.3) rotate(-57.2)"/>
      <line class="cls-13" x1="501.1" y1="351.5" x2="496.2" y2="359"/>
      <line class="cls-13" x1="490.9" y1="355.5" x2="493.9" y2="354.9"/>
      <line class="cls-13" x1="492.8" y1="352.6" x2="495.7" y2="352.2"/>
      <polyline class="cls-67" points="494.5 349.9 497.6 349.3 492.7 356.7"/>
      <line class="cls-67" x1="498.8" y1="359.6" x2="498.1" y2="356.2"/>
      <line class="cls-67" x1="500.2" y1="357.1" x2="499.5" y2="354"/>
      <line class="cls-67" x1="502" y1="354.4" x2="501.4" y2="351.7"/>
      <line class="cls-56" x1="1800.6" y1="936.5" x2="1791.2" y2="926.8"/>
      <line class="cls-56" x1="1796.2" y1="922.5" x2="1792" y2="927.7"/>
      <polyline class="cls-56" points="1821.2 928.1 1810.7 929.3 1813.9 961.5"/>
      <polyline class="cls-13" points="1809.1 965 1807.7 955.2 1801.4 955.9 1802.4 962 1806.2 961.4 1805.3 955.4"/>
      <line class="cls-13" x1="1805.4" y1="956.4" x2="1808" y2="957.7"/>
      <line class="cls-13" x1="1805.7" y1="958.8" x2="1808.3" y2="959.8"/>
      <line class="cls-13" x1="1806.2" y1="961" x2="1808.6" y2="961.9"/>
      <line class="cls-56" x1="569" y1="327.6" x2="559.3" y2="350.1"/>
      <line class="cls-56" x1="558.3" y1="328.3" x2="575.8" y2="335.8"/>
      <line class="cls-56" x1="560.2" y1="323.8" x2="577.7" y2="331.3"/>
      <line class="cls-56" x1="556.3" y1="332.8" x2="573.8" y2="340.3"/>
      <line class="cls-56" x1="554.4" y1="337.3" x2="571.9" y2="344.8"/>
      <line class="cls-56" x1="552.4" y1="341.8" x2="570" y2="349.3"/>
      <line class="cls-56" x1="598.7" y1="339.2" x2="589" y2="361.7"/>
      <line class="cls-56" x1="588" y1="340" x2="605.6" y2="347.5"/>
      <line class="cls-56" x1="590" y1="335.5" x2="607.5" y2="343"/>
      <line class="cls-56" x1="586.1" y1="344.5" x2="603.6" y2="352"/>
      <line class="cls-56" x1="584.2" y1="349" x2="601.7" y2="356.5"/>
      <line class="cls-56" x1="582.2" y1="353.5" x2="599.7" y2="361"/>
      <line class="cls-56" x1="626.8" y1="351.6" x2="617.1" y2="374.1"/>
      <line class="cls-56" x1="616.1" y1="352.3" x2="633.6" y2="359.9"/>
      <line class="cls-56" x1="618" y1="347.8" x2="635.6" y2="355.4"/>
      <line class="cls-56" x1="614.2" y1="356.8" x2="631.7" y2="364.4"/>
      <line class="cls-56" x1="612.2" y1="361.3" x2="629.8" y2="368.9"/>
      <line class="cls-56" x1="610.3" y1="365.8" x2="627.8" y2="373.4"/>
      <line class="cls-56" x1="539.7" y1="315.2" x2="529.7" y2="338.2"/>
      <line class="cls-56" x1="529" y1="316" x2="546.5" y2="323.5"/>
      <line class="cls-56" x1="530.9" y1="311.5" x2="548.4" y2="319"/>
      <line class="cls-56" x1="527" y1="320.5" x2="544.5" y2="328"/>
      <line class="cls-56" x1="525.1" y1="325" x2="542.6" y2="332.5"/>
      <line class="cls-56" x1="523.1" y1="329.5" x2="540.7" y2="337"/>
      <path class="cls-56" d="M505.3,316.2l-4.1,7.7s26,13.3,29,14.5,54.3,20.8,63.7,25c9,4,57.3,25.7,57.3,25.7l8.2-18.1"/>
      <line class="cls-56" x1="512.2" y1="324.8" x2="503.4" y2="321"/>
      <line class="cls-56" x1="514.1" y1="320.2" x2="505.3" y2="316.5"/>
      <line class="cls-56" x1="505.2" y1="316.5" x2="509.1" y2="307.5"/>
      <line class="cls-56" x1="515.9" y1="315.8" x2="507.2" y2="312"/>
      <line class="cls-56" x1="514" y1="320.3" x2="505.2" y2="316.5"/>
      <line class="cls-56" x1="517.9" y1="311.3" x2="508.7" y2="307.5"/>
      <polyline class="cls-56" points="493.5 312.4 489.5 319.6 496.6 323.3"/>
      <line class="cls-66" x1="501.6" y1="315.5" x2="495.1" y2="312.1"/>
      <line class="cls-66" x1="504.8" y1="308.1" x2="498.3" y2="304.7"/>
      <line class="cls-66" x1="504.2" y1="309.3" x2="497.6" y2="305.9"/>
      <line class="cls-66" x1="503.7" y1="310.6" x2="497.1" y2="307.2"/>
      <line class="cls-66" x1="503.1" y1="311.8" x2="496.6" y2="308.5"/>
      <line class="cls-66" x1="502.6" y1="313.2" x2="496" y2="309.9"/>
      <line class="cls-66" x1="502" y1="314.5" x2="495.5" y2="311.1"/>
      <path class="cls-56" d="M1788.7,924.8c0-.4,3.2-13.8,3.2-13.8l-2.9-5-5.6,3"/>
      <line class="cls-56" x1="645.2" y1="365" x2="653.9" y2="368.8"/>
      <line class="cls-56" x1="643.2" y1="369.5" x2="652" y2="373.2"/>
      <line class="cls-56" x1="653.9" y1="368.8" x2="646.3" y2="386.7"/>
      <line class="cls-56" x1="641.4" y1="374" x2="650.2" y2="377.7"/>
      <line class="cls-56" x1="643.3" y1="369.5" x2="652.1" y2="373.2"/>
      <line class="cls-56" x1="639.5" y1="378.5" x2="648.6" y2="382.2"/>
      <rect class="cls-64" x="1785.7" y="891.2" width="4.4" height="8.6" transform="translate(-211.3 855.9) rotate(-25.5)"/>
      <rect class="cls-64" x="1789.7" y="889.3" width="4.4" height="8.6" transform="translate(-210.1 857.4) rotate(-25.5)"/>
      <rect class="cls-64" x="1793.6" y="887.4" width="4.4" height="8.6" transform="translate(-208.9 858.9) rotate(-25.5)"/>
      <rect class="cls-64" x="1797.4" y="885.6" width="4.4" height="8.6" transform="translate(-207.8 860.4) rotate(-25.5)"/>
      <rect class="cls-61" x="1824.4" y="887" width="8.6" height="4.4" transform="translate(216.9 2129) rotate(-63.5)"/>
      <rect class="cls-61" x="1829.1" y="887.9" width="8.6" height="4.4" transform="translate(218.8 2133.7) rotate(-63.5)"/>
      <path class="cls-56" d="M467.9,353.8c.2-.1,7.3-9.5,7.3-9.5l.6-6.4"/>
      <polyline class="cls-56" points="475.6 360.2 483.2 351.5 485.4 339.2 478.4 338.3 477.9 345.6 470.2 355.2"/>
      <line class="cls-67" x1="493.8" y1="282.3" x2="499.2" y2="295.6"/>
      <line class="cls-67" x1="499.6" y1="284.5" x2="505.1" y2="298.2"/>
      <line class="cls-67" x1="505.3" y1="286.6" x2="510.8" y2="300.2"/>
      <line class="cls-67" x1="511.1" y1="288.7" x2="513.6" y2="294.9"/>
      <line class="cls-67" x1="492.8" y1="288.2" x2="494.9" y2="293.5"/>
      <polygon class="cls-67" points="491.7 292 510.8 300.8 515.7 290.5 493.8 282.3 491.7 292"/>
      <line class="cls-67" x1="503.6" y1="286" x2="491.8" y2="290.6"/>
      <line class="cls-67" x1="509.4" y1="288.1" x2="494.9" y2="293.5"/>
      <line class="cls-67" x1="515" y1="290.3" x2="499.2" y2="295.6"/>
      <line class="cls-67" x1="504" y1="297.7" x2="513.9" y2="294.1"/>
      <line class="cls-67" x1="497.8" y1="283.7" x2="493.2" y2="285.4"/>
      <line class="cls-50" x1="492.2" y1="282.7" x2="489.9" y2="291"/>
      <line class="cls-50" x1="510.4" y1="302.1" x2="492.2" y2="294.5"/>
      <line class="cls-56" x1="396.2" y1="361.2" x2="376.6" y2="346.2"/>
      <line class="cls-56" x1="402.1" y1="353.7" x2="396.2" y2="361.2"/>
      <line class="cls-56" x1="398.2" y1="350.7" x2="392.3" y2="358.2"/>
      <line class="cls-56" x1="394.3" y1="347.7" x2="388.5" y2="355.2"/>
      <line class="cls-56" x1="390.5" y1="344.7" x2="384.6" y2="352.2"/>
      <line class="cls-56" x1="386.6" y1="341.6" x2="380.7" y2="349.2"/>
      <line class="cls-56" x1="382.7" y1="338.6" x2="376.9" y2="346.2"/>
      <polyline class="cls-56" points="376.9 346.3 382.8 338.8 374 332.8"/>
      <polyline class="cls-56" points="393.5 365.2 385 359.4 376.2 346.3 374.5 342.9 371.7 337.2 378.5 342.1 374.7 343.2"/>
      <line class="cls-56" x1="385" y1="359.4" x2="388.9" y2="354.7"/>
      <line class="cls-56" x1="387.7" y1="356.1" x2="383.3" y2="357"/>
      <line class="cls-56" x1="381.4" y1="354" x2="385.9" y2="353.4"/>
      <line class="cls-56" x1="379.6" y1="351.4" x2="382.5" y2="350.7"/>
      <polyline class="cls-56" points="418.4 339.2 376.9 309.9 375.6 311.1 366.4 304.5"/>
      <line class="cls-56" x1="380.7" y1="324.3" x2="386.2" y2="316.5"/>
      <line class="cls-56" x1="376.7" y1="321.4" x2="382.2" y2="313.6"/>
      <line class="cls-56" x1="384.6" y1="327.1" x2="390.2" y2="319.3"/>
      <line class="cls-56" x1="388.6" y1="330" x2="394.2" y2="322.2"/>
      <line class="cls-56" x1="392.6" y1="332.8" x2="398.2" y2="325"/>
      <line class="cls-56" x1="396.6" y1="335.6" x2="402.2" y2="327.9"/>
      <line class="cls-56" x1="400.6" y1="338.5" x2="406.2" y2="330.7"/>
      <line class="cls-56" x1="404.6" y1="341.3" x2="410.1" y2="333.5"/>
      <line class="cls-56" x1="408.6" y1="344.2" x2="414.1" y2="336.4"/>
      <line class="cls-56" x1="418.1" y1="339.1" x2="426.1" y2="344.8"/>
      <line class="cls-56" x1="416.6" y1="349.8" x2="422.1" y2="342"/>
      <line class="cls-56" x1="412.6" y1="346.9" x2="418.1" y2="339.1"/>
      <polyline class="cls-56" points="426.1 344.8 420.5 352.6 426.9 357.5 418.5 368.8 412.3 363.9"/>
      <line class="cls-56" x1="372.8" y1="318.6" x2="378.6" y2="311.1"/>
      <path class="cls-56" d="M335.6,315.7c11.7,54.2,67.5,115,106.4,137.8"/>
      <line class="cls-56" x1="439.8" y1="452.2" x2="445" y2="444"/>
      <line class="cls-56" x1="435" y1="449.2" x2="440.5" y2="441.1"/>
      <line class="cls-56" x1="430.4" y1="446" x2="435.8" y2="438.1"/>
      <line class="cls-56" x1="425.8" y1="442.6" x2="432" y2="435"/>
      <line class="cls-56" x1="422" y1="439.6" x2="427.5" y2="432.6"/>
      <line class="cls-56" x1="417.6" y1="436" x2="424.1" y2="428.6"/>
      <line class="cls-56" x1="413.9" y1="432.9" x2="420.2" y2="425.7"/>
      <line class="cls-56" x1="406.4" y1="426.1" x2="412.9" y2="419.4"/>
      <line class="cls-56" x1="402.4" y1="422.3" x2="409.2" y2="415.5"/>
      <line class="cls-56" x1="398.5" y1="418.5" x2="405.4" y2="412.1"/>
      <line class="cls-56" x1="395" y1="414.9" x2="402.5" y2="408.4"/>
      <line class="cls-56" x1="391.1" y1="410.8" x2="399.1" y2="404.3"/>
      <line class="cls-56" x1="387.5" y1="406.8" x2="395.6" y2="400.7"/>
      <line class="cls-56" x1="384.3" y1="403.1" x2="392.8" y2="397"/>
      <line class="cls-56" x1="381.2" y1="399.5" x2="389.7" y2="393"/>
      <line class="cls-56" x1="378.3" y1="396" x2="386.5" y2="389.2"/>
      <line class="cls-56" x1="374.6" y1="391.4" x2="382.9" y2="385.4"/>
      <line class="cls-56" x1="370.8" y1="386.4" x2="379.5" y2="381.1"/>
      <line class="cls-56" x1="368" y1="382.7" x2="376.2" y2="376.4"/>
      <line class="cls-56" x1="364.5" y1="377.7" x2="374" y2="372.2"/>
      <line class="cls-56" x1="361.6" y1="373.4" x2="371" y2="367.8"/>
      <line class="cls-56" x1="359" y1="369.3" x2="368.6" y2="363.8"/>
      <line class="cls-56" x1="356.2" y1="364.7" x2="366.4" y2="359.5"/>
      <line class="cls-56" x1="353.8" y1="360.7" x2="364" y2="355.2"/>
      <line class="cls-56" x1="351.3" y1="356.3" x2="361.2" y2="351.1"/>
      <line class="cls-56" x1="348.6" y1="351.1" x2="358.7" y2="347"/>
      <line class="cls-56" x1="346.6" y1="346.9" x2="357" y2="342.6"/>
      <line class="cls-56" x1="344.5" y1="342.4" x2="354.6" y2="338.2"/>
      <line class="cls-56" x1="342.5" y1="337.8" x2="353.1" y2="333.9"/>
      <line class="cls-56" x1="340.8" y1="333.3" x2="351" y2="329.5"/>
      <line class="cls-56" x1="338.9" y1="327.8" x2="348.3" y2="324.3"/>
      <line class="cls-56" x1="337.5" y1="323.2" x2="346.4" y2="319.8"/>
      <line class="cls-56" x1="336.2" y1="318.4" x2="345.3" y2="315.1"/>
      <path class="cls-56" d="M414.8,360.1c.4.3,6.4,4.9,6.4,4.9"/>
      <path class="cls-56" d="M417.9,356c.8.3,6.3,5,6.3,5"/>
      <line class="cls-56" x1="562.1" y1="484.1" x2="557.5" y2="494.3"/>
      <line class="cls-56" x1="568.2" y1="481.6" x2="581.5" y2="474.2"/>
      <line class="cls-56" x1="567.7" y1="478.8" x2="578.8" y2="472.5"/>
      <line class="cls-56" x1="569" y1="474.6" x2="575" y2="471.3"/>
      <line class="cls-56" x1="571" y1="483.7" x2="585.2" y2="476"/>
      <line class="cls-56" x1="572.9" y1="486.4" x2="587.6" y2="478.3"/>
      <line class="cls-56" x1="576" y1="488.8" x2="587.9" y2="482.1"/>
      <line class="cls-56" x1="577.9" y1="491.9" x2="585.1" y2="487.6"/>
      <g>
        <line class="cls-27" x1="566.7" y1="481.9" x2="567.3" y2="482.6"/>
        <line class="cls-32" x1="568.4" y1="483.9" x2="578.8" y2="496.3"/>
        <line class="cls-27" x1="579.3" y1="497" x2="579.9" y2="497.7"/>
      </g>
      <line class="cls-44" x1="572.7" y1="467.9" x2="589.7" y2="475.8"/>
      <line class="cls-44" x1="601.9" y1="475.5" x2="607" y2="468.6"/>
      <path class="cls-44" d="M918.1,661.3c1.1.5,7.8,3.2,7.8,3.2"/>
      <rect class="cls-63" x="822.1" y="590.8" width="4.4" height="8.6" transform="translate(-122.3 966) rotate(-57.2)"/>
      <rect class="cls-63" x="829.4" y="595.5" width="4.4" height="8.6" transform="translate(-122.9 974.2) rotate(-57.2)"/>
      <rect class="cls-63" x="836.7" y="600.2" width="4.4" height="8.6" transform="translate(-123.5 982.6) rotate(-57.2)"/>
      <rect class="cls-63" x="844" y="604.9" width="4.4" height="8.6" transform="translate(-124.1 990.8) rotate(-57.2)"/>
      <rect class="cls-63" x="851.3" y="609.6" width="4.4" height="8.6" transform="translate(-124.7 999.1) rotate(-57.2)"/>
      <rect class="cls-65" x="694.3" y="508.4" width="4.4" height="10.9" transform="translate(-112.7 821.2) rotate(-57.2)"/>
      <rect class="cls-65" x="685.1" y="502.5" width="4.4" height="10.9" transform="translate(-111.9 810.9) rotate(-57.2)"/>
      <polyline class="cls-45" points="674.5 497.1 683.8 503.1 681.4 506.8 667.4 497.8"/>
      <polyline class="cls-56" points="672 495.5 662 499.4 660.4 495.3 667 492.7"/>
      <polyline class="cls-56" points="667.4 492.4 657.4 496.3 655.7 492.2 662.4 489.5"/>
      <polyline class="cls-56" points="662.8 489.3 652.8 493.1 651.2 489 657.8 486.4"/>
      <polyline class="cls-56" points="657.5 486.5 647.5 490.4 645.9 486.3 652.5 483.7"/>
      <polygon class="cls-88" points="1409.4 752.1 1417.2 740 1430.2 746 1438.4 757.6 1489.4 770.2 1537.7 782.2 1569.4 790.1 1626.8 810.8 1720.4 846.4 1754.8 858.9 1760.2 861.3 1757 866.9 1604.6 811.5 1411.5 756.7 1409.4 752.1"/>
      <polyline class="cls-56" points="333.5 316.2 340.9 340.7 349.5 360.5 360.9 380.8 381.2 405.3 410.1 429.5 416.6 422.4"/>
      <polyline class="cls-56" points="472.8 337.6 479.7 330.4 487.1 287.7 482.7 313.2 486.6 291.7"/>
      <path class="cls-67" d="M519.2,309.4l-.2.7-2.6.2-1.5-5.3-5.5,2,1.8-3.4c.4.2,1.5,4.9,1.5,4.9l6-1.7"/>
      <polyline class="cls-67" points="518.4 311.1 520.3 307.4 511.1 303.8"/>
      <line class="cls-56" x1="650.2" y1="378.2" x2="655.1" y2="380.2"/>
      <line class="cls-56" x1="653.4" y1="379.5" x2="654" y2="382.6"/>
      <line class="cls-56" x1="651.1" y1="378.5" x2="652.8" y2="385.3"/>
      <line class="cls-56" x1="649.4" y1="379.5" x2="651.5" y2="388"/>
      <line class="cls-56" x1="648.3" y1="382.1" x2="650" y2="388.6"/>
      <line class="cls-56" x1="647.1" y1="384.9" x2="647.7" y2="387.3"/>
    </g>
    <g id="Layer_5" data-name="Layer 5">
      <path class="cls-40" d="M1763.3,1011.9s-247.7-57.1-269.1-63c-21.4-6-197.5-68-197.5-68,0,0-119.1-40.3-123.1-41.7s-182.5-37.6-189.9-39.7-119.2-25.4-123.7-25.8-114.8-35.8-114.8-35.8c0,0-133.4-50.4-176.2-75.9-42.8-25.5-97.6-55.6-146-112-48.4-56.4-71.8-115.3-71.8-115.3,0,0-27.4-70.8-32.8-102.5s-7.5-134-8-170.1c-.4-30-11.2-66.8-15.9-88.7"/>
      <line class="cls-40" x1="1382" y1="904.8" x2="1325.6" y2="891.1"/>
      <line class="cls-40" x1="1384" y1="893.8" x2="1224.5" y2="856"/>
      <path class="cls-40" d="M1759.6,1021.5l-86.5-19.6-93.2-21.8-81.4-20s-55.2-16.9-61.5-18.8c-6.3-1.9-110-38.7-118.5-42.7s-92.3-33.9-98.1-36.1c-26.3-10-88.7-31.7-88.7-31.7"/>
      <path class="cls-40" d="M1754.6,1029.2s-80.3-18.1-111.2-25.6c-30.9-7.6-143.2-33.7-184-46.4-40.8-12.7-139.1-49.9-155.9-56.9-16.8-7-138.9-57.6-138.9-57.6"/>
      <path class="cls-40" d="M1687.1,1027.7s-209.4-45.3-228.7-50.2c-19.3-5-119.6-40-156.3-57.7-39.4-18.9-143.9-60.2-152.4-63.3-159.8-57.8-135.8-50.1-147.1-52.3"/>
      <path class="cls-40" d="M1618,1009s-172.9-42-191.8-48.4c-38.7-13.2-90.5-36.3-109.6-45.4-15.1-7.2-156.6-63.2-203.9-80.7-47.3-17.5-70.6-22.3-70.6-22.3"/>
      <path class="cls-40" d="M1385.7,884.7s-191.9-42.5-206-44.9"/>
      <path class="cls-40" d="M1456.2,886.2s-61.9-15.8-78.6-17c-16.7-1.1-89.8-6.5-89.8-6.5"/>
      <path class="cls-40" d="M1459.4,874.2s-61.3-11.2-72.8-12.4c-11.6-1.2-89.3-5.7-104-6.1-14.7-.5-35.1-1.6-35.1-1.6"/>
      <path class="cls-40" d="M1461.7,864.5s-43.2-8.9-57.2-9.2c-13.9-.3-82.5,2.2-82.5,2.2"/>
      <path class="cls-40" d="M1600.4,857.2s-31.8-9.9-54.1-13.5-87.2-6-95.8-5.2-69.7,3.8-91.4,8.1-61.8,9.7-73.3,9.3"/>
      <path class="cls-40" d="M1753.6,896s-110.8-34.1-126.9-39.4c-16.1-5.3-61.1-22.2-89.6-23.7-28.5-1.5-85.6-5.2-101.4-4.3-15.9.9-46.4.2-64-.4s-94.9-13.1-102.9-14.6-245.9-53.8-271.7-56.3c-25.8-2.5-78.8-2.7-91.4-1.8s-93.8,2-124.1-7.8c-6.9-2.2-12.8-2.4-12.8-2.4"/>
      <path class="cls-40" d="M1374,844.4s-30,3.2-64.9,2.4-96.1-9.9-128.6-16.7c-32.6-6.8-111.7-21.5-119.3-24.6-7.6-3.1-144.4-29-152.1-30.7-7.7-1.6-68-18.9-73.2-20.7s-73.5-25.4-79.5-27.7c-6-2.4-53-18.8-57.7-21.5-4.6-2.7-104.9-33.3-161.3-75.1-50-37-71.3-44.1-110.6-95.6-45.2-59.1-52.4-93.7-82.3-170.8-8.7-22.4-32.8-90.8-31.6-115.6"/>
      <path class="cls-40" d="M1313.7,846.4s-80.6-13.1-93.2-15.9c-12.7-2.7-121.8-27.7-132.7-29s-84.1-17-104.3-19.2c-35-3.8-67.5-6.5-67.5-6.5"/>
      <path class="cls-40" d="M1431.7,839.2s-78.3,1.2-96.2-.4-75.8-10.6-92.6-13.9c-16.8-3.3-160.5-34-166.9-35.1s-81.2-8.7-89.9-8.3"/>
      <path class="cls-40" d="M1377.6,839.3c-1.4.3-83.6-11.5-101.8-16s-122.7-26.4-129.8-27.4-113.3-23.7-121.3-25.3c-8-1.5-72.1-15.5-95.5-15.5"/>
      <path class="cls-40" d="M1449.1,828.2c-2.9.3-57-1.5-77.8-5.1-20.9-3.5-140.6-28-154.6-30.5-14.1-2.4-138.7-28.1-147.9-30.1s-69.5-13.8-81.7-14.5c-12.2-.7-88.3.8-115.3,7.7"/>
      <path class="cls-40" d="M1452.1,828.6s-84.1-13.6-113.5-19.6c-29.4-6-176.7-37.8-190.6-39.5-13.9-1.7-97.2-20.2-109.1-21-11.8-.7-7-2.1-52-.4"/>
      <path class="cls-40" d="M1426,816.3s-70.9-13.5-81.9-15.2c-11-1.7-116.6-25.2-134.3-27.9s-131.6-26.4-140.2-28.1c-67.6-13.5-134.9,3.5-153.9,3-18.9-.5-46.7,6-107.1-8.6-60.7-14.7-69.2-19.4-69.2-19.4"/>
      <path class="cls-40" d="M1433.1,810.1s-58.2-12.2-93.8-19.5c-35.6-7.3-197.3-42-222.3-46.1s-95.3-6.2-107.7-4.5"/>
      <path class="cls-40" d="M1577.8,840.1s-79.8-24-103.2-29.2c-23.4-5.2-235.5-49.5-237.7-49.8s-116.8-23.9-135.6-26.9c-34.8-5.6-66.9-3.4-135.7,7.8"/>
      <path class="cls-40" d="M1406.9,788.5c-1.9-.3-232.2-49.8-264.3-54.4-33.6-4.8-61-4.7-88.2-2.5"/>
      <path class="cls-40" d="M1556.6,833.8s-71.3-28.8-97.6-37c-26.3-8.2-79.1-24.2-105.8-29.7s-154.7-30.5-165.9-33.5c-29.5-7.9-91.1-10.3-111.5-8.5-20.4,1.9-82.4,12.7-82.4,12.7"/>
      <path class="cls-40" d="M1439.8,790.7s-93.9-35.2-101.8-37.9-131.6-28.9-153.5-30.3-85.7-.8-99,2.1"/>
      <path class="cls-40" d="M1470.6,800.9s-69.5-33.9-93.5-41.9c-24-8-59.2-21.9-81.4-26.6s-95.9-19.4-114.4-20.2-90.4,1-138.5,7c-48,6-109.1,14.1-124,14.8-14.8.7-88.8,5.3-144.5-8.9-55.7-14.2-84.1-23.8-84.1-23.8"/>
      <path class="cls-40" d="M1316.6,738.1c-2.2-.2-89.8-31.7-93.9-33.8"/>
      <path class="cls-40" d="M1178.4,688.7s-48.3-17.3-69.8-22.2c-21.5-4.8-71.3-13.8-104.5-22-25.1-6.2-104.4-38.4-132.2-53.6-27.8-15.2-100.2-57.6-117.5-69.9-17.3-12.3-149.8-97.7-162.3-109.9-12.5-12.3-80.3-61.9-87.9-66.8-7.6-4.9-86-67.9-111.1-94.3-16.3-17.1-40.8-51.9-52.8-78.5-12-26.6-35-90.7-35-90.7"/>
      <path class="cls-40" d="M394.8,252.6s-48.6-53.8-58.7-73.5c-10.1-19.7-17.4-28.9-38.3-96.4"/>
      <path class="cls-40" d="M446.4,297.6s23.7,18.3,43.1,28.7,155.4,79.6,155.4,79.6"/>
      <path class="cls-40" d="M649.3,395.8s-76.7-37.5-115.2-46.4"/>
      <path class="cls-40" d="M741.8,455.1s57.4,30.3,68.7,37,66.6,45.9,77.4,53.8,57,40.3,72.2,49.8c18.2,11.4,99.6,50.2,118.2,58.6,13.7,6.2,57,19.7,57,19.7"/>
      <path class="cls-40" d="M1159.5,682.6s-85.9-40.6-92.1-44c-6.2-3.4-88.8-45.5-100.7-53.1s-67.7-42.7-86.6-57.3c-18.9-14.5-59.9-43.7-72.5-51.2s-59-31.1-59-31.1"/>
      <path class="cls-40" d="M1182.6,711.5s-153.8-35.4-163.1-37.4c-9.2-2-67.8-17.5-88.8-27.2s-85.3-44.4-122.8-72.8"/>
      <line class="cls-40" x1="733.2" y1="526.4" x2="503.1" y2="378.9"/>
      <path class="cls-40" d="M1000.8,724.2s-74.5,10.3-116.3-3.7c-41.8-14-107.2-44.4-125.1-52.9s-167.8-76.2-180.8-84c-13-7.8-112.1-70.4-132.2-89"/>
      <path class="cls-40" d="M812.9,692.2s-33.5-23.1-49.7-32-92.8-45.3-111.1-52.3c-18.3-7-85.1-40-100.8-50.2s-52.3-35.5-52.3-35.5"/>
      <path class="cls-40" d="M1052,717.8s-107.2,7.9-158.8-19.6"/>
      <path class="cls-40" d="M1156.9,711.3s-91.9.9-122.7-3c-30.8-3.9-79.8-10.5-126-40"/>
      <path class="cls-40" d="M900.7,683.8c25.9,13.4,94.9,33.6,153.7,26.3"/>
      <path class="cls-40" d="M1685.4,1033.6s-166.5-24.6-264-59.8c-97.5-35.2-318.7-113-318.7-113l-220.4-82.7"/>
      <path class="cls-40" d="M1849.7,1056.3c-153-4.4-301.8-29.9-487.8-94.1-186.1-64.2-641.3-224.2-641.3-224.2,0,0-87.8-27.2-136.2-51.8-18.7-9.5-72.5-42-108.1-72.1-54.2-45.8-92.6-95.6-108-125.6-27.4-53.3-53.6-112.3-65.6-188.3-8.3-52.3-30.1-176.2-38.3-210.6"/>
      <path class="cls-40" d="M405.1,542.2c-5.5-11.3-34.9-59-41.9-82.3"/>
      <path class="cls-40" d="M554.9,669.4c.6.4,80.6,30.7,117.7,39.9"/>
      <path class="cls-40" d="M1822.8,1062.1s-156.5-8.7-251.9-32.6c-95.4-23.9-244-71.8-285.7-85.8s-270.4-94.2-270.4-94.2l-293.7-103.4s-103.4-35.7-116.9-42.7-71.6-36.8-93.5-53.6c-21.9-16.8-100.8-85.6-127.9-124.7-27.1-39.1-65.4-104.6-88.5-228.2-23.1-123.6-38.7-210.2-38.7-210.2"/>
      <line class="cls-40" x1="828.2" y1="783.8" x2="718.2" y2="737.2"/>
      <path class="cls-40" d="M588.8,695.5s-176.7-59.7-225.9-158.4c-49.2-98.8-146.9-441.9-146.9-441.9"/>
      <path class="cls-40" d="M499,678s-92.8-56.4-109.5-101.8"/>
      <path class="cls-40" d="M428.9,471.4c-33.2-23.8-71.1-66.4-87.1-115.8"/>
      <path class="cls-40" d="M435.2,457.9s-77.9-48.3-98.7-117.6"/>
      <line class="cls-40" x1="488.1" y1="465.7" x2="577.4" y2="507"/>
      <line class="cls-40" x1="562.6" y1="538.7" x2="495.6" y2="506.2"/>
      <line class="cls-40" x1="570.5" y1="522.8" x2="484" y2="481.7"/>
      <path class="cls-40" d="M1752,888.8s-249.2-87.1-346.2-118.1"/>
    </g>
    <g id="rail">
      <g>
        <path class="cls-59" d="M1761.8,1012s-1-.2-3-.7"/>
        <path class="cls-54" d="M1752.8,1009.9c-44.5-10.3-239.6-55.7-258.6-61-17.3-4.8-21.1-4.9-112.7-37.1-22.6-7.9-50-18.6-84.8-30.8,0,0-118.8-40.1-122.7-41.5s-182.8-37.8-190.2-39.9c-7.4-2-119.2-25.4-123.7-25.8-4.5-.5-114.8-35.8-114.8-35.8,0,0-133.4-50.4-176.2-75.9-42.8-25.5-97.6-55.6-146-112-48.4-56.4-71.8-115.3-71.8-115.3,0,0-27.4-70.8-32.8-102.5s-7.5-134-8-170.1c-.4-27.4-9.4-60.4-14.5-82.6"/>
        <path class="cls-59" d="M295.5,76.5c-.2-1-.5-2-.7-3"/>
      </g>
      <g>
        <line class="cls-59" x1="1382" y1="904.8" x2="1379" y2="904.1"/>
        <line class="cls-30" x1="1373.4" y1="902.7" x2="1331.4" y2="892.5"/>
        <line class="cls-59" x1="1328.6" y1="891.8" x2="1325.6" y2="891.1"/>
      </g>
      <g>
        <line class="cls-59" x1="1384" y1="893.8" x2="1381" y2="893.1"/>
        <line class="cls-42" x1="1375.1" y1="891.8" x2="1237" y2="860"/>
        <line class="cls-59" x1="1234.1" y1="859.3" x2="1231.1" y2="858.6"/>
      </g>
      <g>
        <line class="cls-59" x1="1759.9" y1="1021.4" x2="1756.9" y2="1020.8"/>
        <path class="cls-46" d="M1750.8,1019.4l-77.7-17.5-93.2-21.8-81.4-20s-55.2-16.9-61.5-18.8c-6.3-1.9-110-38.7-118.5-42.7s-92.3-33.9-98.1-36.1c-21.4-8.2-66.3-24.1-82.3-29.8"/>
        <path class="cls-59" d="M1135.1,831.5c-1.9-.7-2.9-1-2.9-1"/>
      </g>
      <g>
        <path class="cls-59" d="M1757.7,1028.8s-1.1-.2-3-.6"/>
        <path class="cls-52" d="M1748.7,1026.9c-22.4-4.8-80.6-17.3-105.3-23.4-30.9-7.6-143.2-33.7-184-46.4-40.8-12.7-139.1-49.9-155.9-56.9-14.7-6-109.5-45.9-133.8-56.1"/>
        <path class="cls-59" d="M1166.9,843c-1.8-.8-2.8-1.2-2.8-1.2"/>
      </g>
      <g>
        <path class="cls-59" d="M1686.7,1027.5s-1.1-.2-3-.7"/>
        <path class="cls-52" d="M1677.7,1025.5c-40.2-8.7-202.4-43.7-219.4-48.1-19.3-5-119.6-40-156.3-57.7-39.4-18.9-143.9-60.2-152.4-63.3-115-41.6-134.8-49.3-141.1-51.1"/>
        <path class="cls-59" d="M1005.5,804.7c-.7-.1-1.6-.2-3-.5"/>
      </g>
      <g>
        <path class="cls-59" d="M1617.7,1006.3c-1-.2-2-.4-3-.6"/>
        <path class="cls-14" d="M1608.6,1004.5c-54.7-11-162.9-37.8-182.5-44.4-38.7-13.2-90.3-35.4-109.4-44.5-15.1-7.2-156.6-63.2-203.9-80.7-33.4-12.4-54.9-18.4-64.6-20.9"/>
        <path class="cls-59" d="M1045.2,813.1c-2-.5-3-.7-3-.7"/>
      </g>
      <g>
        <path class="cls-59" d="M1385.7,884.7s-1.1-.2-3-.6"/>
        <path class="cls-54" d="M1376.6,882.8c-34.7-7.4-159.2-33.7-189.9-39.9"/>
        <path class="cls-59" d="M1183.7,842.3c-1.4-.3-2.4-.5-3-.6"/>
      </g>
      <g>
        <path class="cls-59" d="M1458,885.8s-1.1-.3-3-.7"/>
        <path class="cls-41" d="M1449,883.7c-18.2-4.3-58.6-13.6-71.4-14.4-13.7-.9-65.6-3.9-83.5-4.9"/>
        <path class="cls-59" d="M1291,864.1c-2-.1-3.1-.2-3.1-.2"/>
      </g>
      <g>
        <path class="cls-59" d="M1460.1,875.7s-1.1-.2-3-.5"/>
        <path class="cls-34" d="M1450.9,874c-17.6-3.2-54.9-9.8-63.7-10.7-11.6-1.2-89.3-5.7-104-6.1-9.6-.3-21.7-.9-28.9-1.2"/>
        <path class="cls-59" d="M1251.2,855.8c-1.9,0-3.1-.2-3.1-.2"/>
      </g>
      <g>
        <path class="cls-59" d="M1463.3,864.8s-1.1-.2-3-.6"/>
        <path class="cls-8" d="M1454.4,863.1c-13.8-2.7-39.9-7.5-49.9-7.7-11.4-.2-60.7,2.4-78,3.4"/>
        <path class="cls-59" d="M1323.6,858.9c-2,.1-3.1.2-3.1.2"/>
      </g>
      <g>
        <path class="cls-59" d="M1600.4,857.2s-1.1-.3-2.9-.9"/>
        <path class="cls-2" d="M1591.6,854.5c-11-3.2-30.3-8.5-45.3-10.9-22.3-3.6-87.2-6-95.8-5.2s-69.7,3.8-91.4,8.1c-18.8,3.8-51.3,9.5-67.1,10.7"/>
        <path class="cls-59" d="M1288.9,857.4c-1.2,0-2.2,0-3.1,0"/>
      </g>
      <g>
        <path class="cls-59" d="M1753.6,896s-1-.3-2.9-.9"/>
        <path class="cls-22" d="M1744.7,893.3c-26.6-8.2-104.8-32.3-118.1-36.7-16.1-5.3-61.1-22.2-89.6-23.7s-85.6-5.2-101.4-4.3c-15.9.9-46.4.2-64-.4s-94.9-13.1-102.9-14.6c-8-1.5-245.9-53.8-271.7-56.3s-78.8-2.7-91.4-1.8c-12.6.9-93.8,2-124.1-7.8-2.4-.8-4.7-1.3-6.7-1.7"/>
        <path class="cls-59" d="M771.7,745.5c-1.9-.2-3.1-.2-3.1-.2"/>
      </g>
      <g>
        <path class="cls-59" d="M1374,844.4s-1.1.1-3.1.3"/>
        <path class="cls-54" d="M1364.8,845.2c-11.5.9-32.5,2.1-55.7,1.5-34.9-.8-96.1-9.9-128.6-16.7-32.6-6.8-111.7-21.5-119.3-24.6s-144.4-29-152.1-30.7c-7.7-1.6-68-18.9-73.2-20.7s-73.5-25.4-79.5-27.7c-6-2.4-53-18.8-57.7-21.5-4.6-2.7-104.9-33.3-161.3-75.1-50-37-71.3-44.1-110.6-95.6-45.2-59.1-52.4-93.7-82.3-170.8-8.1-20.8-29.4-81-31.5-109.4"/>
        <path class="cls-59" d="M312.8,251c0-1.1,0-2.1,0-3.1"/>
      </g>
      <g>
        <path class="cls-59" d="M1313.1,846.9s-1.1-.2-3-.5"/>
        <path class="cls-52" d="M1304.1,845.3c-21.3-3.6-73.6-12.6-83.7-14.8-12.7-2.7-121.8-27.7-132.7-29s-84.1-17-104.3-19.2c-25.8-2.8-50.4-5-61.4-6"/>
        <path class="cls-59" d="M918.9,776.2c-2-.2-3.1-.3-3.1-.3"/>
      </g>
      <g>
        <path class="cls-59" d="M1431.7,839.2s-1.1,0-3.1,0"/>
        <path class="cls-26" d="M1422.6,839.4c-21.2.3-72.9.8-87-.5-17.9-1.6-75.8-10.6-92.6-13.9s-160.5-34-166.9-35.1c-5.7-1-63.5-6.9-83.8-8.1"/>
        <path class="cls-59" d="M989.2,781.5c-1.4,0-2.4,0-3.1,0"/>
      </g>
      <g>
        <path class="cls-59" d="M1377.6,839.3c-.2,0-1.2,0-3.1-.3"/>
        <path class="cls-20" d="M1368.5,838.2c-22.2-3-78-11.3-92.6-14.9-18.2-4.5-122.7-26.4-129.8-27.4-7.2-1-113.3-23.7-121.3-25.3-7.4-1.4-62.4-13.4-89.3-15.3"/>
        <path class="cls-59" d="M932.3,755.2c-1.1,0-2.1,0-3.1,0"/>
      </g>
      <g>
        <path class="cls-59" d="M1449.1,828.2c-.3,0-1.4,0-3.1,0"/>
        <path class="cls-3" d="M1439.9,828c-16.9-.5-52.6-2.2-68.7-4.9-20.9-3.5-140.6-28-154.6-30.5-14.1-2.4-138.7-28.1-147.9-30.1s-69.5-13.8-81.7-14.5c-11.4-.6-78.5.3-109.3,6.1"/>
        <path class="cls-59" d="M874.6,754.8c-1,.2-2,.5-3,.7"/>
      </g>
      <g>
        <path class="cls-59" d="M1452.1,828.6s-1.1-.2-3-.5"/>
        <path class="cls-6" d="M1442.9,827.1c-22.6-3.7-80.9-13.3-104.4-18.1-29.4-6-176.7-37.8-190.6-39.5s-97.2-20.2-109.1-21c-11.3-.7-7.5-2-45.8-.7"/>
        <path class="cls-59" d="M990,748c-1,0-2,0-3.1.1"/>
      </g>
      <g>
        <path class="cls-59" d="M1426,816.3s-1.1-.2-3-.6"/>
        <path class="cls-52" d="M1417,814.6c-19.5-3.7-64.3-12.2-72.8-13.5-11-1.7-116.6-25.2-134.3-27.9s-131.6-26.4-140.2-28.1c-67.6-13.5-134.9,3.5-153.9,3-18.9-.5-46.7,6-107.1-8.6-38.2-9.2-55.8-14.5-63.5-17.2"/>
        <path class="cls-59" d="M742.2,721.4c-2.2-.8-2.8-1.2-2.8-1.2"/>
      </g>
      <g>
        <path class="cls-59" d="M1433.1,810.1s-1.1-.2-3-.6"/>
        <path class="cls-51" d="M1424.1,808.2c-17.7-3.7-57.8-12.1-84.7-17.6-35.6-7.3-197.3-42-222.3-46.1-22.2-3.6-80.2-5.7-101.6-5"/>
        <path class="cls-59" d="M1012.3,739.6c-1.2,0-2.3.2-3.1.3"/>
      </g>
      <g>
        <path class="cls-59" d="M1577.4,840.7s-1.1-.3-2.9-.9"/>
        <path class="cls-9" d="M1568.6,838c-21.4-6.4-75.7-22.4-94.4-26.5-23.4-5.2-235.5-49.5-237.7-49.8-2.2-.2-116.8-23.9-135.6-26.9-33.8-5.4-65-3.5-129.7,6.8"/>
        <path class="cls-59" d="M968.3,742.2c-1,.2-2,.3-3,.5"/>
      </g>
      <g>
        <path class="cls-59" d="M1406.6,788.6c-.1,0-1.2-.2-3-.6"/>
        <path class="cls-20" d="M1397.5,786.7c-43.1-9.2-226.6-48.5-255-52.6-31-4.4-56.8-4.7-82.1-2.9"/>
        <path class="cls-59" d="M1057.3,731.4c-1,0-2,.2-3.1.2"/>
      </g>
      <g>
        <path class="cls-59" d="M1556.1,834.3s-1-.4-2.8-1.2"/>
        <path class="cls-54" d="M1547.6,830.9c-19.7-7.9-68.3-27.1-89-33.5-26.3-8.2-79.1-24.2-105.8-29.7s-154.7-30.5-165.9-33.5c-29.5-7.9-91.1-10.3-111.5-8.5-16.5,1.5-60.2,8.9-76.3,11.7"/>
        <path class="cls-59" d="M996,737.8c-1.9.3-3,.5-3,.5"/>
      </g>
      <g>
        <path class="cls-59" d="M1439.8,790.7s-1-.4-2.9-1.1"/>
        <path class="cls-3" d="M1431.3,787.5c-23.4-8.8-86.8-32.5-93.2-34.7-7.9-2.7-131.6-28.9-153.5-30.3-19.7-1.3-72.8.7-94.5,2.3"/>
        <path class="cls-59" d="M1087,725c-1.2,0-2.2.2-3.1.3"/>
      </g>
      <g>
        <path class="cls-59" d="M1470.3,801.3s-1-.5-2.8-1.4"/>
        <path class="cls-54" d="M1462.1,797.2c-19.1-9.3-66.1-32-85-38.3-24-8-59.5-21.8-81.7-26.5s-95.6-19.5-114.1-20.2-90.4,1-138.5,7-109.1,14.1-124,14.8c-14.8.7-88.8,5.3-144.5-8.9-41.1-10.5-67.3-18.5-78.2-21.9"/>
        <path class="cls-59" d="M693.2,702.2c-1.9-.6-2.9-1-2.9-1"/>
      </g>
      <g>
        <path class="cls-59" d="M1314.3,737.4c-.2,0-1.2-.3-2.9-.9"/>
        <path class="cls-19" d="M1305.5,734.4c-19-6.7-63.1-22.9-79.5-28.5"/>
        <path class="cls-59" d="M1223,705c-1.4-.5-2.4-.8-2.9-.9"/>
      </g>
      <g>
        <path class="cls-59" d="M1179.1,689.2s-1-.4-2.9-1"/>
        <path class="cls-41" d="M1170.4,686.1c-15.1-5.3-46-16-61.9-19.5-21.5-4.8-71.3-13.8-104.5-22-25.1-6.2-104.4-38.4-132.2-53.6-27.8-15.2-100.2-57.6-117.5-69.9-17.3-12.3-149.8-97.7-162.3-109.9-12.5-12.3-80.3-61.9-87.9-66.8s-86-67.9-111.1-94.3c-16.3-17.1-40.8-51.9-52.8-78.5-9.8-21.8-27-68.6-32.9-84.9"/>
        <path class="cls-59" d="M306.2,83.6c-.7-1.9-1-2.9-1-2.9"/>
      </g>
      <g>
        <path class="cls-59" d="M394.8,252.6s-.7-.8-2-2.3"/>
        <path class="cls-22" d="M388.7,245.6c-13.4-15.2-44.6-51.2-52.5-66.6-9.8-19.1-17-28.4-36.4-90.5"/>
        <path class="cls-59" d="M298.8,85.6c-.3-1-.6-1.9-.9-2.9"/>
      </g>
      <g>
        <path class="cls-59" d="M446.4,297.6s.9.7,2.5,1.9"/>
        <path class="cls-28" d="M453.7,303c8.5,6.2,23.1,16.4,35.9,23.3,17.1,9.2,125.8,63.7,151.5,76.6"/>
        <path class="cls-59" d="M643.7,404.2c1.8.9,2.8,1.4,2.8,1.4"/>
      </g>
      <g>
        <path class="cls-59" d="M651.6,396.2s-1-.5-2.8-1.3"/>
        <path class="cls-53" d="M643.1,392.2c-20.1-9.4-71.2-32.6-102.9-41.3"/>
        <path class="cls-59" d="M537.1,350.1c-1-.3-2-.5-3-.7"/>
      </g>
      <g>
        <path class="cls-59" d="M741.8,455.1s1,.5,2.7,1.4"/>
        <path class="cls-2" d="M749.9,459.4c16.2,8.6,51.9,27.6,60.6,32.7,11.3,6.7,66.6,45.9,77.4,53.8,10.8,7.9,57,40.3,72.2,49.8,18.2,11.4,99.6,50.2,118.2,58.6,10.6,4.8,38.8,13.9,51.2,17.9"/>
        <path class="cls-59" d="M1132.4,673c1.9.6,2.9.9,2.9.9"/>
      </g>
      <g>
        <path class="cls-59" d="M1159.4,682.3s-1-.5-2.8-1.3"/>
        <path class="cls-2" d="M1151.1,678.4c-21.7-10.2-78.7-37-83.8-39.8-6.2-3.4-88.8-45.5-100.7-53.1s-67.7-42.7-86.6-57.3c-18.9-14.5-59.9-43.7-72.5-51.2-10-5.9-42-22.4-54.9-28.9"/>
        <path class="cls-59" d="M750,446.7c-1.7-.9-2.7-1.4-2.7-1.4"/>
      </g>
      <g>
        <path class="cls-59" d="M1182.1,712.3s-1.1-.2-3-.7"/>
        <path class="cls-9" d="M1173.2,710.2c-32.9-7.8-145.8-34.3-153.6-36-9.2-2-67.8-17.5-88.8-27.2-20.2-9.3-80.9-42.1-119-69.8"/>
        <path class="cls-59" d="M809.2,575.3c-.8-.6-1.7-1.2-2.5-1.8"/>
      </g>
      <g>
        <line class="cls-59" x1="733.2" y1="526.4" x2="730.6" y2="524.7"/>
        <line class="cls-14" x1="725.3" y1="521.4" x2="508.3" y2="382.2"/>
        <line class="cls-59" x1="505.7" y1="380.5" x2="503.1" y2="378.9"/>
      </g>
      <g>
        <path class="cls-59" d="M1000.8,724.2s-1.1.2-3,.4"/>
        <path class="cls-52" d="M991.7,725.3c-21.2,2.2-74.3,6.2-107.2-4.8-41.8-14-107.2-44.4-125.1-52.9s-167.8-76.2-180.8-84c-12.2-7.3-100-62.8-127.6-85"/>
        <path class="cls-59" d="M448.6,496.6c-.9-.7-1.6-1.4-2.3-2"/>
      </g>
      <g>
        <path class="cls-59" d="M812.9,692.2s-.9-.6-2.5-1.7"/>
        <path class="cls-20" d="M805.3,687c-10.9-7.3-30.7-20.5-42-26.8-16.2-8.9-92.8-45.3-111.1-52.3s-85.1-40-100.8-50.2c-12.1-7.8-36.6-24.7-47.2-32"/>
        <path class="cls-59" d="M501.6,524c-1.6-1.1-2.5-1.8-2.5-1.8"/>
      </g>
      <g>
        <path class="cls-59" d="M1052.1,718.2s-1.1,0-3.1.2"/>
        <path class="cls-6" d="M1042.8,718.6c-26,1.1-100.5,2.1-144.1-17.7"/>
        <path class="cls-59" d="M895.9,699.6c-.9-.5-1.8-.9-2.7-1.4"/>
      </g>
      <g>
        <path class="cls-59" d="M1157.1,712.2h-3.1"/>
        <path class="cls-3" d="M1148,712.1c-24.1-.1-88.9-.7-113.8-3.9-29.7-3.8-76.1-10-120.8-36.7"/>
        <path class="cls-59" d="M910.9,669.9c-.9-.5-1.7-1.1-2.6-1.6"/>
      </g>
      <g>
        <path class="cls-59" d="M900.7,683.8c.9.5,1.8.9,2.8,1.4"/>
        <path class="cls-15" d="M908.9,687.7c29.2,12.5,87.4,27.6,139.3,22.8"/>
        <path class="cls-59" d="M1051.2,710.2c1-.1,2-.2,3.1-.3"/>
      </g>
      <g>
        <path class="cls-59" d="M1685.4,1033.6s-1.1-.2-3-.5"/>
        <path class="cls-52" d="M1676.3,1032.2c-36-5.7-171-28.1-254.9-58.4-97.5-35.2-318.7-113-318.7-113l-214.7-80.6"/>
        <line class="cls-59" x1="885.2" y1="779.1" x2="882.3" y2="778.1"/>
      </g>
      <g>
        <path class="cls-59" d="M1849.7,1056.3c-1,0-2.1,0-3.1,0"/>
        <path class="cls-20" d="M1840.5,1056c-149.8-5.1-296.3-30.9-478.6-93.8-186.1-64.2-641.3-224.2-641.3-224.2,0,0-87.8-27.2-136.2-51.8-18.7-9.5-72.5-42-108.1-72.1-54.2-45.8-92.6-95.6-108-125.6-27.4-53.3-53.6-112.3-65.6-188.3-7.9-49.6-27.9-163.6-36.9-204.6"/>
        <path class="cls-59" d="M265,92.6c-.2-1.1-.5-2.1-.7-3"/>
      </g>
      <g>
        <path class="cls-59" d="M405.1,542.2c-.4-.8-.8-1.7-1.4-2.7"/>
        <path class="cls-35" d="M400.5,533.7c-9.1-16.2-27.1-46.8-34.8-66.9"/>
        <path class="cls-59" d="M364.6,463.7c-.4-1-.7-2-.9-2.9"/>
      </g>
      <g>
        <path class="cls-59" d="M554.9,669.4c0,0,1.1.4,2.9,1.1"/>
        <path class="cls-6" d="M563.6,672.7c20.4,7.7,72.1,26.6,103.1,35"/>
        <path class="cls-59" d="M669.7,708.5c1,.3,2,.5,3,.8"/>
      </g>
      <g>
        <path class="cls-59" d="M1822.8,1062.1s-1.1,0-3.1-.2"/>
        <path class="cls-20" d="M1813.6,1061.6c-34.9-2.3-161.1-11.6-242.7-32.1-95.4-23.9-244-71.8-285.7-85.8-41.8-14-270.4-94.2-270.4-94.2l-293.7-103.4s-103.4-35.7-116.9-42.7c-13.6-6.9-71.6-36.8-93.5-53.6-21.9-16.8-100.8-85.6-127.9-124.7-27.1-39.1-65.4-104.6-88.5-228.2-19.5-104.5-33.7-182.4-37.6-204.1"/>
        <path class="cls-59" d="M256.1,89.8c-.4-2-.5-3-.5-3"/>
      </g>
      <g>
        <line class="cls-59" x1="828.2" y1="783.8" x2="825.4" y2="782.6"/>
        <line class="cls-31" x1="819.9" y1="780.3" x2="723.7" y2="739.6"/>
        <line class="cls-59" x1="721" y1="738.5" x2="718.2" y2="737.2"/>
      </g>
      <g>
        <path class="cls-59" d="M588.8,695.5s-1-.3-2.9-1"/>
        <path class="cls-9" d="M580.2,692.4c-36.1-13.4-174.6-69.7-217.2-155.3-45.4-91.1-132-390.2-145.2-435.9"/>
        <path class="cls-59" d="M216.9,98.2c-.6-1.9-.8-2.9-.8-2.9"/>
      </g>
      <g>
        <path class="cls-59" d="M499.7,677.8s-.9-.6-2.6-1.6"/>
        <path class="cls-7" d="M491.8,672.8c-21.6-14-81.4-55-99.1-91"/>
        <path class="cls-59" d="M391.3,578.9c-.4-1-.8-1.9-1.1-2.8"/>
      </g>
      <g>
        <path class="cls-59" d="M428.9,471.4c-.8-.6-1.6-1.2-2.5-1.8"/>
        <path class="cls-9" d="M421.5,465.9c-29.9-23.5-62-61.1-77.7-104.4"/>
        <path class="cls-59" d="M342.8,358.6c-.3-1-.7-1.9-1-2.9"/>
      </g>
      <g>
        <path class="cls-59" d="M435.2,457.9s-.9-.6-2.6-1.7"/>
        <path class="cls-4" d="M427.7,452.8c-19.4-13.6-70.6-53.5-89.3-106.7"/>
        <path class="cls-59" d="M337.4,343.2c-.3-1-.6-2-.9-2.9"/>
      </g>
      <g>
        <line class="cls-59" x1="488.1" y1="465.7" x2="490.9" y2="467"/>
        <line class="cls-51" x1="496.4" y1="469.6" x2="571.8" y2="504.5"/>
        <line class="cls-59" x1="574.6" y1="505.8" x2="577.4" y2="507"/>
      </g>
      <g>
        <line class="cls-59" x1="562.6" y1="538.7" x2="559.8" y2="537.4"/>
        <line class="cls-14" x1="554.2" y1="534.7" x2="501.2" y2="508.9"/>
        <line class="cls-59" x1="498.4" y1="507.5" x2="495.6" y2="506.2"/>
      </g>
      <g>
        <line class="cls-59" x1="570.5" y1="522.8" x2="567.7" y2="521.5"/>
        <line class="cls-31" x1="562.3" y1="518.9" x2="489.4" y2="484.3"/>
        <line class="cls-59" x1="486.8" y1="483" x2="484" y2="481.7"/>
      </g>
      <g>
        <path class="cls-59" d="M1752,888.8s-1-.3-2.9-1"/>
        <path class="cls-46" d="M1743.3,885.7c-44.6-15.6-247.7-86.6-337.3-115.6"/>
        <path class="cls-59" d="M1403,769.2c-1-.3-2-.6-2.9-.9"/>
      </g>
    </g>
    <g id="road_bg" data-name="road bg">
      <path class="cls-38" d="M1796.5,739.6s.2,12.6,1.2,17.4c5.9,25.8,37.7,85.6,39.4,93.4.8,3.6-26.3,48.6-26.3,48.6,0,0-2.3,26.7-1.6,36.9"/>
      <path class="cls-17" d="M1815.9,1054.8s-10.5-108.8-9.5-115.5c0,0-15.3-22.1-24.5-37.2-5.3-8.8-19.6-33.1-30.5-37.8s-154.7-56-181.7-64.8c-27-8.8-85.1-22.9-101.5-24.3-16.4-1.4-39-11.5-54.9-17.2s-131.3-70.3-146.4-77.2-94.7-42.6-108.9-49-128.7-73.9-128.7-73.9c-.9.6-246.5-125.1-253.5-127.8-7.3-2.8-127.5-80.9-138.7-85.7s-182-71-191.7-76.9-54-39-71.8-60c-10.1-12-26.9-48.5-35.7-73.1-8.7-24.4-16.2-66.7-16.2-66.7"/>
      <line class="cls-21" x1="989.3" y1="466.9" x2="960.3" y2="525.8"/>
      <line class="cls-43" x1="507.6" y1="297.5" x2="494.2" y2="320.3"/>
      <line class="cls-43" x1="497.5" y1="293.3" x2="487" y2="316.5"/>
      <path class="cls-43" d="M493.6,289.9c0,.5-5.7,24.8-5.7,24.8"/>
      <line class="cls-43" x1="503.3" y1="293.7" x2="490.5" y2="318.2"/>
      <path class="cls-23" d="M1796.5,739.6s.2,12.6,1.2,17.4c5.9,25.8,37.7,85.6,39.4,93.4.8,3.6-26.3,48.6-26.3,48.6,0,0-2.3,26.7-1.6,36.9"/>
      <path class="cls-10" d="M1815.9,1054.8s-10.6-109.1-9.6-115.8c0,0-15.2-21.8-24.5-37-5.3-8.8-19.6-33.1-30.5-37.8s-154.7-56-181.7-64.8c-27-8.8-85.1-22.9-101.5-24.3-16.4-1.4-39-11.5-54.9-17.2s-131.3-70.3-146.4-77.2-94.7-42.6-108.9-49-128.7-73.9-128.7-73.9c-.9.6-246.5-125.1-253.5-127.8-7.3-2.8-127.5-80.9-138.7-85.7s-182-71-191.7-76.9-54-39-71.8-60c-10.1-12-26.9-48.5-35.7-73.1-8.7-24.4-16.2-66.7-16.2-66.7"/>
      <line class="cls-39" x1="989.3" y1="466.9" x2="960.3" y2="525.8"/>
      <line class="cls-36" x1="507.6" y1="297.5" x2="494.2" y2="320.3"/>
      <line class="cls-29" x1="503.3" y1="293.7" x2="489.5" y2="317.8"/>
      <path class="cls-57" d="M1796.5,739.6s.2,12.6,1.2,17.4c5.9,25.8,37.7,85.6,39.4,93.4.8,3.6-26.3,48.6-26.3,48.6,0,0-2.3,26.7-1.6,36.9"/>
      <line class="cls-57" x1="989.3" y1="466.9" x2="960.3" y2="525.8"/>
      <path class="cls-57" d="M1817.3,1067.7c-11.9-122.1-12-121.6-10.9-128.7,0,0-15.2-21.8-24.5-37-5.3-8.8-19.6-33.1-30.5-37.8s-154.7-56-181.7-64.8c-27-8.8-85.1-22.9-101.5-24.3-16.4-1.4-39-11.5-54.9-17.2s-131.3-70.3-146.4-77.2-94.7-42.6-108.9-49-128.7-73.9-128.7-73.9c-.9.6-246.5-125.1-253.5-127.8-7.3-2.8-127.5-80.9-138.7-85.7s-182-71-191.7-76.9-54-39-71.8-60c-10.1-12-26.9-48.5-35.7-73.1-8.7-24.4-16.2-66.7-16.2-66.7"/>
      <path class="cls-36" d="M493.5,314.6l-5.1-3.8,5.2-20.9c0,.5-6.5,27.1-6.5,27.1"/>
      <rect class="cls-88" x="488.5" y="297.9" width="14.2" height="6.1" transform="translate(88.4 713.7) rotate(-76.7)"/>
      <polygon class="cls-86" points="1856.8 1052.3 1808.6 1053.3 1808.6 1070.9 1848.8 1067.7 1856.8 1052.3"/>
    </g>
    <g id="boundry">
      <polyline class="cls-1" points="556.1 450.9 569.3 461 562.1 484.1 496.1 450.9 514.5 409.6 518.9 414.5 526 433.8 545.8 446.1"/>
      <polyline class="cls-16" points="1806.6 1046.8 1803.7 1033.5 1769.2 1033.9"/>
      <polyline class="cls-16" points="884.6 491.1 902.1 530 926 547.6 959 541.6 964.1 533.3 995.5 548.5 1007.2 553.7 1027.7 564.5"/>
      <polygon class="cls-88" points="958.4 521.4 965.2 525.3 968.7 517.7 961.7 514.1 958.4 521.4"/>
      <polyline class="cls-16" points="444.9 278.9 464.6 296.2 480.1 313.7 485.3 291.7 440.2 271.5 422 258.6"/>
      <polyline class="cls-16" points="723.5 527 486.8 376.7 490.2 371.2"/>
      <polyline class="cls-16" points="486.7 369.3 490.5 365.5 506.5 374.6 524.6 387.1 532.8 373.9 532 370.5 497 345.6"/>
      <path class="cls-16" d="M806.4,579.2s105.6,69.2,148.9,85.1"/>
      <path class="cls-16" d="M389.8,260.1l-.6,19.5-56.8,33,10.3,32.1,19.2,38.3,23.8,27.2,29.5,26.1,27.2,21.5,9.1-15.7,17.2,8.5-17.2-8.5s-6.7,17.7-9.1,15.7c-1.5-1.3-61.9-45.8-85.3-82.7-8.3-13-16.8-36-23.3-56.3-6.5-20.3-13.5-73.7-13.5-73.7l-5.6-98.2s25.7,47.4,33.6,60,30.5,40.2,41,51c10.5,10.9,85.7,74.8,85.7,74.8l3-3"/>
      <polyline class="cls-55" points="1751.6 872.7 1564.9 806.2 1467.1 784.8 1431.7 773.5 1383.8 752.8 1348.3 739.3 1302.4 720.7 1234.6 678.3 1180.5 652.9 1134.3 630.3 1051.3 584.8"/>
      <line class="cls-16" x1="1037.3" y1="578.3" x2="962.2" y2="540.9"/>
      <line class="cls-16" x1="578.9" y1="505.3" x2="914.9" y2="646.7"/>
      <polyline class="cls-16" points="517.1 395.9 515.7 399.1 539.8 416.6 537.1 421 541.4 423.9 540.5 428.5 585.1 455.4 588.5 450.6 607.8 464.4 608.6 467.8 635.9 485.7 643.7 476.3"/>
      <path class="cls-16" d="M1812.1,1067s-194-16.5-286.2-42c-92.3-25.5-372.7-110.7-372.7-110.7l-250.4-90.3-229.9-83.6-24.4-9-27.5-10.3-49.3-11.4-42.5-16.1-66.8-22.8s-67.3-59.5-84.5-83.8c-29.4-41.6-64.8-138.1-81.8-186.6-25.3-72.1-87.5-295.9-87.5-295.9l76.9-18.4,47-10.2s9.9,44.1,16.9,63.7c4.1,11.5,19,46.3,29.2,59.5,11.4,14.8,55.4,50.3,55.4,50.3l10.8,9.3,26,12,44.3,17.8,61.2,24,65.1,25.6,134.5,63.8,2.1,21,171.9,87,11.2,5.7,11.2,5.7,61,30.2,68.7,40.1,48.9,28.2,136,62.9,124.8,66.9,6.2-9.6,13.2,6.9,7.8,11.5,130.3,32.2s174,64.9,183.3,67.7c8.8,2.7,30.4,29.1,30.4,29.1l16.8-8.6,14.1,8.5,20.1-36.5s-29.2-62.7-37.6-85.6c-2.2-5.9-4-24.9-4-24.9h8.2c0,.1-.2,13.8,1,18.2,6.6,25.1,34.7,74,39.5,92.7l-16.7,31.5,16.8,6.9-18,42.9,4.1,22,5.8,14.8-.9,16.3-9.4,15.2,3.6,45.9"/>
      <polyline class="cls-86" points="336.2 78.1 196.4 111.9 200.8 86.7 336.2 58.2"/>
    </g>
    <g id="sheds">
      <polygon class="cls-11" points="593 473.3 559.1 546.8 894 701.2 918.4 648.3 731 561.9 734.6 554.1 722.8 548.7 724.7 544.6 687.5 527.5 691.5 518.7 593 473.3"/>
      <rect class="cls-74" x="758" y="506.4" width="24.3" height="87.4" transform="translate(-109.3 899.8) rotate(-57.2)"/>
      <polygon class="cls-5" points="740 459.4 644.2 410.9 655.4 389 751.2 437.4 740 459.4"/>
      <rect class="cls-78" x="971.3" y="654.1" width="22" height="54.5" transform="translate(64.3 1447.1) rotate(-74.6)"/>
      <rect class="cls-75" x="1786.7" y="985.9" width="12.3" height="26.5" transform="translate(-29.7 55.2) rotate(-1.7)"/>
      <path class="cls-11" d="M389.2,279.6c-.9.9-17.8,22.5-17.8,22.5l64.6,47-15,18.2,23.2,16.2,28.2-41.9-83.2-62h0Z"/>
      <rect class="cls-79" x="406.2" y="366.4" width="11.3" height="11.3" transform="translate(-134.8 468) rotate(-52)"/>
      <rect class="cls-79" x="398.3" y="375.9" width="11.3" height="11.3" transform="translate(-145.3 465.4) rotate(-52)"/>
      <polygon class="cls-5" points="421.7 374.2 442.8 389 427.3 408.4 417.6 400.7 419.8 395.8 410.6 387.2 421.7 374.2"/>
      <polygon class="cls-5" points="1791.8 933.7 1785.4 922.7 1779.9 924.4 1775.7 936.7 1780.6 942 1791.8 933.7"/>
      <polygon class="cls-58" points="1389.8 873.7 1381.8 907.6 1767.4 998.2 1777.5 955.4 1765.3 952.5 1769.9 932.9 1756.7 929.8 1759.6 917.6 1751.5 915.7 1753.8 906.2 1620.1 874.8 1619.1 879.2 1591.4 872.7 1593.4 864.2 1558.6 856 1555 871.2 1532.6 865.9 1535.8 852.2 1499.4 843.6 1496.2 857.3 1482.5 854.1 1483.7 849 1467.7 845.2 1457.2 889.6 1389.8 873.7"/>
      <polygon class="cls-5" points="1181.4 681 1176.4 695.9 1219.5 710.3 1224 695.2 1215.5 692.4 1217.9 685.1 1192.5 676.6 1190.1 683.9 1181.4 681"/>
      <rect class="cls-80" x="1261.1" y="665.1" width="8.9" height="145.3" transform="translate(292.6 1832.9) rotate(-78.6)"/>
      <rect class="cls-76" x="961.8" y="798.4" width="10.7" height="22.1" transform="translate(-124.4 1441.2) rotate(-70)"/>
      <rect class="cls-72" x="1073.2" y="832.6" width="9" height="15" transform="translate(-78.2 1568.9) rotate(-70.2)"/>
      <rect class="cls-72" x="1090.1" y="840.5" width="4.8" height="6" transform="translate(-71.5 1585.1) rotate(-70.2)"/>
      <rect class="cls-72" x="1106.9" y="847.5" width="6.1" height="6.1" transform="translate(-66.7 1606.2) rotate(-70.2)"/>
      <rect class="cls-73" x="1067.7" y="653.8" width="9.4" height="37.3" transform="translate(216.6 1605.1) rotate(-79.6)"/>
      <rect class="cls-73" x="1113.7" y="665.9" width="10.1" height="30.8" transform="translate(245.8 1657.9) rotate(-79.6)"/>
      <rect class="cls-77" x="913.6" y="571.3" width="7.2" height="22.4" transform="translate(-49.3 1079) rotate(-59.6)"/>
      <rect class="cls-81" x="985.6" y="544" width="7.2" height="11.2" transform="translate(55.4 1188.8) rotate(-63.5)"/>
      <polyline class="cls-5" points="687.2 433.2 683.4 440.8 660.4 429.2 664.2 421.6"/>
    </g>
    <g id="Layer_10" data-name="Layer 10">
      <polygon class="cls-86" points="1777.5 753.7 1826.8 742.8 1810.7 721.7 1759.9 740 1777.5 753.7"/>
      <polyline class="cls-86" points="490 276.6 496.4 266.8 513.6 286"/>
      <g>
        <line class="cls-62" x1="1818.5" y1="1068.5" x2="1816.8" y2="1050.1"/>
        <g>
          <line class="cls-33" x1="1818.5" y1="1068.5" x2="1817.3" y2="1055.5"/>
          <polygon class="cls-84" points="1811.2 1056.8 1823.6 1055.7 1816.8 1050.1 1811.2 1056.8"/>
        </g>
      </g>
      <g>
        <line class="cls-62" x1="1795" y1="729.1" x2="1797.2" y2="747.4"/>
        <g>
          <line class="cls-33" x1="1795" y1="729.1" x2="1796.6" y2="742"/>
          <polygon class="cls-84" points="1802.6 740.5 1790.3 742 1797.2 747.4 1802.6 740.5"/>
        </g>
      </g>
      <g>
        <line class="cls-62" x1="982.5" y1="480.1" x2="974.7" y2="496.8"/>
        <g>
          <line class="cls-33" x1="982.5" y1="480.1" x2="977" y2="492"/>
          <polygon class="cls-84" points="982.9 493.8 971.7 488.5 974.7 496.8 982.9 493.8"/>
        </g>
      </g>
      <g>
        <line class="cls-62" x1="385.7" y1="220.3" x2="399" y2="233"/>
        <g>
          <line class="cls-37" x1="385.7" y1="220.3" x2="395.8" y2="230"/>
          <polygon class="cls-84" points="398.8 225.9 391.8 233.2 399 233 398.8 225.9"/>
        </g>
      </g>
      <line class="cls-49" x1="957" y1="515.1" x2="970.6" y2="522.1"/>
      <line class="cls-49" x1="392.8" y1="243.1" x2="407.8" y2="227.4"/>
      <line class="cls-49" x1="1805.7" y1="1046.5" x2="1826.8" y2="1045.4"/>
      <rect class="cls-48" x="1303.8" y="347.2" width="212.6" height="213.9"/>
      <path class="cls-85" d="M1347.1,396.8c-10.4,0-18.9-8.4-18.9-18.9s8.4-18.9,18.9-18.9,18.9,8.4,18.9,18.9c0,10.4-8.4,18.9-18.8,18.9h0Z"/>
      <path class="cls-86" d="M1347.1,359.7c10.1,0,18.2,8.2,18.2,18.2s-8.2,18.2-18.2,18.2-18.2-8.2-18.2-18.2h0c0-10.1,8.2-18.2,18.2-18.2h0M1347.1,358.5c-10.8,0-19.5,8.7-19.5,19.5s8.7,19.5,19.5,19.5,19.5-8.7,19.5-19.5c0-10.8-8.7-19.5-19.5-19.5Z"/>
      <path class="cls-86" d="M1343.9,372.9h-4.1c-1.7,0-2.8,1-2.8,2.4v4.7c0,.6.4,1,1,1s1-.4,1-1v-4.7c0,0,0-.2.3-.3v13.9c0,.7.5,1.2,1.2,1.2s1.2-.5,1.2-1.2v-7.1h.8v7.1c0,.7.5,1.2,1.2,1.2s1.2-.5,1.2-1.2v-13.9c.2,0,.3.2.3.3v4.7c0,.6.4,1,1,1s1-.4,1-1v-4.7c-.3-1.5-1.7-2.5-3.2-2.4Z"/>
      <circle class="cls-86" cx="1341.9" cy="370.1" r="2.2"/>
      <path class="cls-86" d="M1354.4,372.9h-4.1c-1.7,0-2.8,1-2.8,2.4v4.7c0,.6.4,1,1,1s1-.4,1-1v-4.7c0,0,0-.2.3-.3v13.9c0,.7.5,1.2,1.2,1.2s1.2-.5,1.2-1.2v-7.1h.8v7.1c0,.7.5,1.2,1.2,1.2s1.2-.5,1.2-1.2v-13.9c.2,0,.3.2.3.3v4.7c0,.6.4,1,1,1s1-.4,1-1v-4.7c-.3-1.5-1.7-2.5-3.2-2.4Z"/>
      <circle class="cls-86" cx="1352.3" cy="370.1" r="2.2"/>
      <circle class="cls-86" cx="1347.1" cy="368.1" r="2.2"/>
      <text class="cls-71" transform="translate(1373.4 387)"><tspan x="0" y="0">ASSEMB</tspan></text>
      <text class="cls-71" transform="translate(1434.5 387)"><tspan x="0" y="0">L</tspan></text>
      <text class="cls-71" transform="translate(1441.6 387)"><tspan x="0" y="0">Y</tspan></text>
      <text class="cls-71" transform="translate(1451.1 387)"><tspan x="0" y="0" xml:space="preserve"> POIN</tspan></text>
      <text class="cls-71" transform="translate(1491 387)"><tspan x="0" y="0">T</tspan></text>
      <text class="cls-68" transform="translate(1373.4 435.4)"><tspan x="0" y="0">DEFIBRILLATOR</tspan></text>
      <circle class="cls-85" cx="1347.6" cy="425.9" r="17.5"/>
      <path class="cls-86" d="M1347.5,439.2c2.4-2.6,12.4-11,12.4-17s-2.9-6.9-6.5-6.9-4.7,1.8-5.9,3.3c-1.2-1.5-4-3.3-5.9-3.3-3.6,0-6.5,3.1-6.5,6.9,0,6,10,14.4,12.4,17Z"/>
      <polygon class="cls-85" points="1354.1 417.6 1343 428.9 1347.8 428.2 1354.1 417.6"/>
      <polygon class="cls-85" points="1342.2 433.6 1352 423.7 1347.7 424.3 1342.2 433.6"/>
      <path class="cls-85" d="M1348.9,488.9c-9.1,0-16.6-7.4-16.6-16.6s7.4-16.6,16.6-16.6,16.6,7.4,16.6,16.6-7.4,16.6-16.6,16.6Z"/>
      <path class="cls-86" d="M1348.9,456.9c8.6,0,15.5,7,15.5,15.5s-7,15.5-15.5,15.5-15.5-7-15.5-15.5,7-15.5,15.5-15.5M1348.9,454.9c-9.7,0-17.5,7.9-17.5,17.5s7.9,17.5,17.5,17.5,17.5-7.9,17.5-17.5-7.9-17.5-17.5-17.5h0Z"/>
      <polygon class="cls-86" points="1359.2 469.5 1351.8 469.5 1351.8 462.1 1346.1 462.1 1346.1 469.5 1338.6 469.5 1338.6 475.3 1346.1 475.3 1346.1 482.8 1351.8 482.8 1351.8 475.3 1359.2 475.3 1359.2 469.5"/>
      <text class="cls-68" transform="translate(1373.4 479.4)"><tspan x="0" y="0">FIRST AID</tspan></text>
      <path class="cls-84" d="M1348.9,533.5c-9.1,0-16.6-7.4-16.6-16.6s7.4-16.6,16.6-16.6,16.6,7.4,16.6,16.6-7.4,16.6-16.6,16.6Z"/>
      <path class="cls-86" d="M1348.9,501.4c8.6,0,15.5,7,15.5,15.5s-7,15.5-15.5,15.5-15.5-7-15.5-15.5,7-15.5,15.5-15.5M1348.9,499.5c-9.7,0-17.5,7.9-17.5,17.5s7.9,17.5,17.5,17.5,17.5-7.9,17.5-17.5-7.9-17.5-17.5-17.5h0Z"/>
      <text class="cls-68" transform="translate(1373.4 523.9)"><tspan x="0" y="0">SECURITY</tspan></text>
      <path class="cls-86" d="M1342.7,513.8h12.5v9.8c0,.7-.6,1.3-1.3,1.3h-9.9c-.7,0-1.3-.6-1.3-1.3v-9.8h0Z"/>
      <path class="cls-24" d="M1343.8,514.5c0-3.3,2.3-6.1,5.1-6.1s5.1,2.7,5.1,6.1"/>
      <circle class="cls-84" cx="1348.9" cy="517.9" r="1.7"/>
      <polygon class="cls-84" points="1350.3 522.6 1347.5 522.6 1348.2 518.9 1349.7 518.9 1350.3 522.6"/>
      <path class="cls-85" d="M515,447.4c-4.8,0-8.6-3.9-8.6-8.6s3.9-8.6,8.6-8.6,8.6,3.9,8.6,8.6c0,4.7-3.8,8.6-8.6,8.6h0Z"/>
      <path class="cls-86" d="M515,430.5c4.6,0,8.3,3.7,8.3,8.3s-3.7,8.3-8.3,8.3-8.3-3.7-8.3-8.3h0c0-4.6,3.7-8.3,8.3-8.3h0M515,429.9c-4.9,0-8.9,4-8.9,8.9s4,8.9,8.9,8.9,8.9-4,8.9-8.9c0-4.9-4-8.9-8.9-8.9Z"/>
      <path class="cls-86" d="M513.6,436.9h-1.8c-.7,0-1.2.4-1.2,1v2c0,.2.2.4.4.4s.4-.2.4-.4v-2s0,0,.1-.1v6c0,.3.2.5.5.5s.5-.2.5-.5v-3h.4v3c0,.3.2.5.5.5s.5-.2.5-.5v-6c0,0,.1,0,.1.1v2c0,.2.2.4.4.4s.4-.2.4-.4v-2c-.1-.6-.7-1.1-1.4-1Z"/>
      <circle class="cls-86" cx="512.8" cy="435.7" r=".9"/>
      <path class="cls-86" d="M518.1,436.9h-1.8c-.7,0-1.2.4-1.2,1v2c0,.2.2.4.4.4s.4-.2.4-.4v-2s0,0,.1-.1v6c0,.3.2.5.5.5s.5-.2.5-.5v-3h.4v3c0,.3.2.5.5.5s.5-.2.5-.5v-6c0,0,.1,0,.1.1v2c0,.2.2.4.4.4s.4-.2.4-.4v-2c-.1-.6-.7-1.1-1.4-1Z"/>
      <circle class="cls-86" cx="517.2" cy="435.7" r=".9"/>
      <circle class="cls-86" cx="515" cy="434.9" r=".9"/>
      <text class="cls-94" transform="translate(538.3 459.9)"><tspan x="0" y="0">3</tspan></text>
      <path class="cls-85" d="M924.8,534.9c-4.8,0-8.6-3.9-8.6-8.6s3.9-8.6,8.6-8.6,8.6,3.9,8.6,8.6c0,4.7-3.8,8.6-8.6,8.6h0Z"/>
      <path class="cls-86" d="M924.8,518c4.6,0,8.3,3.7,8.3,8.3s-3.7,8.3-8.3,8.3-8.3-3.7-8.3-8.3h0c0-4.6,3.7-8.3,8.3-8.3h0M924.8,517.5c-4.9,0-8.9,4-8.9,8.9s4,8.9,8.9,8.9,8.9-4,8.9-8.9c0-4.9-4-8.9-8.9-8.9Z"/>
      <path class="cls-86" d="M923.5,523.9h-1.7c-.7,0-1.2.4-1.2,1v1.9c0,.2.2.4.4.4s.4-.2.4-.4v-1.9s0,0,.1-.1v5.7c0,.3.2.5.5.5s.5-.2.5-.5v-2.9h.3v2.9c0,.3.2.5.5.5s.5-.2.5-.5v-5.7c0,0,.1,0,.1.1v1.9c0,.2.2.4.4.4s.4-.2.4-.4v-1.9c-.1-.6-.7-1-1.3-1Z"/>
      <circle class="cls-86" cx="922.7" cy="522.8" r=".9"/>
      <path class="cls-86" d="M927.7,523.9h-1.7c-.7,0-1.2.4-1.2,1v1.9c0,.2.2.4.4.4s.4-.2.4-.4v-1.9s0,0,.1-.1v5.7c0,.3.2.5.5.5s.5-.2.5-.5v-2.9h.3v2.9c0,.3.2.5.5.5s.5-.2.5-.5v-5.7c0,0,.1,0,.1.1v1.9c0,.2.2.4.4.4s.4-.2.4-.4v-1.9c-.1-.6-.7-1-1.3-1Z"/>
      <circle class="cls-86" cx="926.9" cy="522.8" r=".9"/>
      <circle class="cls-86" cx="924.8" cy="522" r=".9"/>
      <text class="cls-94" transform="translate(938.6 534.2)"><tspan x="0" y="0">2</tspan></text>
      <circle class="cls-85" cx="1042.2" cy="664.5" r="7.5"/>
      <path class="cls-86" d="M1042.1,670.2c1-1.1,5.3-4.7,5.3-7.3s-1.2-3-2.8-3-2,.8-2.5,1.4c-.5-.6-1.7-1.4-2.5-1.4-1.5,0-2.8,1.3-2.8,3,0,2.6,4.3,6.2,5.3,7.3Z"/>
      <polygon class="cls-85" points="1044.9 660.9 1040.2 665.8 1042.3 665.5 1044.9 660.9"/>
      <polygon class="cls-85" points="1039.9 667.8 1044 663.5 1042.2 663.8 1039.9 667.8"/>
      <path class="cls-85" d="M648.7,402.2c-3.9,0-7.1-3.2-7.1-7.1s3.2-7.1,7.1-7.1,7.1,3.2,7.1,7.1-3.2,7.1-7.1,7.1Z"/>
      <path class="cls-86" d="M648.7,388.5c3.7,0,6.7,3,6.7,6.7s-3,6.7-6.7,6.7-6.7-3-6.7-6.7,3-6.7,6.7-6.7M648.7,387.7c-4.2,0-7.5,3.4-7.5,7.5s3.4,7.5,7.5,7.5,7.5-3.4,7.5-7.5-3.4-7.5-7.5-7.5h0Z"/>
      <polygon class="cls-86" points="653.1 393.9 649.9 393.9 649.9 390.7 647.5 390.7 647.5 393.9 644.3 393.9 644.3 396.4 647.5 396.4 647.5 399.6 649.9 399.6 649.9 396.4 653.1 396.4 653.1 393.9"/>
      <path class="cls-85" d="M806.4,570.8c-3.9,0-7.1-3.2-7.1-7.1s3.2-7.1,7.1-7.1,7.1,3.2,7.1,7.1-3.2,7.1-7.1,7.1Z"/>
      <path class="cls-86" d="M806.4,557.1c3.7,0,6.7,3,6.7,6.7s-3,6.7-6.7,6.7-6.7-3-6.7-6.7,3-6.7,6.7-6.7M806.4,556.3c-4.2,0-7.5,3.4-7.5,7.5s3.4,7.5,7.5,7.5,7.5-3.4,7.5-7.5-3.4-7.5-7.5-7.5h0Z"/>
      <polygon class="cls-86" points="810.8 562.5 807.6 562.5 807.6 559.3 805.2 559.3 805.2 562.5 802 562.5 802 565 805.2 565 805.2 568.2 807.6 568.2 807.6 565 810.8 565 810.8 562.5"/>
      <path class="cls-85" d="M846.2,634.1c-3.9,0-7.1-3.2-7.1-7.1s3.2-7.1,7.1-7.1,7.1,3.2,7.1,7.1-3.2,7.1-7.1,7.1Z"/>
      <path class="cls-86" d="M846.2,620.4c3.7,0,6.7,3,6.7,6.7s-3,6.7-6.7,6.7-6.7-3-6.7-6.7,3-6.7,6.7-6.7M846.2,619.6c-4.2,0-7.5,3.4-7.5,7.5s3.4,7.5,7.5,7.5,7.5-3.4,7.5-7.5-3.4-7.5-7.5-7.5h0Z"/>
      <polygon class="cls-86" points="850.6 625.8 847.4 625.8 847.4 622.7 845 622.7 845 625.8 841.8 625.8 841.8 628.3 845 628.3 845 631.5 847.4 631.5 847.4 628.3 850.6 628.3 850.6 625.8"/>
      <path class="cls-85" d="M439.7,376c-3.9,0-7.1-3.2-7.1-7.1s3.2-7.1,7.1-7.1,7.1,3.2,7.1,7.1-3.2,7.1-7.1,7.1Z"/>
      <path class="cls-86" d="M439.7,362.2c3.7,0,6.7,3,6.7,6.7s-3,6.7-6.7,6.7-6.7-3-6.7-6.7,3-6.7,6.7-6.7M439.7,361.4c-4.2,0-7.5,3.4-7.5,7.5s3.4,7.5,7.5,7.5,7.5-3.4,7.5-7.5-3.4-7.5-7.5-7.5h0Z"/>
      <polygon class="cls-86" points="444.1 367.7 440.9 367.7 440.9 364.5 438.5 364.5 438.5 367.7 435.3 367.7 435.3 370.1 438.5 370.1 438.5 373.3 440.9 373.3 440.9 370.1 444.1 370.1 444.1 367.7"/>
      <path class="cls-85" d="M1219.5,708.3c-3.9,0-7.1-3.2-7.1-7.1s3.2-7.1,7.1-7.1,7.1,3.2,7.1,7.1-3.2,7.1-7.1,7.1Z"/>
      <path class="cls-86" d="M1219.5,694.6c3.7,0,6.7,3,6.7,6.7s-3,6.7-6.7,6.7-6.7-3-6.7-6.7,3-6.7,6.7-6.7M1219.5,693.7c-4.2,0-7.5,3.4-7.5,7.5s3.4,7.5,7.5,7.5,7.5-3.4,7.5-7.5-3.4-7.5-7.5-7.5h0Z"/>
      <polygon class="cls-86" points="1223.9 700 1220.7 700 1220.7 696.8 1218.3 696.8 1218.3 700 1215.1 700 1215.1 702.5 1218.3 702.5 1218.3 705.7 1220.7 705.7 1220.7 702.5 1223.9 702.5 1223.9 700"/>
      <path class="cls-85" d="M1068.8,672.3c-3.9,0-7.1-3.2-7.1-7.1s3.2-7.1,7.1-7.1,7.1,3.2,7.1,7.1-3.2,7.1-7.1,7.1Z"/>
      <path class="cls-86" d="M1068.8,658.6c3.7,0,6.7,3,6.7,6.7s-3,6.7-6.7,6.7-6.7-3-6.7-6.7,3-6.7,6.7-6.7M1068.8,657.7c-4.2,0-7.5,3.4-7.5,7.5s3.4,7.5,7.5,7.5,7.5-3.4,7.5-7.5-3.4-7.5-7.5-7.5h0Z"/>
      <polygon class="cls-86" points="1073.2 664 1070.1 664 1070.1 660.8 1067.6 660.8 1067.6 664 1064.4 664 1064.4 666.5 1067.6 666.5 1067.6 669.7 1070.1 669.7 1070.1 666.5 1073.2 666.5 1073.2 664"/>
      <path class="cls-84" d="M982.3,545.5c-3.9,0-7.1-3.2-7.1-7.1s3.2-7.1,7.1-7.1,7.1,3.2,7.1,7.1-3.2,7.1-7.1,7.1Z"/>
      <path class="cls-86" d="M982.3,531.7c3.7,0,6.7,3,6.7,6.7s-3,6.7-6.7,6.7-6.7-3-6.7-6.7,3-6.7,6.7-6.7M982.3,530.9c-4.2,0-7.5,3.4-7.5,7.5s3.4,7.5,7.5,7.5,7.5-3.4,7.5-7.5-3.4-7.5-7.5-7.5h0Z"/>
      <path class="cls-86" d="M979.6,537.1h5.4v4.2c0,.3-.3.6-.6.6h-4.2c-.3,0-.6-.3-.6-.6v-4.2h0Z"/>
      <path class="cls-47" d="M980.1,537.4c0-1.4,1-2.6,2.2-2.6s2.2,1.2,2.2,2.6"/>
      <circle class="cls-84" cx="982.3" cy="538.9" r=".7"/>
      <polygon class="cls-84" points="982.9 540.9 981.7 540.9 982 539.3 982.6 539.3 982.9 540.9"/>
      <path class="cls-85" d="M1824.3,912c-4.8,0-8.6-3.9-8.6-8.6s3.9-8.6,8.6-8.6,8.6,3.9,8.6,8.6c0,4.7-3.8,8.6-8.6,8.6h0Z"/>
      <path class="cls-86" d="M1824.3,895c4.6,0,8.3,3.7,8.3,8.3s-3.7,8.3-8.3,8.3-8.3-3.7-8.3-8.3h0c0-4.6,3.7-8.3,8.3-8.3h0M1824.3,894.5c-4.9,0-8.9,4-8.9,8.9s4,8.9,8.9,8.9,8.9-4,8.9-8.9c0-4.9-4-8.9-8.9-8.9Z"/>
      <path class="cls-86" d="M1822.9,900.3h-1.8c-.8,0-1.2.4-1.2,1v2.1c0,.2.2.4.4.4s.4-.2.4-.4v-2.1s0,0,.1-.1v6.1c0,.3.2.5.5.5s.5-.2.5-.5v-3.1h.4v3.1c0,.3.2.5.5.5s.5-.2.5-.5v-6.1c0,0,.1,0,.1.1v2.1c0,.2.2.4.4.4s.4-.2.4-.4v-2.1c-.2-.6-.7-1.1-1.4-1Z"/>
      <circle class="cls-86" cx="1822" cy="899.1" r="1"/>
      <path class="cls-86" d="M1827.5,900.3h-1.8c-.8,0-1.2.4-1.2,1v2.1c0,.2.2.4.4.4s.4-.2.4-.4v-2.1s0,0,.1-.1v6.1c0,.3.2.5.5.5s.5-.2.5-.5v-3.1h.4v3.1c0,.3.2.5.5.5s.5-.2.5-.5v-6.1c0,0,.1,0,.1.1v2.1c0,.2.2.4.4.4s.4-.2.4-.4v-2.1c-.2-.6-.7-1.1-1.4-1Z"/>
      <circle class="cls-86" cx="1826.6" cy="899.1" r="1"/>
      <circle class="cls-86" cx="1824.3" cy="898.2" r="1"/>
      <text class="cls-94" transform="translate(1817.5 922.7)"><tspan x="0" y="0">1</tspan></text>
      <circle class="cls-85" cx="1735.3" cy="903.3" r="7.5"/>
      <path class="cls-86" d="M1735.2,909c1-1.1,5.3-4.7,5.3-7.3s-1.2-3-2.8-3-2,.8-2.5,1.4c-.5-.6-1.7-1.4-2.5-1.4-1.5,0-2.8,1.3-2.8,3,0,2.6,4.3,6.2,5.3,7.3Z"/>
      <polygon class="cls-85" points="1738 899.8 1733.3 904.6 1735.4 904.4 1738 899.8"/>
      <polygon class="cls-85" points="1733 906.7 1737.1 902.4 1735.3 902.7 1733 906.7"/>
      <path class="cls-85" d="M1666.9,965.8c-3.9,0-7.1-3.2-7.1-7.1s3.2-7.1,7.1-7.1,7.1,3.2,7.1,7.1-3.2,7.1-7.1,7.1Z"/>
      <path class="cls-86" d="M1666.9,952.1c3.7,0,6.7,3,6.7,6.7s-3,6.7-6.7,6.7-6.7-3-6.7-6.7,3-6.7,6.7-6.7M1666.9,951.3c-4.2,0-7.5,3.4-7.5,7.5s3.4,7.5,7.5,7.5,7.5-3.4,7.5-7.5-3.4-7.5-7.5-7.5h0Z"/>
      <polygon class="cls-86" points="1671.4 957.5 1668.2 957.5 1668.2 954.4 1665.7 954.4 1665.7 957.5 1662.5 957.5 1662.5 960 1665.7 960 1665.7 963.2 1668.2 963.2 1668.2 960 1671.4 960 1671.4 957.5"/>
      <path class="cls-85" d="M1666.9,898.2c-3.9,0-7.1-3.2-7.1-7.1s3.2-7.1,7.1-7.1,7.1,3.2,7.1,7.1-3.2,7.1-7.1,7.1Z"/>
      <path class="cls-86" d="M1666.9,884.4c3.7,0,6.7,3,6.7,6.7s-3,6.7-6.7,6.7-6.7-3-6.7-6.7,3-6.7,6.7-6.7M1666.9,883.6c-4.2,0-7.5,3.4-7.5,7.5s3.4,7.5,7.5,7.5,7.5-3.4,7.5-7.5-3.4-7.5-7.5-7.5h0Z"/>
      <polygon class="cls-86" points="1671.4 889.8 1668.2 889.8 1668.2 886.7 1665.7 886.7 1665.7 889.8 1662.5 889.8 1662.5 892.3 1665.7 892.3 1665.7 895.5 1668.2 895.5 1668.2 892.3 1671.4 892.3 1671.4 889.8"/>
      <path class="cls-85" d="M1759.6,951.9c-3.9,0-7.1-3.2-7.1-7.1s3.2-7.1,7.1-7.1,7.1,3.2,7.1,7.1-3.2,7.1-7.1,7.1Z"/>
      <path class="cls-86" d="M1759.6,938.2c3.7,0,6.7,3,6.7,6.7s-3,6.7-6.7,6.7-6.7-3-6.7-6.7,3-6.7,6.7-6.7M1759.6,937.3c-4.2,0-7.5,3.4-7.5,7.5s3.4,7.5,7.5,7.5,7.5-3.4,7.5-7.5-3.4-7.5-7.5-7.5h0Z"/>
      <polygon class="cls-86" points="1764 943.6 1760.8 943.6 1760.8 940.4 1758.4 940.4 1758.4 943.6 1755.1 943.6 1755.1 946.1 1758.4 946.1 1758.4 949.2 1760.8 949.2 1760.8 946.1 1764 946.1 1764 943.6"/>
      <path class="cls-84" d="M1783.7,939.5c-3.9,0-7.1-3.2-7.1-7.1s3.2-7.1,7.1-7.1,7.1,3.2,7.1,7.1-3.2,7.1-7.1,7.1Z"/>
      <path class="cls-86" d="M1783.7,925.7c3.7,0,6.7,3,6.7,6.7s-3,6.7-6.7,6.7-6.7-3-6.7-6.7,3-6.7,6.7-6.7M1783.7,924.9c-4.2,0-7.5,3.4-7.5,7.5s3.4,7.5,7.5,7.5,7.5-3.4,7.5-7.5-3.4-7.5-7.5-7.5h0Z"/>
      <path class="cls-86" d="M1781,931.1h5.4v4.2c0,.3-.3.6-.6.6h-4.2c-.3,0-.6-.3-.6-.6v-4.2h0Z"/>
      <path class="cls-47" d="M1781.5,931.4c0-1.4,1-2.6,2.2-2.6s2.2,1.2,2.2,2.6"/>
      <circle class="cls-84" cx="1783.7" cy="932.9" r=".7"/>
      <polygon class="cls-84" points="1784.3 934.9 1783.1 934.9 1783.4 933.3 1784 933.3 1784.3 934.9"/>
    </g>
  </g>
  <g id="landmarks">
    <polygon id="Northshed" class="cls-11" points="593 473.3 559.1 546.8 894 701.2 918.4 648.3 731 561.9 734.6 554.1 722.8 548.7 724.7 544.6 687.5 527.5 691.5 518.7 593 473.3"/>
    <path id="_4shed" data-name=" 4shed" class="cls-11" d="M389.2,279.6c-.9.9-17.8,22.5-17.8,22.5l64.6,47-15,18.2,23.2,16.2,28.2-41.9-83.2-62h0Z"/>
    <polyline id="assembly3" class="cls-83" points="513.7 412.9 496.9 450.6 561.8 483.2 568.6 461.2 555.9 451.4 545.4 446.7 525.4 434.3 518.4 414.9 514.8 410.8"/>
    <polyline id="assembly2" class="cls-83" points="884.7 492.5 903.1 530 925.6 546.7 958.2 541.6 963.8 532.5 885.5 492.5"/>
    <polyline id="assesmbly1" class="cls-83" points="1823.6 883.7 1814.4 899.3 1812.6 928.8 1825.5 927 1839.9 889.9 1824.4 883.7"/>
  </g>
  <g id="nopointer">
    <g id="labes">
      <g class="cls-91">
        <text class="cls-89" transform="translate(604.4 535.3) rotate(24.9)"><tspan x="0" y="0">North Shed</tspan></text>
      </g>
      <g class="cls-91">
        <text class="cls-93" transform="translate(391.2 305.8) rotate(36.1)"><tspan x="0" y="0">4 Shed</tspan></text>
      </g>
      <g class="cls-91">
        <text class="cls-89" transform="translate(1521.1 911) rotate(13.4)"><tspan x="0" y="0">South Shed</tspan></text>
      </g>
      <g class="cls-91">
        <text class="cls-92" transform="translate(740 534.3) rotate(32.8)"><tspan x="0" y="0">Wheel Lathe</tspan></text>
      </g>
      <g class="cls-91">
        <text class="cls-92" transform="translate(665 413.7) rotate(27.3)"><tspan x="0" y="0">W</tspan></text>
        <text class="cls-92" transform="translate(673.3 417.9) rotate(27.3)"><tspan x="0" y="0">ind </tspan></text>
        <text class="cls-90" transform="translate(689.1 426.1) rotate(27.3)"><tspan x="0" y="0">T</tspan></text>
        <text class="cls-92" transform="translate(693.9 428.6) rotate(27.3)"><tspan x="0" y="0">unnel</tspan></text>
      </g>
      <g class="cls-91">
        <text class="cls-92" transform="translate(965.8 680.2) rotate(15.4)"><tspan x="0" y="0">Stores</tspan></text>
      </g>
      <line class="cls-12" x1="493.5" y1="320.9" x2="480.6" y2="333.3"/>
      <line class="cls-12" x1="487.2" y1="318.1" x2="486.9" y2="336.1"/>
    </g>
  </g>
</svg>