<?xml version="1.0" encoding="utf-8"?>
<!-- Generator: Adobe Illustrator 21.1.0, SVG Export Plug-In . SVG Version: 6.00 Build 0)  -->
<svg version="1.1" id="Layer_1" xmlns="http://www.w3.org/2000/svg" xmlns:xlink="http://www.w3.org/1999/xlink" x="0px" y="0px"
	 width="1920px" height="1080px" viewBox="0 0 1920 1080" enable-background="new 0 0 1920 1080" xml:space="preserve">
<g id="base">
	<g id="rooms">
		<g>
			<polygon fill="#FFCFCF" points="430.4,953.9 432,938.3 410.4,936.8 418.2,849.9 438.4,851 440.2,834.3 548.8,842.5 540.7,961.2 
							"/>
			<path fill="#FFFFFF" d="M442.8,837.5l102.8,7.7L537.9,958l-104.2-6.9l1-9.4l0.6-6.1l-6.1-0.4l-15.4-1.1l7.2-81l14.5,0.7l5.6,0.3
				l0.6-5.6L442.8,837.5 M437.5,831.2l-1.8,16.7l-20.2-1l-8.3,92.7l21.5,1.5l-1.6,15.5l116.3,7.7l8.6-124.6L437.5,831.2L437.5,831.2
				z"/>
		</g>
		<g>
			<polygon fill="#FFCFCF" points="446.1,826.2 449.6,784.5 451.8,784.8 452.7,774 554.4,782.2 549.3,833.9 			"/>
			<path fill="#FFFFFF" d="M455.5,777.2l95.7,7.7l-4.5,45.8l-97.3-7.3l3-35.6l2.2,0.3l0.5-6.3L455.5,777.2 M450,770.8l-0.9,10.6
				l-2.2-0.3l-4,47.9l109.1,8.2l5.7-57.6L450,770.8L450,770.8z"/>
		</g>
		<g>
			<path fill="#FFCFCF" d="M523.5,385.8l4.7-9.5l-1.7-0.8c2.9-6,10.2-20.8,17.6-33.3l1.7,0.9l4.5-7.9l43.8,26.8l-25.8,44.9
				L523.5,385.8z"/>
			<path fill="#FFFFFF" d="M551.5,339.3l38.7,23.6l-23,40l-39.7-18.5l2-4.1l2.7-5.4l-1.7-0.8c3.2-6.5,8.9-17.8,14.8-28l1.8,0.9
				l2.8-4.9L551.5,339.3 M549.3,331l-4.6,8.1l-1.7-0.8c-10.1,16.6-20.5,38.6-20.5,38.6l1.6,0.8l-4.7,9.5l50.1,23.4l28.6-49.8
				L549.3,331L549.3,331z"/>
		</g>
		<g>
			<path fill="#FFCFCF" d="M555,327.5l5.7-9.3l-1.6-0.9c3-4.9,10-16.1,18.9-29.2l4,2.8l8.9-12.1l13.1,10l3.5-4l21.7,17.3l-30.3,52
				L555,327.5z"/>
			<path fill="#FFFFFF" d="M591.4,283l8.5,6.5l4.4,3.4l3.4-3.9l17.5,14l-27.5,47.2L559,326.6l2.5-4.1l3.2-5.2l-1.6-0.9
				c3.3-5.2,8.8-13.9,15.6-24l3.9,2.7l3.4-4.6L591.4,283 M590.3,274.6l-9,12.2l-4.1-2.8c-13,19-22.3,34.4-22.3,34.4l1.6,0.9
				l-5.6,9.2l49,29.9l33.1-56.9l-26-20.7l-3.5,4L590.3,274.6L590.3,274.6z"/>
		</g>
		<g>
			<polygon fill="#FFCFCF" points="453.5,765.1 454.3,755.5 452.1,755.4 455.3,720.2 457.4,720.3 458.2,710.8 559.8,718.8 
				555.3,773.2 			"/>
			<path fill="#FFFFFF" d="M460.9,714l95.7,7.6l-4,48.4l-95.9-7.6l0.3-3.5l0.5-6.1l-2.2-0.1l2.7-29.3l2,0.1l0.5-5.8L460.9,714
				 M455.5,707.6l-0.8,9.6l-2-0.1l-3.7,41.1l2.2,0.1l-0.8,9.5l107.8,8.6l4.9-60.3L455.5,707.6L455.5,707.6z"/>
		</g>
		<g>
			<polygon fill="#FFCFCF" points="459,701.8 459.9,691.6 458,691.4 461,657.9 463,658.1 464,647.4 564.6,655.6 560.4,709.9 			"/>
			<path fill="#FFFFFF" d="M466.7,650.6l94.8,7.7l-3.8,48.3l-95.5-7.6l0.4-4.3l0.5-5.8l-1.9-0.2l2.5-27.6l2,0.2l0.6-6L466.7,650.6
				 M461.3,644.2l-1,10.6l-2-0.2l-3.6,39.4l1.9,0.2l-0.9,10.3l107.4,8.6l4.7-60.2L461.3,644.2L461.3,644.2z"/>
		</g>
		<g>
			<polygon fill="#FFCFCF" points="464.8,638.5 465.7,628.3 463.8,628.1 467,594.2 469,594.4 470,584.4 554,591.2 550,645.3 			"/>
			<path fill="#FFFFFF" d="M472.7,587.6l78.1,6.3l-3.6,48.2l-79.2-6.3l0.4-4.3l0.5-5.9l-1.9-0.2l2.7-28l2,0.2l0.6-5.9L472.7,587.6
				 M467.4,581.2l-1,9.9l-2-0.2l-3.8,39.8l2,0.2l-0.9,10.3l91.1,7.3l4.4-60.1L467.4,581.2L467.4,581.2z"/>
		</g>
		<g>
			<path fill="#FFCFCF" d="M470.9,575.5l1.1-10.7l-2-0.2c0.5-5.5,1.8-18.4,4.1-36.3l1.4,0.3l2.5-9.5l80.6,15.9l-3.9,47.2
				L470.9,575.5z"/>
			<path fill="#FFFFFF" d="M480.2,522.5l75.2,14.9l-3.5,41.6l-77.8-6.2l0.5-4.7l0.6-5.8l-2-0.2c0.6-6,1.7-16.4,3.4-30.1l1,0.2
				l1.5-5.6L480.2,522.5 M475.8,515.6l-2.5,9.4l-1.8-0.4c-3.4,26.3-4.8,42.6-4.8,42.6l2,0.2l-1.1,10.8l89.7,7.2l4.4-52.8
				L475.8,515.6L475.8,515.6z"/>
		</g>
		<g>
			<path fill="#FFCFCF" d="M480.2,510.4l2.6-10.4l-1.8-0.4c1.3-5,4.4-16.5,10.2-35l1.6,0.6l9.4-28.4l-1.5-0.6
				c2.1-5.7,7.2-19.5,13.6-34.3l1.6,0.7l3.9-8.5l102,47.9l-30.2,90.8L480.2,510.4z"/>
			<path fill="#FFFFFF" d="M521.3,398l96.9,45.5l-28.5,85.8l-105.8-21.2l1.1-4.4l1.5-5.8l-1.8-0.4c1.5-5.5,4.1-15.1,8.5-29l1.6,0.5
				l1.9-5.8l7.5-22.8l1.8-5.4l-1.4-0.5c2.3-6.2,6.4-17,11.4-28.7l1.5,0.6l2.4-5.3L521.3,398 M518.3,390l-3.9,8.6l-1.6-0.7
				c-9.1,20.8-15.9,40-15.9,40l1.6,0.6l-7.5,22.8l-1.7-0.6c-8.8,28-11.9,41-11.9,41l1.8,0.4l-2.7,10.5l117.2,23.5l31.8-95.8
				L518.3,390L518.3,390z"/>
		</g>
		<g>
			<polygon fill="#D8D8D6" points="601.6,903.7 605.5,850.2 672.3,856.2 667.5,909.1 			"/>
			<g>
				<path fill="#FFFFFF" d="M608.3,853.4l60.8,5.5l-4.3,46.9l-60-4.9L608.3,853.4 M602.8,846.9l-4.4,59.4l71.8,5.9l5.3-58.8
					L602.8,846.9L602.8,846.9z"/>
			</g>
		</g>
		<g>
			<polygon fill="#FFCFCF" points="606.5,841.1 616,722.2 717.6,729.6 707.3,850.7 			"/>
			<path fill="#FFFFFF" d="M618.7,725.3l95.7,7l-9.8,115.1l-94.9-9L618.7,725.3 M613.3,719l-10,124.8l106.8,10.1l10.8-127.1
				L613.3,719L613.3,719z"/>
		</g>
		<g>
			<polygon fill="#FFCFCF" points="616.6,712.8 620.7,660.7 737.1,670.1 735.6,687.9 720.8,687.2 717.9,720.8 			"/>
			<path fill="#FFFFFF" d="M623.5,663.9l110.5,8.9l-1.1,12l-9-0.5l-5.7-0.3l-0.5,5.7l-2.5,27.8l-95.3-7.5L623.5,663.9 M618,657.5
				l-4.6,58.1l107.2,8.4l3-33.7l14.7,0.7l2.1-23.7L618,657.5L618,657.5z"/>
		</g>
		<g>
			<polygon fill="#D8D8D6" points="676.8,909.6 681.4,856.5 706.8,858.6 702,911.5 			"/>
			<g>
				<path fill="#FFFFFF" d="M684.1,859.8l19.5,1.5l-4.3,47l-19.3-1.5L684.1,859.8 M678.7,853.3l-5.1,59l31.1,2.4l5.4-58.9
					L678.7,853.3L678.7,853.3z"/>
			</g>
		</g>
		<g>
			<polygon fill="#D8D8D6" points="729.2,696.5 735.3,696.6 827.1,814.6 827,818 719.2,819.1 			"/>
			<g>
				<path fill="#FFFFFF" d="M732,699.5h1.8L823.7,815l-101.3,1L732,699.5 M726.5,693.4L715.9,822l114-1.1l0.2-7.3l-93.4-120
					L726.5,693.4L726.5,693.4z"/>
			</g>
		</g>
		<g>
			<polygon fill="#D8D8D6" points="600.5,534.6 630,445.9 652.1,456.3 680.5,465.6 654.2,545.5 			"/>
			<path fill="#FFFFFF" d="M631.8,450l18.8,8.9l0.3,0.1l0.3,0.1l25.4,8.4l-24.5,74.6l-47.9-9.8L631.8,450 M628.3,441.8l-31.7,95
				l59.7,12.2l28-85.3l-31-10.2L628.3,441.8L628.3,441.8z"/>
		</g>
		<g>
			<polygon fill="#D9E4E8" points="574.7,1033.6 545.1,1033.7 545,1035.7 544.5,1035.7 548.4,981.8 549.6,964.8 574.4,647.4 
				559,646.4 567.6,536.7 599.7,543.5 598.9,552.3 604.5,552.9 597,633.4 592.4,633.1 590.4,658.5 611.5,659.9 592,911.8 
				701.5,920.4 692.5,1032.9 668.5,1033.1 668.4,1034.9 638.1,1035.2 638.2,1033.6 607.2,1033.3 607.1,1035.3 575,1035.7 			"/>
			<g>
				<path fill="#FFFFFF" d="M570.3,540.3l26.2,5.5l-0.3,3.3l-0.5,5.7l5.5,0.7l-6.9,74.7l-4.7-0.4l-0.5,6l-1.5,19.5l-0.5,6l6,0.4
					l15.1,1l-19.1,245.9l-0.5,5.9l5.9,0.5l103.6,8.2l-8.5,106.7l-18.6,0.2l-5.5,0.1l-0.1,1.8l-24.2,0.2l0.1-1.5l-6.4-0.1l-24.8-0.2
					l-6-0.1v2l-26.6,0.3l-0.3-2.1h-5.3l-24.2,0.1l0,0l3.6-48.7l1.1-16.9L577,650.6l0.5-6l-6-0.4l-9.3-0.6L570.3,540.3 M564.9,533.1
					l-9.1,116.1l15.4,1l-24.6,314.4l-1.1,16.9l-4.2,57.1l6.5-0.1l0.1-2l24.2-0.1l0.3,2.2l37.8-0.5v-1.9l24.8,0.2l-0.1,1.6l36.3-0.3
					l0.1-1.8l24-0.3l9.4-118.1l-109.5-8.6L614.7,657l-21.1-1.5l1.5-19.5l4.6,0.4l8-86.3l-5.6-0.7l0.7-8.6L564.9,533.1L564.9,533.1z"
					/>
			</g>
		</g>
		<g>
			<polygon fill="#D9E4E8" points="607.6,650.5 609,634 604.9,633.7 611.8,553.7 615.3,554 615.9,546.9 668.5,557.4 696,470.7 
				714.6,476.2 687.2,562.6 711.5,570.3 733.7,500.3 737.6,501.5 764.4,509.4 763.2,512 825.5,592.1 738.4,659.9 737.9,661.3 			"/>
			<g>
				<path fill="#FFFFFF" d="M697.9,474.4l12.9,3.8l-25.6,80.7l-1.8,5.7l5.7,1.8l18.6,5.9l5.7,1.8l1.8-5.7l20.5-64.4l1,0.3l0,0l0,0
					l23.5,6.9l-0.5,1.2l2.2,2.8l59.4,76.3l-84,65.5l-1.5,1.1l0,0l-125-10.4l0.9-10.5l0.5-6.1l-4.1-0.2l6.3-74l3.5,0.3l0.5-5.9
					l0.1-0.8l46.8,9.3l5.2,1l1.6-5.1L697.9,474.4 M694,467l-27.5,86.9l-53.3-10.6l-0.7,7.5l-3.5-0.3l-7.3,86.1l4.1,0.2l-1.4,16.4
					L740,664.5l0.9-2.8l88.8-69.1l-63-81l1.8-4.2l-30-8.8l-6.7-2l-22.2,70l-18.6-5.9l27.5-86.5L694,467L694,467z"/>
			</g>
		</g>
		<g>
			<polygon fill="#F4F1D3" points="718.4,827.8 836.2,827 836.2,817.2 926.8,816.6 993.5,764.3 1033.2,815.5 1116.3,815.4 
				1144.5,793.5 1179.1,838 1076.3,838.6 1076.3,847.5 1125.6,847.2 1125.5,887.6 1059.9,887.8 1059.1,838.9 1050.4,839 
				1051.9,1030.6 1050.3,1030.7 1050.6,1032.4 1019.1,1032.7 1019.1,1030.5 987.5,1030.9 987.5,1032.6 955.3,1032.8 955.2,1031 
				923.2,1031.3 923.1,1033.1 891,1033.4 891,1031.5 860.8,1031.8 860.7,1033.6 828,1033.8 827.9,1031.9 797.9,1032.1 797.8,1034 
				764,1034.2 764,1032.4 733.8,1032.5 733.8,1034.4 701.7,1034.5 			"/>
			<g>
				<path fill="#FFFFFF" d="M992.9,768.5l37,47.7l1.8,2.3h2.9l80.6-0.1h2l1.6-1.3l25.1-19.5L1173,835l-93.8,0.5h-5.9l-0.1,5.9v3
					l-0.1,6.1h6.1l43.3-0.3l-0.1,34.5l-59.8,0.2l-0.7-43l-0.1-5.9h-5.9h-2.8h-6l0.1,6l1.5,185.8l-2,0.2l0.2,1.5l-25.1,0.2v-2.1
					l-6,0.1l-25.5,0.3l-6.1,0.1l0.1,1.8l-26.3,0.2v-1.8l-5.9,0.1l-26.3,0.2l-5.7,0.1l-0.1,1.8l-26.3,0.2v-1.9l-5.9,0.1l-24.4,0.2
					l-5.8,0.1v1.8l-27,0.2l-0.1-1.9h-5.7l-24.3,0.2h-5.7l-0.1,1.9l-28,0.2l-0.1-1.8h-5.8l-24.4,0.1h-5.8l-0.1,1.9l-25.9,0.1
					l16.2-200.7l112.1-0.8h5.9v-5.9v-3.8l86.6-0.6h2l1.6-1.3L992.9,768.5 M994,760.2l-68.2,53.5l-92.6,0.7v9.8L715.6,825
					l-17.2,212.6l38.2-0.2l0.1-1.9l24.4-0.1l0.1,1.8l39.5-0.3l0.1-1.9l24.3-0.2l0.1,1.9l38.4-0.2v-1.8l24.4-0.2v1.9l37.9-0.3
					l0.1-1.8l26.3-0.2v1.8l38.3-0.2l-0.1-1.8l25.5-0.3v2.1l37.9-0.4l-0.3-1.9l1.2-0.1l-1.6-191.3h2.8l0.7,48.9l71.6-0.2l0.1-46.4
					l-49.3,0.4v-3l105.9-0.6l-40.2-51.6l-29.8,23.2l-80.6,0.1L994,760.2L994,760.2z"/>
			</g>
		</g>
		<g>
			<polygon fill="#FFCFCF" points="1081.5,1029.8 1061.1,1030.6 1059.3,897.4 1126.3,896.5 1126,1030.1 1114.7,1030.2 
				1114.9,1032.1 1081.8,1032.1 			"/>
			<g>
				<path fill="#FFFFFF" d="M1123.4,899.5l-0.4,127.6h-5.1h-6.5l0.2,1.9l-27.2,0.1l-0.3-2.4l-5.4,0.2l-14.7,0.6l-1.7-127.2
					L1123.4,899.5 M1129.3,893.5l-73,1l1.8,139.3l20.8-0.8l0.3,2.2l38.9-0.1l-0.2-1.9l11-0.1L1129.3,893.5L1129.3,893.5z"/>
			</g>
		</g>
		<g>
			<polygon fill="#F4F1D3" points="1145.3,1029.9 1134.5,1029.8 1134.8,941.1 1242.2,939.8 1242.9,1030.9 1209.9,1031.2 
				1209.7,1029.2 1178.1,1029.6 1178,1031.5 1145.3,1031.7 			"/>
			<g>
				<path fill="#FFFFFF" d="M1239.3,942.9l0.7,85.1l-27.3,0.2l-0.2-2l-5.6,0.1l-26,0.3l-5.7,0.1l-0.1,1.9l-26.8,0.1v-1.8h-5.8h-4.9
					l0.3-82.8L1239.3,942.9 M1245.2,936.8l-113.4,1.3l-0.3,94.7h10.9v1.9l38.5-0.2l0.1-1.9l26-0.3l0.2,2l38.8-0.3L1245.2,936.8
					L1245.2,936.8z"/>
			</g>
		</g>
		<g>
			<path fill="#D9E4E8" d="M487,1036.3c-2.7-0.2-7.3-0.6-8.4-0.8l-1.6-0.3c-20.3-4.9-34.5-14.9-42.3-29.9
				c-6.2-11.9-6.8-24.8-5.4-32.1V973l0.7-10.4l106.7,7.2l3.4,0.3l-0.8,13.6l2.9,0.4l-3.8,51.6l-10.6,0.2L487,1036.3z"/>
			<g>
				<path fill="#FFFFFF" d="M432.9,965.8l103.7,7h0.5l-0.5,8l-0.3,5.5l2.9,0.4l-3.4,46.1l-7.8,0.2l-40.8,0.3c-3.3-0.3-7.2-0.6-8-0.7
					l-1.5-0.3c-19.4-4.7-32.9-14.2-40.3-28.4c-5.9-11.3-6.4-23.3-5.1-30.2l0.1-0.3v-0.3L432.9,965.8 M427.3,959.4l-0.9,13.2
					c-2.9,15.1,1.3,53.9,50,65.5c0,0,0,0,1.6,0.3s8.8,0.8,8.8,0.8l41.1-0.3l13.3-0.3l4.2-57.1l-3-0.4l0.8-13.7l-6.2-0.7L427.3,959.4
					L427.3,959.4z"/>
			</g>
		</g>
		<g>
			<polygon fill="#FFFFFF" points="1394.2,943.4 1398.4,943.3 1398.4,935.6 1410.8,935.4 1411.1,944 1431.1,943.7 1432,1028.7 
				1395.5,1029.5 			"/>
			<path fill="#FFFFFF" d="M1407.9,938.4l0.1,2.7l0.2,5.9l5.9-0.1l14.1-0.2l0.8,79.1l-30.5,0.7l-1.2-80.2l4.2-0.2v-5.8v-1.8
				L1407.9,938.4 M1413.8,932.3l-18.4,0.3l0.1,7.7l-4.3,0.2l1.4,92.1l42.4-1l-0.9-91L1414,941L1413.8,932.3L1413.8,932.3z"/>
		</g>
		<g>
			<path fill="#D9E4E8" d="M1460.8,858.7l46.7-36.3l112.6,145.4l0.1,0.1c0.1,0.1,7.2,7.3,5.9,15.2c-0.8,5-4.9,9.4-12.2,13.1
				l-152.5,0.1L1460.8,858.7z"/>
			<g>
				<path fill="#FFFFFF" d="M1506.9,826.6l110.7,142.9l0.2,0.3l0.3,0.3c0.1,0.1,6.1,6.4,5.1,12.5c-0.6,3.9-4,7.4-10,10.6l-148.8,0.1
					l-0.6-133.1l30.8-24L1506.9,826.6 M1508,818.2l-17.1,13.3l-33.1,25.8l0.6,141.9l156.2-0.1c27.6-13.6,7.7-33.3,7.7-33.3
					L1508,818.2L1508,818.2z"/>
			</g>
		</g>
		<g>
			<polygon fill="#FFFFFF" points="1275.7,940.1 1385.3,938.1 1386.1,1019.5 1274.3,1020.9 			"/>
			<path fill="#FFFFFF" d="M1382.3,941.1l0.7,75.4l-105.8,1.3l1.3-74.9L1382.3,941.1 M1392.8,935l-120.1,2.2l-1.5,86.8l117.8-1.5
				l-0.8-84.5l4.4-0.5L1392.8,935L1392.8,935z"/>
		</g>
		<g>
			<polygon fill="#D8D8D6" points="1134.8,909.2 1182.6,909.5 1183.1,931.9 1134.8,932.5 			"/>
			<g>
				<path fill="#FFFFFF" d="M1137.8,912.2l41.9,0.3l0.4,16.5l-42.3,0.5V912.2 M1131.8,906.2v29.3l54.3-0.6l-0.7-28.3L1131.8,906.2
					L1131.8,906.2z"/>
			</g>
		</g>
		<g>
			<polygon fill="#D9E4E8" points="1134.7,847.5 1153.5,847.2 1153.5,881.9 1146.3,881.5 1146.4,900.8 1134.9,901.1 			"/>
			<g>
				<path fill="#FFFFFF" d="M1150.5,850.3v28.5h-0.8l-6.3-0.4v6.3l0.1,13.2l-5.6,0.2l-0.2-47.6L1150.5,850.3 M1156.5,844.2
					l-24.8,0.4l0.2,59.6l17.5-0.5l-0.1-19l7.1,0.4L1156.5,844.2L1156.5,844.2z"/>
			</g>
		</g>
		<g>
			<polygon fill="#D9E4E8" points="1169.2,881.9 1162.1,882 1162.3,847.4 1186.1,847 1191.6,854 1182,861.4 1182.3,900.5 
				1169.8,900.7 			"/>
			<g>
				<path fill="#FFFFFF" d="M1184.7,850l2.7,3.5l-6.1,4.8l-2.3,1.8v3l0.3,34.6l-6.6,0.1l-0.4-13l-0.2-5.8l-5.8,0.1h-1.1l0.2-28.6
					L1184.7,850 M1187.6,844l-28.2,0.6l-0.3,40.5l7.2-0.1l0.6,18.8l18.4-0.4l-0.4-40.5l10.8-8.4L1187.6,844L1187.6,844z"/>
			</g>
		</g>
		<g>
			<path fill="#F4F1D3" d="M1190.5,864.6l13.2-10.3l-52.3-67l36.8-28.6l-62.3-80.4l-17.6,13.7l5.6,6.9l10.4-8.1l18.8,24.2
				l-19.8,15.4l-40.1-51.5l19.8-15.4l6.8,8.8l7-5.6l-115.5-148.6l-7,5.5l38.2,49.2l-19.9,15.5l-47.1-60.7l26.8-20.9L930,426.8
				l-16.8,13l5.3,6.9l9.8-7.7l18.6,24l-19.8,15.4l-41.6-53.6l19.8-15.3l7.6,9.8l7.1-5.5L906.9,397L880,417.9l-19.6-25l-2.3,1.4
				c-2.1,1.3-52,31.9-90.1,106.4l-30.3-9.1l6.7-16l-53-16.5l2.9-8.8l-8.5-2.8l-2.9,8.9l-28-9.3L576,410l61.8-107.2
				c2.2-2.6,23.9-27.8,34.2-37.7c5.4-5.1,21.8-20.7,44.8-39.7l203-157.5l585.5,752.3l-50.7,38.6l0.2,69.4l-263.4,2.8L1190.5,864.6z"
				/>
			<g>
				<path fill="#FFFFFF" d="M919.2,72.1L1501,819.6l-47.1,35.9l-2.4,1.8v3l0.2,65l-257.5,2.7l-0.8-61.9l9.7-7.5l4.7-3.7l-3.7-4.7
					l-48.6-62.3l32.1-25l4.7-3.7l-3.6-4.7l-58.6-75.7l-3.7-4.7l-4.7,3.7l-12.9,10l-4.8,3.7l3.8,4.7l1.8,2.3l3.7,4.5l4.6-3.6l5.8-4.5
					l15.1,19.5l-15.1,11.8l-36.4-46.8l15.1-11.7l3.1,4l3.7,4.8l4.7-3.8l2.3-1.9l4.6-3.7l-3.6-4.6l-111.9-143.9l-3.7-4.7l-4.7,3.7
					l-2.3,1.8l-4.7,3.7l3.7,4.7l34.5,44.5l-15.2,11.8l-43.4-56l22.2-17.2l4.7-3.7l-3.7-4.7l-58.6-75.2l-3.7-4.7l-4.7,3.7l-12,9.4
					l-4.7,3.7l3.7,4.7l1.7,2.2l3.7,4.7l4.7-3.7l5-4l14.9,19.3l-15.1,11.8l-38-48.9l15.1-11.7l4,5.1l3.7,4.7l4.7-3.7l2.4-1.9l4.7-3.7
					l-3.7-4.7l-9.5-12.1l-3.7-4.7l-4.7,3.6l-22.1,17.2L864.4,393l-3.3-4.2l-4.5,2.7c-0.5,0.3-13.8,8.4-31.8,26
					c-15.9,15.5-38.7,41.7-58.3,79.4l-24.8-7.4l4.2-10l2.5-6l-6.2-2l-47-14.7l1-3.1l1.9-5.7l-5.7-1.9l-2.8-0.9l-5.7-1.9l-1.9,5.6
					l-1.1,3.2l-25-8.3l-75.8-35.6L640.2,304c3-3.5,23.8-27.7,33.8-37.2c5.4-5.1,21.7-20.6,44.6-39.5L919.2,72.1 M920.3,63.8
					L715.1,223.1c-22.3,18.3-38.5,33.6-45,39.8C659,273.4,635.5,301,635.5,301l-63.6,110.3l82,38.5l31,10.3l2.9-8.9l2.8,0.9l-3,8.8
					l52.8,16.5l-6.7,16.1l35.9,10.8c38.3-76.2,90.1-107.4,90.1-107.4l19.8,25.3l26.8-20.9l9.5,12.1l-2.4,1.9l-7.6-9.8l-24.5,19
					l45.3,58.3l24.5-19.1L928.9,435l-9.8,7.7l-1.7-2.2l12-9.4l58.6,75.2l-26.8,20.9l50.7,65.4l24.6-19.1l-38.2-49.2l2.3-1.8
					l111.9,143.9l-2.3,1.9l-6.8-8.7l-24.5,19.1l43.8,56.2l24.5-19.1l-22.4-28.9l-10.5,8.2l-1.8-2.3l12.9-10l58.6,75.7l-36.8,28.6
					l52.3,67l-12,9.3l0.9,70.8l269.3-2.8l-0.2-70.9l51.9-39.5L920.3,63.8L920.3,63.8z"/>
			</g>
		</g>
		<g>
			<polygon fill="#FFCFCF" points="933,486 952.6,470.7 979.9,506.4 960.6,521.4 			"/>
			<path fill="#FFFFFF" d="M952,474.9l23.7,30.9L961,517.2l-23.9-30.8L952,474.9 M953.1,466.5l-24.3,18.9l31.3,40.2l24-18.7
				L953.1,466.5L953.1,466.5z"/>
		</g>
		<g>
			
				<rect x="1029.3" y="583.9" transform="matrix(0.7891 -0.6142 0.6142 0.7891 -152.2825 767.5333)" fill="#FFCFCF" width="24.9" height="43.3"/>
			<path fill="#FFFFFF" d="M1037.8,585l22.9,29.5l-14.9,11.6l-22.9-29.5L1037.8,585 M1038.8,576.6l-24.3,18.9l30.2,38.9l24.3-18.9
				L1038.8,576.6L1038.8,576.6z"/>
		</g>
		<g>
			<polygon fill="#FFCFCF" points="1050.4,636.9 1070,621.6 1097.5,657.4 1078.1,672.5 			"/>
			<path fill="#FFFFFF" d="M1069.5,625.8l23.8,31.1l-14.7,11.4l-24-30.9L1069.5,625.8 M1070.6,617.4l-24.3,18.9l31.3,40.3l24-18.7
				L1070.6,617.4L1070.6,617.4z"/>
		</g>
		<g>
			
				<rect x="1140.1" y="725.9" transform="matrix(0.7892 -0.6142 0.6142 0.7892 -216.2896 865.56)" fill="#FFCFCF" width="24.9" height="43.8"/>
			<path fill="#FFFFFF" d="M1148.4,727.1l23.2,29.9l-14.9,11.6l-23.2-29.9L1148.4,727.1 M1149.4,718.7l-24.3,18.9l30.6,39.3
				L1180,758L1149.4,718.7L1149.4,718.7z"/>
		</g>
		<g>
			<polygon fill="#FFFFFF" points="962.4,675.7 975,665.8 969.5,658.8 956.8,668.6 914.7,614.5 981.1,562.7 1047.4,648.2 
				998.7,686.1 989.2,673.9 982.3,679.3 994.3,694.9 993.1,695.8 994.9,698.1 985.5,705.4 			"/>
			<path fill="#FFFFFF" d="M980.6,566.9l62.6,80.8l-44,34.2l-5.8-7.5l-3.7-4.7l-4.7,3.7l-2.3,1.8l-4.7,3.6l3.6,4.7l8.4,11l-1.2,1
				l1.7,2.2l-4.7,3.7l-19.5-25.1l7.9-6.2l4.7-3.7l-3.7-4.7l-1.8-2.3l-3.7-4.7l-4.7,3.7l-8,6.2L918.9,615L980.6,566.9 M981.7,558.5
				l-71.2,55.4l45.8,58.9L969,663l1.8,2.3l-12.6,9.8l26.8,34.5l14.1-11l-1.8-2.3l1.1-0.9l-12-15.6l2.3-1.8l9.5,12.2l53.4-41.5
				L981.7,558.5L981.7,558.5z"/>
		</g>
		<g>
			
				<rect x="1026" y="670.5" transform="matrix(0.7891 -0.6142 0.6142 0.7891 -198.0675 786.9848)" fill="#D8D8D8" width="42.2" height="22.9"/>
			<path fill="#FFFFFF" d="M1056.3,664.2l10.4,13.4l-28.6,22.2l-10.4-13.4L1056.3,664.2 M1057.4,655.8l-38,29.6l17.7,22.8l38-29.6
				L1057.4,655.8L1057.4,655.8z"/>
		</g>
		<g>
			<polygon fill="#FFFFFF" points="1024,754.3 1036.3,744.6 1030.9,737.8 1018.6,747.4 1010.1,736.5 1076.3,685 1149.1,778.8 
				1113.4,806.7 1064.8,806.8 			"/>
			<path fill="#FFFFFF" d="M1075.8,689.1l69.2,89.2l-32.6,25.4l-46.1,0.1l-38.1-49l7.6-6l4.6-3.7l-3.6-4.7l-1.7-2.2l-3.7-4.7
				l-4.7,3.7l-7.7,6l-4.8-6.2L1075.8,689.1 M1076.8,680.8l-70.9,55.2l12.2,15.6l12.4-9.6l1.7,2.2l-12.3,9.7l43.5,55.9l51.1-0.1
				l38.9-30.3L1076.8,680.8L1076.8,680.8z"/>
		</g>
	</g>
	<g id="thick_x5F_walls">
		<path fill="none" stroke="#2D2D2D" stroke-width="7.449" stroke-miterlimit="10" d="M1273.8,1037.4l-787.9,5.4
			c-29.6-0.4-70.3-24.2-63.1-75.1l1.8-23.5l-21.5-1.7l8.5-100l20.6,1.2l1.2-17.8l5.6,0.7c5.3-59.2,25.7-290.2,29.1-304
			c19-76.2,40.6-145.6,107.5-243.3l-5.3-4.1c0,0,36.6-50.8,106.3-105.7c70.8-55.7,191.5-140.2,208.3-122.8c0,0,11.2-8.7,17.6-13.6
			c7.7-6,27.7-13.5,43,5.8l721.3,926.8c0,0,16.3,24.8-29.6,44.3c0,0-30.1,17.2-124.8,22.8C1452.9,1036.4,1385,1035.2,1273.8,1037.4z
			"/>
		<path fill="none" stroke="#C4C4C4" stroke-width="7.449" stroke-miterlimit="10" d="M633.5,297.9c0,0,23.6-26.6,34.6-37.1
			c6.6-6.3,22.7-21.5,45-39.8L921.3,59.3L1511.8,818l115.5,148.4c0,0,19.9,25.1-14,36.2l-156.8,0.7"/>
		<path fill="none" stroke="#EDEDED" stroke-width="4.4694" stroke-miterlimit="10" d="M1273.8,1037.4l-787.9,5.4
			c-29.6-0.4-70.3-24.2-63.1-75.1l1.8-23.5l-21.5-1.7l8.5-100l20.6,1.2l1.3-17.8l5.6,0.7c5.2-59.2,25.5-290.2,29-304
			c19-76.2,40.6-145.6,107.5-243.3l-5.3-4.1c0,0,36.6-50.8,106.3-105.7c70.8-55.7,191.5-140.2,208.3-122.8c0,0,11.2-8.7,17.6-13.6
			c7.7-6,27.7-13.5,43,5.8l721.3,926.8c0,0,16.3,24.8-29.6,44.3c0,0-30.1,17.2-124.8,22.8C1452.9,1036.4,1385,1035.2,1273.8,1037.4z
			"/>
	</g>
	<g id="windows">
		<polyline fill="none" stroke="#666565" stroke-width="1.4898" stroke-miterlimit="10" points="1245.6,1037.6 1207.8,1037.8 
			508.5,1040.8 		"/>
		<path fill="none" stroke="#666565" stroke-width="1.4898" stroke-miterlimit="10" d="M440.4,820.8c3.9-53.3,24.3-284.3,27.7-298.1
			c19-76.2,40.6-145.6,107.5-243.3"/>
		<path fill="none" stroke="#666565" stroke-width="1.4898" stroke-miterlimit="10" d="M633.5,297.9c0,0,17.2-20.5,34.6-37.1
			c6.6-6.3,22.7-21.5,45-39.8L921.3,59.3l706,907.2c0,0,19.9,25.1-14,36.2l-156.8,0.7"/>
		<path fill="none" stroke="#666565" stroke-width="1.4898" stroke-miterlimit="10" d="M610.1,275.2c0,0,17.2-20.5,34.6-37.1
			c6.6-6.3,22.7-21.5,45-39.8l156-121"/>
	</g>
	<g id="internal_windows">
		<line fill="none" stroke="#666565" stroke-width="1.4898" stroke-miterlimit="10" x1="566.7" y1="691.8" x2="568.4" y2="669.2"/>
		<polyline fill="none" stroke="#666565" stroke-width="1.4898" stroke-miterlimit="10" points="555.7,814.9 558.9,781.6 
			559.3,777.1 562.7,737.8 		"/>
		<line fill="none" stroke="#666565" stroke-width="1.4898" stroke-miterlimit="10" x1="544.3" y1="965" x2="552.1" y2="862.3"/>
		<line fill="none" stroke="#666565" stroke-width="1.4898" stroke-miterlimit="10" x1="602" y1="840.8" x2="609.7" y2="742.1"/>
		<polyline fill="none" stroke="#666565" stroke-width="1.4898" stroke-miterlimit="10" points="606.9,279.7 634,301.3 612,340 		
			"/>
		<line fill="none" stroke="#666565" stroke-width="1.4898" stroke-miterlimit="10" x1="978.1" y1="496.1" x2="967.3" y2="482.2"/>
		
			<line fill="none" stroke="#666565" stroke-width="1.4898" stroke-miterlimit="10" x1="1062.2" y1="605.2" x2="1051.2" y2="591.1"/>
		
			<line fill="none" stroke="#666565" stroke-width="1.4898" stroke-miterlimit="10" x1="1078.7" y1="626.9" x2="1088.7" y2="639.7"/>
		
			<line fill="none" stroke="#666565" stroke-width="1.4898" stroke-miterlimit="10" x1="1163.9" y1="773.4" x2="1155.1" y2="780.2"/>
		<line fill="none" stroke="#666565" stroke-width="1.4898" stroke-miterlimit="10" x1="605.9" y1="577.9" x2="608.3" y2="549.8"/>
		<line fill="none" stroke="#666565" stroke-width="1.4898" stroke-miterlimit="10" x1="600.7" y1="638" x2="603.2" y2="609.8"/>
		<line fill="none" stroke="#666565" stroke-width="1.4898" stroke-miterlimit="10" x1="561" y1="558.9" x2="563" y2="534.3"/>
		<line fill="none" stroke="#666565" stroke-width="1.4898" stroke-miterlimit="10" x1="554.5" y1="639.6" x2="556.5" y2="614.9"/>
		<line fill="none" stroke="#2D2D2D" stroke-width="2.9796" stroke-miterlimit="10" x1="1508.6" y1="819" x2="1456.7" y2="859.5"/>
		<line fill="none" stroke="#666565" stroke-width="1.4898" stroke-miterlimit="10" x1="896.4" y1="598.3" x2="883" y2="581.1"/>
	</g>
	<g id="internal_walls">
		<polyline fill="none" stroke="#2D2D2D" stroke-width="2.9796" stroke-miterlimit="10" points="426.5,958 545.1,966.1 543.9,981.3 
					"/>
		<line fill="none" stroke="#2D2D2D" stroke-width="2.9796" stroke-miterlimit="10" x1="552.4" y1="838.7" x2="441.5" y2="830"/>
		<line fill="none" stroke="#2D2D2D" stroke-width="2.9796" stroke-miterlimit="10" x1="552.9" y1="844.2" x2="553.8" y2="833.1"/>
		<line fill="none" stroke="#2D2D2D" stroke-width="2.9796" stroke-miterlimit="10" x1="558.3" y1="777.9" x2="446.5" y2="769"/>
		<line fill="none" stroke="#2D2D2D" stroke-width="2.9796" stroke-miterlimit="10" x1="558.8" y1="782.3" x2="559.8" y2="774"/>
		<line fill="none" stroke="#2D2D2D" stroke-width="2.9796" stroke-miterlimit="10" x1="564.5" y1="714.6" x2="455.2" y2="706"/>
		<line fill="none" stroke="#2D2D2D" stroke-width="2.9796" stroke-miterlimit="10" x1="564.2" y1="719.6" x2="564.9" y2="710.2"/>
		<polyline fill="none" stroke="#2D2D2D" stroke-width="2.9796" stroke-miterlimit="10" points="568.2,669.3 569.5,651.5 
			461.3,642.7 		"/>
		<line fill="none" stroke="#2D2D2D" stroke-width="2.9796" stroke-miterlimit="10" x1="554.9" y1="639.3" x2="554" y2="650.6"/>
		<line fill="none" stroke="#2D2D2D" stroke-width="2.9796" stroke-miterlimit="10" x1="559.5" y1="576.7" x2="558" y2="596.7"/>
		<line fill="none" stroke="#2D2D2D" stroke-width="2.9796" stroke-miterlimit="10" x1="563.2" y1="534.4" x2="563.5" y2="531.3"/>
		<polyline fill="none" stroke="#2D2D2D" stroke-width="2.9796" stroke-miterlimit="10" points="643,547.8 665.5,552.3 693.2,465.1 
					"/>
		<line fill="none" stroke="#2D2D2D" stroke-width="2.9796" stroke-miterlimit="10" x1="587.1" y1="536.5" x2="624.8" y2="544.1"/>
		<line fill="none" stroke="#2D2D2D" stroke-width="2.9796" stroke-miterlimit="10" x1="471.3" y1="513.1" x2="569.1" y2="532.6"/>
		<polyline fill="none" stroke="#2D2D2D" stroke-width="2.9796" stroke-miterlimit="10" points="604.5,540.6 603.8,548.5 
			611.2,549.1 611.9,541.7 		"/>
		<line fill="none" stroke="#2D2D2D" stroke-width="2.9796" stroke-miterlimit="10" x1="594.8" y1="537.6" x2="627.5" y2="439.3"/>
		<line fill="none" stroke="#2D2D2D" stroke-width="2.9796" stroke-miterlimit="10" x1="657" y1="551.3" x2="689.5" y2="452.5"/>
		<line fill="none" stroke="#2D2D2D" stroke-width="2.9796" stroke-miterlimit="10" x1="671.9" y1="532.1" x2="663.8" y2="530.1"/>
		<line fill="none" stroke="#2D2D2D" stroke-width="2.9796" stroke-miterlimit="10" x1="686.1" y1="484.3" x2="680.2" y2="482.4"/>
		<line fill="none" stroke="#2D2D2D" stroke-width="2.9796" stroke-miterlimit="10" x1="597.6" y1="365.1" x2="603.1" y2="355.6"/>
		<line fill="none" stroke="#2D2D2D" stroke-width="2.9796" stroke-miterlimit="10" x1="569.9" y1="413.1" x2="588.8" y2="380.9"/>
		<line fill="none" stroke="#2D2D2D" stroke-width="2.9796" stroke-miterlimit="10" x1="600.4" y1="360.4" x2="546.5" y2="327.6"/>
		<line fill="none" stroke="#2D2D2D" stroke-width="2.9796" stroke-miterlimit="10" x1="607.5" y1="280.2" x2="582.9" y2="260.6"/>
		<polyline fill="none" stroke="#2D2D2D" stroke-width="2.9796" stroke-miterlimit="10" points="586.1,262.9 574.7,277.4 
			579.5,280.6 578.2,282.9 580.9,284.7 590,272.5 603.3,282.7 606.3,279.2 		"/>
		<polyline fill="none" stroke="#2D2D2D" stroke-width="2.9796" stroke-miterlimit="10" points="1178.4,761.7 1182.4,758.6 
			1125.5,685.5 1113.8,694.5 		"/>
		<line fill="none" stroke="#2D2D2D" stroke-width="2.9796" stroke-miterlimit="10" x1="1100.3" y1="653.1" x2="1111.8" y2="668"/>
		
			<line fill="none" stroke="#2D2D2D" stroke-width="2.9796" stroke-miterlimit="10" x1="1062.4" y1="604.4" x2="1079.4" y2="626.3"/>
		<line fill="none" stroke="#2D2D2D" stroke-width="2.9796" stroke-miterlimit="10" x1="999.8" y1="524.1" x2="1041.1" y2="577.1"/>
		<polyline fill="none" stroke="#2D2D2D" stroke-width="2.9796" stroke-miterlimit="10" points="978.1,496.1 986.4,506.8 
			958.6,528.4 		"/>
		<polyline fill="none" stroke="#2D2D2D" stroke-width="2.9796" stroke-miterlimit="10" points="956.5,468.4 929.6,433.8 
			918.6,442.3 		"/>
		
			<line fill="none" stroke="#2D2D2D" stroke-width="2.9796" stroke-miterlimit="10" x1="1070.8" y1="615.6" x2="1044.1" y2="636.4"/>
		<line fill="none" stroke="#2D2D2D" stroke-width="2.9796" stroke-miterlimit="10" x1="828.1" y1="588.2" x2="830.8" y2="591.7"/>
		<path fill="none" stroke="#2D2D2D" stroke-width="2.9796" stroke-miterlimit="10" d="M879.6,425l-19.8-25.5
			c0,0-51.7,30.8-91.4,111.9l46.3,59.5"/>
		<polyline fill="none" stroke="#2D2D2D" stroke-width="2.9796" stroke-miterlimit="10" points="961.3,783.8 994.1,758.2 
			1035.3,811.2 1114.9,811.1 1155.5,779.5 968.1,538.7 960.5,529 879.6,425 906.5,404.1 915,415 		"/>
		<polyline fill="none" stroke="#2D2D2D" stroke-width="2.9796" stroke-miterlimit="10" points="906.5,811.8 925,812 935,804.3 		
			"/>
		<polyline fill="none" stroke="#2D2D2D" stroke-width="2.9796" stroke-miterlimit="10" points="793.9,622.4 741.8,663 738.8,693.7 
			831.5,812.8 878.7,812 		"/>
		
			<line fill="none" stroke="#2D2D2D" stroke-width="2.9796" stroke-miterlimit="10" x1="1063.1" y1="811.7" x2="1003.6" y2="735.2"/>
		
			<line fill="none" stroke="#2D2D2D" stroke-width="2.9796" stroke-miterlimit="10" x1="1018.8" y1="724.3" x2="1103.9" y2="658.1"/>
		<line fill="none" stroke="#2D2D2D" stroke-width="2.9796" stroke-miterlimit="10" x1="1036.5" y1="710" x2="1031.1" y2="703"/>
		<line fill="none" stroke="#2D2D2D" stroke-width="2.9796" stroke-miterlimit="10" x1="1018.6" y1="752.8" x2="1031.2" y2="743"/>
		<polyline fill="none" stroke="#2D2D2D" stroke-width="2.9796" stroke-miterlimit="10" points="847.7,607.2 840.3,613 827.3,596.4 
			820.4,601.8 		"/>
		<polyline fill="none" stroke="#2D2D2D" stroke-width="2.9796" stroke-miterlimit="10" points="886.1,656.7 879.2,662 868.2,647.8 
			854.7,630.6 861.7,625.2 		"/>
		<polyline fill="none" stroke="#2D2D2D" stroke-width="2.9796" stroke-miterlimit="10" points="923,704.6 915.9,710.2 893,680.8 
			900.4,675 		"/>
		<polyline fill="none" stroke="#2D2D2D" stroke-width="2.9796" stroke-miterlimit="10" points="981.3,556.9 908.4,613.7 
			986.2,713.6 944,746.3 929.8,728 936.9,722.4 		"/>
		<line fill="none" stroke="#2D2D2D" stroke-width="2.9796" stroke-miterlimit="10" x1="956.4" y1="674.6" x2="969.9" y2="664.1"/>
		<polyline fill="none" stroke="#2D2D2D" stroke-width="2.9796" stroke-miterlimit="10" points="1053.7,649 998,692.4 987.5,679 		
			"/>
		<polyline fill="none" stroke="#2D2D2D" stroke-width="2.9796" stroke-miterlimit="10" points="829.3,698.9 836.8,693.1 
			825.8,678.9 812.3,661.7 804.8,667.5 		"/>
		<polyline fill="none" stroke="#2D2D2D" stroke-width="2.9796" stroke-miterlimit="10" points="842.7,716.1 850.7,709.9 
			903.1,777.3 889.9,787.5 882.6,778.1 		"/>
		<polyline fill="none" stroke="#2D2D2D" stroke-width="2.9796" stroke-miterlimit="10" points="864.2,792.4 871.6,801.9 
			858.7,811.9 742.8,663 		"/>
		<polyline fill="none" stroke="#2D2D2D" stroke-width="2.9796" stroke-miterlimit="10" points="791.4,649.7 798.8,643.9 
			787.4,629.2 		"/>
		<line fill="none" stroke="#2D2D2D" stroke-width="2.9796" stroke-miterlimit="10" x1="968.8" y1="778.1" x2="956.4" y2="762.2"/>
		<polyline fill="none" stroke="#2D2D2D" stroke-width="2.9796" stroke-miterlimit="10" points="962.3,769.1 987.3,749.6 994,758.3 
					"/>
		<polyline fill="none" stroke="#2D2D2D" stroke-width="2.9796" stroke-miterlimit="10" points="998,692.4 1000.5,695.7 
			1001.8,697.3 1056.8,654.5 		"/>
		<line fill="none" stroke="#2D2D2D" stroke-width="2.9796" stroke-miterlimit="10" x1="721.5" y1="725.2" x2="613" y2="717.1"/>
		<line fill="none" stroke="#2D2D2D" stroke-width="2.9796" stroke-miterlimit="10" x1="601.5" y1="845.2" x2="710.5" y2="854.6"/>
		<line fill="none" stroke="#2D2D2D" stroke-width="2.9796" stroke-miterlimit="10" x1="612" y1="713.7" x2="611.2" y2="723.3"/>
		<polyline fill="none" stroke="#2D2D2D" stroke-width="2.9796" stroke-miterlimit="10" points="613.4,695.2 616.6,655.7 
			742.2,665.9 		"/>
		<polyline fill="none" stroke="#2D2D2D" stroke-width="2.9796" stroke-miterlimit="10" points="599,876.5 596.7,907.6 707.3,916.4 
					"/>
		<polyline fill="none" stroke="#2D2D2D" stroke-width="2.9796" stroke-miterlimit="10" points="602.3,836.8 601.5,846.4 
			601.3,849.6 		"/>
		<line fill="none" stroke="#2D2D2D" stroke-width="2.9796" stroke-miterlimit="10" x1="676.9" y1="852.9" x2="671.8" y2="914.4"/>
		<polyline fill="none" stroke="#2D2D2D" stroke-width="2.9796" stroke-miterlimit="10" points="711.2,858.7 724.9,691.7 
			739.3,692.4 		"/>
		<line fill="none" stroke="#2D2D2D" stroke-width="2.9796" stroke-miterlimit="10" x1="700.9" y1="985.2" x2="709.8" y2="876.3"/>
		
			<line fill="none" stroke="#2D2D2D" stroke-width="2.9796" stroke-miterlimit="10" x1="696.5" y1="1039.1" x2="699.5" y2="1002.7"/>
		<line fill="none" stroke="#2D2D2D" stroke-width="2.9796" stroke-miterlimit="10" x1="741" y1="823.1" x2="714.4" y2="823.3"/>
		<polyline fill="none" stroke="#2D2D2D" stroke-width="2.9796" stroke-miterlimit="10" points="831.5,812.8 831.6,822.5 759.5,823 
					"/>
		<line fill="none" stroke="#2D2D2D" stroke-width="2.9796" stroke-miterlimit="10" x1="901.9" y1="779.2" x2="926.5" y2="810.8"/>
		<line fill="none" stroke="#2D2D2D" stroke-width="2.9796" stroke-miterlimit="10" x1="880.4" y1="510.8" x2="811.5" y2="564.4"/>
		<line fill="none" stroke="#2D2D2D" stroke-width="2.9796" stroke-miterlimit="10" x1="877" y1="522.9" x2="872.4" y2="517"/>
		<line fill="none" stroke="#2D2D2D" stroke-width="2.9796" stroke-miterlimit="10" x1="932.7" y1="594.4" x2="890.1" y2="539.7"/>
		<line fill="none" stroke="#2D2D2D" stroke-width="2.9796" stroke-miterlimit="10" x1="892.9" y1="543.6" x2="921.3" y2="521.5"/>
		<polyline fill="none" stroke="#2D2D2D" stroke-width="2.9796" stroke-miterlimit="10" points="960.9,572.5 901.2,495.7 863,447.5 
					"/>
		<line fill="none" stroke="#2D2D2D" stroke-width="2.9796" stroke-miterlimit="10" x1="558.2" y1="587" x2="466.4" y2="579.6"/>
		<polyline fill="none" stroke="#2D2D2D" stroke-width="2.9796" stroke-miterlimit="10" points="838.1,65.6 846.7,76.6 884.2,47.4 
					"/>
		<line fill="none" stroke="#2D2D2D" stroke-width="2.9796" stroke-miterlimit="10" x1="1149" y1="717.2" x2="1122.8" y2="737.5"/>
		<line fill="none" stroke="#2D2D2D" stroke-width="2.9796" stroke-miterlimit="10" x1="1055.3" y1="895" x2="1054.9" y2="843.4"/>
		
			<line fill="none" stroke="#2D2D2D" stroke-width="2.9796" stroke-miterlimit="10" x1="1056.3" y1="1035.1" x2="1055.6" y2="933.9"/>
		
			<line fill="none" stroke="#2D2D2D" stroke-width="2.9796" stroke-miterlimit="10" x1="1130.2" y1="1033.8" x2="1130.3" y2="842.8"/>
		
			<line fill="none" stroke="#2D2D2D" stroke-width="2.9796" stroke-miterlimit="10" x1="1182.1" y1="842.5" x2="1188.5" y2="842.4"/>
		
			<line fill="none" stroke="#2D2D2D" stroke-width="2.9796" stroke-miterlimit="10" x1="1152.8" y1="842.7" x2="1164.2" y2="842.6"/>
		
			<line fill="none" stroke="#2D2D2D" stroke-width="2.9796" stroke-miterlimit="10" x1="1079.2" y1="843.2" x2="1135.2" y2="842.8"/>
		
			<line fill="none" stroke="#2D2D2D" stroke-width="2.9796" stroke-miterlimit="10" x1="1187.2" y1="925.9" x2="1187.3" y2="937.4"/>
		<polyline fill="none" stroke="#2D2D2D" stroke-width="2.9796" stroke-miterlimit="10" points="1164.8,812 1197.7,854.3 
			1186.3,863.2 1186.9,909.5 		"/>
		
			<line fill="none" stroke="#2D2D2D" stroke-width="2.9796" stroke-miterlimit="10" x1="1146.3" y1="788.3" x2="1148.3" y2="790.8"/>
		
			<line fill="none" stroke="#2D2D2D" stroke-width="2.9796" stroke-miterlimit="10" x1="1054.8" y1="892.5" x2="1129.6" y2="891.9"/>
		<polyline fill="none" stroke="#2D2D2D" stroke-width="2.9796" stroke-miterlimit="10" points="1437,1003.5 1456.9,1003.5 
			1456.6,933.4 1415.3,933.8 1415.4,939.4 1436.9,939 		"/>
		
			<line fill="none" stroke="#2D2D2D" stroke-width="2.9796" stroke-miterlimit="10" x1="1390.5" y1="1024.3" x2="1270.2" y2="1024.6"/>
		
			<line fill="none" stroke="#2D2D2D" stroke-width="2.9796" stroke-miterlimit="10" x1="1131.1" y1="936.8" x2="1191.5" y2="936.2"/>
		
			<line fill="none" stroke="#2D2D2D" stroke-width="2.9796" stroke-miterlimit="10" x1="1246.8" y1="935.6" x2="1246.9" y2="1035.1"/>
		<line fill="none" stroke="#2D2D2D" stroke-width="2.9796" stroke-miterlimit="10" x1="1270.1" y1="1034.3" x2="1271.1" y2="936"/>
		
			<line fill="none" stroke="#2D2D2D" stroke-width="2.9796" stroke-miterlimit="10" x1="1435.6" y1="945.4" x2="1435.5" y2="938.3"/>
		
			<line fill="none" stroke="#2D2D2D" stroke-width="2.9796" stroke-miterlimit="10" x1="1436.4" y1="1031.7" x2="1435.7" y2="954.5"/>
		
			<line fill="none" stroke="#2D2D2D" stroke-width="2.9796" stroke-miterlimit="10" x1="1157.9" y1="842.7" x2="1157.9" y2="886.9"/>
		<line fill="none" stroke="#2D2D2D" stroke-width="2.9796" stroke-miterlimit="10" x1="1130.3" y1="905.4" x2="1185.4" y2="905"/>
		<polyline fill="none" stroke="#2D2D2D" stroke-width="2.9796" stroke-miterlimit="10" points="1150.7,905.3 1150.7,886.2 
			1165.1,886 1165.3,903.8 		"/>
		<polyline fill="none" stroke="#2D2D2D" stroke-width="2.9796" stroke-miterlimit="10" points="827.3,596.4 869.4,563.6 883,581.1 
					"/>
		<polyline fill="none" stroke="#2D2D2D" stroke-width="2.9796" stroke-miterlimit="10" points="867,645.9 908.4,613.7 896.3,598.2 
					"/>
		<line fill="none" stroke="#2D2D2D" stroke-width="2.9796" stroke-miterlimit="10" x1="862" y1="725.2" x2="818.4" y2="759.2"/>
		<line fill="none" stroke="#2D2D2D" stroke-width="2.9796" stroke-miterlimit="10" x1="876.3" y1="812.4" x2="870.1" y2="804.5"/>
		<polygon fill="none" stroke="#2D2D2D" stroke-width="2.9796" stroke-miterlimit="10" points="595.2,654.5 596.5,637.7 
			603.8,638.3 602.7,654.5 		"/>
		<line fill="none" stroke="#2D2D2D" stroke-width="2.9796" stroke-miterlimit="10" x1="616.6" y1="655.7" x2="595.2" y2="654.5"/>
		<polyline fill="none" stroke="#2D2D2D" stroke-width="2.9796" stroke-miterlimit="10" points="774,517.1 864.7,445.9 884.6,430.4 
					"/>
		<polyline fill="none" stroke="#2D2D2D" stroke-width="2.9796" stroke-miterlimit="10" points="739.3,497.3 733.4,495.5 
			738.7,479.1 685.1,462.4 653.7,452 517.3,387.9 		"/>
		<polyline fill="none" stroke="#2D2D2D" stroke-width="2.9796" stroke-miterlimit="10" points="780.2,513.9 770.7,506.8 
			765.5,505.2 		"/>
		<line fill="none" stroke="#2D2D2D" stroke-width="2.9796" stroke-miterlimit="10" x1="1012.4" y1="595" x2="1039" y2="574.3"/>
		<line fill="none" stroke="#2D2D2D" stroke-width="2.9796" stroke-miterlimit="10" x1="952.3" y1="465.5" x2="926.6" y2="485.4"/>
		
			<line fill="none" stroke="#2D2D2D" stroke-width="1.4898" stroke-miterlimit="10" x1="1055.6" y1="933.9" x2="1055.3" y2="913.6"/>
		<line fill="none" stroke="#2D2D2D" stroke-width="2.9796" stroke-miterlimit="10" x1="998.2" y1="697.5" x2="1000.5" y2="695.7"/>
		
			<line fill="none" stroke="#2D2D2D" stroke-width="2.9796" stroke-miterlimit="10" x1="1390.4" y1="993.1" x2="1390.9" y2="1032.2"/>
		<polyline fill="none" stroke="#2D2D2D" stroke-width="2.9796" stroke-miterlimit="10" points="1208.8,936 1393.9,934 1393.9,939 
			1389.7,939.2 1390.1,974.4 		"/>
		<line fill="none" stroke="#2D2D2D" stroke-width="2.9796" stroke-miterlimit="10" x1="901" y1="602.7" x2="924.6" y2="584.3"/>
	</g>
	<g id="pillars">
		<path fill="none" stroke="#000000" stroke-width="11.201" stroke-miterlimit="10" d="M539.8,336.3c3.8-6.5,7.7-13.2,11.8-20"/>
		<path fill="none" stroke="#000000" stroke-width="11.0351" stroke-miterlimit="10" d="M509.4,396.4c3.1-7,6.4-14.1,9.9-21.3"/>
		<path fill="none" stroke="#000000" stroke-width="11.024" stroke-miterlimit="10" d="M485.6,459.6c2.4-7.6,5-15.2,7.7-22.9"/>
		<path fill="none" stroke="#000000" stroke-width="11.2361" stroke-miterlimit="10" d="M467.9,523.6c1.9-7.7,3.8-15.3,5.8-22.8"/>
		<path fill="none" stroke="#000000" stroke-width="11.4454" stroke-miterlimit="10" d="M460.7,590.5c0.8-8.4,1.6-16.3,2.3-23.7"/>
		<path fill="none" stroke="#000000" stroke-width="11.2419" stroke-miterlimit="10" d="M454.7,654.3c0.7-8.1,1.5-16,2.2-23.9"/>
		<path fill="none" stroke="#000000" stroke-width="10.9727" stroke-miterlimit="10" d="M449.1,716.7c0.7-7.5,1.3-15.2,2-22.9"/>
		<path fill="none" stroke="#000000" stroke-width="11.0718" stroke-miterlimit="10" d="M443.6,780.9c0.6-7.2,1.3-14.9,1.9-23"/>
		<path fill="none" stroke="#FFFFFF" stroke-width="7.449" stroke-miterlimit="10" d="M540.6,334.9c3.2-5.6,6.6-11.4,10.2-17.2"/>
		<path fill="none" stroke="#FFFFFF" stroke-width="7.449" stroke-miterlimit="10" d="M510.4,394.1c2.4-5.5,5-11.1,7.8-16.7"/>
		<path fill="none" stroke="#FFFFFF" stroke-width="7.449" stroke-miterlimit="10" d="M486.5,457.1c1.9-5.9,3.9-11.8,6-17.8"/>
		<path fill="none" stroke="#FFFFFF" stroke-width="7.449" stroke-miterlimit="10" d="M468.6,520.8c1.5-5.8,2.9-11.6,4.4-17.4"/>
		<path fill="none" stroke="#FFFFFF" stroke-width="7.449" stroke-miterlimit="10" d="M461,587.3c0.5-5.7,1.1-11.3,1.7-17.2"/>
		<path fill="none" stroke="#FFFFFF" stroke-width="7.449" stroke-miterlimit="10" d="M455,651.1c0.5-5.9,1.1-11.7,1.6-17.4"/>
		<path fill="none" stroke="#FFFFFF" stroke-width="7.449" stroke-miterlimit="10" d="M449.4,713.4c0.5-5.4,1-10.8,1.4-16.3"/>
		<path fill="none" stroke="#FFFFFF" stroke-width="7.449" stroke-miterlimit="10" d="M443.9,777.6c0.4-5.1,0.9-10.6,1.4-16.4"/>
		
			<line fill="none" stroke="#2D2D2D" stroke-width="11.1735" stroke-miterlimit="10" x1="572.3" y1="1042.2" x2="547.9" y2="1042.4"/>
		<line fill="none" stroke="#2D2D2D" stroke-width="11.1735" stroke-miterlimit="10" x1="634.6" y1="1041.8" x2="610.2" y2="1042"/>
		
			<line fill="none" stroke="#2D2D2D" stroke-width="11.1735" stroke-miterlimit="10" x1="698.4" y1="1041.3" x2="671.2" y2="1041.5"/>
		
			<line fill="none" stroke="#2D2D2D" stroke-width="11.1735" stroke-miterlimit="10" x1="761.1" y1="1040.9" x2="736.7" y2="1041.1"/>
		
			<line fill="none" stroke="#2D2D2D" stroke-width="11.1735" stroke-miterlimit="10" x1="825.2" y1="1040.5" x2="800.7" y2="1040.7"/>
		
			<line fill="none" stroke="#2D2D2D" stroke-width="11.1735" stroke-miterlimit="10" x1="888.1" y1="1040.1" x2="863.7" y2="1040.2"/>
		
			<line fill="none" stroke="#2D2D2D" stroke-width="11.1735" stroke-miterlimit="10" x1="952.3" y1="1039.6" x2="926.1" y2="1039.8"/>
		
			<line fill="none" stroke="#2D2D2D" stroke-width="11.1735" stroke-miterlimit="10" x1="1016.1" y1="1039.2" x2="990.7" y2="1039.3"/>
		
			<line fill="none" stroke="#2D2D2D" stroke-width="11.1735" stroke-miterlimit="10" x1="1079.3" y1="1038.7" x2="1054" y2="1038.9"/>
		
			<line fill="none" stroke="#2D2D2D" stroke-width="11.1735" stroke-miterlimit="10" x1="1142.4" y1="1038.3" x2="1118" y2="1038.5"/>
		
			<line fill="none" stroke="#2D2D2D" stroke-width="11.1735" stroke-miterlimit="10" x1="1207.1" y1="1037.9" x2="1180.8" y2="1038"/>
		<line fill="none" stroke="#FFFFFF" stroke-width="7.449" stroke-miterlimit="10" x1="569.5" y1="1042.2" x2="550.7" y2="1042.4"/>
		<line fill="none" stroke="#FFFFFF" stroke-width="7.449" stroke-miterlimit="10" x1="631.8" y1="1041.8" x2="613" y2="1041.9"/>
		<line fill="none" stroke="#FFFFFF" stroke-width="7.449" stroke-miterlimit="10" x1="695.6" y1="1041.4" x2="674" y2="1041.5"/>
		<line fill="none" stroke="#FFFFFF" stroke-width="7.449" stroke-miterlimit="10" x1="758.3" y1="1040.9" x2="739.5" y2="1041.1"/>
		<line fill="none" stroke="#FFFFFF" stroke-width="7.449" stroke-miterlimit="10" x1="822.3" y1="1040.5" x2="803.5" y2="1040.6"/>
		<line fill="none" stroke="#FFFFFF" stroke-width="7.449" stroke-miterlimit="10" x1="885.3" y1="1040.1" x2="866.5" y2="1040.2"/>
		<line fill="none" stroke="#FFFFFF" stroke-width="7.449" stroke-miterlimit="10" x1="949.5" y1="1039.6" x2="928.9" y2="1039.8"/>
		
			<line fill="none" stroke="#FFFFFF" stroke-width="7.449" stroke-miterlimit="10" x1="1013.3" y1="1039.2" x2="993.5" y2="1039.3"/>
		
			<line fill="none" stroke="#FFFFFF" stroke-width="7.449" stroke-miterlimit="10" x1="1076.5" y1="1038.8" x2="1056.8" y2="1038.9"/>
		
			<line fill="none" stroke="#FFFFFF" stroke-width="7.449" stroke-miterlimit="10" x1="1139.6" y1="1038.3" x2="1120.8" y2="1038.4"/>
		<line fill="none" stroke="#FFFFFF" stroke-width="7.449" stroke-miterlimit="10" x1="1204.3" y1="1037.9" x2="1183.6" y2="1038"/>
		
			<ellipse transform="matrix(0.7892 -0.6142 0.6142 0.7892 -20.7374 467.7535)" fill="#2D2D2D" cx="670.9" cy="264.1" rx="3.2" ry="3.2"/>
		
			<ellipse transform="matrix(0.7892 -0.6142 0.6142 0.7892 16.1242 489.0018)" fill="#2D2D2D" cx="720.3" cy="221" rx="3.2" ry="3.2"/>
		
			<ellipse transform="matrix(0.7892 -0.6142 0.6142 0.7892 50.6434 511.533)" fill="#2D2D2D" cx="770.4" cy="182" rx="3.2" ry="3.2"/>
		
			<ellipse transform="matrix(0.7892 -0.6142 0.6142 0.7892 85.1272 534.1184)" fill="#2D2D2D" cx="820.5" cy="143.1" rx="3.2" ry="3.2"/>
		
			<ellipse transform="matrix(0.7892 -0.6142 0.6142 0.7892 119.6463 556.6495)" fill="#2D2D2D" cx="870.6" cy="104.1" rx="3.2" ry="3.2"/>
		
			<ellipse transform="matrix(0.7892 -0.6142 0.6142 0.7892 154.1112 579.1451)" fill="#2D2D2D" cx="920.6" cy="65.1" rx="3.2" ry="3.2"/>
		
			<ellipse transform="matrix(0.7892 -0.6142 0.6142 0.7892 129.7641 616.7621)" fill="#2D2D2D" cx="963.2" cy="119.4" rx="3.2" ry="3.2"/>
		
			<ellipse transform="matrix(0.7892 -0.6142 0.6142 0.7892 107.2497 651.2007)" fill="#2D2D2D" cx="1002.1" cy="169.4" rx="3.2" ry="3.2"/>
		
			<ellipse transform="matrix(0.7892 -0.6142 0.6142 0.7892 84.7313 685.6383)" fill="#2D2D2D" cx="1041" cy="219.4" rx="3.2" ry="3.2"/>
		
			<ellipse transform="matrix(0.7892 -0.6142 0.6142 0.7892 62.2181 720.0729)" fill="#2D2D2D" cx="1079.9" cy="269.4" rx="3.2" ry="3.2"/>
		
			<ellipse transform="matrix(0.7892 -0.6142 0.6142 0.7892 39.754 754.546)" fill="#2D2D2D" cx="1118.9" cy="319.4" rx="3.2" ry="3.2"/>
		
			<ellipse transform="matrix(0.7892 -0.6142 0.6142 0.7892 17.2397 788.9846)" fill="#2D2D2D" cx="1157.8" cy="369.4" rx="3.2" ry="3.2"/>
		
			<ellipse transform="matrix(0.7892 -0.6142 0.6142 0.7892 -5.2788 823.4222)" fill="#2D2D2D" cx="1196.7" cy="419.4" rx="3.2" ry="3.2"/>
		
			<ellipse transform="matrix(0.7892 -0.6142 0.6142 0.7892 -27.793 857.8608)" fill="#2D2D2D" cx="1235.6" cy="469.4" rx="3.2" ry="3.2"/>
		
			<ellipse transform="matrix(0.7892 -0.6142 0.6142 0.7892 -50.3074 892.2996)" fill="#2D2D2D" cx="1274.5" cy="519.4" rx="3.2" ry="3.2"/>
		
			<ellipse transform="matrix(0.7892 -0.6142 0.6142 0.7892 -72.8069 926.827)" fill="#2D2D2D" cx="1313.6" cy="569.5" rx="3.2" ry="3.2"/>
		
			<ellipse transform="matrix(0.7892 -0.6142 0.6142 0.7892 -95.3202 961.2616)" fill="#2D2D2D" cx="1352.5" cy="619.5" rx="3.2" ry="3.2"/>
		
			<ellipse transform="matrix(0.7892 -0.6142 0.6142 0.7892 -117.8386 995.6992)" fill="#2D2D2D" cx="1391.4" cy="669.5" rx="3.2" ry="3.2"/>
		
			<ellipse transform="matrix(0.7892 -0.6142 0.6142 0.7892 -140.353 1030.1378)" fill="#2D2D2D" cx="1430.3" cy="719.5" rx="3.2" ry="3.2"/>
		
			<ellipse transform="matrix(0.7892 -0.6142 0.6142 0.7892 -162.817 1064.611)" fill="#2D2D2D" cx="1469.3" cy="769.5" rx="3.2" ry="3.2"/>
		
			<ellipse transform="matrix(0.7892 -0.6142 0.6142 0.7892 -185.3314 1099.0497)" fill="#2D2D2D" cx="1508.2" cy="819.5" rx="3.2" ry="3.2"/>
		
			<ellipse transform="matrix(0.7892 -0.6142 0.6142 0.7892 -207.8497 1133.4873)" fill="#2D2D2D" cx="1547.1" cy="869.5" rx="3.2" ry="3.2"/>
		
			<ellipse transform="matrix(0.7892 -0.6142 0.6142 0.7892 -230.3641 1167.9259)" fill="#2D2D2D" cx="1586" cy="919.5" rx="3.2" ry="3.2"/>
		
			<ellipse transform="matrix(0.7892 -0.6142 0.6142 0.7892 -252.8784 1202.3646)" fill="#2D2D2D" cx="1624.9" cy="969.5" rx="3.2" ry="3.2"/>
		
			<ellipse transform="matrix(0.7892 -0.6142 0.6142 0.7892 -274.2897 1198.9994)" fill="#2D2D2D" cx="1609.3" cy="999" rx="3.2" ry="3.2"/>
		
			<ellipse transform="matrix(0.7892 -0.6142 0.6142 0.7892 -290.5358 1153.8369)" fill="#2D2D2D" cx="1535.4" cy="1000.1" rx="3.2" ry="3.2"/>
	</g>
	<g id="doors">
		<g>
			<path fill="none" stroke="#A0A0A0" stroke-width="0.8538" stroke-miterlimit="10" d="M947.1,792.4c-5.6-7.3-4.3-17.7,2.9-23.3"/>
			
				<line fill="none" stroke="#A0A0A0" stroke-width="1.7076" stroke-linecap="square" stroke-miterlimit="10" x1="962.2" y1="784" x2="950.4" y2="768.8"/>
		</g>
		<g>
			<path fill="none" stroke="#A0A0A0" stroke-width="0.8538" stroke-miterlimit="10" d="M947.3,792.2c-5.6-7.3-16.1-8.5-23.3-2.9"/>
			
				<line fill="none" stroke="#A0A0A0" stroke-width="1.7076" stroke-linecap="square" stroke-miterlimit="10" x1="935.5" y1="804.8" x2="923.6" y2="789.6"/>
		</g>
		<g>
			<path fill="none" stroke="#A0A0A0" stroke-width="0.8538" stroke-miterlimit="10" d="M808.4,613.8c5.6,7.3,4.3,17.7-2.9,23.3"/>
			
				<line fill="none" stroke="#A0A0A0" stroke-width="1.7076" stroke-linecap="square" stroke-miterlimit="10" x1="793.3" y1="622.1" x2="805.1" y2="637.4"/>
		</g>
		<g>
			<path fill="none" stroke="#A0A0A0" stroke-width="0.8538" stroke-miterlimit="10" d="M808.2,613.9c5.6,7.3,16.1,8.5,23.3,2.9"/>
			
				<line fill="none" stroke="#A0A0A0" stroke-width="1.7076" stroke-linecap="square" stroke-miterlimit="10" x1="820" y1="601.3" x2="831.9" y2="616.5"/>
		</g>
		<g>
			<path fill="none" stroke="#A0A0A0" stroke-width="0.8538" stroke-miterlimit="10" d="M1050.4,592.1c-7.3,5.6-17.7,4.3-23.3-2.9"
				/>
			
				<line fill="none" stroke="#A0A0A0" stroke-width="1.7076" stroke-linecap="square" stroke-miterlimit="10" x1="1042" y1="576.9" x2="1026.8" y2="588.8"/>
		</g>
		<g>
			<path fill="none" stroke="#A0A0A0" stroke-width="0.8538" stroke-miterlimit="10" d="M1088.1,640.5c-7.3,5.6-8.6,16.1-2.9,23.3"
				/>
			
				<line fill="none" stroke="#A0A0A0" stroke-width="1.7076" stroke-linecap="square" stroke-miterlimit="10" x1="1100.7" y1="652.3" x2="1085.4" y2="664.2"/>
		</g>
		<g>
			<path fill="none" stroke="#A0A0A0" stroke-width="0.8538" stroke-miterlimit="10" d="M965.6,483.2c-7.3,5.6-17.7,4.3-23.3-2.9"/>
			
				<line fill="none" stroke="#A0A0A0" stroke-width="1.7076" stroke-linecap="square" stroke-miterlimit="10" x1="957.3" y1="468.1" x2="942" y2="479.9"/>
		</g>
		<g>
			<path fill="none" stroke="#A0A0A0" stroke-width="0.8538" stroke-miterlimit="10" d="M1163.2,771c-5.6-7.3-4.3-17.7,2.9-23.3"/>
			
				<line fill="none" stroke="#A0A0A0" stroke-width="1.7076" stroke-linecap="square" stroke-miterlimit="10" x1="1178.3" y1="762.7" x2="1166.4" y2="747.4"/>
		</g>
		<g>
			<path fill="none" stroke="#A0A0A0" stroke-width="0.8538" stroke-miterlimit="10" d="M1155.7,797.4c7.3-5.6,17.7-4.3,23.3,2.9"/>
			
				<line fill="none" stroke="#A0A0A0" stroke-width="1.7076" stroke-linecap="square" stroke-miterlimit="10" x1="1164" y1="812.5" x2="1179.3" y2="800.7"/>
		</g>
		<g>
			<path fill="none" stroke="#A0A0A0" stroke-width="0.8538" stroke-miterlimit="10" d="M1155.7,797.4c3.9-3.1,3.9-8,0.9-11.9"/>
			
				<line fill="none" stroke="#A0A0A0" stroke-width="1.7076" stroke-linecap="square" stroke-miterlimit="10" x1="1148.1" y1="791.8" x2="1156.4" y2="785.3"/>
		</g>
		<g>
			<path fill="none" stroke="#A0A0A0" stroke-width="0.8538" stroke-miterlimit="10" d="M1057.6,912.8c9.2-0.1,16.5-7.7,16.4-16.9"
				/>
			
				<line fill="none" stroke="#A0A0A0" stroke-width="1.7076" stroke-linecap="square" stroke-miterlimit="10" x1="1054.7" y1="895.8" x2="1074" y2="895.5"/>
		</g>
		<g>
			<path fill="none" stroke="#A0A0A0" stroke-width="0.8538" stroke-miterlimit="10" d="M1185.2,926.1c-9.2,0.2-16.8-7.1-16.9-16.3"
				/>
			
				<line fill="none" stroke="#A0A0A0" stroke-width="1.7076" stroke-linecap="square" stroke-miterlimit="10" x1="1187.6" y1="909" x2="1168.3" y2="909.3"/>
		</g>
		<g>
			<path fill="none" stroke="#A0A0A0" stroke-width="0.8538" stroke-miterlimit="10" d="M1208.7,937.8c0.2,9.2-7.1,16.8-16.3,16.9"
				/>
			
				<line fill="none" stroke="#A0A0A0" stroke-width="1.7076" stroke-linecap="square" stroke-miterlimit="10" x1="1191.6" y1="935.4" x2="1191.9" y2="954.7"/>
		</g>
		<g>
			<path fill="none" stroke="#A0A0A0" stroke-width="0.8538" stroke-miterlimit="10" d="M1181.6,844.3c0.2,9.2-7.1,16.8-16.3,16.9"
				/>
			
				<line fill="none" stroke="#A0A0A0" stroke-width="1.7076" stroke-linecap="square" stroke-miterlimit="10" x1="1164.5" y1="842" x2="1164.9" y2="861.3"/>
		</g>
		<g>
			<path fill="none" stroke="#A0A0A0" stroke-width="0.8538" stroke-miterlimit="10" d="M1135.3,844.9c0.1,9.2,7.7,16.5,16.9,16.4"
				/>
			
				<line fill="none" stroke="#A0A0A0" stroke-width="1.7076" stroke-linecap="square" stroke-miterlimit="10" x1="1152.3" y1="842" x2="1152.6" y2="861.3"/>
		</g>
		<g>
			<path fill="none" stroke="#A0A0A0" stroke-width="0.8538" stroke-miterlimit="10" d="M1413.4,935.9c0.2,9.2-7.1,16.8-16.3,16.9"
				/>
			
				<line fill="none" stroke="#A0A0A0" stroke-width="1.7076" stroke-linecap="square" stroke-miterlimit="10" x1="1396.2" y1="933.5" x2="1396.6" y2="952.8"/>
		</g>
		<g>
			<path fill="none" stroke="#A0A0A0" stroke-width="0.8538" stroke-miterlimit="10" d="M1387.6,975.2c-9.2,0.1-16.5,7.7-16.4,16.9"
				/>
			
				<line fill="none" stroke="#A0A0A0" stroke-width="1.7076" stroke-linecap="square" stroke-miterlimit="10" x1="1390.6" y1="992.2" x2="1371.3" y2="992.5"/>
		</g>
		<g>
			<path fill="none" stroke="#A0A0A0" stroke-width="0.8538" stroke-miterlimit="10" d="M702.8,985.3c9.2,0.7,16,8.7,15.3,17.9"/>
			
				<line fill="none" stroke="#A0A0A0" stroke-width="1.7076" stroke-linecap="square" stroke-miterlimit="10" x1="698.7" y1="1002.1" x2="718" y2="1003.6"/>
		</g>
		<g>
			<path fill="none" stroke="#A0A0A0" stroke-width="0.8538" stroke-miterlimit="10" d="M707.9,876.1c-9.2-0.7-16-8.7-15.3-17.9"/>
			
				<line fill="none" stroke="#A0A0A0" stroke-width="1.7076" stroke-linecap="square" stroke-miterlimit="10" x1="711.9" y1="859.3" x2="692.6" y2="857.8"/>
		</g>
		<g>
			<path fill="none" stroke="#A0A0A0" stroke-width="0.8538" stroke-miterlimit="10" d="M1021,726c5.6,7.3,4.3,17.7-2.9,23.3"/>
			
				<line fill="none" stroke="#A0A0A0" stroke-width="1.7076" stroke-linecap="square" stroke-miterlimit="10" x1="1005.9" y1="734.4" x2="1017.7" y2="749.6"/>
		</g>
		<g>
			<path fill="none" stroke="#A0A0A0" stroke-width="0.8538" stroke-miterlimit="10" d="M990.5,749.8c5.6,7.3,16.1,8.5,23.3,2.9"/>
			
				<line fill="none" stroke="#A0A0A0" stroke-width="1.7076" stroke-linecap="square" stroke-miterlimit="10" x1="1002.3" y1="737.2" x2="1014.2" y2="752.4"/>
		</g>
		<g>
			<path fill="none" stroke="#A0A0A0" stroke-width="0.8538" stroke-miterlimit="10" d="M957.6,760.5c7.3-5.6,8.5-16.1,2.9-23.3"/>
			
				<line fill="none" stroke="#A0A0A0" stroke-width="1.7076" stroke-linecap="square" stroke-miterlimit="10" x1="945" y1="748.6" x2="960.2" y2="736.8"/>
		</g>
		<g>
			<path fill="none" stroke="#A0A0A0" stroke-width="0.8538" stroke-miterlimit="10" d="M996.9,695.8c-5.6-7.3-16.1-8.5-23.3-2.9"/>
			
				<line fill="none" stroke="#A0A0A0" stroke-width="1.7076" stroke-linecap="square" stroke-miterlimit="10" x1="985.1" y1="708.5" x2="973.2" y2="693.2"/>
		</g>
		<g>
			<path fill="none" stroke="#A0A0A0" stroke-width="0.8538" stroke-miterlimit="10" d="M1029.8,703.8c-8.5,6.6-20.7,5.1-27.3-3.4"
				/>
			
				<line fill="none" stroke="#A0A0A0" stroke-width="1.7076" stroke-linecap="square" stroke-miterlimit="10" x1="1020" y1="686.1" x2="1002.1" y2="700"/>
		</g>
		<g>
			<path fill="none" stroke="#A0A0A0" stroke-width="0.8538" stroke-miterlimit="10" d="M551.1,861.9c-9.2-0.7-16-8.7-15.3-17.9"/>
			
				<line fill="none" stroke="#A0A0A0" stroke-width="1.7076" stroke-linecap="square" stroke-miterlimit="10" x1="553.5" y1="844.9" x2="535.9" y2="843.5"/>
		</g>
		<g>
			<path fill="none" stroke="#A0A0A0" stroke-width="0.8538" stroke-miterlimit="10" d="M554.8,815.2c-9.2-0.7-17.2,6.2-17.8,15.4"
				/>
			
				<line fill="none" stroke="#A0A0A0" stroke-width="1.7076" stroke-linecap="square" stroke-miterlimit="10" x1="554.6" y1="832.3" x2="536.9" y2="831.1"/>
		</g>
		<g>
			<path fill="none" stroke="#A0A0A0" stroke-width="0.8538" stroke-miterlimit="10" d="M562.4,737.5c-9.2-0.7-16-8.7-15.3-17.9"/>
			
				<line fill="none" stroke="#A0A0A0" stroke-width="1.7076" stroke-linecap="square" stroke-miterlimit="10" x1="564.8" y1="720.5" x2="547.1" y2="719.1"/>
		</g>
		<g>
			<path fill="none" stroke="#A0A0A0" stroke-width="0.8538" stroke-miterlimit="10" d="M565.9,692.3c-9.2-0.7-17.2,6.2-17.8,15.4"
				/>
			
				<line fill="none" stroke="#A0A0A0" stroke-width="1.7076" stroke-linecap="square" stroke-miterlimit="10" x1="565.6" y1="709.5" x2="548" y2="708.2"/>
		</g>
		<g>
			<path fill="none" stroke="#A0A0A0" stroke-width="0.8538" stroke-miterlimit="10" d="M610.2,741.2c9.2,0.7,17.2-6.2,17.8-15.4"/>
			
				<line fill="none" stroke="#A0A0A0" stroke-width="1.7076" stroke-linecap="square" stroke-miterlimit="10" x1="610.4" y1="724.1" x2="628.1" y2="725.3"/>
		</g>
		<g>
			<path fill="none" stroke="#A0A0A0" stroke-width="0.8538" stroke-miterlimit="10" d="M613.7,696c9.2,0.7,16,8.7,15.3,17.9"/>
			
				<line fill="none" stroke="#A0A0A0" stroke-width="1.7076" stroke-linecap="square" stroke-miterlimit="10" x1="611.3" y1="712.9" x2="629" y2="714.3"/>
		</g>
		<g>
			<path fill="none" stroke="#A0A0A0" stroke-width="0.8538" stroke-miterlimit="10" d="M560.4,559.4c-9.2-0.7-17.2,6.2-17.8,15.4"
				/>
			
				<line fill="none" stroke="#A0A0A0" stroke-width="1.7076" stroke-linecap="square" stroke-miterlimit="10" x1="560.2" y1="576.5" x2="542.6" y2="575.2"/>
		</g>
		<g>
			<path fill="none" stroke="#A0A0A0" stroke-width="0.8538" stroke-miterlimit="10" d="M556.3,614.5c-9.2-0.7-16-8.7-15.3-17.9"/>
			
				<line fill="none" stroke="#A0A0A0" stroke-width="1.7076" stroke-linecap="square" stroke-miterlimit="10" x1="558.7" y1="597.5" x2="541.1" y2="596.1"/>
		</g>
		<g>
			<path fill="none" stroke="#A0A0A0" stroke-width="0.8538" stroke-miterlimit="10" d="M569.7,532.6c1.8-9,10.7-14.8,19.7-12.9"/>
			
				<line fill="none" stroke="#A0A0A0" stroke-width="1.7076" stroke-linecap="square" stroke-miterlimit="10" x1="586.3" y1="537" x2="589.8" y2="519.7"/>
		</g>
		<g>
			<path fill="none" stroke="#A0A0A0" stroke-width="0.8538" stroke-miterlimit="10" d="M625.5,543.9c1.8-9,10.7-14.8,19.7-12.9"/>
			
				<line fill="none" stroke="#A0A0A0" stroke-width="1.7076" stroke-linecap="square" stroke-miterlimit="10" x1="642" y1="548.3" x2="645.5" y2="531"/>
		</g>
		<g>
			<path fill="none" stroke="#A0A0A0" stroke-width="0.8538" stroke-miterlimit="10" d="M601.7,866.8c9.2,0.8,17.2-5.9,18-15.1"/>
			
				<line fill="none" stroke="#A0A0A0" stroke-width="1.7076" stroke-linecap="square" stroke-miterlimit="10" x1="600.6" y1="849.6" x2="619.8" y2="851.3"/>
		</g>
		<g>
			<path fill="none" stroke="#A0A0A0" stroke-width="0.8538" stroke-miterlimit="10" d="M601.7,866.8c5,0.5,7.6,4.6,7.2,9.6"/>
			
				<line fill="none" stroke="#A0A0A0" stroke-width="1.7076" stroke-linecap="square" stroke-miterlimit="10" x1="598.4" y1="875.7" x2="608.9" y2="876.6"/>
		</g>
		<g>
			<path fill="none" stroke="#A0A0A0" stroke-width="0.8538" stroke-miterlimit="10" d="M758.9,820.7c-0.2-9.2-7.8-16.4-16.9-16.3"
				/>
			
				<line fill="none" stroke="#A0A0A0" stroke-width="1.7076" stroke-linecap="square" stroke-miterlimit="10" x1="741.8" y1="823.7" x2="741.5" y2="804.5"/>
		</g>
		<g>
			<path fill="none" stroke="#A0A0A0" stroke-width="0.8538" stroke-miterlimit="10" d="M896.6,813.8c0.1,9.2-7.2,16.7-16.4,16.8"/>
			
				<line fill="none" stroke="#A0A0A0" stroke-width="1.7076" stroke-linecap="square" stroke-miterlimit="10" x1="879.5" y1="811.3" x2="879.8" y2="830.7"/>
		</g>
		<g>
			<path fill="none" stroke="#A0A0A0" stroke-width="0.8538" stroke-miterlimit="10" d="M896.6,813.8c0.1,5,4,8,9,7.9"/>
			
				<line fill="none" stroke="#A0A0A0" stroke-width="1.7076" stroke-linecap="square" stroke-miterlimit="10" x1="905.7" y1="811.2" x2="905.9" y2="821.7"/>
		</g>
		<g>
			<path fill="none" stroke="#A0A0A0" stroke-width="0.8538" stroke-miterlimit="10" d="M756.9,500.6c2.7-8.8-2.2-18.1-11-20.8"/>
			
				<line fill="none" stroke="#A0A0A0" stroke-width="1.7076" stroke-linecap="square" stroke-miterlimit="10" x1="739.8" y1="498.1" x2="745.5" y2="479.7"/>
		</g>
		<g>
			<path fill="none" stroke="#A0A0A0" stroke-width="0.8538" stroke-miterlimit="10" d="M756.9,500.6c1.5-4.8,6.1-6.5,10.8-5"/>
			
				<line fill="none" stroke="#A0A0A0" stroke-width="1.7076" stroke-linecap="square" stroke-miterlimit="10" x1="764.9" y1="505.7" x2="768" y2="495.7"/>
		</g>
		<g>
			<path fill="none" stroke="#A0A0A0" stroke-width="0.8538" stroke-miterlimit="10" d="M817.3,570.2c8.5-6.6,20.7-5.1,27.3,3.4"/>
			
				<line fill="none" stroke="#A0A0A0" stroke-width="1.7076" stroke-linecap="square" stroke-miterlimit="10" x1="827.1" y1="587.9" x2="844.9" y2="574"/>
		</g>
		<g>
			<path fill="none" stroke="#A0A0A0" stroke-width="0.8538" stroke-miterlimit="10" d="M879.4,521.8c8.5-6.6,20.7-5.1,27.3,3.4"/>
			
				<line fill="none" stroke="#A0A0A0" stroke-width="1.7076" stroke-linecap="square" stroke-miterlimit="10" x1="889.2" y1="539.5" x2="907.1" y2="525.7"/>
		</g>
		<g>
			<path fill="none" stroke="#A0A0A0" stroke-width="0.8538" stroke-miterlimit="10" d="M588.6,380.1c-8-4.6-10.7-14.7-6.2-22.7"/>
			
				<line fill="none" stroke="#A0A0A0" stroke-width="1.7076" stroke-linecap="square" stroke-miterlimit="10" x1="598" y1="365.8" x2="582.7" y2="357"/>
		</g>
		<g>
			<path fill="none" stroke="#A0A0A0" stroke-width="0.8538" stroke-miterlimit="10" d="M611.4,340.4c-8-4.6-18.2-1.8-22.7,6.1"/>
			
				<line fill="none" stroke="#A0A0A0" stroke-width="1.7076" stroke-linecap="square" stroke-miterlimit="10" x1="603.8" y1="355.7" x2="588.5" y2="346.9"/>
		</g>
	</g>
	<g id="misc">
		<polygon fill="#E9E9E9" points="1347.4,999.2 1295.1,999.8 1295.2,993 1348.9,992.9 1347.9,989.5 1274.3,989.8 1274.2,1000.2 
			1274.1,1020.5 1348,1020.6 		"/>
		
			<rect x="850.8" y="584.7" transform="matrix(0.7892 -0.6142 0.6142 0.7892 -188.9358 660.7808)" fill="#CCCCCC" stroke="#6D6D6D" stroke-width="1.4898" stroke-miterlimit="10" width="34.3" height="41.7"/>
		<line fill="none" stroke="#6D6D6D" stroke-width="1.4898" stroke-miterlimit="10" x1="868.7" y1="578.5" x2="867.2" y2="632.5"/>
		<line fill="none" stroke="#6D6D6D" stroke-width="1.4898" stroke-miterlimit="10" x1="841.6" y1="599.6" x2="894.3" y2="611.4"/>
		
			<rect x="889.7" y="635.3" transform="matrix(0.7892 -0.6142 0.6142 0.7892 -211.8131 695.3414)" fill="#CCCCCC" stroke="#6D6D6D" stroke-width="1.4898" stroke-miterlimit="10" width="34.3" height="41.7"/>
		<line fill="none" stroke="#6D6D6D" stroke-width="1.4898" stroke-miterlimit="10" x1="907.6" y1="629.2" x2="906.1" y2="683.1"/>
		<line fill="none" stroke="#6D6D6D" stroke-width="1.4898" stroke-miterlimit="10" x1="880.5" y1="650.2" x2="933.2" y2="662"/>
		
			<rect x="926.5" y="682.7" transform="matrix(0.7892 -0.6142 0.6142 0.7892 -233.1615 727.8806)" fill="#CCCCCC" stroke="#6D6D6D" stroke-width="1.4898" stroke-miterlimit="10" width="34.3" height="41.7"/>
		<line fill="none" stroke="#6D6D6D" stroke-width="1.4898" stroke-miterlimit="10" x1="944.3" y1="676.5" x2="942.8" y2="730.5"/>
		<line fill="none" stroke="#6D6D6D" stroke-width="1.4898" stroke-miterlimit="10" x1="917.2" y1="697.6" x2="969.9" y2="709.4"/>
		
			<rect x="768.2" y="649.5" transform="matrix(0.7892 -0.6142 0.6142 0.7892 -246.1609 623.6663)" fill="#CCCCCC" stroke="#6D6D6D" stroke-width="1.4898" stroke-miterlimit="10" width="34.3" height="41.7"/>
		<line fill="none" stroke="#6D6D6D" stroke-width="1.4898" stroke-miterlimit="10" x1="786" y1="643.3" x2="784.5" y2="697.3"/>
		<line fill="none" stroke="#6D6D6D" stroke-width="1.4898" stroke-miterlimit="10" x1="758.9" y1="664.4" x2="811.6" y2="676.2"/>
		
			<rect x="807.2" y="700.1" transform="matrix(0.7892 -0.6142 0.6142 0.7892 -268.988 658.2614)" fill="#CCCCCC" stroke="#6D6D6D" stroke-width="1.4898" stroke-miterlimit="10" width="34.3" height="41.7"/>
		<line fill="none" stroke="#6D6D6D" stroke-width="1.4898" stroke-miterlimit="10" x1="824.9" y1="693.9" x2="823.4" y2="747.9"/>
		<line fill="none" stroke="#6D6D6D" stroke-width="1.4898" stroke-miterlimit="10" x1="797.8" y1="715" x2="850.5" y2="726.8"/>
		
			<rect x="843.7" y="747.4" transform="matrix(0.7892 -0.6142 0.6142 0.7892 -290.3551 690.7108)" fill="#CCCCCC" stroke="#6D6D6D" stroke-width="1.4898" stroke-miterlimit="10" width="34.3" height="41.7"/>
		<line fill="none" stroke="#6D6D6D" stroke-width="1.4898" stroke-miterlimit="10" x1="861.6" y1="741.3" x2="860.1" y2="795.2"/>
		<line fill="none" stroke="#6D6D6D" stroke-width="1.4898" stroke-miterlimit="10" x1="834.5" y1="762.3" x2="887.2" y2="774.1"/>
		<polyline fill="#E9E9E9" stroke="#6D6D6D" stroke-width="1.4898" stroke-miterlimit="10" points="845.1,466.9 781.3,516.6 
			813.2,557.6 877.2,507.8 		"/>
		
			<rect x="809" y="501.7" transform="matrix(0.7892 -0.6142 0.6142 0.7892 -133.7971 621.239)" fill="none" stroke="#6D6D6D" stroke-width="2.2347" stroke-miterlimit="10" width="57.9" height="7.6"/>
		<line fill="none" stroke="#6D6D6D" stroke-width="0.7449" stroke-miterlimit="10" x1="858.3" y1="484.5" x2="845" y2="467.4"/>
		<line fill="none" stroke="#6D6D6D" stroke-width="0.7449" stroke-miterlimit="10" x1="854.1" y1="487.8" x2="840.8" y2="470.7"/>
		<line fill="none" stroke="#6D6D6D" stroke-width="0.7449" stroke-miterlimit="10" x1="850" y1="491" x2="836.9" y2="474.2"/>
		<line fill="none" stroke="#6D6D6D" stroke-width="0.7449" stroke-miterlimit="10" x1="845.8" y1="494.3" x2="832.7" y2="477.5"/>
		<line fill="none" stroke="#6D6D6D" stroke-width="0.7449" stroke-miterlimit="10" x1="841.6" y1="497.5" x2="828.3" y2="480.4"/>
		<line fill="none" stroke="#6D6D6D" stroke-width="0.7449" stroke-miterlimit="10" x1="837.5" y1="500.7" x2="824.2" y2="483.7"/>
		<line fill="none" stroke="#6D6D6D" stroke-width="0.7449" stroke-miterlimit="10" x1="833.3" y1="504" x2="820.3" y2="487.2"/>
		<line fill="none" stroke="#6D6D6D" stroke-width="0.7449" stroke-miterlimit="10" x1="825" y1="510.5" x2="811.9" y2="493.7"/>
		<line fill="none" stroke="#6D6D6D" stroke-width="0.7449" stroke-miterlimit="10" x1="829.2" y1="507.2" x2="815.8" y2="490.1"/>
		<line fill="none" stroke="#6D6D6D" stroke-width="0.7449" stroke-miterlimit="10" x1="820.8" y1="513.7" x2="807.5" y2="496.6"/>
		<line fill="none" stroke="#6D6D6D" stroke-width="0.7449" stroke-miterlimit="10" x1="816.7" y1="516.9" x2="803.6" y2="500.2"/>
		<line fill="none" stroke="#6D6D6D" stroke-width="0.7449" stroke-miterlimit="10" x1="812.5" y1="520.2" x2="799.4" y2="503.4"/>
		<line fill="none" stroke="#6D6D6D" stroke-width="0.7449" stroke-miterlimit="10" x1="876.7" y1="508.1" x2="863.4" y2="491"/>
		<line fill="none" stroke="#6D6D6D" stroke-width="0.7449" stroke-miterlimit="10" x1="872.5" y1="511.3" x2="859.3" y2="494.3"/>
		<line fill="none" stroke="#6D6D6D" stroke-width="0.7449" stroke-miterlimit="10" x1="868.4" y1="514.6" x2="855.3" y2="497.8"/>
		<line fill="none" stroke="#6D6D6D" stroke-width="0.7449" stroke-miterlimit="10" x1="864.2" y1="517.8" x2="851.2" y2="501"/>
		<line fill="none" stroke="#6D6D6D" stroke-width="0.7449" stroke-miterlimit="10" x1="860" y1="521.1" x2="846.7" y2="503.9"/>
		<line fill="none" stroke="#6D6D6D" stroke-width="0.7449" stroke-miterlimit="10" x1="855.9" y1="524.3" x2="842.6" y2="507.2"/>
		<line fill="none" stroke="#6D6D6D" stroke-width="0.7449" stroke-miterlimit="10" x1="851.7" y1="527.5" x2="838.7" y2="510.8"/>
		<line fill="none" stroke="#6D6D6D" stroke-width="0.7449" stroke-miterlimit="10" x1="843.4" y1="534" x2="830.3" y2="517.2"/>
		<line fill="none" stroke="#6D6D6D" stroke-width="0.7449" stroke-miterlimit="10" x1="847.6" y1="530.8" x2="834.2" y2="513.7"/>
		<line fill="none" stroke="#6D6D6D" stroke-width="0.7449" stroke-miterlimit="10" x1="839.2" y1="537.3" x2="826" y2="520.2"/>
		<line fill="none" stroke="#6D6D6D" stroke-width="0.7449" stroke-miterlimit="10" x1="835.1" y1="540.5" x2="822" y2="523.7"/>
		<line fill="none" stroke="#6D6D6D" stroke-width="0.7449" stroke-miterlimit="10" x1="830.9" y1="543.7" x2="817.8" y2="527"/>
		<g>
			<g>
				<polyline fill="none" stroke="#6D6D6D" stroke-width="0.7449" stroke-miterlimit="10" points="875.8,495.3 815.2,542.5 
					796.6,518.7 799.4,516.5 				"/>
				<g>
					<polygon fill="#6D6D6D" points="796.1,513.3 801.7,520.5 802.5,514.1 					"/>
				</g>
			</g>
		</g>
		<polyline fill="#E9E9E9" stroke="#6D6D6D" stroke-width="1.4898" stroke-linecap="square" stroke-miterlimit="10" points="
			1347.7,941.3 1274.9,942.4 1274.3,989.8 1347.9,989.5 		"/>
		<polygon fill="none" stroke="#6D6D6D" stroke-width="2.2347" stroke-miterlimit="10" points="1351.1,969.3 1295.5,969.4 
			1295.5,962.5 1351.1,962.5 		"/>
		
			<line fill="none" stroke="#6D6D6D" stroke-width="0.7065" stroke-miterlimit="10" x1="1347.7" y1="961.8" x2="1347.7" y2="941.3"/>
		
			<line fill="none" stroke="#6D6D6D" stroke-width="0.7065" stroke-miterlimit="10" x1="1342.4" y1="962.1" x2="1342.4" y2="941.9"/>
		
			<line fill="none" stroke="#6D6D6D" stroke-width="0.7065" stroke-miterlimit="10" x1="1337.1" y1="962.5" x2="1337.1" y2="942.3"/>
		
			<line fill="none" stroke="#6D6D6D" stroke-width="0.7065" stroke-miterlimit="10" x1="1331.9" y1="962.3" x2="1331.9" y2="941.7"/>
		
			<line fill="none" stroke="#6D6D6D" stroke-width="0.7065" stroke-miterlimit="10" x1="1326.6" y1="962.2" x2="1326.6" y2="941.7"/>
		
			<line fill="none" stroke="#6D6D6D" stroke-width="0.7065" stroke-miterlimit="10" x1="1321.1" y1="962.3" x2="1321.1" y2="942.1"/>
		
			<line fill="none" stroke="#6D6D6D" stroke-width="0.7065" stroke-miterlimit="10" x1="1311.1" y1="962.3" x2="1311.1" y2="942.1"/>
		
			<line fill="none" stroke="#6D6D6D" stroke-width="0.7065" stroke-miterlimit="10" x1="1316.1" y1="962.3" x2="1316.1" y2="941.7"/>
		<line fill="none" stroke="#6D6D6D" stroke-width="0.7065" stroke-miterlimit="10" x1="1305.5" y1="962.5" x2="1305.5" y2="942"/>
		
			<line fill="none" stroke="#6D6D6D" stroke-width="0.7065" stroke-miterlimit="10" x1="1300.2" y1="962.7" x2="1300.2" y2="942.5"/>
		
			<line fill="none" stroke="#6D6D6D" stroke-width="0.7065" stroke-miterlimit="10" x1="1294.9" y1="962.7" x2="1294.9" y2="942.5"/>
		<line fill="none" stroke="#6D6D6D" stroke-width="0.6889" stroke-miterlimit="10" x1="1347.9" y1="989.5" x2="1347.9" y2="970"/>
		
			<line fill="none" stroke="#6D6D6D" stroke-width="0.6889" stroke-miterlimit="10" x1="1342.9" y1="989.5" x2="1342.9" y2="970.3"/>
		
			<line fill="none" stroke="#6D6D6D" stroke-width="0.6889" stroke-miterlimit="10" x1="1337.4" y1="989.6" x2="1337.4" y2="970.4"/>
		<line fill="none" stroke="#6D6D6D" stroke-width="0.6889" stroke-miterlimit="10" x1="1332.1" y1="990" x2="1332" y2="970.4"/>
		<line fill="none" stroke="#6D6D6D" stroke-width="0.6889" stroke-miterlimit="10" x1="1326.8" y1="989.5" x2="1326.8" y2="970"/>
		
			<line fill="none" stroke="#6D6D6D" stroke-width="0.6889" stroke-miterlimit="10" x1="1321.7" y1="989.7" x2="1321.7" y2="970.5"/>
		
			<line fill="none" stroke="#6D6D6D" stroke-width="0.6889" stroke-miterlimit="10" x1="1310.9" y1="989.4" x2="1310.9" y2="970.2"/>
		<line fill="none" stroke="#6D6D6D" stroke-width="0.6889" stroke-miterlimit="10" x1="1316.2" y1="989.6" x2="1316.2" y2="970"/>
		
			<line fill="none" stroke="#6D6D6D" stroke-width="0.6889" stroke-miterlimit="10" x1="1305.8" y1="989.4" x2="1305.8" y2="969.9"/>
		
			<line fill="none" stroke="#6D6D6D" stroke-width="0.6889" stroke-miterlimit="10" x1="1300.4" y1="989.5" x2="1300.4" y2="970.3"/>
		
			<line fill="none" stroke="#6D6D6D" stroke-width="0.6889" stroke-miterlimit="10" x1="1295.1" y1="989.5" x2="1295.1" y2="970.3"/>
		<g>
			<g>
				<polyline fill="none" stroke="#6D6D6D" stroke-width="0.689" stroke-miterlimit="10" points="1288.1,979.6 1285.1,979.6 
					1285.1,952.4 1355.2,952.4 				"/>
				<g>
					<polygon fill="#6D6D6D" points="1287.6,983.8 1287.6,975.4 1291.8,979.6 					"/>
				</g>
			</g>
		</g>
		<polyline fill="none" stroke="#6D6D6D" stroke-width="2.2347" stroke-miterlimit="10" points="1354.5,1022.9 1353.8,992.9 
			1295.2,993 1295.2,994.4 1295.1,999.8 1347.8,999.6 		"/>
		<line fill="none" stroke="#6D6D6D" stroke-width="0.7179" stroke-miterlimit="10" x1="1347.6" y1="1022" x2="1347.4" y2="999.2"/>
		
			<line fill="none" stroke="#6D6D6D" stroke-width="0.7179" stroke-miterlimit="10" x1="1342.9" y1="1020.9" x2="1342.9" y2="999.2"/>
		
			<line fill="none" stroke="#6D6D6D" stroke-width="0.7179" stroke-miterlimit="10" x1="1337.7" y1="1020.8" x2="1337.6" y2="998.9"/>
		
			<line fill="none" stroke="#6D6D6D" stroke-width="0.7179" stroke-miterlimit="10" x1="1332.4" y1="1020.9" x2="1332.4" y2="999.6"/>
		
			<line fill="none" stroke="#6D6D6D" stroke-width="0.7179" stroke-miterlimit="10" x1="1327.1" y1="1020.4" x2="1327.1" y2="999.2"/>
		
			<line fill="none" stroke="#6D6D6D" stroke-width="0.7179" stroke-miterlimit="10" x1="1321.8" y1="1020.4" x2="1321.8" y2="999.5"/>
		
			<line fill="none" stroke="#6D6D6D" stroke-width="0.7179" stroke-miterlimit="10" x1="1311.3" y1="1020.7" x2="1311.2" y2="999.9"/>
		
			<line fill="none" stroke="#6D6D6D" stroke-width="0.7179" stroke-miterlimit="10" x1="1316.5" y1="1020.9" x2="1316.5" y2="999.7"/>
		
			<line fill="none" stroke="#6D6D6D" stroke-width="0.7179" stroke-miterlimit="10" x1="1305.9" y1="1020.8" x2="1305.9" y2="999.6"/>
		
			<line fill="none" stroke="#6D6D6D" stroke-width="0.7179" stroke-miterlimit="10" x1="1300.4" y1="1020.2" x2="1300.4" y2="999.4"/>
		
			<line fill="none" stroke="#6D6D6D" stroke-width="0.7179" stroke-miterlimit="10" x1="1295.4" y1="1020.9" x2="1295.4" y2="998.9"/>
		<polyline fill="none" stroke="#6D6D6D" stroke-width="1.4898" stroke-miterlimit="10" points="1348,1020.6 1274.1,1020.5 
			1274.3,989.8 		"/>
		<g>
			
				<rect x="668.8" y="510.9" transform="matrix(0.3026 -0.9531 0.9531 0.3026 1.8553 1043.4224)" fill="#DDDDDD" width="90.2" height="19"/>
			<path fill="#939393" d="M718.7,474.8l17.7,5.6L709.2,566l-17.7-5.6L718.7,474.8 M718.4,474.2l-27.5,86.5l18.6,5.9l27.5-86.5
				L718.4,474.2L718.4,474.2z"/>
		</g>
		<line fill="none" stroke="#939393" stroke-width="0.5111" stroke-miterlimit="10" x1="697.1" y1="562.7" x2="724.6" y2="476.2"/>
		<line fill="none" stroke="#939393" stroke-width="0.5111" stroke-miterlimit="10" x1="707.4" y1="565.5" x2="734.9" y2="479"/>
		
			<text transform="matrix(0.6142 0.7892 -0.7892 0.6142 864.2139 692.024)" fill="#2D2D2D"   font-family="'Arial'"  font-weight="bold"  font-size="11.9194px">LIFTS</text>
		
			<text transform="matrix(0.9999 1.643189e-03 -1.510489e-03 1 1508.2218 956.4686)" fill="#2D2D2D"   font-family="'Arial'"  font-weight="bold"  font-size="11.9184px">KITCHEN</text>
		
			<text transform="matrix(0.9964 8.370000e-02 -8.370000e-02 0.9965 508.616 549.894)" fill="#2D2D2D"   font-family="'Arial'"  font-weight="bold"  font-size="9px">02</text>
		
			<text transform="matrix(0.9964 8.370000e-02 -8.370000e-02 0.9965 498.7434 561.1071)" fill="#2D2D2D"   font-family="'Arial'"  font-weight="bold"  font-size="9px">KOBE</text>
		
			<text transform="matrix(0.9977 6.680000e-02 -6.670000e-02 0.9978 503.6791 612.0624)" fill="#2D2D2D"   font-family="'Arial'"  font-weight="bold"  font-size="9px">03</text>
		
			<text transform="matrix(0.9977 6.680000e-02 -6.670000e-02 0.9978 490.4077 623.201)" fill="#2D2D2D"   font-family="'Arial'"  font-weight="bold"  font-size="9px">OSAKA</text>
		
			<text transform="matrix(0.9977 6.680000e-02 -6.670000e-02 0.9978 499.7547 675.061)" fill="#2D2D2D"   font-family="'Arial'"  font-weight="bold"  font-size="9px">04</text>
		
			<text transform="matrix(0.9977 6.680000e-02 -6.670000e-02 0.9978 484.5916 685.939)" fill="#2D2D2D"   font-family="'Arial'"  font-weight="bold"  font-size="9px">NAGOYA</text>
		
			<text transform="matrix(0.9977 6.680000e-02 -6.670000e-02 0.9978 495.2972 737.4872)" fill="#2D2D2D"   font-family="'Arial'"  font-weight="bold"  font-size="9px">05</text>
		
			<text transform="matrix(0.9977 6.680000e-02 -6.670000e-02 0.9978 480.4343 748.3854)" fill="#2D2D2D"   font-family="'Arial'"  font-weight="bold"  font-size="9px">HONSHU</text>
		
			<text transform="matrix(0.9977 6.680000e-02 -6.670000e-02 0.9978 491.173 797.9786)" fill="#2D2D2D"   font-family="'Arial'"  font-weight="bold"  font-size="9px">06</text>
		
			<text transform="matrix(0.9977 6.680000e-02 -6.670000e-02 0.9978 474.9128 808.7831)" fill="#2D2D2D"   font-family="'Arial'"  font-weight="bold"  font-size="9px">SHIKOKU</text>
		
			<text transform="matrix(0.9977 6.680000e-02 -6.670000e-02 0.9978 479.6777 888.7421)" fill="#2D2D2D"   font-family="'Arial'"  font-weight="bold"  font-size="9px">07</text>
		
			<text transform="matrix(0.9977 6.680000e-02 -6.670000e-02 0.9978 466.7053 899.9008)" fill="#2D2D2D"   font-family="'Arial'"  font-weight="bold"  font-size="9px">TOKYO</text>
		
			<text transform="matrix(0.9977 6.680000e-02 -6.670000e-02 0.9978 663.695 687.0665)" fill="#2D2D2D"   font-family="'Arial'"  font-weight="bold"  font-size="9px">08</text>
		
			<text transform="matrix(0.9977 6.680000e-02 -6.670000e-02 0.9978 640.7505 697.4235)" fill="#2D2D2D"   font-family="'Arial'"  font-weight="bold"  font-size="9px">YOKOHAMA</text>
		
			<text transform="matrix(0.9977 6.680000e-02 -6.670000e-02 0.9978 657.5251 782.5101)" fill="#2D2D2D"   font-family="'Arial'"  font-weight="bold"  font-size="9px">09</text>
		
			<text transform="matrix(0.9977 6.680000e-02 -6.670000e-02 0.9978 644.4557 793.5953)" fill="#2D2D2D"   font-family="'Arial'"  font-weight="bold"  font-size="9px">SENDAI</text>
		
			<text transform="matrix(0.9995 -5.465216e-03 5.944408e-03 1 1086.2136 971.5619)" fill="#2D2D2D"   font-family="'Arial'"  font-weight="bold"  font-size="9px">12</text>
		
			<text transform="matrix(0.9995 -5.465216e-03 5.944408e-03 1 1075.1914 983.6225)" fill="#2D2D2D"   font-family="'Arial'"  font-weight="bold"  font-size="9px">OTARU</text>
		
			<text transform="matrix(0.9995 -5.465216e-03 5.944408e-03 1 1162.0013 985.396)" fill="#2D2D2D"   font-family="'Arial'"  font-weight="bold"  font-size="11.9231px">PROJECT</text>
		
			<text transform="matrix(0.9995 -5.465216e-03 5.944408e-03 1 1171.3616 999.6558)" fill="#2D2D2D"   font-family="'Arial'"  font-weight="bold"  font-size="11.9231px">ROOM</text>
		
			<text transform="matrix(0.9995 -5.465216e-03 5.944408e-03 1 857.5588 931.002)" fill="#2D2D2D"   font-family="'Arial'"  font-weight="bold"  font-size="11.9231px">SOUTH</text>
		
			<text transform="matrix(0.9995 -5.465216e-03 5.944408e-03 1 856.4017 945.3849)" fill="#2D2D2D"   font-family="'Arial'"  font-weight="bold"  font-size="11.9231px">OFFICE</text>
		
			<text transform="matrix(0.9995 -5.465216e-03 5.944408e-03 1 889.5081 230.357)" fill="#2D2D2D"   font-family="'Arial'"  font-weight="bold"  font-size="11.9231px">NORTH</text>
		
			<text transform="matrix(0.9995 -5.465216e-03 5.944408e-03 1 887.6473 244.705)" fill="#2D2D2D"   font-family="'Arial'"  font-weight="bold"  font-size="11.9231px">OFFICE</text>
		
			<text transform="matrix(0.9505 0.3028 -0.3041 0.9526 542.1871 470.1893)" fill="#2D2D2D"   font-family="'Arial'"  font-weight="bold"  font-size="9px">01</text>
		
			<text transform="matrix(0.9505 0.3028 -0.3041 0.9526 523.7106 476.8969)" fill="#2D2D2D"   font-family="'Arial'"  font-weight="bold"  font-size="9px">KYUSHU</text>
		
			<text transform="matrix(0.8736 0.4783 -0.4811 0.8767 589.3611 307.1949)" fill="#2D2D2D"   font-family="'Arial'"  font-weight="bold"  font-size="10px">11</text>
		
			<text transform="matrix(0.8736 0.4783 -0.4811 0.8767 567.6539 307.623)" fill="#2D2D2D"   font-family="'Arial'"  font-weight="bold"  font-size="9px">HOKKAIDO</text>
		
			<text transform="matrix(0.8735 0.4783 -0.4811 0.8767 554.7115 368.7016)" fill="#2D2D2D"   font-family="'Arial'"  font-weight="bold"  font-size="10px">10</text>
		
			<text transform="matrix(0.8735 0.4783 -0.4811 0.8767 534.7536 370.0871)" fill="#2D2D2D"   font-family="'Arial'"  font-weight="bold"  font-size="9px">SAPPORO</text>
		
			<text transform="matrix(0.9995 -5.465216e-03 5.944408e-03 1 455.1998 1003.6005)" fill="#2D2D2D"   font-family="'Arial'"  font-weight="bold"  font-size="11.9231px">KITCHEN</text>
		<text transform="matrix(0.9995 -5.465216e-03 5.944408e-03 1 594.2356 975.5851)" enable-background="new    "><tspan x="0" y="0" fill="#2D2D2D"   font-family="'Arial'"  font-weight="bold"  font-size="11.9231px">BREAKOUT</tspan><tspan x="16.9" y="14.3" fill="#2D2D2D"   font-family="'Arial'"  font-weight="bold"  font-size="11.9231px">AREA</tspan></text>
	</g>
</g>
<g id="nopointer-lud">
	<rect x="110.5" y="84.9" fill="#FFFFFF" stroke="#000000" stroke-width="2" stroke-miterlimit="10" width="232" height="222.5"/>
	<g>
		<circle fill="#008246" cx="157.6" cy="118.4" r="19.9"/>
		<polygon fill="#FFFFFF" points="167.7,114.6 167.7,132.3 165.2,134.8 145.5,134.8 147.9,132.7 147.9,114.7 143.6,114.7 157.6,102 
			171.5,114.6 		"/>
		<g id="exit_14_">
			<g>
				<g>
					<path fill="#008246" d="M161.6,131.8l-4.8-8.8c-0.1,1-0.4,2.8-0.5,3.6c-0.1,1.1-1.2,1.4-1.7,1.5l0,0H145l2.4-2.9h5.8l0.4-5.3
						l2.3-4.2h-2h-0.1c-0.1,0.1-0.3,0.4-0.4,0.6l-1.6,2.5c-0.2,0.4-0.6,0.6-1.1,0.6c-0.2,0-0.5-0.1-0.7-0.2
						c-0.6-0.4-0.8-1.1-0.4-1.7l1.6-2.5l0,0c0.5-0.7,0.9-1.1,1.2-1.3c0.5-0.3,1-0.3,1.3-0.3c0.1,0,0.1,0,0.2,0h3.8
						c0.4,0,0.8-0.1,1.1-0.1c2,0,2.9,0.6,3.2,1c0.1,0.1,0.2,0.2,0.3,0.3l2.2,2.9h3.4c0.7,0,1.3,0.6,1.3,1.3s-0.6,1.3-1.3,1.3h-4
						c-0.4,0-0.8-0.2-1-0.5l-1.7-2.3l-1.6,3.5l5.6,11.4L161.6,131.8z"/>
					<path fill="#FFFFFF" d="M158.8,113.3c1.9,0,2.7,0.6,3,1c0.1,0.1,0.2,0.1,0.3,0.2l2.3,3h3.5c0.5,0,1,0.4,1,1s-0.4,1-1,1h-4
						c-0.3,0-0.6-0.1-0.8-0.4l-2-2.6l-1.9,4.1l5.5,11.1l-3-0.1l-5.1-9.3c0,0-0.5,3.3-0.6,4.4c-0.1,1.2-1.5,1.2-1.5,1.2h-9l2-2.4h6
						l0.4-5.6l2.4-4.6l0,0h-2.5h-0.1h-0.1c-0.1,0.1-0.4,0.4-0.5,0.7l-1.6,2.5c-0.2,0.3-0.5,0.5-0.8,0.5c-0.2,0-0.4-0.1-0.5-0.2
						c-0.5-0.3-0.6-0.9-0.3-1.4l1.6-2.5l0,0c0.4-0.7,0.8-1.1,1.1-1.2c0.4-0.3,0.9-0.3,1.2-0.3c0.1,0,0.1,0,0.2,0h3.9
						C158.1,113.3,158.5,113.3,158.8,113.3 M158.8,112.8v0.5V112.8c-0.4,0-0.7,0-1.1,0.1h-3.8c-0.1,0-0.1,0-0.2,0
						c-0.4,0-0.9,0.1-1.4,0.4c-0.4,0.2-0.8,0.7-1.3,1.4c0,0,0,0,0,0.1l-1.6,2.5c-0.4,0.7-0.2,1.7,0.5,2.1c0.2,0.2,0.5,0.2,0.8,0.2
						c0.5,0,1-0.3,1.3-0.7l1.6-2.5c0.1-0.2,0.2-0.3,0.3-0.4l0,0h1.6l-2,3.8l-0.1,0.1v0.1l-0.3,5h-5.5h-0.3l-0.2,0.2l-2,2.4l-0.8,0.9
						h1.2h9l0,0l0,0c0,0,0.4,0,0.9-0.2c0.6-0.3,1-0.8,1.1-1.5c0.1-0.6,0.3-1.8,0.4-2.8l4.3,7.9l0.1,0.3h0.3l3,0.1h0.9l-0.4-0.8
						l-5.4-10.9l1.4-3l1.4,1.9c0.3,0.4,0.7,0.6,1.2,0.6h4c0.8,0,1.5-0.7,1.5-1.5s-0.7-1.5-1.5-1.5h-3.2l-2.1-2.8
						c-0.1-0.1-0.2-0.2-0.3-0.3c-0.3-0.3-0.6-0.5-1.1-0.7C160.5,112.9,159.7,112.8,158.8,112.8L158.8,112.8z"/>
				</g>
				<g>
					<path fill="#008246" d="M160.6,113.2c-1.4,0-2.6-1.2-2.6-2.6s1.2-2.6,2.6-2.6s2.6,1.2,2.6,2.6S162,113.2,160.6,113.2z"/>
					<path fill="#FFFFFF" d="M160.6,108.2c1.3,0,2.4,1.1,2.4,2.3s-1.1,2.3-2.4,2.3s-2.4-1.1-2.4-2.3S159.3,108.2,160.6,108.2
						 M160.6,107.7c-1.6,0-2.9,1.3-2.9,2.9s1.3,2.9,2.9,2.9c1.6,0,2.9-1.3,2.9-2.9S162.1,107.7,160.6,107.7L160.6,107.7z"/>
				</g>
			</g>
		</g>
	</g>
	<g>
		<g>
			<path fill="#FF0000" d="M157.6,242.7c-11.7,0-21.2-9.5-21.2-21.2s9.5-21.2,21.2-21.2s21.2,9.5,21.2,21.2S169.3,242.7,157.6,242.7
				z"/>
			<path fill="#FFFFFF" d="M157.6,201.6c11,0,19.9,8.9,19.9,19.9s-8.9,19.9-19.9,19.9s-19.9-8.9-19.9-19.9S146.6,201.6,157.6,201.6
				 M157.6,199.1c-12.4,0-22.4,10.1-22.4,22.4s10.1,22.4,22.4,22.4s22.4-10.1,22.4-22.4S169.9,199.1,157.6,199.1L157.6,199.1z"/>
		</g>
		<g id="fire_17_">
			<g>
				<path fill="#FFFFFF" d="M168.8,213.3v-4.5l-6.7,0.8v0.8h-3.5v-1.7h-0.9c0,0,0-0.4-0.3-0.8c-0.8-1.2-2.6-1.3-3.4-0.4
					c-1.6,1.6,0,3.3,0,3.3c-1.6,0.7-2.9,1.9-3.4,3c-0.6,1.5,0.9,1.7,1.3,1.1c1.9-2.9,3.9-2.8,3.9-2.8v0.7c-3.3,1.1-3.1,4.1-3.1,4.1
					s0,17.4,0,18.6c0,1,1,0.9,1,0.9c1.4,0,3.2,0,3.2,0s2.6,0,3.6,0s1.1-0.8,1.1-1.4s0-15.2,0-18.2s-3-4.1-3-4.1v-1h3.5v0.8
					L168.8,213.3z M155.5,209.9c-0.5,0-0.9-0.4-0.9-0.9s0.4-0.9,0.9-0.9s0.9,0.4,0.9,0.9S156.1,209.9,155.5,209.9z"/>
			</g>
		</g>
	</g>
	<g>
		<g>
			<path fill="#008246" d="M157.6,191.1c-11.7,0-21.2-9.5-21.2-21.2s9.5-21.2,21.2-21.2s21.2,9.5,21.2,21.2S169.3,191.1,157.6,191.1
				z"/>
			<path fill="#FFFFFF" d="M157.6,150.1c11,0,19.9,8.9,19.9,19.9s-8.9,19.9-19.9,19.9s-19.9-8.9-19.9-19.9S146.6,150.1,157.6,150.1
				 M157.6,147.6c-12.4,0-22.4,10.1-22.4,22.4s10.1,22.4,22.4,22.4S180,182.3,180,170S169.9,147.6,157.6,147.6L157.6,147.6z"/>
		</g>
		<g id="aid_1_">
			<polygon fill="#FFFFFF" points="170.8,166.3 161.3,166.3 161.3,156.8 154,156.8 154,166.3 144.4,166.3 144.4,173.7 154,173.7 
				154,183.2 161.3,183.2 161.3,173.7 170.8,173.7 			"/>
		</g>
	</g>
	<g>
		<circle fill="#003E87" cx="157.6" cy="274.7" r="19.9"/>
		<path fill="#FEFEFE" d="M162.4,277.3c0,0.5-0.4,0.9-0.9,0.9s-0.9-0.4-0.9-0.9v-6l0,0c0-1.3,1.1-2.4,2.4-2.4l0,0h4.3l0,0
			c1.3,0,2.4,1.1,2.4,2.4l0,0v6c0,0.5-0.4,0.9-0.9,0.9s-0.9-0.4-0.9-0.9v-5.5h-0.5v14.9c0,0.6-0.5,1.1-1.1,1.1s-1.1-0.5-1.1-1.1
			v-8.6H165v8.6c0,0.6-0.5,1.1-1.1,1.1s-1.1-0.5-1.1-1.1v-14.9h-0.5L162.4,277.3L162.4,277.3z"/>
		<circle fill="#FEFEFE" cx="165.2" cy="266.5" r="2"/>
		<path fill="#FEFEFE" d="M145.6,276.5c-0.1,0.4-0.6,0.7-1,0.5c-0.4-0.1-0.7-0.6-0.6-1l1.6-5.6c0.3-1,1.3-1.8,2.3-1.8l0,0l0,0h2.7
			l0,0c0,0,0,0,0.1,0c1.1,0,2,0.7,2.3,1.8l1.6,5.6c0.1,0.4-0.1,0.9-0.6,1c-0.4,0.1-0.9-0.1-1-0.5l-1.5-5.2H151l2.6,8.9h-2.4v6.6
			c0,0.5-0.4,0.9-0.9,0.9s-0.9-0.4-0.9-0.9v-6.6H149v6.6c0,0.5-0.4,0.9-0.9,0.9s-0.9-0.4-0.9-0.9v-6.6H145l2.6-8.9h-0.5L145.6,276.5
			L145.6,276.5z"/>
		<circle fill="#FEFEFE" cx="149.4" cy="266.4" r="2"/>
		<line fill="none" stroke="#FEFEFE" stroke-width="0.8048" stroke-miterlimit="10" x1="157.6" y1="258.2" x2="157.6" y2="290.8"/>
	</g>
	<text transform="matrix(1 0 0 1 192.4901 125.5198)" font-family="'Arial'" font-size="14px">EMERGENCY EXIT</text>
	<text transform="matrix(1 0 0 1 192.4903 176.9599)" font-family="'Arial'" font-size="14px">FIRST AID</text>
	<text transform="matrix(1 0 0 1 192.49 229.0098)" font-family="'Arial'" font-size="14px">EXTINGUISHER</text>
	<text transform="matrix(1 0 0 1 192.49 281.2969)" font-family="'Arial'" font-size="14px">TOILETS</text>
	<g>
		<circle fill="#008246" cx="1413.1" cy="985.8" r="10"/>
		<polygon fill="#FFFFFF" points="1418.1,983.8 1418.1,992.8 1416.9,993.9 1406.9,993.9 1408.2,992.9 1408.2,983.9 1406.1,983.9 
			1413.1,977.5 1420.1,983.8 		"/>
		<g id="exit_9_">
			<g>
				<g>
					<path fill="#008246" d="M1415.1,992.5l-2.4-4.4c0,0.6-0.1,1.4-0.3,1.9c0,0.6-0.6,0.7-0.9,0.7l0,0h-4.9l1.3-1.4h2.9l0.1-2.7
						l1.1-2.1h-1l0,0c0,0-0.1,0.1-0.3,0.3l-0.9,1.3c-0.1,0.1-0.3,0.3-0.6,0.3c-0.1,0-0.3,0-0.3-0.1c-0.3-0.1-0.4-0.6-0.1-0.9
						l0.9-1.3l0,0c0.3-0.3,0.4-0.6,0.6-0.7c0.3-0.1,0.4-0.1,0.7-0.1c0,0,0,0,0.1,0h1.9c0.1,0,0.4,0,0.6,0c1,0,1.4,0.3,1.6,0.6
						l0.1,0.1l1.1,1.4h1.7c0.3,0,0.6,0.3,0.6,0.6s-0.3,0.6-0.6,0.6h-2c-0.1,0-0.4-0.1-0.4-0.3l-0.9-1.1l-0.9,1.7l2.9,5.7
						L1415.1,992.5z"/>
					<path fill="#FFFFFF" d="M1413.6,983.2c1,0,1.4,0.3,1.6,0.4c0,0,0.1,0,0.1,0.1l1.1,1.6h1.7c0.3,0,0.4,0.3,0.4,0.6
						s-0.3,0.6-0.4,0.6h-2c-0.1,0-0.3,0-0.4-0.1l-1-1.3l-1,2l2.7,5.6h-1.6l-2.6-4.7c0,0-0.3,1.6-0.3,2.1c0,0.6-0.7,0.6-0.7,0.6h-4.6
						l1-1.1h3l0.1-2.9l1.3-2.3l0,0h-1.3l0,0l0,0c0,0-0.1,0.1-0.3,0.3l-0.9,1.3c-0.1,0.1-0.3,0.3-0.4,0.3s-0.1,0-0.3,0
						c-0.3-0.1-0.3-0.4-0.1-0.7l0.9-1.3l0,0c0.3-0.3,0.4-0.6,0.6-0.6c0.3-0.1,0.4-0.1,0.6-0.1c0,0,0,0,0.1,0h2
						C1413.3,983.2,1413.5,983.2,1413.6,983.2 M1413.6,982.9v0.3V982.9c-0.1,0-0.4,0-0.6,0h-1.9c0,0,0,0-0.1,0s-0.4,0-0.7,0.1
						c-0.1,0.1-0.4,0.3-0.7,0.7l0,0l-0.9,1.3c-0.3,0.3-0.1,0.9,0.3,1c0.1,0,0.3,0.1,0.4,0.1c0.3,0,0.4-0.1,0.7-0.4l0.7-1.3l0.1-0.1
						l0,0h0.9l-1,1.9l0,0l0,0l-0.1,2.6h-2.7h-0.1v0.1l-1,1.1l-0.4,0.4h0.6h4.6l0,0l0,0c0,0,0.3,0,0.4-0.1c0.3-0.1,0.6-0.4,0.6-0.7
						s0.1-0.9,0.1-1.4l2.1,4v0.1h0.1h1.6h0.4l-0.1-0.4l-2.7-5.4l0.7-1.6l0.7,1c0.1,0.1,0.4,0.3,0.6,0.3h2c0.4,0,0.7-0.3,0.7-0.7
						s-0.3-0.7-0.7-0.7h-1.6l-1.1-1.4l-0.1-0.1c-0.1-0.1-0.3-0.3-0.6-0.3C1414.5,982.9,1414.1,982.9,1413.6,982.9L1413.6,982.9z"/>
				</g>
				<g>
					<path fill="#008246" d="M1414.5,983.1c-0.7,0-1.3-0.6-1.3-1.3s0.6-1.3,1.3-1.3c0.7,0,1.3,0.6,1.3,1.3
						S1415.2,983.1,1414.5,983.1z"/>
					<path fill="#FFFFFF" d="M1414.5,980.6c0.7,0,1.1,0.6,1.1,1.1c0,0.6-0.6,1.1-1.1,1.1c-0.7,0-1.1-0.6-1.1-1.1
						C1413.3,981.2,1413.9,980.6,1414.5,980.6 M1414.5,980.3c-0.9,0-1.4,0.7-1.4,1.4c0,0.9,0.7,1.4,1.4,1.4c0.7,0,1.4-0.7,1.4-1.4
						C1415.9,981.1,1415.3,980.3,1414.5,980.3L1414.5,980.3z"/>
				</g>
			</g>
		</g>
	</g>
	<g>
		<circle fill="#003E87" cx="1079.6" cy="755" r="10"/>
	</g>
	<g>
		<circle fill="#003E87" cx="984.1" cy="629.8" r="10"/>
		<path fill="#FFFFFF" d="M987.4,632.2l-2-5.5c0,0,0,0,0-0.1s0.1-0.2,0.2-0.2c0.1,0,0.1,0,0.1,0.1l1.4,3.5c0.1,0.2,0.4,0.4,0.7,0.4
			c0.1,0,0.2-0.1,0.3-0.3s0.1-0.3,0.1-0.4l-1.4-3.4c0-0.4-0.2-0.8-0.6-1.1c-0.4-0.3-0.8-0.4-1.2-0.4h-1.7c-0.5,0-0.9,0.1-1.2,0.4
			c-0.4,0.3-0.6,0.6-0.6,1l-1.3,3.4c0,0.1,0,0.2,0,0.4c0.1,0.2,0.2,0.3,0.3,0.3c0.4,0,0.7-0.1,0.7-0.3l1.3-3.6
			c0-0.1,0.1-0.1,0.1-0.1c0.1,0,0.1,0,0.1,0.1l0,0l-1.9,5.5v0.4c0,0,0.1,0.1,0.2,0.2s0.2,0.2,0.2,0.2h1.3v4.2c0,0.2,0.1,0.3,0.2,0.5
			c0.1,0.1,0.3,0.2,0.5,0.2s0.3-0.1,0.5-0.2c0.1-0.1,0.2-0.3,0.2-0.5v-4.4c0,0,0.1,0,0.2,0c0.1,0,0.2,0,0.3,0s0.2,0,0.2,0v4.4
			c0,0.2,0.1,0.3,0.2,0.5c0.1,0.1,0.3,0.2,0.5,0.2s0.3-0.1,0.5-0.2c0.1-0.1,0.2-0.3,0.2-0.5V633h1.3c0.1,0,0.1-0.1,0.2-0.2
			c0.1-0.1,0.1-0.2,0.1-0.2L987.4,632.2L987.4,632.2z"/>
		<path fill="#FFFFFF" d="M982.7,623c0,0.4,0.1,0.7,0.4,1c0.3,0.3,0.6,0.4,1,0.4s0.7-0.1,1-0.4s0.4-0.6,0.4-1s-0.1-0.7-0.4-1
			c-0.3-0.3-0.6-0.4-1-0.4s-0.7,0.1-1,0.4C982.8,622.3,982.7,622.6,982.7,623L982.7,623z"/>
	</g>
	<g>
		<circle fill="#008246" cx="867.2" cy="545.6" r="10"/>
		<polygon fill="#FFFFFF" points="872.2,543.6 872.2,552.6 871.1,553.7 861.1,553.7 862.4,552.7 862.4,543.7 860.2,543.7 
			867.2,537.3 874.2,543.6 		"/>
		<g id="exit_1_">
			<g>
				<g>
					<path fill="#008246" d="M869.2,552.3l-2.4-4.4c0,0.6-0.1,1.4-0.3,1.9c0,0.6-0.6,0.7-0.9,0.7l0,0h-4.9l1.3-1.4h2.9l0.1-2.7
						l1.1-2.1h-1l0,0c0,0-0.1,0.1-0.3,0.3l-0.9,1.3c-0.1,0.1-0.3,0.3-0.6,0.3c-0.1,0-0.3,0-0.3-0.1c-0.3-0.1-0.4-0.6-0.1-0.9
						l0.9-1.3l0,0c0.3-0.3,0.4-0.6,0.6-0.7c0.3-0.1,0.4-0.1,0.7-0.1c0,0,0,0,0.1,0h1.9c0.1,0,0.4,0,0.6,0c1,0,1.4,0.3,1.6,0.6
						l0.1,0.1l1.1,1.4h1.7c0.3,0,0.6,0.3,0.6,0.6s-0.3,0.6-0.6,0.6h-2c-0.1,0-0.4-0.1-0.4-0.3l-0.9-1.1l-0.9,1.7l2.9,5.7
						L869.2,552.3z"/>
					<path fill="#FFFFFF" d="M867.8,543c1,0,1.4,0.3,1.6,0.4c0,0,0.1,0,0.1,0.1l1.1,1.6h1.7c0.3,0,0.4,0.3,0.4,0.6s-0.3,0.6-0.4,0.6
						h-2c-0.1,0-0.3,0-0.4-0.1l-1-1.3l-1,2l2.7,5.6H869l-2.6-4.7c0,0-0.3,1.6-0.3,2.1c0,0.6-0.7,0.6-0.7,0.6h-4.6l1-1.1h3l0.1-2.9
						l1.3-2.3l0,0h-1.3l0,0l0,0c0,0-0.1,0.1-0.3,0.3l-0.9,1.3c-0.1,0.1-0.3,0.3-0.4,0.3s-0.1,0-0.3,0c-0.3-0.1-0.3-0.4-0.1-0.7
						l0.9-1.3l0,0c0.3-0.3,0.4-0.6,0.6-0.6c0.3-0.1,0.4-0.1,0.6-0.1c0,0,0,0,0.1,0h2C867.5,543,867.6,543,867.8,543 M867.8,542.7
						v0.3V542.7c-0.1,0-0.4,0-0.6,0h-1.9c0,0,0,0-0.1,0s-0.4,0-0.7,0.1c-0.1,0.1-0.4,0.3-0.7,0.7l0,0l-0.9,1.3
						c-0.3,0.3-0.1,0.9,0.3,1c0.1,0,0.3,0.1,0.4,0.1c0.3,0,0.4-0.1,0.7-0.4l0.7-1.3l0.1-0.1l0,0h0.9l-1,1.9l0,0l0,0l-0.1,2.6h-2.7
						h-0.1v0.1l-1,1.1l-0.4,0.4h0.6h4.6l0,0l0,0c0,0,0.3,0,0.4-0.1c0.3-0.1,0.6-0.4,0.6-0.7s0.1-0.9,0.1-1.4l2.1,4v0.1h0.1h1.6h0.4
						l-0.1-0.4l-2.7-5.4l0.7-1.6l0.7,1c0.1,0.1,0.4,0.3,0.6,0.3h2c0.4,0,0.7-0.3,0.7-0.7s-0.3-0.7-0.7-0.7h-1.6l-1.1-1.4l-0.1-0.1
						c-0.1-0.1-0.3-0.3-0.6-0.3C868.6,542.7,868.2,542.7,867.8,542.7L867.8,542.7z"/>
				</g>
				<g>
					<path fill="#008246" d="M868.6,542.9c-0.7,0-1.3-0.6-1.3-1.3s0.6-1.3,1.3-1.3s1.3,0.6,1.3,1.3
						C869.9,542.3,869.4,542.9,868.6,542.9z"/>
					<path fill="#FFFFFF" d="M868.6,540.5c0.7,0,1.1,0.6,1.1,1.1c0,0.6-0.6,1.1-1.1,1.1c-0.7,0-1.1-0.6-1.1-1.1
						C867.5,541,868.1,540.5,868.6,540.5 M868.6,540.2c-0.9,0-1.4,0.7-1.4,1.4c0,0.9,0.7,1.4,1.4,1.4s1.4-0.7,1.4-1.4
						C870.1,540.9,869.5,540.2,868.6,540.2L868.6,540.2z"/>
				</g>
			</g>
		</g>
	</g>
	<path fill="#FFFFFF" d="M1077.9,762.6c0,0.5,0.2,0.7,0.7,0.7s0.7-0.2,0.7-0.7v-5.7h0.7v5.7c0,0.5,0.2,0.7,0.7,0.7s0.7-0.2,0.7-0.7
		v-10.3h0.5v3.5c0,0.3,0.1,0.4,0.3,0.6c0.2,0.1,0.3,0.1,0.5,0s0.3-0.3,0.3-0.6V752c0-0.5-0.2-0.8-0.5-1.1s-0.9-0.4-1.5-0.4h-2.8
		c-0.5,0-1,0.1-1.3,0.3s-0.7,0.6-0.7,1.1v4.1c0,0.2,0.1,0.4,0.3,0.4c0.2,0.1,0.4,0.1,0.5,0c0.2-0.1,0.3-0.2,0.3-0.4v-3.7h0.5
		L1077.9,762.6z"/>
	<path fill="#FFFFFF" d="M1078.2,748.5c0,0.4,0.1,0.7,0.4,1s0.6,0.4,1,0.4s0.7-0.1,1-0.4c0.3-0.3,0.4-0.6,0.4-1s-0.1-0.7-0.4-1
		s-0.6-0.4-1-0.4s-0.7,0.1-1,0.4C1078.3,747.8,1078.2,748.1,1078.2,748.5L1078.2,748.5z"/>
	<g>
		<g>
			<path fill="#008246" d="M1447.1,929c-5.2,0-9.5-4.2-9.5-9.5s4.2-9.5,9.5-9.5c5.2,0,9.5,4.2,9.5,9.5S1452.3,929,1447.1,929z"/>
			<path fill="#FFFFFF" d="M1447.1,910.7c4.9,0,8.9,4,8.9,8.9s-4,8.9-8.9,8.9s-8.9-4-8.9-8.9S1442.2,910.7,1447.1,910.7
				 M1447.1,909.6c-5.5,0-10,4.5-10,10s4.5,10,10,10s10-4.5,10-10S1452.6,909.6,1447.1,909.6L1447.1,909.6z"/>
		</g>
		<g id="aid_2_">
			<polygon fill="#FFFFFF" points="1453,917.9 1448.7,917.9 1448.7,913.7 1445.5,913.7 1445.5,917.9 1441.2,917.9 1441.2,921.2 
				1445.5,921.2 1445.5,925.5 1448.7,925.5 1448.7,921.2 1453,921.2 			"/>
		</g>
	</g>
	<g>
		<g>
			<path fill="#008246" d="M526.8,990.7c-5.2,0-9.5-4.2-9.5-9.5c0-5.2,4.2-9.5,9.5-9.5s9.5,4.2,9.5,9.5S532,990.7,526.8,990.7z"/>
			<path fill="#FFFFFF" d="M526.8,972.4c4.9,0,8.9,4,8.9,8.9s-4,8.9-8.9,8.9s-8.9-4-8.9-8.9S521.9,972.4,526.8,972.4 M526.8,971.3
				c-5.5,0-10,4.5-10,10s4.5,10,10,10s10-4.5,10-10S532.3,971.3,526.8,971.3L526.8,971.3z"/>
		</g>
		<g id="aid_3_">
			<polygon fill="#FFFFFF" points="532.7,979.7 528.5,979.7 528.5,975.4 525.2,975.4 525.2,979.7 520.9,979.7 520.9,983 525.2,983 
				525.2,987.2 528.5,987.2 528.5,983 532.7,983 			"/>
		</g>
	</g>
	<g>
		<g>
			<path fill="#FF0000" d="M596.7,1030.4c-5.2,0-9.5-4.2-9.5-9.5c0-5.2,4.2-9.5,9.5-9.5s9.5,4.2,9.5,9.5
				C606.2,1026.1,602,1030.4,596.7,1030.4z"/>
			<path fill="#FFFFFF" d="M596.7,1012c4.9,0,8.9,4,8.9,8.9s-4,8.9-8.9,8.9s-8.9-4-8.9-8.9S591.8,1012,596.7,1012 M596.7,1010.9
				c-5.5,0-10,4.5-10,10s4.5,10,10,10s10-4.5,10-10S602.2,1010.9,596.7,1010.9L596.7,1010.9z"/>
		</g>
		<g id="fire_1_">
			<g>
				<path fill="#FFFFFF" d="M601.7,1017.2v-2l-3,0.4v0.4h-1.6v-0.8h-0.4c0,0,0-0.2-0.1-0.4c-0.4-0.5-1.2-0.6-1.5-0.2
					c-0.7,0.7,0,1.5,0,1.5c-0.7,0.3-1.3,0.8-1.5,1.3c-0.3,0.7,0.4,0.8,0.6,0.5c0.8-1.3,1.7-1.3,1.7-1.3v0.3
					c-1.5,0.5-1.4,1.8-1.4,1.8s0,7.8,0,8.3c0,0.4,0.4,0.4,0.4,0.4c0.6,0,1.4,0,1.4,0s1.2,0,1.6,0c0.4,0,0.5-0.4,0.5-0.6
					c0-0.3,0-6.8,0-8.1s-1.3-1.8-1.3-1.8v-0.4h1.6v0.4L601.7,1017.2z M595.8,1015.7c-0.2,0-0.4-0.2-0.4-0.4s0.2-0.4,0.4-0.4
					s0.4,0.2,0.4,0.4S596.1,1015.7,595.8,1015.7z"/>
			</g>
		</g>
	</g>
	<g>
		<g>
			<path fill="#FF0000" d="M727.7,856.7c-5.2,0-9.5-4.2-9.5-9.5s4.2-9.5,9.5-9.5s9.5,4.2,9.5,9.5S732.9,856.7,727.7,856.7z"/>
			<path fill="#FFFFFF" d="M727.7,838.3c4.9,0,8.9,4,8.9,8.9s-4,8.9-8.9,8.9s-8.9-4-8.9-8.9S722.8,838.3,727.7,838.3 M727.7,837.2
				c-5.5,0-10,4.5-10,10s4.5,10,10,10s10-4.5,10-10S733.2,837.2,727.7,837.2L727.7,837.2z"/>
		</g>
		<g id="fire_2_">
			<g>
				<path fill="#FFFFFF" d="M732.7,843.6v-2l-3,0.4v0.4h-1.6v-0.8h-0.4c0,0,0-0.2-0.1-0.4c-0.4-0.5-1.2-0.6-1.5-0.2
					c-0.7,0.7,0,1.5,0,1.5c-0.7,0.3-1.3,0.8-1.5,1.3c-0.3,0.7,0.4,0.8,0.6,0.5c0.8-1.3,1.7-1.3,1.7-1.3v0.3
					c-1.5,0.5-1.4,1.8-1.4,1.8s0,7.8,0,8.3c0,0.4,0.4,0.4,0.4,0.4c0.6,0,1.4,0,1.4,0s1.2,0,1.6,0c0.4,0,0.5-0.4,0.5-0.6
					c0-0.3,0-6.8,0-8.1s-1.3-1.8-1.3-1.8v-0.4h1.6v0.4L732.7,843.6z M726.8,842c-0.2,0-0.4-0.2-0.4-0.4s0.2-0.4,0.4-0.4
					s0.4,0.2,0.4,0.4C727.2,841.9,727,842,726.8,842z"/>
			</g>
		</g>
	</g>
	<g>
		<g>
			<path fill="#FF0000" d="M1040.7,871.8c-5.2,0-9.5-4.2-9.5-9.5s4.2-9.5,9.5-9.5c5.2,0,9.5,4.2,9.5,9.5S1045.9,871.8,1040.7,871.8z
				"/>
			<path fill="#FFFFFF" d="M1040.7,853.4c4.9,0,8.9,4,8.9,8.9s-4,8.9-8.9,8.9s-8.9-4-8.9-8.9S1035.7,853.4,1040.7,853.4
				 M1040.7,852.3c-5.5,0-10,4.5-10,10s4.5,10,10,10s10-4.5,10-10S1046.1,852.3,1040.7,852.3L1040.7,852.3z"/>
		</g>
		<g id="fire_3_">
			<g>
				<path fill="#FFFFFF" d="M1045.7,858.6v-2l-3,0.4v0.4h-1.6v-0.8h-0.4c0,0,0-0.2-0.1-0.4c-0.4-0.5-1.2-0.6-1.5-0.2
					c-0.7,0.7,0,1.5,0,1.5c-0.7,0.3-1.3,0.8-1.5,1.3c-0.3,0.7,0.4,0.8,0.6,0.5c0.8-1.3,1.7-1.3,1.7-1.3v0.3
					c-1.5,0.5-1.4,1.8-1.4,1.8s0,7.8,0,8.3c0,0.4,0.4,0.4,0.4,0.4c0.6,0,1.4,0,1.4,0s1.2,0,1.6,0s0.5-0.4,0.5-0.6c0-0.3,0-6.8,0-8.1
					s-1.3-1.8-1.3-1.8v-0.4h1.6v0.4L1045.7,858.6z M1039.7,857.1c-0.2,0-0.4-0.2-0.4-0.4s0.2-0.4,0.4-0.4c0.2,0,0.4,0.2,0.4,0.4
					C1040.1,856.9,1040,857.1,1039.7,857.1z"/>
			</g>
		</g>
	</g>
	<g>
		<g>
			<path fill="#FF0000" d="M1427.1,929c-5.2,0-9.5-4.2-9.5-9.5c0-5.2,4.2-9.5,9.5-9.5c5.2,0,9.5,4.2,9.5,9.5
				C1436.5,924.7,1432.3,929,1427.1,929z"/>
			<path fill="#FFFFFF" d="M1427.1,910.6c4.9,0,8.9,4,8.9,8.9s-4,8.9-8.9,8.9s-8.9-4-8.9-8.9S1422.2,910.6,1427.1,910.6
				 M1427.1,909.5c-5.5,0-10,4.5-10,10s4.5,10,10,10s10-4.5,10-10S1432.6,909.5,1427.1,909.5L1427.1,909.5z"/>
		</g>
		<g id="fire_5_">
			<g>
				<path fill="#FFFFFF" d="M1432.1,915.8v-2l-3,0.4v0.4h-1.6v-0.8h-0.4c0,0,0-0.2-0.1-0.4c-0.4-0.5-1.2-0.6-1.5-0.2
					c-0.7,0.7,0,1.5,0,1.5c-0.7,0.3-1.3,0.8-1.5,1.3c-0.3,0.7,0.4,0.8,0.6,0.5c0.8-1.3,1.7-1.3,1.7-1.3v0.3
					c-1.5,0.5-1.4,1.8-1.4,1.8s0,7.8,0,8.3c0,0.4,0.4,0.4,0.4,0.4c0.6,0,1.4,0,1.4,0s1.2,0,1.6,0s0.5-0.4,0.5-0.6c0-0.3,0-6.8,0-8.1
					s-1.3-1.8-1.3-1.8v-0.4h1.6v0.4L1432.1,915.8z M1426.1,914.3c-0.2,0-0.4-0.2-0.4-0.4s0.2-0.4,0.4-0.4c0.2,0,0.4,0.2,0.4,0.4
					S1426.4,914.3,1426.1,914.3z"/>
			</g>
		</g>
	</g>
	<g>
		<g>
			<path fill="#FF0000" d="M1042,559.3c-5.2,0-9.5-4.2-9.5-9.5s4.2-9.5,9.5-9.5s9.5,4.2,9.5,9.5S1047.2,559.3,1042,559.3z"/>
			<path fill="#FFFFFF" d="M1042,541c4.9,0,8.9,4,8.9,8.9s-4,8.9-8.9,8.9s-8.9-4-8.9-8.9S1037.1,541,1042,541 M1042,539.9
				c-5.5,0-10,4.5-10,10s4.5,10,10,10s10-4.5,10-10S1047.5,539.9,1042,539.9L1042,539.9z"/>
		</g>
		<g id="fire_6_">
			<g>
				<path fill="#FFFFFF" d="M1047,546.2v-2l-3,0.4v0.4h-1.6v-0.8h-0.4c0,0,0-0.2-0.1-0.4c-0.4-0.5-1.2-0.6-1.5-0.2
					c-0.7,0.7,0,1.5,0,1.5c-0.7,0.3-1.3,0.8-1.5,1.3c-0.3,0.7,0.4,0.8,0.6,0.5c0.8-1.3,1.7-1.3,1.7-1.3v0.3
					c-1.5,0.5-1.4,1.8-1.4,1.8s0,7.8,0,8.3c0,0.4,0.4,0.4,0.4,0.4c0.6,0,1.4,0,1.4,0s1.2,0,1.6,0s0.5-0.4,0.5-0.6c0-0.3,0-6.8,0-8.1
					s-1.3-1.8-1.3-1.8v-0.4h1.6v0.4L1047,546.2z M1041.1,544.7c-0.2,0-0.4-0.2-0.4-0.4s0.2-0.4,0.4-0.4s0.4,0.2,0.4,0.4
					S1041.3,544.7,1041.1,544.7z"/>
			</g>
		</g>
	</g>
	<g>
		<g>
			<path fill="#FF0000" d="M810.1,431.5c-5.2,0-9.5-4.2-9.5-9.5s4.2-9.5,9.5-9.5c5.2,0,9.5,4.2,9.5,9.5S815.4,431.5,810.1,431.5z"/>
			<path fill="#FFFFFF" d="M810.1,413.1c4.9,0,8.9,4,8.9,8.9s-4,8.9-8.9,8.9s-8.9-4-8.9-8.9S805.2,413.1,810.1,413.1 M810.1,412
				c-5.5,0-10,4.5-10,10s4.5,10,10,10s10-4.5,10-10S815.6,412,810.1,412L810.1,412z"/>
		</g>
		<g id="fire_7_">
			<g>
				<path fill="#FFFFFF" d="M815.1,418.4v-2l-3,0.4v0.4h-1.6v-0.8h-0.4c0,0,0-0.2-0.1-0.4c-0.4-0.5-1.2-0.6-1.5-0.2
					c-0.7,0.7,0,1.5,0,1.5c-0.7,0.3-1.3,0.8-1.5,1.3c-0.3,0.7,0.4,0.8,0.6,0.5c0.8-1.3,1.7-1.3,1.7-1.3v0.3
					c-1.5,0.5-1.4,1.8-1.4,1.8s0,7.8,0,8.3c0,0.4,0.4,0.4,0.4,0.4c0.6,0,1.4,0,1.4,0s1.2,0,1.6,0s0.5-0.4,0.5-0.6s0-6.8,0-8.1
					c0-1.3-1.3-1.8-1.3-1.8v-0.4h1.6v0.4L815.1,418.4z M809.2,416.8c-0.2,0-0.4-0.2-0.4-0.4s0.2-0.4,0.4-0.4s0.4,0.2,0.4,0.4
					S809.5,416.8,809.2,416.8z"/>
			</g>
		</g>
	</g>
	<g>
		<g>
			<path fill="#FF0000" d="M623,574.9c-5.2,0-9.5-4.2-9.5-9.5s4.2-9.5,9.5-9.5c5.2,0,9.5,4.2,9.5,9.5S628.2,574.9,623,574.9z"/>
			<path fill="#FFFFFF" d="M623,556.6c4.9,0,8.9,4,8.9,8.9s-4,8.9-8.9,8.9s-8.9-4-8.9-8.9S618.1,556.6,623,556.6 M623,555.5
				c-5.5,0-10,4.5-10,10s4.5,10,10,10s10-4.5,10-10S628.5,555.5,623,555.5L623,555.5z"/>
		</g>
		<g id="fire_8_">
			<g>
				<path fill="#FFFFFF" d="M628,561.8v-2l-3,0.4v0.4h-1.6v-0.8H623c0,0,0-0.2-0.1-0.4c-0.4-0.5-1.2-0.6-1.5-0.2
					c-0.7,0.7,0,1.5,0,1.5c-0.7,0.3-1.3,0.8-1.5,1.3c-0.3,0.7,0.4,0.8,0.6,0.5c0.8-1.3,1.7-1.3,1.7-1.3v0.3
					c-1.5,0.5-1.4,1.8-1.4,1.8s0,7.8,0,8.3c0,0.4,0.4,0.4,0.4,0.4c0.6,0,1.4,0,1.4,0s1.2,0,1.6,0s0.5-0.4,0.5-0.6c0-0.3,0-6.8,0-8.1
					s-1.3-1.8-1.3-1.8v-0.4h1.6v0.4L628,561.8z M622,560.3c-0.2,0-0.4-0.2-0.4-0.4s0.2-0.4,0.4-0.4s0.4,0.2,0.4,0.4
					S622.3,560.3,622,560.3z"/>
			</g>
		</g>
	</g>
</g>
<text transform="matrix(0.9995 -5.465216e-03 5.944408e-03 1 655.9996 611.3999)" fill="#2D2D2D"   font-family="'Arial'"  font-weight="bold"  font-size="11.9231px">RECEPTION</text>
</svg>
