<?xml version="1.0" encoding="utf-8"?>
<!-- Generator: Adobe Illustrator 21.1.0, SVG Export Plug-In . SVG Version: 6.00 Build 0)  -->
<svg version="1.1" id="Layer_1" xmlns="http://www.w3.org/2000/svg" xmlns:xlink="http://www.w3.org/1999/xlink" x="0px" y="0px"
	 width="1920px" height="1080px" viewBox="0 0 1920 1080" enable-background="new 0 0 1920 1080" xml:space="preserve">
<g id="base">
	<g id="extra">
		<polygon opacity="0.3" fill="#008246" enable-background="new    " points="1601.5,253.5 1561.5,273.5 1544.5,298.5 1536.5,335.5 
			1544.5,369.5 1578.5,392.5 1616.5,401.5 1650.5,385.5 1678.5,363.5 1685.5,323.5 1678.5,291.5 1662.5,276.5 1624.5,257.5 		"/>
		<path opacity="0.5" fill="#B8C2DD" enable-background="new    " d="M1672.75,266.99c-6.18-5.35-24.24-3.79-31.81-7.57
			c-7.57-3.79-16.66-5.3-22.72-25.75L1607,228c-47,20-66,34-72.09,49.6c-4.93,12.61-28.91,102.4,40.14,128.76
			c75.86,28.95,104.52-15.91,131.79-74.98C1706.83,331.37,1695.47,286.68,1672.75,266.99z M1612.79,388.58
			c-34.59,0-62.63-28.04-62.63-62.63s28.04-62.63,62.63-62.63s62.63,28.04,62.63,62.63S1647.38,388.58,1612.79,388.58z"/>
	</g>
	<g id="road1_1_">
		<path fill="none" stroke="#878787" stroke-width="16" stroke-linecap="round" stroke-miterlimit="10" d="M404,533c0,0,46-42,58-48
			c6.9-3.45,246.5-122.5,289.5-143.5c22.98-11.22,104.22-46.04,186.27-89.96C999.5,218.5,1044.5,192.5,1178,126"/>
		<path fill="none" stroke="#878787" stroke-width="18" stroke-linecap="round" stroke-miterlimit="10" d="M411,533c0,0-19-48-22-59
			c-1.41-5.18-8.22-44.77-18-99"/>
		<path fill="none" stroke="#878787" stroke-width="14" stroke-linecap="round" stroke-miterlimit="10" d="M517,451c0,0-8-7-9-17
			s2-115,2-115"/>
		<path fill="none" stroke="#878787" stroke-width="14" stroke-linecap="round" stroke-miterlimit="10" d="M681,562
			c0,0,30-149,31-160s-4.11-39-4.11-39"/>
		<path fill="none" stroke="#878787" stroke-width="14" stroke-linecap="round" stroke-miterlimit="10" d="M664,643c0,0-11,63-14,78
			s-27,91-31,104c0,0-14,42-25,46"/>
		<line fill="none" stroke="#878787" stroke-width="7" stroke-miterlimit="10" x1="663.5" y1="646.5" x2="681.5" y2="562.5"/>
		<path fill="none" stroke="#878787" stroke-width="25" stroke-linecap="round" stroke-miterlimit="10" d="M812.5,163.5
			c6,19,21,84,23,108s6,72,5,98s12,156,15,172s80,488,80,488"/>
		<path fill="none" stroke="#878787" stroke-width="19" stroke-linecap="round" stroke-miterlimit="10" d="M403.5,528.5
			c0,0-41,66-52,118s-18,187-28,213"/>
		<path fill="none" stroke="#878787" stroke-width="18" stroke-linecap="round" stroke-miterlimit="10" d="M862,533
			c16,2,68,0,107-18s173.17-89.6,195-99c72-31,187-95,230-116c35.04-17.11,125-53,145-62s196-106,196-106"/>
		<path fill="none" stroke="#878787" stroke-width="14" stroke-miterlimit="10" d="M860.28,569.95c0,0,48.72-26.95,86.72-7.95
			s172,94,182,94s20,12,29-37s18-98,25-119s39.36-111.31,39.36-111.31"/>
		<path fill="none" stroke="#878787" stroke-width="14" stroke-miterlimit="10" d="M975.93,577.13c0,0-46.93-31.13-6.93-62.13"/>
		<path fill="none" stroke="#878787" stroke-width="16" stroke-linecap="round" stroke-miterlimit="10" d="M1178.19,525.82
			c0,0,66.81,9.18,88.81,10.18s94,11,103,12"/>
		<path fill="none" stroke="#878787" stroke-width="16" stroke-linecap="round" stroke-miterlimit="10" d="M1397,550
			c0,0,26.01,1.58,36,2c24,1,81,2,104,3c10.04,0.44,44,7,44,7"/>
		<line fill="none" stroke="#878787" stroke-width="7" stroke-miterlimit="10" x1="1370.5" y1="548.5" x2="1397.5" y2="550.5"/>
		<path fill="none" stroke="#878787" stroke-width="19" stroke-linecap="round" stroke-linejoin="round" stroke-miterlimit="10" d="
			M1534.5,552.5c1.5-18.5,0.78-38.05-0.5-58.5c-1-16,2-34,2-34s15.5,0.5,21.5,1.5s25,4,30,6s15,7,11,27s-19,78-20,85s-22,113-24,121
			s-31,116-37,132s-5.04,22.98-10,34c-9,20-34.35,80.04-38.5,95c-5,18-13.5,59-17.5,81"/>
		<path fill="none" stroke="#878787" stroke-width="13" stroke-linecap="round" stroke-miterlimit="10" d="M1181.33,505.41
			c0,0-51.83-91.91-59.83-103.91"/>
		<line fill="none" stroke="#878787" stroke-width="7" stroke-miterlimit="10" x1="1024.5" y1="212.5" x2="1124.5" y2="407.5"/>
		<path fill="none" stroke="#878787" stroke-width="16" stroke-miterlimit="10" d="M1152.02,643c0,0-37.02,13-6.02,31s57,28,76,41
			s39,36,46,49s45,57,16,121"/>
		<path fill="none" stroke="#878787" stroke-width="16" stroke-linecap="round" stroke-miterlimit="10" d="M1553.45,704.52
			c0,0-124.45-23.52-156.45-26.52s-79-8-94-8s-56,1-70,9s-31.44,18.55-39.72,19.77"/>
		<path fill="none" stroke="#878787" stroke-width="18" stroke-linecap="round" stroke-linejoin="round" stroke-miterlimit="10" d="
			M1512.5,254.5c0,0-49,137,53,170s138-21,174-99c0,0-15-59-45-85c-8.16-7.07-32-5-42-10s-22-7-30-34"/>
		<path fill="none" stroke="#878787" stroke-width="13" stroke-linecap="round" stroke-miterlimit="10" d="M1726.17,287.92
			c0,0,27.83-26.92,42.83-42.92s36-35,48-42s20-17,20-17"/>
		<path fill="none" stroke="#878787" stroke-width="7" stroke-linecap="round" stroke-miterlimit="10" d="M1739.5,325.5
			c0,0,28-2,42,0s34,15,34,15l21,16"/>
		<line fill="none" stroke="#878787" stroke-width="7" stroke-miterlimit="10" x1="1544.5" y1="418.5" x2="1536.5" y2="460.5"/>
		<line fill="none" stroke="#878787" stroke-width="7" stroke-miterlimit="10" x1="1592.5" y1="437" x2="1588.5" y2="467"/>
		<line fill="none" stroke="#878787" stroke-width="7" stroke-miterlimit="10" x1="1649.5" y1="236.5" x2="1616.5" y2="310.5"/>
		<circle fill="none" stroke="#878787" stroke-width="7" stroke-miterlimit="10" cx="1610" cy="325" r="17.5"/>
		<path fill="none" stroke="#878787" stroke-width="14" stroke-linecap="round" stroke-miterlimit="10" d="M351.99,640.42
			c0,0,36.51-0.92,59.01,2.58c15.47,2.41,26.5-2.5,48.5,26.5s114,204,127,225s15,33,32,67c5.19,10.38,10.01,23.65,14.42,38.22"/>
		<path fill="none" stroke="#878787" stroke-width="14" stroke-miterlimit="10" d="M403,642c10,1,61-1,76,22s55,90,71,122
			c12.66,25.31,31,56,37,69s35.02,81.78,37.01,118.89"/>
		<path fill="none" stroke="#878787" stroke-width="10" stroke-linecap="round" stroke-miterlimit="10" d="M637.84,764
			c0,0,143.16,9,191.16,14"/>
		
			<line fill="none" stroke="#878787" stroke-width="7" stroke-linecap="round" stroke-miterlimit="10" x1="930" y1="778" x2="830" y2="778.5"/>
		<path fill="none" stroke="#878787" stroke-width="7" stroke-miterlimit="10" d="M578,578c0,0-6,29-9,32s-14,8-21,8s-23-8-30,13
			s-12.8,56.88-21.9,60.44"/>
		<path fill="none" stroke="#878787" stroke-width="25" stroke-linecap="round" stroke-miterlimit="10" d="M214.5,496.5
			c22,5,125,26,149,29s99,10,124,16s57,12,79,21s74,17,97,28s220,104,238,109s51,14,69,22s159,86,175,96s74,51,91,58
			s273,140,273,140"/>
		<path fill="none" stroke="#878787" stroke-width="25" stroke-linecap="round" stroke-miterlimit="10" d="M212.5,527.5
			c0,0,166,31,198,35s144,6,169,7"/>
		<path fill="none" stroke="#878787" stroke-width="25" stroke-miterlimit="10" d="M901.5,697.5c0,0,24,44,80,70
			c0,0,131.41,70.07,148,78c23,11,45,15,97,25"/>
		<path fill="none" stroke="#878787" stroke-width="13" stroke-linecap="round" stroke-linejoin="round" stroke-miterlimit="10" d="
			M1520.5,832.5c0,0,69,28,89,32"/>
		<path fill="none" stroke="#878787" stroke-width="6" stroke-linecap="round" stroke-linejoin="round" stroke-miterlimit="10" d="
			M855,598c0,0-13,1-18,4c-3.67,2.2,2,18-5,17c0,0-3.78-1.22-3.5-1.5"/>
		
			<line fill="none" stroke="#878787" stroke-width="7" stroke-linecap="round" stroke-miterlimit="10" x1="829.5" y1="704.5" x2="838.5" y2="684.5"/>
		
			<line fill="none" stroke="#878787" stroke-width="7" stroke-linecap="round" stroke-miterlimit="10" x1="905.5" y1="661.5" x2="885.5" y2="659.5"/>
		
			<line fill="none" stroke="#878787" stroke-width="7" stroke-linecap="round" stroke-miterlimit="10" x1="621.5" y1="985.5" x2="599.5" y2="992.5"/>
		
			<line fill="none" stroke="#878787" stroke-width="10" stroke-linecap="round" stroke-miterlimit="10" x1="917.5" y1="881.5" x2="1010.5" y2="856.5"/>
		<path fill="none" stroke="#878787" stroke-width="10" stroke-linecap="round" stroke-miterlimit="10" d="M930,945c0,0,30-5,40-4
			s94-10,94-10"/>
		<path fill="none" stroke="#878787" stroke-width="7" stroke-linecap="round" stroke-miterlimit="10" d="M1300,848c0,0,34,9,56-38"
			/>
		
			<line fill="none" stroke="#878787" stroke-width="13" stroke-linecap="round" stroke-miterlimit="10" x1="1381.22" y1="306.41" x2="1359.5" y2="264.5"/>
		
			<line fill="none" stroke="#878787" stroke-width="7" stroke-linecap="round" stroke-miterlimit="10" x1="1363.5" y1="272.5" x2="1306.5" y2="156.5"/>
		
			<line fill="none" stroke="#878787" stroke-width="7" stroke-linecap="round" stroke-miterlimit="10" x1="1614.5" y1="141.5" x2="1634.5" y2="181.5"/>
	</g>
	<g id="road2">
		<path fill="none" stroke="#F4F4F4" stroke-width="12" stroke-linecap="round" stroke-miterlimit="10" d="M404,533c0,0,46-42,58-48
			c6.9-3.45,246.5-122.5,289.5-143.5c22.98-11.22,104.22-46.04,186.27-89.96C999.5,218.5,1044.5,192.5,1178,126"/>
		<path fill="none" stroke="#F4F4F4" stroke-width="10" stroke-linecap="round" stroke-miterlimit="10" d="M681,562
			c0,0,30-149,31-160s-4.11-39-4.11-39"/>
		<path fill="none" stroke="#F4F4F4" stroke-width="10" stroke-linecap="round" stroke-miterlimit="10" d="M664,643c0,0-11,63-14,78
			s-27,91-31,104c0,0-14,42-25,46"/>
		<line fill="none" stroke="#F4F4F4" stroke-width="3" stroke-miterlimit="10" x1="663.5" y1="646.5" x2="681.5" y2="562.5"/>
		<path fill="none" stroke="#F4F4F4" stroke-width="21" stroke-linecap="round" stroke-miterlimit="10" d="M812.5,163.5
			c6,19,21,84,23,108s6,72,5,98s12,156,15,172s80,488,80,488"/>
		<path fill="none" stroke="#F4F4F4" stroke-width="14" stroke-linecap="round" stroke-miterlimit="10" d="M862,533
			c16,2,68,0,107-18s173.17-89.6,195-99c72-31,187-95,230-116c35.04-17.11,125-53,145-62s196-106,196-106"/>
		<path fill="none" stroke="#F4F4F4" stroke-width="10" stroke-miterlimit="10" d="M860.28,569.95c0,0,48.72-26.95,86.72-7.95
			s172,94,182,94s20,12,29-37s18-98,25-119s39.36-111.31,39.36-111.31"/>
		<path fill="none" stroke="#F4F4F4" stroke-width="10" stroke-miterlimit="10" d="M975.93,577.13c0,0-46.93-31.13-6.93-62.13"/>
		<path fill="none" stroke="#F4F4F4" stroke-width="12" stroke-linecap="round" stroke-miterlimit="10" d="M1178.19,525.82
			c0,0,66.81,9.18,88.81,10.18s94,11,103,12"/>
		<path fill="none" stroke="#F4F4F4" stroke-width="12" stroke-linecap="round" stroke-miterlimit="10" d="M1397,550
			c0,0,26.01,1.58,36,2c24,1,81,2,104,3c10.04,0.44,44,7,44,7"/>
		<line fill="none" stroke="#F4F4F4" stroke-width="3" stroke-miterlimit="10" x1="1370.5" y1="548.5" x2="1397.5" y2="550.5"/>
		<path fill="none" stroke="#F4F4F4" stroke-width="15" stroke-linecap="round" stroke-linejoin="round" stroke-miterlimit="10" d="
			M1534.5,552.5c1.5-18.5,0.78-38.05-0.5-58.5c-1-16,2-34,2-34s15.5,0.5,21.5,1.5s25,4,30,6s15,7,11,27s-19,78-20,85s-22,113-24,121
			s-31,116-37,132s-5.04,22.98-10,34c-9,20-34.35,80.04-38.5,95c-5,18-13.5,59-17.5,81"/>
		<path fill="none" stroke="#F4F4F4" stroke-width="9" stroke-linecap="round" stroke-miterlimit="10" d="M1181.33,505.41
			c0,0-51.83-91.91-59.83-103.91"/>
		<line fill="none" stroke="#F4F4F4" stroke-width="3" stroke-miterlimit="10" x1="1024.5" y1="212.5" x2="1124.5" y2="407.5"/>
		<path fill="none" stroke="#F4F4F4" stroke-width="12" stroke-miterlimit="10" d="M1152.02,643c0,0-37.02,13-6.02,31s57,28,76,41
			s39,36,46,49s45,57,16,121"/>
		<path fill="none" stroke="#F4F4F4" stroke-width="12" stroke-linecap="round" stroke-miterlimit="10" d="M1553.45,704.52
			c0,0-124.45-23.52-156.45-26.52s-79-8-94-8s-56,1-70,9s-31.44,18.55-39.72,19.77"/>
		<path fill="none" stroke="#F4F4F4" stroke-width="14" stroke-linecap="round" stroke-linejoin="round" stroke-miterlimit="10" d="
			M1512.5,254.5c0,0-49,137,53,170s138-21,174-99c0,0-15-59-45-85c-8.16-7.07-32-5-42-10s-22-7-30-34"/>
		<path fill="none" stroke="#F4F4F4" stroke-width="9" stroke-linecap="round" stroke-miterlimit="10" d="M1726.17,287.92
			c0,0,27.83-26.92,42.83-42.92s36-35,48-42s20-17,20-17"/>
		<path fill="none" stroke="#F4F4F4" stroke-width="3" stroke-linecap="round" stroke-miterlimit="10" d="M1739.5,325.5
			c0,0,28-2,42,0s34,15,34,15l21,16"/>
		<line fill="none" stroke="#F4F4F4" stroke-width="3" stroke-miterlimit="10" x1="1544.5" y1="418.5" x2="1536.5" y2="460.5"/>
		<line fill="none" stroke="#F4F4F4" stroke-width="3" stroke-miterlimit="10" x1="1592.5" y1="437" x2="1588.5" y2="467"/>
		<line fill="none" stroke="#F4F4F4" stroke-width="3" stroke-miterlimit="10" x1="1649.5" y1="236.5" x2="1616.5" y2="310.5"/>
		<circle fill="none" stroke="#F4F4F4" stroke-width="3" stroke-miterlimit="10" cx="1610" cy="325" r="17.5"/>
		<path fill="none" stroke="#F4F4F4" stroke-width="10" stroke-linecap="round" stroke-miterlimit="10" d="M351.99,640.42
			c0,0,36.51-0.92,59.01,2.58c15.47,2.41,26.5-2.5,48.5,26.5s114,204,127,225s15,33,32,67c5.19,10.38,10.01,23.65,14.42,38.22"/>
		<path fill="none" stroke="#F4F4F4" stroke-width="10" stroke-miterlimit="10" d="M403,642c10,1,61-1,76,22s55,90,71,122
			c12.66,25.31,31,56,37,69s35.02,81.78,37.01,118.89"/>
		<path fill="none" stroke="#F4F4F4" stroke-width="6" stroke-linecap="round" stroke-miterlimit="10" d="M637.84,764
			c0,0,143.16,9,191.16,14"/>
		
			<line fill="none" stroke="#F4F4F4" stroke-width="3" stroke-linecap="round" stroke-miterlimit="10" x1="930" y1="778" x2="830" y2="778.5"/>
		<path fill="none" stroke="#F4F4F4" stroke-width="3" stroke-miterlimit="10" d="M578,578c0,0-6,29-9,32s-14,8-21,8s-23-8-30,13
			s-12.8,56.88-21.9,60.44"/>
		<path fill="none" stroke="#F4F4F4" stroke-width="21" stroke-linecap="round" stroke-miterlimit="10" d="M214.5,496.5
			c22,5,125,26,149,29s99,10,124,16s57,12,79,21s74,17,97,28s220,104,238,109s51,14,69,22s159,86,175,96s74,51,91,58
			s273,140,273,140"/>
		<path fill="none" stroke="#F4F4F4" stroke-width="21" stroke-linecap="round" stroke-miterlimit="10" d="M212.5,527.5
			c0,0,166,31,198,35s144,6,169,7"/>
		<path fill="none" stroke="#F4F4F4" stroke-width="21" stroke-miterlimit="10" d="M901.5,697.5c0,0,24,44,80,70
			c0,0,131.41,70.07,148,78c23,11,45,15,97,25"/>
		<path fill="none" stroke="#F4F4F4" stroke-width="9" stroke-linecap="round" stroke-linejoin="round" stroke-miterlimit="10" d="
			M1520.5,832.5c0,0,69,28,89,32"/>
		
			<line fill="none" stroke="#F4F4F4" stroke-width="3" stroke-linecap="round" stroke-miterlimit="10" x1="829.5" y1="704.5" x2="838.5" y2="684.5"/>
		
			<line fill="none" stroke="#F4F4F4" stroke-width="3" stroke-linecap="round" stroke-miterlimit="10" x1="905.5" y1="661.5" x2="885.5" y2="659.5"/>
		
			<line fill="none" stroke="#F4F4F4" stroke-width="3" stroke-linecap="round" stroke-miterlimit="10" x1="621.5" y1="985.5" x2="599.5" y2="992.5"/>
		
			<line fill="none" stroke="#F4F4F4" stroke-width="6" stroke-linecap="round" stroke-miterlimit="10" x1="917.5" y1="881.5" x2="1010.5" y2="856.5"/>
		<path fill="none" stroke="#F4F4F4" stroke-width="6" stroke-linecap="round" stroke-miterlimit="10" d="M930,945c0,0,30-5,40-4
			s94-10,94-10"/>
		<path fill="none" stroke="#F4F4F4" stroke-width="3" stroke-linecap="round" stroke-miterlimit="10" d="M1300,848c0,0,34,9,56-38"
			/>
		
			<line fill="none" stroke="#F4F4F4" stroke-width="9" stroke-linecap="round" stroke-miterlimit="10" x1="1381.22" y1="306.41" x2="1359.5" y2="264.5"/>
		
			<line fill="none" stroke="#F4F4F4" stroke-width="3" stroke-linecap="round" stroke-miterlimit="10" x1="1363.5" y1="272.5" x2="1306.5" y2="156.5"/>
		
			<line fill="none" stroke="#F4F4F4" stroke-width="3" stroke-linecap="round" stroke-miterlimit="10" x1="1614.5" y1="141.5" x2="1634.5" y2="181.5"/>
		<path fill="none" stroke="#F4F4F4" stroke-width="3" stroke-linecap="round" stroke-miterlimit="10" d="M855,598c0,0-13,1-18,4
			c-3.67,2.2,2,18-5,17c0,0-3.78-1.22-3.5-1.5"/>
		<path fill="none" stroke="#F4F4F4" stroke-width="14" stroke-linecap="round" stroke-miterlimit="10" d="M411,533c0,0-19-48-22-59
			c-1.41-5.18-8.22-44.77-18-99"/>
		<path fill="none" stroke="#F4F4F4" stroke-width="10" stroke-linecap="round" stroke-miterlimit="10" d="M517,451c0,0-8-7-9-17
			s2-115,2-115"/>
		<path fill="none" stroke="#F4F4F4" stroke-width="15" stroke-linecap="round" stroke-miterlimit="10" d="M403.5,528.5
			c0,0-41,66-52,118s-18,187-28,213"/>
	</g>
	<g id="bridge1">
		<path fill="none" stroke="#878787" stroke-width="25" stroke-miterlimit="10" d="M663.5,590.5c23,11,220,104,238,109"/>
		
			<line fill="none" stroke="#878787" stroke-width="6" stroke-linecap="round" stroke-miterlimit="10" x1="820.5" y1="624.5" x2="809.5" y2="647.5"/>
	</g>
	<g id="bridge2">
		<path fill="none" stroke="#F4F4F4" stroke-width="21" stroke-miterlimit="10" d="M663.5,590.5c23,11,220,104,238,109"/>
		<path fill="#F4F4F4" d="M906,690l-3-1l-14,17l6.48,2.56L906,721C913.5,716.28,906,690,906,690z"/>
		<polygon fill="#F4F4F4" points="676,585 660,578 647,595 664,602 		"/>
		
			<line fill="none" stroke="#E3E3E3" stroke-width="3" stroke-linecap="round" stroke-miterlimit="10" x1="820.5" y1="624.5" x2="809.5" y2="647.5"/>
	</g>
	<g id="buildings">
		<path opacity="0.5" fill="#B8C2DD" enable-background="new    " d="M727,372l76-33c0,0,31,284,33,296s-42-10-42-10l-101-51
			c0,0,33-159,35-170S727,372,727,372z"/>
		<path opacity="0.5" fill="#B8C2DD" enable-background="new    " d="M847,715l-18-1l-31-14l-7,7l-64-37l3-8l-26-15l-14-7h-9
			l-21,114l165,13v-10l23-2l7-1L847,715z M741,735h-29l6-24l23,13V735z"/>
		<path opacity="0.5" fill="#B8C2DD" enable-background="new    " d="M914,685c0,0-11-22-13-38s-6-56-6-56l4-14c0,0,4-6,15-7
			s169,87,169,87l20,114l-150-78l-4-12l-8-2C941,679,931,691,914,685z"/>
		<path opacity="0.5" fill="#B8C2DD" enable-background="new    " d="M947,773c-4-2-17-9-17-9l5,56l46,19l4-6l290,153l8-20l22,8
			l-5,9c0,0,84,29,92,28s13-15,13-18s-110-55-110-55l-154-69l-3,4L947,773z"/>
		<polygon opacity="0.5" fill="#B8C2DD" enable-background="new    " points="943,888 952,931 1057,909 1052,888 1035,892 1031,869 
					"/>
		<path opacity="0.5" fill="#B8C2DD" enable-background="new    " d="M899,1025l-28-210h-9v-18c0,0-145-8-155-8s-64,18-78,50
			s-8,56,2,89c5.39,17.8,10.1,34.21,17,72"/>
		<polygon opacity="0.5" fill="#B8C2DD" enable-background="new    " points="531,643 641,660 633,717 519,699 		"/>
		<polyline opacity="0.5" fill="#B8C2DD" enable-background="new    " points="580,964 549,879 519,825 453,717 396,709 403,661 
			366,657 358,732 358,771 346,869 346,888 		"/>
		<path opacity="0.5" fill="#B8C2DD" enable-background="new    " d="M527,315l-2,56c0,0-7,21,22,14s33-13,33-13l11,17l166-77l-6-9
			l40-18c0,0,9-8,7-21s-15-79-15-79L527,307V315z"/>
		<path opacity="0.5" fill="#B8C2DD" enable-background="new    " d="M838,159c0,0,16.69,82.72,20,90c5,11,25,0,33-4s196-97,196-97
			L838,159z"/>
		<path opacity="0.5" fill="#B8C2DD" enable-background="new    " d="M1193,546l105,10l92,14l1-6l153,12l-4,33l13,2l-13,76
			c0,0-79-18-94-19s-112-14-125-13s-41.43-0.28-55,2c-6.47,1.09-41,8-41,8s-27.08,4.73-35,1c-5.16-2.43-12.64-12.46-14-18
			c-3.46-14.09,2-58,2-58L1193,546z"/>
		<polyline opacity="0.5" fill="#B8C2DD" enable-background="new    " points="1204,742 1250,764 1216,833 1173,811 1204,742 		"/>
		<polygon opacity="0.5" fill="#B8C2DD" enable-background="new    " points="1371,814 1345,881 1358,888 1371,875 1467,918 
			1489,869 1500,841 1487,837 1484,848 1427,823 1423,837 		"/>
		<polygon opacity="0.5" fill="#B8C2DD" enable-background="new    " points="1550,860 1668,907 1629,1009 1512,961 		"/>
		<polygon opacity="0.5" fill="#B8C2DD" enable-background="new    " points="1707,640 1729,618 1805,537 1829,513 1792,485 
			1680,591 1698,523 1635,519 1599,691 1647.1,704.74 1644,715 1747,817 1781,779 1660,662 1659.3,664.3 1668,633 		"/>
		<polygon opacity="0.5" fill="#B8C2DD" enable-background="new    " points="1593,705 1639,719 1610,824 1599,817 1590,845 
			1553,832 		"/>
		<polygon opacity="0.5" fill="#B8C2DD" enable-background="new    " points="1650,492 1672,512 1707,473 1685,454 		"/>
		<polygon opacity="0.5" fill="#B8C2DD" enable-background="new    " points="1805,344 1752,400 1841,481 1882,443 1815,385 
			1831,367 		"/>
		<polygon opacity="0.5" fill="#B8C2DD" enable-background="new    " points="1775,264 1805,299 1843,265 1821,244 1843,227 
			1833,216 		"/>
		<polygon opacity="0.5" fill="#B8C2DD" enable-background="new    " points="1686,175 1748,241 1820,186 1765,132 		"/>
		<polygon opacity="0.5" fill="#B8C2DD" enable-background="new    " points="1739.92,634.15 1705.72,668.75 1725.49,689.36 
			1719.78,695.02 1738.69,713.33 1744.4,707.56 1754.76,718.22 1749.3,723.94 1767.64,742.28 1773.34,736.66 1797.27,759.92 
			1833.44,724.64 1742.92,634.33 		"/>
		<path opacity="0.5" fill="#B8C2DD" enable-background="new    " d="M1497,389c0,0-10-32-12-47s4-61,4-61s-39.93,14.17-62,23
			c-30,12-81.26,38.88-105,57c-11.67,8.91-31.59,30.22-43,40c-9.49,8.13-31.23,21.1-40,30c-7.69,7.81-21.23,25.71-25,36
			c-4,10.92-7,46-7,46s139,15,152,16s154,5,154,5L1497,389z M1411,497l-10-50l50-10l10,48L1411,497z"/>
		<polygon opacity="0.5" fill="#B8C2DD" enable-background="new    " points="1211,138 999,245 867,306 860,330 874,497 895,510 
			1041.52,437.5 1025.9,506.05 964,537 964,546 1122,629 1143,630 1160,521 1166,518 1132,453 1061.64,488.18 1075.84,420.52 
			1087,415 1081,402 1089,398 1096,414 1137,393 1145,406 1333,313 1330,307 1359,293 1351,280 1374,267 1387,283 1620,169 
			1614,161 1631,151 1634,157 1674,138 		"/>
		<path opacity="0.5" fill="#B8C2DD" enable-background="new    " d="M1533,717l-30,109l-81-42l-5,8l-24-8l-9,19l-24-7l10-45l-39-14
			l8-48c0,0,56,1,75,5S1533,717,1533,717z"/>
		<path opacity="0.5" fill="#B8C2DD" enable-background="new    " d="M1288,754c0,0,24.2,64.03,28,70c7,11,33,5,30-13l-7-20l9-4
			l-14-29l-13,5l-8-19L1288,754z"/>
		<path opacity="0.5" fill="#B8C2DD" enable-background="new    " d="M1326,718l-29,21c0,0-26-33-27-34s-1-5,6-9s27-9,27-9L1326,718
			z"/>
		<polygon opacity="0.5" fill="#B8C2DD" enable-background="new    " points="1095,670 1102,712 1184,756 1198,722 1100,668 		"/>
		<polygon opacity="0.5" fill="#B8C2DD" enable-background="new    " points="1106,723 1102,727 1108,769 1171,800 1188,765 		"/>
		<polygon opacity="0.5" fill="#B8C2DD" enable-background="new    " points="485,325 483,434 417,468 390,357 		"/>
		<polygon opacity="0.5" fill="#B8C2DD" enable-background="new    " points="1561,477 1585,483 1573,533 1553,526 		"/>
		<g>
			<g>
				
					<rect x="814.26" y="613.62" transform="matrix(0.4219 -0.9067 0.9067 0.4219 -90.3205 1099.9706)" fill="#E9E9E9" width="6.21" height="14.37"/>
				<path fill="#878787" d="M812.15,615.27l12.66,5.89l-2.44,5.25l-12.66-5.89L812.15,615.27 M811.95,614.72l-2.79,6l13.4,6.24
					l2.79-6L811.95,614.72L811.95,614.72z"/>
			</g>
			
				<line fill="none" stroke="#878787" stroke-width="0.4106" stroke-miterlimit="10" x1="811.02" y1="621.59" x2="813.82" y2="615.59"/>
			
				<line fill="none" stroke="#878787" stroke-width="0.4106" stroke-miterlimit="10" x1="812.98" y1="622.5" x2="815.77" y2="616.5"/>
			
				<line fill="none" stroke="#878787" stroke-width="0.4106" stroke-miterlimit="10" x1="814.94" y1="623.41" x2="817.73" y2="617.41"/>
			
				<line fill="none" stroke="#878787" stroke-width="0.4106" stroke-miterlimit="10" x1="816.89" y1="624.32" x2="819.68" y2="618.32"/>
		</g>
		<g>
			<g>
				
					<rect x="817.49" y="606.68" transform="matrix(0.4219 -0.9067 0.9067 0.4219 -82.1538 1098.8868)" fill="#E9E9E9" width="6.21" height="14.37"/>
				<path fill="#878787" d="M815.39,608.32l12.66,5.89l-2.44,5.25l-12.66-5.89L815.39,608.32 M815.19,607.77l-2.79,6l13.4,6.24
					l2.79-6L815.19,607.77L815.19,607.77z"/>
			</g>
			
				<line fill="none" stroke="#878787" stroke-width="0.4106" stroke-miterlimit="10" x1="814.26" y1="614.64" x2="817.05" y2="608.64"/>
			
				<line fill="none" stroke="#878787" stroke-width="0.4106" stroke-miterlimit="10" x1="816.21" y1="615.55" x2="819.01" y2="609.55"/>
			
				<line fill="none" stroke="#878787" stroke-width="0.4106" stroke-miterlimit="10" x1="818.17" y1="616.46" x2="820.96" y2="610.46"/>
			
				<line fill="none" stroke="#878787" stroke-width="0.4106" stroke-miterlimit="10" x1="820.13" y1="617.37" x2="822.92" y2="611.37"/>
			
				<line fill="none" stroke="#878787" stroke-width="0.4106" stroke-miterlimit="10" x1="822.08" y1="618.28" x2="824.87" y2="612.28"/>
			
				<line fill="none" stroke="#878787" stroke-width="0.4106" stroke-miterlimit="10" x1="824.04" y1="619.19" x2="826.83" y2="613.19"/>
		</g>
		<g>
			
				<rect x="802.54" y="609.99" transform="matrix(0.4218 -0.9067 0.9067 0.4218 -87.7059 1088.3505)" fill="#E9E9E9" width="13.87" height="5.91"/>
			<g>
				<path fill="#878787" d="M809.83,605.73l4.99,2.32l-5.68,12.2l-4.99-2.32L809.83,605.73 M809.63,605.19l-6.02,12.95l5.73,2.67
					l6.02-12.95L809.63,605.19L809.63,605.19z"/>
			</g>
		</g>
		<polyline fill="none" stroke="#008246" stroke-linejoin="round" stroke-miterlimit="10" points="826.22,616.82 810.39,609.45 
			807.31,616.08 812.5,618.5 821.5,622.5 814.26,637.64 		"/>
		<circle fill="#A5CEBB" cx="1590" cy="292" r="11.31"/>
		<circle fill="#A5CEBB" cx="1632" cy="358" r="11.31"/>
		
			<ellipse transform="matrix(0.9475 -0.3198 0.3198 0.9475 -30.3146 526.3434)" fill="#A5CEBB" cx="1587.5" cy="355.48" rx="11.31" ry="11.31"/>
		
			<ellipse transform="matrix(0.9475 -0.3198 0.3198 0.9475 -10.7711 541.5586)" fill="#A5CEBB" cx="1643.6" cy="303.58" rx="11.31" ry="11.31"/>
		
			<ellipse transform="matrix(0.37 -0.929 0.929 0.37 682.5015 1671.3159)" fill="#A5CEBB" cx="1573.57" cy="332.42" rx="11.31" ry="11.31"/>
		
			<ellipse transform="matrix(0.37 -0.929 0.929 0.37 744.4947 1733.5265)" fill="#A5CEBB" cx="1650.44" cy="317.82" rx="11.31" ry="11.31"/>
		
			<ellipse transform="matrix(0.825 -0.5652 0.5652 0.825 95.7074 990.2949)" fill="#A5CEBB" cx="1646.69" cy="340.63" rx="7.5" ry="8"/>
		
			<ellipse transform="matrix(0.825 -0.5652 0.5652 0.825 100.9437 944.6176)" fill="#A5CEBB" cx="1575.56" cy="309.33" rx="7.5" ry="8"/>
		
			<ellipse transform="matrix(0.2384 -0.9712 0.9712 0.2384 884.7265 1851.7902)" fill="#A5CEBB" cx="1623.02" cy="361.81" rx="8" ry="7.5"/>
		
			<ellipse transform="matrix(0.2384 -0.9712 0.9712 0.2384 938.1241 1772.1316)" fill="#A5CEBB" cx="1598.93" cy="287.94" rx="8" ry="7.5"/>
		
			<ellipse transform="matrix(0.6705 -0.7419 0.7419 0.6705 259.0381 1309.7587)" fill="#A5CEBB" cx="1604.07" cy="363.25" rx="8" ry="7.5"/>
		
			<ellipse transform="matrix(0.6705 -0.7419 0.7419 0.6705 315.4583 1289.879)" fill="#A5CEBB" cx="1609.9" cy="289.79" rx="8" ry="7.5"/>
		
			<ellipse transform="matrix(0.1245 -0.9922 0.9922 0.1245 1129.9459 1892.2157)" fill="#A5CEBB" cx="1637.22" cy="305.81" rx="7.5" ry="8"/>
		
			<ellipse transform="matrix(0.1245 -0.9922 0.9922 0.1245 1040.8411 1862.1307)" fill="#A5CEBB" cx="1575.62" cy="341.26" rx="7.5" ry="8"/>
		
			<ellipse transform="matrix(0.5746 -0.8184 0.8184 0.5746 413.5543 1488.3936)" fill="#A5CEBB" cx="1638.58" cy="346.37" rx="11.5" ry="6.5"/>
		
			<ellipse transform="matrix(0.5746 -0.8184 0.8184 0.5746 423.2593 1428.0043)" fill="#A5CEBB" cx="1585.34" cy="306.83" rx="11.5" ry="6.5"/>
		
			<ellipse transform="matrix(8.638169e-03 -1 1 8.638169e-03 1303.4294 1969.8005)" fill="#A5CEBB" cx="1645.16" cy="327.53" rx="11.5" ry="6.5"/>
		
			<ellipse transform="matrix(8.638169e-03 -1 1 8.638169e-03 1240.0417 1901.2478)" fill="#A5CEBB" cx="1578.89" cy="325.22" rx="11.5" ry="6.5"/>
		
			<ellipse transform="matrix(0.9921 -0.1253 0.1253 0.9921 -24.261 203.2634)" fill="#A5CEBB" cx="1603.66" cy="294.49" rx="11.5" ry="6.5"/>
		
			<ellipse transform="matrix(0.9921 -0.1253 0.1253 0.9921 -32.3132 205.224)" fill="#A5CEBB" cx="1615.22" cy="359.48" rx="11.5" ry="6.5"/>
		
			<ellipse transform="matrix(0.7383 -0.6745 0.6745 0.7383 205.7181 1200.4821)" fill="#A5CEBB" cx="1649.8" cy="335.15" rx="11.31" ry="11.31"/>
		
			<ellipse transform="matrix(0.7383 -0.6745 0.6745 0.7383 199.7136 1144.2051)" fill="#A5CEBB" cx="1574.28" cy="314.75" rx="11.31" ry="11.31"/>
		
			<ellipse transform="matrix(0.931 -0.3651 0.3651 0.931 -13.7764 623.6012)" fill="#A5CEBB" cx="1642.24" cy="348.23" rx="7.5" ry="8"/>
		
			<ellipse transform="matrix(0.931 -0.3651 0.3651 0.931 -1.1048 597.6578)" fill="#A5CEBB" cx="1579.97" cy="301.75" rx="7.5" ry="8"/>
		
			<ellipse transform="matrix(0.931 -0.3651 0.3651 0.931 -19.6666 609.4866)" fill="#A5CEBB" cx="1601.97" cy="356.75" rx="7.5" ry="8"/>
		
			<ellipse transform="matrix(0.931 -0.3651 0.3651 0.931 -22.5771 615.0551)" fill="#A5CEBB" cx="1615.24" cy="367.23" rx="7.5" ry="8"/>
		
			<ellipse transform="matrix(0.931 -0.3651 0.3651 0.931 -18.4014 599.1395)" fill="#A5CEBB" cx="1575.24" cy="348.23" rx="7.5" ry="8"/>
		<path opacity="0.5" fill="#B8C2DD" enable-background="new    " d="M258,562c0,0,74,31,65,95s-16,126-16,126l-117-16l24-213
			L258,562z"/>
		<g id="srg_1_" opacity="0.9">
			<circle fill="#E3E3E3" cx="1611" cy="273" r="6"/>
			<path fill="#FF0026" d="M1611,268c2.76,0,5,2.24,5,5s-2.24,5-5,5s-5-2.24-5-5S1608.24,268,1611,268 M1611,266c-3.87,0-7,3.13-7,7
				s3.13,7,7,7s7-3.13,7-7S1614.87,266,1611,266L1611,266z"/>
		</g>
		<g id="giltspur_1_" opacity="0.9">
			<circle fill="#E3E3E3" cx="1463" cy="991" r="6"/>
			<path fill="#FF0026" d="M1463,986c2.76,0,5,2.24,5,5s-2.24,5-5,5s-5-2.24-5-5S1460.24,986,1463,986 M1463,984c-3.87,0-7,3.13-7,7
				s3.13,7,7,7s7-3.13,7-7S1466.87,984,1463,984L1463,984z"/>
		</g>
		<g id="steps_1_" opacity="0.9">
			<circle fill="#E3E3E3" cx="846" cy="628" r="6"/>
			<path fill="#FF0026" d="M846,623c2.76,0,5,2.24,5,5s-2.24,5-5,5s-5-2.24-5-5S843.24,623,846,623 M846,621c-3.87,0-7,3.13-7,7
				s3.13,7,7,7s7-3.13,7-7S849.87,621,846,621L846,621z"/>
		</g>
		<g id="farrington_1_" opacity="0.9">
			<circle fill="#E3E3E3" cx="836.94" cy="304.98" r="6"/>
			<path fill="#FF0026" d="M836.94,299.98c2.76,0,5,2.24,5,5s-2.24,5-5,5s-5-2.24-5-5S834.18,299.98,836.94,299.98 M836.94,297.98
				c-3.87,0-7,3.13-7,7s3.13,7,7,7s7-3.13,7-7S840.81,297.98,836.94,297.98L836.94,297.98z"/>
		</g>
		<g id="shoe_1_" opacity="0.9">
			<circle fill="#E3E3E3" cx="701.36" cy="495.94" r="6"/>
			<path fill="#FF0026" d="M701.36,490.94c2.76,0,5,2.24,5,5s-2.24,5-5,5s-5-2.24-5-5S698.6,490.94,701.36,490.94 M701.36,488.94
				c-3.87,0-7,3.13-7,7s3.13,7,7,7s7-3.13,7-7S705.23,488.94,701.36,488.94L701.36,488.94z"/>
		</g>
		<g id="charterhouse_1_" opacity="0.9">
			<circle fill="#E3E3E3" cx="577.51" cy="409.06" r="6"/>
			<path fill="#FF0026" d="M577.51,404.06c2.76,0,5,2.24,5,5s-2.24,5-5,5s-5-2.24-5-5S574.75,404.06,577.51,404.06 M577.51,402.06
				c-3.87,0-7,3.13-7,7s3.13,7,7,7s7-3.13,7-7S581.38,402.06,577.51,402.06L577.51,402.06z"/>
		</g>
	</g>
	<g id="hre_1_" opacity="0.9">
		<path fill="#E3E3E3" stroke="#000000" stroke-width="0.5" stroke-miterlimit="10" d="M653.98,559.46
			c-13.9-0.46-95.79-6.62-114.55-87.03l-0.03-0.11l-0.04-0.11c-0.02-0.1-0.98-4.11,6.75-7.97c9.28-4.64,119.64-60.69,134.4-68.19
			l6.76,6.76L653.98,559.46z"/>
		<path fill="#FF0026" stroke="#000000" stroke-width="0.5" stroke-miterlimit="10" d="M680.03,399.1l4.52,4.52l-32.57,153.25
			c-8.01-0.45-27.22-2.42-47.43-10.95c-14.73-6.22-27.26-14.73-37.25-25.29c-12.38-13.1-20.94-29.5-25.43-48.75l-0.03-0.15
			c-0.06-0.89,0.98-3.03,5.4-5.24C556.23,461.97,660.23,409.16,680.03,399.1 M681,393c0,0-126,64-136,69s-8,11-8,11
			c20.54,88.04,114.78,89,118.86,89c0.09,0,0.14,0,0.14,0l34-160L681,393L681,393z"/>
	</g>
</g>
<g id="landmarks-holborn">
	<g id="hre" opacity="0.9">
		<path fill="#E3E3E3" d="M653.98,559.46c-13.9-0.46-95.79-6.62-114.55-87.03l-0.03-0.11l-0.04-0.11c-0.02-0.1-0.98-4.11,6.75-7.97
			c9.28-4.64,119.64-60.69,134.4-68.19l6.76,6.76L653.98,559.46z"/>
		<path fill="#FF0026" d="M680.03,399.1l4.52,4.52l-32.57,153.25c-8.01-0.45-27.22-2.42-47.43-10.95
			c-14.73-6.22-27.26-14.73-37.25-25.29c-12.38-13.1-20.94-29.5-25.43-48.75l-0.03-0.15c-0.06-0.89,0.98-3.03,5.4-5.24
			C556.23,461.97,660.23,409.16,680.03,399.1 M681,393c0,0-126,64-136,69s-8,11-8,11c20.54,88.04,114.78,89,118.86,89
			c0.09,0,0.14,0,0.14,0l34-160L681,393L681,393z"/>
	</g>
	<g id="srg" opacity="0.9">
		<circle fill="#E3E3E3" cx="1611" cy="273" r="6"/>
		<path fill="#FF0026" d="M1611,268c2.76,0,5,2.24,5,5s-2.24,5-5,5s-5-2.24-5-5S1608.24,268,1611,268 M1611,266c-3.87,0-7,3.13-7,7
			s3.13,7,7,7s7-3.13,7-7S1614.87,266,1611,266L1611,266z"/>
	</g>
	<g id="giltspur" opacity="0.9">
		<circle fill="#E3E3E3" cx="1463" cy="991" r="6"/>
		<path fill="#FF0026" d="M1463,986c2.76,0,5,2.24,5,5s-2.24,5-5,5s-5-2.24-5-5S1460.24,986,1463,986 M1463,984c-3.87,0-7,3.13-7,7
			s3.13,7,7,7s7-3.13,7-7S1466.87,984,1463,984L1463,984z"/>
	</g>
	<g id="steps" opacity="0.9">
		<circle fill="#E3E3E3" cx="846" cy="628" r="6"/>
		<path fill="#FF0026" d="M846,623c2.76,0,5,2.24,5,5s-2.24,5-5,5s-5-2.24-5-5S843.24,623,846,623 M846,621c-3.87,0-7,3.13-7,7
			s3.13,7,7,7s7-3.13,7-7S849.87,621,846,621L846,621z"/>
	</g>
	<g id="farrington" opacity="0.9">
		<circle fill="#E3E3E3" cx="836.94" cy="304.98" r="6"/>
		<path fill="#FF0026" d="M836.94,299.98c2.76,0,5,2.24,5,5s-2.24,5-5,5s-5-2.24-5-5S834.18,299.98,836.94,299.98 M836.94,297.98
			c-3.87,0-7,3.13-7,7s3.13,7,7,7s7-3.13,7-7S840.81,297.98,836.94,297.98L836.94,297.98z"/>
	</g>
	<g id="shoe" opacity="0.9">
		<circle fill="#E3E3E3" cx="701.36" cy="495.94" r="6"/>
		<path fill="#FF0026" d="M701.36,490.94c2.76,0,5,2.24,5,5s-2.24,5-5,5s-5-2.24-5-5S698.6,490.94,701.36,490.94 M701.36,488.94
			c-3.87,0-7,3.13-7,7s3.13,7,7,7s7-3.13,7-7S705.23,488.94,701.36,488.94L701.36,488.94z"/>
	</g>
	<g id="charterhouse" opacity="0.9">
		<circle fill="#E3E3E3" cx="577.51" cy="409.06" r="6"/>
		<path fill="#FF0026" d="M577.51,404.06c2.76,0,5,2.24,5,5s-2.24,5-5,5s-5-2.24-5-5S574.75,404.06,577.51,404.06 M577.51,402.06
			c-3.87,0-7,3.13-7,7s3.13,7,7,7s7-3.13,7-7S581.38,402.06,577.51,402.06L577.51,402.06z"/>
	</g>
</g>
<g id="nopointer-holborn">
	<g id="routes">
		
			<line fill="none" stroke="#008246" stroke-linejoin="round" stroke-miterlimit="10" x1="809.5" y1="647.5" x2="821.5" y2="622.5"/>
		<path fill="none" stroke="#008246" stroke-linejoin="round" stroke-miterlimit="10" d="M1627.64,285.52l21.86-49.02v2
			c-10-5-33-17-37-48l-47,24c-15,7-52,26-52,26l-10,14c0,0-45.43,148.79,58,177c16.5,4.5,31,9,31,9l-4,26.5h0.5
			c5,2,5.5,2.5,1.5,22.5s-18,77-19,84s-23,116-25,124s-29,111-35,127s-5.04,23.98-10,35c-9,20-31.17,67.96-35,83
			c-7,27.5-10,32-10,32c-75.88-39.31-201.93-104.03-214-109c-17-7-73-47-89-57s-160-89-178-97s-56-19-74-24
			c-18.61-5.17-215.72-98.34-238-109c-23-11-90.75-23.56-111-36c-41.5-25.5-55-67-55-67c19.62-9.75,58.03-29.1,82-41l8.47-4.23
			l2.53,5.23"/>
		<path fill="none" stroke="#008246" stroke-linejoin="round" stroke-miterlimit="10" d="M825.5,616.5c0,0,7,3,9,2s1-14,1-14
			c0-4.19,18-7,18-7c-4.85-29.44-8.43-50.97-9-54c-3-16-17-143-16-169c0.59-15.33,0.45-38.8-1-60c-58.98,28.41-109.56,50.95-124,58
			l0,0c0,0,3,23,2,34c-0.53,5.81-6.98,30.48-15,71l-3,17l-12-1"/>
	</g>
	<g id="arrows">
		<g>
			<g>
				<g>
					
						<rect x="568.66" y="432.11" transform="matrix(0.8947 -0.4466 0.4466 0.8947 -134.692 302.5618)" fill="none" width="11.58" height="9.77"/>
					<g>
						<polygon fill="#20925D" points="577.42,430.08 577.75,435.37 581.79,438.82 569.24,439.62 						"/>
					</g>
				</g>
				<g>
					
						<rect x="537.51" y="447.69" transform="matrix(0.894 -0.448 0.448 0.894 -145.1827 291.3664)" fill="none" width="11.58" height="9.77"/>
					<g>
						<polygon fill="#20925D" points="546.34,445.6 546.67,450.89 550.72,454.33 538.18,455.15 						"/>
					</g>
				</g>
				<g>
					
						<rect x="506.51" y="463.26" transform="matrix(0.8946 -0.4469 0.4469 0.8946 -155.209 278.291)" fill="none" width="11.58" height="9.77"/>
					<g>
						<polygon fill="#20925D" points="515.29,461.15 515.62,466.45 519.66,469.89 507.11,470.7 						"/>
					</g>
				</g>
				<g>
					
						<rect x="500.19" y="486.18" transform="matrix(0.8731 -0.4875 0.4875 0.8731 -175.7574 308.6506)" fill="none" width="9.77" height="11.58"/>
					<g>
						<polygon fill="#20925D" points="498,489.35 503.28,488.78 506.53,484.59 507.91,497.08 						"/>
					</g>
				</g>
				<g>
					
						<rect x="520.76" y="514.08" transform="matrix(0.7521 -0.659 0.659 0.7521 -212.3106 475.2743)" fill="none" width="9.77" height="11.58"/>
					<g>
						<polygon fill="#20925D" points="518.21,518.73 523.25,517.07 525.55,512.29 529.51,524.22 						"/>
					</g>
				</g>
				<g>
					
						<rect x="547.18" y="536.42" transform="matrix(0.612 -0.7908 0.7908 0.612 -214.6154 646.9568)" fill="none" width="9.77" height="11.58"/>
					<g>
						<polygon fill="#20925D" points="544.57,542.54 549.2,539.94 550.55,534.81 556.71,545.76 						"/>
					</g>
				</g>
				<g>
					
						<rect x="579.59" y="548.82" transform="matrix(0.2942 -0.9557 0.9557 0.2942 -117.5483 950.0456)" fill="none" width="9.77" height="11.58"/>
					<g>
						<polygon fill="#20925D" points="577.55,557.52 580.97,553.46 580.43,548.18 590.06,556.26 						"/>
					</g>
				</g>
				<g>
					
						<rect x="613.05" y="558.21" transform="matrix(0.2637 -0.9646 0.9646 0.2637 -89.0491 1011.3318)" fill="none" width="9.77" height="11.58"/>
					<g>
						<polygon fill="#20925D" points="611.07,567.2 614.36,563.03 613.65,557.77 623.53,565.54 						"/>
					</g>
				</g>
				<g>
					
						<rect x="646.25" y="568.21" transform="matrix(0.3449 -0.9386 0.9386 0.3449 -112.221 987.199)" fill="none" width="9.77" height="11.58"/>
					<g>
						<polygon fill="#20925D" points="644.08,576.57 647.72,572.7 647.45,567.4 656.64,575.98 						"/>
					</g>
				</g>
				<g>
					
						<rect x="678.23" y="581.96" transform="matrix(0.4272 -0.9042 0.9042 0.4272 -140.1269 954.3251)" fill="none" width="9.77" height="11.58"/>
					<g>
						<polygon fill="#20925D" points="675.73,589.71 679.69,586.18 679.9,580.88 688.28,590.24 						"/>
					</g>
				</g>
				<g>
					
						<rect x="709.56" y="596.81" transform="matrix(0.4256 -0.9049 0.9049 0.4256 -134.9209 992.6365)" fill="none" width="9.77" height="11.58"/>
					<g>
						<polygon fill="#20925D" points="707.15,604.54 711.1,601 711.31,595.7 719.7,605.05 						"/>
					</g>
				</g>
				<g>
					
						<rect x="741.11" y="611.52" transform="matrix(0.4238 -0.9058 0.9058 0.4238 -129.2848 1031.399)" fill="none" width="9.77" height="11.58"/>
					<g>
						<polygon fill="#20925D" points="738.6,619.31 742.55,615.76 742.74,610.46 751.15,619.79 						"/>
					</g>
				</g>
				<g>
					
						<rect x="772.46" y="626.23" transform="matrix(0.4213 -0.9069 0.9069 0.4213 -123.3479 1070.7301)" fill="none" width="9.77" height="11.58"/>
					<g>
						<polygon fill="#20925D" points="770.08,634.02 774.02,630.46 774.2,625.15 782.64,634.46 						"/>
					</g>
				</g>
				<g>
					
						<rect x="804.02" y="640.79" transform="matrix(0.4177 -0.9086 0.9086 0.4177 -116.4403 1111.4652)" fill="none" width="9.77" height="11.58"/>
					<g>
						<polygon fill="#20925D" points="801.6,648.65 805.53,645.08 805.68,639.78 814.16,649.05 						"/>
					</g>
				</g>
				<g>
					
						<rect x="835.56" y="655.34" transform="matrix(0.4117 -0.9113 0.9113 0.4117 -108.0699 1154.8447)" fill="none" width="9.77" height="11.58"/>
					<g>
						<polygon fill="#20925D" points="833.19,663.19 837.09,659.59 837.21,654.28 845.75,663.5 						"/>
					</g>
				</g>
				<g>
					
						<rect x="867.33" y="669.56" transform="matrix(0.3994 -0.9168 0.9168 0.3994 -95.2893 1205.2478)" fill="none" width="9.77" height="11.58"/>
					<g>
						<polygon fill="#20925D" points="864.9,677.51 868.75,673.86 868.8,668.55 877.47,677.65 						"/>
					</g>
				</g>
				<g>
					
						<rect x="899.48" y="682.44" transform="matrix(0.2763 -0.9611 0.9611 0.2763 -6.9436 1367.2402)" fill="none" width="9.77" height="11.58"/>
					<g>
						<polygon fill="#20925D" points="897.44,691.42 900.78,687.29 900.14,682.03 909.92,689.92 						"/>
					</g>
				</g>
				<g>
					
						<rect x="932.82" y="692.38" transform="matrix(0.2993 -0.9542 0.9542 0.2993 -9.1017 1383.9384)" fill="none" width="9.77" height="11.58"/>
					<g>
						<polygon fill="#20925D" points="930.66,701.16 934.1,697.12 933.58,691.84 943.17,699.96 						"/>
					</g>
				</g>
				<g>
					
						<rect x="965.51" y="703.8" transform="matrix(0.3501 -0.9367 0.9367 0.3501 -34.0286 1370.1396)" fill="none" width="9.77" height="11.58"/>
					<g>
						<polygon fill="#20925D" points="963.31,712.16 966.97,708.31 966.73,703.01 975.87,711.64 						"/>
					</g>
				</g>
				<g>
					
						<rect x="996.75" y="719.08" transform="matrix(0.4664 -0.8846 0.8846 0.4664 -106.7175 1272.8262)" fill="none" width="9.77" height="11.58"/>
					<g>
						<polygon fill="#20925D" points="994.2,726.53 998.31,723.17 998.76,717.88 1006.72,727.6 						"/>
					</g>
				</g>
				<g>
					
						<rect x="1027.36" y="735.48" transform="matrix(0.4737 -0.8807 0.8807 0.4737 -109.5531 1299.2168)" fill="none" width="9.77" height="11.58"/>
					<g>
						<polygon fill="#20925D" points="1024.81,742.86 1028.95,739.54 1029.44,734.25 1037.32,744.04 						"/>
					</g>
				</g>
				<g>
					
						<rect x="1057.81" y="752.1" transform="matrix(0.4779 -0.8784 0.8784 0.4779 -110.9084 1329.174)" fill="none" width="9.77" height="11.58"/>
					<g>
						<polygon fill="#20925D" points="1055.32,759.41 1059.48,756.11 1059.99,750.83 1067.82,760.65 						"/>
					</g>
				</g>
				<g>
					
						<rect x="1088.28" y="768.8" transform="matrix(0.4812 -0.8766 0.8766 0.4812 -111.8822 1360.1289)" fill="none" width="9.77" height="11.58"/>
					<g>
						<polygon fill="#20925D" points="1085.77,776.09 1089.94,772.8 1090.47,767.52 1098.27,777.38 						"/>
					</g>
				</g>
				<g>
					
						<rect x="1118.64" y="785.65" transform="matrix(0.49 -0.8717 0.8717 0.49 -116.9261 1383.0176)" fill="none" width="9.77" height="11.58"/>
					<g>
						<polygon fill="#20925D" points="1116.13,792.85 1120.33,789.61 1120.92,784.34 1128.62,794.27 						"/>
					</g>
				</g>
				<g>
					
						<rect x="1148.94" y="802.88" transform="matrix(0.5278 -0.8494 0.8494 0.5278 -142.0116 1361.8954)" fill="none" width="9.77" height="11.58"/>
					<g>
						<polygon fill="#20925D" points="1146.24,809.75 1150.58,806.69 1151.4,801.45 1158.65,811.71 						"/>
					</g>
				</g>
				<g>
					
						<rect x="1177.77" y="822.23" transform="matrix(0.5612 -0.8277 0.8277 0.5612 -166.3775 1342.2079)" fill="none" width="9.77" height="11.58"/>
					<g>
						<polygon fill="#20925D" points="1175.06,828.78 1179.52,825.9 1180.54,820.69 1187.38,831.23 						"/>
					</g>
				</g>
				<g>
					
						<rect x="1206.64" y="841.41" transform="matrix(0.5351 -0.8448 0.8448 0.5351 -152.4643 1417.3567)" fill="none" width="9.77" height="11.58"/>
					<g>
						<polygon fill="#20925D" points="1204,848.27 1208.37,845.25 1209.23,840.01 1216.39,850.33 						"/>
					</g>
				</g>
				<g>
					
						<rect x="1236.47" y="859.07" transform="matrix(0.4733 -0.8809 0.8809 0.4733 -108.0324 1549.0269)" fill="none" width="9.77" height="11.58"/>
					<g>
						<polygon fill="#20925D" points="1233.97,866.46 1238.11,863.14 1238.6,857.86 1246.49,867.64 						"/>
					</g>
				</g>
				<g>
					
						<rect x="1267.59" y="874.48" transform="matrix(0.4468 -0.8946 0.8946 0.4468 -83.5943 1625.3451)" fill="none" width="9.77" height="11.58"/>
					<g>
						<polygon fill="#20925D" points="1265.2,882.01 1269.23,878.56 1269.56,873.26 1277.74,882.81 						"/>
					</g>
				</g>
				<g>
					
						<rect x="1298.62" y="890.12" transform="matrix(0.4522 -0.8919 0.8919 0.4522 -85.0267 1653.3866)" fill="none" width="9.77" height="11.58"/>
					<g>
						<polygon fill="#20925D" points="1296.18,897.64 1300.24,894.22 1300.6,888.93 1308.71,898.52 						"/>
					</g>
				</g>
				<g>
					
						<rect x="1329.5" y="905.96" transform="matrix(0.4549 -0.8905 0.8905 0.4549 -84.59 1685.2942)" fill="none" width="9.77" height="11.58"/>
					<g>
						<polygon fill="#20925D" points="1327.11,913.41 1331.18,910 1331.56,904.71 1339.65,914.33 						"/>
					</g>
				</g>
				<g>
					
						<rect x="1360.52" y="921.86" transform="matrix(0.4567 -0.8896 0.8896 0.4567 -83.4442 1718.6731)" fill="none" width="9.77" height="11.58"/>
					<g>
						<polygon fill="#20925D" points="1358.02,929.24 1362.1,925.84 1362.48,920.54 1370.55,930.18 						"/>
					</g>
				</g>
				<g>
					
						<rect x="1391.51" y="937.52" transform="matrix(0.458 -0.889 0.889 0.458 -81.6958 1752.6372)" fill="none" width="9.77" height="11.58"/>
					<g>
						<polygon fill="#20925D" points="1388.91,945.11 1392.99,941.72 1393.39,936.42 1401.44,946.07 						"/>
					</g>
				</g>
				<g>
					
						<rect x="1422.33" y="953.52" transform="matrix(0.4593 -0.8883 0.8883 0.4593 -80.438 1786.4772)" fill="none" width="9.77" height="11.58"/>
					<g>
						<polygon fill="#20925D" points="1419.78,961.01 1423.87,957.63 1424.27,952.33 1432.31,961.99 						"/>
					</g>
				</g>
				<g>
					
						<rect x="1451.29" y="968.08" transform="matrix(0.4287 -0.9034 0.9034 0.4287 -46.6121 1872.2241)" fill="none" width="11.58" height="9.77"/>
					<g>
						<polygon fill="#20925D" points="1459.17,980.28 1455.64,976.31 1450.34,976.09 1459.72,967.72 						"/>
					</g>
				</g>
				<g>
					
						<rect x="1461.64" y="934.87" transform="matrix(0.3325 -0.9431 0.9431 0.3325 93.219 2011.2257)" fill="none" width="11.58" height="9.77"/>
					<g>
						<polygon fill="#20925D" points="1470.14,946.87 1466.22,943.29 1460.93,943.62 1469.38,934.32 						"/>
					</g>
				</g>
				<g>
					
						<rect x="1474.36" y="902.68" transform="matrix(0.3881 -0.9216 0.9216 0.3881 69.2683 1919.459)" fill="none" width="11.58" height="9.77"/>
					<g>
						<polygon fill="#20925D" points="1482.38,914.69 1478.68,910.88 1473.38,910.89 1482.37,902.12 						"/>
					</g>
				</g>
				<g>
					
						<rect x="1488.42" y="870.81" transform="matrix(0.4122 -0.9111 0.9111 0.4122 80.4606 1876.1028)" fill="none" width="11.58" height="9.77"/>
					<g>
						<polygon fill="#20925D" points="1496.24,882.98 1492.64,879.07 1487.34,878.95 1496.56,870.42 						"/>
					</g>
				</g>
				<g>
					
						<rect x="1500.51" y="838.35" transform="matrix(0.2755 -0.9613 0.9613 0.2755 280.7048 2058.9324)" fill="none" width="11.58" height="9.77"/>
					<g>
						<polygon fill="#20925D" points="1509.39,850.14 1505.27,846.8 1500,847.44 1507.88,837.66 						"/>
					</g>
				</g>
				<g>
					
						<rect x="1510.25" y="804.93" transform="matrix(0.2759 -0.9612 0.9612 0.2759 319.3846 2043.5844)" fill="none" width="11.58" height="9.77"/>
					<g>
						<polygon fill="#20925D" points="1519.17,816.81 1515.04,813.47 1509.78,814.12 1517.67,804.34 						"/>
					</g>
				</g>
				<g>
					
						<rect x="1519.74" y="771.44" transform="matrix(0.2657 -0.9641 0.9641 0.2657 371.7921 2040.7676)" fill="none" width="11.58" height="9.77"/>
					<g>
						<polygon fill="#20925D" points="1528.64,783.34 1524.48,780.04 1519.22,780.75 1527.01,770.88 						"/>
					</g>
				</g>
				<g>
					
						<rect x="1528.68" y="738.15" transform="matrix(0.2569 -0.9664 0.9664 0.2569 422.1581 2035.1035)" fill="none" width="11.58" height="9.77"/>
					<g>
						<polygon fill="#20925D" points="1537.77,749.78 1533.58,746.52 1528.33,747.27 1536.03,737.34 						"/>
					</g>
				</g>
				<g>
					
						<rect x="1537.78" y="704.39" transform="matrix(0.2542 -0.9672 0.9672 0.2542 465.2403 2021.8595)" fill="none" width="11.58" height="9.77"/>
					<g>
						<polygon fill="#20925D" points="1546.68,716.19 1542.48,712.94 1537.23,713.71 1544.89,703.75 						"/>
					</g>
				</g>
				<g>
					
						<rect x="1545.34" y="670.68" transform="matrix(0.2028 -0.9792 0.9792 0.2028 575.0282 2057.4495)" fill="none" width="11.58" height="9.77"/>
					<g>
						<polygon fill="#20925D" points="1554.76,682.16 1550.4,679.13 1545.19,680.17 1552.33,669.83 						"/>
					</g>
				</g>
				<g>
					
						<rect x="1552.32" y="636.44" transform="matrix(0.1977 -0.9803 0.9803 0.1977 621.4138 2041.8945)" fill="none" width="11.58" height="9.77"/>
					<g>
						<polygon fill="#20925D" points="1561.74,648.1 1557.36,645.1 1552.16,646.17 1559.24,635.79 						"/>
					</g>
				</g>
				<g>
					
						<rect x="1559.17" y="602.4" transform="matrix(0.1957 -0.9807 0.9807 0.1957 663.1708 2023.1487)" fill="none" width="11.58" height="9.77"/>
					<g>
						<polygon fill="#20925D" points="1568.59,614.04 1564.2,611.05 1559,612.13 1566.06,601.73 						"/>
					</g>
				</g>
				<g>
					
						<rect x="1565.7" y="568.45" transform="matrix(0.1924 -0.9813 0.9813 0.1924 706.5037 2005.1527)" fill="none" width="11.58" height="9.77"/>
					<g>
						<polygon fill="#20925D" points="1575.22,579.93 1570.83,576.95 1565.63,578.05 1572.65,567.63 						"/>
					</g>
				</g>
				<g>
					
						<rect x="1573.39" y="534.67" transform="matrix(0.2277 -0.9737 0.9737 0.2277 694.2096 1954.3928)" fill="none" width="11.58" height="9.77"/>
					<g>
						<polygon fill="#20925D" points="1582.6,546.17 1578.32,543.04 1573.09,543.95 1580.48,533.78 						"/>
					</g>
				</g>
				<g>
					
						<rect x="1581.35" y="500.59" transform="matrix(0.2246 -0.9745 0.9745 0.2246 738.1259 1938.551)" fill="none" width="11.58" height="9.77"/>
					<g>
						<polygon fill="#20925D" points="1590.47,512.32 1586.17,509.2 1580.95,510.13 1588.31,499.94 						"/>
					</g>
				</g>
				<g>
					
						<rect x="1587.85" y="465.7" transform="matrix(0.9965 -0.0838 0.0838 0.9965 -33.9078 135.127)" fill="none" width="9.77" height="11.58"/>
					<g>
						<polygon fill="#20925D" points="1598.04,476.81 1592.99,475.15 1588.3,477.63 1592.2,465.68 						"/>
					</g>
				</g>
				<g>
					
						<rect x="1586.65" y="434.48" transform="matrix(0.846 -0.5332 0.5332 0.846 10.3577 916.4061)" fill="none" width="9.77" height="11.58"/>
					<g>
						<polygon fill="#20925D" points="1598.69,442.48 1593.45,443.33 1590.43,447.69 1588.38,435.29 						"/>
					</g>
				</g>
				<g>
					
						<rect x="1553.51" y="424.11" transform="matrix(0.4193 -0.9079 0.9079 0.4193 514.7 1664.4503)" fill="none" width="9.77" height="11.58"/>
					<g>
						<polygon fill="#20925D" points="1565.6,428.01 1561.67,431.58 1561.5,436.88 1553.04,427.59 						"/>
					</g>
				</g>
				<g>
					
						<rect x="1523.28" y="407.84" transform="matrix(0.7144 -0.6998 0.6998 0.7144 147.0474 1187.5063)" fill="none" width="9.77" height="11.58"/>
					<g>
						<polygon fill="#20925D" points="1535.57,414.38 1530.62,416.32 1528.58,421.22 1523.97,409.53 						"/>
					</g>
				</g>
				<g>
					
						<rect x="1502.01" y="380.8" transform="matrix(0.8999 -0.436 0.436 0.8999 -17.779 695.7161)" fill="none" width="9.77" height="11.58"/>
					<g>
						<polygon fill="#20925D" points="1513.94,389.61 1508.64,389.87 1505.14,393.87 1504.49,381.32 						"/>
					</g>
				</g>
				<g>
					
						<rect x="1491.53" y="347.87" transform="matrix(0.9781 -0.2082 0.2082 0.9781 -40.8401 319.2995)" fill="none" width="9.77" height="11.58"/>
					<g>
						<polygon fill="#20925D" points="1502.36,358.37 1497.15,357.36 1492.8,360.41 1495.17,348.06 						"/>
					</g>
				</g>
				<g>
					
						<rect x="1488.88" y="313.5" transform="matrix(0.9992 -0.0411 0.0411 0.9992 -11.8602 61.6607)" fill="none" width="9.77" height="11.58"/>
					<g>
						<polygon fill="#20925D" points="1498.76,324.77 1493.8,322.9 1489,325.17 1493.41,313.4 						"/>
					</g>
				</g>
				<g>
					
						<rect x="1491.38" y="279.64" transform="matrix(0.161 -0.987 0.987 0.161 975.3227 1716.3668)" fill="none" width="11.58" height="9.77"/>
					<g>
						<polygon fill="#20925D" points="1500.99,291.15 1496.5,288.32 1491.34,289.58 1498.03,278.94 						"/>
					</g>
				</g>
				<g>
					
						<rect x="1499.85" y="246.54" transform="matrix(0.5812 -0.8137 0.8137 0.5812 425.9258 1330.4919)" fill="none" width="11.58" height="9.77"/>
					<g>
						<polygon fill="#20925D" points="1506.37,258.89 1503.6,254.36 1498.42,253.21 1509.13,246.62 						"/>
					</g>
				</g>
				<g>
					
						<rect x="1526.79" y="225.93" transform="matrix(0.8915 -0.453 0.453 0.8915 61.7107 719.3056)" fill="none" width="11.58" height="9.77"/>
					<g>
						<polygon fill="#20925D" points="1529.64,237.76 1529.28,232.46 1525.21,229.05 1537.75,228.16 						"/>
					</g>
				</g>
				<g>
					
						<rect x="1557.9" y="210.44" transform="matrix(0.8996 -0.4367 0.4367 0.8996 62.9514 704.485)" fill="none" width="11.58" height="9.77"/>
					<g>
						<polygon fill="#20925D" points="1560.64,222.29 1560.37,216.99 1556.37,213.5 1568.92,212.84 						"/>
					</g>
				</g>
				<g>
					
						<rect x="1588.89" y="194.68" transform="matrix(0.8906 -0.4548 0.4548 0.8906 83.7064 747.088)" fill="none" width="11.58" height="9.77"/>
					<g>
						<polygon fill="#20925D" points="1591.73,206.59 1591.36,201.3 1587.29,197.89 1599.82,196.97 						"/>
					</g>
				</g>
				<g>
					
						<rect x="1611.96" y="198.71" transform="matrix(0.9565 -0.2918 0.2918 0.9565 10.6901 480.6867)" fill="none" width="9.77" height="11.58"/>
					<g>
						<polygon fill="#20925D" points="1610.43,200.46 1615.71,201.02 1619.78,197.61 1618.48,210.11 						"/>
					</g>
				</g>
				<g>
					
						<rect x="1632.93" y="225.46" transform="matrix(0.6226 -0.7826 0.7826 0.6226 437.188 1368.9728)" fill="none" width="9.77" height="11.58"/>
					<g>
						<polygon fill="#20925D" points="1630.14,231.6 1634.81,229.07 1636.23,223.95 1642.24,234.99 						"/>
					</g>
				</g>
				<g>
					
						<rect x="1636.03" y="248.9" transform="matrix(0.4073 -0.9133 0.9133 0.4073 741.3255 1649.8861)" fill="none" width="11.58" height="9.77"/>
					<g>
						<polygon fill="#20925D" points="1639.68,246.52 1643.3,250.4 1648.61,250.5 1639.43,259.08 						"/>
					</g>
				</g>
				<g>
					
						<rect x="1621.88" y="280.63" transform="matrix(0.4073 -0.9133 0.9133 0.4073 703.9657 1655.7699)" fill="none" width="11.58" height="9.77"/>
					<g>
						<polygon fill="#20925D" points="1625.54,278.24 1629.15,282.12 1634.46,282.22 1625.28,290.8 						"/>
					</g>
				</g>
			</g>
		</g>
		<g>
			<g>
				<g>
					
						<rect x="836" y="596.09" transform="matrix(0.9594 -0.2822 0.2822 0.9594 -135.3781 261.9677)" fill="none" width="11.58" height="9.77"/>
					<g>
						<polygon fill="#20925D" points="845.87,594.65 845.26,599.92 848.63,604.02 836.14,602.6 						"/>
					</g>
				</g>
				<g>
					
						<rect x="844.92" y="569.55" transform="matrix(0.9866 -0.163 0.163 0.9866 -82.4169 146.2161)" fill="none" width="9.77" height="11.58"/>
					<g>
						<polygon fill="#20925D" points="844.08,570.45 849.24,571.7 853.72,568.86 850.79,581.08 						"/>
					</g>
				</g>
				<g>
					
						<rect x="839.23" y="535.29" transform="matrix(0.9897 -0.143 0.143 0.9897 -68.7007 126.2722)" fill="none" width="9.77" height="11.58"/>
					<g>
						<polygon fill="#20925D" points="838.49,536.07 843.62,537.42 848.16,534.67 844.98,546.83 						"/>
					</g>
				</g>
				<g>
					
						<rect x="834.92" y="500.88" transform="matrix(0.9934 -0.115 0.115 0.9934 -52.6942 99.9356)" fill="none" width="9.77" height="11.58"/>
					<g>
						<polygon fill="#20925D" points="834.22,501.46 839.31,502.96 843.93,500.34 840.41,512.4 						"/>
					</g>
				</g>
				<g>
					
						<rect x="831.06" y="466.34" transform="matrix(0.9949 -0.1007 0.1007 0.9949 -43.2953 86.5806)" fill="none" width="9.77" height="11.58"/>
					<g>
						<polygon fill="#20925D" points="830.54,466.85 835.61,468.42 840.26,465.87 836.57,477.88 						"/>
					</g>
				</g>
				<g>
					
						<rect x="827.75" y="431.73" transform="matrix(0.996 -0.0895 0.0895 0.996 -35.8165 76.2758)" fill="none" width="9.77" height="11.58"/>
					<g>
						<polygon fill="#20925D" points="827.21,432.22 832.26,433.85 836.94,431.35 833.11,443.32 						"/>
					</g>
				</g>
				<g>
					
						<rect x="824.85" y="397.15" transform="matrix(0.9975 -0.0706 0.0706 0.9975 -26.3771 59.5847)" fill="none" width="9.77" height="11.58"/>
					<g>
						<polygon fill="#20925D" points="824.46,397.5 829.48,399.23 834.21,396.81 830.15,408.71 						"/>
					</g>
				</g>
				<g>
					
						<rect x="822.8" y="363.27" transform="matrix(9.549230e-03 -1 1 9.549230e-03 452.5433 1193.1976)" fill="none" width="11.58" height="9.77"/>
					<g>
						<polygon fill="#20925D" points="823.73,362.4 828.59,364.52 833.5,362.49 828.5,374.02 						"/>
					</g>
				</g>
				<g>
					
						<rect x="823.33" y="327.68" transform="matrix(0.9992 -0.0393 0.0393 0.9992 -12.4659 32.8073)" fill="none" width="9.77" height="11.58"/>
					<g>
						<polygon fill="#20925D" points="823.14,327.92 828.1,329.8 832.9,327.53 828.47,339.29 						"/>
					</g>
				</g>
				<g>
					
						<rect x="807.52" y="316.37" transform="matrix(0.9033 -0.429 0.429 0.9033 -59.1743 379.9739)" fill="none" width="11.58" height="9.77"/>
					<g>
						<polygon fill="#20925D" points="810.17,328.14 809.95,322.83 805.98,319.31 818.54,318.76 						"/>
					</g>
				</g>
				<g>
					
						<rect x="776.09" y="331.2" transform="matrix(0.9068 -0.4215 0.4215 0.9068 -68.8102 360.8859)" fill="none" width="11.58" height="9.77"/>
					<g>
						<polygon fill="#20925D" points="778.73,342.98 778.55,337.68 774.61,334.12 787.17,333.67 						"/>
					</g>
				</g>
				<g>
					
						<rect x="744.59" y="345.84" transform="matrix(0.9068 -0.4215 0.4215 0.9068 -77.9162 348.9726)" fill="none" width="11.58" height="9.77"/>
					<g>
						<polygon fill="#20925D" points="747.23,357.62 747.05,352.32 743.11,348.76 755.67,348.31 						"/>
					</g>
				</g>
				<g>
					
						<rect x="713.07" y="360.43" transform="matrix(0.9056 -0.4241 0.4241 0.9056 -87.0802 339.3532)" fill="none" width="11.58" height="9.77"/>
					<g>
						<polygon fill="#20925D" points="715.71,372.18 715.51,366.87 711.56,363.33 724.12,362.84 						"/>
					</g>
				</g>
				<g>
					
						<rect x="700.32" y="384.38" transform="matrix(0.9964 -0.0848 0.0848 0.9964 -30.5463 61.2068)" fill="none" width="9.77" height="11.58"/>
					<g>
						<polygon fill="#20925D" points="710.56,395.53 705.52,393.87 700.83,396.35 704.71,384.4 						"/>
					</g>
				</g>
				<g>
					
						<rect x="696.06" y="419.58" transform="matrix(0.2175 -0.9761 0.9761 0.2175 134.8987 1017.1994)" fill="none" width="11.58" height="9.77"/>
					<g>
						<polygon fill="#20925D" points="705.32,431.24 701,428.15 695.78,429.11 703.07,418.87 						"/>
					</g>
				</g>
				<g>
					
						<rect x="688.71" y="453.58" transform="matrix(0.2044 -0.9789 0.9789 0.2044 103.7577 1044.5897)" fill="none" width="11.58" height="9.77"/>
					<g>
						<polygon fill="#20925D" points="698.07,465.14 693.71,462.11 688.51,463.14 695.66,452.81 						"/>
					</g>
				</g>
				<g>
					
						<rect x="681.71" y="487.59" transform="matrix(0.1961 -0.9806 0.9806 0.1961 69.772 1070.052)" fill="none" width="11.58" height="9.77"/>
					<g>
						<polygon fill="#20925D" points="691.16,499.13 686.77,496.14 681.57,497.22 688.64,486.82 						"/>
					</g>
				</g>
			</g>
		</g>
	</g>
	<g id="labels">
		
			<text transform="matrix(0.887 -0.4617 0.4617 0.887 992.2185 225.4019)" fill="#2D2D2D" font-family="'Arial'" font-size="10.0003px">Charterhouse St</text>
		
			<text transform="matrix(0.8946 -0.4468 0.4468 0.8946 614.5754 414.3345)" fill="#2D2D2D" font-family="'Arial'" font-size="10.0006px">Charterhouse St</text>
		<g>
			
				<text transform="matrix(0.0923 0.9958 -0.9957 0.0923 839.9537 427.3395)" fill="#2D2D2D" font-family="'Arial'" font-size="11.9992px">Farringdon St</text>
		</g>
		<g>
			
				<text transform="matrix(0.1573 0.9876 -0.9876 0.1573 899.5861 834.9407)" fill="#2D2D2D" font-family="'Arial'" font-size="12.0012px">Farringdon St</text>
		</g>
		<g>
			
				<text transform="matrix(0.9085 0.418 -0.418 0.9085 694.019 611.788)" fill="#2D2D2D" font-family="'Arial'" font-size="12.0012px">Holborn Viaduct</text>
		</g>
		<g>
			
				<text transform="matrix(0.8765 0.4813 -0.4814 0.8765 972.0189 727.0572)" fill="#2D2D2D" font-family="'Arial'" font-size="12px" letter-spacing="30"> </text>
			
				<text transform="matrix(0.8765 0.4813 -0.4814 0.8765 1003.5736 744.3843)" fill="#2D2D2D" font-family="'Arial'" font-size="12px">A40</text>
		</g>
		<g>
			
				<text transform="matrix(0.8765 0.4813 -0.4814 0.8765 1068.0203 815.0579)" fill="#2D2D2D" font-family="'Arial'" font-size="12px" letter-spacing="30"> </text>
			
				<text transform="matrix(0.8765 0.4813 -0.4814 0.8765 1099.5732 832.3841)" fill="#2D2D2D" font-family="'Arial'" font-size="12px">A40</text>
		</g>
		<g>
			
				<text transform="matrix(0.8941 0.4478 -0.4478 0.8941 1324.4513 925.4712)" fill="#2D2D2D" font-family="'Arial'" font-size="12px">Holborn Viaduct</text>
		</g>
		<g>
			
				<text transform="matrix(0.9849 0.1725 -0.1725 0.985 269.5616 512.8867)" fill="#2D2D2D" font-family="'Arial'" font-size="12px" letter-spacing="30"> </text>
			
				<text transform="matrix(0.9849 0.1725 -0.1725 0.985 305.018 519.0966)" fill="#2D2D2D" font-family="'Arial'" font-size="12px">A40</text>
		</g>
		<g>
			
				<text transform="matrix(0.995 0.0991 -0.0992 0.9951 403.8152 565.4009)" fill="#2D2D2D" font-family="'Arial'" font-size="12.0008px" letter-spacing="30"> </text>
			
				<text transform="matrix(0.995 0.0991 -0.0992 0.9951 439.635 568.9685)" fill="#2D2D2D" font-family="'Arial'" font-size="12.0008px">A40</text>
		</g>
		<g>
			
				<text transform="matrix(-0.1919 0.9814 -0.9814 -0.1919 689.4849 505.0411)" fill="#2D2D2D" font-family="'Arial'" font-size="10px">Shoe Ln</text>
		</g>
		<g>
			
				<text transform="matrix(-0.296 0.9553 -0.9553 -0.2958 629.468 780.1732)" fill="#2D2D2D" font-family="'Arial'" font-size="10.0002px">Shoe Ln</text>
		</g>
		<g>
			
				<text transform="matrix(0.896 -0.4441 0.4442 0.8959 969.2581 520.114)" fill="#2D2D2D" font-family="'Arial'" font-size="10px">W Smithfield</text>
		</g>
		<g>
			
				<text transform="matrix(0.8844 0.4667 -0.4667 0.8844 989.3542 588.9366)" fill="#2D2D2D" font-family="'Arial'" font-size="10px">Snow Hill</text>
		</g>
		<g>
			
				<text transform="matrix(0.5921 0.8059 -0.8059 0.5921 1250.5083 746.0656)" fill="#2D2D2D" font-family="'Arial'" font-size="10px">Snow Hill</text>
		</g>
		<g>
			
				<text transform="matrix(0.9911 0.1331 -0.1331 0.9911 1401.484 681.5497)" fill="#2D2D2D" font-family="'Arial'" font-size="10px">Cock Ln</text>
		</g>
		<g>
			
				<text transform="matrix(0.996 0.0893 -0.0893 0.996 1255.4362 538.0135)" fill="#2D2D2D" font-family="'Arial'" font-size="10px">Hosier Ln</text>
		</g>
		<g>
			
				<text transform="matrix(0.9998 0.0222 -0.0222 0.9998 1451.0215 556.4885)" fill="#2D2D2D" font-family="'Arial'" font-size="10.001px">Hosier Ln</text>
		</g>
		<g>
			
				<text transform="matrix(0.2611 -0.9653 0.9653 0.2611 1536.8324 783.2494)" fill="#2D2D2D" font-family="'Arial'" font-size="12px">Giltspur St</text>
		</g>
		<path fill="none" d="M1510.5,254.5c0,0-49,137,53,170"/>
		
			<text transform="matrix(0.1619 0.9868 -0.9868 0.1619 1499.8916 345.002)" fill="#2D2D2D" font-family="'Arial'" font-size="10px">W</text>
		
			<text transform="matrix(0.2112 0.9774 -0.9774 0.2112 1501.546 354.5391)" fill="#2D2D2D" font-family="'Arial'" font-size="9.9992px"> </text>
		
			<text transform="matrix(0.2518 0.9677 -0.9678 0.2518 1502.1368 357.4547)" fill="#2D2D2D" font-family="'Arial'" font-size="10px">S</text>
		
			<text transform="matrix(0.3205 0.9472 -0.9472 0.3205 1503.8766 364.2315)" fill="#2D2D2D" font-family="'Arial'" font-size="9.999px">m</text>
		
			<text transform="matrix(0.3717 0.9283 -0.9283 0.3717 1506.7072 372.321)" fill="#2D2D2D" font-family="'Arial'" font-size="9.999px">i</text>
		
			<text transform="matrix(0.3967 0.9179 -0.9179 0.3967 1507.576 374.4923)" fill="#2D2D2D" font-family="'Arial'" font-size="9.9992px">t</text>
		
			<text transform="matrix(0.4396 0.8982 -0.8982 0.4396 1508.7427 377.2671)" fill="#2D2D2D" font-family="'Arial'" font-size="10px">h</text>
		
			<text transform="matrix(0.4829 0.8756 -0.8756 0.483 1511.3185 382.4397)" fill="#2D2D2D" font-family="'Arial'" font-size="10px">f</text>
		
			<text transform="matrix(0.5092 0.8606 -0.8606 0.5093 1512.7336 384.9937)" fill="#2D2D2D" font-family="'Arial'" font-size="10px">i</text>
		
			<text transform="matrix(0.55 0.8351 -0.8351 0.55 1513.9421 387.106)" fill="#2D2D2D" font-family="'Arial'" font-size="9.999px">e</text>
		
			<text transform="matrix(0.5907 0.8068 -0.8069 0.5907 1517.1689 391.9207)" fill="#2D2D2D" font-family="'Arial'" font-size="10px">l</text>
		
			<text transform="matrix(0.6306 0.776 -0.7761 0.6306 1518.5969 393.9332)" fill="#2D2D2D" font-family="'Arial'" font-size="10px">d</text>
		<path fill="none" d="M1741.5,323.5c0,0-15-59-45-85"/>
		
			<text transform="matrix(-0.3627 -0.9319 0.9319 -0.3627 1734.2842 300.9789)" fill="#2D2D2D" font-family="'Arial'" font-size="10px">W</text>
		
			<text transform="matrix(-0.3838 -0.9234 0.9234 -0.3838 1730.8477 292.2508)" fill="#2D2D2D" font-family="'Arial'" font-size="10px"> </text>
		
			<text transform="matrix(-0.4009 -0.916 0.9161 -0.401 1729.8074 289.6997)" fill="#2D2D2D" font-family="'Arial'" font-size="10px">S</text>
		
			<text transform="matrix(-0.4301 -0.9027 0.9028 -0.4301 1727.1682 283.6268)" fill="#2D2D2D" font-family="'Arial'" font-size="10px">m</text>
		
			<text transform="matrix(-0.4523 -0.8919 0.8919 -0.4523 1723.5679 276.1548)" fill="#2D2D2D" font-family="'Arial'" font-size="9.9994px">i</text>
		
			<text transform="matrix(-0.4633 -0.8861 0.8862 -0.4633 1722.5818 274.207)" fill="#2D2D2D" font-family="'Arial'" font-size="10px">t</text>
		
			<text transform="matrix(-0.4829 -0.8756 0.8756 -0.483 1721.3079 271.7365)" fill="#2D2D2D" font-family="'Arial'" font-size="10px">h</text>
		
			<text transform="matrix(-0.5045 -0.8633 0.8634 -0.5046 1718.549 266.7744)" fill="#2D2D2D" font-family="'Arial'" font-size="10.0008px">f</text>
		
			<text transform="matrix(-0.5181 -0.8552 0.8553 -0.5182 1717.1184 264.3257)" fill="#2D2D2D" font-family="'Arial'" font-size="10.0006px">i</text>
		
			<text transform="matrix(-0.5409 -0.841 0.841 -0.541 1715.9073 262.2895)" fill="#2D2D2D" font-family="'Arial'" font-size="10px">e</text>
		
			<text transform="matrix(-0.5654 -0.8248 0.8248 -0.5654 1712.8074 257.5145)" fill="#2D2D2D" font-family="'Arial'" font-size="10px">l</text>
		
			<text transform="matrix(-0.5917 -0.8061 0.8061 -0.5918 1711.4929 255.5503)" fill="#2D2D2D" font-family="'Arial'" font-size="10px">d</text>
		<g>
			
				<text transform="matrix(0.9235 -0.3835 0.3836 0.9235 1395.2771 302.5085)" fill="#2D2D2D" font-family="'Arial'" font-size="10px">W Smithfield</text>
		</g>
		<g>
			
				<text transform="matrix(0.1015 -0.9948 0.9948 0.1015 340.9661 766.3708)" fill="#2D2D2D" font-family="'Arial'" font-size="9.9984px">New Fetter Ln</text>
		</g>
		<g>
			
				<text transform="matrix(0.4777 0.8786 -0.8785 0.4778 515.0616 772.2057)" fill="#2D2D2D" font-family="'Arial'" font-size="9.9992px">St Andrews St</text>
		</g>
		<rect x="110.5" y="84.9" fill="#FFFFFF" stroke="#2D2D2D" stroke-width="2" stroke-miterlimit="10" width="232" height="121.1"/>
		<g>
			<circle fill="#008246" cx="157.6" cy="118.4" r="19.9"/>
			<polygon fill="#FFFFFF" points="167.7,114.6 167.7,132.3 165.2,134.8 145.5,134.8 147.9,132.7 147.9,114.7 143.6,114.7 
				157.6,102 171.5,114.6 			"/>
			<g id="exit_14_">
				<g>
					<g>
						<path fill="#008246" d="M161.6,131.8l-4.8-8.8c-0.1,1-0.4,2.8-0.5,3.6c-0.1,1.1-1.2,1.4-1.7,1.5l0,0H145l2.4-2.9h5.8l0.4-5.3
							l2.3-4.2h-2h-0.1c-0.1,0.1-0.3,0.4-0.4,0.6l-1.6,2.5c-0.2,0.4-0.6,0.6-1.1,0.6c-0.2,0-0.5-0.1-0.7-0.2
							c-0.6-0.4-0.8-1.1-0.4-1.7l1.6-2.5l0,0c0.5-0.7,0.9-1.1,1.2-1.3c0.5-0.3,1-0.3,1.3-0.3c0.1,0,0.1,0,0.2,0h3.8
							c0.4,0,0.8-0.1,1.1-0.1c2,0,2.9,0.6,3.2,1c0.1,0.1,0.2,0.2,0.3,0.3l2.2,2.9h3.4c0.7,0,1.3,0.6,1.3,1.3s-0.6,1.3-1.3,1.3h-4
							c-0.4,0-0.8-0.2-1-0.5l-1.7-2.3l-1.6,3.5l5.6,11.4L161.6,131.8z"/>
						<path fill="#FFFFFF" d="M158.8,113.3c1.9,0,2.7,0.6,3,1c0.1,0.1,0.2,0.1,0.3,0.2l2.3,3h3.5c0.5,0,1,0.4,1,1s-0.4,1-1,1h-4
							c-0.3,0-0.6-0.1-0.8-0.4l-2-2.6l-1.9,4.1l5.5,11.1l-3-0.1l-5.1-9.3c0,0-0.5,3.3-0.6,4.4c-0.1,1.2-1.5,1.2-1.5,1.2h-9l2-2.4h6
							l0.4-5.6l2.4-4.6l0,0h-2.5h-0.1h-0.1c-0.1,0.1-0.4,0.4-0.5,0.7l-1.6,2.5c-0.2,0.3-0.5,0.5-0.8,0.5c-0.2,0-0.4-0.1-0.5-0.2
							c-0.5-0.3-0.6-0.9-0.3-1.4l1.6-2.5l0,0c0.4-0.7,0.8-1.1,1.1-1.2c0.4-0.3,0.9-0.3,1.2-0.3c0.1,0,0.1,0,0.2,0h3.9
							C158.1,113.3,158.5,113.3,158.8,113.3 M158.8,112.8v0.5V112.8c-0.4,0-0.7,0-1.1,0.1h-3.8c-0.1,0-0.1,0-0.2,0
							c-0.4,0-0.9,0.1-1.4,0.4c-0.4,0.2-0.8,0.7-1.3,1.4c0,0,0,0,0,0.1l-1.6,2.5c-0.4,0.7-0.2,1.7,0.5,2.1c0.2,0.2,0.5,0.2,0.8,0.2
							c0.5,0,1-0.3,1.3-0.7l1.6-2.5c0.1-0.2,0.2-0.3,0.3-0.4l0,0h1.6l-2,3.8l-0.1,0.1v0.1l-0.3,5h-5.5h-0.3l-0.2,0.2l-2,2.4
							l-0.8,0.9h1.2h9l0,0l0,0c0,0,0.4,0,0.9-0.2c0.6-0.3,1-0.8,1.1-1.5c0.1-0.6,0.3-1.8,0.4-2.8l4.3,7.9l0.1,0.3h0.3l3,0.1h0.9
							l-0.4-0.8l-5.4-10.9l1.4-3l1.4,1.9c0.3,0.4,0.7,0.6,1.2,0.6h4c0.8,0,1.5-0.7,1.5-1.5s-0.7-1.5-1.5-1.5h-3.2l-2.1-2.8
							c-0.1-0.1-0.2-0.2-0.3-0.3c-0.3-0.3-0.6-0.5-1.1-0.7C160.5,112.9,159.7,112.8,158.8,112.8L158.8,112.8z"/>
					</g>
					<g>
						<path fill="#008246" d="M160.6,113.2c-1.4,0-2.6-1.2-2.6-2.6s1.2-2.6,2.6-2.6s2.6,1.2,2.6,2.6S162,113.2,160.6,113.2z"/>
						<path fill="#FFFFFF" d="M160.6,108.2c1.3,0,2.4,1.1,2.4,2.3s-1.1,2.3-2.4,2.3s-2.4-1.1-2.4-2.3S159.3,108.2,160.6,108.2
							 M160.6,107.7c-1.6,0-2.9,1.3-2.9,2.9s1.3,2.9,2.9,2.9c1.6,0,2.9-1.3,2.9-2.9S162.1,107.7,160.6,107.7L160.6,107.7z"/>
					</g>
				</g>
			</g>
		</g>
		<text transform="matrix(1 0 0 1 192.4901 125.5198)" fill="#2D2D2D" font-family="'Arial'" font-size="14px">EMERGENCY EXIT</text>
		<text transform="matrix(1 0 0 1 192.4903 176.9599)" fill="#2D2D2D" font-family="'Arial'" font-size="14px">ASSEMBLY POINT</text>
		<g>
			<g>
				<circle fill="#008246" cx="157.14" cy="170.25" r="19.24"/>
				<path fill="none" d="M157.14,151.5c10.35,0,18.75,8.4,18.75,18.75S167.49,189,157.14,189s-18.75-8.4-18.75-18.75l0,0
					c0-10.35,8.36-18.73,18.71-18.75C157.12,151.5,157.12,151.5,157.14,151.5 M157.14,150.35c-10.98,0-19.9,8.92-19.9,19.9
					s8.92,19.9,19.9,19.9s19.9-8.92,19.9-19.9C177.04,159.26,168.13,150.35,157.14,150.35z"/>
			</g>
			<g>
				<path fill="#FFFFFF" d="M154,165.11h-3.98c-1.47-0.16-2.81,0.9-2.97,2.37c0,0.04,0,0.08-0.02,0.12v4.82c0,0.56,0.44,0.99,1,0.99
					s0.99-0.44,0.99-0.99v-4.82c0-0.16,0.16-0.16,0.34-0.34v14.09c0,0.64,0.52,1.15,1.15,1.15c0.64,0,1.15-0.52,1.15-1.15v-7.12
					h0.84v7.12c0,0.64,0.52,1.15,1.15,1.15s1.15-0.52,1.15-1.15v-14.27c0.18,0.02,0.32,0.16,0.34,0.34v4.82
					c0.04,0.54,0.46,0.96,1,0.99c0.54,0.02,0.98-0.4,0.99-0.94c0-0.02,0-0.04,0-0.06v-4.82C156.88,165.93,155.49,164.91,154,165.11z
					"/>
				<circle fill="#FFFFFF" cx="151.83" cy="162.29" r="2.33"/>
				<path fill="#FFFFFF" d="M164.6,165.11h-3.98c-1.47-0.16-2.81,0.9-2.97,2.37c0,0.04,0,0.08-0.02,0.12v4.82
					c0.04,0.54,0.46,0.96,0.99,0.99c0.54,0.02,0.98-0.4,1-0.94c0-0.02,0-0.04,0-0.06v-4.82c0-0.16,0.16-0.16,0.34-0.34v14.09
					c0,0.64,0.52,1.15,1.15,1.15c0.64,0,1.15-0.52,1.15-1.15v-7.12h0.84v7.12c0,0.64,0.52,1.15,1.15,1.15s1.15-0.52,1.15-1.15
					v-14.27c0.18,0.02,0.32,0.16,0.34,0.34v4.82c0,0.56,0.44,0.99,1,0.99s0.99-0.44,0.99-0.99v-4.82
					C167.59,165.93,166.43,165.11,164.6,165.11z"/>
				<circle fill="#FFFFFF" cx="162.61" cy="162.29" r="2.33"/>
				<circle fill="#FFFFFF" cx="157.14" cy="160.14" r="2.33"/>
			</g>
		</g>
		<text transform="matrix(1 0 0 1 1568.7539 367)" fill="#2D2D2D" font-family="'Arial'" font-size="10px">Smithfield Rotunda</text>
		<text transform="matrix(1 0 0 1 1594.3239 379)" fill="#2D2D2D" font-family="'Arial'" font-size="10px">Garden</text>
		<g>
			<circle fill="#008246" cx="593.35" cy="440.65" r="7.65"/>
			<polygon fill="#FFFFFF" points="597.23,439.19 597.23,445.99 596.27,446.95 588.7,446.95 589.62,446.15 589.62,439.23 
				587.97,439.23 593.35,434.35 598.69,439.19 			"/>
			<g id="exit_4_">
				<g>
					<g>
						<path fill="#008246" d="M594.89,445.8l-1.85-3.38c-0.04,0.38-0.15,1.08-0.19,1.38c-0.04,0.42-0.46,0.54-0.65,0.58l0,0h-3.69
							l0.92-1.11h2.23l0.15-2.04l0.88-1.61h-0.77h-0.04c-0.04,0.04-0.12,0.15-0.15,0.23l-0.62,0.96c-0.08,0.15-0.23,0.23-0.42,0.23
							c-0.08,0-0.19-0.04-0.27-0.08c-0.23-0.15-0.31-0.42-0.15-0.65l0.62-0.96l0,0c0.19-0.27,0.35-0.42,0.46-0.5
							c0.19-0.12,0.38-0.12,0.5-0.12c0.04,0,0.04,0,0.08,0h1.46c0.15,0,0.31-0.04,0.42-0.04c0.77,0,1.11,0.23,1.23,0.38
							c0.04,0.04,0.08,0.08,0.12,0.12l0.85,1.11h1.31c0.27,0,0.5,0.23,0.5,0.5s-0.23,0.5-0.5,0.5h-1.54c-0.15,0-0.31-0.08-0.38-0.19
							l-0.65-0.88l-0.62,1.35l2.15,4.38L594.89,445.8z"/>
						<path fill="#FFFFFF" d="M593.81,438.69c0.73,0,1.04,0.23,1.15,0.38c0.04,0.04,0.08,0.04,0.12,0.08l0.88,1.15h1.35
							c0.19,0,0.38,0.15,0.38,0.38s-0.15,0.38-0.38,0.38h-1.54c-0.12,0-0.23-0.04-0.31-0.15l-0.77-1l-0.73,1.58l2.11,4.27
							l-1.15-0.04l-1.96-3.58c0,0-0.19,1.27-0.23,1.69c-0.04,0.46-0.58,0.46-0.58,0.46h-3.46l0.77-0.92h2.31l0.15-2.15l0.92-1.77
							l0,0h-0.96h-0.04h-0.04c-0.04,0.04-0.15,0.15-0.19,0.27l-0.62,0.96c-0.08,0.12-0.19,0.19-0.31,0.19
							c-0.08,0-0.15-0.04-0.19-0.08c-0.19-0.12-0.23-0.35-0.12-0.54l0.62-0.96l0,0c0.15-0.27,0.31-0.42,0.42-0.46
							c0.15-0.12,0.35-0.12,0.46-0.12c0.04,0,0.04,0,0.08,0h1.5C593.54,438.69,593.7,438.69,593.81,438.69 M593.81,438.5v0.19V438.5
							c-0.15,0-0.27,0-0.42,0.04h-1.46c-0.04,0-0.04,0-0.08,0c-0.15,0-0.35,0.04-0.54,0.15c-0.15,0.08-0.31,0.27-0.5,0.54
							c0,0,0,0,0,0.04l-0.62,0.96c-0.15,0.27-0.08,0.65,0.19,0.81c0.08,0.08,0.19,0.08,0.31,0.08c0.19,0,0.38-0.12,0.5-0.27
							l0.62-0.96c0.04-0.08,0.08-0.12,0.12-0.15l0,0h0.62l-0.77,1.46l-0.04,0.04v0.04l-0.12,1.92h-2.11h-0.12l-0.08,0.08l-0.77,0.92
							l-0.31,0.35h0.46h3.46l0,0l0,0c0,0,0.15,0,0.35-0.08c0.23-0.12,0.38-0.31,0.42-0.58c0.04-0.23,0.12-0.69,0.15-1.08l1.65,3.04
							l0.04,0.12h0.12l1.15,0.04h0.35l-0.15-0.31l-2.08-4.19l0.54-1.15l0.54,0.73c0.12,0.15,0.27,0.23,0.46,0.23h1.54
							c0.31,0,0.58-0.27,0.58-0.58s-0.27-0.58-0.58-0.58H596l-0.81-1.08c-0.04-0.04-0.08-0.08-0.12-0.12
							c-0.12-0.12-0.23-0.19-0.42-0.27C594.46,438.54,594.16,438.5,593.81,438.5L593.81,438.5z"/>
					</g>
					<g>
						<path fill="#008246" d="M594.5,438.65c-0.54,0-1-0.46-1-1s0.46-1,1-1s1,0.46,1,1S595.04,438.65,594.5,438.65z"/>
						<path fill="#FFFFFF" d="M594.5,436.73c0.5,0,0.92,0.42,0.92,0.88s-0.42,0.88-0.92,0.88s-0.92-0.42-0.92-0.88
							S594,436.73,594.5,436.73 M594.5,436.54c-0.62,0-1.11,0.5-1.11,1.11c0,0.62,0.5,1.11,1.11,1.11c0.62,0,1.11-0.5,1.11-1.11
							C595.62,437.04,595.08,436.54,594.5,436.54L594.5,436.54z"/>
					</g>
				</g>
			</g>
		</g>
		<g>
			<circle fill="#008246" cx="669.35" cy="492.65" r="7.65"/>
			<polygon fill="#FFFFFF" points="673.23,491.19 673.23,497.99 672.27,498.95 664.7,498.95 665.62,498.15 665.62,491.23 
				663.97,491.23 669.35,486.35 674.69,491.19 			"/>
			<g id="exit_1_">
				<g>
					<g>
						<path fill="#008246" d="M670.89,497.8l-1.85-3.38c-0.04,0.38-0.15,1.08-0.19,1.38c-0.04,0.42-0.46,0.54-0.65,0.58l0,0h-3.69
							l0.92-1.11h2.23l0.15-2.04l0.88-1.61h-0.77h-0.04c-0.04,0.04-0.12,0.15-0.15,0.23l-0.62,0.96c-0.08,0.15-0.23,0.23-0.42,0.23
							c-0.08,0-0.19-0.04-0.27-0.08c-0.23-0.15-0.31-0.42-0.15-0.65l0.62-0.96l0,0c0.19-0.27,0.35-0.42,0.46-0.5
							c0.19-0.12,0.38-0.12,0.5-0.12c0.04,0,0.04,0,0.08,0h1.46c0.15,0,0.31-0.04,0.42-0.04c0.77,0,1.11,0.23,1.23,0.38
							c0.04,0.04,0.08,0.08,0.12,0.12l0.85,1.11h1.31c0.27,0,0.5,0.23,0.5,0.5s-0.23,0.5-0.5,0.5h-1.54c-0.15,0-0.31-0.08-0.38-0.19
							l-0.65-0.88l-0.62,1.35l2.15,4.38L670.89,497.8z"/>
						<path fill="#FFFFFF" d="M669.81,490.69c0.73,0,1.04,0.23,1.15,0.38c0.04,0.04,0.08,0.04,0.12,0.08l0.88,1.15h1.35
							c0.19,0,0.38,0.15,0.38,0.38s-0.15,0.38-0.38,0.38h-1.54c-0.12,0-0.23-0.04-0.31-0.15l-0.77-1l-0.73,1.58l2.11,4.27
							l-1.15-0.04l-1.96-3.58c0,0-0.19,1.27-0.23,1.69c-0.04,0.46-0.58,0.46-0.58,0.46h-3.46l0.77-0.92h2.31l0.15-2.15l0.92-1.77
							l0,0h-0.96h-0.04h-0.04c-0.04,0.04-0.15,0.15-0.19,0.27l-0.62,0.96c-0.08,0.12-0.19,0.19-0.31,0.19
							c-0.08,0-0.15-0.04-0.19-0.08c-0.19-0.12-0.23-0.35-0.12-0.54l0.62-0.96l0,0c0.15-0.27,0.31-0.42,0.42-0.46
							c0.15-0.12,0.35-0.12,0.46-0.12c0.04,0,0.04,0,0.08,0h1.5C669.54,490.69,669.7,490.69,669.81,490.69 M669.81,490.5v0.19V490.5
							c-0.15,0-0.27,0-0.42,0.04h-1.46c-0.04,0-0.04,0-0.08,0c-0.15,0-0.35,0.04-0.54,0.15c-0.15,0.08-0.31,0.27-0.5,0.54
							c0,0,0,0,0,0.04l-0.62,0.96c-0.15,0.27-0.08,0.65,0.19,0.81c0.08,0.08,0.19,0.08,0.31,0.08c0.19,0,0.38-0.12,0.5-0.27
							l0.62-0.96c0.04-0.08,0.08-0.12,0.12-0.15l0,0h0.62l-0.77,1.46l-0.04,0.04v0.04l-0.12,1.92h-2.11h-0.12l-0.08,0.08l-0.77,0.92
							l-0.31,0.35h0.46h3.46l0,0l0,0c0,0,0.15,0,0.35-0.08c0.23-0.12,0.38-0.31,0.42-0.58c0.04-0.23,0.12-0.69,0.15-1.08l1.65,3.04
							l0.04,0.12h0.12l1.15,0.04h0.35l-0.15-0.31l-2.08-4.19l0.54-1.15l0.54,0.73c0.12,0.15,0.27,0.23,0.46,0.23h1.54
							c0.31,0,0.58-0.27,0.58-0.58s-0.27-0.58-0.58-0.58H672l-0.81-1.08c-0.04-0.04-0.08-0.08-0.12-0.12
							c-0.12-0.12-0.23-0.19-0.42-0.27C670.46,490.54,670.16,490.5,669.81,490.5L669.81,490.5z"/>
					</g>
					<g>
						<path fill="#008246" d="M670.5,490.65c-0.54,0-1-0.46-1-1s0.46-1,1-1s1,0.46,1,1S671.04,490.65,670.5,490.65z"/>
						<path fill="#FFFFFF" d="M670.5,488.73c0.5,0,0.92,0.42,0.92,0.88s-0.42,0.88-0.92,0.88s-0.92-0.42-0.92-0.88
							S670,488.73,670.5,488.73 M670.5,488.54c-0.62,0-1.11,0.5-1.11,1.11c0,0.62,0.5,1.11,1.11,1.11c0.62,0,1.11-0.5,1.11-1.11
							C671.62,489.04,671.08,488.54,670.5,488.54L670.5,488.54z"/>
					</g>
				</g>
			</g>
		</g>
		<g>
			<g>
				<circle fill="#008246" cx="1610.14" cy="325.25" r="10.94"/>
				<path fill="none" d="M1610.14,314.59c5.88,0,10.65,4.77,10.65,10.65s-4.77,10.65-10.65,10.65s-10.65-4.77-10.65-10.65l0,0
					c0-5.88,4.75-10.64,10.63-10.65C1610.13,314.59,1610.13,314.59,1610.14,314.59 M1610.14,313.93c-6.24,0-11.31,5.07-11.31,11.31
					s5.07,11.31,11.31,11.31s11.31-5.07,11.31-11.31C1621.45,319,1616.39,313.93,1610.14,313.93z"/>
			</g>
			<g>
				<path fill="#FFFFFF" d="M1608.35,322.33h-2.26c-0.84-0.09-1.59,0.51-1.69,1.35c0,0.02,0,0.05-0.01,0.07v2.74
					c0,0.32,0.25,0.57,0.57,0.57s0.57-0.25,0.57-0.57v-2.74c0-0.09,0.09-0.09,0.19-0.19v8.01c0,0.36,0.29,0.66,0.66,0.66
					c0.36,0,0.66-0.29,0.66-0.66v-4.05h0.48v4.05c0,0.36,0.29,0.66,0.66,0.66c0.36,0,0.66-0.29,0.66-0.66v-8.11
					c0.1,0.01,0.18,0.09,0.19,0.19v2.74c0.02,0.31,0.26,0.54,0.57,0.57c0.31,0.01,0.55-0.23,0.57-0.53c0-0.01,0-0.02,0-0.03v-2.74
					C1609.99,322.79,1609.2,322.21,1608.35,322.33z"/>
				<circle fill="#FFFFFF" cx="1607.12" cy="320.72" r="1.32"/>
				<path fill="#FFFFFF" d="M1614.38,322.33h-2.26c-0.84-0.09-1.59,0.51-1.69,1.35c0,0.02,0,0.05-0.01,0.07v2.74
					c0.02,0.31,0.26,0.54,0.57,0.57c0.31,0.01,0.55-0.23,0.57-0.53c0-0.01,0-0.02,0-0.03v-2.74c0-0.09,0.09-0.09,0.19-0.19v8.01
					c0,0.36,0.29,0.66,0.66,0.66c0.36,0,0.66-0.29,0.66-0.66v-4.05h0.48v4.05c0,0.36,0.29,0.66,0.66,0.66
					c0.36,0,0.66-0.29,0.66-0.66v-8.11c0.1,0.01,0.18,0.09,0.19,0.19v2.74c0,0.32,0.25,0.57,0.57,0.57s0.57-0.25,0.57-0.57v-2.74
					C1616.08,322.79,1615.42,322.33,1614.38,322.33z"/>
				<circle fill="#FFFFFF" cx="1613.25" cy="320.72" r="1.32"/>
				<circle fill="#FFFFFF" cx="1610.14" cy="319.5" r="1.32"/>
			</g>
		</g>
		<text transform="matrix(1 0 0 1 598.998 492)" fill="#2D2D2D"  font-family="'Arial'" font-weight="bold" font-size="18px">HRE</text>
	</g>
</g>
</svg>
