<svg id="base" xmlns="http://www.w3.org/2000/svg" viewBox="0 0 1920 1080"><g id="walls_1"><polyline points="1856.99 431.58 1860.29 438.18 1856.99 445.61 1860.29 452.3 1856.99 458.9" fill="none" stroke="#666" stroke-miterlimit="10" stroke-width="0.99" stroke-dasharray="1.98"/><polyline points="1856.99 464.75 1860.29 471.35 1856.99 478.78 1860.29 485.47 1856.99 492.07" fill="none" stroke="#666" stroke-miterlimit="10" stroke-width="0.99" stroke-dasharray="1.98"/><polyline points="1856.99 512.59 1860.29 519.19 1856.99 526.61 1860.29 533.3 1856.99 539.9" fill="none" stroke="#666" stroke-miterlimit="10" stroke-width="0.99" stroke-dasharray="1.98"/><polyline points="1856.99 547.08 1860.29 553.68 1856.99 561.1 1860.29 567.79 1856.99 574.39" fill="none" stroke="#666" stroke-miterlimit="10" stroke-width="0.99" stroke-dasharray="1.98"/><polyline points="1856.99 396.91 1860.29 403.51 1856.99 410.93 1860.29 417.62 1856.99 424.22" fill="none" stroke="#666" stroke-miterlimit="10" stroke-width="0.99" stroke-dasharray="1.98"/><polyline points="1856.99 361.89 1860.29 368.49 1856.99 375.92 1860.29 382.61 1856.99 389.21" fill="none" stroke="#666" stroke-miterlimit="10" stroke-width="0.99" stroke-dasharray="1.98"/><polyline points="78.4 431.58 75.1 438.18 78.4 445.61 75.1 452.3 78.4 458.9" fill="none" stroke="#666" stroke-miterlimit="10" stroke-width="0.99" stroke-dasharray="1.98"/><polyline points="78.4 464.75 75.1 471.35 78.4 478.78 75.1 485.47 78.4 492.07" fill="none" stroke="#666" stroke-miterlimit="10" stroke-width="0.99" stroke-dasharray="1.98"/><polyline points="78.4 512.59 75.1 519.19 78.4 526.61 75.1 533.3 78.4 539.9" fill="none" stroke="#666" stroke-miterlimit="10" stroke-width="0.99" stroke-dasharray="1.98"/><polyline points="78.4 547.08 75.1 553.68 78.4 561.1 75.1 567.79 78.4 574.39" fill="none" stroke="#666" stroke-miterlimit="10" stroke-width="0.99" stroke-dasharray="1.98"/><polyline points="226.91 396.91 223.61 403.51 226.91 410.93 223.61 417.62 226.91 424.22" fill="none" stroke="#666" stroke-miterlimit="10" stroke-width="0.99" stroke-dasharray="1.98"/><polyline points="226.91 361.89 223.61 368.49 226.91 375.92 223.61 382.61 226.91 389.21" fill="none" stroke="#666" stroke-miterlimit="10" stroke-width="0.99" stroke-dasharray="1.98"/><polyline points="443.39 591.01 443.39 587.82 1070.27 587.82 1274.52 587.82 1359.41 587.82 1359.41 783.01 1167.8 783.01 1167.8 813.66 934.99 813.66 854.06 813.66 854.06 783.52 671.13 783.01 443.39 783.01 443.39 684.9" fill="none" stroke="#2d2d2d" stroke-miterlimit="10" stroke-width="2.97"/><polyline points="1857.35 573.86 1857.35 640.35 1672.12 640.45 1672.12 587.82 1359.41 587.82" fill="none" stroke="#2d2d2d" stroke-miterlimit="10" stroke-width="2.97"/><line x1="1857.35" y1="539.36" x2="1857.35" y2="546.39" fill="none" stroke="#2d2d2d" stroke-miterlimit="10" stroke-width="2.97"/><line x1="1857.35" y1="492.62" x2="1857.35" y2="511.87" fill="none" stroke="#2d2d2d" stroke-miterlimit="10" stroke-width="2.97"/><line x1="1857.35" y1="457.37" x2="1857.35" y2="465.04" fill="none" stroke="#2d2d2d" stroke-miterlimit="10" stroke-width="2.97"/><line x1="1857.35" y1="389.45" x2="1857.35" y2="396.91" fill="none" stroke="#2d2d2d" stroke-miterlimit="10" stroke-width="1.65"/><polyline points="226.91 362.01 226.91 355.84 949.61 355.84 949.61 324.35 1037.7 324.35 1037.7 355.02 1460.2 355.02 1460.2 326.58 1536.71 326.58 1536.71 301.42 1721.68 301.42 1721.68 327.19 1838.19 327.19 1838.19 330.29 1857.65 330.29 1857.65 362.67" fill="none" stroke="#2d2d2d" stroke-miterlimit="10" stroke-width="2.97"/><line x1="226.91" y1="396.91" x2="226.91" y2="389.45" fill="none" stroke="#2d2d2d" stroke-miterlimit="10" stroke-width="2.97"/><polyline points="226.91 423.73 226.91 430.44 78.4 430.44 78.4 432.41" fill="none" stroke="#2d2d2d" stroke-miterlimit="10" stroke-width="2.97"/><line x1="78.4" y1="465.04" x2="78.4" y2="457.37" fill="none" stroke="#2d2d2d" stroke-miterlimit="10" stroke-width="2.97"/><line x1="78.4" y1="511.87" x2="78.4" y2="492.62" fill="none" stroke="#2d2d2d" stroke-miterlimit="10" stroke-width="2.97"/><line x1="78.4" y1="546.39" x2="78.4" y2="539.36" fill="none" stroke="#2d2d2d" stroke-miterlimit="10" stroke-width="2.97"/><polyline points="442.73 587.82 78.4 587.82 78.4 573.96" fill="none" stroke="#2d2d2d" stroke-miterlimit="10" stroke-width="2.97"/><line x1="1857.35" y1="430.44" x2="1857.35" y2="423.73" fill="none" stroke="#2d2d2d" stroke-miterlimit="10" stroke-width="2.97"/><path d="M80,499.18c10.14-.72,1763.78,0,1763.78,0" fill="none" stroke="#2d2d2d" stroke-miterlimit="10" stroke-width="1.65"/><polyline points="671.13 783.29 671.13 702.78 1005.82 702.78 1005.82 721.5 1016.61 721.5 1016.61 742.64 1052.83 742.64 1052.83 733.38 1170.86 733.38 1170.86 783.29" fill="none" stroke="#2d2d2d" stroke-miterlimit="10" stroke-width="1.65"/><line x1="443.39" y1="624.35" x2="443.39" y2="615.79" fill="none" stroke="#2d2d2d" stroke-miterlimit="10" stroke-width="2.97"/><line x1="443.39" y1="660.37" x2="443.39" y2="648.75" fill="none" stroke="#2d2d2d" stroke-miterlimit="10" stroke-width="2.97"/><polyline points="1553.7 707.32 1575.36 707.32 1575.36 689.12 1412.68 689.12 1412.68 707.32 1419 707.32" fill="none" stroke="#2d2d2d" stroke-miterlimit="10" stroke-width="1.65"/><line x1="1525.35" y1="707.32" x2="1532.24" y2="707.32" fill="none" stroke="#2d2d2d" stroke-miterlimit="10" stroke-width="1.65"/><line x1="1496.99" y1="707.32" x2="1503.69" y2="707.32" fill="none" stroke="#2d2d2d" stroke-miterlimit="10" stroke-width="1.65"/><line x1="1468.25" y1="707.32" x2="1475.33" y2="707.32" fill="none" stroke="#2d2d2d" stroke-miterlimit="10" stroke-width="1.65"/><line x1="1440.27" y1="707.32" x2="1446.98" y2="707.32" fill="none" stroke="#2d2d2d" stroke-miterlimit="10" stroke-width="1.65"/><line x1="1532.24" y1="707.15" x2="1553.7" y2="707.15" fill="none" stroke="#2d2d2d" stroke-miterlimit="10" stroke-width="0.66" stroke-dasharray="0.66"/><line x1="1503.69" y1="707.15" x2="1525.35" y2="707.15" fill="none" stroke="#2d2d2d" stroke-miterlimit="10" stroke-width="0.66" stroke-dasharray="0.66"/><line x1="1475.33" y1="707.15" x2="1496.99" y2="707.15" fill="none" stroke="#2d2d2d" stroke-miterlimit="10" stroke-width="0.66" stroke-dasharray="0.66"/><line x1="1446.98" y1="707.15" x2="1468.25" y2="707.15" fill="none" stroke="#2d2d2d" stroke-miterlimit="10" stroke-width="0.66" stroke-dasharray="0.66"/><line x1="1419" y1="707.15" x2="1440.27" y2="707.15" fill="none" stroke="#2d2d2d" stroke-miterlimit="10" stroke-width="0.66" stroke-dasharray="0.66"/><line x1="1528.79" y1="689.12" x2="1528.79" y2="707.48" fill="none" stroke="#2d2d2d" stroke-miterlimit="10" stroke-width="0.66"/><line x1="1553.7" y1="689.12" x2="1553.7" y2="700.74" fill="none" stroke="#2d2d2d" stroke-miterlimit="10" stroke-width="0.66"/></g><g id="colour_hidden"><g opacity="0.1"><polygon points="859.01 808.71 859.01 778.06 448.34 778.06 448.34 582.87 83.35 582.87 83.35 435.39 231.86 435.39 231.86 360.79 954.56 360.79 954.56 329.3 1032.75 329.3 1032.75 359.97 1465.15 359.97 1465.15 331.53 1530.93 331.53 1530.93 360.34 1727.83 360.34 1727.83 332.14 1833.23 332.14 1833.23 335.24 1852.37 335.24 1852.37 583.01 1674.41 582.87 1354.46 582.87 1354.46 778.06 1162.85 778.06 1162.85 808.71 859.01 808.71"/><path d="M1027.8,334.25v30.67h442.3V336.48H1526v28.81h206.8v-28.2h95.51v3.1h19.12V578.05l-173-.13H1349.51V773.11H1157.9v30.65H864V773.11H453.29V577.92H88.3V440.34H236.81v-74.6h722.7V334.25h68.29m9.9-9.9H949.61v31.49H226.91v74.6H78.4V587.82h365V783H854.06v30.65H1167.8V783h191.61V587.82h315l182.91.14V330.29h-19.12v-3.1H1722.88v28.2h-187V326.58H1460.2V355H1037.7V324.35Z" fill="#fff"/></g></g><g id="_2nd_colour" data-name="2nd colour"><rect x="1537.7" y="339.06" width="39.63" height="14.36" fill="#efbfbf"/><path d="M1576.17,340.21v12.05h-37.32V340.21h37.32m2.31-2.31h-41.94v16.67h41.94V337.9Z" fill="#fff"/><rect x="1579.63" y="338.73" width="27.35" height="14.69" fill="#efbfbf"/><path d="M1605.83,339.88v12.38h-25V339.88h25m2.31-2.31h-29.66v17h29.66v-17Z" fill="#fff"/><rect x="1608.96" y="338.4" width="8.55" height="15.34" fill="#efbfbf"/><path d="M1616.69,339.22v13.7h-6.9v-13.7h6.9m1.65-1.65h-10.2v17h10.2v-17Z" fill="#fff"/><rect x="1619.17" y="338.4" width="11.38" height="15.34" fill="#efbfbf"/><path d="M1629.72,339.22v13.7H1620v-13.7h9.73m1.65-1.65h-13v17h13v-17Z" fill="#fff"/><rect x="1555.69" y="303.15" width="42.92" height="26.37" fill="#efbfbf"/><path d="M1597.45,304.3v24.06h-40.61V304.3h40.61m2.31-2.31h-45.23v28.68h45.23V302Z" fill="#fff"/><rect x="1600.92" y="303.15" width="19.68" height="19.63" fill="#efbfbf"/><path d="M1619.44,304.3v17.32h-17.37V304.3h17.37m2.31-2.31h-22v21.94h22V302Z" fill="#fff"/><rect x="1600.59" y="324.76" width="9.01" height="5.09" fill="#efbfbf"/><path d="M1608.77,325.58V329h-7.36v-3.44h7.36m1.65-1.65h-10.66v6.74h10.66v-6.74Z" fill="#fff"/><rect x="1611.25" y="324.76" width="9.83" height="5.09" fill="#efbfbf"/><path d="M1620.25,325.58V329h-8.18v-3.44h8.18m1.65-1.65h-11.48v6.74h11.48v-6.74Z" fill="#fff"/><rect x="1623.05" y="303.15" width="6.98" height="26.37" fill="#efbfbf"/><path d="M1628.88,304.3v24.06h-4.67V304.3h4.67m2.31-2.31h-9.29v28.68h9.29V302Z" fill="#fff"/><polygon points="1632.4 322.57 1632.4 303.15 1644.85 303.15 1644.85 322.76 1632.4 322.57" fill="#efbfbf"/><path d="M1643.69,304.3v17.29l-10.14-.16V304.3h10.14M1646,302h-14.76v21.72l14.76.22V302Z" fill="#fff"/><rect x="1647.16" y="303.17" width="21.96" height="19.61" fill="#efbfbf"/><path d="M1668,304.33v17.29h-19.65V304.33H1668m2.31-2.31H1646v21.91h24.27V302Z" fill="#fff"/><polygon points="1671.42 322.78 1671.42 303.17 1718.87 303.17 1718.87 314.86 1710.26 314.86 1710.26 322.78 1671.42 322.78" fill="#efbfbf"/><path d="M1717.71,304.33v9.37h-8.6v7.92h-36.53V304.33h45.13M1720,302h-49.75v21.91h41.15V316h8.6V302Z" fill="#fff"/><rect x="1638.07" y="331.83" width="80.81" height="21.75" fill="#efbfbf"/><path d="M1717.72,333v19.44h-78.5V333h78.5m2.31-2.31h-83.12v24.06H1720V330.67Z" fill="#fff"/><rect x="1674.61" y="618.81" width="15.27" height="18.88" fill="#efbfbf"/><path d="M1688.73,620v16.59h-13V620h13m2.3-2.3h-17.57v21.19H1691V617.66Z" fill="#fff"/><polygon points="1692.18 637.7 1692.18 618.81 1715.87 618.81 1715.87 611.34 1723.85 611.34 1723.85 589.61 1790.95 589.61 1790.95 637.7 1692.18 637.7" fill="#efbfbf"/><path d="M1789.8,590.76v45.79h-96.47V620H1717v-7.47h8V590.76h64.8m2.3-2.3h-69.4v21.73h-8v7.47H1691v21.19H1792.1V588.46Z" fill="#fff"/><rect x="1793.44" y="589.44" width="23.94" height="10.97" fill="#efbfbf"/><path d="M1816.23,590.59v8.68h-21.64v-8.68h21.64m2.3-2.3h-26.24v13.28h26.24V588.29Z" fill="#fff"/><rect x="1811.86" y="610.57" width="16.17" height="27.12" fill="#efbfbf"/><path d="M1826.87,611.72v24.83H1813V611.72h13.86m2.31-2.3h-18.47v29.43h18.47V609.42Z" fill="#fff"/><polygon points="1830.33 637.7 1830.33 608.27 1819.76 608.27 1819.68 589.75 1854.64 589.75 1854.64 637.7 1830.33 637.7" fill="#efbfbf"/><path d="M1853.49,590.9v45.65h-22V607.12h-10.57l-.07-16.22h32.65m2.3-2.3h-37.26l.08,20.82h10.57v29.43h26.61V588.6Z" fill="#fff"/><polygon points="1700.49 609.2 1700.49 603.51 1704.11 603.51 1704.11 589.28 1721.72 589.28 1721.72 609.2 1700.49 609.2" fill="#efbfbf"/><path d="M1720.73,590.27v18h-19.25V604.5h3.61V590.27h15.64m2-2h-19.58v14.24h-3.61v7.66h23.19v-21.9Z" fill="#fff"/><rect x="1692.13" y="589.44" width="10.01" height="12.1" fill="#efbfbf"/><path d="M1701.15,590.43v10.12h-8V590.43h8m2-2h-12v14.07h12V588.46Z" fill="#fff"/></g><g id="_2nd_walls_1" data-name="2nd walls 1"><polyline points="1720.85 315.54 1732.35 315.54 1732.35 300.78 1535.06 300.78" fill="none" stroke="#2d2d2d" stroke-miterlimit="10" stroke-width="2.97"/><polyline points="1720.85 323.2 1720.85 355.39 1535.88 355.39 1535.88 300.78" fill="none" stroke="#2d2d2d" stroke-miterlimit="10" stroke-width="1.65"/><polyline points="1554.53 300.78 1554.53 330.67 1720.85 330.67" fill="none" stroke="#2d2d2d" stroke-miterlimit="10" stroke-width="0.66"/><polyline points="1535.88 337.57 1631.37 337.57 1631.37 355.39" fill="none" stroke="#2d2d2d" stroke-miterlimit="10" stroke-width="0.66"/><line x1="1578.48" y1="355.39" x2="1578.48" y2="337.57" fill="none" stroke="#2d2d2d" stroke-miterlimit="10" stroke-width="0.66"/><line x1="1608.14" y1="355.39" x2="1608.14" y2="337.57" fill="none" stroke="#2d2d2d" stroke-miterlimit="10" stroke-width="0.66"/><line x1="1618.34" y1="355.39" x2="1618.34" y2="337.57" fill="none" stroke="#2d2d2d" stroke-miterlimit="10" stroke-width="0.66"/><line x1="1599.76" y1="330.67" x2="1599.76" y2="300.78" fill="none" stroke="#2d2d2d" stroke-miterlimit="10" stroke-width="0.66"/><line x1="1599.76" y1="323.93" x2="1621.75" y2="323.93" fill="none" stroke="#2d2d2d" stroke-miterlimit="10" stroke-width="0.66"/><line x1="1610.34" y1="330.67" x2="1610.34" y2="323.93" fill="none" stroke="#2d2d2d" stroke-miterlimit="10" stroke-width="0.66"/><line x1="1621.9" y1="330.67" x2="1621.9" y2="300.78" fill="none" stroke="#2d2d2d" stroke-miterlimit="10" stroke-width="0.66"/><line x1="1610.97" y1="318.22" x2="1621.75" y2="318.22" fill="none" stroke="#2d2d2d" stroke-miterlimit="10" stroke-width="0.66"/><line x1="1610.97" y1="306.68" x2="1621.75" y2="306.68" fill="none" stroke="#2d2d2d" stroke-miterlimit="10" stroke-width="0.66"/><line x1="1610.97" y1="312.5" x2="1621.75" y2="312.5" fill="none" stroke="#2d2d2d" stroke-miterlimit="10" stroke-width="0.66"/><line x1="1631.19" y1="330.67" x2="1631.19" y2="301.36" fill="none" stroke="#2d2d2d" stroke-miterlimit="10" stroke-width="0.66"/><polyline points="1631.18 323.93 1711.42 323.93 1711.42 316.01 1720.85 316.01" fill="none" stroke="#2d2d2d" stroke-miterlimit="10" stroke-width="0.66"/><line x1="1646" y1="323.93" x2="1646" y2="301.36" fill="none" stroke="#2d2d2d" stroke-miterlimit="10" stroke-width="0.66"/><line x1="1670.27" y1="323.93" x2="1670.27" y2="301.36" fill="none" stroke="#2d2d2d" stroke-miterlimit="10" stroke-width="0.66"/><line x1="1720.85" y1="300.78" x2="1720.85" y2="315.7" fill="none" stroke="#2d2d2d" stroke-miterlimit="10" stroke-width="1.65"/><line x1="1636.91" y1="355.39" x2="1636.91" y2="330.67" fill="none" stroke="#2d2d2d" stroke-miterlimit="10" stroke-width="0.66"/><line x1="1670.27" y1="355.39" x2="1670.27" y2="330.67" fill="none" stroke="#2d2d2d" stroke-miterlimit="10" stroke-width="0.66" stroke-dasharray="1.98"/><line x1="1720.39" y1="323.38" x2="1720.39" y2="315.71" fill="none" stroke="#2d2d2d" stroke-miterlimit="10" stroke-width="0.66"/><line x1="1554.53" y1="330.5" x2="1554.53" y2="337.89" fill="none" stroke="#2d2d2d" stroke-miterlimit="10" stroke-width="0.66"/><polyline points="1672.12 587.14 1672.12 640.47 1857.32 640.47 1857.32 587.14" fill="none" stroke="#2d2d2d" stroke-miterlimit="10" stroke-width="2.96"/><line x1="1672.12" y1="587.96" x2="1857.32" y2="587.96" fill="none" stroke="#2d2d2d" stroke-miterlimit="10" stroke-width="1.64"/><line x1="1691.14" y1="587.96" x2="1691.14" y2="640.46" fill="none" stroke="#2d2d2d" stroke-miterlimit="10" stroke-width="0.66"/><polyline points="1672.12 617.66 1714.72 617.66 1714.72 610.19" fill="none" stroke="#2d2d2d" stroke-miterlimit="10" stroke-width="0.66"/><polyline points="1691.14 602.52 1703.12 602.52 1703.12 587.96" fill="none" stroke="#2d2d2d" stroke-miterlimit="10" stroke-width="0.66"/><polyline points="1699.51 602.52 1699.51 610.19 1722.7 610.19 1722.7 587.96" fill="none" stroke="#2d2d2d" stroke-miterlimit="10" stroke-width="0.66"/><line x1="1792.24" y1="587.96" x2="1792.24" y2="640.46" fill="none" stroke="#2d2d2d" stroke-miterlimit="10" stroke-width="0.66"/><line x1="1792.24" y1="601.57" x2="1818.53" y2="601.57" fill="none" stroke="#2d2d2d" stroke-miterlimit="10" stroke-width="0.66"/><line x1="1818.53" y1="587.96" x2="1818.53" y2="610.19" fill="none" stroke="#2d2d2d" stroke-miterlimit="10" stroke-width="0.66"/><polyline points="1829.18 640.47 1829.18 609.42 1792.24 609.42" fill="none" stroke="#2d2d2d" stroke-miterlimit="10" stroke-width="0.66"/><line x1="1810.71" y1="609.42" x2="1810.71" y2="640.46" fill="none" stroke="#2d2d2d" stroke-miterlimit="10" stroke-width="0.66"/><line x1="1712.87" y1="587.96" x2="1712.87" y2="600.23" fill="none" stroke="#2d2d2d" stroke-miterlimit="10" stroke-width="0.66"/><line x1="1717.76" y1="587.96" x2="1717.76" y2="600.23" fill="none" stroke="#2d2d2d" stroke-miterlimit="10" stroke-width="0.66"/></g><g id="_2nd_area" data-name="2nd area"><polygon points="1674.4 611.11 1681.46 611.11 1681.46 595.07 1681.46 589.26 1674.4 589.26 1674.4 611.11" fill="#ddd" stroke="#878787" stroke-miterlimit="10" stroke-width="0.16"/><line x1="1674.4" y1="594.95" x2="1681.46" y2="594.95" fill="none" stroke="#878787" stroke-miterlimit="10" stroke-width="0.16"/><line x1="1674.4" y1="596.4" x2="1681.46" y2="596.4" fill="none" stroke="#878787" stroke-miterlimit="10" stroke-width="0.16"/><line x1="1674.4" y1="597.86" x2="1681.46" y2="597.86" fill="none" stroke="#878787" stroke-miterlimit="10" stroke-width="0.16"/><line x1="1674.4" y1="599.31" x2="1681.46" y2="599.31" fill="none" stroke="#878787" stroke-miterlimit="10" stroke-width="0.16"/><line x1="1674.4" y1="600.77" x2="1681.46" y2="600.77" fill="none" stroke="#878787" stroke-miterlimit="10" stroke-width="0.16"/><line x1="1674.4" y1="602.23" x2="1681.46" y2="602.23" fill="none" stroke="#878787" stroke-miterlimit="10" stroke-width="0.16"/><line x1="1674.4" y1="603.68" x2="1681.46" y2="603.68" fill="none" stroke="#878787" stroke-miterlimit="10" stroke-width="0.16"/><line x1="1674.4" y1="605.14" x2="1681.46" y2="605.14" fill="none" stroke="#878787" stroke-miterlimit="10" stroke-width="0.16"/><line x1="1674.4" y1="606.6" x2="1681.46" y2="606.6" fill="none" stroke="#878787" stroke-miterlimit="10" stroke-width="0.16"/><line x1="1674.4" y1="608.05" x2="1681.46" y2="608.05" fill="none" stroke="#878787" stroke-miterlimit="10" stroke-width="0.16"/><line x1="1674.4" y1="609.51" x2="1681.46" y2="609.51" fill="none" stroke="#878787" stroke-miterlimit="10" stroke-width="0.16"/><polygon points="1682.23 611.11 1689.29 611.11 1689.29 595.07 1689.29 589.26 1682.23 589.26 1682.23 611.11" fill="#ddd" stroke="#878787" stroke-miterlimit="10" stroke-width="0.16"/><line x1="1682.23" y1="594.95" x2="1689.29" y2="594.95" fill="none" stroke="#878787" stroke-miterlimit="10" stroke-width="0.16"/><line x1="1682.23" y1="596.4" x2="1689.29" y2="596.4" fill="none" stroke="#878787" stroke-miterlimit="10" stroke-width="0.16"/><line x1="1682.23" y1="597.86" x2="1689.29" y2="597.86" fill="none" stroke="#878787" stroke-miterlimit="10" stroke-width="0.16"/><line x1="1682.23" y1="599.31" x2="1689.29" y2="599.31" fill="none" stroke="#878787" stroke-miterlimit="10" stroke-width="0.16"/><line x1="1682.23" y1="600.77" x2="1689.29" y2="600.77" fill="none" stroke="#878787" stroke-miterlimit="10" stroke-width="0.16"/><line x1="1682.23" y1="602.23" x2="1689.29" y2="602.23" fill="none" stroke="#878787" stroke-miterlimit="10" stroke-width="0.16"/><line x1="1682.23" y1="603.68" x2="1689.29" y2="603.68" fill="none" stroke="#878787" stroke-miterlimit="10" stroke-width="0.16"/><line x1="1682.23" y1="605.14" x2="1689.29" y2="605.14" fill="none" stroke="#878787" stroke-miterlimit="10" stroke-width="0.16"/><line x1="1682.23" y1="606.6" x2="1689.29" y2="606.6" fill="none" stroke="#878787" stroke-miterlimit="10" stroke-width="0.16"/><line x1="1682.23" y1="608.05" x2="1689.29" y2="608.05" fill="none" stroke="#878787" stroke-miterlimit="10" stroke-width="0.16"/><line x1="1682.23" y1="609.51" x2="1689.29" y2="609.51" fill="none" stroke="#878787" stroke-miterlimit="10" stroke-width="0.16"/><line x1="1685.76" y1="609.63" x2="1685.76" y2="594.95" fill="none" stroke="#514f4f" stroke-miterlimit="10" stroke-width="0.16"/><polygon points="1686.56 609.4 1685.76 610.78 1684.97 609.4 1686.56 609.4" fill="#514f4f"/><line x1="1677.93" y1="596.09" x2="1677.93" y2="610.78" fill="none" stroke="#514f4f" stroke-miterlimit="10" stroke-width="0.16"/><polygon points="1677.14 596.33 1677.93 594.95 1678.73 596.33 1677.14 596.33" fill="#514f4f"/><polygon points="1809.3 617 1802.24 617 1802.24 633.03 1802.24 638.85 1809.3 638.85 1809.3 617" fill="#ddd" stroke="#878787" stroke-miterlimit="10" stroke-width="0.16"/><line x1="1809.3" y1="633.16" x2="1802.25" y2="633.16" fill="none" stroke="#878787" stroke-miterlimit="10" stroke-width="0.16"/><line x1="1809.3" y1="631.71" x2="1802.25" y2="631.71" fill="none" stroke="#878787" stroke-miterlimit="10" stroke-width="0.16"/><line x1="1809.3" y1="630.25" x2="1802.25" y2="630.25" fill="none" stroke="#878787" stroke-miterlimit="10" stroke-width="0.16"/><line x1="1809.3" y1="628.79" x2="1802.25" y2="628.79" fill="none" stroke="#878787" stroke-miterlimit="10" stroke-width="0.16"/><line x1="1809.3" y1="627.34" x2="1802.25" y2="627.34" fill="none" stroke="#878787" stroke-miterlimit="10" stroke-width="0.16"/><line x1="1809.3" y1="625.88" x2="1802.25" y2="625.88" fill="none" stroke="#878787" stroke-miterlimit="10" stroke-width="0.16"/><line x1="1809.3" y1="624.42" x2="1802.25" y2="624.42" fill="none" stroke="#878787" stroke-miterlimit="10" stroke-width="0.16"/><line x1="1809.3" y1="622.97" x2="1802.25" y2="622.97" fill="none" stroke="#878787" stroke-miterlimit="10" stroke-width="0.16"/><line x1="1809.3" y1="621.51" x2="1802.25" y2="621.51" fill="none" stroke="#878787" stroke-miterlimit="10" stroke-width="0.16"/><line x1="1809.3" y1="620.06" x2="1802.25" y2="620.06" fill="none" stroke="#878787" stroke-miterlimit="10" stroke-width="0.16"/><line x1="1809.3" y1="618.6" x2="1802.25" y2="618.6" fill="none" stroke="#878787" stroke-miterlimit="10" stroke-width="0.16"/><polygon points="1801.47 617 1794.41 617 1794.41 633.03 1794.41 638.85 1801.47 638.85 1801.47 617" fill="#ddd" stroke="#878787" stroke-miterlimit="10" stroke-width="0.16"/><line x1="1801.47" y1="633.16" x2="1794.42" y2="633.16" fill="none" stroke="#878787" stroke-miterlimit="10" stroke-width="0.16"/><line x1="1801.47" y1="631.71" x2="1794.42" y2="631.71" fill="none" stroke="#878787" stroke-miterlimit="10" stroke-width="0.16"/><line x1="1801.47" y1="630.25" x2="1794.42" y2="630.25" fill="none" stroke="#878787" stroke-miterlimit="10" stroke-width="0.16"/><line x1="1801.47" y1="628.79" x2="1794.42" y2="628.79" fill="none" stroke="#878787" stroke-miterlimit="10" stroke-width="0.16"/><line x1="1801.47" y1="627.34" x2="1794.42" y2="627.34" fill="none" stroke="#878787" stroke-miterlimit="10" stroke-width="0.16"/><line x1="1801.47" y1="625.88" x2="1794.42" y2="625.88" fill="none" stroke="#878787" stroke-miterlimit="10" stroke-width="0.16"/><line x1="1801.47" y1="624.42" x2="1794.42" y2="624.42" fill="none" stroke="#878787" stroke-miterlimit="10" stroke-width="0.16"/><line x1="1801.47" y1="622.97" x2="1794.42" y2="622.97" fill="none" stroke="#878787" stroke-miterlimit="10" stroke-width="0.16"/><line x1="1801.47" y1="621.51" x2="1794.42" y2="621.51" fill="none" stroke="#878787" stroke-miterlimit="10" stroke-width="0.16"/><line x1="1801.47" y1="620.06" x2="1794.42" y2="620.06" fill="none" stroke="#878787" stroke-miterlimit="10" stroke-width="0.16"/><line x1="1801.47" y1="618.6" x2="1794.42" y2="618.6" fill="none" stroke="#878787" stroke-miterlimit="10" stroke-width="0.16"/><line x1="1805.77" y1="618.47" x2="1805.77" y2="633.16" fill="none" stroke="#514f4f" stroke-miterlimit="10" stroke-width="0.16"/><polygon points="1804.98 618.71 1805.77 617.33 1806.57 618.71 1804.98 618.71" fill="#514f4f"/><line x1="1797.94" y1="632.02" x2="1797.94" y2="617.33" fill="none" stroke="#514f4f" stroke-miterlimit="10" stroke-width="0.16"/><polygon points="1798.74 631.78 1797.94 633.16 1797.15 631.78 1798.74 631.78" fill="#514f4f"/><polygon points="1728.99 317.03 1728.99 323.39 1743.36 323.39 1749.17 323.39 1749.17 317.03 1728.99 317.03" fill="#ddd" stroke="#878787" stroke-miterlimit="10" stroke-width="0.15"/><line x1="1743.49" y1="317.03" x2="1743.49" y2="323.39" fill="none" stroke="#878787" stroke-miterlimit="10" stroke-width="0.15"/><line x1="1742.03" y1="317.03" x2="1742.03" y2="323.39" fill="none" stroke="#878787" stroke-miterlimit="10" stroke-width="0.15"/><line x1="1740.58" y1="317.03" x2="1740.58" y2="323.39" fill="none" stroke="#878787" stroke-miterlimit="10" stroke-width="0.15"/><line x1="1739.12" y1="317.03" x2="1739.12" y2="323.39" fill="none" stroke="#878787" stroke-miterlimit="10" stroke-width="0.15"/><line x1="1737.67" y1="317.03" x2="1737.67" y2="323.39" fill="none" stroke="#878787" stroke-miterlimit="10" stroke-width="0.15"/><line x1="1736.21" y1="317.03" x2="1736.21" y2="323.39" fill="none" stroke="#878787" stroke-miterlimit="10" stroke-width="0.15"/><line x1="1734.75" y1="317.03" x2="1734.75" y2="323.39" fill="none" stroke="#878787" stroke-miterlimit="10" stroke-width="0.15"/><line x1="1733.3" y1="317.03" x2="1733.3" y2="323.39" fill="none" stroke="#878787" stroke-miterlimit="10" stroke-width="0.15"/><line x1="1731.84" y1="317.03" x2="1731.84" y2="323.39" fill="none" stroke="#878787" stroke-miterlimit="10" stroke-width="0.15"/><line x1="1730.38" y1="317.03" x2="1730.38" y2="323.39" fill="none" stroke="#878787" stroke-miterlimit="10" stroke-width="0.15"/><line x1="1742.4" y1="320.21" x2="1728.98" y2="320.21" fill="none" stroke="#514f4f" stroke-miterlimit="10" stroke-width="0.15"/><polygon points="1742.18 319.45 1743.49 320.21 1742.18 320.96 1742.18 319.45" fill="#514f4f"/><polygon points="1749.08 317.03 1749.08 323.39 1763.45 323.39 1763.58 323.39 1763.58 317.03 1749.08 317.03" fill="#ddd" stroke="#878787" stroke-miterlimit="10" stroke-width="0.15"/><line x1="1762.12" y1="317.03" x2="1762.12" y2="323.39" fill="none" stroke="#878787" stroke-miterlimit="10" stroke-width="0.15"/><line x1="1760.66" y1="317.03" x2="1760.66" y2="323.39" fill="none" stroke="#878787" stroke-miterlimit="10" stroke-width="0.15"/><line x1="1759.21" y1="317.03" x2="1759.21" y2="323.39" fill="none" stroke="#878787" stroke-miterlimit="10" stroke-width="0.15"/><line x1="1757.75" y1="317.03" x2="1757.75" y2="323.39" fill="none" stroke="#878787" stroke-miterlimit="10" stroke-width="0.15"/><line x1="1756.29" y1="317.03" x2="1756.29" y2="323.39" fill="none" stroke="#878787" stroke-miterlimit="10" stroke-width="0.15"/><line x1="1754.84" y1="317.03" x2="1754.84" y2="323.39" fill="none" stroke="#878787" stroke-miterlimit="10" stroke-width="0.15"/><line x1="1753.38" y1="317.03" x2="1753.38" y2="323.39" fill="none" stroke="#878787" stroke-miterlimit="10" stroke-width="0.15"/><line x1="1751.92" y1="317.03" x2="1751.92" y2="323.39" fill="none" stroke="#878787" stroke-miterlimit="10" stroke-width="0.15"/><line x1="1750.47" y1="317.03" x2="1750.47" y2="323.39" fill="none" stroke="#878787" stroke-miterlimit="10" stroke-width="0.15"/><line x1="1762.49" y1="320.21" x2="1749.06" y2="320.21" fill="none" stroke="#514f4f" stroke-miterlimit="10" stroke-width="0.15"/><polygon points="1762.27 319.45 1763.58 320.21 1762.27 320.96 1762.27 319.45" fill="#514f4f"/><rect x="1722.35" y="317.03" width="6.63" height="6.36" fill="#ddd" stroke="#878787" stroke-miterlimit="10" stroke-width="0.15"/><polygon points="1538.89 325.69 1546.54 325.69 1546.54 310.02 1546.54 304.34 1538.89 304.34 1538.89 325.69" fill="#ddd" stroke="#878787" stroke-miterlimit="10" stroke-width="0.16"/><line x1="1538.89" y1="309.9" x2="1546.54" y2="309.9" fill="none" stroke="#878787" stroke-miterlimit="10" stroke-width="0.16"/><line x1="1538.89" y1="311.32" x2="1546.54" y2="311.32" fill="none" stroke="#878787" stroke-miterlimit="10" stroke-width="0.16"/><line x1="1538.89" y1="312.74" x2="1546.54" y2="312.74" fill="none" stroke="#878787" stroke-miterlimit="10" stroke-width="0.16"/><line x1="1538.89" y1="314.17" x2="1546.54" y2="314.17" fill="none" stroke="#878787" stroke-miterlimit="10" stroke-width="0.16"/><line x1="1538.89" y1="315.59" x2="1546.54" y2="315.59" fill="none" stroke="#878787" stroke-miterlimit="10" stroke-width="0.16"/><line x1="1538.89" y1="317.01" x2="1546.54" y2="317.01" fill="none" stroke="#878787" stroke-miterlimit="10" stroke-width="0.16"/><line x1="1538.89" y1="318.44" x2="1546.54" y2="318.44" fill="none" stroke="#878787" stroke-miterlimit="10" stroke-width="0.16"/><line x1="1538.89" y1="319.86" x2="1546.54" y2="319.86" fill="none" stroke="#878787" stroke-miterlimit="10" stroke-width="0.16"/><line x1="1538.89" y1="321.29" x2="1546.54" y2="321.29" fill="none" stroke="#878787" stroke-miterlimit="10" stroke-width="0.16"/><line x1="1538.89" y1="322.71" x2="1546.54" y2="322.71" fill="none" stroke="#878787" stroke-miterlimit="10" stroke-width="0.16"/><line x1="1538.89" y1="324.13" x2="1546.54" y2="324.13" fill="none" stroke="#878787" stroke-miterlimit="10" stroke-width="0.16"/><polygon points="1546.8 325.69 1553.83 325.69 1553.83 310.02 1553.83 304.34 1546.8 304.34 1546.8 325.69" fill="#ddd" stroke="#878787" stroke-miterlimit="10" stroke-width="0.16"/><line x1="1546.8" y1="309.9" x2="1553.83" y2="309.9" fill="none" stroke="#878787" stroke-miterlimit="10" stroke-width="0.16"/><line x1="1546.8" y1="311.32" x2="1553.83" y2="311.32" fill="none" stroke="#878787" stroke-miterlimit="10" stroke-width="0.16"/><line x1="1546.8" y1="312.74" x2="1553.83" y2="312.74" fill="none" stroke="#878787" stroke-miterlimit="10" stroke-width="0.16"/><line x1="1546.8" y1="314.17" x2="1553.83" y2="314.17" fill="none" stroke="#878787" stroke-miterlimit="10" stroke-width="0.16"/><line x1="1546.8" y1="315.59" x2="1553.83" y2="315.59" fill="none" stroke="#878787" stroke-miterlimit="10" stroke-width="0.16"/><line x1="1546.8" y1="317.01" x2="1553.83" y2="317.01" fill="none" stroke="#878787" stroke-miterlimit="10" stroke-width="0.16"/><line x1="1546.8" y1="318.44" x2="1553.83" y2="318.44" fill="none" stroke="#878787" stroke-miterlimit="10" stroke-width="0.16"/><line x1="1546.8" y1="319.86" x2="1553.83" y2="319.86" fill="none" stroke="#878787" stroke-miterlimit="10" stroke-width="0.16"/><line x1="1546.8" y1="321.29" x2="1553.83" y2="321.29" fill="none" stroke="#878787" stroke-miterlimit="10" stroke-width="0.16"/><line x1="1546.8" y1="322.71" x2="1553.83" y2="322.71" fill="none" stroke="#878787" stroke-miterlimit="10" stroke-width="0.16"/><line x1="1546.8" y1="324.13" x2="1553.83" y2="324.13" fill="none" stroke="#878787" stroke-miterlimit="10" stroke-width="0.16"/><line x1="1542.5" y1="324.05" x2="1542.5" y2="309.75" fill="none" stroke="#514f4f" stroke-miterlimit="10" stroke-width="0.16"/><polygon points="1543.32 323.81 1542.5 325.23 1541.68 323.81 1543.32 323.81" fill="#514f4f"/><rect x="1538.89" y="303.53" width="14.94" height="7.79" fill="#ddd" stroke="#878787" stroke-miterlimit="10" stroke-width="0.16"/><line x1="1551.33" y1="312.19" x2="1551.33" y2="325.52" fill="none" stroke="#514f4f" stroke-miterlimit="10" stroke-width="0.16"/><polygon points="1550.51 312.43 1551.33 311.01 1552.15 312.43 1550.51 312.43" fill="#514f4f"/><rect x="770.58" y="708.92" width="162.6" height="65.66" fill="#93934a" opacity="0.6"/><polygon points="899.41 710.19 899.41 718.03 917.94 718.03 924.66 718.03 924.66 710.19 899.41 710.19" fill="#ddd" stroke="#878787" stroke-miterlimit="10" stroke-width="0.18"/><line x1="918.09" y1="710.19" x2="918.09" y2="718.03" fill="none" stroke="#878787" stroke-miterlimit="10" stroke-width="0.18"/><line x1="916.41" y1="710.19" x2="916.41" y2="718.03" fill="none" stroke="#878787" stroke-miterlimit="10" stroke-width="0.18"/><line x1="914.72" y1="710.19" x2="914.72" y2="718.03" fill="none" stroke="#878787" stroke-miterlimit="10" stroke-width="0.18"/><line x1="913.04" y1="710.19" x2="913.04" y2="718.03" fill="none" stroke="#878787" stroke-miterlimit="10" stroke-width="0.18"/><line x1="911.35" y1="710.19" x2="911.35" y2="718.03" fill="none" stroke="#878787" stroke-miterlimit="10" stroke-width="0.18"/><line x1="909.67" y1="710.19" x2="909.67" y2="718.03" fill="none" stroke="#878787" stroke-miterlimit="10" stroke-width="0.18"/><line x1="907.99" y1="710.19" x2="907.99" y2="718.03" fill="none" stroke="#878787" stroke-miterlimit="10" stroke-width="0.18"/><line x1="906.3" y1="710.19" x2="906.3" y2="718.03" fill="none" stroke="#878787" stroke-miterlimit="10" stroke-width="0.18"/><line x1="904.62" y1="710.19" x2="904.62" y2="718.03" fill="none" stroke="#878787" stroke-miterlimit="10" stroke-width="0.18"/><line x1="902.94" y1="710.19" x2="902.94" y2="718.03" fill="none" stroke="#878787" stroke-miterlimit="10" stroke-width="0.18"/><line x1="901.25" y1="710.19" x2="901.25" y2="718.03" fill="none" stroke="#878787" stroke-miterlimit="10" stroke-width="0.18"/><polygon points="899.41 710.19 899.41 718.03 917.94 718.03 924.66 718.03 924.66 710.19 899.41 710.19" fill="#ddd" stroke="#878787" stroke-miterlimit="10" stroke-width="0.18"/><line x1="918.09" y1="710.19" x2="918.09" y2="718.03" fill="none" stroke="#878787" stroke-miterlimit="10" stroke-width="0.18"/><line x1="916.41" y1="710.19" x2="916.41" y2="718.03" fill="none" stroke="#878787" stroke-miterlimit="10" stroke-width="0.18"/><line x1="914.72" y1="710.19" x2="914.72" y2="718.03" fill="none" stroke="#878787" stroke-miterlimit="10" stroke-width="0.18"/><line x1="913.04" y1="710.19" x2="913.04" y2="718.03" fill="none" stroke="#878787" stroke-miterlimit="10" stroke-width="0.18"/><line x1="911.35" y1="710.19" x2="911.35" y2="718.03" fill="none" stroke="#878787" stroke-miterlimit="10" stroke-width="0.18"/><line x1="909.67" y1="710.19" x2="909.67" y2="718.03" fill="none" stroke="#878787" stroke-miterlimit="10" stroke-width="0.18"/><line x1="907.99" y1="710.19" x2="907.99" y2="718.03" fill="none" stroke="#878787" stroke-miterlimit="10" stroke-width="0.18"/><line x1="906.3" y1="710.19" x2="906.3" y2="718.03" fill="none" stroke="#878787" stroke-miterlimit="10" stroke-width="0.18"/><line x1="904.62" y1="710.19" x2="904.62" y2="718.03" fill="none" stroke="#878787" stroke-miterlimit="10" stroke-width="0.18"/><line x1="902.94" y1="710.19" x2="902.94" y2="718.03" fill="none" stroke="#878787" stroke-miterlimit="10" stroke-width="0.18"/><line x1="901.25" y1="710.19" x2="901.25" y2="718.03" fill="none" stroke="#878787" stroke-miterlimit="10" stroke-width="0.18"/><polygon points="823.34 767.34 823.34 775.17 841.87 775.17 848.59 775.17 848.59 767.34 823.34 767.34" fill="#ddd" stroke="#878787" stroke-miterlimit="10" stroke-width="0.18"/><line x1="842.02" y1="767.33" x2="842.02" y2="775.17" fill="none" stroke="#878787" stroke-miterlimit="10" stroke-width="0.18"/><line x1="840.34" y1="767.33" x2="840.34" y2="775.17" fill="none" stroke="#878787" stroke-miterlimit="10" stroke-width="0.18"/><line x1="838.65" y1="767.33" x2="838.65" y2="775.17" fill="none" stroke="#878787" stroke-miterlimit="10" stroke-width="0.18"/><line x1="836.97" y1="767.33" x2="836.97" y2="775.17" fill="none" stroke="#878787" stroke-miterlimit="10" stroke-width="0.18"/><line x1="835.29" y1="767.33" x2="835.29" y2="775.17" fill="none" stroke="#878787" stroke-miterlimit="10" stroke-width="0.18"/><line x1="833.6" y1="767.33" x2="833.6" y2="775.17" fill="none" stroke="#878787" stroke-miterlimit="10" stroke-width="0.18"/><line x1="831.92" y1="767.33" x2="831.92" y2="775.17" fill="none" stroke="#878787" stroke-miterlimit="10" stroke-width="0.18"/><line x1="830.24" y1="767.33" x2="830.24" y2="775.17" fill="none" stroke="#878787" stroke-miterlimit="10" stroke-width="0.18"/><line x1="828.55" y1="767.33" x2="828.55" y2="775.17" fill="none" stroke="#878787" stroke-miterlimit="10" stroke-width="0.18"/><line x1="826.87" y1="767.33" x2="826.87" y2="775.17" fill="none" stroke="#878787" stroke-miterlimit="10" stroke-width="0.18"/><line x1="825.19" y1="767.33" x2="825.19" y2="775.17" fill="none" stroke="#878787" stroke-miterlimit="10" stroke-width="0.18"/><line x1="824.63" y1="771.25" x2="841.64" y2="771.25" fill="none" stroke="#514f4f" stroke-miterlimit="10" stroke-width="0.18"/><polygon points="824.9 772.16 823.34 771.25 824.9 770.35 824.9 772.16" fill="#514f4f"/><rect x="770.58" y="708.92" width="162.6" height="65.66" fill="none" stroke="#adaa44" stroke-miterlimit="10" stroke-width="1.32" stroke-dasharray="1.98"/><text transform="translate(711.01 432.41)" font-size="13.2" font-family="ArialMT, Arial">SE<tspan x="17.61" y="0" letter-spacing="-0.02em">R</tspan><tspan x="26.9" y="0">VICING SHED</tspan></text><text transform="translate(699.16 547.86)" font-size="13.2" font-family="ArialMT, Arial">MAINTENANCE SHED</text><text transform="translate(890.71 660.37)" font-size="13.2" font-family="ArialMT, Arial">RE<tspan x="18.34" y="0" letter-spacing="-0.07em">P</tspan><tspan x="26.16" y="0">AIR SHED</tspan></text><text transform="translate(1006.07 769.38)" font-size="9.9" font-family="ArialMT, Arial">S<tspan x="6.6" y="0" letter-spacing="-0.02em">T</tspan><tspan x="12.47" y="0">ORES</tspan></text><polyline points="849.53 774.58 849.53 766.14 823.34 766.14" fill="none" stroke="#adaa44" stroke-miterlimit="10" stroke-width="1.32" stroke-dasharray="1.98"/><polyline points="898.39 708.92 898.39 719.01 924.66 719.01" fill="none" stroke="#adaa44" stroke-miterlimit="10" stroke-width="1.32" stroke-dasharray="1.98"/><line x1="906.87" y1="714.11" x2="923.87" y2="714.11" fill="none" stroke="#514f4f" stroke-miterlimit="10" stroke-width="0.18"/><polygon points="907.13 715.01 905.57 714.11 907.13 713.21 907.13 715.01" fill="#514f4f"/></g><g id="_2nd_Doors" data-name="2nd Doors"><rect x="1553.07" y="331.37" width="3.35" height="5.02" fill="#fff"/><line x1="1554.68" y1="336.63" x2="1549.75" y2="336.63" fill="none" stroke="#2d2d2d" stroke-miterlimit="10" stroke-width="0.33"/><path d="M1550.13,336.24s0-4.79,4.53-4.79" fill="none" stroke="#a0a0a5" stroke-miterlimit="10" stroke-width="0.15" stroke-dasharray="0.31"/><rect x="1602.52" y="328.26" width="3.12" height="4.67" transform="translate(1934.68 -1273.49) rotate(90)" fill="#fff"/><line x1="1601.52" y1="330.53" x2="1601.52" y2="325.95" fill="none" stroke="#2d2d2d" stroke-miterlimit="10" stroke-width="0.31"/><path d="M1601.89,326.3s4.46,0,4.46,4.21" fill="none" stroke="#a0a0a5" stroke-miterlimit="10" stroke-width="0.14" stroke-dasharray="0.29"/><rect x="1616.24" y="328.38" width="3.12" height="4.67" transform="translate(1948.52 -1287.09) rotate(90)" fill="#fff"/><line x1="1615.24" y1="330.65" x2="1615.24" y2="326.07" fill="none" stroke="#2d2d2d" stroke-miterlimit="10" stroke-width="0.31"/><path d="M1615.61,326.42s4.46,0,4.46,4.21" fill="none" stroke="#a0a0a5" stroke-miterlimit="10" stroke-width="0.14" stroke-dasharray="0.29"/><rect x="1605.47" y="321.4" width="3.12" height="4.67" transform="translate(1930.77 -1283.3) rotate(90)" fill="#fff"/><line x1="1604.47" y1="323.68" x2="1604.47" y2="319.09" fill="none" stroke="#2d2d2d" stroke-miterlimit="10" stroke-width="0.31"/><path d="M1604.84,319.44s4.46,0,4.46,4.22" fill="none" stroke="#a0a0a5" stroke-miterlimit="10" stroke-width="0.14" stroke-dasharray="0.29"/><rect x="1610.14" y="335.43" width="3.12" height="4.67" transform="translate(1273.94 1949.47) rotate(-90)" fill="#fff"/><line x1="1614.27" y1="337.83" x2="1614.27" y2="342.42" fill="none" stroke="#2d2d2d" stroke-miterlimit="10" stroke-width="0.31"/><path d="M1613.9,342.07s-4.46,0-4.46-4.22" fill="none" stroke="#a0a0a5" stroke-miterlimit="10" stroke-width="0.14" stroke-dasharray="0.29"/><rect x="1624.54" y="328.4" width="3.12" height="4.67" transform="translate(1295.37 1956.84) rotate(-90)" fill="#fff"/><line x1="1628.67" y1="330.79" x2="1628.67" y2="335.38" fill="none" stroke="#2d2d2d" stroke-miterlimit="10" stroke-width="0.31"/><path d="M1628.3,335s-4.46,0-4.46-4.22" fill="none" stroke="#a0a0a5" stroke-miterlimit="10" stroke-width="0.14" stroke-dasharray="0.29"/><rect x="1626.3" y="335.45" width="3.12" height="4.67" transform="translate(1290.08 1965.64) rotate(-90)" fill="#fff"/><line x1="1630.42" y1="337.84" x2="1630.42" y2="342.43" fill="none" stroke="#2d2d2d" stroke-miterlimit="10" stroke-width="0.31"/><path d="M1630.05,342.08s-4.46,0-4.46-4.22" fill="none" stroke="#a0a0a5" stroke-miterlimit="10" stroke-width="0.14" stroke-dasharray="0.29"/><rect x="1632.64" y="328.25" width="3.05" height="4.4" transform="translate(1964.62 -1303.72) rotate(90)" fill="#fff"/><line x1="1631.75" y1="330.39" x2="1631.75" y2="325.9" fill="none" stroke="#2d2d2d" stroke-miterlimit="10" stroke-width="0.3"/><path d="M1632.1,326.24s4.2,0,4.2,4.13" fill="none" stroke="#a0a0a5" stroke-miterlimit="10" stroke-width="0.14" stroke-dasharray="0.28"/><rect x="1635.57" y="331.69" width="3.12" height="4.67" transform="translate(3274.25 668.05) rotate(-180)" fill="#fff"/><line x1="1637.19" y1="331.46" x2="1641.78" y2="331.46" fill="none" stroke="#2d2d2d" stroke-miterlimit="10" stroke-width="0.31"/><path d="M1641.43,331.83s0,4.46-4.22,4.46" fill="none" stroke="#a0a0a5" stroke-miterlimit="10" stroke-width="0.14" stroke-dasharray="0.29"/><rect x="1648.46" y="321.38" width="3.12" height="4.67" transform="translate(1973.74 -1326.3) rotate(90)" fill="#fff"/><line x1="1647.46" y1="323.66" x2="1647.46" y2="319.07" fill="none" stroke="#2d2d2d" stroke-miterlimit="10" stroke-width="0.31"/><path d="M1647.83,319.42s4.46,0,4.46,4.22" fill="none" stroke="#a0a0a5" stroke-miterlimit="10" stroke-width="0.14" stroke-dasharray="0.29"/><rect x="1640.76" y="321.38" width="3.12" height="4.67" transform="translate(1966.04 -1318.6) rotate(90)" fill="#fff"/><line x1="1644.88" y1="323.66" x2="1644.88" y2="319.07" fill="none" stroke="#2d2d2d" stroke-miterlimit="10" stroke-width="0.31"/><path d="M1644.51,319.42s-4.46,0-4.46,4.22" fill="none" stroke="#a0a0a5" stroke-miterlimit="10" stroke-width="0.14" stroke-dasharray="0.29"/><rect x="1672.34" y="321.73" width="3.12" height="4.67" transform="translate(1997.97 -1349.83) rotate(90)" fill="#fff"/><line x1="1671.34" y1="324.01" x2="1671.34" y2="319.42" fill="none" stroke="#2d2d2d" stroke-miterlimit="10" stroke-width="0.31"/><path d="M1671.7,319.77s4.47,0,4.47,4.22" fill="none" stroke="#a0a0a5" stroke-miterlimit="10" stroke-width="0.14" stroke-dasharray="0.29"/><rect x="1702.4" y="328.54" width="3.12" height="4.67" transform="translate(1373.08 2034.84) rotate(-90)" fill="#fff"/><line x1="1706.53" y1="330.94" x2="1706.53" y2="335.53" fill="none" stroke="#2d2d2d" stroke-miterlimit="10" stroke-width="0.31"/><path d="M1706.16,335.18s-4.46,0-4.46-4.22" fill="none" stroke="#a0a0a5" stroke-miterlimit="10" stroke-width="0.14" stroke-dasharray="0.29"/><rect x="1558.46" y="328.38" width="3.12" height="4.67" transform="translate(1890.74 -1229.31) rotate(90)" fill="#fff"/><line x1="1557.46" y1="330.65" x2="1557.46" y2="326.07" fill="none" stroke="#2d2d2d" stroke-miterlimit="10" stroke-width="0.31"/><path d="M1557.83,326.42s4.46,0,4.46,4.21" fill="none" stroke="#a0a0a5" stroke-miterlimit="10" stroke-width="0.14" stroke-dasharray="0.29"/><rect x="1557.92" y="335.43" width="3.12" height="4.67" transform="translate(1221.71 1897.24) rotate(-90)" fill="#fff"/><line x1="1562.04" y1="337.83" x2="1562.04" y2="342.42" fill="none" stroke="#2d2d2d" stroke-miterlimit="10" stroke-width="0.31"/><path d="M1561.67,342.07s-4.46,0-4.46-4.22" fill="none" stroke="#a0a0a5" stroke-miterlimit="10" stroke-width="0.14" stroke-dasharray="0.29"/><rect x="1586.21" y="335.45" width="3.12" height="4.67" transform="translate(1249.99 1925.55) rotate(-90)" fill="#fff"/><line x1="1585.2" y1="337.84" x2="1585.2" y2="342.43" fill="none" stroke="#2d2d2d" stroke-miterlimit="10" stroke-width="0.31"/><path d="M1585.57,342.08s4.46,0,4.46-4.22" fill="none" stroke="#a0a0a5" stroke-miterlimit="10" stroke-width="0.14" stroke-dasharray="0.29"/><rect x="1718.85" y="317.7" width="3.35" height="5.02" transform="translate(3441.06 640.42) rotate(-180)" fill="#fff"/><line x1="1720.6" y1="317.45" x2="1725.53" y2="317.45" fill="none" stroke="#2d2d2d" stroke-miterlimit="10" stroke-width="0.33"/><path d="M1725.15,317.85s0,4.79-4.53,4.79" fill="none" stroke="#a0a0a5" stroke-miterlimit="10" stroke-width="0.15" stroke-dasharray="0.31"/><rect x="1790.83" y="590.49" width="3.32" height="5" fill="#fff"/><line x1="1792.49" y1="595.35" x2="1787.92" y2="595.35" fill="none" stroke="#2d2d2d" stroke-miterlimit="10" stroke-width="0.31"/><path d="M1787.92,595.35s0-4.78,4.48-4.78" fill="none" stroke="#a0a0a5" stroke-miterlimit="10" stroke-width="0.15" stroke-dasharray="0.31"/><rect x="1790.8" y="602.99" width="3.32" height="5" transform="translate(3584.92 1210.99) rotate(-180)" fill="#fff"/><line x1="1792.46" y1="603.15" x2="1797.03" y2="603.15" fill="none" stroke="#2d2d2d" stroke-miterlimit="10" stroke-width="0.31"/><path d="M1797,603.15s0,4.77-4.49,4.77" fill="none" stroke="#a0a0a5" stroke-miterlimit="10" stroke-width="0.15" stroke-dasharray="0.31"/><rect x="1816.87" y="602.99" width="3.32" height="5" transform="translate(3637.06 1210.99) rotate(-180)" fill="#fff"/><line x1="1818.53" y1="603.15" x2="1823.1" y2="603.15" fill="none" stroke="#2d2d2d" stroke-miterlimit="10" stroke-width="0.31"/><path d="M1823.1,603.15s0,4.77-4.48,4.77" fill="none" stroke="#a0a0a5" stroke-miterlimit="10" stroke-width="0.15" stroke-dasharray="0.31"/><rect x="1813.27" y="606.98" width="3.34" height="4.96" transform="translate(1205.48 2424.4) rotate(-90)" fill="#fff"/><line x1="1817.27" y1="609.46" x2="1817.27" y2="614.07" fill="none" stroke="#2d2d2d" stroke-miterlimit="10" stroke-width="0.31"/><path d="M1817.27,614.07s-4.74,0-4.74-4.52" fill="none" stroke="#a0a0a5" stroke-miterlimit="10" stroke-width="0.15" stroke-dasharray="0.31"/><rect x="1803.99" y="606.98" width="3.34" height="4.96" transform="translate(1196.2 2415.12) rotate(-90)" fill="#fff"/><line x1="1807.99" y1="609.46" x2="1807.99" y2="614.07" fill="none" stroke="#2d2d2d" stroke-miterlimit="10" stroke-width="0.31"/><path d="M1808,614.07s-4.74,0-4.74-4.52" fill="none" stroke="#a0a0a5" stroke-miterlimit="10" stroke-width="0.15" stroke-dasharray="0.31"/><rect x="1713.12" y="611.3" width="3.32" height="5" fill="#fff"/><line x1="1714.78" y1="616.15" x2="1710.21" y2="616.15" fill="none" stroke="#2d2d2d" stroke-miterlimit="10" stroke-width="0.31"/><path d="M1710.21,616.15s0-4.78,4.48-4.78" fill="none" stroke="#a0a0a5" stroke-miterlimit="10" stroke-width="0.15" stroke-dasharray="0.31"/><rect x="1689.46" y="611.26" width="3.32" height="5" fill="#fff"/><line x1="1691.11" y1="616.11" x2="1686.55" y2="616.11" fill="none" stroke="#2d2d2d" stroke-miterlimit="10" stroke-width="0.31"/><path d="M1686.55,616.11s0-4.77,4.48-4.77" fill="none" stroke="#a0a0a5" stroke-miterlimit="10" stroke-width="0.15" stroke-dasharray="0.31"/><rect x="1703.01" y="607.78" width="3.34" height="4.96" transform="translate(2314.94 -1094.42) rotate(90)" fill="#fff"/><line x1="1702.35" y1="610.26" x2="1702.35" y2="605.66" fill="none" stroke="#2d2d2d" stroke-miterlimit="10" stroke-width="0.31"/><path d="M1702.35,605.66s4.74,0,4.74,4.52" fill="none" stroke="#a0a0a5" stroke-miterlimit="10" stroke-width="0.15" stroke-dasharray="0.31"/><rect x="1693.49" y="600.05" width="3.34" height="4.96" transform="translate(2297.69 -1092.63) rotate(90)" fill="#fff"/><line x1="1692.83" y1="602.53" x2="1692.83" y2="597.92" fill="none" stroke="#2d2d2d" stroke-miterlimit="10" stroke-width="0.31"/><path d="M1692.83,597.92s4.74,0,4.74,4.52" fill="none" stroke="#a0a0a5" stroke-miterlimit="10" stroke-width="0.15" stroke-dasharray="0.31"/><rect x="1689.46" y="626.46" width="3.32" height="5" fill="#fff"/><line x1="1691.11" y1="631.31" x2="1686.55" y2="631.31" fill="none" stroke="#2d2d2d" stroke-miterlimit="10" stroke-width="0.31"/><path d="M1686.55,631.31s0-4.77,4.48-4.77" fill="none" stroke="#a0a0a5" stroke-miterlimit="10" stroke-width="0.15" stroke-dasharray="0.31"/></g><g id="label"><text transform="translate(1734.07 656.29)" font-size="6.6" font-family="ArialMT, Arial">MAIN OFFICE (1F)</text><text transform="translate(1546.81 290.43)" font-size="6.6" font-family="ArialMT, Arial">TRAINING (1F)</text><text transform="translate(1569.33 315.05)" font-size="1.98" font-family="ArialMT, Arial">DRIVER’S RES<tspan x="13.86" y="0" letter-spacing="-0.02em">T</tspan><tspan x="4.44" y="2.38">ROOM</tspan></text><text transform="translate(1627.66 319.93) rotate(-90)" font-size="1.98" font-family="ArialMT, Arial">PLAN<tspan x="5.17" y="0" letter-spacing="-0.02em">T</tspan><tspan x="6.35" y="0" xml:space="preserve" letter-spacing="0em"> ROOM</tspan></text><text transform="translate(1634.28 311.32)" font-size="1.98" font-family="ArialMT, Arial">KITCHEN</text><text transform="translate(1653.4 311.16)" font-size="1.98" font-family="ArialMT, Arial">TRAINING<tspan x="1.65" y="2.38">ROOM</tspan></text><text transform="translate(1650.49 341.84)" font-size="1.98" font-family="ArialMT, Arial">TRAINING<tspan x="1.65" y="2.38">ROOM</tspan></text><text transform="translate(1688.56 311.16)" font-size="1.98" font-family="ArialMT, Arial">TRAINING<tspan x="1.65" y="2.38">ROOM</tspan></text><text transform="translate(1688.56 341.84)" font-size="1.98" font-family="ArialMT, Arial">TRAINING<tspan x="1.65" y="2.38">ROOM</tspan></text><text transform="translate(1621.73 346.48)" font-size="1.98" font-family="ArialMT, Arial">COMMS</text><text transform="translate(1584.21 346.25)" font-size="1.98" font-family="ArialMT, Arial">SHUNTER CONTRO<tspan x="18.7" y="0" letter-spacing="-0.04em">L</tspan><tspan x="19.73" y="0"> </tspan><tspan x="7.06" y="2.38">ROOM</tspan></text><text transform="translate(1547.45 346.25)" font-size="1.98" font-family="ArialMT, Arial">SHUNTER’S RES<tspan x="15.95" y="0" letter-spacing="-0.02em">T</tspan><tspan x="17.13" y="0"> </tspan><tspan x="5.76" y="2.38">ROOM</tspan></text><text transform="translate(1676.95 628.65)" font-size="1.98" font-family="ArialMT, Arial">MEETING<tspan x="1.43" y="2.38">ROOM</tspan></text><text transform="translate(1740.4 615.22)" font-size="1.98" font-family="ArialMT, Arial">OPEN PLAN OFFICE</text><text transform="translate(1802.02 594.61)" font-size="1.98" font-family="ArialMT, Arial">S<tspan x="1.32" y="0" letter-spacing="-0.02em">T</tspan><tspan x="2.49" y="0">ORE</tspan></text><text transform="translate(1815.43 624.42)" font-size="1.98" font-family="ArialMT, Arial">MEETING<tspan x="1.43" y="2.38">ROOM</tspan></text><text transform="translate(1829.7 595.5)" font-size="1.98" font-family="ArialMT, Arial">HEAD OF FLEE<tspan x="14.3" y="0" letter-spacing="-0.02em">T</tspan><tspan x="15.48" y="0" xml:space="preserve"> &amp;</tspan><tspan x="-2.05" y="2.38">SENIOR PRODUCTION</tspan><tspan x="-1.12" y="4.75">MANAGER’S OFFICE</tspan></text><circle cx="1613.24" cy="347.75" r="3.99" fill="#003e87"/><path d="M1612.33,347.93c0,.11-.18.17-.23.11a.15.15,0,0,1-.12-.22l.46-1.37a.56.56,0,0,1,.57-.4h.69a.63.63,0,0,1,.62.4l.4,1.37c0,.11,0,.22-.12.22s-.22,0-.22-.11l-.34-1.26h-.18l.63,2.17H1614v1.6a.25.25,0,0,1-.23.22.25.25,0,0,1-.22-.22v-1.6h-.28v1.6a.23.23,0,0,1-.45,0v-1.6h-.46l.62-2.17h-.17l-.51,1.26Z" fill="#fefefe"/><circle cx="1613.3" cy="345.48" r="0.46" fill="#fefefe"/><circle cx="1605.82" cy="310.68" r="3.99" fill="#003e87"/><path d="M1605.14,311a.24.24,0,0,1-.22.22.25.25,0,0,1-.23-.22v-1.42h0a.57.57,0,0,1,.57-.58h1a.58.58,0,0,1,.57.58h0V311a.25.25,0,0,1-.22.22.24.24,0,0,1-.23-.22v-1.32h0v3.59a.27.27,0,0,1-.28.29.28.28,0,0,1-.29-.29v-2.11h-.11v2.11a.29.29,0,1,1-.57,0v-3.59H1605l.11,1.32Z" fill="#fefefe"/><circle cx="1605.82" cy="308.34" r="0.46" fill="#fefefe"/><text transform="translate(862.95 742.93)" font-size="2.97" fill="#2d2b10" font-family="ArialMT, Arial">MEZZANINE FLOOR</text></g><g id="_2nd_Icons" data-name="2nd Icons"><circle cx="1546.5" cy="318.16" r="4.43" fill="#008246"/><polygon points="1548.71 317.28 1548.71 321.26 1548.2 321.77 1543.77 321.77 1544.34 321.33 1544.34 317.34 1543.4 317.34 1546.5 314.49 1549.6 317.28 1548.71 317.28" fill="#fff"/><g id="exit"><path d="M1547.38,321.14l-1.07-2a3.35,3.35,0,0,1-.13.82c0,.25-.25.31-.38.31h-2.15l.57-.63h1.27l.06-1.21.51-1h-.44l-.13.13-.37.57a.35.35,0,0,1-.25.12c-.07,0-.13,0-.13-.07a.23.23,0,0,1-.07-.37l.38-.57h0a2.94,2.94,0,0,0,.25-.32.54.54,0,0,1,.32-.07h1.14c.44,0,.63.13.69.26l.07.06.51.64h.76a.27.27,0,0,1,.25.25.28.28,0,0,1-.25.25h-.89c-.07,0-.19-.07-.19-.13l-.38-.51-.37.77,1.26,2.53Z" fill="#008246"/><path d="M1546.75,317a.92.92,0,0,1,.69.19s.07,0,.07.06l.51.7h.76c.12,0,.19.12.19.25a.27.27,0,0,1-.19.25h-.89a.23.23,0,0,1-.19-.07l-.44-.56-.45.88,1.21,2.47h-.7l-1.13-2.09a8.35,8.35,0,0,0-.13.95c0,.26-.32.25-.32.25h-2l.44-.51h1.33l.07-1.26.57-1h-.57l-.13.12-.37.57c-.07.07-.13.13-.19.13h-.13c-.13-.07-.13-.19-.07-.32l.38-.57h0c.13-.12.19-.25.25-.25a.44.44,0,0,1,.25-.07h1a.31.31,0,0,1,.25-.11m0-.13v0h-1.14a.64.64,0,0,0-.32.07,1.24,1.24,0,0,0-.31.31h0l-.38.57a.28.28,0,0,0,.12.45c.07,0,.13.06.2.06s.19-.06.31-.19l.32-.57.07-.06h.38l-.45.82h0l-.06,1.13h-1.27v.07l-.45.51-.19.19h2.27a.32.32,0,0,0,.2-.07.43.43,0,0,0,.25-.31c0-.13.06-.38.06-.64l1,1.77v.07h1l-.07-.19-1.2-2.41.32-.69.31.44a.49.49,0,0,0,.26.13h.88a.32.32,0,1,0,0-.64h-.69l-.51-.63-.07-.07a.3.3,0,0,0-.25-.13Z" fill="#fff"/><path d="M1547.13,317a.57.57,0,1,1,.56-.57A.56.56,0,0,1,1547.13,317Z" fill="#008246"/><path d="M1547.13,315.89a.5.5,0,0,1,.5.51.54.54,0,0,1-.5.51.5.5,0,0,1-.51-.51.54.54,0,0,1,.51-.51m0-.13a.64.64,0,0,0-.64.64.64.64,0,0,0,.64.63.68.68,0,0,0,.63-.63.64.64,0,0,0-.63-.64Z" fill="#fff"/></g><path d="M1546.5,335.82a4,4,0,1,1,4-4A4,4,0,0,1,1546.5,335.82Z" fill="red"/><g id="fire"><path d="M1548.6,330.28v-.85l-1.25.15v.15h-.66v-.32h-.17a.25.25,0,0,0-.06-.15.42.42,0,0,0-.64-.08.44.44,0,0,0,0,.62,1.33,1.33,0,0,0-.64.56c-.11.28.17.32.25.2.36-.54.73-.52.73-.52v.13a.79.79,0,0,0-.58.77v3.5a.17.17,0,0,0,.19.17h1.28c.18,0,.2-.15.2-.27v-3.42a.88.88,0,0,0-.56-.78V330h.66v.15Zm-2.5-.64a.17.17,0,0,1-.17-.16.17.17,0,0,1,.34,0A.16.16,0,0,1,1546.1,329.64Z" fill="#fff"/></g><path d="M1561.13,311.88a4,4,0,1,1,4-4A4,4,0,0,1,1561.13,311.88Z" fill="red"/><g id="fire-2" data-name="fire"><path d="M1563.24,306.35v-.85l-1.26.15v.15h-.66v-.33h-.17a.24.24,0,0,0-.06-.14.41.41,0,0,0-.63-.08.43.43,0,0,0,0,.62,1.2,1.2,0,0,0-.64.56c-.12.28.16.32.24.2.36-.55.73-.52.73-.52v.13a.78.78,0,0,0-.58.77v3.5a.17.17,0,0,0,.19.17h1.28c.19,0,.2-.15.2-.27V307a.88.88,0,0,0-.56-.77V306h.66v.15Zm-2.51-.64a.18.18,0,0,1-.17-.17.17.17,0,0,1,.34,0A.16.16,0,0,1,1560.73,305.71Z" fill="#fff"/></g><path d="M1717.17,329.83a4,4,0,1,1,4-4A4,4,0,0,1,1717.17,329.83Z" fill="red"/><g id="fire-3" data-name="fire"><path d="M1719.28,324.3v-.85l-1.26.15v.15h-.66v-.33h-.17a.26.26,0,0,0,0-.14.42.42,0,0,0-.64-.08.44.44,0,0,0,0,.62,1.29,1.29,0,0,0-.64.56c-.11.28.17.32.24.2.36-.54.73-.52.73-.52v.13a.8.8,0,0,0-.58.77v3.5a.17.17,0,0,0,.19.17h1.28c.19,0,.2-.15.2-.27v-3.43a.88.88,0,0,0-.56-.77V324h.66v.15Zm-2.51-.64a.17.17,0,0,1-.17-.17.17.17,0,0,1,.34,0A.15.15,0,0,1,1716.77,323.66Z" fill="#fff"/></g><circle cx="1730.74" cy="320.44" r="4.43" fill="#008246"/><polygon points="1732.96 319.55 1732.96 323.54 1732.45 324.05 1728.02 324.05 1728.59 323.61 1728.59 319.62 1727.64 319.62 1730.74 316.77 1733.85 319.55 1732.96 319.55" fill="#fff"/><g id="exit-2" data-name="exit"><path d="M1731.63,323.41l-1.08-2a3.3,3.3,0,0,1-.12.82c0,.25-.25.32-.38.32h-2.15l.57-.64h1.26l.07-1.2.51-.95h-.44l-.13.12-.38.57a.3.3,0,0,1-.25.13c-.06,0-.12,0-.12-.07a.24.24,0,0,1-.07-.38l.38-.57h0c.12-.12.19-.25.25-.31a.52.52,0,0,1,.32-.07H1731c.45,0,.64.13.7.25l.06.07.51.63h.76a.28.28,0,0,1,.26.25.27.27,0,0,1-.26.25h-.88c-.07,0-.19-.06-.19-.12l-.38-.51-.38.76,1.27,2.53Z" fill="#008246"/><path d="M1731,319.3a1,1,0,0,1,.69.19.07.07,0,0,1,.07.07l.51.69h.76c.12,0,.19.13.19.25a.29.29,0,0,1-.19.26h-.89a.22.22,0,0,1-.19-.07l-.44-.57-.45.89,1.21,2.46h-.7l-1.14-2.09a9.29,9.29,0,0,0-.12,1c0,.25-.32.25-.32.25h-2l.44-.51h1.33l.07-1.27.57-1h-.57l-.13.13-.38.57c-.06.06-.12.12-.19.12H1729c-.13-.06-.13-.19-.07-.31l.38-.57h0c.12-.13.19-.25.25-.25a.43.43,0,0,1,.25-.07h1c.12-.12.18-.12.25-.12m0-.12v0h-1.14a.73.73,0,0,0-.32.06,1.55,1.55,0,0,0-.32.32h0l-.37.57a.28.28,0,0,0,.12.44c.07,0,.13.07.19.07s.2-.07.32-.19l.32-.57.07-.07h.37l-.44.82h0l-.07,1.14h-1.27v.06l-.44.51-.19.2h2.27a.29.29,0,0,0,.19-.07c.13-.07.26-.19.26-.32s.06-.38.06-.63l1,1.77v.07h1l-.07-.2-1.2-2.4.31-.7.32.44a.47.47,0,0,0,.25.13h.89a.3.3,0,0,0,.32-.32.3.3,0,0,0-.32-.31h-.69l-.51-.64-.07-.07a.35.35,0,0,0-.25-.12Z" fill="#fff"/><path d="M1731.37,319.24a.57.57,0,0,1-.57-.57.58.58,0,0,1,.57-.57.57.57,0,0,1,0,1.14Z" fill="#008246"/><path d="M1731.37,318.16a.5.5,0,0,1,.51.51.54.54,0,0,1-.51.51.51.51,0,0,1-.51-.51.55.55,0,0,1,.51-.51m0-.12a.64.64,0,0,0,0,1.27.69.69,0,0,0,.64-.64.64.64,0,0,0-.64-.63Z" fill="#fff"/></g><circle cx="1681.73" cy="599" r="4.43" fill="#008246"/><polygon points="1683.95 598.11 1683.95 602.1 1683.44 602.61 1679.01 602.61 1679.58 602.17 1679.58 598.18 1678.63 598.18 1681.73 595.33 1684.83 598.11 1683.95 598.11" fill="#fff"/><g id="exit-3" data-name="exit"><path d="M1682.62,602l-1.08-2a3.35,3.35,0,0,1-.13.82c0,.25-.25.32-.37.32h-2.15l.57-.64h1.26l.07-1.2.51-1h-.45l-.12.13-.38.57a.3.3,0,0,1-.25.12c-.07,0-.13,0-.13-.06a.24.24,0,0,1-.06-.38l.37-.57h0a3.52,3.52,0,0,0,.26-.31.51.51,0,0,1,.31-.07H1682c.44,0,.64.12.69.25l.07.07.51.63h.76a.27.27,0,0,1,.25.25.26.26,0,0,1-.25.25h-.88c-.07,0-.2-.06-.2-.12l-.37-.51-.38.76,1.26,2.53Z" fill="#008246"/><path d="M1682,597.86a1,1,0,0,1,.7.19.06.06,0,0,1,.06.07l.51.69h.76a.23.23,0,0,1,.2.25.27.27,0,0,1-.2.25h-.88a.23.23,0,0,1-.19-.06l-.45-.57-.44.89,1.2,2.46h-.69l-1.14-2.09a9.29,9.29,0,0,0-.12,1c0,.25-.32.25-.32.25h-2l.44-.51h1.33l.06-1.27.57-1h-.57l-.12.13-.38.57c-.06.06-.12.12-.19.12H1680c-.12-.06-.12-.19-.06-.32l.37-.56h0c.13-.13.2-.26.26-.26a.48.48,0,0,1,.25-.06h1c.12-.12.18-.12.24-.12m0-.13v0h-1.13a.62.62,0,0,0-.32.07,1.55,1.55,0,0,0-.32.32h0l-.38.57a.28.28,0,0,0,.13.44c.07,0,.13.07.19.07s.19-.07.32-.2l.32-.56.06-.07h.38l-.44.82h0l-.07,1.14h-1.27v.06l-.44.51-.2.19h2.28a.32.32,0,0,0,.19-.06.42.42,0,0,0,.25-.32c0-.12.07-.38.07-.63l1,1.77v.06h1l-.06-.19-1.21-2.41.32-.69.32.44a.47.47,0,0,0,.25.13h.89a.32.32,0,0,0,0-.64h-.7l-.51-.63-.06-.07a.35.35,0,0,0-.25-.12Z" fill="#fff"/><path d="M1682.36,597.8a.57.57,0,1,1,.57-.57A.57.57,0,0,1,1682.36,597.8Z" fill="#008246"/><path d="M1682.36,596.72a.5.5,0,0,1,.51.51.54.54,0,0,1-.51.51.5.5,0,0,1-.51-.51.55.55,0,0,1,.51-.51m0-.12a.64.64,0,0,0-.64.63.64.64,0,0,0,.64.64.69.69,0,0,0,.64-.64.64.64,0,0,0-.64-.63Z" fill="#fff"/></g><path d="M1681.29,615.13a4,4,0,1,1,4-4A4,4,0,0,1,1681.29,615.13Z" fill="red"/><g id="fire-4" data-name="fire"><path d="M1683.4,609.6v-.85l-1.26.14V609h-.66v-.32h-.17a.25.25,0,0,0-.06-.15.43.43,0,0,0-.64-.08.44.44,0,0,0,0,.62,1.26,1.26,0,0,0-.63.56c-.12.28.16.33.24.21.36-.55.73-.53.73-.53v.13a.8.8,0,0,0-.58.78v3.49a.17.17,0,0,0,.19.17h1.28c.19,0,.2-.15.2-.27v-3.42a.9.9,0,0,0-.56-.78v-.18h.66v.14Zm-2.51-.64a.17.17,0,1,1,.17-.17A.16.16,0,0,1,1680.89,609Z" fill="#fff"/></g><path d="M1711.64,627.69a4,4,0,1,1,4-4A4,4,0,0,1,1711.64,627.69Z" fill="red"/><g id="fire-5" data-name="fire"><path d="M1713.75,622.16v-.85l-1.26.14v.15h-.66v-.32h-.16a.25.25,0,0,0-.06-.15.42.42,0,1,0-.64.54,1.33,1.33,0,0,0-.64.56c-.11.28.17.33.25.21.36-.55.73-.53.73-.53V622a.81.81,0,0,0-.59.78v3.49a.17.17,0,0,0,.19.17h1.28c.19,0,.21-.15.21-.27v-3.42a.88.88,0,0,0-.57-.77v-.19h.66V622Zm-2.51-.64a.17.17,0,0,1,0-.34.17.17,0,0,1,.17.17C1711.42,621.45,1711.36,621.52,1711.24,621.52Z" fill="#fff"/></g><path d="M1814.9,609.66a4,4,0,1,1,4-4A4,4,0,0,1,1814.9,609.66Z" fill="red"/><g id="fire-6" data-name="fire"><path d="M1817,604.12v-.84l-1.26.14v.15h-.66v-.32h-.17a.29.29,0,0,0-.05-.15.43.43,0,0,0-.64-.08.44.44,0,0,0,0,.62,1.29,1.29,0,0,0-.64.56c-.11.28.17.32.25.21.35-.55.73-.53.73-.53V604a.8.8,0,0,0-.59.77v3.5a.17.17,0,0,0,.19.17h1.28c.19,0,.2-.15.2-.27v-3.42a.9.9,0,0,0-.56-.78v-.19h.66v.15Zm-2.51-.63a.17.17,0,1,1,.17-.17C1814.68,603.42,1814.62,603.49,1814.5,603.49Z" fill="#fff"/></g><circle cx="1801.48" cy="625.79" r="4.43" fill="#008246"/><polygon points="1803.69 624.9 1803.69 628.89 1803.18 629.4 1798.75 629.4 1799.32 628.95 1799.32 624.97 1798.37 624.97 1801.47 622.12 1804.58 624.9 1803.69 624.9" fill="#fff"/><g id="exit-4" data-name="exit"><path d="M1802.36,628.76l-1.08-2a3.37,3.37,0,0,1-.12.82c0,.25-.25.31-.38.31h-2.15l.57-.63h1.26l.07-1.2.51-1h-.44l-.13.13-.38.57a.32.32,0,0,1-.25.12c-.06,0-.12,0-.12-.06a.24.24,0,0,1-.07-.38l.38-.57h0c.12-.13.19-.25.25-.32a.59.59,0,0,1,.32-.06h1.13c.45,0,.64.12.7.25l.06.06.51.64h.76a.25.25,0,1,1,0,.5h-.88c-.07,0-.19-.07-.19-.12l-.38-.51-.38.76,1.27,2.53Z" fill="#008246"/><path d="M1801.73,624.65a.92.92,0,0,1,.69.19.07.07,0,0,1,.07.07l.51.69h.76c.12,0,.19.13.19.25a.28.28,0,0,1-.19.25h-.89a.24.24,0,0,1-.19-.06l-.44-.57-.45.88,1.21,2.47h-.7l-1.13-2.09a8.35,8.35,0,0,0-.13.95c0,.26-.32.25-.32.25h-2l.44-.51h1.33l.07-1.26.57-1h-.57l-.13.13-.37.56c-.07.07-.13.13-.2.13h-.12c-.13-.07-.13-.19-.07-.32l.38-.57h0c.12-.12.19-.25.25-.25a.48.48,0,0,1,.25-.06h1c.12-.12.18-.12.25-.12m0-.13v0h-1.14a.64.64,0,0,0-.32.07,1.53,1.53,0,0,0-.32.32h0l-.37.56a.28.28,0,0,0,.12.45c.07,0,.13.06.19.06s.2-.06.32-.19l.32-.57.07-.06h.37l-.44.82h0l-.07,1.13h-1.27v.07l-.44.51-.19.19h2.27a.32.32,0,0,0,.19-.06c.13-.07.26-.2.26-.32s.06-.38.06-.64l1,1.78v.06h1l-.07-.19-1.2-2.41.32-.69.31.44a.47.47,0,0,0,.25.13h.89a.32.32,0,1,0,0-.64h-.69l-.51-.63-.07-.07a.33.33,0,0,0-.25-.13Z" fill="#fff"/><path d="M1802.1,624.59a.57.57,0,1,1,0-1.14.56.56,0,0,1,.57.57A.57.57,0,0,1,1802.1,624.59Z" fill="#008246"/><path d="M1802.1,623.51a.5.5,0,0,1,.51.51.54.54,0,0,1-.51.51.51.51,0,0,1-.51-.51.55.55,0,0,1,.51-.51m0-.13a.64.64,0,0,0,0,1.28.69.69,0,0,0,.64-.64.64.64,0,0,0-.64-.64Z" fill="#fff"/></g><circle cx="1697.13" cy="595.24" r="3.99" fill="#003e87"/><path d="M1696.22,595.42c0,.11-.18.17-.23.11s-.17-.17-.11-.22l.45-1.37a.58.58,0,0,1,.58-.4h.68a.63.63,0,0,1,.62.4l.4,1.37c0,.12,0,.22-.12.22s-.22,0-.22-.11l-.34-1.26h-.18l.63,2.17h-.46v1.6a.24.24,0,0,1-.22.22.25.25,0,0,1-.23-.22v-1.6h-.28v1.6a.25.25,0,0,1-.23.22.24.24,0,0,1-.22-.22v-1.6h-.46l.63-2.17h-.18l-.51,1.26Z" fill="#fefefe"/><circle cx="1697.19" cy="592.97" r="0.46" fill="#fefefe"/><circle cx="1716.44" cy="605.21" r="3.99" fill="#003e87"/><path d="M1715.76,605.5a.25.25,0,0,1-.23.22.24.24,0,0,1-.22-.22v-1.42h0a.58.58,0,0,1,.57-.58h1a.58.58,0,0,1,.57.58h0v1.42a.24.24,0,0,1-.22.22.23.23,0,0,1-.22-.22v-1.31h0v3.59a.27.27,0,0,1-.29.28.27.27,0,0,1-.28-.28v-2.11h-.12v2.11a.26.26,0,0,1-.28.28.27.27,0,0,1-.28-.28v-3.59h-.14l.12,1.31Z" fill="#fefefe"/><circle cx="1716.44" cy="602.87" r="0.46" fill="#fefefe"/></g><path d="M77.88,920.37l80.53,218,330.35-122-9-167.22-90.14-7.75v9.29S131.51,889.4,77.88,920.37Z" fill="#f4d9d9" stroke="#000" stroke-miterlimit="10"/><text id="MAINTENANCE" transform="translate(244.45 960.09)" font-size="13.2" font-family="ArialMT, Arial">SOUTH END <tspan x="9.28" y="15.84">CAR</tspan><tspan x="37.15" y="15.84" letter-spacing="-0.07em">P</tspan><tspan x="44.98" y="15.84">ARK</tspan></text><path d="M142.45,673.79l1.63,180.77S370.31,815,379.6,815,387,840.4,387,840.4l254.25,22.75,10.34-21.75L500.37,789.21l-11.61,23.54L371.08,768.48l8.52-27.92S201,673.4,142.45,673.79Z" fill="#afaaaa" stroke="#000" stroke-miterlimit="10"/><path d="M384,823.77s74.54-7,88.48-7.44S580.71,802.89,608,792.46" fill="none" stroke="#fff" stroke-miterlimit="10" stroke-width="9"/><path d="M384,823.77l2-.19" fill="none" stroke="#2d2d2d" stroke-miterlimit="10" stroke-width="9"/><path d="M390,823.21c18-1.66,70.94-6.49,82.46-6.88,13.35-.46,100.4-12.37,131.68-22.54" fill="none" stroke="#2d2d2d" stroke-miterlimit="10" stroke-width="9" stroke-dasharray="4.05 4.05"/><path d="M606.11,793.15c.65-.23,1.28-.46,1.87-.69" fill="none" stroke="#2d2d2d" stroke-miterlimit="10" stroke-width="9"/><path d="M-13.69,934.44C124.89,877,267.77,848.89,384,832.4" fill="none" stroke="#2d2d2d" stroke-linecap="square" stroke-miterlimit="10" stroke-width="29"/><path d="M-13.69,934.44C124.89,877,267.77,848.89,384,832.4" fill="none" stroke="#ddd" stroke-linecap="square" stroke-miterlimit="10" stroke-width="23"/><rect x="81.55" y="80.89" width="301.36" height="117.27" fill="#fff" stroke="#000" stroke-miterlimit="10" stroke-width="1.15"/><text transform="translate(149.14 108.37)" font-size="9.6" font-family="ArialMT, Arial" style="isolation:isolate">EMERGENC<tspan x="55.48" y="0" letter-spacing="-0.02em">Y</tspan><tspan x="61.71" y="0" xml:space="preserve" letter-spacing="0em"> EXI</tspan><tspan x="79.85" y="0" letter-spacing="-0.02em">T</tspan></text><text transform="translate(149.14 140.31)" font-size="9.6" font-family="ArialMT, Arial" style="isolation:isolate">FIRS<tspan x="21.87" y="0" letter-spacing="-0.02em">T</tspan><tspan x="27.56" y="0" letter-spacing="-0.06em"> </tspan><tspan x="29.7" y="0" letter-spacing="0em">AID</tspan></text><text transform="translate(283.4 108.63)" font-size="9.6" font-family="ArialMT, Arial" style="isolation:isolate">EXTINGUISHER</text><text transform="translate(283.4 139.6)" font-size="9.6" font-family="ArialMT, Arial" style="isolation:isolate">FIRE BLANKE<tspan x="62.43" y="0" letter-spacing="-0.02em">T</tspan></text><text transform="translate(285.15 172.97)" font-size="9.6" font-family="ArialMT, Arial" style="isolation:isolate"><tspan letter-spacing="-0.02em">T</tspan><tspan x="5.69" y="0">OILETS</tspan></text><circle cx="262.09" cy="168.45" r="13.65" fill="#003e87"/><path d="M265.38,170.23a.62.62,0,1,1-1.23,0v-4.12h0a1.66,1.66,0,0,1,1.65-1.64h2.94a1.66,1.66,0,0,1,1.65,1.64h0v4.12a.62.62,0,1,1-1.23,0v-3.77h-.35v10.21a.76.76,0,0,1-.75.76.77.77,0,0,1-.76-.76v-5.89h-.13v5.89a.77.77,0,0,1-.76.76.76.76,0,0,1-.75-.76V166.46h-.34l.06,3.77Z" fill="#fefefe"/><circle cx="267.3" cy="162.82" r="1.37" fill="#fefefe"/><path d="M253.86,169.68a.51.51,0,0,1-.68.34.6.6,0,0,1-.41-.68l1.09-3.84a1.76,1.76,0,0,1,1.58-1.24h1.92a1.62,1.62,0,0,1,1.58,1.24l1.1,3.84a.55.55,0,0,1-.42.68.56.56,0,0,1-.68-.34l-1-3.57h-.34l1.78,6.11H257.7v4.52a.62.62,0,1,1-1.23,0v-4.52h-.28v4.52a.62.62,0,1,1-1.23,0v-4.52h-1.51l1.78-6.11h-.34l-1,3.57Z" fill="#fefefe"/><circle cx="256.47" cy="162.75" r="1.37" fill="#fefefe"/><line x1="262.09" y1="157.13" x2="262.09" y2="179.49" fill="none" stroke="#fefefe" stroke-miterlimit="10" stroke-width="0.55"/><path d="M260.34,150.08a14.54,14.54,0,1,1,14.54-14.54A14.55,14.55,0,0,1,260.34,150.08Z" fill="red"/><path d="M260.34,121.9a13.65,13.65,0,1,1-13.65,13.64,13.64,13.64,0,0,1,13.65-13.64m0-1.72a15.37,15.37,0,1,0,15.36,15.36,15.34,15.34,0,0,0-15.36-15.36Z" fill="#fff"/><path d="M267.06,134.1c-1.58,2.2-2.67,1.65-2.67,1.65,1-2.2-.28-5.14-.28-5.14-1.85,2.19-2.05,1.5-2.05,1.5.82-2.81-1.86-6.51-1.86-6.51,1.31,3.22-1.71,6.45-1.71,6.45a5.21,5.21,0,0,0-.82-2c-2.27,3.77-1.86,5.21-1.86,5.21a4.47,4.47,0,0,0-1.71-1.37c-4.18,10.35,4.11,10.7,4.11,10.7-4-2.88-3-4.8-3-4.8a2.84,2.84,0,0,0,1.85.68,4.17,4.17,0,0,1-.14-2.4,2.52,2.52,0,0,0,2.33,1.37c-1-1.78,1.31-4,1.31-4-.35,1,.41,3.71.41,3.71.07-.28.27-.34.75-.62a3,3,0,0,0,.76-1,7.26,7.26,0,0,0,.82,2.33c.69.14,1.3-.68,1.3-.68,1.37,3.7-3.15,5.28-3.15,5.28C269.8,144.46,267.06,134.1,267.06,134.1Z" fill="#fff"/><path d="M260.34,118a14.54,14.54,0,1,1,14.54-14.54A14.55,14.55,0,0,1,260.34,118Z" fill="red"/><path d="M260.34,89.83a13.65,13.65,0,1,1-13.65,13.65,13.65,13.65,0,0,1,13.65-13.65m0-1.71a15.36,15.36,0,1,0,15.36,15.36,15.38,15.38,0,0,0-15.36-15.36Z" fill="#fff"/><g id="fire-7" data-name="fire"><path d="M268,97.86V94.77l-4.59.55v.55H261V94.7h-.62a1,1,0,0,0-.21-.55,1.55,1.55,0,0,0-2.33-.27,1.6,1.6,0,0,0,0,2.26,4.66,4.66,0,0,0-2.33,2.06c-.41,1,.62,1.17.89.75,1.3-2,2.68-1.92,2.68-1.92v.48a2.89,2.89,0,0,0-2.13,2.82v12.75a.6.6,0,0,0,.69.62h4.66c.69,0,.75-.55.75-1V100.26A3.18,3.18,0,0,0,261,97.45v-.69h2.4v.55Zm-9.12-2.33a.62.62,0,1,1,.62-.62A.58.58,0,0,1,258.9,95.53Z" fill="#fff"/></g><path d="M126.09,150a14.54,14.54,0,1,1,14.54-14.54A14.55,14.55,0,0,1,126.09,150Z" fill="#008246"/><path d="M126.09,121.9a13.65,13.65,0,1,1-13.65,13.64,13.64,13.64,0,0,1,13.65-13.64m0-1.72a15.37,15.37,0,1,0,15.36,15.36,15.38,15.38,0,0,0-15.36-15.36Z" fill="#fff"/><g id="aid"><polygon points="135.14 133.01 128.63 133.01 128.63 126.49 123.62 126.49 123.62 133.01 117.04 133.01 117.04 138.08 123.62 138.08 123.62 144.6 128.63 144.6 128.63 138.08 135.14 138.08 135.14 133.01" fill="#fff"/></g><circle cx="126.09" cy="103.49" r="13.65" fill="#008246"/><polygon points="133.02 100.88 133.02 113.02 131.3 114.73 117.79 114.73 119.44 113.29 119.44 100.95 116.49 100.95 126.09 92.24 135.62 100.88 133.02 100.88" fill="#fff"/><g id="exit-5" data-name="exit"><path d="M128.83,112.68l-3.29-6c-.07.69-.27,1.92-.34,2.47-.07.76-.82,1-1.17,1h-6.58l1.65-2h4l.28-3.63,1.57-2.88h-1.44a2.23,2.23,0,0,0-.27.41l-1.1,1.71a.77.77,0,0,1-.75.41,1.43,1.43,0,0,1-.48-.13.83.83,0,0,1-.28-1.17l1.1-1.71h0a3.78,3.78,0,0,1,.82-.9,1.71,1.71,0,0,1,.9-.2h2.74c.27,0,.55-.07.75-.07,1.38,0,2,.41,2.2.69l.2.2,1.51,2h2.33a.89.89,0,1,1,0,1.78h-2.74a.82.82,0,0,1-.68-.34l-1.17-1.58-1.1,2.4L131.3,113Z" fill="#008246"/><path d="M126.91,100c1.31,0,1.86.41,2.06.69.07.06.14.06.21.13l1.57,2.06h2.4a.68.68,0,0,1,.69.69.64.64,0,0,1-.69.68h-2.74a.65.65,0,0,1-.55-.27l-1.37-1.79-1.3,2.82,3.77,7.61-2.06-.07-3.5-6.38s-.34,2.26-.41,3-1,.82-1,.82h-6.17l1.37-1.64h4.12l.27-3.84,1.65-3.16h-1.85a1.52,1.52,0,0,0-.35.48l-1.09,1.72a.73.73,0,0,1-.55.34.49.49,0,0,1-.34-.14.67.67,0,0,1-.21-1l1.1-1.71h0a1.81,1.81,0,0,1,.75-.83,1.37,1.37,0,0,1,.82-.2h2.82a1.63,1.63,0,0,1,.61-.07m0-.34v0a2.73,2.73,0,0,0-.75.07h-2.74a1.81,1.81,0,0,0-1,.27,3.13,3.13,0,0,0-.9,1V101l-1.09,1.71a1.07,1.07,0,0,0,.34,1.44.73.73,0,0,0,.55.14,1.19,1.19,0,0,0,.89-.48l1.1-1.71a1,1,0,0,1,.2-.28h1.1l-1.37,2.61-.07.07v.06L123,108h-4l-.14.14-1.37,1.65-.55.61h7a1.92,1.92,0,0,0,.62-.13,1.34,1.34,0,0,0,.76-1c.06-.41.2-1.24.27-1.92l3,5.42.07.2h.2l2.06.07h.62l-.28-.55-3.7-7.47,1-2.06,1,1.3a1,1,0,0,0,.82.41H133a1,1,0,1,0,0-2.05h-2.2l-1.44-1.92-.2-.21a2,2,0,0,0-.76-.48,2.49,2.49,0,0,0-1.51-.34Z" fill="#fff"/><path d="M128.15,99.92a1.79,1.79,0,1,1,1.78-1.78A1.82,1.82,0,0,1,128.15,99.92Z" fill="#008246"/><path d="M128.15,96.49a1.58,1.58,0,1,1-1.65,1.58,1.66,1.66,0,0,1,1.65-1.58m0-.34a2,2,0,1,0,2,2,2,2,0,0,0-2-2Z" fill="#fff"/></g><g id="nopointer-test"><path d="M126.5,181.44a13.2,13.2,0,1,1,13.2-13.2,13.19,13.19,0,0,1-13.2,13.2Z" fill="#008246"/><path d="M126.5,155.49a12.75,12.75,0,1,1-12.75,12.75h0a12.75,12.75,0,0,1,12.74-12.75h0m0-.83a13.65,13.65,0,1,0,13.65,13.65A13.65,13.65,0,0,0,126.5,154.66Z" fill="#fff"/><path d="M124.26,164.72h-2.88c-1.22,0-2,.7-2,1.67v3.26a.71.71,0,1,0,1.41,0v-3.26c0-.07.06-.13.19-.2v9.74a.84.84,0,1,0,1.67,0V171h.57v4.93a.85.85,0,0,0,.84.84.84.84,0,0,0,.83-.84v-9.74c.13.07.19.13.19.2v3.26a.71.71,0,0,0,.71.71.7.7,0,0,0,.7-.71v-3.26A2.17,2.17,0,0,0,124.26,164.72Z" fill="#fff"/><circle cx="122.85" cy="162.8" r="1.54" fill="#fff"/><path d="M131.56,164.72h-2.88c-1.22,0-2,.7-2,1.67v3.26a.71.71,0,0,0,.71.71.7.7,0,0,0,.7-.71v-3.26c0-.07.07-.13.2-.2v9.74a.83.83,0,1,0,1.66,0V171h.58v4.93a.83.83,0,1,0,1.66,0v-9.74c.13.07.2.13.2.2v3.26a.7.7,0,0,0,.7.71.71.71,0,0,0,.71-.71v-3.26A2.19,2.19,0,0,0,131.56,164.72Z" fill="#fff"/><circle cx="130.09" cy="162.8" r="1.54" fill="#fff"/><circle cx="126.5" cy="161.39" r="1.54" fill="#fff"/></g><text transform="translate(149.14 170.81)" font-size="9.6" font-family="ArialMT, Arial" style="isolation:isolate">ASSEMB<tspan x="40.02" y="0" letter-spacing="-0.07em">L</tspan><tspan x="44.65" y="0" letter-spacing="-0.02em">Y</tspan><tspan x="50.88" y="0" xml:space="preserve"> POIN</tspan><tspan x="77.02" y="0" letter-spacing="-0.02em">T</tspan></text><g id="nopointer-test-2" data-name="nopointer-test"><path d="M147.64,1030.87a13.2,13.2,0,1,1,13.2-13.2,13.2,13.2,0,0,1-13.2,13.2Z" fill="#008246"/><path d="M147.64,1004.92a12.75,12.75,0,1,1-12.75,12.75h0a12.74,12.74,0,0,1,12.74-12.75h0m0-.83a13.65,13.65,0,1,0,13.65,13.64A13.65,13.65,0,0,0,147.64,1004.09Z" fill="#fff"/><path d="M145.4,1014.14h-2.89a1.75,1.75,0,0,0-2,1.67v3.27a.7.7,0,0,0,.7.7.7.7,0,0,0,.71-.7v-3.27c0-.06.06-.13.19-.19v9.74a.83.83,0,1,0,1.66,0v-4.94h.58v4.94a.83.83,0,0,0,.83.83.84.84,0,0,0,.84-.83v-9.74c.12.06.19.13.19.19v3.27a.7.7,0,0,0,.7.7.7.7,0,0,0,.71-.7v-3.27A2.19,2.19,0,0,0,145.4,1014.14Z" fill="#fff"/><circle cx="143.99" cy="1012.22" r="1.54" fill="#fff"/><path d="M152.7,1014.14h-2.88a1.76,1.76,0,0,0-2,1.67v3.27a.71.71,0,0,0,1.41,0v-3.27c0-.06.06-.13.19-.19v9.74a.84.84,0,0,0,1.67,0v-4.94h.57v4.94a.84.84,0,0,0,.84.83.83.83,0,0,0,.83-.83v-9.74c.13.06.19.13.19.19v3.27a.7.7,0,0,0,.71.7.7.7,0,0,0,.7-.7v-3.27A2.18,2.18,0,0,0,152.7,1014.14Z" fill="#fff"/><circle cx="151.23" cy="1012.22" r="1.54" fill="#fff"/><circle cx="147.64" cy="1010.81" r="1.54" fill="#fff"/></g></svg>