<?xml version="1.0" encoding="utf-8"?>
<!-- Generator: Adobe Illustrator 21.1.0, SVG Export Plug-In . SVG Version: 6.00 Build 0)  -->
<svg version="1.1" id="Layer_1" xmlns="http://www.w3.org/2000/svg" xmlns:xlink="http://www.w3.org/1999/xlink" x="0px" y="0px"
	 width="1920px" height="1080px" viewBox="0 0 1920 1080" enable-background="new 0 0 1920 1080" xml:space="preserve">
<g id="base">
	<g id="road1">
		<path fill="none" stroke="#878787" stroke-width="20" stroke-linecap="round" stroke-miterlimit="10" d="M542,334c0,0-24,50-28,71
			s-6,168-6,179s2,28,6,42s11,15,21,21"/>
		
			<line fill="none" stroke="#878787" stroke-width="20" stroke-linecap="round" stroke-miterlimit="10" x1="831" y1="334" x2="776" y2="721"/>
		<path fill="none" stroke="#878787" stroke-width="20" stroke-linecap="round" stroke-miterlimit="10" d="M1252,285
			c0,0,10,191,10,200s0,54-5,76s-16,66-11,105s13,122,9,150"/>
		<path fill="none" stroke="#878787" stroke-width="10" stroke-linecap="round" stroke-miterlimit="10" d="M517,401c0,0,34,7,63,18
			s217,90,217,90"/>
		<path fill="none" stroke="#878787" stroke-width="30" stroke-linecap="round" stroke-miterlimit="10" d="M146,647c0,0,239,4,271,5
			s182,32,207,37s162,34,194,42s165,44,197,50s165,33,195,35s84.57,7.6,93,9c54,9,45,36,110,71"/>
		<path fill="none" stroke="#878787" stroke-width="20" stroke-linecap="round" stroke-miterlimit="10" d="M682.72,706
			c0,0-38.72-42-58.72-46s-96-33-144-2"/>
		
			<line fill="none" stroke="#878787" stroke-width="20" stroke-linecap="round" stroke-miterlimit="10" x1="707" y1="832" x2="738" y2="721"/>
		
			<polyline fill="none" stroke="#878787" stroke-width="20" stroke-linecap="round" stroke-linejoin="round" stroke-miterlimit="10" points="
			535,836 906,836 927,765 		"/>
		<path fill="none" stroke="#878787" stroke-width="20" stroke-linecap="round" stroke-linejoin="round" stroke-miterlimit="10" d="
			M1253,383c0,0-187,9-200,9s-67-9-81,34s-3,78,0,83s22,9,53,11s113,6,136,7s99.94,0,99.94,0"/>
		
			<line fill="none" stroke="#878787" stroke-width="20" stroke-linecap="round" stroke-linejoin="round" stroke-miterlimit="10" x1="1050" y1="796" x2="1037" y2="854"/>
		
			<line fill="none" stroke="#878787" stroke-width="20" stroke-linecap="round" stroke-linejoin="round" stroke-miterlimit="10" x1="1176" y1="816" x2="1171" y2="901"/>
		
			<line fill="none" stroke="#878787" stroke-width="10" stroke-linecap="round" stroke-miterlimit="10" x1="1128" y1="816" x2="1113" y2="884"/>
		<path fill="none" stroke="#878787" stroke-width="10" stroke-linecap="round" stroke-miterlimit="10" d="M1262,558
			c0,0,8.78,0,18,0"/>
		<path fill="none" stroke="#878787" stroke-width="10" stroke-linecap="round" stroke-miterlimit="10" d="M1262,329
			c0,0,112-11,133-14s118-10,118-10"/>
		<path fill="none" stroke="#878787" stroke-width="35" stroke-linecap="round" stroke-miterlimit="10" d="M248.5,403.5
			c0,0,4.76,69.3,16.83,145.45C279.66,639.39,299.83,741.14,302,771"/>
		
			<line fill="none" stroke="#878787" stroke-width="20" stroke-linecap="round" stroke-miterlimit="10" x1="435.5" y1="408.5" x2="252.26" y2="446.37"/>
		
			<line fill="none" stroke="#878787" stroke-width="10" stroke-linecap="round" stroke-miterlimit="10" x1="514" y1="403" x2="438" y2="406"/>
		
			<line fill="none" stroke="#878787" stroke-width="20" stroke-linecap="round" stroke-miterlimit="10" x1="746" y1="901" x2="757" y2="840"/>
		
			<line fill="none" stroke="#878787" stroke-width="10" stroke-linecap="round" stroke-miterlimit="10" x1="852" y1="934" x2="858" y2="912"/>
		<path fill="none" stroke="#878787" stroke-width="10" stroke-linecap="round" stroke-miterlimit="10" d="M1387,868
			c0,0,11-30,26-43"/>
		<path fill="none" stroke="#878787" stroke-width="20" stroke-linecap="round" stroke-miterlimit="10" d="M692.56,464.45
			C746.4,486.9,801,511,801,511"/>
	</g>
	<g id="road2">
		<path fill="none" stroke="#F2F2F2" stroke-width="16" stroke-linecap="round" stroke-miterlimit="10" d="M542,334c0,0-24,50-28,71
			s-6,168-6,179s2,28,6,42s11,15,21,21"/>
		
			<line fill="none" stroke="#F2F2F2" stroke-width="16" stroke-linecap="round" stroke-miterlimit="10" x1="831" y1="334" x2="776" y2="721"/>
		<path fill="none" stroke="#F2F2F2" stroke-width="16" stroke-linecap="round" stroke-miterlimit="10" d="M1252,285
			c0,0,10,191,10,200s0,54-5,76s-16,66-11,105s13,122,9,150"/>
		<path fill="none" stroke="#F2F2F2" stroke-width="26" stroke-linecap="round" stroke-miterlimit="10" d="M146,647c0,0,239,4,271,5
			s182,32,207,37s162,34,194,42s165,44,197,50s165,33,195,35s84.57,7.6,93,9c54,9,45,36,110,71"/>
		<path fill="none" stroke="#F2F2F2" stroke-width="16" stroke-linecap="round" stroke-miterlimit="10" d="M682.72,706
			c0,0-38.72-42-58.72-46s-96-33-144-2"/>
		
			<polyline fill="none" stroke="#F2F2F2" stroke-width="16" stroke-linecap="round" stroke-linejoin="round" stroke-miterlimit="10" points="
			535,836 906,836 927,765 		"/>
		<path fill="none" stroke="#F2F2F2" stroke-width="16" stroke-linecap="round" stroke-linejoin="round" stroke-miterlimit="10" d="
			M1253,383c0,0-187,9-200,9s-67-9-81,34s-3,78,0,83s22,9,53,11s113,6,136,7s99.94,0,99.94,0"/>
		
			<line fill="none" stroke="#F2F2F2" stroke-width="16" stroke-linecap="round" stroke-linejoin="round" stroke-miterlimit="10" x1="1050" y1="796" x2="1037" y2="854"/>
		
			<line fill="none" stroke="#F2F2F2" stroke-width="16" stroke-linecap="round" stroke-linejoin="round" stroke-miterlimit="10" x1="1176" y1="816" x2="1171" y2="901"/>
		
			<line fill="none" stroke="#F2F2F2" stroke-width="6" stroke-linecap="round" stroke-miterlimit="10" x1="1128" y1="816" x2="1113" y2="884"/>
		<path fill="none" stroke="#F2F2F2" stroke-width="6" stroke-linecap="round" stroke-miterlimit="10" d="M1262,329
			c0,0,112-11,133-14s118-10,118-10"/>
		<path fill="none" stroke="#F2F2F2" stroke-width="31" stroke-linecap="round" stroke-miterlimit="10" d="M248.5,403.5
			c0,0,4.76,69.3,16.83,145.45C279.66,639.39,299.83,741.14,302,771"/>
		
			<line fill="none" stroke="#F2F2F2" stroke-width="16" stroke-linecap="round" stroke-miterlimit="10" x1="435.5" y1="408.5" x2="252.26" y2="446.37"/>
		
			<line fill="none" stroke="#F2F2F2" stroke-width="6" stroke-linecap="round" stroke-miterlimit="10" x1="514" y1="403" x2="438" y2="406"/>
		
			<line fill="none" stroke="#F2F2F2" stroke-width="10" stroke-linecap="round" stroke-miterlimit="10" x1="852" y1="934" x2="858" y2="912"/>
		<path fill="none" stroke="#F2F2F2" stroke-width="6" stroke-linecap="round" stroke-miterlimit="10" d="M1387,868c0,0,11-30,26-43
			"/>
		<path fill="none" stroke="#F2F2F2" stroke-width="6" stroke-linecap="round" stroke-miterlimit="10" d="M1262,558c0,0,8.78,0,18,0
			"/>
		
			<line fill="none" stroke="#F2F2F2" stroke-width="16" stroke-linecap="round" stroke-linejoin="round" stroke-miterlimit="10" x1="707" y1="832" x2="738" y2="721"/>
		
			<line fill="none" stroke="#F2F2F2" stroke-width="16" stroke-linecap="round" stroke-linejoin="round" stroke-miterlimit="10" x1="746" y1="901" x2="757" y2="840"/>
		<path fill="#F2F2F2" d="M498.57,664.4v-15.18l26.43-5.01c0,0,44.84,3.38,46.42,3.09s27.24,6.31,30.91,7.01
			C606,655,630,664,630,664l14,11l4,13h-35c0,0-66-11.15-68-13.08C543,673,498.57,664.4,498.57,664.4"/>
		<path fill="none" stroke="#F2F2F2" stroke-width="6" stroke-linecap="round" stroke-miterlimit="10" d="M517,401c0,0,34,7,63,18
			s217,90,217,90"/>
		<path fill="none" stroke="#F2F2F2" stroke-width="16" stroke-linecap="round" stroke-miterlimit="10" d="M692.56,464.45
			C746.4,486.9,801,511,801,511"/>
	</g>
	<g id="buildings">
		<polygon opacity="0.5" fill="#B8C2DD" enable-background="new    " points="1280,344 1568,322 1577,427 1588,427 1596,500 
			1292,529 		"/>
		<path opacity="0.5" fill="#B8C2DD" enable-background="new    " d="M1384,566l3,46l-116,14l9,114c0,0,8,86,82,50
			c0,0,66-124,218-124l-6-60h6l-4-58L1384,566z"/>
		<polygon opacity="0.5" fill="#B8C2DD" enable-background="new    " points="1584,600 1586,624 1612,621 1610,598 		"/>
		<polygon opacity="0.5" fill="#B8C2DD" enable-background="new    " points="1619,576 1623,623 1663,619 1659,573 		"/>
		<polygon opacity="0.5" fill="#B8C2DD" enable-background="new    " points="1663,552 1668,616 1783,607 1781,591 1792,590 
			1787,541 		"/>
		<circle opacity="0.5" fill="#B8C2DD" enable-background="new    " cx="1657.5" cy="455.5" r="16.5"/>
		<path opacity="0.5" fill="#B8C2DD" enable-background="new    " d="M1524,289l-231,21c0,0-19-68-13-124l287,4l5,37h-22l2,41l-29,2
			L1524,289z"/>
		<path opacity="0.5" fill="#B8C2DD" enable-background="new    " d="M1234,226h-34v26h-130v50h132v19h12.28l-0.28,19h-33v-18h-30
			v12h-27v-12h-37v8h-53v-8h-56.29l2.29-12l-126-25l-27,193l15,3l-6,59l-15-4c0,0-11,90-15,121s10,43,20,46s53,14,53,14l11.39-55.21
			L880,717l77,18l84,21l2-7l29,9l21-92l-43-7l-7,36h-19l5-26l-10.5,1.5l3-17L896,632l-4.13,21.96l-9.37-2.46l16-137l28,4l6-32
			l21-111h14l1.43-7.5H990v8l244-6v-49h4L1234,226z"/>
		<polygon opacity="0.5" fill="#B8C2DD" enable-background="new    " points="924,527 916,558 1006,564 1008,550 1022,550 1013,638 
			1060,641 1072,537 		"/>
		<polygon opacity="0.5" fill="#B8C2DD" enable-background="new    " points="1077,541 1077,566 1113,566 1113,543 		"/>
		<path opacity="0.5" fill="#B8C2DD" enable-background="new    " d="M1120,541c-1,2-4,32-4,32l28,1l10-31L1120,541z"/>
		<polygon opacity="0.5" fill="#B8C2DD" enable-background="new    " points="1165,543 1220,543 1231,721 1238,721 1241,771 
			1146,776 1088,771 1095,713 1160,710 1150,578 		"/>
		<polygon opacity="0.5" fill="#B8C2DD" enable-background="new    " points="1073,589 1086,580 1132,584 1146,589 1153,698 
			1098,702 1104,655 1065,650 		"/>
		<path opacity="0.5" fill="#B8C2DD" enable-background="new    " d="M1231,430v-17h-25v-12l-53,2v36h-13v10l-106-4v15h-22v42l142,7
			v-11l48,2v9h20v-9h23v-70H1231z"/>
		
			<rect x="1316.2" y="568.53" transform="matrix(0.9972 -0.0749 0.0749 0.9972 -39.4713 100.8766)" opacity="0.5" fill="#B8C2DD" enable-background="new    " width="18" height="16.31"/>
		
			<rect x="1337.2" y="566.53" transform="matrix(0.9972 -0.0749 0.0749 0.9972 -39.2625 102.4439)" opacity="0.5" fill="#B8C2DD" enable-background="new    " width="18" height="16.31"/>
		<path opacity="0.5" fill="#B8C2DD" enable-background="new    " d="M607.67,305l-49.17,87.5l95,41l66,12L740,474l52-22
			c0,0-12.68-76.06-3.06-155.64"/>
		<polygon opacity="0.5" fill="#B8C2DD" enable-background="new    " points="468,433 468,554 471,624 363,624 314,565 305,460 
			353,447 		"/>
		<path opacity="0.5" fill="#B8C2DD" enable-background="new    " d="M298.18,317L309,413h3l77-12l3.56-15.89L456,387
			c5,0,21,12,33-29c6.17-21.1,25.32-55.7,44.1-86.5"/>
		<path opacity="0.5" fill="#B8C2DD" enable-background="new    " d="M671,804v-20c0,0,21,0,22-25s-22-22-22-22l-98-28l-206-9l-7-6
			l4-9l-12-4c0,0-14,26-34,35l7,8l7-3l4,6v61h8v16h18v15h309V804z"/>
		<polygon opacity="0.5" fill="#B8C2DD" enable-background="new    " points="757,737 736,816 885,820 898,782 		"/>
		<path opacity="0.5" fill="#B8C2DD" enable-background="new    " d="M1031.39,812.71L1015,878l-46-7l-4,18l63,12
			c0,0-6.08,29.14-6,39c0.08,8.88,6,35,6,35l-10,21l-191-28l-76-12l13-59c0,0,2-32,39-37l113,4l20.39-71.29L1031.39,812.71z"/>
		<path opacity="0.5" fill="#B8C2DD" enable-background="new    " d="M1062,818l-8,34l8,2l-16,63c0,0-2.38,26.58,0,35
			c2.47,8.75,19,31,19,31l21-17l11-44l-13-5l13-53l9,2l7-37L1062,818z"/>
		<polygon opacity="0.3" fill="#008246" enable-background="new    " points="1285,549 1271,620 1381,607 1376,542 		"/>
		<g id="hre_1_" opacity="0.9">
			<path fill="#E3E3E3" d="M735.5,675.31c-9.36,0-21.44-3.26-35.89-9.68c-46.33-20.59-102.55-39.14-116.4-41.11
				c-1.69-0.24-3.58-0.4-5.58-0.56c-15.31-1.26-36.28-2.98-37.14-43.99V565.5h-7.95l3.95-128.33c0.23-1.1,2.5-10.36,13.82-10.36
				c2.75,0,5.85,0.54,9.23,1.62c20.87,6.64,131.35,63.09,140.21,67.62l27.11,85.34l39.45,3.94c-4,31.08-10.26,76.97-11.66,80
				C753.42,667.82,749.67,675.31,735.5,675.31z"/>
			<path fill="#FF0026" d="M550.31,428.31c2.59,0,5.55,0.52,8.78,1.55c20.39,6.49,127.3,61.04,139.43,67.24l26.62,83.81l0.6,1.88
				l1.96,0.2l36.93,3.69c-3.79,29.39-9.89,74.08-11.35,78.04c-1.26,2.53-4.61,9.09-17.79,9.09c-9.15,0-21.02-3.21-35.28-9.55
				c-46.44-20.64-102.86-39.24-116.79-41.23c-1.73-0.25-3.64-0.4-5.67-0.57c-14.74-1.21-34.92-2.87-35.76-42.49V567v-3h-3h-4.91
				l3.9-126.65C538.34,435.8,540.52,428.31,550.31,428.31 M550.31,425.31C537.07,425.31,535,437,535,437l-4,130h8v13
				c1,48,30,44,44,46s71,21,116,41c16.46,7.31,28.16,9.81,36.5,9.81c15.14,0,19.21-8.23,20.5-10.81c2-4,12-82,12-82l-40-4l-27-85
				c0,0-119-61-141-68C556.24,425.8,553.04,425.31,550.31,425.31L550.31,425.31z"/>
		</g>
		<g id="vents_1_" opacity="0.9">
			<circle fill="#E3E3E3" cx="1348" cy="554" r="6"/>
			<path fill="#FF0026" d="M1348,549c2.76,0,5,2.24,5,5s-2.24,5-5,5s-5-2.24-5-5S1345.24,549,1348,549 M1348,547c-3.87,0-7,3.13-7,7
				s3.13,7,7,7s7-3.13,7-7S1351.87,547,1348,547L1348,547z"/>
		</g>
		<g id="maria_1_" opacity="0.9">
			<circle fill="#E3E3E3" cx="1259" cy="818" r="6"/>
			<path fill="#FF0026" d="M1259,813c2.76,0,5,2.24,5,5s-2.24,5-5,5s-5-2.24-5-5S1256.24,813,1259,813 M1259,811c-3.87,0-7,3.13-7,7
				s3.13,7,7,7s7-3.13,7-7S1262.87,811,1259,811L1259,811z"/>
		</g>
		<g id="old_1_" opacity="0.9">
			<circle fill="#E3E3E3" cx="805" cy="511" r="6"/>
			<path fill="#FF0026" d="M805,506c2.76,0,5,2.24,5,5s-2.24,5-5,5s-5-2.24-5-5S802.24,506,805,506 M805,504c-3.87,0-7,3.13-7,7
				s3.13,7,7,7s7-3.13,7-7S808.87,504,805,504L805,504z"/>
		</g>
		<g id="exit2_1_" opacity="0.9">
			<circle fill="#E3E3E3" cx="641.13" cy="437" r="6"/>
			<path fill="#FF0026" d="M641.13,432c2.76,0,5,2.24,5,5s-2.24,5-5,5s-5-2.24-5-5S638.37,432,641.13,432 M641.13,430
				c-3.87,0-7,3.13-7,7s3.13,7,7,7s7-3.13,7-7S645,430,641.13,430L641.13,430z"/>
		</g>
		<g id="exit1_1_" opacity="0.9">
			<circle fill="#E3E3E3" cx="490.57" cy="478" r="6"/>
			<path fill="#FF0026" d="M490.57,473c2.76,0,5,2.24,5,5s-2.24,5-5,5s-5-2.24-5-5S487.81,473,490.57,473 M490.57,471
				c-3.87,0-7,3.13-7,7s3.13,7,7,7s7-3.13,7-7S494.44,471,490.57,471L490.57,471z"/>
		</g>
	</g>
</g>
<g id="landmarks-lud">
	<g id="hre" opacity="0.9">
		<path fill="#E3E3E3" d="M735.5,675.31c-9.36,0-21.44-3.26-35.89-9.68c-46.33-20.59-102.55-39.14-116.4-41.11
			c-1.69-0.24-3.58-0.4-5.58-0.56c-15.31-1.26-36.28-2.98-37.14-43.99V565.5h-7.95l3.95-128.33c0.23-1.1,2.5-10.36,13.82-10.36
			c2.75,0,5.85,0.54,9.23,1.62c20.87,6.64,131.35,63.09,140.21,67.62l27.11,85.34l39.45,3.94c-4,31.08-10.26,76.97-11.66,80
			C753.42,667.82,749.67,675.31,735.5,675.31z"/>
		<path fill="#FF0026" d="M550.31,428.31c2.59,0,5.55,0.52,8.78,1.55c20.39,6.49,127.3,61.04,139.43,67.24l26.62,83.81l0.6,1.88
			l1.96,0.2l36.93,3.69c-3.79,29.39-9.89,74.08-11.35,78.04c-1.26,2.53-4.61,9.09-17.79,9.09c-9.15,0-21.02-3.21-35.28-9.55
			c-46.44-20.64-102.86-39.24-116.79-41.23c-1.73-0.25-3.64-0.4-5.67-0.57c-14.74-1.21-34.92-2.87-35.76-42.49V567v-3h-3h-4.91
			l3.9-126.65C538.34,435.8,540.52,428.31,550.31,428.31 M550.31,425.31C537.07,425.31,535,437,535,437l-4,130h8v13
			c1,48,30,44,44,46s71,21,116,41c16.46,7.31,28.16,9.81,36.5,9.81c15.14,0,19.21-8.23,20.5-10.81c2-4,12-82,12-82l-40-4l-27-85
			c0,0-119-61-141-68C556.24,425.8,553.04,425.31,550.31,425.31L550.31,425.31z"/>
	</g>
	<g id="vents" opacity="0.9">
		<circle fill="#E3E3E3" cx="1348" cy="554" r="6"/>
		<path fill="#FF0026" d="M1348,549c2.76,0,5,2.24,5,5s-2.24,5-5,5s-5-2.24-5-5S1345.24,549,1348,549 M1348,547c-3.87,0-7,3.13-7,7
			s3.13,7,7,7s7-3.13,7-7S1351.87,547,1348,547L1348,547z"/>
	</g>
	<g id="maria" opacity="0.9">
		<circle fill="#E3E3E3" cx="1259" cy="818" r="6"/>
		<path fill="#FF0026" d="M1259,813c2.76,0,5,2.24,5,5s-2.24,5-5,5s-5-2.24-5-5S1256.24,813,1259,813 M1259,811c-3.87,0-7,3.13-7,7
			s3.13,7,7,7s7-3.13,7-7S1262.87,811,1259,811L1259,811z"/>
	</g>
	<g id="old" opacity="0.9">
		<circle fill="#E3E3E3" cx="805" cy="511" r="6"/>
		<path fill="#FF0026" d="M805,506c2.76,0,5,2.24,5,5s-2.24,5-5,5s-5-2.24-5-5S802.24,506,805,506 M805,504c-3.87,0-7,3.13-7,7
			s3.13,7,7,7s7-3.13,7-7S808.87,504,805,504L805,504z"/>
	</g>
	<g id="exit2" opacity="0.9">
		<circle fill="#E3E3E3" cx="641.13" cy="437" r="6"/>
		<path fill="#FF0026" d="M641.13,432c2.76,0,5,2.24,5,5s-2.24,5-5,5s-5-2.24-5-5S638.37,432,641.13,432 M641.13,430
			c-3.87,0-7,3.13-7,7s3.13,7,7,7s7-3.13,7-7S645,430,641.13,430L641.13,430z"/>
	</g>
	<g id="exit1" opacity="0.9">
		<circle fill="#E3E3E3" cx="490.57" cy="478" r="6"/>
		<path fill="#FF0026" d="M490.57,473c2.76,0,5,2.24,5,5s-2.24,5-5,5s-5-2.24-5-5S487.81,473,490.57,473 M490.57,471
			c-3.87,0-7,3.13-7,7s3.13,7,7,7s7-3.13,7-7S494.44,471,490.57,471L490.57,471z"/>
	</g>
</g>
<g id="nopointer-lud">
	<g id="route">
		<path fill="none" stroke="#008246" stroke-linejoin="round" stroke-miterlimit="10" d="M1303.5,586.5v-29h-57l-3,13l-3,15l-3,16
			l-3,21l-1,13v14l1,14l3,23l2,20l2,24l1,16l1,9l1,25v12v11l-16-2l-23-2l-26-4l-19-3l-16-3l-16-3l-27-5l-11-2l-26-5l-40-8l-15-3
			l-22-5l-32-8l-49-13l-39-10l-34-9l-42-10l-24-5l-37-8l-55-13l-8-7l-7-6l-11-9l-11-7c0,0-8.15-3.99-11-5c-4.63-1.65-19-5-19-5
			l-12-3l-10-2l-17-3c0,0-9.7-1.71-15-2c-3.25-0.18-15.77-0.68-19-1c0,0-0.32,0.31-1,0c-11-5-12-18-14-35c0,0-1-10-1-24
			s1-37.85,1-37.85h7"/>
		<path fill="none" stroke="#008246" stroke-linejoin="round" stroke-miterlimit="10" d="M614,443l2.5-1.5c0.16-0.36,66,27,66,27
			c0,2,4,7,8,8c3.69,0.92,102,45,102,45l-26,182"/>
	</g>
	<g id="arrows">
		<g>
			<g>
				<g>
					
						<rect x="514.21" y="541.66" transform="matrix(0.0235 -0.9997 0.9997 0.0235 -38.6167 1053.5576)" fill="none" width="11.58" height="9.77"/>
					<g>
						<polygon fill="#20925D" points="515.32,540.63 520.15,542.82 525.08,540.86 519.93,552.32 						"/>
					</g>
				</g>
				<g>
					
						<rect x="514.7" y="572.54" transform="matrix(1 -8.919816e-03 8.919816e-03 1 -5.138 4.6576)" fill="none" width="9.77" height="11.58"/>
					<g>
						<polygon fill="#20925D" points="514.59,572.52 519.49,574.55 524.36,572.43 519.57,584.06 						"/>
					</g>
				</g>
				<g>
					
						<rect x="517.71" y="605.12" transform="matrix(0.995 -0.0997 0.0997 0.995 -58.3049 55.1476)" fill="none" width="9.77" height="11.58"/>
					<g>
						<polygon fill="#20925D" points="517.21,605.65 522.27,607.22 526.93,604.67 523.22,616.68 						"/>
					</g>
				</g>
				<g>
					
						<rect x="535.24" y="626.99" transform="matrix(0.0581 -0.9983 0.9983 0.0581 -122.9735 1135.2288)" fill="none" width="9.77" height="11.58"/>
					<g>
						<polygon fill="#20925D" points="534.08,637.31 536.43,632.55 534.65,627.56 545.92,633.11 						"/>
					</g>
				</g>
				<g>
					
						<rect x="569.8" y="630.59" transform="matrix(0.1738 -0.9848 0.9848 0.1738 -151.8933 1091.719)" fill="none" width="9.77" height="11.58"/>
					<g>
						<polygon fill="#20925D" points="568.09,640.21 570.98,635.76 569.79,630.59 580.34,637.41 						"/>
					</g>
				</g>
				<g>
					
						<rect x="603.65" y="637.77" transform="matrix(0.2485 -0.9686 0.9686 0.2485 -166.0546 1073.0769)" fill="none" width="9.77" height="11.58"/>
					<g>
						<polygon fill="#20925D" points="601.8,646.83 605.02,642.61 604.23,637.36 614.23,644.97 						"/>
					</g>
				</g>
				<g>
					
						<rect x="635.97" y="649.97" transform="matrix(0.4799 -0.8773 0.8773 0.4799 -242.0131 903.2872)" fill="none" width="9.77" height="11.58"/>
					<g>
						<polygon fill="#20925D" points="633.47,657.23 637.63,653.94 638.16,648.65 645.97,658.5 						"/>
					</g>
				</g>
				<g>
					
						<rect x="663.74" y="670.65" transform="matrix(0.6585 -0.7526 0.7526 0.6585 -280.7407 734.2138)" fill="none" width="9.77" height="11.58"/>
					<g>
						<polygon fill="#20925D" points="661.02,676.32 665.8,674.01 667.46,668.97 672.95,680.27 						"/>
					</g>
				</g>
				<g>
					
						<rect x="695.49" y="682.55" transform="matrix(0.23 -0.9732 0.9732 0.23 -130.5964 1211.6298)" fill="none" width="9.77" height="11.58"/>
					<g>
						<polygon fill="#20925D" points="693.62,691.8 696.76,687.53 695.87,682.29 706.01,689.71 						"/>
					</g>
				</g>
				<g>
					
						<rect x="729.25" y="690.52" transform="matrix(0.2113 -0.9774 0.9774 0.2113 -101.5836 1266.7349)" fill="none" width="9.77" height="11.58"/>
					<g>
						<polygon fill="#20925D" points="727.5,699.85 730.57,695.51 729.57,690.3 739.85,697.52 						"/>
					</g>
				</g>
				<g>
					
						<rect x="763.21" y="697.83" transform="matrix(0.2076 -0.9782 0.9782 0.2076 -79.6586 1308.9104)" fill="none" width="9.77" height="11.58"/>
					<g>
						<polygon fill="#20925D" points="761.47,707.21 764.51,702.86 763.5,697.65 773.81,704.84 						"/>
					</g>
				</g>
				<g>
					
						<rect x="797.16" y="705.23" transform="matrix(0.2316 -0.9728 0.9728 0.2316 -75.3985 1326.5892)" fill="none" width="9.77" height="11.58"/>
					<g>
						<polygon fill="#20925D" points="795.32,714.43 798.47,710.16 797.59,704.93 807.72,712.36 						"/>
					</g>
				</g>
				<g>
					
						<rect x="830.98" y="713.35" transform="matrix(0.2559 -0.9667 0.9667 0.2559 -73.2282 1343.1423)" fill="none" width="9.77" height="11.58"/>
					<g>
						<polygon fill="#20925D" points="829.01,722.37 832.27,718.17 831.51,712.92 841.46,720.61 						"/>
					</g>
				</g>
				<g>
					
						<rect x="864.68" y="722.14" transform="matrix(0.2484 -0.9687 0.9687 0.2484 -51.5439 1389.4282)" fill="none" width="9.77" height="11.58"/>
					<g>
						<polygon fill="#20925D" points="862.62,731.29 865.84,727.08 865.05,721.83 875.05,729.44 						"/>
					</g>
				</g>
				<g>
					
						<rect x="898.34" y="730.77" transform="matrix(0.2484 -0.9687 0.9687 0.2484 -34.5999 1428.5242)" fill="none" width="9.77" height="11.58"/>
					<g>
						<polygon fill="#20925D" points="896.27,739.92 899.49,735.7 898.7,730.46 908.7,738.06 						"/>
					</g>
				</g>
				<g>
					
						<rect x="931.85" y="739.6" transform="matrix(0.2564 -0.9666 0.9666 0.2564 -23.918 1459.6993)" fill="none" width="9.77" height="11.58"/>
					<g>
						<polygon fill="#20925D" points="929.82,748.74 933.08,744.55 932.33,739.3 942.27,746.99 						"/>
					</g>
				</g>
				<g>
					
						<rect x="965.25" y="748.5" transform="matrix(0.2425 -0.9701 0.9701 0.2425 3.0907 1512.541)" fill="none" width="9.77" height="11.58"/>
					<g>
						<polygon fill="#20925D" points="963.5,757.54 966.7,753.3 965.87,748.06 975.92,755.6 						"/>
					</g>
				</g>
				<g>
					
						<rect x="999.07" y="756.56" transform="matrix(0.2216 -0.9751 0.9751 0.2216 38.0812 1572.4004)" fill="none" width="9.77" height="11.58"/>
					<g>
						<polygon fill="#20925D" points="997.35,765.75 1000.46,761.45 999.52,756.22 1009.73,763.55 						"/>
					</g>
				</g>
				<g>
					
						<rect x="1033.26" y="763.37" transform="matrix(0.1961 -0.9806 0.9806 0.1961 80.336 1636.3223)" fill="none" width="9.77" height="11.58"/>
					<g>
						<polygon fill="#20925D" points="1031.48,772.88 1034.47,768.49 1033.39,763.3 1043.79,770.36 						"/>
					</g>
				</g>
				<g>
					
						<rect x="1067.22" y="770.19" transform="matrix(0.1888 -0.982 0.982 0.1888 107.6701 1682.2944)" fill="none" width="9.77" height="11.58"/>
					<g>
						<polygon fill="#20925D" points="1065.58,779.68 1068.54,775.28 1067.42,770.09 1077.87,777.07 						"/>
					</g>
				</g>
				<g>
					
						<rect x="1101.5" y="776.55" transform="matrix(0.1821 -0.9833 0.9833 0.1821 135.6557 1727.7699)" fill="none" width="9.77" height="11.58"/>
					<g>
						<polygon fill="#20925D" points="1099.74,786.14 1102.67,781.72 1101.52,776.53 1112.01,783.45 						"/>
					</g>
				</g>
				<g>
					
						<rect x="1135.68" y="782.89" transform="matrix(0.1843 -0.9829 0.9829 0.1843 155.1938 1764.3575)" fill="none" width="9.77" height="11.58"/>
					<g>
						<polygon fill="#20925D" points="1133.88,792.48 1136.82,788.06 1135.68,782.88 1146.16,789.81 						"/>
					</g>
				</g>
				<g>
					
						<rect x="1169.95" y="788.85" transform="matrix(0.156 -0.9878 0.9878 0.156 206.6584 1831.1406)" fill="none" width="9.77" height="11.58"/>
					<g>
						<polygon fill="#20925D" points="1168.2,798.66 1171.01,794.16 1169.72,789.01 1180.4,795.64 						"/>
					</g>
				</g>
				<g>
					
						<rect x="1204.01" y="794.14" transform="matrix(0.0866 -0.9962 0.9962 0.0866 307.2705 1935.0015)" fill="none" width="9.77" height="11.58"/>
					<g>
						<polygon fill="#20925D" points="1202.85,804.17 1205.34,799.49 1203.69,794.44 1214.8,800.31 						"/>
					</g>
				</g>
				<g>
					
						<rect x="1238.71" y="797.49" transform="matrix(0.124 -0.9923 0.9923 0.124 292.3134 1937.6732)" fill="none" width="9.77" height="11.58"/>
					<g>
						<polygon fill="#20925D" points="1237.23,807.51 1239.89,802.92 1238.44,797.82 1249.33,804.1 						"/>
					</g>
				</g>
				<g>
					
						<rect x="1239.2" y="763.87" transform="matrix(0.9992 -0.04 0.04 0.9992 -29.7907 50.3794)" fill="none" width="9.77" height="11.58"/>
					<g>
						<polygon fill="#20925D" points="1249.18,775.29 1244.22,773.41 1239.42,775.68 1243.84,763.92 						"/>
					</g>
				</g>
				<g>
					
						<rect x="1237.09" y="729.33" transform="matrix(0.9981 -0.0624 0.0624 0.9981 -43.4493 78.9281)" fill="none" width="9.77" height="11.58"/>
					<g>
						<polygon fill="#20925D" points="1247.02,740.53 1242.02,738.76 1237.27,741.14 1241.42,729.28 						"/>
					</g>
				</g>
				<g>
					
						<rect x="1233.86" y="694.59" transform="matrix(0.995 -0.0995 0.0995 0.995 -63.5426 126.7357)" fill="none" width="9.77" height="11.58"/>
					<g>
						<polygon fill="#20925D" points="1244.33,705.72 1239.26,704.14 1234.61,706.69 1238.32,694.68 						"/>
					</g>
				</g>
				<g>
					
						<rect x="1229.88" y="660.21" transform="matrix(0.9916 -0.1293 0.1293 0.9916 -75.7486 165.2472)" fill="none" width="9.77" height="11.58"/>
					<g>
						<polygon fill="#20925D" points="1240.41,671.06 1235.3,669.63 1230.72,672.32 1234.07,660.21 						"/>
					</g>
				</g>
				<g>
					
						<rect x="1228.13" y="626.23" transform="matrix(0.0767 -0.9971 0.9971 0.0767 510.0245 1813.0016)" fill="none" width="11.58" height="9.77"/>
					<g>
						<polygon fill="#20925D" points="1238.25,637.43 1233.54,634.99 1228.51,636.68 1234.27,625.51 						"/>
					</g>
				</g>
				<g>
					
						<rect x="1232.66" y="591.88" transform="matrix(0.1843 -0.9829 0.9829 0.1843 423.6613 1704.0184)" fill="none" width="11.58" height="9.77"/>
					<g>
						<polygon fill="#20925D" points="1242.1,603.46 1237.68,600.52 1232.5,601.66 1239.44,591.18 						"/>
					</g>
				</g>
				<g>
					
						<rect x="1239.57" y="557.92" transform="matrix(0.2249 -0.9744 0.9744 0.2249 416.8944 1649.6846)" fill="none" width="11.58" height="9.77"/>
					<g>
						<polygon fill="#20925D" points="1248.73,569.57 1244.44,566.45 1239.21,567.37 1246.57,557.19 						"/>
					</g>
				</g>
				<g>
					<rect x="1269.98" y="552.61" fill="none" width="11.58" height="9.77"/>
					<g>
						<polygon fill="#20925D" points="1269.98,562.39 1272.05,557.5 1269.98,552.61 1281.55,557.5 						"/>
					</g>
				</g>
				<g>
					<rect x="1298.61" y="558.71" fill="none" width="9.77" height="11.58"/>
					<g>
						<polygon fill="#20925D" points="1298.61,558.71 1303.5,560.79 1308.39,558.71 1303.5,570.29 						"/>
					</g>
				</g>
			</g>
		</g>
		<g>
			<g>
				<g>
					
						<rect x="766.4" y="660.03" transform="matrix(0.1406 -0.9901 0.9901 0.1406 5.316 1335.9568)" fill="none" width="11.58" height="9.77"/>
					<g>
						<polygon fill="#20925D" points="768.1,658.57 772.64,661.31 777.77,659.94 771.31,670.72 						"/>
					</g>
				</g>
				<g>
					
						<rect x="771.27" y="625.64" transform="matrix(0.1406 -0.9901 0.9901 0.1406 43.5459 1311.2257)" fill="none" width="11.58" height="9.77"/>
					<g>
						<polygon fill="#20925D" points="772.98,624.18 777.53,626.92 782.66,625.55 776.19,636.33 						"/>
					</g>
				</g>
				<g>
					
						<rect x="776.17" y="591.25" transform="matrix(0.1406 -0.9901 0.9901 0.1406 81.803 1286.5092)" fill="none" width="11.58" height="9.77"/>
					<g>
						<polygon fill="#20925D" points="777.87,589.79 782.41,592.53 787.54,591.16 781.08,601.94 						"/>
					</g>
				</g>
				<g>
					
						<rect x="781.05" y="556.85" transform="matrix(0.1406 -0.9901 0.9901 0.1406 120.0513 1261.7822)" fill="none" width="11.58" height="9.77"/>
					<g>
						<polygon fill="#20925D" points="782.75,555.4 787.3,558.14 792.43,556.77 785.96,567.55 						"/>
					</g>
				</g>
				<g>
					
						<rect x="785.92" y="522.47" transform="matrix(0.1406 -0.9901 0.9901 0.1406 158.2854 1237.0515)" fill="none" width="11.58" height="9.77"/>
					<g>
						<polygon fill="#20925D" points="787.63,521.01 792.18,523.75 797.31,522.38 790.84,533.16 						"/>
					</g>
				</g>
				<g>
					
						<rect x="761.35" y="503.96" transform="matrix(0.4075 -0.9132 0.9132 0.4075 -11.5091 1001.7584)" fill="none" width="9.77" height="11.58"/>
					<g>
						<polygon fill="#20925D" points="758.98,511.87 762.87,508.25 762.96,502.94 771.54,512.12 						"/>
					</g>
				</g>
				<g>
					
						<rect x="729.57" y="489.91" transform="matrix(0.4063 -0.9137 0.9137 0.4063 -16.9032 965.3857)" fill="none" width="9.77" height="11.58"/>
					<g>
						<polygon fill="#20925D" points="727.25,497.75 731.13,494.13 731.22,488.82 739.82,497.99 						"/>
					</g>
				</g>
				<g>
					
						<rect x="697.9" y="475.79" transform="matrix(0.3992 -0.9169 0.9169 0.3992 -19.3055 933.6982)" fill="none" width="9.77" height="11.58"/>
					<g>
						<polygon fill="#20925D" points="695.48,483.81 699.33,480.16 699.38,474.85 708.04,483.96 						"/>
					</g>
				</g>
				<g>
					
						<rect x="668.34" y="459.18" transform="matrix(0.3654 -0.9308 0.9308 0.3654 -5.5984 921.7256)" fill="none" width="9.77" height="11.58"/>
					<g>
						<polygon fill="#20925D" points="666.16,467.37 669.87,463.58 669.73,458.27 678.72,467.05 						"/>
					</g>
				</g>
				<g>
					
						<rect x="636.24" y="446.28" transform="matrix(0.3729 -0.9279 0.9279 0.3729 -17.4057 878.3834)" fill="none" width="9.77" height="11.58"/>
					<g>
						<polygon fill="#20925D" points="633.87,454.46 637.61,450.7 637.51,445.39 646.43,454.24 						"/>
					</g>
				</g>
			</g>
		</g>
	</g>
	<g id="label">
		
			<text transform="matrix(0.9818 0.1897 -0.1897 0.9818 542.5533 668.5677)" fill="#2D2D2D" font-family="'Arial'" font-size="13.9982px">Ludgate Hill</text>
		
			<text transform="matrix(0.9993 0.0382 -0.0382 0.9993 190.2166 651.8188)" fill="#2D2D2D" font-family="'Arial'" font-size="14px">Fleet St</text>
		
			<text transform="matrix(0.9712 0.2383 -0.2383 0.9712 953.643 770.8631)" fill="#2D2D2D" font-family="'Arial'" font-size="14px">Ludgate Hill</text>
		
			<text transform="matrix(0.0311 0.9995 -0.9995 0.0309 1254.0236 394.608)" fill="#2D2D2D" font-family="'Arial'" font-size="12.0005px">Warwick Ln</text>
		<path fill="none" d="M976,430c14-43,68-34,81-34"/>
		<g>
			
				<text transform="matrix(0.1326 -0.9912 0.9912 0.1325 813.6287 488.7763)" fill="#2D2D2D" font-family="'Arial'" font-size="12px">Old Balley</text>
		</g>
		<g>
			
				<text transform="matrix(0.1356 0.9908 -0.9908 0.1356 252.0712 481.105)" fill="#2D2D2D" font-family="'Arial'" font-size="14.0015px">Farringdon St</text>
		</g>
		<g>
			
				<text transform="matrix(0.0283 -0.9996 0.9996 0.0283 509.6609 572.8395)" fill="#2D2D2D" font-family="'Arial'" font-size="10px">Limeburner Ln</text>
		</g>
		<g>
			<text transform="matrix(0.9789 -0.204 0.204 0.979 325.3945 435.057)" fill="#2D2D2D" font-family="'Arial'" font-size="11px">Old Fleet Ln</text>
		</g>
		<g>
			<g>
				<circle fill="#008246" cx="1303.14" cy="596.25" r="10.94"/>
				<path fill="none" d="M1303.14,585.59c5.88,0,10.65,4.77,10.65,10.65s-4.77,10.65-10.65,10.65s-10.65-4.77-10.65-10.65l0,0
					c0-5.88,4.75-10.64,10.63-10.65C1303.13,585.59,1303.13,585.59,1303.14,585.59 M1303.14,584.93c-6.24,0-11.31,5.07-11.31,11.31
					s5.07,11.31,11.31,11.31s11.31-5.07,11.31-11.31S1309.39,584.93,1303.14,584.93z"/>
			</g>
			<g>
				<path fill="#FFFFFF" d="M1301.35,593.33h-2.26c-0.84-0.09-1.59,0.51-1.69,1.35c0,0.02,0,0.05-0.01,0.07v2.74
					c0,0.32,0.25,0.57,0.57,0.57s0.57-0.25,0.57-0.57v-2.74c0-0.09,0.09-0.09,0.19-0.19v8.01c0,0.36,0.29,0.66,0.66,0.66
					c0.36,0,0.66-0.29,0.66-0.66v-4.05h0.48v4.05c0,0.36,0.29,0.66,0.66,0.66c0.36,0,0.66-0.29,0.66-0.66v-8.11
					c0.1,0.01,0.18,0.09,0.19,0.19v2.74c0.02,0.31,0.26,0.54,0.57,0.57c0.31,0.01,0.55-0.23,0.57-0.53c0-0.01,0-0.02,0-0.03v-2.74
					C1302.99,593.79,1302.2,593.21,1301.35,593.33z"/>
				<circle fill="#FFFFFF" cx="1300.12" cy="591.72" r="1.32"/>
				<path fill="#FFFFFF" d="M1307.38,593.33h-2.26c-0.84-0.09-1.59,0.51-1.69,1.35c0,0.02,0,0.05-0.01,0.07v2.74
					c0.02,0.31,0.26,0.54,0.57,0.57c0.31,0.01,0.55-0.23,0.57-0.53c0-0.01,0-0.02,0-0.03v-2.74c0-0.09,0.09-0.09,0.19-0.19v8.01
					c0,0.36,0.29,0.66,0.66,0.66c0.36,0,0.66-0.29,0.66-0.66v-4.05h0.48v4.05c0,0.36,0.29,0.66,0.66,0.66
					c0.36,0,0.66-0.29,0.66-0.66v-8.11c0.1,0.01,0.18,0.09,0.19,0.19v2.74c0,0.32,0.25,0.57,0.57,0.57s0.57-0.25,0.57-0.57v-2.74
					C1309.08,593.79,1308.42,593.33,1307.38,593.33z"/>
				<circle fill="#FFFFFF" cx="1306.25" cy="591.72" r="1.32"/>
				<circle fill="#FFFFFF" cx="1303.14" cy="590.5" r="1.32"/>
			</g>
		</g>
		<g>
			<circle fill="#008246" cx="534.35" cy="535.65" r="7.65"/>
			<polygon fill="#FFFFFF" points="538.23,534.19 538.23,540.99 537.27,541.95 529.7,541.95 530.62,541.15 530.62,534.23 
				528.97,534.23 534.35,529.35 539.69,534.19 			"/>
			<g id="exit_4_">
				<g>
					<g>
						<path fill="#008246" d="M535.89,540.8l-1.85-3.38c-0.04,0.38-0.15,1.08-0.19,1.38c-0.04,0.42-0.46,0.54-0.65,0.58l0,0h-3.69
							l0.92-1.11h2.23l0.15-2.04l0.88-1.61h-0.77h-0.04c-0.04,0.04-0.12,0.15-0.15,0.23l-0.62,0.96c-0.08,0.15-0.23,0.23-0.42,0.23
							c-0.08,0-0.19-0.04-0.27-0.08c-0.23-0.15-0.31-0.42-0.15-0.65l0.62-0.96l0,0c0.19-0.27,0.35-0.42,0.46-0.5
							c0.19-0.12,0.38-0.12,0.5-0.12c0.04,0,0.04,0,0.08,0h1.46c0.15,0,0.31-0.04,0.42-0.04c0.77,0,1.11,0.23,1.23,0.38
							c0.04,0.04,0.08,0.08,0.12,0.12l0.85,1.11h1.31c0.27,0,0.5,0.23,0.5,0.5c0,0.27-0.23,0.5-0.5,0.5h-1.54
							c-0.15,0-0.31-0.08-0.38-0.19l-0.65-0.88l-0.62,1.35l2.15,4.38L535.89,540.8z"/>
						<path fill="#FFFFFF" d="M534.81,533.69c0.73,0,1.04,0.23,1.15,0.38c0.04,0.04,0.08,0.04,0.12,0.08l0.88,1.15h1.35
							c0.19,0,0.38,0.15,0.38,0.38c0,0.23-0.15,0.38-0.38,0.38h-1.54c-0.12,0-0.23-0.04-0.31-0.15l-0.77-1l-0.73,1.58l2.11,4.27
							l-1.15-0.04l-1.96-3.58c0,0-0.19,1.27-0.23,1.69c-0.04,0.46-0.58,0.46-0.58,0.46h-3.46l0.77-0.92h2.31l0.15-2.15l0.92-1.77
							l0,0h-0.96h-0.04h-0.04c-0.04,0.04-0.15,0.15-0.19,0.27l-0.62,0.96c-0.08,0.12-0.19,0.19-0.31,0.19
							c-0.08,0-0.15-0.04-0.19-0.08c-0.19-0.12-0.23-0.35-0.12-0.54l0.62-0.96l0,0c0.15-0.27,0.31-0.42,0.42-0.46
							c0.15-0.12,0.35-0.12,0.46-0.12c0.04,0,0.04,0,0.08,0h1.5C534.54,533.69,534.7,533.69,534.81,533.69 M534.81,533.5v0.19V533.5
							c-0.15,0-0.27,0-0.42,0.04h-1.46c-0.04,0-0.04,0-0.08,0c-0.15,0-0.35,0.04-0.54,0.15c-0.15,0.08-0.31,0.27-0.5,0.54
							c0,0,0,0,0,0.04l-0.62,0.96c-0.15,0.27-0.08,0.65,0.19,0.81c0.08,0.08,0.19,0.08,0.31,0.08c0.19,0,0.38-0.12,0.5-0.27
							l0.62-0.96c0.04-0.08,0.08-0.12,0.12-0.15l0,0h0.62l-0.77,1.46l-0.04,0.04v0.04l-0.12,1.92h-2.11h-0.12l-0.08,0.08l-0.77,0.92
							l-0.31,0.35h0.46h3.46l0,0l0,0c0,0,0.15,0,0.35-0.08c0.23-0.12,0.38-0.31,0.42-0.58c0.04-0.23,0.12-0.69,0.15-1.08l1.65,3.04
							l0.04,0.12h0.12l1.15,0.04h0.35l-0.15-0.31l-2.08-4.19l0.54-1.15l0.54,0.73c0.12,0.15,0.27,0.23,0.46,0.23h1.54
							c0.31,0,0.58-0.27,0.58-0.58s-0.27-0.58-0.58-0.58H537l-0.81-1.08c-0.04-0.04-0.08-0.08-0.12-0.12
							c-0.12-0.12-0.23-0.19-0.42-0.27C535.46,533.54,535.16,533.5,534.81,533.5L534.81,533.5z"/>
					</g>
					<g>
						<path fill="#008246" d="M535.5,533.65c-0.54,0-1-0.46-1-1c0-0.54,0.46-1,1-1s1,0.46,1,1
							C536.5,533.19,536.04,533.65,535.5,533.65z"/>
						<path fill="#FFFFFF" d="M535.5,531.73c0.5,0,0.92,0.42,0.92,0.88c0,0.46-0.42,0.88-0.92,0.88s-0.92-0.42-0.92-0.88
							C534.58,532.15,535,531.73,535.5,531.73 M535.5,531.54c-0.62,0-1.11,0.5-1.11,1.11c0,0.62,0.5,1.11,1.11,1.11
							c0.62,0,1.11-0.5,1.11-1.11C536.62,532.04,536.08,531.54,535.5,531.54L535.5,531.54z"/>
					</g>
				</g>
			</g>
		</g>
		<g>
			<circle fill="#008246" cx="611.35" cy="450.65" r="7.65"/>
			<polygon fill="#FFFFFF" points="615.23,449.19 615.23,455.99 614.27,456.95 606.7,456.95 607.62,456.15 607.62,449.23 
				605.97,449.23 611.35,444.35 616.69,449.19 			"/>
			<g id="exit_1_">
				<g>
					<g>
						<path fill="#008246" d="M612.89,455.8l-1.85-3.38c-0.04,0.38-0.15,1.08-0.19,1.38c-0.04,0.42-0.46,0.54-0.65,0.58l0,0h-3.69
							l0.92-1.11h2.23l0.15-2.04l0.88-1.61h-0.77h-0.04c-0.04,0.04-0.12,0.15-0.15,0.23l-0.62,0.96c-0.08,0.15-0.23,0.23-0.42,0.23
							c-0.08,0-0.19-0.04-0.27-0.08c-0.23-0.15-0.31-0.42-0.15-0.65l0.62-0.96l0,0c0.19-0.27,0.35-0.42,0.46-0.5
							c0.19-0.12,0.38-0.12,0.5-0.12c0.04,0,0.04,0,0.08,0h1.46c0.15,0,0.31-0.04,0.42-0.04c0.77,0,1.11,0.23,1.23,0.38
							c0.04,0.04,0.08,0.08,0.12,0.12l0.85,1.11h1.31c0.27,0,0.5,0.23,0.5,0.5s-0.23,0.5-0.5,0.5h-1.54c-0.15,0-0.31-0.08-0.38-0.19
							l-0.65-0.88l-0.62,1.35l2.15,4.38L612.89,455.8z"/>
						<path fill="#FFFFFF" d="M611.81,448.69c0.73,0,1.04,0.23,1.15,0.38c0.04,0.04,0.08,0.04,0.12,0.08l0.88,1.15h1.35
							c0.19,0,0.38,0.15,0.38,0.38s-0.15,0.38-0.38,0.38h-1.54c-0.12,0-0.23-0.04-0.31-0.15l-0.77-1l-0.73,1.58l2.11,4.27
							l-1.15-0.04l-1.96-3.58c0,0-0.19,1.27-0.23,1.69c-0.04,0.46-0.58,0.46-0.58,0.46h-3.46l0.77-0.92h2.31l0.15-2.15l0.92-1.77
							l0,0h-0.96h-0.04h-0.04c-0.04,0.04-0.15,0.15-0.19,0.27l-0.62,0.96c-0.08,0.12-0.19,0.19-0.31,0.19
							c-0.08,0-0.15-0.04-0.19-0.08c-0.19-0.12-0.23-0.35-0.12-0.54l0.62-0.96l0,0c0.15-0.27,0.31-0.42,0.42-0.46
							c0.15-0.12,0.35-0.12,0.46-0.12c0.04,0,0.04,0,0.08,0h1.5C611.54,448.69,611.7,448.69,611.81,448.69 M611.81,448.5v0.19V448.5
							c-0.15,0-0.27,0-0.42,0.04h-1.46c-0.04,0-0.04,0-0.08,0c-0.15,0-0.35,0.04-0.54,0.15c-0.15,0.08-0.31,0.27-0.5,0.54
							c0,0,0,0,0,0.04l-0.62,0.96c-0.15,0.27-0.08,0.65,0.19,0.81c0.08,0.08,0.19,0.08,0.31,0.08c0.19,0,0.38-0.12,0.5-0.27
							l0.62-0.96c0.04-0.08,0.08-0.12,0.12-0.15l0,0h0.62l-0.77,1.46l-0.04,0.04v0.04l-0.12,1.92h-2.11h-0.12l-0.08,0.08l-0.77,0.92
							l-0.31,0.35h0.46h3.46l0,0l0,0c0,0,0.15,0,0.35-0.08c0.23-0.12,0.38-0.31,0.42-0.58c0.04-0.23,0.12-0.69,0.15-1.08l1.65,3.04
							l0.04,0.12h0.12l1.15,0.04h0.35l-0.15-0.31l-2.08-4.19l0.54-1.15l0.54,0.73c0.12,0.15,0.27,0.23,0.46,0.23h1.54
							c0.31,0,0.58-0.27,0.58-0.58s-0.27-0.58-0.58-0.58H614l-0.81-1.08c-0.04-0.04-0.08-0.08-0.12-0.12
							c-0.12-0.12-0.23-0.19-0.42-0.27C612.46,448.54,612.16,448.5,611.81,448.5L611.81,448.5z"/>
					</g>
					<g>
						<path fill="#008246" d="M612.5,448.65c-0.54,0-1-0.46-1-1s0.46-1,1-1s1,0.46,1,1S613.04,448.65,612.5,448.65z"/>
						<path fill="#FFFFFF" d="M612.5,446.73c0.5,0,0.92,0.42,0.92,0.88s-0.42,0.88-0.92,0.88s-0.92-0.42-0.92-0.88
							S612,446.73,612.5,446.73 M612.5,446.54c-0.62,0-1.11,0.5-1.11,1.11c0,0.62,0.5,1.11,1.11,1.11c0.62,0,1.11-0.5,1.11-1.11
							C613.62,447.04,613.08,446.54,612.5,446.54L612.5,446.54z"/>
					</g>
				</g>
			</g>
		</g>
		<rect x="110.5" y="84.9" fill="#FFFFFF" stroke="#2D2D2D" stroke-width="2" stroke-miterlimit="10" width="232" height="121.1"/>
		<g>
			<circle fill="#008246" cx="157.6" cy="118.4" r="19.9"/>
			<polygon fill="#FFFFFF" points="167.7,114.6 167.7,132.3 165.2,134.8 145.5,134.8 147.9,132.7 147.9,114.7 143.6,114.7 
				157.6,102 171.5,114.6 			"/>
			<g id="exit_14_">
				<g>
					<g>
						<path fill="#008246" d="M161.6,131.8l-4.8-8.8c-0.1,1-0.4,2.8-0.5,3.6c-0.1,1.1-1.2,1.4-1.7,1.5l0,0H145l2.4-2.9h5.8l0.4-5.3
							l2.3-4.2h-2h-0.1c-0.1,0.1-0.3,0.4-0.4,0.6l-1.6,2.5c-0.2,0.4-0.6,0.6-1.1,0.6c-0.2,0-0.5-0.1-0.7-0.2
							c-0.6-0.4-0.8-1.1-0.4-1.7l1.6-2.5l0,0c0.5-0.7,0.9-1.1,1.2-1.3c0.5-0.3,1-0.3,1.3-0.3c0.1,0,0.1,0,0.2,0h3.8
							c0.4,0,0.8-0.1,1.1-0.1c2,0,2.9,0.6,3.2,1c0.1,0.1,0.2,0.2,0.3,0.3l2.2,2.9h3.4c0.7,0,1.3,0.6,1.3,1.3s-0.6,1.3-1.3,1.3h-4
							c-0.4,0-0.8-0.2-1-0.5l-1.7-2.3l-1.6,3.5l5.6,11.4L161.6,131.8z"/>
						<path fill="#FFFFFF" d="M158.8,113.3c1.9,0,2.7,0.6,3,1c0.1,0.1,0.2,0.1,0.3,0.2l2.3,3h3.5c0.5,0,1,0.4,1,1s-0.4,1-1,1h-4
							c-0.3,0-0.6-0.1-0.8-0.4l-2-2.6l-1.9,4.1l5.5,11.1l-3-0.1l-5.1-9.3c0,0-0.5,3.3-0.6,4.4c-0.1,1.2-1.5,1.2-1.5,1.2h-9l2-2.4h6
							l0.4-5.6l2.4-4.6l0,0h-2.5h-0.1h-0.1c-0.1,0.1-0.4,0.4-0.5,0.7l-1.6,2.5c-0.2,0.3-0.5,0.5-0.8,0.5c-0.2,0-0.4-0.1-0.5-0.2
							c-0.5-0.3-0.6-0.9-0.3-1.4l1.6-2.5l0,0c0.4-0.7,0.8-1.1,1.1-1.2c0.4-0.3,0.9-0.3,1.2-0.3c0.1,0,0.1,0,0.2,0h3.9
							C158.1,113.3,158.5,113.3,158.8,113.3 M158.8,112.8v0.5V112.8c-0.4,0-0.7,0-1.1,0.1h-3.8c-0.1,0-0.1,0-0.2,0
							c-0.4,0-0.9,0.1-1.4,0.4c-0.4,0.2-0.8,0.7-1.3,1.4c0,0,0,0,0,0.1l-1.6,2.5c-0.4,0.7-0.2,1.7,0.5,2.1c0.2,0.2,0.5,0.2,0.8,0.2
							c0.5,0,1-0.3,1.3-0.7l1.6-2.5c0.1-0.2,0.2-0.3,0.3-0.4l0,0h1.6l-2,3.8l-0.1,0.1v0.1l-0.3,5h-5.5h-0.3l-0.2,0.2l-2,2.4
							l-0.8,0.9h1.2h9l0,0l0,0c0,0,0.4,0,0.9-0.2c0.6-0.3,1-0.8,1.1-1.5c0.1-0.6,0.3-1.8,0.4-2.8l4.3,7.9l0.1,0.3h0.3l3,0.1h0.9
							l-0.4-0.8l-5.4-10.9l1.4-3l1.4,1.9c0.3,0.4,0.7,0.6,1.2,0.6h4c0.8,0,1.5-0.7,1.5-1.5s-0.7-1.5-1.5-1.5h-3.2l-2.1-2.8
							c-0.1-0.1-0.2-0.2-0.3-0.3c-0.3-0.3-0.6-0.5-1.1-0.7C160.5,112.9,159.7,112.8,158.8,112.8L158.8,112.8z"/>
					</g>
					<g>
						<path fill="#008246" d="M160.6,113.2c-1.4,0-2.6-1.2-2.6-2.6s1.2-2.6,2.6-2.6s2.6,1.2,2.6,2.6S162,113.2,160.6,113.2z"/>
						<path fill="#FFFFFF" d="M160.6,108.2c1.3,0,2.4,1.1,2.4,2.3s-1.1,2.3-2.4,2.3s-2.4-1.1-2.4-2.3S159.3,108.2,160.6,108.2
							 M160.6,107.7c-1.6,0-2.9,1.3-2.9,2.9s1.3,2.9,2.9,2.9c1.6,0,2.9-1.3,2.9-2.9S162.1,107.7,160.6,107.7L160.6,107.7z"/>
					</g>
				</g>
			</g>
		</g>
		<text transform="matrix(1 0 0 1 192.4901 125.5198)" fill="#2D2D2D" font-family="'Arial'" font-size="14px">EMERGENCY EXIT</text>
		<text transform="matrix(1 0 0 1 192.4903 176.9599)" fill="#2D2D2D" font-family="'Arial'" font-size="14px">ASSEMBLY POINT</text>
		<g>
			<g>
				<circle fill="#008246" cx="157.14" cy="170.25" r="19.24"/>
				<path fill="none" d="M157.14,151.5c10.35,0,18.75,8.4,18.75,18.75S167.49,189,157.14,189s-18.75-8.4-18.75-18.75l0,0
					c0-10.35,8.36-18.73,18.71-18.75C157.12,151.5,157.12,151.5,157.14,151.5 M157.14,150.35c-10.98,0-19.9,8.92-19.9,19.9
					s8.92,19.9,19.9,19.9s19.9-8.92,19.9-19.9C177.04,159.26,168.13,150.35,157.14,150.35z"/>
			</g>
			<g>
				<path fill="#FFFFFF" d="M154,165.11h-3.98c-1.47-0.16-2.81,0.9-2.97,2.37c0,0.04,0,0.08-0.02,0.12v4.82c0,0.56,0.44,0.99,1,0.99
					s0.99-0.44,0.99-0.99v-4.82c0-0.16,0.16-0.16,0.34-0.34v14.09c0,0.64,0.52,1.15,1.15,1.15c0.64,0,1.15-0.52,1.15-1.15v-7.12
					h0.84v7.12c0,0.64,0.52,1.15,1.15,1.15s1.15-0.52,1.15-1.15v-14.27c0.18,0.02,0.32,0.16,0.34,0.34v4.82
					c0.04,0.54,0.46,0.96,1,0.99c0.54,0.02,0.98-0.4,0.99-0.94c0-0.02,0-0.04,0-0.06v-4.82C156.88,165.93,155.49,164.91,154,165.11z
					"/>
				<circle fill="#FFFFFF" cx="151.83" cy="162.29" r="2.33"/>
				<path fill="#FFFFFF" d="M164.6,165.11h-3.98c-1.47-0.16-2.81,0.9-2.97,2.37c0,0.04,0,0.08-0.02,0.12v4.82
					c0.04,0.54,0.46,0.96,0.99,0.99c0.54,0.02,0.98-0.4,1-0.94c0-0.02,0-0.04,0-0.06v-4.82c0-0.16,0.16-0.16,0.34-0.34v14.09
					c0,0.64,0.52,1.15,1.15,1.15c0.64,0,1.15-0.52,1.15-1.15v-7.12h0.84v7.12c0,0.64,0.52,1.15,1.15,1.15s1.15-0.52,1.15-1.15
					v-14.27c0.18,0.02,0.32,0.16,0.34,0.34v4.82c0,0.56,0.44,0.99,1,0.99s0.99-0.44,0.99-0.99v-4.82
					C167.59,165.93,166.43,165.11,164.6,165.11z"/>
				<circle fill="#FFFFFF" cx="162.61" cy="162.29" r="2.33"/>
				<circle fill="#FFFFFF" cx="157.14" cy="160.14" r="2.33"/>
			</g>
		</g>
		
			<text transform="matrix(0.0744 0.9971 -0.9972 0.0743 1247.3087 702.1508)" fill="#2D2D2D" font-family="'Arial'" font-size="12.0005px">Ave Maria Ln</text>
		
			<text transform="matrix(0.9976 -0.0697 0.0696 0.9976 1293.2952 543.3786)" fill="#2D2D2D" font-family="'Arial'" font-size="10px">Paternoster Vents</text>
		<text transform="matrix(1 0 0 1 606.998 560)" fill="#2D2D2D" font-family="'Arial'" font-weight="bold" font-size="18px">HRE</text>
	</g>
</g>
</svg>
