<svg id="Layer_1" data-name="Layer 1" xmlns="http://www.w3.org/2000/svg" viewBox="0 0 1920 1080"><defs><style>.cls-1{fill:#ffcfcf;}.cls-2,.cls-38,.cls-63{fill:#fff;}.cls-3,.cls-8{fill:#d8d8d6;}.cls-4,.cls-7{fill:#d9e4e8;}.cls-5,.cls-6{fill:#f4f1d3;}.cls-10,.cls-37,.cls-6,.cls-7,.cls-8{stroke:#fff;}.cls-10,.cls-11,.cls-12,.cls-13,.cls-14,.cls-15,.cls-16,.cls-17,.cls-18,.cls-19,.cls-20,.cls-21,.cls-22,.cls-23,.cls-24,.cls-25,.cls-26,.cls-27,.cls-28,.cls-29,.cls-30,.cls-32,.cls-33,.cls-34,.cls-36,.cls-37,.cls-38,.cls-40,.cls-6,.cls-63,.cls-7,.cls-71,.cls-8,.cls-9{stroke-miterlimit:10;}.cls-6,.cls-7,.cls-8,.cls-9{stroke-width:10px;}.cls-10,.cls-11,.cls-12,.cls-13,.cls-14,.cls-15,.cls-16,.cls-17,.cls-18,.cls-19,.cls-20,.cls-21,.cls-22,.cls-23,.cls-24,.cls-25,.cls-26,.cls-27,.cls-28,.cls-29,.cls-34,.cls-36,.cls-37,.cls-71,.cls-9{fill:none;}.cls-18,.cls-19,.cls-20,.cls-30,.cls-39,.cls-40,.cls-9{stroke:#2d2d2d;}.cls-10,.cls-20,.cls-36{stroke-width:6px;}.cls-11,.cls-12,.cls-13,.cls-14,.cls-15,.cls-16{stroke:#666565;}.cls-11,.cls-12,.cls-13,.cls-14,.cls-15,.cls-16,.cls-17,.cls-22,.cls-32,.cls-38,.cls-63{stroke-width:2px;}.cls-12{stroke-dasharray:50.14 2.01;}.cls-13{stroke-dasharray:50.4 2.02;}.cls-14{stroke-dasharray:51.78 2.07;}.cls-15{stroke-dasharray:49.48 1.98;}.cls-16{stroke-dasharray:50 2;}.cls-17{stroke:#878787;}.cls-19,.cls-33{stroke-width:3px;}.cls-21,.cls-22,.cls-23,.cls-24,.cls-25,.cls-26,.cls-27,.cls-28,.cls-29{stroke:#a0a0a0;}.cls-21{stroke-width:0.89px;}.cls-22,.cls-25,.cls-27,.cls-29{stroke-linecap:square;}.cls-24{stroke-width:0.97px;}.cls-25{stroke-width:1.93px;}.cls-26{stroke-width:0.77px;}.cls-27{stroke-width:1.72px;}.cls-28{stroke-width:0.78px;}.cls-29{stroke-width:1.74px;}.cls-30,.cls-39{fill:#ccc8c8;}.cls-31,.cls-41,.cls-42,.cls-44,.cls-46,.cls-47,.cls-48,.cls-49,.cls-51,.cls-52,.cls-53,.cls-55,.cls-56,.cls-57,.cls-58,.cls-59,.cls-60{fill:#2d2d2d;}.cls-32{fill:#e9e9e9;}.cls-32,.cls-33,.cls-34,.cls-36,.cls-38{stroke:#6d6d6d;}.cls-33{fill:#fcfcfc;}.cls-35{fill:#6d6d6d;}.cls-37{stroke-width:4px;}.cls-39{stroke-miterlimit:10.04;stroke-width:1px;}.cls-40{fill:#a0a0a0;}.cls-41,.cls-42,.cls-43,.cls-44,.cls-46,.cls-47,.cls-48,.cls-49,.cls-51,.cls-52,.cls-53,.cls-55,.cls-56,.cls-57,.cls-58,.cls-59,.cls-60,.cls-61,.cls-62,.cls-66,.cls-67,.cls-68{isolation:isolate;}.cls-41,.cls-56,.cls-57,.cls-58{font-size:12.51px;}.cls-41,.cls-56,.cls-57,.cls-58,.cls-66,.cls-67,.cls-68{font-family:ArialMT, Arial;}.cls-42,.cls-44,.cls-46,.cls-47,.cls-48,.cls-49,.cls-59,.cls-60,.cls-61,.cls-62{font-size:8px;}.cls-42,.cls-44,.cls-46,.cls-47,.cls-48,.cls-49,.cls-51,.cls-52,.cls-53,.cls-55,.cls-59,.cls-60,.cls-61,.cls-62{font-family:Arial-BoldMT, Arial;font-weight:700;}.cls-44{letter-spacing:-0.13em;}.cls-45,.cls-59{letter-spacing:-0.06em;}.cls-46{letter-spacing:-0.07em;}.cls-47{letter-spacing:-0.1em;}.cls-48,.cls-62{letter-spacing:-0.01em;}.cls-49{letter-spacing:-0.1em;}.cls-50{letter-spacing:-0.04em;}.cls-51{font-size:10.16px;}.cls-52,.cls-53,.cls-55{font-size:8.6px;}.cls-53{letter-spacing:-0.1em;}.cls-54{letter-spacing:-0.04em;}.cls-55{letter-spacing:-0.07em;}.cls-56{letter-spacing:-0.02em;}.cls-57{letter-spacing:-0.04em;}.cls-58{letter-spacing:-0.11em;}.cls-60{letter-spacing:-0.04em;}.cls-63{stroke:#000;}.cls-64{fill:#008246;}.cls-65{fill:red;}.cls-66,.cls-67,.cls-68{font-size:14px;}.cls-67{letter-spacing:-0.04em;}.cls-68{letter-spacing:-0.06em;}.cls-69{fill:#003e87;}.cls-70{fill:#fefefe;}.cls-71{stroke:#fefefe;stroke-width:0.8px;}</style></defs><g id="base"><rect class="cls-1" x="1051.6" y="925.3" width="91.6" height="98"/><path class="cls-2" d="M1139.2,929.3v90h-83.6v-90h83.6m8-8h-99.6v106h99.6v-106Z"/><rect class="cls-1" x="1151.2" y="925.3" width="157.5" height="98"/><path class="cls-2" d="M1304.7,929.3v90H1155.2v-90h149.5m8-8H1147.2v106h165.5v-106Z"/><polygon class="cls-1" points="1176.6 881 1176.6 798.3 1253.8 799.2 1274.6 881 1176.6 881"/><path class="cls-2" d="M1180.6,802.4l70.1.8,18.8,73.9h-88.9V802.4m-8-8.1v90.8h107.2L1257,795.3l-84.4-1Z"/><path class="cls-1" d="M1117.9,880.8V828.1h43.9a21.14,21.14,0,0,0,6.7-1V881Z"/><path class="cls-2" d="M1164.6,832v45l-42.7-.2V832.1h39.9c1,0,1.9-.1,2.8-.1m8-17.1v2.5A8.73,8.73,0,0,0,1172.6,814.9Zm0,2.5c-.4,2.7-2.4,6.7-10.7,6.7H1114v60.7l58.7.3-.1-67.7Z"/><rect class="cls-1" x="1051.6" y="828.1" width="58.3" height="52.7"/><path class="cls-2" d="M1105.9,832.1v44.7h-50.3V832.1h50.3m8-8h-66.3v60.7h66.3Z"/><polygon class="cls-1" points="967.7 881.3 953.7 828.1 1043.6 828.1 1043.6 881.3 967.7 881.3"/><path class="cls-2" d="M1039.6,832.1v45.3H970.8l-11.9-45.3h80.7m8-8H948.5l16.1,61.3h83Z"/><polygon class="cls-3" points="1176.6 790.3 1176.6 684 1223.9 684 1251.7 791.1 1176.6 790.3"/><path class="cls-2" d="M1220.8,688l25.7,99-66-.7V688h40.3m6.2-8h-54.5V794.2l84.3.9Z"/><path class="cls-1" d="M1176.4,676c-.7-3-2.8-6.5-7.4-9.2l-.1-.1-9.4-4.7,32.2-68.2,52.5,26.7-4,8.2V676Z"/><path class="cls-2" d="M1193.5,599.3l45.3,23.1-1.8,3.8-.8,1.7V672h-57a20.2,20.2,0,0,0-8.2-8.7l-.3-.2-.3-.1-5.8-2.9,28.9-60.8m-3.8-10.9-35.6,75.4,12.8,6.4c7.1,4.3,5.7,9.8,5.7,9.8h71.6V629.6l5.3-10.9Z"/><polygon class="cls-4" points="1248.2 661.4 1248.2 630.6 1251.3 624.1 1289 642.7 1294.3 661.4 1248.2 661.4"/><path class="cls-2" d="M1253.1,629.5l32.5,16,3.4,11.9h-36.9V631.5l1-2m-3.7-10.7-5.3,10.9v35.7h55.5l-7.2-25.5-43-21.1Z"/><polygon class="cls-3" points="1070.3 586.1 1089.9 546.4 1123.4 562.5 1104.2 602.2 1070.3 586.1"/><path class="cls-2" d="M1091.7,551.7l26.4,12.7-15.7,32.5-26.7-12.6,16-32.6m-3.7-10.6L1064.9,588l41.2,19.5,22.6-46.9L1088,541.1Z"/><path class="cls-3" d="M943.4,617V575.9l-.1-.3c-.3-2.1-.2-5.9,1-7.3a1.82,1.82,0,0,1,1.6-.6,13.48,13.48,0,0,1,5.6,1.7l47.4,22.9-4.5,10.8v14h-51Z"/><path class="cls-2" d="M947.2,572a25.54,25.54,0,0,1,2.5,1l44,21.2-2.7,6.6-.6,1.5v10.8h-43V575.7l-.1-.7a10.06,10.06,0,0,1-.1-3m-1.3-8.3c-8.5,0-6.5,12.5-6.5,12.5V621h59V603.8l5.6-13.6-50.8-24.5A17.89,17.89,0,0,0,945.9,563.7Z"/><rect class="cls-5" x="473.2" y="917.5" width="71.7" height="105.6"/><path class="cls-2" d="M540.9,921.5v97.6H477.2V921.5h63.7m8-8H469.2v113.6h79.7Z"/><polygon class="cls-1" points="552.9 1023.1 552.9 917.5 612.1 917.4 612.1 1023.1 552.9 1023.1"/><path class="cls-2" d="M608.1,921.4v97.7H556.9V921.5l51.2-.1m8-8-67.2.1v113.6h67.2Z"/><polygon class="cls-1" points="620.4 925.6 704.9 925.6 704.9 945.1 708.5 945.1 708.5 998.9 704 998.9 704 1022.8 620.4 1023.1 620.4 925.6"/><path class="cls-2" d="M700.9,929.6v19.5h3.6v45.8H700v23.9l-75.6.2V929.5l76.5.1m8-8H616.5v105.5l95.2-.3v-6H708v-17.9h4.5V941.1h-3.6Z"/><polygon class="cls-1" points="726.4 1022.8 726.4 998.9 721.9 998.9 721.9 945.1 725.5 945.1 725.5 925.6 844.1 925.6 844.1 1023.1 726.4 1022.8"/><path class="cls-2" d="M840.1,929.6v89.5l-109.8-.3V994.9h-4.5V949.1h3.6V929.6H840.1m8-8H721.5v19.5h-3.6v61.8h4.5v17.9h-3.6v6l129.3.3V921.6Z"/><path class="cls-1" d="M619.2,843.2l.3-37.3h47.4v10.5a11.08,11.08,0,0,0,3,8,12.58,12.58,0,0,0,7.8,3.5v15.3Z"/><path class="cls-2" d="M662.9,809.9v6.5a14.5,14.5,0,0,0,4.2,10.8,15.57,15.57,0,0,0,6.6,3.9v8H623.3l.2-29.3h39.4m8-7.9H615.5l-.3,45.3h66.5V824a10.66,10.66,0,0,1-1.6.1c-3,0-9.2-.8-9.2-7.6Z"/><polygon class="cls-1" points="619.2 797.9 619.5 691.5 667 691.5 667 797.9 619.2 797.9"/><path class="cls-2" d="M663,695.5v98.4H623.2l.3-98.4H663m8-8H615.5l-.3,114.4H671Z"/><rect class="cls-1" x="619.5" y="625.3" width="47.4" height="58.2"/><path class="cls-2" d="M662.9,629.3v50.2H623.5V629.3h39.4m8-8H615.5v66.2h55.4Z"/><rect class="cls-1" x="619.1" y="478.5" width="47.8" height="62.9"/><path class="cls-2" d="M663,482.5v54.9H623.2V482.5H663m8-8H615.2v70.9H671Z"/><rect class="cls-1" x="619.1" y="396.2" width="47.8" height="74.3"/><path class="cls-2" d="M663,400.2v66.3H623.2V400.2H663m8-8H615.2v82.3H671Z"/><polygon class="cls-4" points="853.1 1022.3 853.1 953.2 885.5 963.6 894.1 996.1 872.8 996.1 872.8 1008.3 925.4 1008.3 906.5 934.1 848.9 916.6 621.4 916.6 621.4 852.2 676.6 852.2 676.6 884.1 754.8 884.1 754.8 858.6 742.8 858.6 742.8 872.7 687.9 872.7 687.9 830.2 775.2 830.2 775.2 832 788 832 788 830.2 859.8 830.2 859.8 858.6 788 858.6 788 842.6 775.1 842.6 775.1 884.7 788 884.7 788 871.4 859.8 871.4 859.8 884.8 872 884.8 872 830.2 944.2 830.2 960.4 891.3 1276 891.3 1283.1 916.3 1042.6 916.3 1042.6 1022.3 853.1 1022.3"/><path class="cls-2" d="M940.3,835.2l14.2,53.7,2,7.4h315.7l4.3,15H1037.6v106H858.1V960l23.3,7.5,6.2,23.6H867.8v22.2h64l-3.2-12.5-16.5-65.2-1.4-5.5-5.4-1.6L851,912l-1.4-.4H626.4V857.2h45.2v31.9h88.2V853.6H737.7v14.1H692.8V835.2h77.3V837h22.8v-1.8h61.8v18.4H793V837.5H770.1v52.1H793V876.3h61.8v13.4H877V835.1h63.3m7.7-9.9H867v54.6h-2.2V866.4H783v13.3h-2.9V847.6H783v16.1h81.8V825.3H783v1.8h-2.8v-1.8H682.9v52.5h64.9V863.7h2.1v15.5H681.7V847.3H616.5v74.4H848.2l54.3,16.5,16.5,65.2H877.9v-2.2h22.8l-11-41.4-41.6-13.4v81h199.5v-106h242.2l-10-35H964.3L948,825.2Zm364.7,96.1V1027h.7l-.2-14.3-.5-91.4Zm0,0Z"/><polygon class="cls-1" points="676.3 377 694.6 338.4 774.1 376.7 755.7 415.5 676.3 377"/><path class="cls-2" d="M696.5,343.7l72.2,34.8-15,31.5-72.2-35,15-31.3M692.7,333,671,378.9l86.6,42,21.8-46Z"/><polygon class="cls-1" points="762.9 419 781.3 380.2 860.7 418.6 842 457.3 762.9 419"/><path class="cls-2" d="M783.1,385.5l72.2,34.9L840.1,452l-71.9-34.9,14.9-31.6m-3.7-10.7-19.7,41.5-2.1,4.5,86.3,41.8,22.2-46Z"/><polygon class="cls-6" points="873.7 478 843.8 462.7 866.1 416.7 896.2 431.3 873.7 478"/><polygon class="cls-7" points="1549.1 1027 1416.9 520.2 1418.6 517.1 1471 542.8 1461.6 551.2 1588.2 1027.3 1549.1 1027"/><path class="cls-4" d="M1147.3,819l-.2-67h20.4v64.9c-1,1.1-2.3,2.1-3.1,2.1Z"/><path class="cls-2" d="M1163.4,756v59h-12.2l-.2-59h12.4m8-8H1143l.3,75h21.1c3.8-.1,7-4.7,7-4.7V748Z"/><rect class="cls-3" x="1147.3" y="728.8" width="20.1" height="12.6"/><path class="cls-2" d="M1163.4,732.8v4.6h-12.1v-4.6h12.1m8-8h-28.1v20.6h28.1Z"/><rect class="cls-3" x="1119.4" y="804.6" width="17.5" height="14.4"/><path class="cls-2" d="M1132.8,808.6V815h-9.5v-6.4h9.5m8-8h-25.5V823h25.5Z"/><rect class="cls-3" x="1154.2" y="685.2" width="13.2" height="32.8"/><path class="cls-2" d="M1163.4,689.2V714h-5.2V689.2h5.2m8-8h-21.2V722h21.2Z"/><rect class="cls-3" x="1052.9" y="804.6" width="55.9" height="14.4"/><path class="cls-2" d="M1104.8,808.6V815h-47.9v-6.4h47.9m8-8h-63.9V823h63.9Z"/><rect class="cls-3" x="986.1" y="804.6" width="56.4" height="14.4"/><path class="cls-2" d="M1038.6,808.6V815H990.2v-6.4h48.4m8-8H982.2V823h64.4Z"/><rect class="cls-3" x="944.5" y="804.6" width="31.5" height="14.4"/><path class="cls-2" d="M972,808.6V815H948.5v-6.4H972m8-8H940.5V823H980Z"/><polygon class="cls-3" points="838.5 818.8 838.5 804.6 859.9 804.4 859.9 818.8 838.5 818.8"/><path class="cls-2" d="M855.9,808.4v6.4H842.4v-6.3l13.5-.1m8-8-29.5.2v22.2h29.5V800.4Z"/><rect class="cls-3" x="787" y="804.6" width="42.1" height="14.2"/><path class="cls-2" d="M825.1,808.6v6.2H791v-6.2h34.1m8-8H783v22.2h50.1Z"/><rect class="cls-3" x="720.6" y="804.6" width="55.1" height="14.2"/><path class="cls-2" d="M771.7,808.6v6.2H724.6v-6.2h47.1m8-8H716.6v22.2h63.1Z"/><path class="cls-3" d="M680.3,818.8c-3,0-4.2-.9-4.5-1.3V804.6h35.4v14.2Z"/><path class="cls-2" d="M707.2,808.6v6.2H679.8v-6.2h27.4m8-8H671.8v17.2c0,1.4,1.7,5,8.5,5h34.9Z"/><rect class="cls-3" x="675.8" y="693" width="14.7" height="30"/><path class="cls-2" d="M686.5,697v22h-6.7V697h6.7m8-8H671.8v38h22.7Z"/><rect class="cls-3" x="675.8" y="649.5" width="14.7" height="32.9"/><path class="cls-2" d="M686.5,653.5v24.9h-6.7V653.5h6.7m8-8H671.8v40.9h22.7Z"/><polygon class="cls-3" points="676.4 639.6 676.4 626.6 715.6 626.6 715.6 639.6 676.4 639.6"/><path class="cls-2" d="M711.6,630.6v5H680.4v-5h31.2m8-8H672.3l.1,21h47.2v-21Z"/><rect class="cls-3" x="744.2" y="628.2" width="7.9" height="38.1"/><polygon class="cls-2" points="757 623.2 739.2 623.2 739.2 671.4 757 671.4 757 623.2"/><rect class="cls-4" x="744.2" y="717.9" width="14.3" height="4.1"/><polygon class="cls-2" points="763.4 712.9 739.2 712.9 739.2 727 763.4 727 763.4 712.9"/><polygon class="cls-3" points="1003.3 612 1002.5 604.4 1006.1 595.8 1046.4 616 1039.3 630.4 1003.3 612"/><path class="cls-2" d="M1008.1,601.3l33,16.5-3.5,7.1-30.5-15.6-.5-4.3,1.5-3.7m-4.1-11-5.6,13.6,1.1,10.7,41.6,21.2,10.7-21.5-47.8-24Z"/><polygon class="cls-3" points="1057.2 612.4 1066.7 593.4 1114.7 617.6 1105.7 636 1057.2 612.4"/><path class="cls-2" d="M1068.5,598.8l40.9,20.6-5.5,11.3-41.3-20.1,5.9-11.8m-3.6-10.8-13.1,26.2,55.8,27.1,12.5-25.5Z"/><polygon class="cls-3" points="676 580.1 675.9 550.7 687.1 550.7 687.1 580.1 676 580.1"/><path class="cls-2" d="M682.1,555.7v19.4H681l-.1-19.4h1.2m10-10H670.8l.1,39.4h21.2V545.7Z"/><path class="cls-3" d="M676.2,422l-.2-33.7a6.8,6.8,0,0,1,2.1-.3h.1l13.1,6.3V422Z"/><path class="cls-2" d="M681,394.8l5.3,2.6V417h-5.1l-.2-22.2m-2.9-11.9c-2.4,0-7.1.6-7.1,5.4l.3,38.7h25V391.2l-16.8-8.1C679.5,383,678.9,382.9,678.1,382.9Z"/><polygon class="cls-3" points="702 422 701.5 399.2 748.7 422.1 702 422"/><path class="cls-2" d="M706.7,407.3l20.1,9.8H706.9l-.2-9.8m-10.4-16.2.8,35.8,58.3.1,2.1-6.3-61.2-29.6Z"/><polygon class="cls-8" points="774.8 429.7 774.9 454.5 797 454.5 797 440 774.8 429.7"/><path class="cls-4" d="M784,489.8h32.8V479.3l-15.3-.1V447.3l57.7,28.5a12.24,12.24,0,0,1,1.2,3.2H834.3l.3,10.7h26.3V541h-77V489.8Z"/><path class="cls-2" d="M805.5,453.7,848.6,475H830.2l.2,8.2.1,2.7.2,7.8h26.2V537h-69V493.7h32.8V475.3l-7.9-.1h-7.3V453.7m-8-12.9v42.3l15.3.1v2.5H780V545h85V485.7H838.6l-.1-2.7H865s0-6.4-3-10.3Z"/><polygon class="cls-4" points="676.2 432 752.6 432.1 752.6 540.4 675.9 540.7 676.2 432"/><path class="cls-2" d="M681.2,437l66.3.1v98.3l-66.7.3.4-98.7m-10-10-.4,118.7,86.7-.4V427Z"/><polygon class="cls-4" points="731.4 581.1 731.4 549.7 784.7 549.7 784.7 581.6 731.4 581.1"/><path class="cls-2" d="M780.7,553.7v23.9l-45.3-.4V553.7h45.3m8-8H727.4v39.4l61.3.6Z"/><path class="cls-6" d="M690.2,330.6,908.4,435.8l-1.3,2.1-10.3-5.1-30.1,61.5v81.3H938v-2.8c.1-8.9,5.3-10.2,5.3-10.2l37.3-77.1,2.1,1.3-36.6,75.6a11.23,11.23,0,0,1,5.3,1.3l100.3,48.2,28.8-58.3L1004,516.1l-6.4,14.2-2.1-1.2,12.9-27.9,2,.9-5.2,11.8,76.5,37.4,6.1-11.8,57.7,27.6-1,2.3-14.9-7.1-21.8,45,13.5,6.6-13.5,27.5,34.4,17.8.5-1,11.7,5.6,35.7-76.7,104.1,52,11.2,42.8h-10.1l.3-15.5-50.1.2.3,14.4-17,.1,7.7,28.7,13.4-3.5,41,155.3-14.9,4.1,14.2,55.5h23l.6,91.5.2,14.3,228.2-.1L1410.1,519.1l2.5-5.9L573.9,105.7v-.6l-32.8,68.7-55-25.3-16.9.1V913.5H614.4V620.1h55.4V586l-55.4.3v-4.4h2.3v2h53.1V546.8h-53v12h-2.4V376.9H616V329.2l30.4-19.3,26.7,13.9,16.7,8.6Z"/><path class="cls-1" d="M491.8,148.4a10.5,10.5,0,0,0-.7-4.9,9.3,9.3,0,0,0-8.9-5.8,8.83,8.83,0,0,0-8.3,5.5h-.7v-6.7H456.7V78.3c0-5.4,3.1-15.6,14.9-15.6a25.58,25.58,0,0,1,6.9,1l92,44.7-30.2,62.5Z"/><path class="cls-2" d="M471.5,66.6a22.7,22.7,0,0,1,5.5.8l88,42.8-26.7,55.4-42.6-19.7a12.56,12.56,0,0,0-1-3.8,13.32,13.32,0,0,0-12.6-8.3,11.62,11.62,0,0,0-5,1v-2.2H460.6V78.3c.1-.5.2-11.7,10.9-11.7m0-8c-13,0-18.9,10.5-18.9,19.6v62.3h16.5v6.7h7.7s.5-5.5,5.3-5.5c6,0,6.6,6.7,4.6,8.7L542,176.1l33.6-69.6-1.8-.9L479.7,59.8A31.21,31.21,0,0,0,471.5,58.6Z"/><polygon class="cls-1" points="1373.1 706.5 1448.8 687.1 1480.8 808.7 1404.9 828.1 1373.1 706.5"/><path class="cls-2" d="M1445.9,692l29.9,113.8-68.1,17.4L1378,709.4l67.9-17.4m5.8-9.7-83.5,21.3,33.9,129.3,83.6-21.3Z"/><polygon class="cls-1" points="620 388 619.9 331.4 646.5 314.5 686.7 334.8 666.2 377 666 388.2 620 388"/><path class="cls-2" d="M646.8,319.1l34.6,17.5L663,374.5l-.8,1.6v1.8l-.1,6.4-38-.1-.1-50.4,22.8-14.7m-.5-9.2-30.4,19.3L616,392l53.9.2.3-14.2L692,333l-45.7-23.1Z"/><path class="cls-9" d="M465.3,1030.5V144.2l-15.8.1s.1-50.8.2-66.8S466.2,49,482.9,57.7l934.8,454.1-3.9,7.8,132.7,511.1Z"/><polyline class="cls-9" points="1416.1 510.9 1477.1 543.2 1466.1 552.2 1592.7 1030.4 1533.6 1030.6"/><polyline class="cls-10" points="1416.1 510.9 1477.1 543.2 1466.1 552.2 1592.7 1030.4 1533.6 1030.6"/><path class="cls-10" d="M465.3,1030.5V144.2l-15.8.1s.1-50.8.2-66.8S466.2,49,482.9,57.7l934.8,454.1-3.9,7.8,132.7,511.1Z"/><polyline class="cls-11" points="490.3 1030.5 465.3 1030.5 465.3 1005.5"/><line class="cls-12" x1="465.3" y1="1003.5" x2="465.3" y2="170.1"/><path class="cls-11" d="M465.3,169.1v-25l-15.8.1s0-11.3.1-25"/><path class="cls-13" d="M449.6,117.2c0-14.8.1-31.7.1-39.8.1-16,16.5-28.5,33.2-19.8l911.4,442.7"/><polyline class="cls-11" points="1395.2 500.8 1417.7 511.7 1413.8 519.5 1417.9 535.3"/><line class="cls-14" x1="1418.4" y1="537.3" x2="1539.9" y2="1005.4"/><polyline class="cls-11" points="1540.2 1006.4 1546.5 1030.6 1521.5 1030.6"/><line class="cls-15" x1="1519.5" y1="1030.5" x2="491.3" y2="1030.5"/><polyline class="cls-16" points="1407.7 506.9 1477.1 543.2 1466.1 552.2 1592.7 1030.4 1533.6 1030.6"/><line class="cls-17" x1="923.8" y1="576.2" x2="939.4" y2="576.2"/><line class="cls-17" x1="866.7" y1="576.5" x2="882.8" y2="576.5"/><line class="cls-17" x1="1073.5" y1="885.3" x2="1147" y2="885.3"/><polyline class="cls-17" points="949.6 828.5 964.7 885.3 1022.4 885.3"/><line class="cls-17" x1="1197.9" y1="885" x2="1280.1" y2="885"/><line class="cls-17" x1="1281.6" y1="921.3" x2="1073.5" y2="921.3"/><line class="cls-17" x1="822.1" y1="920.7" x2="641.4" y2="920.7"/><line class="cls-17" x1="523.6" y1="913.5" x2="469.2" y2="913.5"/><line class="cls-17" x1="611.9" y1="913.5" x2="574.2" y2="913.5"/><line class="cls-17" x1="615.5" y1="516.9" x2="615.5" y2="415"/><line class="cls-17" x1="615.5" y1="662.5" x2="615.5" y2="628.4"/><line class="cls-17" x1="615.5" y1="776.5" x2="615.5" y2="712.5"/><line class="cls-17" x1="615.5" y1="887.1" x2="615.5" y2="826.9"/><line class="cls-17" x1="888.7" y1="427.7" x2="894.1" y2="430.4"/><line class="cls-17" x1="802.5" y1="385.4" x2="866.8" y2="416.9"/><line class="cls-17" x1="725.9" y1="348.6" x2="782.6" y2="376.4"/><line class="cls-17" x1="923.8" y1="824.1" x2="939.4" y2="824.1"/><line class="cls-17" x1="866.2" y1="823.9" x2="882.8" y2="823.9"/><line class="cls-18" x1="686" y1="823.9" x2="863.3" y2="823.9"/><line class="cls-18" x1="670.9" y1="728" x2="670.9" y2="650"/><line class="cls-17" x1="615.5" y1="543.5" x2="615.5" y2="538.5"/><line class="cls-18" x1="671" y1="423" x2="671" y2="394.5"/><line class="cls-18" x1="703.2" y1="394.5" x2="824.3" y2="453.2"/><line class="cls-17" x1="1287.3" y1="911.7" x2="1289.8" y2="921.3"/><line class="cls-17" x1="1313.5" y1="1027" x2="1313.5" y2="1014.8"/><line class="cls-17" x1="1277.5" y1="632.4" x2="1290.3" y2="638.8"/><line class="cls-17" x1="1213.1" y1="600.3" x2="1255.3" y2="621.4"/><line class="cls-17" x1="1099.8" y1="636.5" x2="1002.7" y2="589.7"/><line class="cls-18" x1="953.2" y1="824.1" x2="1141.4" y2="824.1"/><line class="cls-18" x1="1172.6" y1="876.2" x2="1172.6" y2="685.5"/><line class="cls-18" x1="843.2" y1="570.6" x2="843.2" y2="547.2"/><line class="cls-18" x1="863.2" y1="585.1" x2="841.2" y2="585.1"/><line class="cls-18" x1="764.8" y1="711.9" x2="740.8" y2="711.9"/><line class="cls-18" x1="758.3" y1="672.4" x2="758.3" y2="625.3"/><line class="cls-18" x1="801.6" y1="635.3" x2="801.6" y2="670.5"/><line class="cls-18" x1="660.1" y1="621.3" x2="718.9" y2="621.3"/><line class="cls-18" x1="671" y1="542.7" x2="671" y2="573.7"/><line class="cls-18" x1="843.3" y1="563.3" x2="843.3" y2="549.4"/><line class="cls-18" x1="807.6" y1="573.2" x2="807.6" y2="548.4"/><line class="cls-18" x1="788.1" y1="585.7" x2="788.1" y2="545.4"/><line class="cls-18" x1="877.8" y1="1001.1" x2="918.9" y2="1001.1"/><polyline class="cls-17" points="517.6 163.7 483.2 147.9 469.2 147.9"/><line class="cls-17" x1="1374.6" y1="729.3" x2="1401.7" y2="832.9"/><line class="cls-17" x1="1359.6" y1="671.8" x2="1330.9" y2="679.8"/><polyline class="cls-17" points="615.8 377.2 615.8 329.3 646.3 310.7 672.5 324.2"/><line class="cls-19" x1="619.6" y1="920.7" x2="615.9" y2="920.7"/><line class="cls-19" x1="725.2" y1="920.7" x2="705.2" y2="920.7"/><polyline class="cls-19" points="848.1 1026.7 848.1 920.7 843.7 920.7"/><polyline class="cls-19" points="708.9 921.6 708.9 941.1 712.5 941.1 712.5 1002.9 708 1002.9 708 1020.8 711.6 1020.8 711.6 1026.8"/><line class="cls-19" x1="715.2" y1="621.3" x2="721.7" y2="621.3"/><polyline class="cls-19" points="615.5 637.1 615.5 621.3 669.7 621.3 676.6 621.3"/><line class="cls-19" x1="615.5" y1="690.9" x2="615.5" y2="684.1"/><line class="cls-19" x1="615.5" y1="730" x2="615.5" y2="723.3"/><line class="cls-19" x1="615.5" y1="805.3" x2="615.5" y2="798.1"/><line class="cls-19" x1="615.5" y1="859.8" x2="615.5" y2="844.3"/><line class="cls-19" x1="615.5" y1="1026.7" x2="615.5" y2="908.8"/><line class="cls-19" x1="616.3" y1="847.2" x2="681.6" y2="847.2"/><line class="cls-19" x1="616.4" y1="801.9" x2="670.4" y2="801.9"/><polyline class="cls-19" points="616.4 687.5 669.7 687.5 694.5 687.5"/><line class="cls-19" x1="615.5" y1="477.5" x2="615.5" y2="470.7"/><line class="cls-19" x1="615.5" y1="558.8" x2="615.5" y2="541.9"/><line class="cls-19" x1="669.8" y1="545.7" x2="616.3" y2="545.7"/><line class="cls-19" x1="670.3" y1="474.5" x2="616.1" y2="474.5"/><line class="cls-19" x1="893.3" y1="429.9" x2="907.9" y2="436.9"/><polyline class="cls-19" points="869.1 418.2 866.1 416.7 843.8 462.7"/><line class="cls-19" x1="776.6" y1="373.5" x2="783.4" y2="376.8"/><polyline class="cls-19" points="705.8 339.7 692 333 670.2 378 670.2 392.2 615.5 392.2 615.5 376.7"/><line class="cls-19" x1="896.2" y1="431.3" x2="865.5" y2="494.3"/><polyline class="cls-19" points="873.7 478 797 439.9 797 485.8"/><line class="cls-19" x1="709" y1="397.3" x2="670.3" y2="378.5"/><line class="cls-19" x1="760.6" y1="422.3" x2="748.4" y2="416.4"/><line class="cls-19" x1="772.4" y1="428" x2="779.4" y2="431.4"/><polyline class="cls-19" points="802.3 442.5 799.4 441.1 791.2 437.2"/><path class="cls-19" d="M671,390.3c0-2.7.7-8.2,8.8-7.2"/><line class="cls-19" x1="779" y1="375.3" x2="758.1" y2="420"/><polyline class="cls-19" points="860.8 823.9 865.8 823.9 865.8 879.8"/><line class="cls-19" x1="828.1" y1="823.9" x2="840.8" y2="823.9"/><line class="cls-19" x1="768.7" y1="823.9" x2="784.8" y2="823.9"/><line class="cls-19" x1="710.4" y1="823.9" x2="724.8" y2="823.9"/><path class="cls-19" d="M671,723.8v91.1c0,1.5-1.7,9,8.2,9h9"/><line class="cls-19" x1="671" y1="675" x2="671" y2="690.7"/><line class="cls-19" x1="671" y1="615.9" x2="671" y2="654.7"/><line class="cls-19" x1="671" y1="569.7" x2="671" y2="593.9"/><line class="cls-19" x1="671" y1="419.1" x2="671" y2="550"/><line class="cls-19" x1="671" y1="388.3" x2="671" y2="397.6"/><polyline class="cls-19" points="681.6 823.9 681.6 879.1 748.9 879.1 748.9 863.3"/><line class="cls-19" x1="781.5" y1="799.7" x2="781.5" y2="827"/><line class="cls-19" x1="715.6" y1="800.4" x2="715.6" y2="823.9"/><polyline class="cls-19" points="861.3 638.6 865.8 638.6 865.8 615.8"/><polyline class="cls-19" points="861.3 697.1 865.8 697.1 865.8 666.5 861.3 666.5"/><polyline class="cls-19" points="861.4 754.9 865.8 754.9 865.8 724.8 861.3 724.8"/><polyline class="cls-19" points="865.8 823.9 865.8 782.3 861.4 782.3"/><line class="cls-19" x1="865.8" y1="865.2" x2="781.5" y2="865.2"/><line class="cls-19" x1="781.3" y1="879.7" x2="781.3" y2="847.6"/><line class="cls-19" x1="834.5" y1="822.8" x2="834.5" y2="800.6"/><line class="cls-19" x1="948.5" y1="824.6" x2="949.6" y2="828.5"/><line class="cls-19" x1="1047.6" y1="800.4" x2="1047.6" y2="884.6"/><line class="cls-19" x1="1276.6" y1="884.7" x2="1279.7" y2="884.7"/><line class="cls-19" x1="1168.8" y1="884.7" x2="1176.1" y2="884.7"/><line class="cls-19" x1="1110.5" y1="884.7" x2="1117.3" y2="884.7"/><line class="cls-19" x1="1044.1" y1="884.7" x2="1052.4" y2="884.7"/><polyline class="cls-19" points="1052.5 921.3 1047.6 921.3 1047.6 1027.3"/><line class="cls-19" x1="1114.2" y1="884.7" x2="1114.2" y2="800.6"/><path class="cls-19" d="M1172.6,689.8V677.7c0-3.1-2.4-5.8-5.7-7.5"/><line class="cls-19" x1="1172.6" y1="729" x2="1172.6" y2="710.7"/><line class="cls-19" x1="1172.6" y1="749.8" x2="1172.6" y2="740.8"/><line class="cls-19" x1="1172.6" y1="885" x2="1172.6" y2="813.5"/><line class="cls-19" x1="1172.5" y1="746.6" x2="1142.1" y2="746.6"/><polyline class="cls-19" points="1172.5 723.3 1148.8 723.3 1148.9 680"/><polyline class="cls-19" points="1134.3 720 1134.3 710.5 1134.3 689 1134.3 677 1143.3 658.5 1156.4 664.9"/><polyline class="cls-19" points="1290.3 638.8 1292.4 639.9 1303.6 680.8 1296.4 680.8 1296.4 665.4"/><polyline class="cls-19" points="1134.3 680 1244.2 680 1244.2 629.7 1249.4 618.8 1257.7 622.9"/><line class="cls-19" x1="1245" y1="665.4" x2="1299.6" y2="665.4"/><polyline class="cls-19" points="1154.7 663.1 1189.7 588.4 1193.7 590.4"/><line class="cls-19" x1="1234" y1="706.9" x2="1281.6" y2="890.6"/><line class="cls-19" x1="1227" y1="680" x2="1228.4" y2="685.5"/><line class="cls-19" x1="1150.6" y1="921.3" x2="1143.8" y2="921.3"/><polyline class="cls-19" points="1312.7 1026.6 1312.7 921.3 1278.2 921.3"/><line class="cls-19" x1="1147.2" y1="921.3" x2="1147.2" y2="1027.6"/><path class="cls-19" d="M1138.6,824.1h24.8c3.4,0,8.4-2.6,8.9-5.8"/><path class="cls-19" d="M1108.3,824.1h9"/><line class="cls-19" x1="1076.2" y1="824.1" x2="1088.6" y2="824.1"/><line class="cls-19" x1="1026.9" y1="824.1" x2="1055.3" y2="824.1"/><line class="cls-19" x1="977.9" y1="824.1" x2="984.4" y2="824.1"/><polyline class="cls-19" points="1095.8 634.5 1108 640.5 1120.6 614.9 1064.9 588"/><line class="cls-19" x1="1045.9" y1="610.5" x2="1056.9" y2="615.8"/><polyline class="cls-19" points="973.3 575.6 977.8 577.8 995 586 1009 592.8"/><path class="cls-19" d="M944.7,639h-5.4c-.1-62.4-.1-62.2-.1-65.8,0-3.4,1.1-12.5,10.7-9l5.1,2.4"/><polyline class="cls-19" points="944.6 697.6 939.4 697.6 939.4 665.9 944.7 665.9"/><polyline class="cls-19" points="944.6 755.4 939.3 755.4 939.3 723.7 944.6 723.7"/><polyline class="cls-19" points="956.8 824.1 939.3 824.1 939.3 782.1 944.6 782.1"/><line class="cls-19" x1="981.2" y1="824.1" x2="981.2" y2="800.5"/><line class="cls-19" x1="552.5" y1="913.4" x2="545.2" y2="913.4"/><line class="cls-19" x1="616.1" y1="913.4" x2="611.2" y2="913.4"/><line class="cls-19" x1="548.9" y1="913.4" x2="548.9" y2="1027.1"/><polyline class="cls-19" points="1256.9 795.2 1172.6 794.3 1172.6 800.2"/><line class="cls-19" x1="1118.5" y1="555.7" x2="1144.7" y2="568.3"/><polyline class="cls-19" points="1040.6 636.9 1088 541.1 1100 546.8"/><line class="cls-19" x1="1128.8" y1="560.6" x2="1106.1" y2="607.5"/><line class="cls-19" x1="1082.7" y1="553.3" x2="1003.2" y2="514.5"/><line class="cls-19" x1="996.3" y1="529.8" x2="1009.2" y2="501.7"/><line class="cls-19" x1="981.8" y1="486.1" x2="944.4" y2="563.3"/><polyline class="cls-19" points="1004 591.5 998.4 603.9 998.4 615.8"/><path class="cls-19" d="M862.4,472.7c1.2,1.8,2.8,5.4,3.1,11.8V593.9"/><polyline class="cls-19" points="812.8 484.4 774.9 484.4 774.8 428.8"/><line class="cls-19" x1="865.5" y1="484.4" x2="838.4" y2="484.4"/><polyline class="cls-19" points="671.2 427.1 757.6 427.1 757.6 545.4"/><line class="cls-19" x1="779.4" y1="484.3" x2="779.4" y2="545.7"/><line class="cls-19" x1="697.1" y1="545.7" x2="665.1" y2="545.7"/><line class="cls-19" x1="820.4" y1="545.7" x2="716" y2="545.7"/><line class="cls-19" x1="865.8" y1="545.7" x2="839" y2="545.7"/><line class="cls-19" x1="797" y1="454.5" x2="775.9" y2="454.5"/><polyline class="cls-19" points="704.7 585.1 615.5 585.1 615.5 581.9"/><polyline class="cls-19" points="761 585.1 733.4 585.1 723.3 585.1"/><polyline class="cls-19" points="807.6 571.6 807.6 585.1 779.7 585.1"/><line class="cls-19" x1="807.6" y1="545.7" x2="807.6" y2="550.1"/><line class="cls-19" x1="843.2" y1="550.3" x2="843.2" y2="545.1"/><polyline class="cls-19" points="864.9 563.8 842.3 563.8 842.3 585.1 829.9 585.1"/><line class="cls-19" x1="865.5" y1="585.1" x2="860.9" y2="585.1"/><line class="cls-19" x1="695.4" y1="728" x2="695.4" y2="644.7"/><line class="cls-19" x1="788.7" y1="622.3" x2="799.5" y2="622.3"/><line class="cls-19" x1="734.4" y1="622.3" x2="762.8" y2="622.3"/><polyline class="cls-19" points="671.8 644.6 720.8 644.6 720.8 622.3"/><line class="cls-19" x1="738" y1="728" x2="738" y2="622.3"/><line class="cls-19" x1="758.3" y1="626.9" x2="758.3" y2="622.3"/><polyline class="cls-19" points="739.2 672.4 758.3 672.4 758.3 667.9"/><line class="cls-19" x1="798.6" y1="711.9" x2="804.8" y2="711.9"/><line class="cls-19" x1="760.6" y1="711.9" x2="772.8" y2="711.9"/><line class="cls-19" x1="738" y1="711.9" x2="742.6" y2="711.9"/><line class="cls-19" x1="764.8" y1="711.9" x2="764.8" y2="729.1"/><line class="cls-19" x1="1142.2" y1="800.3" x2="1142.2" y2="823.8"/><line class="cls-19" x1="1083.6" y1="676.6" x2="1083.6" y2="670.7"/><line class="cls-19" x1="1083.6" y1="720" x2="1083.6" y2="702"/><polyline class="cls-19" points="1083.6 707.7 1066.9 707.7 1066.9 720"/><line class="cls-19" x1="696.3" y1="391.1" x2="696.3" y2="427"/><polyline class="cls-19" points="1110 636.5 1092.8 670.7 1087.3 670.7"/><line class="cls-19" x1="726.9" y1="545.7" x2="726.9" y2="585.1"/><polyline class="cls-19" points="721.5 921.6 721.5 941.1 717.9 941.1 717.9 1002.9 722.4 1002.9 722.4 1020.8 718.8 1020.8 718.8 1026.8"/><line class="cls-19" x1="796.7" y1="585.1" x2="811.1" y2="585.1"/><line class="cls-19" x1="692.1" y1="545.7" x2="692.1" y2="585.5"/><line class="cls-19" x1="759.8" y1="416.4" x2="755.4" y2="427.1"/><polyline class="cls-19" points="574.6 106 541.6 174.7 537.4 172.9"/><polyline class="cls-19" points="1485.7 811.6 1401.7 832.9 1401.3 831"/><line class="cls-19" x1="1452.8" y1="682" x2="1368.2" y2="703.6"/><line class="cls-19" x1="1359.6" y1="670.3" x2="1369.4" y2="708.3"/><line class="cls-19" x1="1329.4" y1="679.8" x2="1332.4" y2="679.1"/><polyline class="cls-19" points="1303.6 680.8 1304.8 685.9 1308.8 685"/><line class="cls-19" x1="691.9" y1="333" x2="689.6" y2="331.8"/><polyline class="cls-20" points="939.4 798.3 1140.8 798.3 1140.8 722.4"/><polyline class="cls-20" points="1086 722.1 1068 722.1 1068 797.2"/><line class="cls-20" x1="1148.2" y1="722.1" x2="1123.7" y2="722.1"/><polyline class="cls-20" points="999.5 798.3 999.5 669.3 999.5 617.4 1089.5 660.5 1089.5 669.8 1000.6 669.5"/><line class="cls-20" x1="999.5" y1="622.9" x2="939.2" y2="622.9"/><line class="cls-20" x1="999.5" y1="681.8" x2="939.4" y2="681.8"/><line class="cls-20" x1="865.8" y1="798.3" x2="670.9" y2="798.3"/><polyline class="cls-20" points="674.3 798.3 674.3 729.1 753.6 729.1 766 729.1"/><line class="cls-20" x1="807.2" y1="797.6" x2="807.2" y2="682.1"/><polyline class="cls-20" points="800.4 668.5 800.4 681.8 865.8 681.8"/><polyline class="cls-20" points="800.4 637.2 800.4 623.2 865.8 623.2"/><path class="cls-21" d="M615.5,776.7c13.2,0,21.2,9.2,21.2,20.2"/><line class="cls-22" x1="615.1" y1="797.4" x2="636.3" y2="797.4"/><path class="cls-21" d="M615.5,826.5c13.2,0,21.2-9.2,21.2-20.2"/><line class="cls-22" x1="615.1" y1="805.8" x2="636.3" y2="805.8"/><path class="cls-21" d="M615.5,662.6c13.2,0,21.2,9.2,21.2,20.2"/><line class="cls-22" x1="615.1" y1="683.3" x2="636.3" y2="683.3"/><path class="cls-21" d="M615.5,712.4c13.2,0,21.2-9.2,21.2-20.2"/><line class="cls-22" x1="615.1" y1="691.7" x2="636.3" y2="691.7"/><path class="cls-21" d="M615.9,517c13.2,0,21.2,9.2,21.2,20.2"/><line class="cls-22" x1="615.5" y1="537.7" x2="636.6" y2="537.7"/><path class="cls-21" d="M615.5,414.7c13.2,0,21.2-9.2,21.2-20.2"/><line class="cls-22" x1="615.1" y1="394" x2="636.3" y2="394"/><path class="cls-21" d="M573.8,913.4c0,13.2-9.2,21.2-20.2,21.2"/><line class="cls-22" x1="553.1" y1="913" x2="553.1" y2="934.2"/><path class="cls-21" d="M523.9,913.4c0,13.2,9.2,21.2,20.2,21.2"/><line class="cls-22" x1="544.6" y1="913" x2="544.6" y2="934.2"/><path class="cls-21" d="M640.9,920.7c0,13.2-9.2,21.2-20.2,21.2"/><line class="cls-22" x1="620.2" y1="920.3" x2="620.2" y2="941.4"/><path class="cls-21" d="M822.4,920.7c0,13.2,9.2,21.2,20.2,21.2"/><line class="cls-22" x1="843.1" y1="920.3" x2="843.1" y2="941.5"/><path class="cls-21" d="M903.5,823.7c0-13.2,9.2-21.2,20.2-21.2"/><line class="cls-22" x1="924.2" y1="824.1" x2="924.2" y2="802.9"/><path class="cls-21" d="M903.5,823.5c0-13.2-9.2-21.2-20.2-21.2"/><line class="cls-22" x1="882.8" y1="823.9" x2="882.8" y2="802.7"/><path class="cls-21" d="M903.5,576.6c0,13.2,9.2,21.2,20.2,21.2"/><line class="cls-22" x1="924.2" y1="576.2" x2="924.2" y2="597.4"/><path class="cls-21" d="M903.5,576.8c0,13.2-9.2,21.2-20.2,21.2"/><line class="cls-22" x1="882.8" y1="576.4" x2="882.8" y2="597.6"/><path class="cls-21" d="M1073.1,884.7c0-13.2-9.2-21.2-20.2-21.2"/><line class="cls-22" x1="1052.4" y1="885.1" x2="1052.4" y2="864"/><path class="cls-21" d="M1073.1,921.3c0,13.2-9.2,21.2-20.2,21.2"/><line class="cls-22" x1="1052.4" y1="920.9" x2="1052.4" y2="942.1"/><path class="cls-21" d="M1022.6,884.7c0-13.2,9.2-21.2,20.2-21.2"/><line class="cls-22" x1="1043.3" y1="885.1" x2="1043.3" y2="864"/><path class="cls-21" d="M1147.4,884.7c0-13.2,9.2-21.2,20.2-21.2"/><line class="cls-22" x1="1168.1" y1="885.1" x2="1168.1" y2="864"/><path class="cls-21" d="M1197.5,884.8c0-13.2-9.2-21.2-20.2-21.2"/><line class="cls-22" x1="1176.8" y1="885.1" x2="1176.8" y2="864"/><path class="cls-21" d="M1172.6,921.2c0,13.2-9.2,21.2-20.2,21.2"/><line class="cls-22" x1="1152.4" y1="920.8" x2="1152.4" y2="942"/><path class="cls-21" d="M1287.1,911.4c-12.8,3.3-22.8-3.6-25.6-14.3"/><line class="cls-22" x1="1282.3" y1="891.2" x2="1261.8" y2="896.5"/><path class="cls-21" d="M1277,632.3c-5.9,11.9-17.6,14.9-27.5,10"/><line class="cls-22" x1="1258.6" y1="622.8" x2="1249.3" y2="641.8"/><path class="cls-21" d="M1212.9,599.9c-5.9,11.9-17.6,14.9-27.5,10"/><line class="cls-22" x1="1194.5" y1="590.4" x2="1185.2" y2="609.3"/><path class="cls-21" d="M1233.9,706.3c-12.8,3.3-22.8-3.6-25.6-14.3"/><line class="cls-22" x1="1229.1" y1="686.1" x2="1208.6" y2="691.4"/><path class="cls-23" d="M781.4,622.3c0,11.8-8.1,18.8-18,18.8"/><line class="cls-22" x1="763" y1="621.9" x2="763" y2="640.7"/><path class="cls-23" d="M781.4,622.1a6.7,6.7,0,0,0,6.29,7.09h.51"/><line class="cls-22" x1="788.3" y1="622" x2="788.3" y2="629"/><path class="cls-24" d="M722.2,622.6c0-7.6,5.2-12.1,11.5-12.1"/><line class="cls-25" x1="734" y1="622.8" x2="734" y2="610.7"/><path class="cls-21" d="M671,594.3c13.2,0,21.2,9.2,21.2,20.2"/><line class="cls-22" x1="670.6" y1="615" x2="691.7" y2="615"/><path class="cls-21" d="M865.8,594.3c-13.2,0-21.2,9.2-21.2,20.2"/><line class="cls-22" x1="866.2" y1="615" x2="845" y2="615"/><path class="cls-21" d="M802,385.8c-5.8,11.9-17.5,15-27.4,10.2"/><line class="cls-22" x1="783.5" y1="376.4" x2="774.3" y2="395.5"/><path class="cls-21" d="M725.3,348.8c-5.8,11.9-17.5,15-27.4,10.2"/><line class="cls-22" x1="706.8" y1="339.4" x2="697.6" y2="358.4"/><path class="cls-21" d="M615.5,887.4c-13.2,0-21.2,9.2-21.2,20.2"/><line class="cls-22" x1="615.9" y1="908.1" x2="594.7" y2="908.1"/><path class="cls-21" d="M972.9,575.4c5.7-11.9.9-23.1-9.1-27.8"/><line class="cls-22" x1="954.1" y1="566.8" x2="963.2" y2="547.7"/><path class="cls-21" d="M888.3,427.3c-5.8,11.9-17.5,15-27.4,10.2"/><line class="cls-22" x1="869.9" y1="417.9" x2="860.6" y2="436.9"/><path class="cls-2" d="M1526,885.5c-2.8-10.7-12.7-17.6-25.6-14.3l5.1,19.6Z"/><path class="cls-21" d="M1500.4,871.2c12.8-3.3,22.8,3.6,25.6,14.3"/><line class="cls-22" x1="1505.2" y1="891.4" x2="1525.7" y2="886.1"/><path class="cls-2" d="M1478.4,702.4c-2.8-10.7-12.8-17.6-25.6-14.3l5.1,19.6Z"/><path class="cls-21" d="M1453.6,688.1c12.8-3.3,22.8,3.6,25.6,14.3"/><line class="cls-22" x1="1458.4" y1="708.2" x2="1478.9" y2="702.9"/><path class="cls-2" d="M1437.7,545.9c-2.8-10.7-12.8-17.6-25.6-14.3l5.1,19.6Z"/><path class="cls-21" d="M1412.1,531.6c12.8-3.3,22.8,3.6,25.6,14.3"/><line class="cls-22" x1="1416.9" y1="551.8" x2="1437.4" y2="546.5"/><path class="cls-23" d="M773.1,711.9c0,15.8,10.9,25.2,24.1,25.2"/><line class="cls-22" x1="797.8" y1="711.4" x2="797.8" y2="736.7"/><path class="cls-26" d="M704.9,585.3c0-11.4,7.9-18.2,17.4-18.2"/><line class="cls-27" x1="722.7" y1="585.7" x2="722.7" y2="567.5"/><path class="cls-26" d="M715.6,545.5c0,11.4-7.9,18.2-17.4,18.2"/><line class="cls-27" x1="697.8" y1="545.2" x2="697.8" y2="563.4"/><path class="cls-26" d="M829.6,585.2c0-11.4-7.9-18.2-17.4-18.2"/><line class="cls-27" x1="811.8" y1="585.6" x2="811.8" y2="567.4"/><path class="cls-26" d="M820.7,545.4c0,11.4,7.9,18.2,17.4,18.2"/><line class="cls-27" x1="838.5" y1="545.1" x2="838.5" y2="563.3"/><path class="cls-26" d="M761.3,584.9c0,11.4,7.9,18.2,17.4,18.2"/><line class="cls-27" x1="779.1" y1="584.6" x2="779.1" y2="602.8"/><path class="cls-21" d="M1118.1,555.6c-5.8,11.9-17.5,15-27.4,10.2"/><line class="cls-22" x1="1099.6" y1="546.2" x2="1090.4" y2="565.2"/><path class="cls-28" d="M1125.7,649.7c-5.2,10.3-1.2,20.1,7.4,24.4"/><line class="cls-29" x1="1141.9" y1="657.5" x2="1133.6" y2="674"/><path class="cls-28" d="M1125.6,649.8c-5.2,10.3-15.5,12.9-24.1,8.5"/><line class="cls-29" x1="1109.7" y1="641.4" x2="1101.3" y2="657.8"/><path class="cls-2" d="M636.7,796.9c0-11.1-8-20.2-21.2-20.2v20.2Z"/><path class="cls-2" d="M636.7,806.3c0,11.1-8,20.2-21.2,20.2V806.3Z"/><path class="cls-2" d="M636.7,682.8c0-11.1-8-20.2-21.2-20.2v20.2Z"/><path class="cls-2" d="M636.7,692.2c0,11.1-8,20.2-21.2,20.2V692.2Z"/><path class="cls-2" d="M637.1,537.2c0-11.1-8-20.2-21.2-20.2v20.2Z"/><path class="cls-2" d="M636.7,394.5c0,11.1-8,20.2-21.2,20.2V394.5Z"/><path class="cls-2" d="M553.6,934.6c11.1,0,20.2-8,20.2-21.2H553.6Z"/><path class="cls-2" d="M544.1,934.6c-11.1,0-20.2-8-20.2-21.2h20.2Z"/><path class="cls-2" d="M620.7,941.8c11.1,0,20.2-8,20.2-21.2H620.7Z"/><path class="cls-2" d="M842.6,941.9c-11.1,0-20.2-8-20.2-21.2h20.2Z"/><path class="cls-2" d="M923.7,802.5c-11.1,0-20.2,8-20.2,21.2h20.2Z"/><path class="cls-2" d="M883.3,802.3c11.1,0,20.2,8,20.2,21.2H883.3Z"/><path class="cls-2" d="M923.7,597.8c-11.1,0-20.2-8-20.2-21.2h20.2Z"/><path class="cls-2" d="M883.3,598c11.1,0,20.2-8,20.2-21.2H883.3Z"/><path class="cls-2" d="M1052.9,863.6c11.1,0,20.2,8,20.2,21.2h-20.2Z"/><path class="cls-2" d="M1052.9,942.5c11.1,0,20.2-8,20.2-21.2h-20.2Z"/><path class="cls-2" d="M1042.8,863.6c-11.1,0-20.2,8-20.2,21.2h20.2Z"/><path class="cls-2" d="M1167.7,863.6c-11.1,0-20.2,8-20.2,21.2h20.2Z"/><path class="cls-2" d="M1177.3,863.6c11.1,0,20.2,8,20.2,21.2h-20.2Z"/><path class="cls-2" d="M1152.4,942.4c11.1,0,20.2-8,20.2-21.2h-20.2Z"/><path class="cls-2" d="M1261.5,897.1c2.8,10.7,12.8,17.6,25.6,14.3l-5.1-19.6Z"/><path class="cls-2" d="M1249.5,642.4c9.9,4.9,21.6,1.8,27.5-10l-18.1-8.9Z"/><path class="cls-2" d="M1185.4,609.9c9.9,4.9,21.6,1.8,27.5-10l-18.1-8.9Z"/><path class="cls-2" d="M1208.4,692c2.8,10.7,12.8,17.6,25.6,14.3l-5.1-19.6Z"/><path class="cls-2" d="M763.4,641.1c9.8,0,18-7.1,18-18.8h-18Z"/><path class="cls-2" d="M788.1,629.2a6.7,6.7,0,0,1-6.81-6.59c0-.17,0-.34,0-.51h6.8Z"/><path class="cls-2" d="M733.8,610.5c-6.3,0-11.5,4.5-11.5,12.1h11.5Z"/><path class="cls-2" d="M692.1,614.5c0-11.1-8-20.2-21.2-20.2v20.2Z"/><path class="cls-2" d="M844.6,614.5c0-11.1,8-20.2,21.2-20.2v20.2Z"/><path class="cls-2" d="M774.5,396c9.9,4.8,21.7,1.7,27.4-10.2L783.7,377Z"/><path class="cls-2" d="M697.9,359c9.9,4.8,21.7,1.7,27.4-10.2L707.1,340Z"/><path class="cls-2" d="M594.3,907.6c0-11.1,8-20.2,21.2-20.2v20.2Z"/><path class="cls-2" d="M963.9,547.6c10,4.8,14.8,15.9,9.1,27.8l-18.2-8.7Z"/><path class="cls-2" d="M860.9,437.5c9.9,4.8,21.7,1.7,27.4-10.2l-18.2-8.8Z"/><path class="cls-2" d="M797.2,737.1c-13.2,0-24.1-9.5-24.1-25.2h24.1Z"/><path class="cls-2" d="M722.2,567.1c-9.5,0-17.4,6.8-17.4,18.2h17.4Z"/><path class="cls-2" d="M698.2,563.7c9.5,0,17.4-6.8,17.4-18.2H698.2Z"/><path class="cls-2" d="M812.2,567c9.5,0,17.4,6.8,17.4,18.2H812.2Z"/><path class="cls-2" d="M838.1,563.6c-9.5,0-17.4-6.8-17.4-18.2h17.4Z"/><path class="cls-2" d="M778.7,603.1c-9.5,0-17.4-6.8-17.4-18.2h17.4Z"/><path class="cls-2" d="M1090.6,565.8c9.9,4.8,21.7,1.7,27.4-10.2l-18.2-8.8Z"/><path class="cls-2" d="M1133,674.1c-8.6-4.4-12.6-14.1-7.4-24.4l15.7,8Z"/><path class="cls-2" d="M1101.6,658.3c8.6,4.4,18.8,1.8,24.1-8.5l-15.7-8Z"/><path class="cls-2" d="M545.3,153c-10-4.7-21.7-1.3-27.3,10.7l18.3,8.5Z"/><path class="cls-21" d="M518.1,163.7c5.6-12,17.2-15.4,27.3-10.7"/><line class="cls-22" x1="536.7" y1="172.8" x2="545.6" y2="153.6"/><path class="cls-21" d="M1374.6,729c12.8-3.2,18.4-14,15.7-24.7"/><line class="cls-22" x1="1369.2" y1="709" x2="1389.8" y2="703.9"/><path class="cls-2" d="M1390.3,704.3c2.7,10.7-2.9,21.5-15.7,24.7l-4.8-19.6Z"/><path class="cls-21" d="M1329.6,680.1c-3.1-12.9-13.9-18.4-24.7-15.8"/><line class="cls-22" x1="1309.6" y1="685.4" x2="1304.6" y2="664.8"/><path class="cls-2" d="M1305,664.3c10.7-2.6,21.5,2.9,24.7,15.8l-19.6,4.8Z"/><path class="cls-26" d="M673,323.8c-5.2,10.1-1.3,19.8,7.2,24.1"/><line class="cls-27" x1="689" y1="331.6" x2="680.7" y2="347.8"/><path class="cls-2" d="M680.1,347.9c-8.5-4.3-12.3-14-7.2-24.1l15.5,7.9Z"/><rect class="cls-30" x="951.4" y="750.6" width="39.8" height="35.5"/><circle class="cls-31" cx="482.4" cy="1012.7" r="5.5"/><circle class="cls-31" cx="482.4" cy="846.4" r="5.5"/><circle class="cls-31" cx="482.4" cy="646.3" r="5.5"/><circle class="cls-31" cx="482.4" cy="147.3" r="5.5"/><circle class="cls-31" cx="693.7" cy="239.5" r="5.5"/><circle class="cls-31" cx="875.9" cy="320.7" r="5.5"/><circle class="cls-31" cx="1241.5" cy="481.7" r="5.5"/><circle class="cls-31" cx="1456.1" cy="575.9" r="5.5"/><circle class="cls-31" cx="1058.6" cy="401.2" r="5.5"/><circle class="cls-31" cx="1515.5" cy="802.2" r="5.5"/><circle class="cls-31" cx="1570.2" cy="1012.1" r="5.5"/><circle class="cls-31" cx="1413.2" cy="1012.1" r="5.5"/><circle class="cls-31" cx="1180.4" cy="1012.9" r="5.5"/><circle class="cls-31" cx="947.8" cy="1012.5" r="5.5"/><circle class="cls-31" cx="715.2" cy="1012.5" r="5.5"/><circle class="cls-31" cx="482.4" cy="447.2" r="5.5"/><polyline class="cls-32" points="1060.8 700.2 1060.8 790.1 1006.2 790.1 1006.2 700.2"/><rect class="cls-33" x="1029.48" y="701" width="8" height="65.5"/><line class="cls-34" x1="1037.7" y1="705.7" x2="1060.5" y2="705.7"/><line class="cls-34" x1="1037.7" y1="711.2" x2="1060.4" y2="711.2"/><line class="cls-34" x1="1037.7" y1="716.7" x2="1060" y2="716.7"/><line class="cls-34" x1="1037.7" y1="722.3" x2="1060" y2="722.3"/><line class="cls-34" x1="1037.7" y1="727.8" x2="1060.5" y2="727.8"/><line class="cls-34" x1="1037.7" y1="733.3" x2="1060.4" y2="733.3"/><line class="cls-34" x1="1037.7" y1="738.9" x2="1060" y2="738.9"/><line class="cls-34" x1="1037.7" y1="750" x2="1060" y2="750"/><line class="cls-34" x1="1037.7" y1="744.4" x2="1060.5" y2="744.4"/><line class="cls-34" x1="1037.7" y1="755.5" x2="1060.4" y2="755.5"/><line class="cls-34" x1="1037.7" y1="761" x2="1060" y2="761"/><line class="cls-34" x1="1037.7" y1="766.6" x2="1060" y2="766.6"/><line class="cls-34" x1="1006.3" y1="705.6" x2="1029.1" y2="705.6"/><line class="cls-34" x1="1006.3" y1="711.1" x2="1029" y2="711.1"/><line class="cls-34" x1="1006.3" y1="716.7" x2="1028.6" y2="716.7"/><line class="cls-34" x1="1006.3" y1="722.2" x2="1028.6" y2="722.2"/><line class="cls-34" x1="1006.3" y1="727.7" x2="1029.1" y2="727.7"/><line class="cls-34" x1="1006.3" y1="733.3" x2="1029" y2="733.3"/><line class="cls-34" x1="1006.3" y1="738.8" x2="1028.6" y2="738.8"/><line class="cls-34" x1="1006.3" y1="749.9" x2="1028.6" y2="749.9"/><line class="cls-34" x1="1006.3" y1="744.4" x2="1029.1" y2="744.4"/><line class="cls-34" x1="1006.3" y1="755.4" x2="1029" y2="755.4"/><line class="cls-34" x1="1006.3" y1="761" x2="1028.6" y2="761"/><line class="cls-34" x1="1006.3" y1="766.5" x2="1028.6" y2="766.5"/><polyline class="cls-34" points="1017.5 698.2 1017.5 778.7 1049.2 778.7 1049.2 776.2"/><polygon class="cls-35" points="1043.1 777 1055.3 777 1049.2 771 1043.1 777"/><line class="cls-36" x1="1063.9" y1="724.3" x2="1034.3" y2="738.9"/><line class="cls-37" x1="1063.9" y1="724.3" x2="1034.3" y2="738.9"/><rect class="cls-2" x="1032.87" y="716.7" width="3" height="34.4"/><rect class="cls-2" x="1062.33" y="715.02" width="2.6" height="33"/><polyline class="cls-32" points="771.9 737 682 737 682 791.6 771.9 791.6"/><rect class="cls-38" x="705.6" y="760.3" width="65.5" height="8"/><line class="cls-34" x1="766.4" y1="760.1" x2="766.4" y2="737.3"/><line class="cls-34" x1="760.8" y1="760.1" x2="760.8" y2="737.4"/><line class="cls-34" x1="755.3" y1="760.1" x2="755.3" y2="737.8"/><line class="cls-34" x1="749.8" y1="760.1" x2="749.8" y2="737.8"/><line class="cls-34" x1="744.2" y1="760.1" x2="744.2" y2="737.3"/><line class="cls-34" x1="738.7" y1="760.1" x2="738.7" y2="737.4"/><line class="cls-34" x1="733.2" y1="760.1" x2="733.2" y2="737.8"/><line class="cls-34" x1="722.1" y1="760.1" x2="722.1" y2="737.8"/><line class="cls-34" x1="727.6" y1="760.1" x2="727.6" y2="737.3"/><line class="cls-34" x1="716.5" y1="760.1" x2="716.5" y2="737.4"/><line class="cls-34" x1="711" y1="760.1" x2="711" y2="737.8"/><line class="cls-34" x1="705.5" y1="760.1" x2="705.5" y2="737.8"/><line class="cls-34" x1="766.4" y1="791.5" x2="766.4" y2="768.7"/><line class="cls-34" x1="760.9" y1="791.5" x2="760.9" y2="768.8"/><line class="cls-34" x1="755.4" y1="791.5" x2="755.4" y2="769.1"/><line class="cls-34" x1="749.8" y1="791.5" x2="749.8" y2="769.1"/><line class="cls-34" x1="744.3" y1="791.5" x2="744.3" y2="768.7"/><line class="cls-34" x1="738.8" y1="791.5" x2="738.8" y2="768.8"/><line class="cls-34" x1="733.2" y1="791.5" x2="733.2" y2="769.1"/><line class="cls-34" x1="722.1" y1="791.5" x2="722.1" y2="769.1"/><line class="cls-34" x1="727.7" y1="791.5" x2="727.7" y2="768.7"/><line class="cls-34" x1="716.6" y1="791.5" x2="716.6" y2="768.8"/><line class="cls-34" x1="711.1" y1="791.5" x2="711.1" y2="769.1"/><line class="cls-34" x1="705.5" y1="791.5" x2="705.5" y2="769.1"/><polyline class="cls-34" points="773.9 780.3 693.3 780.3 693.3 748.6 695.8 748.6"/><polygon class="cls-35" points="695 742.5 695 754.7 701.1 748.6 695 742.5"/><line class="cls-36" x1="747.8" y1="733.9" x2="733.2" y2="763.5"/><line class="cls-37" x1="747.8" y1="733.9" x2="733.2" y2="763.5"/><rect class="cls-2" x="720.9" y="761.9" width="34.4" height="3"/><rect class="cls-2" x="724.1" y="732.9" width="33" height="2.6"/><rect class="cls-30" x="1084.98" y="730.11" width="39.7" height="60"/><rect class="cls-39" x="1316.66" y="711.72" width="19.08" height="111.07" transform="translate(-153.42 369.52) rotate(-15)"/><polygon class="cls-30" points="1249.3 706.9 1290 861.3 1276.1 865 1236.2 710.4 1249.3 706.9"/><line class="cls-18" x1="991.2" y1="786.1" x2="951.4" y2="750.7"/><line class="cls-18" x1="951.4" y1="786.1" x2="991.2" y2="750.7"/><rect class="cls-30" x="951.35" y="692.75" width="39.8" height="35.5"/><line class="cls-18" x1="991.2" y1="728.3" x2="951.4" y2="692.8"/><line class="cls-18" x1="951.4" y1="728.3" x2="991.2" y2="692.8"/><rect class="cls-30" x="951.39" y="635.8" width="39.8" height="35.5"/><line class="cls-18" x1="991.2" y1="671.4" x2="951.4" y2="635.9"/><line class="cls-18" x1="951.4" y1="671.4" x2="991.2" y2="635.9"/><rect class="cls-30" x="815.36" y="750.99" width="39.8" height="35.5"/><line class="cls-18" x1="855.3" y1="786.5" x2="815.4" y2="751"/><line class="cls-18" x1="815.4" y1="786.5" x2="855.3" y2="751"/><rect class="cls-30" x="815.38" y="692.78" width="39.8" height="35.5"/><line class="cls-18" x1="855.3" y1="728.3" x2="815.4" y2="692.8"/><line class="cls-18" x1="815.4" y1="728.3" x2="855.3" y2="692.8"/><rect class="cls-30" x="807.88" y="635.89" width="47.3" height="35.5"/><line class="cls-18" x1="855.3" y1="671.4" x2="807.9" y2="635.9"/><line class="cls-18" x1="807.9" y1="671.4" x2="855.3" y2="635.9"/><line class="cls-18" x1="1124.7" y1="730.2" x2="1085" y2="790.2"/><line class="cls-18" x1="1124.7" y1="790.2" x2="1085" y2="730.2"/><polygon class="cls-30" points="849.2 920.7 902.4 938.1 918.9 1001.1 900.6 1001.1 889.7 959.7 849.4 946.3 849.2 920.7"/><polygon class="cls-40" points="849.2 927.8 896.9 943.3 902.2 963.4 908.3 961.6 902.4 938.1 849.2 920.7 849.2 927.8"/><text class="cls-41" transform="translate(883.59 712.36)">LIFTS</text><rect class="cls-21" x="1090.65" y="698.75" width="29.5" height="18.8"/><text class="cls-42" transform="translate(659.82 973.66)">08</text><g class="cls-43"><text class="cls-42" transform="translate(650.92 983.96)">NIG</text><text class="cls-44" transform="translate(664.58 983.96)">A<tspan class="cls-45" x="4.7" y="0">T</tspan></text><text class="cls-46" transform="translate(673.37 983.96)">A</text></g><text class="cls-42" transform="translate(778.37 973.66)">07</text><text class="cls-42" transform="translate(768.17 983.96)">IBORAKI</text><text class="cls-42" transform="translate(1094.63 973.66)">06</text><g class="cls-43"><text class="cls-42" transform="translate(1085.73 983.96)">MI</text><text class="cls-47" transform="translate(1094.02 983.96)">Y</text><text class="cls-42" transform="translate(1098.79 983.96)">AGI</text></g><text class="cls-42" transform="translate(1228.73 973.66)">05</text><g class="cls-43"><text class="cls-42" transform="translate(1223.23 983.96)">NAR</text><text class="cls-46" transform="translate(1240.43 983.96)">A</text></g><text class="cls-42" transform="translate(999.39 854.71)">01</text><g class="cls-43"><text class="cls-48" transform="translate(988.59 865.01)">T</text><text class="cls-42" transform="translate(992.48 865.01)">OT</text><text class="cls-48" transform="translate(1003.6 865.01)">T</text><text class="cls-42" transform="translate(1007.49 865.01)">ORI</text></g><text class="cls-42" transform="translate(1078.8 854.41)">02</text><g class="cls-43"><text class="cls-42" transform="translate(1065.6 864.71)">ISHIK</text><text class="cls-49" transform="translate(1087.09 864.71)">A<tspan class="cls-50" x="5.02" y="0">W</tspan></text><text class="cls-46" transform="translate(1099.3 864.71)">A</text></g><text class="cls-42" transform="translate(1138.36 854.41)">03</text><text class="cls-42" transform="translate(1136.76 864.71)">MIE</text><text class="cls-42" transform="translate(1215.64 840.92)">04</text><g class="cls-43"><text class="cls-48" transform="translate(1205.04 851.22)">T</text><text class="cls-42" transform="translate(1208.93 851.22)">O</text><text class="cls-47" transform="translate(1214.04 851.22)">Y</text><text class="cls-42" transform="translate(1217.81 851.22)">AM</text><text class="cls-46" transform="translate(1230.01 851.22)">A</text></g><text class="cls-51" transform="translate(639.98 654.42)">12</text><g class="cls-43"><text class="cls-52" transform="translate(624.38 664.72)">OKIN</text><text class="cls-53" transform="translate(646.01 664.72)">A<tspan class="cls-54" x="5.39" y="0">W</tspan></text><text class="cls-55" transform="translate(658.98 664.72)">A</text></g><text class="cls-41" transform="translate(1186.58 766.16)">COMMS</text><text class="cls-41" transform="translate(936.8 958.43)">RECEPTION</text><g class="cls-43"><text class="cls-41" transform="translate(957.74 373.51)">NO</text><text class="cls-56" transform="translate(976.5 373.51)">R</text><text class="cls-41" transform="translate(985.31 373.51)">TH</text></g><text class="cls-41" transform="translate(957.04 388.51)">OFFICE</text><text class="cls-41" transform="translate(1326.58 848.01)">KITCHEN</text><g class="cls-43"><text class="cls-41" transform="translate(1378.77 947.27)">BREAKOU</text><text class="cls-57" transform="translate(1439.94 947.27)">T</text></g><g class="cls-43"><text class="cls-41" transform="translate(1396.17 962.27)">ARE</text><text class="cls-58" transform="translate(1421.89 962.27)">A</text></g><text class="cls-42" transform="translate(1421.12 757.61)">20</text><g class="cls-43"><text class="cls-48" transform="translate(1414.42 767.91)">T</text><text class="cls-42" transform="translate(1418.31 767.91)">OKYO</text></g><text class="cls-42" transform="translate(1200.04 640.79)">19</text><g class="cls-43"><text class="cls-42" transform="translate(1195.04 651.09)">AKI</text><text class="cls-59" transform="translate(1209.33 651.09)">T</text><text class="cls-46" transform="translate(1213.86 651.09)">A</text></g><text class="cls-42" transform="translate(577.82 973.66)">09</text><text class="cls-42" transform="translate(564.82 983.96)">SAPPORO</text><g class="cls-43"><text class="cls-60" transform="translate(639.98 740.89)">1</text><text class="cls-42" transform="translate(643.27 740.89)">1</text></g><g class="cls-43"><text class="cls-42" transform="translate(626.98 751.19)">FUKUOK</text><text class="cls-46" transform="translate(661.03 751.19)">A</text></g><text class="cls-42" transform="translate(642.33 827.05)">10</text><g class="cls-43"><text class="cls-42" transform="translate(625.03 837.35)">KAGOSHIM</text><text class="cls-46" transform="translate(669.11 837.35)">A</text></g><text class="cls-42" transform="translate(807.17 413.89)">18</text><g class="cls-43"><text class="cls-61" transform="translate(801.97 424.19)">MI</text><text class="cls-62" transform="translate(811.26 424.19)">T</text><text class="cls-61" transform="translate(816.15 424.19)">O</text></g><text class="cls-42" transform="translate(720.54 374.83)">17</text><text class="cls-42" transform="translate(709.94 385.13)">HONSHU</text><text class="cls-42" transform="translate(642.36 351.04)">15</text><g class="cls-43"><text class="cls-42" transform="translate(631.56 361.34)">NAGO</text><text class="cls-47" transform="translate(655.24 361.34)">Y</text><text class="cls-46" transform="translate(660.01 361.34)">A</text></g><text class="cls-42" transform="translate(639.05 429.72)">14</text><text class="cls-42" transform="translate(633.45 440.02)">KOCHI</text><text class="cls-42" transform="translate(640.21 509.31)">13</text><g class="cls-43"><text class="cls-42" transform="translate(630.81 519.61)">OSAK</text><text class="cls-46" transform="translate(653.76 519.61)">A</text></g><text class="cls-42" transform="translate(501.02 110.68)">16</text><g class="cls-43"><text class="cls-44" transform="translate(494.52 120.98)">A<tspan class="cls-45" x="4.7" y="0">T</tspan></text><text class="cls-42" transform="translate(502.3 120.98)">AMI</text></g><g class="cls-43"><text class="cls-41" transform="translate(526.08 557.68)">WES</text><text class="cls-57" transform="translate(554.57 557.68)">T</text></g><text class="cls-41" transform="translate(521.18 572.68)">OFFICE</text></g><g id="nopointer-lud"><g id="nopointer-lud-2"><rect class="cls-63" x="124.5" y="88.7" width="232" height="224.5"/><circle class="cls-64" cx="171.6" cy="122.2" r="19.9"/><polygon class="cls-2" points="181.7 118.4 181.7 136.1 179.2 138.6 159.5 138.6 161.9 136.5 161.9 118.5 157.6 118.5 171.6 105.8 185.5 118.4 181.7 118.4"/><g id="exit"><path class="cls-64" d="M175.6,135.6l-4.8-8.8c-.1,1-.4,2.8-.5,3.6-.1,1.1-1.2,1.4-1.7,1.5H159l2.4-2.9h5.8l.4-5.3,2.3-4.2h-2.1a3,3,0,0,0-.4.6l-1.6,2.5a1.16,1.16,0,0,1-1.1.6,1.94,1.94,0,0,1-.7-.2,1.19,1.19,0,0,1-.45-1.62l0-.08,1.6-2.5h0a5.12,5.12,0,0,1,1.2-1.3,2.47,2.47,0,0,1,1.3-.3h4c.4,0,.8-.1,1.1-.1,2,0,2.9.6,3.2,1l.3.3,2.2,2.9h3.4a1.3,1.3,0,0,1,0,2.6h-4a1.23,1.23,0,0,1-1-.5l-1.7-2.3-1.6,3.5,5.6,11.4Z"/><path class="cls-2" d="M172.8,117.1c1.9,0,2.7.6,3,1,.1.1.2.1.3.2l2.3,3h3.5a1,1,0,0,1,1,1,.94.94,0,0,1-.88,1H177.9a.91.91,0,0,1-.8-.4l-2-2.6-1.9,4.1,5.5,11.1-3-.1-5.1-9.3s-.5,3.3-.6,4.4-1.5,1.2-1.5,1.2h-9l2-2.4h6l.4-5.6,2.4-4.6h-2.7a2.19,2.19,0,0,0-.5.7l-1.6,2.5a1,1,0,0,1-.8.5.72.72,0,0,1-.5-.2,1,1,0,0,1-.31-1.38v0l1.6-2.5h0a2.56,2.56,0,0,1,1.1-1.2,2,2,0,0,1,1.2-.3h4.1a2.5,2.5,0,0,1,.9-.1m0-.5h0a4.07,4.07,0,0,0-1.1.1h-4a2.68,2.68,0,0,0-1.4.4,4.57,4.57,0,0,0-1.3,1.4v.1l-1.6,2.5a1.59,1.59,0,0,0,.5,2.1,1.09,1.09,0,0,0,.8.2,1.69,1.69,0,0,0,1.3-.7l1.6-2.5a1.31,1.31,0,0,1,.3-.4h1.6l-2,3.8-.1.1v.1l-.3,5h-5.8l-.2.2-2,2.4-.8.9h10.2a2.56,2.56,0,0,0,.9-.2,1.91,1.91,0,0,0,1.1-1.5c.1-.6.3-1.8.4-2.8l4.3,7.9.1.3h.3l3,.1h.9l-.4-.8-5.4-10.9,1.4-3,1.4,1.9a1.44,1.44,0,0,0,1.2.6h4a1.5,1.5,0,0,0,0-3h-3.2l-2.1-2.8-.3-.3a3,3,0,0,0-1.1-.7,3.61,3.61,0,0,0-2.2-.5Z"/><path class="cls-64" d="M174.6,117a2.6,2.6,0,1,1,2.6-2.6A2.66,2.66,0,0,1,174.6,117Z"/><path class="cls-2" d="M174.6,112a2.3,2.3,0,1,1-2.4,2.3,2.42,2.42,0,0,1,2.4-2.3m0-.5a2.9,2.9,0,1,0,2.9,2.9h0A3,3,0,0,0,174.6,111.5Z"/></g><path class="cls-65" d="M171.6,246.5a21.2,21.2,0,1,1,21.2-21.2h0A21.21,21.21,0,0,1,171.6,246.5Z"/><path class="cls-2" d="M171.6,205.4a19.9,19.9,0,1,1-19.9,19.9h0a19.9,19.9,0,0,1,19.88-19.9h0m0-2.5A22.4,22.4,0,1,0,194,225.3a22.4,22.4,0,0,0-22.4-22.4Z"/><g id="fire"><path class="cls-2" d="M182.8,217.1v-4.5l-6.7.8v.8h-3.5v-1.7h-.9a1.46,1.46,0,0,0-.3-.8,2.27,2.27,0,0,0-3.14-.61,2.65,2.65,0,0,0-.26.21,2.35,2.35,0,0,0,0,3.3,6.82,6.82,0,0,0-3.4,3c-.6,1.5.9,1.7,1.3,1.1,1.9-2.9,3.9-2.8,3.9-2.8v.7a4.2,4.2,0,0,0-3.1,4.1v18.6a.87.87,0,0,0,.83.91h7c1,0,1.1-.8,1.1-1.4V220.6c0-3-3-4.1-3-4.1v-1h3.5v.8Zm-13.3-3.4a.9.9,0,1,1,.9-.9h0a.84.84,0,0,1-.78.9Z"/></g><path class="cls-64" d="M171.6,194.9a21.2,21.2,0,1,1,21.2-21.2h0A21.21,21.21,0,0,1,171.6,194.9Z"/><path class="cls-2" d="M171.6,153.9a19.9,19.9,0,1,1-19.9,19.9h0a19.9,19.9,0,0,1,19.88-19.9h0m0-2.5A22.4,22.4,0,1,0,194,173.8a22.4,22.4,0,0,0-22.4-22.4Z"/><g id="aid"><polygon class="cls-2" points="184.8 170.1 175.3 170.1 175.3 160.6 168 160.6 168 170.1 158.4 170.1 158.4 177.5 168 177.5 168 187 175.3 187 175.3 177.5 184.8 177.5 184.8 170.1"/></g><g class="cls-43"><text class="cls-66" transform="translate(206.48 129.28)">EMERGENC</text><text class="cls-67" transform="translate(287.38 129.28)">Y</text><text class="cls-66" transform="translate(296.46 129.28)"><tspan xml:space="preserve"> EXI</tspan></text><text class="cls-67" transform="translate(322.92 129.28)">T</text></g><g class="cls-43"><text class="cls-66" transform="translate(206.48 180.72)">FIRS</text><text class="cls-67" transform="translate(238.37 180.72)">T</text><text class="cls-68" transform="translate(246.67 180.72)"> </text><text class="cls-66" transform="translate(249.79 180.72)">AID</text></g><text class="cls-66" transform="translate(206.48 232.77)">EXTINGUISHER</text><circle class="cls-64" cx="1112.8" cy="681.2" r="10"/><polygon class="cls-2" points="1117.8 679.2 1117.8 688.2 1116.7 689.3 1106.7 689.3 1107.9 688.3 1107.9 679.3 1105.8 679.3 1112.8 672.9 1119.8 679.2 1117.8 679.2"/><g id="exit-2"><path class="cls-64" d="M1114.8,687.9l-2.4-4.4a5.81,5.81,0,0,1-.3,1.9c0,.6-.6.7-.9.7h-4.9l1.3-1.4h2.9l.1-2.7,1.1-2.1h-1l-.3.3-.9,1.3a.83.83,0,0,1-.6.3c-.1,0-.3,0-.3-.1a.54.54,0,0,1-.22-.74.48.48,0,0,1,.12-.16l.9-1.3h0c.3-.3.4-.6.6-.7a1.66,1.66,0,0,1,.7-.1h2.6c1,0,1.4.3,1.6.6l.1.1,1.1,1.4h1.7a.6.6,0,0,1,0,1.2h-2c-.1,0-.4-.1-.4-.3l-.9-1.1-.9,1.7,2.9,5.7Z"/><path class="cls-2" d="M1113.4,678.6a2.81,2.81,0,0,1,1.6.4.09.09,0,0,1,.1.1l1.1,1.6h1.7c.3,0,.4.3.4.6a.72.72,0,0,1-.4.6h-2a.63.63,0,0,1-.4-.1l-1-1.3-1,2,2.7,5.6h-1.6l-2.6-4.7a18.62,18.62,0,0,0-.3,2.1c0,.6-.7.6-.7.6h-4.6l1-1.1h3l.1-2.9,1.3-2.3h-1.3l-.3.3-.9,1.3c-.1.1-.3.3-.4.3h-.3c-.3-.1-.3-.4-.1-.7l.9-1.3h0c.3-.3.4-.6.6-.6a1.55,1.55,0,0,1,.6-.1h2.1c.4-.4.5-.4.7-.4m0-.3h-2.6a2.37,2.37,0,0,0-.7.1,4.63,4.63,0,0,0-.7.7h0l-.9,1.3a.64.64,0,0,0,.11.9.69.69,0,0,0,.19.1c.1,0,.3.1.4.1.3,0,.4-.1.7-.4l.7-1.3.1-.1h.9l-1,1.9h0l-.1,2.6h-2.8v.1l-1,1.1-.4.4h5.2s.3,0,.4-.1a.87.87,0,0,0,.6-.7c0-.3.1-.9.1-1.4l2.1,4v.1h2.1l-.1-.4-2.7-5.4.7-1.6.7,1a1.11,1.11,0,0,0,.6.3h2a.7.7,0,0,0,0-1.4h-1.6l-1.1-1.4-.1-.1a.83.83,0,0,0-.6-.3,4.83,4.83,0,0,0-1.2-.1Z"/><path class="cls-64" d="M1114.2,678.5a1.3,1.3,0,1,1,1.3-1.3A1.32,1.32,0,0,1,1114.2,678.5Z"/><path class="cls-2" d="M1114.2,676a1.11,1.11,0,0,1,1.1,1.1,1.18,1.18,0,0,1-1.1,1.1,1.11,1.11,0,0,1-1.1-1.1,1.27,1.27,0,0,1,1.1-1.1m0-.3a1.4,1.4,0,0,0,0,2.8,1.51,1.51,0,0,0,1.4-1.4,1.36,1.36,0,0,0-1.32-1.4Z"/></g><circle class="cls-69" cx="824.3" cy="515" r="10"/><circle class="cls-69" cx="712.5" cy="483.1" r="10"/><path class="cls-2" d="M715.9,485.6l-2-5.5V480a.22.22,0,0,1,.2-.2c.1,0,.1,0,.1.1l1.4,3.5a.86.86,0,0,0,.7.4q.15,0,.3-.3a.79.79,0,0,0,.1-.4l-1.4-3.4a1.39,1.39,0,0,0-.6-1.1,1.87,1.87,0,0,0-1.2-.4h-1.7a1.6,1.6,0,0,0-1.2.4,1.22,1.22,0,0,0-.6,1l-1.3,3.4v.4q.15.3.3.3c.4,0,.7-.1.7-.3l1.3-3.6a.09.09,0,0,1,.1-.1c.1,0,.1,0,.1.1h0l-1.9,5.5v.4l.2.2.2.2H711v4.2c0,.2.1.3.2.5a.72.72,0,0,0,.5.2c.2,0,.3-.1.5-.2a.72.72,0,0,0,.2-.5v-4.4h.7v4.4c0,.2.1.3.2.5a.72.72,0,0,0,.5.2c.2,0,.3-.1.5-.2a.72.72,0,0,0,.2-.5v-4.2h1.3c.1,0,.1-.1.2-.2a.3.3,0,0,0,.1-.2l-.2-.1Z"/><path class="cls-2" d="M711.1,476.3a1.37,1.37,0,1,0,.4-1A1.29,1.29,0,0,0,711.1,476.3Z"/><circle class="cls-64" cx="778.6" cy="676.4" r="10"/><polygon class="cls-2" points="783.6 674.4 783.6 683.4 782.4 684.6 772.4 684.6 773.7 683.6 773.7 674.6 771.6 674.6 778.6 668.1 785.6 674.4 783.6 674.4"/><g id="exit-3"><path class="cls-64" d="M780.6,683.1l-2.4-4.4a5.81,5.81,0,0,1-.3,1.9c0,.6-.6.7-.9.7h-4.9l1.3-1.4h2.9l.1-2.7,1.1-2.1h-1l-.3.3-.9,1.3a.83.83,0,0,1-.6.3c-.1,0-.3,0-.3-.1a.54.54,0,0,1-.22-.74.48.48,0,0,1,.12-.16l.9-1.3h0c.3-.3.4-.6.6-.7a1.66,1.66,0,0,1,.7-.1h2.6c1,0,1.4.3,1.6.6l.1.1,1.1,1.4h1.7a.6.6,0,0,1,0,1.2h-2c-.1,0-.4-.1-.4-.3l-.9-1.1-.9,1.7,2.9,5.7Z"/><path class="cls-2" d="M779.1,673.9a2.81,2.81,0,0,1,1.6.4.09.09,0,0,1,.1.1l1.1,1.6h1.7c.3,0,.4.3.4.6a.72.72,0,0,1-.4.6h-2a.63.63,0,0,1-.4-.1l-1-1.3-1,2,2.7,5.6h-1.6l-2.6-4.7a18.62,18.62,0,0,0-.3,2.1c0,.6-.7.6-.7.6h-4.6l1-1.1h3l.1-2.9,1.3-2.3h-1.3l-.3.3-.9,1.3c-.1.1-.3.3-.4.3h-.3c-.3-.1-.3-.4-.1-.7l.9-1.3h0c.3-.3.4-.6.6-.6a1.55,1.55,0,0,1,.6-.1h2.1c.5-.4.6-.4.7-.4m0-.3h-2.6a2.37,2.37,0,0,0-.7.1,4.63,4.63,0,0,0-.7.7h0l-.9,1.3a.64.64,0,0,0,.11.9.69.69,0,0,0,.19.1c.1,0,.3.1.4.1.3,0,.4-.1.7-.4l.7-1.3.1-.1h.9l-1,1.9h0l-.1,2.6h-2.8v.1l-1,1.1-.4.4h5.2s.3,0,.4-.1a.87.87,0,0,0,.6-.7c0-.3.1-.9.1-1.4l2.1,4v.1h2.1l-.1-.4-2.7-5.4.7-1.6.7,1a1.14,1.14,0,0,0,.6.3h2a.7.7,0,1,0,0-1.4h-1.6L781,674l-.1-.1a.83.83,0,0,0-.6-.3Z"/><path class="cls-64" d="M780,673.7a1.3,1.3,0,1,1,1.3-1.3h0A1.32,1.32,0,0,1,780,673.7Z"/><path class="cls-2" d="M780,671.3a1.11,1.11,0,0,1,1.1,1.1,1.18,1.18,0,0,1-1.1,1.1,1.11,1.11,0,0,1-1.1-1.1,1.18,1.18,0,0,1,1.1-1.1m0-.3a1.4,1.4,0,0,0,0,2.8h0a1.51,1.51,0,0,0,1.4-1.4,1.36,1.36,0,0,0-1.32-1.4Z"/></g><path class="cls-2" d="M822.6,522.5c0,.5.2.7.7.7s.7-.2.7-.7v-5.7h.7v5.7c0,.5.2.7.7.7s.7-.2.7-.7V512.2h.5v3.5a.71.71,0,0,0,.3.6.45.45,0,0,0,.5,0,.61.61,0,0,0,.3-.6V512a1.44,1.44,0,0,0-.5-1.1,2.23,2.23,0,0,0-1.5-.4H823a2.47,2.47,0,0,0-1.3.3,1.41,1.41,0,0,0-.7,1.1V516c0,.2.1.4.3.4s.4.1.5,0,.3-.2.3-.4v-3.7h.5Z"/><path class="cls-2" d="M822.9,508.4a1.37,1.37,0,1,0,.4-1A1.29,1.29,0,0,0,822.9,508.4Z"/><circle class="cls-69" cx="171.6" cy="276.5" r="19.9"/><path class="cls-70" d="M176.4,279.1a.9.9,0,0,1-1.8,0v-6h0a2.43,2.43,0,0,1,2.4-2.4h4.3a2.43,2.43,0,0,1,2.4,2.4h0v6a.9.9,0,0,1-1.8,0v-5.5h-.5v14.9a1.1,1.1,0,0,1-2.2,0v-8.6H179v8.6a1.1,1.1,0,0,1-2.2,0V273.6h-.5l.1,5.5Z"/><circle class="cls-70" cx="179.2" cy="268.3" r="2"/><path class="cls-70" d="M159.6,278.3a.75.75,0,0,1-.92.53l-.08,0a.89.89,0,0,1-.6-1l1.6-5.6a2.56,2.56,0,0,1,2.3-1.8h2.8a2.35,2.35,0,0,1,2.3,1.8l1.6,5.6a.8.8,0,0,1-.55,1H168a.83.83,0,0,1-1-.5l-1.5-5.2H165l2.6,8.9h-2.4v6.6a.9.9,0,0,1-1.8,0V282H163v6.6a.9.9,0,0,1-1.8,0h0V282H159l2.6-8.9h-.5l-1.5,5.2Z"/><circle class="cls-70" cx="163.4" cy="268.2" r="2"/><line class="cls-71" x1="171.6" y1="260" x2="171.6" y2="292.6"/><g class="cls-43"><text class="cls-67" transform="translate(206.48 283.06)">T</text><text class="cls-66" transform="translate(214.78 283.06)">OILETS</text></g></g><path class="cls-65" d="M647,334.9a9.5,9.5,0,1,1,9.5-9.5h0A9.5,9.5,0,0,1,647,334.9Z"/><path class="cls-2" d="M647,316.6a8.9,8.9,0,1,1-8.9,8.9,8.89,8.89,0,0,1,8.9-8.9m0-1.1a10,10,0,1,0,10,10A10,10,0,0,0,647,315.5Z"/><g id="fire-2"><path class="cls-2" d="M652,321.8v-2l-3,.4v.4h-1.6v-.8H647a1.07,1.07,0,0,0-.1-.4c-.4-.5-1.2-.6-1.5-.2a1.11,1.11,0,0,0,0,1.5,2.85,2.85,0,0,0-1.5,1.3c-.3.7.4.8.6.5.8-1.3,1.7-1.3,1.7-1.3v.3a1.83,1.83,0,0,0-1.4,1.8v8.3a.38.38,0,0,0,.38.4h3c.4,0,.5-.4.5-.6v-8.1a2.07,2.07,0,0,0-1.3-1.8v-.4H649v.4Zm-5.9-1.5a.4.4,0,1,1,.4-.4A.43.43,0,0,1,646.1,320.3Z"/></g><path class="cls-64" d="M628.2,388.8a9.5,9.5,0,1,1,9.5-9.5A9.63,9.63,0,0,1,628.2,388.8Z"/><path class="cls-2" d="M628.2,370.5a8.9,8.9,0,1,1-8.9,8.9,8.89,8.89,0,0,1,8.9-8.9m0-1.1a10,10,0,1,0,10,10A10,10,0,0,0,628.2,369.4Z"/><g id="aid-2"><polygon class="cls-2" points="634 377.7 629.8 377.7 629.8 373.5 626.5 373.5 626.5 377.7 622.3 377.7 622.3 381 626.5 381 626.5 385.2 629.8 385.2 629.8 381 634 381 634 377.7"/></g><path class="cls-65" d="M884.1,561.2a9.5,9.5,0,1,1,9.5-9.5h0A9.5,9.5,0,0,1,884.1,561.2Z"/><path class="cls-2" d="M884.1,542.8a8.9,8.9,0,1,1-8.9,8.9,8.89,8.89,0,0,1,8.9-8.9m0-1.1a10,10,0,1,0,10,10A10,10,0,0,0,884.1,541.7Z"/><g id="fire-3"><path class="cls-2" d="M889.1,548.1v-2l-3,.4v.4h-1.6V546h-.4a1.07,1.07,0,0,0-.1-.4c-.4-.5-1.2-.6-1.5-.2a1.11,1.11,0,0,0,0,1.5,2.85,2.85,0,0,0-1.5,1.3c-.3.7.4.8.6.5.8-1.3,1.7-1.3,1.7-1.3v.3a1.83,1.83,0,0,0-1.4,1.8v8.3a.38.38,0,0,0,.38.4h3c.4,0,.5-.4.5-.6v-8.1a2.07,2.07,0,0,0-1.3-1.8v-.4h1.6v.4Zm-5.9-1.6a.4.4,0,1,1,.4-.4c0,.3-.1.4-.4.4Z"/></g><path class="cls-65" d="M1297,885.6a9.5,9.5,0,1,1,9.5-9.5h0A9.5,9.5,0,0,1,1297,885.6Z"/><path class="cls-2" d="M1297,867.2a8.9,8.9,0,1,1-8.9,8.9,8.89,8.89,0,0,1,8.9-8.9m0-1.1a10,10,0,1,0,10,10A10,10,0,0,0,1297,866.1Z"/><g id="fire-4"><path class="cls-2" d="M1302,872.4v-2l-3,.4v.4h-1.6v-.8h-.4a1.07,1.07,0,0,0-.1-.4c-.4-.5-1.2-.6-1.5-.2a1.11,1.11,0,0,0,0,1.5,2.85,2.85,0,0,0-1.5,1.3c-.3.7.4.8.6.5.8-1.3,1.7-1.3,1.7-1.3v.3a1.83,1.83,0,0,0-1.4,1.8v8.3a.38.38,0,0,0,.38.4h3c.4,0,.5-.4.5-.6v-8.1a2.07,2.07,0,0,0-1.3-1.8v-.4h1.6v.4Zm-6-1.5a.4.4,0,1,1,.4-.4.37.37,0,0,1-.34.4Z"/></g><path class="cls-65" d="M931.6,856.6a9.5,9.5,0,1,1,9.5-9.5h0A9.5,9.5,0,0,1,931.6,856.6Z"/><path class="cls-2" d="M931.6,838.2a8.9,8.9,0,1,1-8.9,8.9,8.89,8.89,0,0,1,8.9-8.9m0-1.1a10,10,0,1,0,10,10A10,10,0,0,0,931.6,837.1Z"/><g id="fire-5"><path class="cls-2" d="M936.6,843.4v-2l-3,.4v.4H932v-.8h-.4a1.07,1.07,0,0,0-.1-.4c-.4-.5-1.2-.6-1.5-.2a1.11,1.11,0,0,0,0,1.5,2.85,2.85,0,0,0-1.5,1.3c-.3.7.4.8.6.5.8-1.3,1.7-1.3,1.7-1.3v.3a1.83,1.83,0,0,0-1.4,1.8v8.3a.38.38,0,0,0,.38.4h3c.4,0,.5-.4.5-.6v-8.1a2.07,2.07,0,0,0-1.3-1.8v-.4h1.6v.4Zm-5.9-1.5a.4.4,0,1,1,.4-.4.37.37,0,0,1-.34.4Z"/></g><path class="cls-64" d="M1271.25,690.3a9.5,9.5,0,1,1,9.5-9.5,9.5,9.5,0,0,1-9.5,9.5Z"/><path class="cls-2" d="M1271.25,671.9a8.9,8.9,0,1,1-8.9,8.9,8.89,8.89,0,0,1,8.9-8.9m0-1.1a10,10,0,1,0,10,10A10,10,0,0,0,1271.25,670.8Z"/><g id="aid-3"><polygon class="cls-2" points="1277.15 679.2 1272.95 679.2 1272.95 674.9 1269.65 674.9 1269.65 679.2 1265.35 679.2 1265.35 682.5 1269.65 682.5 1269.65 686.7 1272.95 686.7 1272.95 682.5 1277.15 682.5 1277.15 679.2"/></g></g></svg>