<?xml version="1.0" encoding="utf-8"?>
<!-- Generator: Adobe Illustrator 21.1.0, SVG Export Plug-In . SVG Version: 6.00 Build 0)  -->
<svg version="1.1" id="Layer_1" xmlns="http://www.w3.org/2000/svg" xmlns:xlink="http://www.w3.org/1999/xlink" x="0px" y="0px"
	 width="1920px" height="1080px" viewBox="0 0 1920 1080" enable-background="new 0 0 1920 1080" xml:space="preserve">
<g id="area">
	<g>
		<polygon fill="#D8D8D6" points="1204.07,915.18 1204.07,905.27 1189.95,905.27 1189.95,915.18 1068.82,915.18 1068.82,905.27 
			1054.82,905.27 1054.82,915.18 933.7,915.18 933.7,905.27 919.57,905.27 919.57,915.18 798.45,915.18 798.45,905.27 784.7,905.27 
			784.7,915.18 663.32,915.18 663.32,905.27 657.7,905.27 657.7,672.06 1055.24,671.94 1055.24,675.96 1069.32,675.96 
			1069.32,333.43 1330.97,333.43 1330.97,423.43 1326.07,423.43 1326.07,437.43 1330.97,437.43 1330.97,539.68 1326.07,539.68 
			1326.07,553.56 1330.97,553.56 1330.97,905.27 1325.07,905.27 1325.07,915.18 		"/>
		<g>
			<path fill="#FFFFFF" d="M1327.97,336.43v84h-4.9v6v8v6h4.9v96.25h-4.9v6v7.88v6h4.9v345.71h-5.9v6v3.92h-115v-3.92v-6h-6h-8.13
				h-6v6v3.92h-115.13v-3.92v-6h-6h-8h-6v6v3.92H936.7v-3.92v-6h-6h-8.13h-6v6v3.92H801.45v-3.92v-6h-6h-7.75h-6v6v3.92H666.32
				v-3.92v-6h-5.63V675.06l391.54-0.12v4.03h6h8.08h6v-6V336.43H1327.97 M1333.97,330.43h-267.65v342.53h-8.08v-4.03l-403.54,0.13
				v239.21h5.63v9.92H787.7v-9.92h7.75v9.92h127.13v-9.92h8.13v9.92h127.13v-9.92h8v9.92h127.13v-9.92h8.13v9.92h127v-9.92h5.9
				V550.56h-4.9v-7.88h4.9V434.43h-4.9v-8h4.9v-96H1333.97z"/>
		</g>
	</g>
	<g>
		<rect x="657.7" y="190.77" fill="#D8D8D6" width="124.21" height="358.67"/>
		<path fill="#FFFFFF" d="M778.91,193.77v352.67H660.7V193.77H778.91 M784.91,187.77H654.7v364.67h130.21L784.91,187.77
			L784.91,187.77z"/>
	</g>
	<g>
		<polygon fill="#D8D8D6" points="791.91,661.9 791.91,190.77 964.58,190.77 964.91,333.43 990.08,333.43 990.08,367.93 
			1034.57,367.93 1034.57,333.43 1059.32,333.43 1059.32,423.24 1055.91,423.24 1055.91,437.3 1059.32,437.3 1059.32,539.74 
			1055.57,539.74 1055.57,553.8 1059.32,553.8 1059.32,661.9 		"/>
		<path fill="#FFFFFF" d="M961.59,193.77l0.32,136.68l0.01,5.99h5.99h19.18v28.5v6h6h38.49h6v-6v-28.5h18.75v83.8h-3.42v6v8.06v6
			h3.42v96.44h-3.75v6v8.06v6h3.75v102.1H794.91V193.77H961.59 M967.57,187.77H788.91V664.9h273.42V550.8h-3.75v-8.06h3.75V434.3
			h-3.42v-8.06h3.42v-95.8h-30.75v34.5h-38.49v-34.5h-25.18L967.57,187.77L967.57,187.77z"/>
	</g>
	<polygon fill="#FFCFCF" stroke="#FFFFFF" stroke-width="6" stroke-miterlimit="10" points="971.82,187.77 971.82,224.43 
		1062.32,224.43 1062.32,326.43 1333.97,326.43 1333.97,294.93 1329.07,294.93 1329.07,286.68 1333.97,286.68 1333.97,193.18 
		1329.07,193.18 1329.07,187.77 	"/>
	<polygon fill="#D8D8D6" stroke="#FFFFFF" stroke-width="6" stroke-miterlimit="10" points="784.91,556.01 784.91,610.43 
		732.32,610.43 721.21,610.43 721.21,588.09 732.32,588.09 732.32,556.01 	"/>
	<polygon fill="#D8D8D6" stroke="#FFFFFF" stroke-width="6" stroke-miterlimit="10" points="654.7,614.68 784.91,614.68 
		784.91,664.9 729.32,664.9 729.32,630.18 654.7,630.18 	"/>
	
		<rect x="971.82" y="228.27" fill="#D8D8D6" stroke="#FFFFFF" stroke-width="6" stroke-miterlimit="10" width="23.86" height="54.35"/>
</g>
<g id="misc">
	<g>
		<g>
			<rect x="685.49" y="588.37" fill="#E9E9E9" width="35.44" height="23.92"/>
			<path fill="#878787" d="M720.66,588.64V612h-34.89v-23.36H720.66 M721.21,588.09h-36v24.48h36V588.09L721.21,588.09z"/>
		</g>
		
			<line fill="none" stroke="#878787" stroke-width="0.5577" stroke-miterlimit="10" x1="690.21" y1="612.56" x2="690.21" y2="588.09"/>
		
			<line fill="none" stroke="#878787" stroke-width="0.5577" stroke-miterlimit="10" x1="695.47" y1="612.56" x2="695.47" y2="588.09"/>
		
			<line fill="none" stroke="#878787" stroke-width="0.5577" stroke-miterlimit="10" x1="700.72" y1="612.56" x2="700.72" y2="588.09"/>
		
			<line fill="none" stroke="#878787" stroke-width="0.5577" stroke-miterlimit="10" x1="705.98" y1="612.56" x2="705.98" y2="588.09"/>
		
			<line fill="none" stroke="#878787" stroke-width="0.5577" stroke-miterlimit="10" x1="711.23" y1="612.56" x2="711.23" y2="588.09"/>
		
			<line fill="none" stroke="#878787" stroke-width="0.5577" stroke-miterlimit="10" x1="716.49" y1="612.56" x2="716.49" y2="588.09"/>
	</g>
	<g>
		<g>
			<rect x="685.49" y="560.01" fill="#E9E9E9" width="46.55" height="23.92"/>
			<path fill="#878787" d="M731.77,560.29v23.36h-46v-23.36H731.77 M732.32,559.73h-47.11v24.48h47.11V559.73L732.32,559.73z"/>
		</g>
		
			<line fill="none" stroke="#878787" stroke-width="0.5577" stroke-miterlimit="10" x1="690.21" y1="584.21" x2="690.21" y2="559.73"/>
		
			<line fill="none" stroke="#878787" stroke-width="0.5577" stroke-miterlimit="10" x1="695.47" y1="584.21" x2="695.47" y2="559.73"/>
		
			<line fill="none" stroke="#878787" stroke-width="0.5577" stroke-miterlimit="10" x1="700.72" y1="584.21" x2="700.72" y2="559.73"/>
		
			<line fill="none" stroke="#878787" stroke-width="0.5577" stroke-miterlimit="10" x1="705.98" y1="584.21" x2="705.98" y2="559.73"/>
		
			<line fill="none" stroke="#878787" stroke-width="0.5577" stroke-miterlimit="10" x1="711.23" y1="584.21" x2="711.23" y2="559.73"/>
		
			<line fill="none" stroke="#878787" stroke-width="0.5577" stroke-miterlimit="10" x1="716.49" y1="584.21" x2="716.49" y2="559.73"/>
	</g>
	<g>
		<rect x="654.91" y="560.01" fill="#E9E9E9" width="30.5" height="52.27"/>
		<g>
			<path fill="#878787" d="M685.13,560.29V612h-29.94v-51.71H685.13 M685.69,559.73h-31.06v52.83h31.06V559.73L685.69,559.73z"/>
		</g>
	</g>
	<g>
		<g>
			<polyline fill="none" stroke="#6D6D6D" stroke-width="0.4725" stroke-miterlimit="10" points="718.87,599.88 679.35,599.88 
				679.35,576.29 680.68,576.29 			"/>
			<g>
				<polygon fill="#6D6D6D" points="680.3,573.42 680.3,579.16 683.17,576.29 				"/>
			</g>
		</g>
	</g>
	<g>
		<g>
			<rect x="995.45" y="228.55" fill="#E9E9E9" width="41.26" height="24.19"/>
			<path fill="#878787" d="M1036.43,228.83v23.63h-40.7v-23.63H1036.43 M1036.99,228.27h-41.82v24.75H1037v-24.75H1036.99z"/>
		</g>
		
			<line fill="none" stroke="#878787" stroke-width="0.5608" stroke-miterlimit="10" x1="1031.99" y1="228.27" x2="1031.99" y2="253.01"/>
		
			<line fill="none" stroke="#878787" stroke-width="0.5608" stroke-miterlimit="10" x1="1026.74" y1="228.27" x2="1026.74" y2="253.01"/>
		
			<line fill="none" stroke="#878787" stroke-width="0.5608" stroke-miterlimit="10" x1="1021.48" y1="228.27" x2="1021.48" y2="253.01"/>
		
			<line fill="none" stroke="#878787" stroke-width="0.5608" stroke-miterlimit="10" x1="1016.23" y1="228.27" x2="1016.23" y2="253.01"/>
		
			<line fill="none" stroke="#878787" stroke-width="0.5608" stroke-miterlimit="10" x1="1010.97" y1="228.27" x2="1010.97" y2="253.01"/>
		
			<line fill="none" stroke="#878787" stroke-width="0.5608" stroke-miterlimit="10" x1="1005.72" y1="228.27" x2="1005.72" y2="253.01"/>
	</g>
	<g>
		<g>
			<rect x="995.45" y="257.22" fill="#E9E9E9" width="41.26" height="24.19"/>
			<path fill="#878787" d="M1036.43,257.5v23.63h-40.7V257.5H1036.43 M1036.99,256.94h-41.83v24.75h41.83V256.94L1036.99,256.94z"/>
		</g>
		
			<line fill="none" stroke="#878787" stroke-width="0.5608" stroke-miterlimit="10" x1="1031.99" y1="256.94" x2="1031.99" y2="281.68"/>
		
			<line fill="none" stroke="#878787" stroke-width="0.5608" stroke-miterlimit="10" x1="1026.74" y1="256.94" x2="1026.74" y2="281.68"/>
		
			<line fill="none" stroke="#878787" stroke-width="0.5608" stroke-miterlimit="10" x1="1021.48" y1="256.94" x2="1021.48" y2="281.68"/>
		
			<line fill="none" stroke="#878787" stroke-width="0.5608" stroke-miterlimit="10" x1="1016.23" y1="256.94" x2="1016.23" y2="281.68"/>
		
			<line fill="none" stroke="#878787" stroke-width="0.5608" stroke-miterlimit="10" x1="1010.97" y1="256.94" x2="1010.97" y2="281.68"/>
		
			<line fill="none" stroke="#878787" stroke-width="0.5608" stroke-miterlimit="10" x1="1005.72" y1="256.94" x2="1005.72" y2="281.68"/>
	</g>
	<g>
		<rect x="1036.8" y="228.55" fill="#E9E9E9" width="21.9" height="52.85"/>
		<g>
			<path fill="#878787" d="M1037.08,228.83h21.33v52.28h-21.33V228.83 M1036.52,228.27v53.42h22.46v-53.42H1036.52L1036.52,228.27z"
				/>
		</g>
	</g>
	<g>
		<g>
			<polyline fill="none" stroke="#6D6D6D" stroke-width="0.4725" stroke-miterlimit="10" points="1003.33,264.54 1042.85,264.54 
				1042.85,240.95 1041.52,240.95 			"/>
			<g>
				<polygon fill="#6D6D6D" points="1041.91,243.82 1041.91,238.08 1039.04,240.95 				"/>
			</g>
		</g>
	</g>
	
		<line fill="none" stroke="#878787" stroke-width="0.5608" stroke-miterlimit="10" x1="1000.49" y1="228.39" x2="1000.48" y2="253.01"/>
	
		<line fill="none" stroke="#878787" stroke-width="0.5608" stroke-miterlimit="10" x1="1000.48" y1="257.19" x2="1000.48" y2="281.68"/>
	
		<line fill="none" stroke="#878787" stroke-width="0.5577" stroke-miterlimit="10" x1="716.49" y1="584.21" x2="716.49" y2="559.73"/>
	
		<line fill="none" stroke="#878787" stroke-width="0.5577" stroke-miterlimit="10" x1="721.74" y1="584.21" x2="721.74" y2="559.73"/>
	<line fill="none" stroke="#878787" stroke-width="0.5577" stroke-miterlimit="10" x1="727" y1="584.21" x2="727" y2="559.73"/>
	
		<rect x="1000.57" y="336.1" fill="#C6C9CE" stroke="#878787" stroke-width="0.2107" stroke-miterlimit="10" width="23.75" height="26.25"/>
	
		<line fill="none" stroke="#878787" stroke-width="0.2107" stroke-miterlimit="10" x1="1024.32" y1="336.1" x2="1000.57" y2="362.35"/>
	
		<line fill="none" stroke="#878787" stroke-width="0.2107" stroke-miterlimit="10" x1="1000.57" y1="336.1" x2="1024.32" y2="362.35"/>
	<g>
		<g>
			<rect x="685.5" y="650.62" fill="#E9E9E9" width="35.57" height="14.21"/>
			<path fill="#878787" d="M720.86,650.84v13.78h-35.14v-13.78H720.86 M721.29,650.41h-36v14.64h36V650.41L721.29,650.41z"/>
		</g>
		
			<line fill="none" stroke="#878787" stroke-width="0.4314" stroke-miterlimit="10" x1="690.28" y1="665.05" x2="690.28" y2="650.41"/>
		
			<line fill="none" stroke="#878787" stroke-width="0.4314" stroke-miterlimit="10" x1="695.54" y1="665.05" x2="695.54" y2="650.41"/>
		
			<line fill="none" stroke="#878787" stroke-width="0.4314" stroke-miterlimit="10" x1="700.79" y1="665.05" x2="700.79" y2="650.41"/>
		
			<line fill="none" stroke="#878787" stroke-width="0.4314" stroke-miterlimit="10" x1="706.05" y1="665.05" x2="706.05" y2="650.41"/>
		
			<line fill="none" stroke="#878787" stroke-width="0.4314" stroke-miterlimit="10" x1="711.3" y1="665.05" x2="711.3" y2="650.41"/>
		
			<line fill="none" stroke="#878787" stroke-width="0.4314" stroke-miterlimit="10" x1="716.56" y1="665.05" x2="716.56" y2="650.41"/>
	</g>
	<g>
		<g>
			<rect x="679.18" y="633.66" fill="#E9E9E9" width="47.76" height="14.21"/>
			<path fill="#878787" d="M726.73,633.87v13.78H679.4v-13.78H726.73 M727.16,633.44h-48.19v14.64h48.19V633.44L727.16,633.44z"/>
		</g>
		
			<line fill="none" stroke="#878787" stroke-width="0.4314" stroke-miterlimit="10" x1="690.28" y1="648.08" x2="690.28" y2="633.44"/>
		
			<line fill="none" stroke="#878787" stroke-width="0.4314" stroke-miterlimit="10" x1="695.54" y1="648.08" x2="695.54" y2="633.44"/>
		
			<line fill="none" stroke="#878787" stroke-width="0.4314" stroke-miterlimit="10" x1="700.79" y1="648.08" x2="700.79" y2="633.44"/>
		
			<line fill="none" stroke="#878787" stroke-width="0.4314" stroke-miterlimit="10" x1="706.05" y1="648.08" x2="706.05" y2="633.44"/>
		
			<line fill="none" stroke="#878787" stroke-width="0.4314" stroke-miterlimit="10" x1="711.3" y1="648.08" x2="711.3" y2="633.44"/>
		
			<line fill="none" stroke="#878787" stroke-width="0.4314" stroke-miterlimit="10" x1="716.56" y1="648.08" x2="716.56" y2="633.44"/>
	</g>
	<g>
		<rect x="654.92" y="633.66" fill="#E9E9E9" width="30.63" height="31.17"/>
		<g>
			<path fill="#878787" d="M685.33,633.88v30.74h-30.19v-30.74H685.33 M685.76,633.44H654.7v31.61h31.06V633.44L685.76,633.44z"/>
		</g>
	</g>
	<g>
		<g>
			<polyline fill="none" stroke="#6D6D6D" stroke-width="0.3655" stroke-miterlimit="10" points="718.94,657.46 679.42,657.46 
				679.42,643.35 681.32,643.35 			"/>
			<g>
				<polygon fill="#6D6D6D" points="681.02,641.13 681.02,645.57 683.24,643.35 				"/>
			</g>
		</g>
	</g>
	
		<line fill="none" stroke="#878787" stroke-width="0.4314" stroke-miterlimit="10" x1="721.81" y1="648.08" x2="721.81" y2="633.44"/>
</g>
<g id="internal_x5F_med">
	<line fill="none" stroke="#2D2D2D" stroke-width="4" stroke-miterlimit="10" x1="1335.07" y1="328.43" x2="1066.07" y2="328.43"/>
	<line fill="none" stroke="#2D2D2D" stroke-width="4" stroke-miterlimit="10" x1="1339.07" y1="328.43" x2="1328.86" y2="328.43"/>
	<polyline fill="none" stroke="#2D2D2D" stroke-width="4" stroke-miterlimit="10" points="1022.24,328.43 1059.24,328.43 
		1066.07,328.43 	"/>
	<polyline fill="none" stroke="#2D2D2D" stroke-width="4" stroke-miterlimit="10" points="969.91,320.93 969.91,328.43 
		1002.24,328.43 	"/>
	<line fill="none" stroke="#2D2D2D" stroke-width="4" stroke-miterlimit="10" x1="969.91" y1="185.93" x2="969.91" y2="302.93"/>
	<line fill="none" stroke="#2D2D2D" stroke-width="4" stroke-miterlimit="10" x1="1060.57" y1="312.9" x2="1060.57" y2="328.43"/>
	<polyline fill="none" stroke="#2D2D2D" stroke-width="4" stroke-miterlimit="10" points="969.91,226.27 1060.57,226.27 
		1060.57,294.93 	"/>
	<line fill="none" stroke="#2D2D2D" stroke-width="4" stroke-miterlimit="10" x1="975.57" y1="283.6" x2="969.91" y2="283.6"/>
	<line fill="none" stroke="#2D2D2D" stroke-width="4" stroke-miterlimit="10" x1="1060.57" y1="283.6" x2="993.57" y2="283.6"/>
	<polyline fill="none" stroke="#2D2D2D" stroke-width="4" stroke-miterlimit="10" points="1064.24,328.43 1064.24,667.27 
		652.91,667.27 	"/>
	<polyline fill="none" stroke="#2D2D2D" stroke-width="4" stroke-miterlimit="10" points="786.91,643.95 786.91,554.27 
		652.91,554.27 	"/>
	<line fill="none" stroke="#2D2D2D" stroke-width="4" stroke-miterlimit="10" x1="786.91" y1="667.27" x2="786.91" y2="661.93"/>
	<line fill="none" stroke="#2D2D2D" stroke-width="4" stroke-miterlimit="10" x1="780.91" y1="612.27" x2="786.91" y2="612.27"/>
	<line fill="none" stroke="#2D2D2D" stroke-width="4" stroke-miterlimit="10" x1="652.91" y1="612.27" x2="763.91" y2="612.27"/>
	<polyline fill="none" stroke="#2D2D2D" stroke-width="4" stroke-miterlimit="10" points="1029.57,328.43 1029.57,364.93 
		995,364.93 995,328.43 	"/>
	<line fill="none" stroke="#2D2D2D" stroke-width="4" stroke-miterlimit="10" x1="786.91" y1="554.27" x2="786.91" y2="185.93"/>
</g>
<g id="internal_x5F_thick">
	<line fill="none" stroke="#2D2D2D" stroke-width="8" stroke-miterlimit="10" x1="697.49" y1="183.77" x2="1336.56" y2="183.77"/>
	<polyline fill="none" stroke="#2D2D2D" stroke-width="8" stroke-miterlimit="10" points="650.54,392.78 650.54,183.77 
		697.49,183.77 	"/>
	<line fill="none" stroke="#2D2D2D" stroke-width="8" stroke-miterlimit="10" x1="650.54" y1="919.21" x2="650.54" y2="392.78"/>
	<line fill="none" stroke="#2D2D2D" stroke-width="8" stroke-miterlimit="10" x1="656.49" y1="919.21" x2="656.49" y2="908.27"/>
	<line fill="none" stroke="#2D2D2D" stroke-width="8" stroke-miterlimit="10" x1="791.64" y1="919.21" x2="791.64" y2="908.27"/>
	<line fill="none" stroke="#2D2D2D" stroke-width="8" stroke-miterlimit="10" x1="1061.94" y1="919.21" x2="1061.94" y2="908.27"/>
	<line fill="none" stroke="#2D2D2D" stroke-width="8" stroke-miterlimit="10" x1="926.79" y1="919.21" x2="926.79" y2="908.27"/>
	<line fill="none" stroke="#2D2D2D" stroke-width="8" stroke-miterlimit="10" x1="1197.09" y1="919.21" x2="1197.09" y2="908.27"/>
	<line fill="none" stroke="#2D2D2D" stroke-width="8" stroke-miterlimit="10" x1="1332.24" y1="919.21" x2="1332.24" y2="908.27"/>
	<line fill="none" stroke="#2D2D2D" stroke-width="8" stroke-miterlimit="10" x1="1335.07" y1="546.45" x2="1329.07" y2="546.45"/>
	<line fill="none" stroke="#2D2D2D" stroke-width="8" stroke-miterlimit="10" x1="1335.07" y1="430.27" x2="1329.07" y2="430.27"/>
	<line fill="none" stroke="#2D2D2D" stroke-width="8" stroke-miterlimit="10" x1="1335.07" y1="290.43" x2="1329.07" y2="290.43"/>
	<line fill="none" stroke="#2D2D2D" stroke-width="8" stroke-miterlimit="10" x1="1335.07" y1="189.27" x2="1329.07" y2="189.27"/>
	<line fill="none" stroke="#2D2D2D" stroke-width="8" stroke-miterlimit="10" x1="1062.32" y1="426.24" x2="1062.32" y2="434.3"/>
	<line fill="none" stroke="#2D2D2D" stroke-width="8" stroke-miterlimit="10" x1="1062.32" y1="542.74" x2="1062.32" y2="550.8"/>
	<line fill="none" stroke="#2D2D2D" stroke-width="8" stroke-miterlimit="10" x1="1062.32" y1="664.9" x2="1062.32" y2="672.96"/>
	<line fill="none" stroke="#2D2D2D" stroke-width="8" stroke-miterlimit="10" x1="1198.24" y1="544.3" x2="1198.24" y2="552.36"/>
	<line fill="none" stroke="#2D2D2D" stroke-width="8" stroke-miterlimit="10" x1="1135.57" y1="600.97" x2="1135.57" y2="609.03"/>
	<line fill="none" stroke="#2D2D2D" stroke-width="8" stroke-miterlimit="10" x1="1135.57" y1="413.57" x2="1135.57" y2="421.63"/>
	<line fill="none" stroke="#2D2D2D" stroke-width="8" stroke-miterlimit="10" x1="1272.24" y1="600.97" x2="1272.24" y2="609.03"/>
	<line fill="none" stroke="#2D2D2D" stroke-width="8" stroke-miterlimit="10" x1="1272.24" y1="413.57" x2="1272.24" y2="421.63"/>
	<line fill="none" stroke="#2D2D2D" stroke-width="8" stroke-miterlimit="10" x1="718.91" y1="728.97" x2="718.91" y2="737.03"/>
	<line fill="none" stroke="#2D2D2D" stroke-width="8" stroke-miterlimit="10" x1="718.91" y1="849.6" x2="718.91" y2="857.66"/>
	<line fill="none" stroke="#2D2D2D" stroke-width="8" stroke-miterlimit="10" x1="954.91" y1="728.97" x2="954.91" y2="737.03"/>
	<line fill="none" stroke="#2D2D2D" stroke-width="8" stroke-miterlimit="10" x1="954.91" y1="849.6" x2="954.91" y2="857.66"/>
	<line fill="none" stroke="#2D2D2D" stroke-width="8" stroke-miterlimit="10" x1="1135.57" y1="849.6" x2="1135.57" y2="857.66"/>
	<line fill="none" stroke="#2D2D2D" stroke-width="8" stroke-miterlimit="10" x1="1287.57" y1="849.6" x2="1287.57" y2="857.66"/>
</g>
<g id="ouside_x5F_1">
	<path fill="none" stroke="#2D2D2D" stroke-width="15" stroke-miterlimit="10" d="M1341.46,300.35V179.77V300.35z"/>
	<line fill="none" stroke="#2D2D2D" stroke-width="15" stroke-miterlimit="10" x1="1341.46" y1="373.84" x2="1341.46" y2="300.35"/>
	<polyline fill="none" stroke="#2D2D2D" stroke-width="15" stroke-miterlimit="10" points="1263.36,926.23 1341.46,925.65 
		1341.46,373.84 	"/>
	<line fill="none" stroke="#2D2D2D" stroke-width="15" stroke-miterlimit="10" x1="1101.78" y1="926.22" x2="1263.36" y2="926.22"/>
	<line fill="none" stroke="#2D2D2D" stroke-width="15" stroke-miterlimit="10" x1="748.11" y1="926.22" x2="1101.78" y2="926.22"/>
	<line fill="none" stroke="#2D2D2D" stroke-width="15" stroke-miterlimit="10" x1="656.49" y1="926.22" x2="748.11" y2="926.22"/>
	<line fill="none" stroke="#2D2D2D" stroke-width="15" stroke-miterlimit="10" x1="646.54" y1="926.22" x2="656.49" y2="926.22"/>
</g>
<g id="outside_x5F_2">
	<path fill="none" stroke="#E3E3E3" stroke-width="6" stroke-miterlimit="10" d="M1341.46,300.35V181.77V300.35z"/>
	<line fill="none" stroke="#E3E3E3" stroke-width="6" stroke-miterlimit="10" x1="1341.46" y1="373.84" x2="1341.46" y2="300.35"/>
	<polyline fill="none" stroke="#E3E3E3" stroke-width="6" stroke-miterlimit="10" points="1263.36,926.23 1341.46,925.65 
		1341.46,373.84 	"/>
	<line fill="none" stroke="#E3E3E3" stroke-width="6" stroke-miterlimit="10" x1="1101.78" y1="926.22" x2="1263.36" y2="926.22"/>
	<line fill="none" stroke="#E3E3E3" stroke-width="6" stroke-miterlimit="10" x1="748.11" y1="926.22" x2="1101.78" y2="926.22"/>
	<line fill="none" stroke="#E3E3E3" stroke-width="6" stroke-miterlimit="10" x1="656.49" y1="926.22" x2="748.11" y2="926.22"/>
	<line fill="none" stroke="#E3E3E3" stroke-width="6" stroke-miterlimit="10" x1="648.54" y1="926.22" x2="656.49" y2="926.22"/>
</g>
<g id="window">
	<g>
		<g>
			
				<line fill="none" stroke="#878787" stroke-width="2" stroke-miterlimit="10" x1="1341.46" y1="185.93" x2="1341.46" y2="200.93"/>
			
				<line fill="none" stroke="#878787" stroke-width="2" stroke-miterlimit="10" stroke-dasharray="29.3448,5.869" x1="1341.46" y1="206.8" x2="1341.46" y2="908.14"/>
			<polyline fill="none" stroke="#878787" stroke-width="2" stroke-miterlimit="10" points="1341.46,911.08 1341.46,926.08 
				1326.46,926.08 			"/>
			
				<line fill="none" stroke="#878787" stroke-width="2" stroke-miterlimit="10" stroke-dasharray="30.409,6.0818" x1="1320.38" y1="926.08" x2="666.58" y2="926.08"/>
			<line fill="none" stroke="#878787" stroke-width="2" stroke-miterlimit="10" x1="663.54" y1="926.08" x2="648.54" y2="926.08"/>
		</g>
	</g>
</g>
<g id="door">
	<g>
		<path opacity="0.3" fill="#FFFFFF" enable-background="new    " d="M986.16,319.56c0-8.82-6.35-16.12-16.9-16.12l0.01,16.12
			H986.16z"/>
		<path fill="none" stroke="#A0A0A0" stroke-miterlimit="10" d="M969.26,303.44c10.55,0,16.9,7.3,16.9,16.12"/>
		
			<line fill="none" stroke="#A0A0A0" stroke-width="2" stroke-linecap="square" stroke-miterlimit="10" x1="968.95" y1="319.95" x2="985.84" y2="319.95"/>
	</g>
	<g>
		<path opacity="0.3" fill="#FFFFFF" enable-background="new    " d="M976.97,299.83c8.82,0,16.12-6.35,16.12-16.9l-16.12,0.01
			V299.83z"/>
		<path fill="none" stroke="#A0A0A0" stroke-miterlimit="10" d="M993.08,282.93c0,10.55-7.3,16.9-16.12,16.9"/>
		
			<line fill="none" stroke="#A0A0A0" stroke-width="2" stroke-linecap="square" stroke-miterlimit="10" x1="976.57" y1="282.62" x2="976.57" y2="299.51"/>
	</g>
	<g>
		<path opacity="0.3" fill="#FFFFFF" enable-background="new    " d="M1044.39,296.23c0,8.82,6.35,16.12,16.9,16.12l-0.01-16.12
			H1044.39z"/>
		<path fill="none" stroke="#A0A0A0" stroke-miterlimit="10" d="M1061.29,312.35c-10.55,0-16.9-7.3-16.9-16.12"/>
		
			<line fill="none" stroke="#A0A0A0" stroke-width="2" stroke-linecap="square" stroke-miterlimit="10" x1="1061.61" y1="295.84" x2="1044.71" y2="295.84"/>
	</g>
	<g>
		<path opacity="0.3" fill="#FFFFFF" enable-background="new    " d="M780.51,596.02c-8.82,0-16.12,6.35-16.12,16.9l16.12-0.01
			V596.02z"/>
		<path fill="none" stroke="#A0A0A0" stroke-miterlimit="10" d="M764.39,612.92c0-10.55,7.3-16.9,16.12-16.9"/>
		
			<line fill="none" stroke="#A0A0A0" stroke-width="2" stroke-linecap="square" stroke-miterlimit="10" x1="780.91" y1="613.24" x2="780.91" y2="596.34"/>
	</g>
	<g>
		<path opacity="0.3" fill="#FFFFFF" enable-background="new    " d="M770.66,660.56c0-8.82,6.35-16.12,16.9-16.12l-0.01,16.12
			H770.66z"/>
		<path fill="none" stroke="#A0A0A0" stroke-miterlimit="10" d="M787.56,644.44c-10.55,0-16.9,7.3-16.9,16.12"/>
		
			<line fill="none" stroke="#A0A0A0" stroke-width="2" stroke-linecap="square" stroke-miterlimit="10" x1="787.87" y1="660.95" x2="770.98" y2="660.96"/>
	</g>
</g>
<g id="text">
	<text transform="matrix(1 0 0 1 1123.3037 252.7438)" fill="#2D2D2D" font-family="'Arial'" font-weight="bold" font-size="14px">TRAINING / CONFERENCE</text>
	<text transform="matrix(1 0 0 1 1189.8137 269.5438)" fill="#2D2D2D" font-family="'Arial'" font-weight="bold" font-size="14px">ROOM</text>
</g>
<g id="Layer_12">
	<rect x="110.5" y="84.9" fill="#FFFFFF" stroke="#000000" stroke-width="2" stroke-miterlimit="10" width="232" height="463.34"/>
	<g>
		<g>
			<circle fill="#008246" cx="157.6" cy="118.4" r="19.9"/>
			<polygon fill="#FFFFFF" points="167.7,114.6 167.7,132.3 165.2,134.8 145.5,134.8 147.9,132.7 147.9,114.7 143.6,114.7 
				157.6,102 171.5,114.6 			"/>
			<g id="exit_14_">
				<g>
					<g>
						<path fill="#008246" d="M161.6,131.8l-4.8-8.8c-0.1,1-0.4,2.8-0.5,3.6c-0.1,1.1-1.2,1.4-1.7,1.5l0,0H145l2.4-2.9h5.8l0.4-5.3
							l2.3-4.2h-2h-0.1c-0.1,0.1-0.3,0.4-0.4,0.6l-1.6,2.5c-0.2,0.4-0.6,0.6-1.1,0.6c-0.2,0-0.5-0.1-0.7-0.2
							c-0.6-0.4-0.8-1.1-0.4-1.7l1.6-2.5l0,0c0.5-0.7,0.9-1.1,1.2-1.3c0.5-0.3,1-0.3,1.3-0.3c0.1,0,0.1,0,0.2,0h3.8
							c0.4,0,0.8-0.1,1.1-0.1c2,0,2.9,0.6,3.2,1c0.1,0.1,0.2,0.2,0.3,0.3l2.2,2.9h3.4c0.7,0,1.3,0.6,1.3,1.3s-0.6,1.3-1.3,1.3h-4
							c-0.4,0-0.8-0.2-1-0.5l-1.7-2.3l-1.6,3.5l5.6,11.4L161.6,131.8z"/>
						<path fill="#FFFFFF" d="M158.8,113.3c1.9,0,2.7,0.6,3,1c0.1,0.1,0.2,0.1,0.3,0.2l2.3,3h3.5c0.5,0,1,0.4,1,1s-0.4,1-1,1h-4
							c-0.3,0-0.6-0.1-0.8-0.4l-2-2.6l-1.9,4.1l5.5,11.1l-3-0.1l-5.1-9.3c0,0-0.5,3.3-0.6,4.4c-0.1,1.2-1.5,1.2-1.5,1.2h-9l2-2.4h6
							l0.4-5.6l2.4-4.6l0,0h-2.5h-0.1h-0.1c-0.1,0.1-0.4,0.4-0.5,0.7l-1.6,2.5c-0.2,0.3-0.5,0.5-0.8,0.5c-0.2,0-0.4-0.1-0.5-0.2
							c-0.5-0.3-0.6-0.9-0.3-1.4l1.6-2.5l0,0c0.4-0.7,0.8-1.1,1.1-1.2c0.4-0.3,0.9-0.3,1.2-0.3c0.1,0,0.1,0,0.2,0h3.9
							C158.1,113.3,158.5,113.3,158.8,113.3 M158.8,112.8v0.5V112.8c-0.4,0-0.7,0-1.1,0.1h-3.8c-0.1,0-0.1,0-0.2,0
							c-0.4,0-0.9,0.1-1.4,0.4c-0.4,0.2-0.8,0.7-1.3,1.4c0,0,0,0,0,0.1l-1.6,2.5c-0.4,0.7-0.2,1.7,0.5,2.1c0.2,0.2,0.5,0.2,0.8,0.2
							c0.5,0,1-0.3,1.3-0.7l1.6-2.5c0.1-0.2,0.2-0.3,0.3-0.4l0,0h1.6l-2,3.8l-0.1,0.1v0.1l-0.3,5h-5.5h-0.3l-0.2,0.2l-2,2.4
							l-0.8,0.9h1.2h9l0,0l0,0c0,0,0.4,0,0.9-0.2c0.6-0.3,1-0.8,1.1-1.5c0.1-0.6,0.3-1.8,0.4-2.8l4.3,7.9l0.1,0.3h0.3l3,0.1h0.9
							l-0.4-0.8l-5.4-10.9l1.4-3l1.4,1.9c0.3,0.4,0.7,0.6,1.2,0.6h4c0.8,0,1.5-0.7,1.5-1.5s-0.7-1.5-1.5-1.5h-3.2l-2.1-2.8
							c-0.1-0.1-0.2-0.2-0.3-0.3c-0.3-0.3-0.6-0.5-1.1-0.7C160.5,112.9,159.7,112.8,158.8,112.8L158.8,112.8z"/>
					</g>
					<g>
						<path fill="#008246" d="M160.6,113.2c-1.4,0-2.6-1.2-2.6-2.6s1.2-2.6,2.6-2.6s2.6,1.2,2.6,2.6S162,113.2,160.6,113.2z"/>
						<path fill="#FFFFFF" d="M160.6,108.2c1.3,0,2.4,1.1,2.4,2.3s-1.1,2.3-2.4,2.3s-2.4-1.1-2.4-2.3S159.3,108.2,160.6,108.2
							 M160.6,107.7c-1.6,0-2.9,1.3-2.9,2.9s1.3,2.9,2.9,2.9c1.6,0,2.9-1.3,2.9-2.9S162.1,107.7,160.6,107.7L160.6,107.7z"/>
					</g>
				</g>
			</g>
		</g>
		<text transform="matrix(1 0 0 1 192.4901 125.5197)" font-family="'Arial'" font-size="14px">EMERGENCY EXIT</text>
	</g>
	<g>
		<g>
			<g>
				<path fill="#008246" d="M157.6,195.59c-11.7,0-21.2-9.5-21.2-21.2s9.5-21.2,21.2-21.2s21.2,9.5,21.2,21.2
					S169.3,195.59,157.6,195.59z"/>
				<path fill="#FFFFFF" d="M157.6,154.59c11,0,19.9,8.9,19.9,19.9s-8.9,19.9-19.9,19.9s-19.9-8.9-19.9-19.9
					S146.6,154.59,157.6,154.59 M157.6,152.09c-12.4,0-22.4,10.1-22.4,22.4s10.1,22.4,22.4,22.4s22.4-10.1,22.4-22.4
					S169.9,152.09,157.6,152.09L157.6,152.09z"/>
			</g>
			<g id="aid_1_">
				<polygon fill="#FFFFFF" points="170.8,170.79 161.3,170.79 161.3,161.29 154,161.29 154,170.79 144.4,170.79 144.4,178.19 
					154,178.19 154,187.69 161.3,187.69 161.3,178.19 170.8,178.19 				"/>
			</g>
		</g>
		<text transform="matrix(1 0 0 1 192.4903 181.4465)" font-family="'Arial'" font-size="14px">FIRST AID</text>
	</g>
	<g>
		<g>
			<g>
				<path fill="#FF0000" d="M157.6,363.95c-11.7,0-21.2-9.5-21.2-21.2s9.5-21.2,21.2-21.2s21.2,9.5,21.2,21.2
					S169.3,363.95,157.6,363.95z"/>
				<path fill="#FFFFFF" d="M157.6,322.85c11,0,19.9,8.9,19.9,19.9s-8.9,19.9-19.9,19.9s-19.9-8.9-19.9-19.9
					S146.6,322.85,157.6,322.85 M157.6,320.35c-12.4,0-22.4,10.1-22.4,22.4s10.1,22.4,22.4,22.4s22.4-10.1,22.4-22.4
					S169.9,320.35,157.6,320.35L157.6,320.35z"/>
			</g>
			<g id="fire_17_">
				<g>
					<path fill="#FFFFFF" d="M168.8,334.55v-4.5l-6.7,0.8v0.8h-3.5v-1.7h-0.9c0,0,0-0.4-0.3-0.8c-0.8-1.2-2.6-1.3-3.4-0.4
						c-1.6,1.6,0,3.3,0,3.3c-1.6,0.7-2.9,1.9-3.4,3c-0.6,1.5,0.9,1.7,1.3,1.1c1.9-2.9,3.9-2.8,3.9-2.8v0.7c-3.3,1.1-3.1,4.1-3.1,4.1
						s0,17.4,0,18.6c0,1,1,0.9,1,0.9c1.4,0,3.2,0,3.2,0s2.6,0,3.6,0s1.1-0.8,1.1-1.4s0-15.2,0-18.2s-3-4.1-3-4.1v-1h3.5v0.8
						L168.8,334.55z M155.5,331.15c-0.5,0-0.9-0.4-0.9-0.9s0.4-0.9,0.9-0.9s0.9,0.4,0.9,0.9S156.1,331.15,155.5,331.15z"/>
				</g>
			</g>
		</g>
		<text transform="matrix(1 0 0 1 192.4899 350.2565)" font-family="'Arial'" font-size="14px">EXTINGUISHER</text>
	</g>
	<g>
		<g>
			<g>
				<path fill="#FF0000" d="M157.6,420.03c-11.7,0-21.2-9.5-21.2-21.2s9.5-21.2,21.2-21.2s21.2,9.5,21.2,21.2
					S169.3,420.03,157.6,420.03z"/>
				<path fill="#FFFFFF" d="M157.6,378.93c11,0,19.9,8.9,19.9,19.9s-8.9,19.9-19.9,19.9s-19.9-8.9-19.9-19.9
					S146.6,378.93,157.6,378.93 M157.6,376.43c-12.4,0-22.4,10-22.4,22.4s10.1,22.4,22.4,22.4s22.4-10,22.4-22.4
					S169.9,376.43,157.6,376.43L157.6,376.43z"/>
			</g>
			<path fill="#FFFFFF" d="M167.4,396.73c-2.3,3.2-3.9,2.4-3.9,2.4c1.5-3.2-0.4-7.5-0.4-7.5c-2.7,3.2-3,2.2-3,2.2
				c1.2-4.1-2.7-9.5-2.7-9.5c1.9,4.7-2.5,9.4-2.5,9.4c-0.2-1.5-1.2-2.9-1.2-2.9c-3.3,5.5-2.7,7.6-2.7,7.6c-0.6-1.1-2.5-2-2.5-2
				c-6.1,15.1,6,15.6,6,15.6c-5.9-4.2-4.4-7-4.4-7c0.9,1,2.7,1,2.7,1c-0.7-1.6-0.2-3.5-0.2-3.5c1.2,2.2,3.4,2,3.4,2
				c-1.5-2.6,1.9-5.8,1.9-5.8c-0.5,1.5,0.6,5.4,0.6,5.4c0.1-0.4,0.4-0.5,1.1-0.9c0.6-0.4,1.1-1.4,1.1-1.4c0.8,3,1.2,3.4,1.2,3.4
				c1,0.2,1.9-1,1.9-1c2,5.4-4.6,7.7-4.6,7.7C171.4,411.83,167.4,396.73,167.4,396.73z"/>
		</g>
		<text transform="matrix(1 0 0 1 192.4902 404.7534)" font-family="'Arial'" font-size="14px">FIRE BLANKET</text>
	</g>
	<g>
		<g>
			<circle fill="#003E87" cx="157.6" cy="511.01" r="19.9"/>
			<path fill="#FEFEFE" d="M162.4,513.61c0,0.5-0.4,0.9-0.9,0.9s-0.9-0.4-0.9-0.9v-6l0,0c0-1.3,1.1-2.4,2.4-2.4l0,0h4.3l0,0
				c1.3,0,2.4,1.1,2.4,2.4l0,0v6c0,0.5-0.4,0.9-0.9,0.9s-0.9-0.4-0.9-0.9v-5.5h-0.5v14.9c0,0.6-0.5,1.1-1.1,1.1s-1.1-0.5-1.1-1.1
				v-8.6H165v8.6c0,0.6-0.5,1.1-1.1,1.1s-1.1-0.5-1.1-1.1v-14.9h-0.5L162.4,513.61L162.4,513.61z"/>
			<circle fill="#FEFEFE" cx="165.2" cy="502.81" r="2"/>
			<path fill="#FEFEFE" d="M145.6,512.81c-0.1,0.4-0.6,0.7-1,0.5c-0.4-0.1-0.7-0.6-0.6-1l1.6-5.6c0.3-1,1.3-1.8,2.3-1.8l0,0l0,0h2.7
				l0,0c0,0,0,0,0.1,0c1.1,0,2,0.7,2.3,1.8l1.6,5.6c0.1,0.4-0.1,0.9-0.6,1c-0.4,0.1-0.9-0.1-1-0.5l-1.5-5.2H151l2.6,8.9h-2.4v6.6
				c0,0.5-0.4,0.9-0.9,0.9s-0.9-0.4-0.9-0.9v-6.6H149v6.6c0,0.5-0.4,0.9-0.9,0.9s-0.9-0.4-0.9-0.9v-6.6H145l2.6-8.9h-0.5
				L145.6,512.81L145.6,512.81z"/>
			<circle fill="#FEFEFE" cx="149.4" cy="502.71" r="2"/>
			
				<line fill="none" stroke="#FEFEFE" stroke-width="0.8048" stroke-miterlimit="10" x1="157.6" y1="494.51" x2="157.6" y2="527.11"/>
		</g>
		<text transform="matrix(1 0 0 1 192.4899 517.6066)" font-family="'Arial'" font-size="14px">TOILETS</text>
	</g>
	<g>
		<text transform="matrix(1 0 0 1 192.4903 237.5331)" font-family="'Arial'" font-size="14px">EYE WASH</text>
		<g>
			<circle fill="#008246" cx="157.4" cy="230.57" r="21.2"/>
			<g>
				<path fill="#FFFFFF" d="M157.12,229.94c2.33,0,4.57,0.41,6.66,1.23c1.68,0.66,3.27,1.58,4.73,2.73
					c1.52,1.21,2.59,2.43,3.19,3.22c-0.6,0.78-1.67,2.01-3.19,3.22c-1.46,1.16-3.05,2.07-4.73,2.73c-2.09,0.82-4.33,1.23-6.66,1.23
					s-4.56-0.41-6.64-1.23c-1.67-0.66-3.24-1.58-4.68-2.73c-1.51-1.21-2.56-2.44-3.16-3.22c0.59-0.78,1.65-2.01,3.16-3.22
					c1.44-1.16,3.02-2.07,4.68-2.73C152.56,230.35,154.79,229.94,157.12,229.94 M157.12,228.32c-11.23,0-16.45,8.8-16.45,8.8
					s5.22,8.8,16.45,8.8s16.56-8.8,16.56-8.8S168.35,228.32,157.12,228.32L157.12,228.32z"/>
			</g>
			<g>
				<path fill="#FFFFFF" d="M157.24,230.61c1.74,0,3.37,0.68,4.6,1.91c1.23,1.23,1.91,2.86,1.91,4.6s-0.68,3.37-1.91,4.6
					c-1.23,1.23-2.86,1.91-4.6,1.91s-3.37-0.68-4.6-1.91c-1.23-1.23-1.91-2.86-1.91-4.6s0.68-3.37,1.91-4.6
					C153.86,231.29,155.5,230.61,157.24,230.61 M157.24,228.99c-4.49,0-8.13,3.64-8.13,8.13s3.64,8.13,8.13,8.13
					s8.13-3.64,8.13-8.13C165.37,232.63,161.73,228.99,157.24,228.99L157.24,228.99z"/>
			</g>
			<g>
				<path fill="#FFFFFF" d="M162.15,212.22c0,0,0.64,1.96,1.53,3.32c0.71,1.08,0.65,3.39-1.53,3.39c-2.17,0-2.24-2.3-1.53-3.39
					C161.51,214.18,162.15,212.22,162.15,212.22z"/>
			</g>
			<g>
				<path fill="#FFFFFF" d="M157.18,216.86c0,0,0.64,1.96,1.53,3.32c0.71,1.08,0.65,3.39-1.53,3.39c-2.17,0-2.24-2.3-1.53-3.39
					C156.53,218.82,157.18,216.86,157.18,216.86z"/>
			</g>
			<g>
				<path fill="#FFFFFF" d="M162.27,220.41c0,0,0.64,1.96,1.53,3.32c0.71,1.08,0.65,3.39-1.53,3.39c-2.17,0-2.24-2.3-1.53-3.39
					C161.63,222.37,162.27,220.41,162.27,220.41z"/>
			</g>
		</g>
	</g>
	<g>
		<text transform="matrix(1 0 0 1 192.4903 293.6201)" font-family="'Arial'" font-size="14px">DEFIBRILLATOR</text>
		<g>
			<circle fill="#008246" cx="157.4" cy="286.66" r="21.2"/>
			<path fill="#FFFFFF" d="M157.32,302.78c2.94-3.15,15-13.33,15-20.6c0-4.64-3.51-8.4-7.83-8.4c-2.36,0-5.73,2.24-7.17,4.01
				c-1.44-1.77-4.81-4.01-7.17-4.01c-4.32,0-7.83,3.76-7.83,8.4C142.32,289.45,154.38,299.62,157.32,302.78z"/>
			<polygon fill="#008246" points="164.3,275.33 152.52,287.33 157.65,286.63 			"/>
			<polygon fill="#008246" points="150.9,296.04 162.68,284.04 157.55,284.74 			"/>
		</g>
	</g>
	<g>
		<g>
			<path fill="#FF0000" d="M158.05,476.02c-11.7,0-21.2-9.5-21.2-21.2s9.5-21.2,21.2-21.2s21.2,9.5,21.2,21.2
				S169.75,476.02,158.05,476.02z"/>
			<path fill="#FFFFFF" d="M158.05,435.02c11,0,19.9,8.9,19.9,19.9s-8.9,19.9-19.9,19.9s-19.9-8.9-19.9-19.9
				S147.05,435.02,158.05,435.02 M158.05,432.52c-12.4,0-22.4,10.1-22.4,22.4s10.1,22.4,22.4,22.4s22.4-10.1,22.4-22.4
				S170.35,432.52,158.05,432.52L158.05,432.52z"/>
		</g>
		<g id="aid_7_">
			<polygon fill="#FFFFFF" points="171.25,451.22 161.75,451.22 161.75,441.72 154.45,441.72 154.45,451.22 144.85,451.22 
				144.85,458.62 154.45,458.62 154.45,468.12 161.75,468.12 161.75,458.62 171.25,458.62 			"/>
		</g>
	</g>
	<text transform="matrix(1 0 0 1 192.944 461.8798)" font-family="'Arial'" font-size="14px">BURN KIT</text>
	<g>
		<circle fill="#008246" cx="983.75" cy="255.1" r="9"/>
		<polygon fill="#FFFFFF" points="988.25,253.3 988.25,261.4 987.22,262.43 978.22,262.43 979.38,261.53 979.38,253.43 
			977.45,253.43 983.75,247.64 990.05,253.3 		"/>
		<g id="exit_24_">
			<g>
				<g>
					<path fill="#008246" d="M985.55,261.14l-2.19-3.99c0,0.51-0.13,1.29-0.26,1.67c0,0.51-0.51,0.64-0.77,0.64l0,0h-4.37l1.16-1.29
						h2.57l0.13-2.44l1.03-1.93h-0.9l0,0c0,0-0.13,0.13-0.26,0.26l-0.77,1.16c-0.13,0.13-0.26,0.26-0.51,0.26
						c-0.13,0-0.26,0-0.26-0.13c-0.26-0.13-0.39-0.51-0.13-0.77l0.77-1.16l0,0c0.26-0.26,0.39-0.51,0.51-0.64
						c0.26-0.13,0.39-0.13,0.64-0.13c0,0,0,0,0.13,0h1.67c0.13,0,0.39,0,0.51,0c0.9,0,1.29,0.26,1.41,0.51l0.13,0.13l1.03,1.29h1.54
						c0.26,0,0.51,0.26,0.51,0.51c0,0.26-0.26,0.51-0.51,0.51h-1.8c-0.13,0-0.39-0.13-0.39-0.26l-0.77-1.03l-0.77,1.54l2.57,5.14
						L985.55,261.14z"/>
					<path fill="#FFFFFF" d="M984.26,252.79c0.9,0,1.29,0.26,1.41,0.39c0,0,0.13,0,0.13,0.13l1.03,1.41h1.54
						c0.26,0,0.39,0.26,0.39,0.51c0,0.26-0.26,0.51-0.39,0.51h-1.8c-0.13,0-0.26,0-0.39-0.13l-0.9-1.16l-0.9,1.8l2.44,5.01h-1.41
						l-2.31-4.24c0,0-0.26,1.41-0.26,1.93s-0.64,0.51-0.64,0.51h-4.11l0.9-1.03h2.7l0.13-2.57l1.16-2.06l0,0h-1.16l0,0l0,0
						c0,0-0.13,0.13-0.26,0.26l-0.77,1.16c-0.13,0.13-0.26,0.26-0.39,0.26s-0.13,0-0.26,0c-0.26-0.13-0.26-0.39-0.13-0.64l0.77-1.16
						l0,0c0.26-0.26,0.39-0.51,0.51-0.51c0.26-0.13,0.39-0.13,0.51-0.13c0,0,0,0,0.13,0h1.8
						C984.01,252.79,984.14,252.79,984.26,252.79 M984.26,252.53v0.26V252.53c-0.13,0-0.39,0-0.51,0h-1.67c0,0,0,0-0.13,0
						s-0.39,0-0.64,0.13c-0.13,0.13-0.39,0.26-0.64,0.64l0,0l-0.77,1.16c-0.26,0.26-0.13,0.77,0.26,0.9c0.13,0,0.26,0.13,0.39,0.13
						c0.26,0,0.39-0.13,0.64-0.39l0.64-1.16l0.13-0.13l0,0h0.77l-0.9,1.67l0,0l0,0l-0.13,2.31h-2.44h-0.13v0.13l-0.9,1.03
						l-0.39,0.39h0.51h4.11l0,0l0,0c0,0,0.26,0,0.39-0.13c0.26-0.13,0.51-0.39,0.51-0.64s0.13-0.77,0.13-1.29l1.93,3.6v0.13h0.13
						h1.41h0.39l-0.13-0.39l-2.44-4.89l0.64-1.41l0.64,0.9c0.13,0.13,0.39,0.26,0.51,0.26h1.8c0.39,0,0.64-0.26,0.64-0.64
						c0-0.39-0.26-0.64-0.64-0.64h-1.41l-1.03-1.29l-0.13-0.13c-0.13-0.13-0.26-0.26-0.51-0.26
						C985.04,252.53,984.65,252.53,984.26,252.53L984.26,252.53z"/>
				</g>
				<g>
					<path fill="#008246" d="M985.04,252.66c-0.64,0-1.16-0.51-1.16-1.16c0-0.64,0.51-1.16,1.16-1.16s1.16,0.51,1.16,1.16
						C986.19,252.14,985.68,252.66,985.04,252.66z"/>
					<path fill="#FFFFFF" d="M985.04,250.47c0.64,0,1.03,0.51,1.03,1.03s-0.51,1.03-1.03,1.03c-0.64,0-1.03-0.51-1.03-1.03
						S984.52,250.47,985.04,250.47 M985.04,250.21c-0.77,0-1.29,0.64-1.29,1.29c0,0.77,0.64,1.29,1.29,1.29s1.29-0.64,1.29-1.29
						C986.32,250.86,985.81,250.21,985.04,250.21L985.04,250.21z"/>
				</g>
			</g>
		</g>
	</g>
	<g>
		<circle fill="#008246" cx="754.55" cy="584.21" r="9"/>
		<polygon fill="#FFFFFF" points="759.05,582.41 759.05,590.51 758.02,591.54 749.02,591.54 750.18,590.64 750.18,582.54 
			748.25,582.54 754.55,576.75 760.85,582.41 		"/>
		<g id="exit_1_">
			<g>
				<g>
					<path fill="#008246" d="M756.35,590.25l-2.19-3.99c0,0.51-0.13,1.29-0.26,1.67c0,0.51-0.51,0.64-0.77,0.64l0,0h-4.37l1.16-1.29
						h2.57l0.13-2.44l1.03-1.93h-0.9l0,0c0,0-0.13,0.13-0.26,0.26l-0.77,1.16c-0.13,0.13-0.26,0.26-0.51,0.26
						c-0.13,0-0.26,0-0.26-0.13c-0.26-0.13-0.39-0.51-0.13-0.77l0.77-1.16l0,0c0.26-0.26,0.39-0.51,0.51-0.64
						c0.26-0.13,0.39-0.13,0.64-0.13c0,0,0,0,0.13,0h1.67c0.13,0,0.39,0,0.51,0c0.9,0,1.29,0.26,1.41,0.51l0.13,0.13l1.03,1.29h1.54
						c0.26,0,0.51,0.26,0.51,0.51s-0.26,0.51-0.51,0.51h-1.8c-0.13,0-0.39-0.13-0.39-0.26l-0.77-1.03l-0.77,1.54l2.57,5.14
						L756.35,590.25z"/>
					<path fill="#FFFFFF" d="M755.07,581.89c0.9,0,1.29,0.26,1.41,0.39c0,0,0.13,0,0.13,0.13l1.03,1.41h1.54
						c0.26,0,0.39,0.26,0.39,0.51c0,0.26-0.26,0.51-0.39,0.51h-1.8c-0.13,0-0.26,0-0.39-0.13l-0.9-1.16l-0.9,1.8l2.44,5.01h-1.41
						l-2.31-4.24c0,0-0.26,1.41-0.26,1.93c0,0.51-0.64,0.51-0.64,0.51h-4.11l0.9-1.03h2.7l0.13-2.57l1.16-2.06l0,0h-1.16l0,0l0,0
						c0,0-0.13,0.13-0.26,0.26l-0.77,1.16c-0.13,0.13-0.26,0.26-0.39,0.26s-0.13,0-0.26,0c-0.26-0.13-0.26-0.39-0.13-0.64l0.77-1.16
						l0,0c0.26-0.26,0.39-0.51,0.51-0.51c0.26-0.13,0.39-0.13,0.51-0.13c0,0,0,0,0.13,0h1.8
						C754.81,581.89,754.94,581.89,755.07,581.89 M755.07,581.64v0.26V581.64c-0.13,0-0.39,0-0.51,0h-1.67c0,0,0,0-0.13,0
						s-0.39,0-0.64,0.13c-0.13,0.13-0.39,0.26-0.64,0.64l0,0l-0.77,1.16c-0.26,0.26-0.13,0.77,0.26,0.9c0.13,0,0.26,0.13,0.39,0.13
						c0.26,0,0.39-0.13,0.64-0.39l0.64-1.16l0.13-0.13l0,0h0.77l-0.9,1.67l0,0l0,0l-0.13,2.31h-2.44h-0.13v0.13l-0.9,1.03
						l-0.39,0.39h0.51h4.11l0,0l0,0c0,0,0.26,0,0.39-0.13c0.26-0.13,0.51-0.39,0.51-0.64c0-0.26,0.13-0.77,0.13-1.29l1.93,3.6v0.13
						h0.13h1.41h0.39l-0.13-0.39l-2.44-4.89l0.64-1.41l0.64,0.9c0.13,0.13,0.39,0.26,0.51,0.26h1.8c0.39,0,0.64-0.26,0.64-0.64
						c0-0.39-0.26-0.64-0.64-0.64h-1.41l-1.03-1.29l-0.13-0.13c-0.13-0.13-0.26-0.26-0.51-0.26S755.45,581.64,755.07,581.64
						L755.07,581.64z"/>
				</g>
				<g>
					<path fill="#008246" d="M755.84,581.77c-0.64,0-1.16-0.51-1.16-1.16s0.51-1.16,1.16-1.16c0.64,0,1.16,0.51,1.16,1.16
						S756.48,581.77,755.84,581.77z"/>
					<path fill="#FFFFFF" d="M755.84,579.58c0.64,0,1.03,0.51,1.03,1.03s-0.51,1.03-1.03,1.03c-0.64,0-1.03-0.51-1.03-1.03
						S755.32,579.58,755.84,579.58 M755.84,579.32c-0.77,0-1.29,0.64-1.29,1.29c0,0.77,0.64,1.29,1.29,1.29
						c0.64,0,1.29-0.64,1.29-1.29S756.61,579.32,755.84,579.32L755.84,579.32z"/>
				</g>
			</g>
		</g>
	</g>
</g>
</svg>
