<?xml version="1.0" encoding="utf-8"?>
<!-- Generator: Adobe Illustrator 21.1.0, SVG Export Plug-In . SVG Version: 6.00 Build 0)  -->
<svg version="1.1" xmlns="http://www.w3.org/2000/svg" xmlns:xlink="http://www.w3.org/1999/xlink" x="0px" y="0px" width="1920px"
	 height="1080px" viewBox="0 0 1920 1080" enable-background="new 0 0 1920 1080" xml:space="preserve">
<g id="area">
	<g>
		<polygon fill="#FFCFCF" points="1203.85,916.23 1203.85,905.29 1190.18,905.29 1190.18,916.23 1068.18,916.23 1068.18,906.62 
			1054.18,906.62 1054.18,916.23 933.18,916.23 933.18,905.29 919.52,905.29 919.52,916.23 798.18,916.23 798.18,905.29 
			784.85,905.29 784.85,916.23 663.18,916.23 663.18,905.29 657.18,905.29 657.18,674.96 1035.68,674.96 1035.68,606.95 
			981.43,606.95 981.43,549.7 1033.18,549.7 1033.18,539.76 955.98,539.76 955.98,524.55 1034.27,524.55 1034.27,352.25 
			1070.18,352.25 1070.18,334.03 1178.52,334.03 1178.52,341.85 1192.18,341.85 1192.18,333.2 1331.43,333.2 1331.43,423.26 
			1325.68,423.26 1325.68,437.32 1331.43,437.32 1331.43,539.76 1325.68,539.76 1325.68,553.82 1331.43,553.82 1331.43,905.29 
			1324.85,905.29 1324.85,916.23 		"/>
		<path fill="#FFFFFF" d="M1328.43,336.2v84.05h-5.75v6v8.06v6h5.75v96.44h-5.75v6v8.06v6h5.75v345.47h-0.58h-6v6v4.94h-115v-4.94
			v-6h-6h-7.67h-6v6v4.94h-116v-3.61v-6h-6h-8h-6v6v3.61h-115v-4.94v-6h-6h-7.67h-6v6v4.94H801.18v-4.94v-6h-6h-7.33h-6v6v4.94
			H666.18v-4.94v-6h-6V677.96h372.5h6v-6v-62.01v-6h-6h-48.25V552.7h45.75h6v-6v-3.95v-6h-6h-71.2v-9.21h72.28h6v-6v-166.3h29.92h6
			v-6v-12.22h102.33v1.82v6h6h7.67h6v-6v-2.64H1328.43 M1334.43,330.2h-145.25v8.64h-7.67v-7.82h-114.33v18.22h-35.92v172.3h-78.28
			v21.21h77.2v3.95h-51.75v63.25h54.25v62.01h-378.5v236.33h6v10.94h127.67v-10.94h7.33v10.94h127.33v-10.94h7.67v10.94h127v-9.61h8
			v9.61h128v-10.94h7.67v10.94h127v-10.94h6.58V550.82h-5.75v-8.06h5.75V434.32h-5.75v-8.06h5.75V330.2L1334.43,330.2z"/>
	</g>
	<g>
		<rect x="852.52" y="617.29" fill="#FFCFCF" width="49.83" height="48.67"/>
		<path fill="#FFFFFF" d="M899.35,620.29v42.67h-43.83v-42.67H899.35 M905.35,614.29h-55.83v54.67h55.83V614.29L905.35,614.29z"/>
	</g>
	<g>
		<rect x="912.35" y="617.29" fill="#FFCFCF" width="50.83" height="48.67"/>
		<path fill="#FFFFFF" d="M960.18,620.29v42.67h-44.83v-42.67H960.18 M966.18,614.29h-56.83v54.67h56.83V614.29L966.18,614.29z"/>
	</g>
	<g>
		<rect x="973.35" y="617.29" fill="#FFCFCF" width="52.5" height="48.67"/>
		<path fill="#FFFFFF" d="M1022.85,620.29v42.67h-46.5v-42.67H1022.85 M1028.85,614.29h-58.5v54.67h58.5V614.29L1028.85,614.29z"/>
	</g>
	<g>
		<polygon fill="#FFCFCF" points="780.02,665.98 780.02,584.12 842.35,584.12 842.35,666.59 		"/>
		<path fill="#FFFFFF" d="M839.35,587.12v76.44l-56.33-0.55v-75.89H839.35 M845.35,581.12h-68.33v87.83l68.33,0.67V581.12
			L845.35,581.12z"/>
	</g>
	<g>
		<polygon fill="#D8D8D6" points="734.93,665.95 734.93,609.54 723.82,609.54 723.82,587.23 734.93,587.23 734.93,562.7 
			769.68,562.7 769.68,665.95 		"/>
		<g>
			<path fill="#FFFFFF" d="M766.68,565.7v97.25h-28.75l0-50.42l0-6h-6h-5.11v-16.31h5.11h6v-6V565.7H766.68 M772.68,559.7h-40.75
				v24.52h-11.11v28.31h11.11l0,56.42h40.75V559.7L772.68,559.7z"/>
		</g>
	</g>
	<g>
		<rect x="657.18" y="619.29" fill="#FFCFCF" width="67.67" height="46.67"/>
		<path fill="#FFFFFF" d="M721.85,622.29v40.67h-61.67v-40.67H721.85 M727.85,616.29h-73.67v52.67h73.67V616.29L727.85,616.29z"/>
	</g>
	<g>
		<polygon fill="#D8D8D6" points="660.68,553.03 660.68,547.95 657.18,547.95 657.18,190.79 842.02,190.79 842.02,296.45 
			861.97,296.45 861.97,322.45 842.35,322.45 842.35,553.03 		"/>
		<g>
			<path fill="#FFFFFF" d="M839.02,193.79v99.67v6h6h13.96v20h-13.62h-6v6v224.57H663.68v-5.07h-3.5V193.79H839.02 M845.02,187.79
				H654.18v363.17h3.5v5.07h187.67V325.45h19.62v-32h-19.96V187.79L845.02,187.79z"/>
		</g>
	</g>
	<g>
		<rect x="851.93" y="332.58" fill="#FFCFCF" width="50" height="23.75"/>
		<path fill="#FFFFFF" d="M898.93,335.58v17.75h-44v-17.75H898.93 M904.93,329.58h-56v29.75h56V329.58L904.93,329.58z"/>
	</g>
	<g>
		<polygon fill="#FFCFCF" points="911.68,356.33 911.68,332.11 955.27,332.55 955.27,356.33 		"/>
		<path fill="#FFFFFF" d="M914.68,335.14l37.58,0.38v17.81h-37.58V335.14 M908.68,329.08v30.25h49.58v-29.75L908.68,329.08
			L908.68,329.08z"/>
	</g>
	<g>
		<rect x="981.1" y="373.45" fill="#FFCFCF" width="43.33" height="37.63"/>
		<path fill="#FFFFFF" d="M1021.43,376.45v31.63H984.1v-31.63H1021.43 M1027.43,370.45H978.1v43.63h49.33V370.45L1027.43,370.45z"/>
	</g>
	<g>
		<rect x="981.1" y="420.95" fill="#FFCFCF" width="43.33" height="38.38"/>
		<path fill="#FFFFFF" d="M1021.43,423.95v32.38H984.1v-32.38H1021.43 M1027.43,417.95H978.1v44.38h49.33V417.95L1027.43,417.95z"/>
	</g>
	<g>
		<rect x="981.1" y="469.2" fill="#FFCFCF" width="43.33" height="46.13"/>
		<path fill="#FFFFFF" d="M1021.43,472.2v40.13H984.1V472.2H1021.43 M1027.43,466.2H978.1v52.13h49.33V466.2L1027.43,466.2z"/>
	</g>
	<g>
		<polygon fill="#FFCFCF" points="852.52,607.29 852.52,525.45 945.85,525.45 945.85,549.79 971.02,549.79 971.02,607.29 		"/>
		<g>
			<path fill="#FFFFFF" d="M942.85,528.45v18.33v6h6h19.17v51.5h-112.5v-75.83H942.85 M948.85,522.45h-99.33v87.83h124.5v-63.5
				h-25.17V522.45L948.85,522.45z"/>
		</g>
	</g>
	<g>
		<rect x="852.02" y="433.29" fill="#D8D8D6" width="119" height="82.04"/>
		<g>
			<path fill="#FFFFFF" d="M968.02,436.29v76.04h-113v-76.04H968.02 M974.02,430.29h-125v88.04h125V430.29L974.02,430.29z"/>
		</g>
	</g>
	<g>
		<polygon fill="#D8D8D6" points="852.02,423.26 852.02,366.45 955.27,366.45 955.27,373.45 971.02,373.45 971.02,423.26 		"/>
		<g>
			<path fill="#FFFFFF" d="M952.27,369.45v1v6h6h9.75v43.8h-113v-50.8H952.27 M958.27,363.45H849.02v62.8h125v-55.8h-15.75V363.45
				L958.27,363.45z"/>
		</g>
	</g>
	<polyline fill="#D8D8D6" stroke="#FFFFFF" stroke-width="6" stroke-miterlimit="10" points="849.68,187.79 962.35,187.79 
		962.35,227.29 928.18,227.29 928.18,259.89 882.02,259.89 882.02,288.95 849.68,288.95 849.68,188.62 	"/>
	<g>
		<rect x="935.18" y="234.54" fill="#D8D8D6" width="47.6" height="46.83"/>
		<g>
			<path fill="#FFFFFF" d="M979.79,237.54v40.83h-41.6v-40.83H979.79 M985.79,231.54h-53.6v52.83h53.6V231.54L985.79,231.54z"/>
		</g>
	</g>
	<g>
		<polygon fill="#FFCFCF" points="1070.85,289.33 1070.85,281.37 1065.02,281.37 1065.02,224.45 1007.68,224.45 1007.68,190.79 
			1087.18,190.79 1087.18,289.33 		"/>
		<path fill="#FFFFFF" d="M1084.18,193.79v92.54h-10.33v-1.96v-6h-5.83v-50.92v-6h-6h-51.33v-27.67H1084.18 M1090.18,187.79h-85.5
			v39.67h57.33v56.92h5.83v7.96h22.33V187.79L1090.18,187.79z"/>
	</g>
	<g>
		<rect x="1097.35" y="190.79" fill="#FFCFCF" width="44.33" height="98.54"/>
		<path fill="#FFFFFF" d="M1138.68,193.79v92.54h-38.33v-92.54H1138.68 M1144.68,187.79h-50.33v104.54h50.33V187.79L1144.68,187.79z
			"/>
	</g>
	<g>
		<rect x="1151.68" y="190.79" fill="#FFCFCF" width="41.17" height="98.54"/>
		<path fill="#FFFFFF" d="M1189.85,193.79v92.54h-35.17v-92.54H1189.85 M1195.85,187.79h-47.17v104.54h47.17V187.79L1195.85,187.79z
			"/>
	</g>
	<g>
		<rect x="1203.18" y="190.79" fill="#FFCFCF" width="43.33" height="98.54"/>
		<path fill="#FFFFFF" d="M1243.52,193.79v92.54h-37.33v-92.54H1243.52 M1249.52,187.79h-49.33v104.54h49.33V187.79L1249.52,187.79z
			"/>
	</g>
	<g>
		<polygon fill="#FFCFCF" points="1256.52,289.33 1256.52,190.79 1325.68,190.79 1325.68,196.29 1330.52,196.29 1330.52,283.66 
			1325.68,283.66 1325.68,289.33 		"/>
		<path fill="#FFFFFF" d="M1322.68,193.79v5.5h4.83v81.37h-4.83v5.67h-63.17v-92.54H1322.68 M1328.68,187.79h-75.17v104.54h75.17
			v-5.67h4.83v-93.37h-4.83V187.79L1328.68,187.79z"/>
	</g>
	<g>
		<polygon fill="#D8D8D6" points="966.01,362.95 966.31,332.58 990.39,332.58 990.39,362.95 		"/>
		<path fill="#FFFFFF" d="M987.39,335.58v24.38h-18.35l0.24-24.38H987.39 M993.39,329.58h-30.05l-0.36,36.38h30.41V329.58
			L993.39,329.58z"/>
	</g>
</g>
<g id="misc">
	<g>
		<g>
			<rect x="685.1" y="588.39" fill="#E9E9E9" width="35.44" height="23.92"/>
			<path fill="#878787" d="M720.27,588.66v23.36l-34.89,0l0-23.36L720.27,588.66 M720.82,588.11l-36,0l0,24.48l36,0L720.82,588.11
				L720.82,588.11z"/>
		</g>
		
			<line fill="#E9E9E9" stroke="#878787" stroke-width="0.5577" stroke-miterlimit="10" x1="689.82" y1="612.58" x2="689.82" y2="588.11"/>
		
			<line fill="#E9E9E9" stroke="#878787" stroke-width="0.5577" stroke-miterlimit="10" x1="695.08" y1="612.58" x2="695.08" y2="588.11"/>
		
			<line fill="#E9E9E9" stroke="#878787" stroke-width="0.5577" stroke-miterlimit="10" x1="700.33" y1="612.58" x2="700.33" y2="588.11"/>
		
			<line fill="#E9E9E9" stroke="#878787" stroke-width="0.5577" stroke-miterlimit="10" x1="705.59" y1="612.58" x2="705.59" y2="588.11"/>
		
			<line fill="#E9E9E9" stroke="#878787" stroke-width="0.5577" stroke-miterlimit="10" x1="710.84" y1="612.58" x2="710.84" y2="588.11"/>
		
			<line fill="#E9E9E9" stroke="#878787" stroke-width="0.5577" stroke-miterlimit="10" x1="716.1" y1="612.58" x2="716.1" y2="588.11"/>
	</g>
	<g>
		<g>
			<rect x="685.1" y="560.03" fill="#E9E9E9" width="46.55" height="23.92"/>
			<path fill="#878787" d="M731.38,560.31l0,23.36h-46l0-23.36L731.38,560.31 M731.93,559.75l-47.11,0l0,24.48h47.11L731.93,559.75
				L731.93,559.75z"/>
		</g>
		
			<line fill="#E9E9E9" stroke="#878787" stroke-width="0.5577" stroke-miterlimit="10" x1="689.82" y1="584.23" x2="689.82" y2="559.75"/>
		
			<line fill="#E9E9E9" stroke="#878787" stroke-width="0.5577" stroke-miterlimit="10" x1="695.08" y1="584.23" x2="695.08" y2="559.75"/>
		
			<line fill="#E9E9E9" stroke="#878787" stroke-width="0.5577" stroke-miterlimit="10" x1="700.33" y1="584.23" x2="700.33" y2="559.75"/>
		
			<line fill="#E9E9E9" stroke="#878787" stroke-width="0.5577" stroke-miterlimit="10" x1="705.59" y1="584.23" x2="705.59" y2="559.75"/>
		
			<line fill="#E9E9E9" stroke="#878787" stroke-width="0.5577" stroke-miterlimit="10" x1="710.84" y1="584.23" x2="710.84" y2="559.75"/>
		
			<line fill="#E9E9E9" stroke="#878787" stroke-width="0.5577" stroke-miterlimit="10" x1="716.1" y1="584.23" x2="716.1" y2="559.75"/>
	</g>
	<g>
		<rect x="654.52" y="560.03" fill="#E9E9E9" width="30.5" height="52.27"/>
		<g>
			<path fill="#878787" d="M684.74,560.31l0,51.71H654.8l0-51.71H684.74 M685.3,559.75h-31.06l0,52.83h31.06L685.3,559.75
				L685.3,559.75z"/>
		</g>
	</g>
	<g>
		<g>
			<polyline fill="none" stroke="#6D6D6D" stroke-width="0.4725" stroke-miterlimit="10" points="718.48,599.9 678.96,599.9 
				678.96,576.31 680.29,576.31 			"/>
			<g>
				<polygon fill="#6D6D6D" points="679.91,573.44 679.91,579.18 682.78,576.31 				"/>
			</g>
		</g>
	</g>
	<g>
		<g>
			<rect x="986.07" y="231.82" fill="#E9E9E9" width="41.27" height="23.92"/>
			<path fill="#878787" d="M1027.05,232.1l0,23.36h-40.71l0-23.36H1027.05 M1027.61,231.54h-41.83l0,24.48h41.83L1027.61,231.54
				L1027.61,231.54z"/>
		</g>
		
			<line fill="#E9E9E9" stroke="#878787" stroke-width="0.5577" stroke-miterlimit="10" x1="1022.61" y1="231.54" x2="1022.61" y2="256.01"/>
		
			<line fill="#E9E9E9" stroke="#878787" stroke-width="0.5577" stroke-miterlimit="10" x1="1017.36" y1="231.54" x2="1017.36" y2="256.01"/>
		
			<line fill="#E9E9E9" stroke="#878787" stroke-width="0.5577" stroke-miterlimit="10" x1="1012.1" y1="231.54" x2="1012.1" y2="256.01"/>
		
			<line fill="#E9E9E9" stroke="#878787" stroke-width="0.5577" stroke-miterlimit="10" x1="1006.85" y1="231.54" x2="1006.85" y2="256.01"/>
		
			<line fill="#E9E9E9" stroke="#878787" stroke-width="0.5577" stroke-miterlimit="10" x1="1001.59" y1="231.54" x2="1001.59" y2="256.01"/>
		
			<line fill="#E9E9E9" stroke="#878787" stroke-width="0.5577" stroke-miterlimit="10" x1="996.34" y1="231.54" x2="996.34" y2="256.01"/>
	</g>
	<g>
		<g>
			<rect x="986.41" y="260.17" fill="#E9E9E9" width="40.92" height="23.92"/>
			<path fill="#878787" d="M1027.06,260.45l0,23.36l-40.36,0l0-23.36L1027.06,260.45 M1027.61,259.89l-41.48,0l0,24.48l41.48,0
				L1027.61,259.89L1027.61,259.89z"/>
		</g>
		
			<line fill="#E9E9E9" stroke="#878787" stroke-width="0.5577" stroke-miterlimit="10" x1="1022.61" y1="259.89" x2="1022.61" y2="284.37"/>
		
			<line fill="#E9E9E9" stroke="#878787" stroke-width="0.5577" stroke-miterlimit="10" x1="1017.36" y1="259.89" x2="1017.36" y2="284.37"/>
		
			<line fill="#E9E9E9" stroke="#878787" stroke-width="0.5577" stroke-miterlimit="10" x1="1012.1" y1="259.89" x2="1012.1" y2="284.37"/>
		
			<line fill="#E9E9E9" stroke="#878787" stroke-width="0.5577" stroke-miterlimit="10" x1="1006.85" y1="259.89" x2="1006.85" y2="284.37"/>
		
			<line fill="#E9E9E9" stroke="#878787" stroke-width="0.5577" stroke-miterlimit="10" x1="1001.59" y1="259.89" x2="1001.59" y2="284.37"/>
		
			<line fill="#E9E9E9" stroke="#878787" stroke-width="0.5577" stroke-miterlimit="10" x1="996.34" y1="259.89" x2="996.34" y2="284.37"/>
	</g>
	<g>
		<rect x="1027.42" y="231.82" fill="#E9E9E9" width="30.5" height="52.27"/>
		<g>
			<path fill="#878787" d="M1057.64,232.1l0,51.71h-29.94l0-51.71H1057.64 M1058.2,231.54h-31.06l0,52.83h31.06L1058.2,231.54
				L1058.2,231.54z"/>
		</g>
	</g>
	<g>
		<g>
			<polyline fill="none" stroke="#6D6D6D" stroke-width="0.4725" stroke-miterlimit="10" points="993.95,267.81 1033.47,267.81 
				1033.47,244.22 1032.14,244.22 			"/>
			<g>
				<polygon fill="#6D6D6D" points="1032.53,247.09 1032.53,241.35 1029.66,244.22 				"/>
			</g>
		</g>
	</g>
	
		<line fill="#E9E9E9" stroke="#878787" stroke-width="0.5577" stroke-miterlimit="10" x1="991.19" y1="231.54" x2="991.19" y2="256.01"/>
	
		<line fill="#E9E9E9" stroke="#878787" stroke-width="0.5577" stroke-miterlimit="10" x1="991.19" y1="259.89" x2="991.19" y2="284.37"/>
	
		<line fill="#E9E9E9" stroke="#878787" stroke-width="0.5577" stroke-miterlimit="10" x1="716.1" y1="584.23" x2="716.1" y2="559.75"/>
	
		<line fill="#E9E9E9" stroke="#878787" stroke-width="0.5577" stroke-miterlimit="10" x1="721.35" y1="584.23" x2="721.35" y2="559.75"/>
	
		<line fill="#E9E9E9" stroke="#878787" stroke-width="0.5577" stroke-miterlimit="10" x1="726.61" y1="584.23" x2="726.61" y2="559.75"/>
	
		<line fill="#C6C9CE" stroke="#FFFFFF" stroke-width="12" stroke-miterlimit="10" x1="1029.87" y1="559.35" x2="1029.87" y2="596.2"/>
	
		<rect x="1000.18" y="336.12" transform="matrix(-1 -5.078698e-07 5.078698e-07 -1 2024.1147 698.4922)" fill="#C6C9CE" stroke="#878787" stroke-width="0.2107" stroke-miterlimit="10" width="23.75" height="26.25"/>
	
		<line fill="#C6C9CE" stroke="#878787" stroke-width="0.2107" stroke-miterlimit="10" x1="1023.93" y1="336.12" x2="1000.18" y2="362.37"/>
	
		<line fill="#C6C9CE" stroke="#878787" stroke-width="0.2107" stroke-miterlimit="10" x1="1000.18" y1="336.12" x2="1023.93" y2="362.37"/>
</g>
<g id="internal_x5F_med">
	<polyline fill="none" stroke="#2D2D2D" stroke-width="4" stroke-miterlimit="10" points="847.18,185.95 847.18,291.58 
		866.18,291.58 866.18,296.29 	"/>
	<polyline fill="none" stroke="#2D2D2D" stroke-width="4" stroke-miterlimit="10" points="866.18,322.12 866.18,327.29 
		847.18,327.29 847.18,670.95 	"/>
	<polyline fill="none" stroke="#2D2D2D" stroke-width="4" stroke-miterlimit="10" points="933.43,286.45 929.93,286.45 
		929.93,229.45 1060.18,229.45 1060.18,286.45 961.25,286.45 	"/>
	<polyline fill="none" stroke="#2D2D2D" stroke-width="4" stroke-miterlimit="10" points="929.61,286.45 924.11,286.45 
		924.11,291.58 929.93,291.58 929.93,281.09 	"/>
	<line fill="none" stroke="#2D2D2D" stroke-width="4" stroke-miterlimit="10" x1="887.93" y1="291.58" x2="866.68" y2="291.58"/>
	<line fill="none" stroke="#2D2D2D" stroke-width="4" stroke-miterlimit="10" x1="923.31" y1="291.58" x2="905.56" y2="291.58"/>
	<line fill="none" stroke="#2D2D2D" stroke-width="4" stroke-miterlimit="10" x1="925.56" y1="261.95" x2="929.31" y2="261.95"/>
	<polyline fill="none" stroke="#2D2D2D" stroke-width="4" stroke-miterlimit="10" points="884.06,291.58 884.06,261.95 
		908.04,261.95 	"/>
	<line fill="none" stroke="#2D2D2D" stroke-width="4" stroke-miterlimit="10" x1="964.18" y1="228.29" x2="964.18" y2="185.95"/>
	<line fill="none" stroke="#2D2D2D" stroke-width="4" stroke-miterlimit="10" x1="1002.68" y1="224.45" x2="1002.68" y2="228.29"/>
	<line fill="none" stroke="#2D2D2D" stroke-width="4" stroke-miterlimit="10" x1="1002.68" y1="185.95" x2="1002.68" y2="206.92"/>
	<line fill="none" stroke="#2D2D2D" stroke-width="4" stroke-miterlimit="10" x1="1092.18" y1="185.12" x2="1092.18" y2="293.29"/>
	<rect x="1060.18" y="286.45" fill="none" stroke="#2D2D2D" stroke-width="4" stroke-miterlimit="10" width="5.5" height="8"/>
	<line fill="none" stroke="#2D2D2D" stroke-width="4" stroke-miterlimit="10" x1="1273.06" y1="294.45" x2="1334.43" y2="294.45"/>
	<line fill="none" stroke="#2D2D2D" stroke-width="4" stroke-miterlimit="10" x1="1221.43" y1="294.45" x2="1255.68" y2="294.45"/>
	<polyline fill="none" stroke="#2D2D2D" stroke-width="4" stroke-miterlimit="10" points="1167.87,294.45 1195.37,294.45 
		1204.37,294.45 	"/>
	<line fill="none" stroke="#2D2D2D" stroke-width="4" stroke-miterlimit="10" x1="1113.43" y1="294.45" x2="1150.81" y2="294.45"/>
	<line fill="none" stroke="#2D2D2D" stroke-width="4" stroke-miterlimit="10" x1="1088.68" y1="294.45" x2="1095.93" y2="294.45"/>
	<line fill="none" stroke="#2D2D2D" stroke-width="4" stroke-miterlimit="10" x1="1060.18" y1="294.45" x2="1070.89" y2="294.45"/>
	<line fill="none" stroke="#2D2D2D" stroke-width="4" stroke-miterlimit="10" x1="1146.43" y1="294.45" x2="1146.43" y2="185.95"/>
	<line fill="none" stroke="#2D2D2D" stroke-width="4" stroke-miterlimit="10" x1="1198.18" y1="294.45" x2="1198.18" y2="185.95"/>
	<line fill="none" stroke="#2D2D2D" stroke-width="4" stroke-miterlimit="10" x1="1251.68" y1="294.45" x2="1251.68" y2="185.12"/>
	<line fill="none" stroke="#2D2D2D" stroke-width="4" stroke-miterlimit="10" x1="1034.38" y1="347.45" x2="1029.18" y2="347.45"/>
	<polyline fill="none" stroke="#2D2D2D" stroke-width="4" stroke-miterlimit="10" points="1310.93,328.45 1065.68,328.45 
		1065.68,347.45 1060.18,347.45 	"/>
	<line fill="none" stroke="#2D2D2D" stroke-width="4" stroke-miterlimit="10" x1="1338.68" y1="328.45" x2="1328.47" y2="328.45"/>
	<line fill="none" stroke="#2D2D2D" stroke-width="4" stroke-miterlimit="10" x1="955.28" y1="520.45" x2="847.18" y2="520.45"/>
	<polyline fill="none" stroke="#2D2D2D" stroke-width="4" stroke-miterlimit="10" points="1029.18,486.87 1029.18,520.45 
		971.68,520.45 	"/>
	<line fill="none" stroke="#2D2D2D" stroke-width="4" stroke-miterlimit="10" x1="1029.18" y1="437.7" x2="1029.18" y2="468.95"/>
	<line fill="none" stroke="#2D2D2D" stroke-width="4" stroke-miterlimit="10" x1="1029.18" y1="388.95" x2="1029.18" y2="420.7"/>
	<polyline fill="none" stroke="#2D2D2D" stroke-width="4" stroke-miterlimit="10" points="1020.68,330.2 1029.18,330.2 
		1029.18,371.45 	"/>
	<line fill="none" stroke="#2D2D2D" stroke-width="4" stroke-miterlimit="10" x1="971.68" y1="544.45" x2="1030.18" y2="544.45"/>
	<polyline fill="none" stroke="#2D2D2D" stroke-width="4" stroke-miterlimit="10" points="950.68,520.45 950.68,544.45 
		955.28,544.45 	"/>
	<line fill="none" stroke="#2D2D2D" stroke-width="4" stroke-miterlimit="10" x1="976.18" y1="544.45" x2="976.18" y2="611.95"/>
	<line fill="none" stroke="#2D2D2D" stroke-width="4" stroke-miterlimit="10" x1="1030.18" y1="561.7" x2="1030.18" y2="594.2"/>
	<line fill="none" stroke="#2D2D2D" stroke-width="4" stroke-miterlimit="10" x1="707.93" y1="670.95" x2="651.43" y2="670.95"/>
	<line fill="none" stroke="#2D2D2D" stroke-width="4" stroke-miterlimit="10" x1="744.68" y1="670.95" x2="725.43" y2="670.95"/>
	<line fill="none" stroke="#2D2D2D" stroke-width="4" stroke-miterlimit="10" x1="825.68" y1="670.95" x2="770.93" y2="670.95"/>
	<line fill="none" stroke="#2D2D2D" stroke-width="4" stroke-miterlimit="10" x1="884.43" y1="670.95" x2="842.18" y2="670.95"/>
	<line fill="none" stroke="#2D2D2D" stroke-width="4" stroke-miterlimit="10" x1="946.31" y1="670.95" x2="902.06" y2="670.95"/>
	<line fill="none" stroke="#2D2D2D" stroke-width="4" stroke-miterlimit="10" x1="971.68" y1="670.95" x2="964.18" y2="670.95"/>
	<polyline fill="none" stroke="#2D2D2D" stroke-width="4" stroke-miterlimit="10" points="848.27,611.95 1031.27,611.95 
		1031.27,670.95 989.27,670.95 	"/>
	<polyline fill="none" stroke="#2D2D2D" stroke-width="4" stroke-miterlimit="10" points="729.93,670.95 729.93,614.45 
		651.43,614.45 	"/>
	<line fill="none" stroke="#2D2D2D" stroke-width="4" stroke-miterlimit="10" x1="837.68" y1="557.7" x2="846.18" y2="557.7"/>
	<polyline fill="none" stroke="#2D2D2D" stroke-width="4" stroke-miterlimit="10" points="651.43,552.45 655.68,552.45 
		655.68,557.7 821.17,557.7 	"/>
	<line fill="none" stroke="#2D2D2D" stroke-width="4" stroke-miterlimit="10" x1="774.93" y1="561.7" x2="774.93" y2="557.7"/>
	<line fill="none" stroke="#2D2D2D" stroke-width="4" stroke-miterlimit="10" x1="774.93" y1="670.95" x2="774.93" y2="577.2"/>
	<line fill="none" stroke="#2D2D2D" stroke-width="4" stroke-miterlimit="10" x1="846.18" y1="579.45" x2="774.93" y2="579.45"/>
	<polyline fill="none" stroke="#2D2D2D" stroke-width="4" stroke-miterlimit="10" points="1002.93,330.2 995.06,330.2 
		995.06,368.29 1029.18,368.29 	"/>
	<polyline fill="none" stroke="#2D2D2D" stroke-width="4" stroke-miterlimit="10" points="1003.52,368.29 960.52,368.29 
		960.52,328.45 	"/>
	<line fill="none" stroke="#2D2D2D" stroke-width="4" stroke-miterlimit="10" x1="1022.68" y1="327.29" x2="1031.18" y2="327.29"/>
	<line fill="none" stroke="#2D2D2D" stroke-width="4" stroke-miterlimit="10" x1="986.35" y1="327.29" x2="1000.43" y2="327.29"/>
	<line fill="none" stroke="#2D2D2D" stroke-width="4" stroke-miterlimit="10" x1="928.74" y1="327.29" x2="969.18" y2="327.29"/>
	<line fill="none" stroke="#2D2D2D" stroke-width="4" stroke-miterlimit="10" x1="902.68" y1="327.29" x2="910.93" y2="327.29"/>
	<line fill="none" stroke="#2D2D2D" stroke-width="4" stroke-miterlimit="10" x1="866.18" y1="327.29" x2="885.8" y2="327.29"/>
	<line fill="none" stroke="#2D2D2D" stroke-width="4" stroke-miterlimit="10" x1="976.18" y1="368.29" x2="976.18" y2="520.45"/>
	<line fill="none" stroke="#2D2D2D" stroke-width="4" stroke-miterlimit="10" x1="1029.18" y1="415.95" x2="976.18" y2="415.95"/>
	<line fill="none" stroke="#2D2D2D" stroke-width="4" stroke-miterlimit="10" x1="1029.18" y1="464.29" x2="976.18" y2="464.29"/>
	<line fill="none" stroke="#2D2D2D" stroke-width="4" stroke-miterlimit="10" x1="976.18" y1="428.29" x2="847.18" y2="428.29"/>
	<line fill="none" stroke="#2D2D2D" stroke-width="4" stroke-miterlimit="10" x1="968.14" y1="612.54" x2="968.14" y2="670.91"/>
	<line fill="none" stroke="#2D2D2D" stroke-width="4" stroke-miterlimit="10" x1="906.81" y1="328.45" x2="906.81" y2="361.45"/>
	<line fill="none" stroke="#2D2D2D" stroke-width="4" stroke-miterlimit="10" x1="956.02" y1="361.45" x2="960.52" y2="361.45"/>
	<line fill="none" stroke="#2D2D2D" stroke-width="4" stroke-miterlimit="10" x1="848.08" y1="361.45" x2="937.99" y2="361.45"/>
	<line fill="none" stroke="#2D2D2D" stroke-width="4" stroke-miterlimit="10" x1="907.18" y1="612.54" x2="907.18" y2="669.62"/>
</g>
<g id="internal_x5F_thick">
	<line fill="none" stroke="#2D2D2D" stroke-width="8" stroke-miterlimit="10" x1="697.1" y1="183.79" x2="1336.17" y2="183.79"/>
	<polyline fill="none" stroke="#2D2D2D" stroke-width="8" stroke-miterlimit="10" points="650.15,392.8 650.15,183.79 697.1,183.79 
			"/>
	<line fill="none" stroke="#2D2D2D" stroke-width="8" stroke-miterlimit="10" x1="650.15" y1="919.23" x2="650.15" y2="392.8"/>
	<line fill="none" stroke="#2D2D2D" stroke-width="8" stroke-miterlimit="10" x1="656.1" y1="919.23" x2="656.1" y2="908.29"/>
	<line fill="none" stroke="#2D2D2D" stroke-width="8" stroke-miterlimit="10" x1="791.25" y1="919.23" x2="791.25" y2="908.29"/>
	<line fill="none" stroke="#2D2D2D" stroke-width="8" stroke-miterlimit="10" x1="1061.55" y1="919.23" x2="1061.55" y2="908.29"/>
	<line fill="none" stroke="#2D2D2D" stroke-width="8" stroke-miterlimit="10" x1="926.4" y1="919.23" x2="926.4" y2="908.29"/>
	<line fill="none" stroke="#2D2D2D" stroke-width="8" stroke-miterlimit="10" x1="1196.7" y1="919.23" x2="1196.7" y2="908.29"/>
	<line fill="none" stroke="#2D2D2D" stroke-width="8" stroke-miterlimit="10" x1="1331.85" y1="919.23" x2="1331.85" y2="908.29"/>
	<line fill="none" stroke="#2D2D2D" stroke-width="8" stroke-miterlimit="10" x1="1334.68" y1="546.47" x2="1328.68" y2="546.47"/>
	<line fill="none" stroke="#2D2D2D" stroke-width="8" stroke-miterlimit="10" x1="1334.68" y1="430.29" x2="1328.68" y2="430.29"/>
	<line fill="none" stroke="#2D2D2D" stroke-width="8" stroke-miterlimit="10" x1="1334.68" y1="290.45" x2="1328.68" y2="290.45"/>
	<line fill="none" stroke="#2D2D2D" stroke-width="8" stroke-miterlimit="10" x1="1334.68" y1="189.29" x2="1328.68" y2="189.29"/>
	<line fill="none" stroke="#2D2D2D" stroke-width="8" stroke-miterlimit="10" x1="1061.93" y1="426.26" x2="1061.93" y2="434.32"/>
	<line fill="none" stroke="#2D2D2D" stroke-width="8" stroke-miterlimit="10" x1="1061.93" y1="542.76" x2="1061.93" y2="550.82"/>
	<line fill="none" stroke="#2D2D2D" stroke-width="8" stroke-miterlimit="10" x1="1061.93" y1="664.92" x2="1061.93" y2="672.98"/>
	<line fill="none" stroke="#2D2D2D" stroke-width="8" stroke-miterlimit="10" x1="1197.85" y1="544.32" x2="1197.85" y2="552.38"/>
	<line fill="none" stroke="#2D2D2D" stroke-width="8" stroke-miterlimit="10" x1="1185.18" y1="318.52" x2="1185.18" y2="338.85"/>
</g>
<g id="ouside_x5F_1">
	<path fill="none" stroke="#2D2D2D" stroke-width="15" stroke-miterlimit="10" d="M1341.07,300.37l0-120.58L1341.07,300.37z"/>
	<line fill="none" stroke="#2D2D2D" stroke-width="15" stroke-miterlimit="10" x1="1341.07" y1="373.86" x2="1341.07" y2="300.37"/>
	<polyline fill="none" stroke="#2D2D2D" stroke-width="15" stroke-miterlimit="10" points="1262.97,926.25 1341.07,925.67 
		1341.07,373.86 	"/>
	<line fill="none" stroke="#2D2D2D" stroke-width="15" stroke-miterlimit="10" x1="1101.39" y1="926.24" x2="1262.97" y2="926.24"/>
	<line fill="none" stroke="#2D2D2D" stroke-width="15" stroke-miterlimit="10" x1="747.72" y1="926.24" x2="1101.39" y2="926.24"/>
	<line fill="none" stroke="#2D2D2D" stroke-width="15" stroke-miterlimit="10" x1="656.1" y1="926.24" x2="747.72" y2="926.24"/>
	<line fill="none" stroke="#2D2D2D" stroke-width="15" stroke-miterlimit="10" x1="646.15" y1="926.24" x2="656.1" y2="926.24"/>
</g>
<g id="outside_x5F_2">
	<path fill="none" stroke="#E3E3E3" stroke-width="6" stroke-miterlimit="10" d="M1341.07,300.37l0-118.58L1341.07,300.37z"/>
	<line fill="none" stroke="#E3E3E3" stroke-width="6" stroke-miterlimit="10" x1="1341.07" y1="373.86" x2="1341.07" y2="300.37"/>
	<polyline fill="none" stroke="#E3E3E3" stroke-width="6" stroke-miterlimit="10" points="1262.97,926.25 1341.07,925.67 
		1341.07,373.86 	"/>
	<line fill="none" stroke="#E3E3E3" stroke-width="6" stroke-miterlimit="10" x1="1101.39" y1="926.24" x2="1262.97" y2="926.24"/>
	<line fill="none" stroke="#E3E3E3" stroke-width="6" stroke-miterlimit="10" x1="747.72" y1="926.24" x2="1101.39" y2="926.24"/>
	<line fill="none" stroke="#E3E3E3" stroke-width="6" stroke-miterlimit="10" x1="656.1" y1="926.24" x2="747.72" y2="926.24"/>
	<line fill="none" stroke="#E3E3E3" stroke-width="6" stroke-miterlimit="10" x1="648.15" y1="926.24" x2="656.1" y2="926.24"/>
</g>
<g id="window">
	<g>
		<g>
			
				<line fill="none" stroke="#878787" stroke-width="2" stroke-miterlimit="10" x1="1341.07" y1="185.95" x2="1341.07" y2="200.95"/>
			
				<line fill="none" stroke="#878787" stroke-width="2" stroke-miterlimit="10" stroke-dasharray="29.3448,5.869" x1="1341.07" y1="206.82" x2="1341.07" y2="908.16"/>
			<polyline fill="none" stroke="#878787" stroke-width="2" stroke-miterlimit="10" points="1341.07,911.1 1341.07,926.1 
				1326.07,926.1 			"/>
			
				<line fill="none" stroke="#878787" stroke-width="2" stroke-miterlimit="10" stroke-dasharray="30.409,6.0818" x1="1319.99" y1="926.1" x2="666.19" y2="926.1"/>
			<line fill="none" stroke="#878787" stroke-width="2" stroke-miterlimit="10" x1="663.15" y1="926.1" x2="648.15" y2="926.1"/>
		</g>
	</g>
</g>
<g id="door">
	<path opacity="0.3" fill="#FFFFFF" d="M1060.6,331.28c-8.82,0-16.12,6.35-16.12,16.9l16.12-0.01L1060.6,331.28z"/>
	<path fill="none" stroke="#A0A0A0" stroke-miterlimit="10" d="M1044.48,348.18c0-10.55,7.3-16.9,16.12-16.9"/>
	
		<line fill="none" stroke="#A0A0A0" stroke-width="2" stroke-linecap="square" stroke-miterlimit="10" x1="1060.99" y1="348.49" x2="1060.99" y2="331.6"/>
	<path opacity="0.3" fill="#FFFFFF" d="M1034.14,337.71c5.51,0,10.08,3.97,10.08,10.56l-10.08,0L1034.14,337.71z"/>
	<path fill="none" stroke="#A0A0A0" stroke-miterlimit="10" d="M1044.46,348.28c0-6.6-4.56-10.56-10.08-10.56"/>
	
		<line fill="none" stroke="#A0A0A0" stroke-width="2" stroke-linecap="square" stroke-miterlimit="10" x1="1034.14" y1="348.47" x2="1034.14" y2="337.91"/>
	<path opacity="0.3" fill="#FFFFFF" d="M1256.7,278.21c8.82,0,16.12,6.35,16.12,16.9l-16.12-0.01L1256.7,278.21z"/>
	<path fill="none" stroke="#A0A0A0" stroke-miterlimit="10" d="M1272.81,295.11c0-10.55-7.3-16.9-16.12-16.9"/>
	
		<line fill="none" stroke="#A0A0A0" stroke-width="2" stroke-linecap="square" stroke-miterlimit="10" x1="1256.3" y1="295.42" x2="1256.3" y2="278.53"/>
	<path opacity="0.3" fill="#FFFFFF" d="M1205.32,278.21c8.82,0,16.12,6.35,16.12,16.9l-16.12-0.01L1205.32,278.21z"/>
	<path fill="none" stroke="#A0A0A0" stroke-miterlimit="10" d="M1221.43,295.11c0-10.55-7.3-16.9-16.12-16.9"/>
	
		<line fill="none" stroke="#A0A0A0" stroke-width="2" stroke-linecap="square" stroke-miterlimit="10" x1="1204.92" y1="295.42" x2="1204.92" y2="278.53"/>
	<path opacity="0.3" fill="#FFFFFF" d="M1151.5,278.21c8.82,0,16.12,6.35,16.12,16.9l-16.12-0.01L1151.5,278.21z"/>
	<path fill="none" stroke="#A0A0A0" stroke-miterlimit="10" d="M1167.62,295.11c0-10.55-7.3-16.9-16.12-16.9"/>
	
		<line fill="none" stroke="#A0A0A0" stroke-width="2" stroke-linecap="square" stroke-miterlimit="10" x1="1151.11" y1="295.42" x2="1151.11" y2="278.53"/>
	<path opacity="0.3" fill="#FFFFFF" d="M1097.32,278.21c8.82,0,16.12,6.35,16.12,16.9l-16.12-0.01L1097.32,278.21z"/>
	<path fill="none" stroke="#A0A0A0" stroke-miterlimit="10" d="M1113.43,295.11c0-10.55-7.3-16.9-16.12-16.9"/>
	
		<line fill="none" stroke="#A0A0A0" stroke-width="2" stroke-linecap="square" stroke-miterlimit="10" x1="1096.92" y1="295.42" x2="1096.92" y2="278.53"/>
	<path opacity="0.3" fill="#FFFFFF" d="M1087.3,278.21c-8.82,0-16.12,6.35-16.12,16.9l16.12-0.01L1087.3,278.21z"/>
	<path fill="none" stroke="#A0A0A0" stroke-miterlimit="10" d="M1071.18,295.11c0-10.55,7.3-16.9,16.12-16.9"/>
	
		<line fill="none" stroke="#A0A0A0" stroke-width="2" stroke-linecap="square" stroke-miterlimit="10" x1="1087.69" y1="295.42" x2="1087.69" y2="278.53"/>
	<path opacity="0.3" fill="#FFFFFF" d="M986.45,223.04c0-8.82,6.35-16.12,16.9-16.12l-0.01,16.12L986.45,223.04z"/>
	<path fill="none" stroke="#A0A0A0" stroke-miterlimit="10" d="M1003.35,206.92c-10.55,0-16.9,7.3-16.9,16.12"/>
	
		<line fill="none" stroke="#A0A0A0" stroke-width="2" stroke-linecap="square" stroke-miterlimit="10" x1="1003.66" y1="223.44" x2="986.77" y2="223.43"/>
	<path opacity="0.3" fill="#FFFFFF" d="M886.19,311.14c8.82,0,16.12,6.35,16.12,16.9l-16.12-0.01L886.19,311.14z"/>
	<path fill="none" stroke="#A0A0A0" stroke-miterlimit="10" d="M902.31,328.04c0-10.55-7.3-16.9-16.12-16.9"/>
	
		<line fill="none" stroke="#A0A0A0" stroke-width="2" stroke-linecap="square" stroke-miterlimit="10" x1="885.8" y1="328.35" x2="885.8" y2="311.46"/>
	<path opacity="0.3" fill="#FFFFFF" d="M912.27,343.46c8.82,0,16.12-6.35,16.12-16.9l-16.12,0.01L912.27,343.46z"/>
	<path fill="none" stroke="#A0A0A0" stroke-miterlimit="10" d="M928.39,326.56c0,10.55-7.3,16.9-16.12,16.9"/>
	
		<line fill="none" stroke="#A0A0A0" stroke-width="2" stroke-linecap="square" stroke-miterlimit="10" x1="911.88" y1="326.25" x2="911.88" y2="343.14"/>
	<path opacity="0.3" fill="#FFFFFF" d="M969.97,311.14c8.82,0,16.12,6.35,16.12,16.9l-16.12-0.01L969.97,311.14z"/>
	<path fill="none" stroke="#A0A0A0" stroke-miterlimit="10" d="M986.09,328.04c0-10.55-7.3-16.9-16.12-16.9"/>
	
		<line fill="none" stroke="#A0A0A0" stroke-width="2" stroke-linecap="square" stroke-miterlimit="10" x1="969.58" y1="328.35" x2="969.58" y2="311.46"/>
	<path opacity="0.3" fill="#FFFFFF" d="M1012.97,372.84c0,8.82,6.35,16.12,16.9,16.12l-0.01-16.12L1012.97,372.84z"/>
	<path fill="none" stroke="#A0A0A0" stroke-miterlimit="10" d="M1029.87,388.95c-10.55,0-16.9-7.3-16.9-16.12"/>
	
		<line fill="none" stroke="#A0A0A0" stroke-width="2" stroke-linecap="square" stroke-miterlimit="10" x1="1030.18" y1="372.44" x2="1013.29" y2="372.44"/>
	<path opacity="0.3" fill="#FFFFFF" d="M1012.97,421.76c0,8.82,6.35,16.12,16.9,16.12l-0.01-16.12L1012.97,421.76z"/>
	<path fill="none" stroke="#A0A0A0" stroke-miterlimit="10" d="M1029.87,437.88c-10.55,0-16.9-7.3-16.9-16.12"/>
	
		<line fill="none" stroke="#A0A0A0" stroke-width="2" stroke-linecap="square" stroke-miterlimit="10" x1="1030.18" y1="421.37" x2="1013.29" y2="421.37"/>
	<path opacity="0.3" fill="#FFFFFF" d="M1012.97,470.35c0,8.82,6.35,16.12,16.9,16.12l-0.01-16.12L1012.97,470.35z"/>
	<path fill="none" stroke="#A0A0A0" stroke-miterlimit="10" d="M1029.87,486.47c-10.55,0-16.9-7.3-16.9-16.12"/>
	
		<line fill="none" stroke="#A0A0A0" stroke-width="2" stroke-linecap="square" stroke-miterlimit="10" x1="1030.18" y1="469.95" x2="1013.29" y2="469.96"/>
	<path opacity="0.3" fill="#FFFFFF" d="M971.4,504.33c-8.82,0-16.12,6.35-16.12,16.9l16.12-0.01L971.4,504.33z"/>
	<path fill="none" stroke="#A0A0A0" stroke-miterlimit="10" d="M955.28,521.23c0-10.55,7.3-16.9,16.12-16.9"/>
	
		<line fill="none" stroke="#A0A0A0" stroke-width="2" stroke-linecap="square" stroke-miterlimit="10" x1="971.79" y1="521.55" x2="971.79" y2="504.65"/>
	<path opacity="0.3" fill="#FFFFFF" d="M971.4,560.67c-8.82,0-16.12-6.35-16.12-16.9l16.12,0.01L971.4,560.67z"/>
	<path fill="none" stroke="#A0A0A0" stroke-miterlimit="10" d="M955.28,543.77c0,10.55,7.3,16.9,16.12,16.9"/>
	
		<line fill="none" stroke="#A0A0A0" stroke-width="2" stroke-linecap="square" stroke-miterlimit="10" x1="971.79" y1="543.45" x2="971.79" y2="560.35"/>
	<g>
		<path opacity="0.3" fill="#FFFFFF" d="M973.06,654.75c8.82,0,16.12,6.35,16.12,16.9l-16.12-0.01L973.06,654.75z"/>
		<path fill="none" stroke="#A0A0A0" stroke-miterlimit="10" d="M989.17,671.65c0-10.55-7.3-16.9-16.12-16.9"/>
	</g>
	
		<line fill="none" stroke="#A0A0A0" stroke-width="2" stroke-linecap="square" stroke-miterlimit="10" x1="972.66" y1="671.96" x2="972.66" y2="655.07"/>
	<g>
		<path opacity="0.3" fill="#FFFFFF" d="M962.98,654.75c-8.82,0-16.12,6.35-16.12,16.9l16.12-0.01L962.98,654.75z"/>
		<path fill="none" stroke="#A0A0A0" stroke-miterlimit="10" d="M946.86,671.65c0-10.55,7.3-16.9,16.12-16.9"/>
	</g>
	
		<line fill="none" stroke="#A0A0A0" stroke-width="2" stroke-linecap="square" stroke-miterlimit="10" x1="963.38" y1="671.96" x2="963.37" y2="655.07"/>
	<g>
		<path opacity="0.3" fill="#FFFFFF" d="M900.79,654.75c-8.82,0-16.12,6.35-16.12,16.9l16.12-0.01L900.79,654.75z"/>
		<path fill="none" stroke="#A0A0A0" stroke-miterlimit="10" d="M884.67,671.65c0-10.55,7.3-16.9,16.12-16.9"/>
		
			<line fill="none" stroke="#A0A0A0" stroke-width="2" stroke-linecap="square" stroke-miterlimit="10" x1="901.18" y1="671.96" x2="901.18" y2="655.07"/>
	</g>
	<path opacity="0.3" fill="#FFFFFF" d="M841.54,654.75c-8.82,0-16.12,6.35-16.12,16.9l16.12-0.01L841.54,654.75z"/>
	<path fill="none" stroke="#A0A0A0" stroke-miterlimit="10" d="M825.42,671.65c0-10.55,7.3-16.9,16.12-16.9"/>
	
		<line fill="none" stroke="#A0A0A0" stroke-width="2" stroke-linecap="square" stroke-miterlimit="10" x1="841.93" y1="671.96" x2="841.93" y2="655.07"/>
	<path opacity="0.3" fill="#FFFFFF" d="M724.25,654.75c-8.82,0-16.12,6.35-16.12,16.9l16.12-0.01L724.25,654.75z"/>
	<path fill="none" stroke="#A0A0A0" stroke-miterlimit="10" d="M708.13,671.65c0-10.55,7.3-16.9,16.12-16.9"/>
	
		<line fill="none" stroke="#A0A0A0" stroke-width="2" stroke-linecap="square" stroke-miterlimit="10" x1="724.64" y1="671.96" x2="724.64" y2="655.07"/>
	<path opacity="0.3" fill="#FFFFFF" d="M758.76,561.1c0,8.82,6.35,16.12,16.9,16.12l-0.01-16.12L758.76,561.1z"/>
	<path fill="none" stroke="#A0A0A0" stroke-miterlimit="10" d="M775.66,577.21c-10.55,0-16.9-7.3-16.9-16.12"/>
	
		<line fill="none" stroke="#A0A0A0" stroke-width="2" stroke-linecap="square" stroke-miterlimit="10" x1="775.98" y1="560.7" x2="759.08" y2="560.7"/>
	<path opacity="0.3" fill="#FFFFFF" d="M837.29,573.9c-8.82,0-16.12-6.35-16.12-16.9l16.12,0.01L837.29,573.9z"/>
	<path fill="none" stroke="#A0A0A0" stroke-miterlimit="10" d="M821.17,557c0,10.55,7.3,16.9,16.12,16.9"/>
	
		<line fill="none" stroke="#A0A0A0" stroke-width="2" stroke-linecap="square" stroke-miterlimit="10" x1="837.68" y1="556.69" x2="837.68" y2="573.58"/>
	<path opacity="0.3" fill="#FFFFFF" d="M1327.28,344.67c-8.82,0-16.12-6.35-16.12-16.9l16.12,0.01L1327.28,344.67z"/>
	<path fill="none" stroke="#A0A0A0" stroke-miterlimit="10" d="M1311.17,327.77c0,10.55,7.3,16.9,16.12,16.9"/>
	
		<line fill="none" stroke="#A0A0A0" stroke-width="2" stroke-linecap="square" stroke-miterlimit="10" x1="1327.68" y1="327.46" x2="1327.68" y2="344.35"/>
	<path opacity="0.3" fill="#FFFFFF" d="M889.22,275.43c8.82,0,16.12,6.35,16.12,16.9l-16.12-0.01L889.22,275.43z"/>
	<path fill="none" stroke="#A0A0A0" stroke-miterlimit="10" d="M905.34,292.33c0-10.55-7.3-16.9-16.12-16.9"/>
	
		<line fill="none" stroke="#A0A0A0" stroke-width="2" stroke-linecap="square" stroke-miterlimit="10" x1="888.82" y1="292.65" x2="888.83" y2="275.75"/>
	<path opacity="0.3" fill="#FFFFFF" d="M924.14,278.19c-8.82,0-16.12-6.35-16.12-16.9l16.12,0.01L924.14,278.19z"/>
	<path fill="none" stroke="#A0A0A0" stroke-miterlimit="10" d="M908.03,261.3c0,10.55,7.3,16.9,16.12,16.9"/>
	
		<line fill="none" stroke="#A0A0A0" stroke-width="2" stroke-linecap="square" stroke-miterlimit="10" x1="924.54" y1="260.98" x2="924.54" y2="277.87"/>
	<path opacity="0.3" fill="#FFFFFF" d="M770.16,654.75c-8.82,0-16.12,6.35-16.12,16.9l16.12-0.01L770.16,654.75z"/>
	<path fill="none" stroke="#A0A0A0" stroke-miterlimit="10" d="M754.05,671.65c0-10.55,7.3-16.9,16.12-16.9"/>
	
		<line fill="none" stroke="#A0A0A0" stroke-width="2" stroke-linecap="square" stroke-miterlimit="10" x1="770.56" y1="671.96" x2="770.56" y2="655.07"/>
	<path opacity="0.3" fill="#FFFFFF" d="M743.7,661.18c5.51,0,10.08,3.97,10.08,10.56l-10.08,0L743.7,661.18z"/>
	<path fill="none" stroke="#A0A0A0" stroke-miterlimit="10" d="M754.02,671.75c0-6.6-4.56-10.56-10.08-10.56"/>
	
		<line fill="none" stroke="#A0A0A0" stroke-width="2" stroke-linecap="square" stroke-miterlimit="10" x1="743.7" y1="671.94" x2="743.7" y2="661.38"/>
	<path opacity="0.3" fill="#FFFFFF" d="M848.08,297.56c0,8.82,6.35,16.12,16.9,16.12l-0.01-16.12L848.08,297.56z"/>
	<path fill="none" stroke="#A0A0A0" stroke-miterlimit="10" d="M864.97,313.68c-10.55,0-16.9-7.3-16.9-16.12"/>
	
		<line fill="none" stroke="#A0A0A0" stroke-width="2" stroke-linecap="square" stroke-miterlimit="10" x1="865.29" y1="297.17" x2="848.4" y2="297.17"/>
	<path opacity="0.3" fill="#FFFFFF" d="M854.51,323.98c0-5.51,3.97-10.08,10.56-10.08l0,10.08L854.51,323.98z"/>
	<path fill="none" stroke="#A0A0A0" stroke-miterlimit="10" d="M865.07,313.7c-6.6,0-10.56,4.56-10.56,10.08"/>
	
		<line fill="none" stroke="#A0A0A0" stroke-width="2" stroke-linecap="square" stroke-miterlimit="10" x1="865.27" y1="324.02" x2="854.71" y2="324.02"/>
	<path opacity="0.3" fill="#FFFFFF" d="M934.84,270.27c8.82,0,16.12,6.35,16.12,16.9l-16.12-0.01L934.84,270.27z"/>
	<path fill="none" stroke="#A0A0A0" stroke-miterlimit="10" d="M950.96,287.16c0-10.55-7.3-16.9-16.12-16.9"/>
	
		<line fill="none" stroke="#A0A0A0" stroke-width="2" stroke-linecap="square" stroke-miterlimit="10" x1="934.45" y1="287.48" x2="934.45" y2="270.59"/>
	<path opacity="0.3" fill="#FFFFFF" d="M961.25,276.7c-5.51,0-10.08,3.97-10.08,10.56l10.08,0L961.25,276.7z"/>
	<path fill="none" stroke="#A0A0A0" stroke-miterlimit="10" d="M950.98,287.26c0-6.6,4.56-10.56,10.08-10.56"/>
	
		<line fill="none" stroke="#A0A0A0" stroke-width="2" stroke-linecap="square" stroke-miterlimit="10" x1="961.3" y1="287.46" x2="961.3" y2="276.9"/>
	<path opacity="0.3" fill="#FFFFFF" d="M954.61,345.28c-8.82,0-16.12,6.35-16.12,16.9l16.12-0.01L954.61,345.28z"/>
	<path fill="none" stroke="#A0A0A0" stroke-miterlimit="10" d="M938.49,362.18c0-10.55,7.3-16.9,16.12-16.9"/>
	
		<line fill="none" stroke="#A0A0A0" stroke-width="2" stroke-linecap="square" stroke-miterlimit="10" x1="955" y1="362.49" x2="955" y2="345.6"/>
</g>
<g id="text">
	<text transform="matrix(1 0 0 1 1217.4817 240.2043)" fill="#2D2D2D" font-family="'Arial'" font-weight="bold" font-size="12px">01</text>
	<text transform="matrix(1 0 0 1 1162.1897 241.0776)" fill="#2D2D2D" font-family="'Arial'" font-weight="bold" font-size="12px">02</text>
	<text transform="matrix(1 0 0 1 1111.3184 241.0776)" fill="#2D2D2D" font-family="'Arial'" font-weight="bold" font-size="12px">03</text>
	<text transform="matrix(1 0 0 1 1270.1357 240.2043)"><tspan x="0" y="0" fill="#2D2D2D" font-family="'Arial'" font-weight="bold" font-size="14px">BOARD</tspan><tspan x="3.12" y="16.8" fill="#2D2D2D" font-family="'Arial'" font-weight="bold" font-size="14px">ROOM</tspan></text>
	<text transform="matrix(1 0 0 1 990.8149 444.371)" fill="#2D2D2D" font-family="'Arial'" font-weight="bold" font-size="12px">05</text>
	<text transform="matrix(1 0 0 1 991.4743 400.2348)" fill="#2D2D2D" font-family="'Arial'" font-weight="bold" font-size="12px">04</text>
	<text transform="matrix(1 0 0 1 991.4743 497.371)" fill="#2D2D2D" font-family="'Arial'" font-weight="bold" font-size="12px">06</text>
	<text transform="matrix(1 0 0 1 1172.0154 672.9838)"><tspan x="0" y="0" fill="#2D2D2D" font-family="'Arial'" font-weight="bold" font-size="14px">MAIN</tspan><tspan x="-8.17" y="16.8" fill="#2D2D2D" font-family="'Arial'" font-weight="bold" font-size="14px">OFFICE</tspan></text>
	<text transform="matrix(1 0 0 1 990.8146 646.7045)" fill="#2D2D2D" font-family="'Arial'" font-weight="bold" font-size="12px">07</text>
	<text transform="matrix(1 0 0 1 925.0649 646.7045)" fill="#2D2D2D" font-family="'Arial'" font-weight="bold" font-size="12px">08</text>
	<text transform="matrix(1 0 0 1 865.8721 646.7045)" fill="#2D2D2D" font-family="'Arial'" font-weight="bold" font-size="12px">09</text>
	<text transform="matrix(1 0 0 1 795.1339 646.7045)" fill="#2D2D2D" font-family="'Arial'" font-weight="bold" font-size="12px">10</text>
	<text transform="matrix(1 0 0 1 676.6714 646.7045)" fill="#2D2D2D" font-family="'Arial'" font-weight="bold" font-size="12px">11</text>
	<text transform="matrix(1 0 0 1 863.8774 570.1208)"><tspan x="0" y="0" fill="#2D2D2D" font-family="'Arial'" font-weight="bold" font-size="12px">PRODUCTION</tspan><tspan x="10.89" y="16.8" fill="#2D2D2D" font-family="'Arial'" font-weight="bold" font-size="12px">CONTROL </tspan></text>
	<text transform="matrix(1 0 0 1 900.8222 470.3488)"><tspan x="0" y="0" fill="#2D2D2D" font-family="'Arial'" font-weight="bold" font-size="12px">I.T.</tspan><tspan x="-26.06" y="16.8" fill="#2D2D2D" font-family="'Arial'" font-weight="bold" font-size="12px">CONTROL </tspan></text>
</g>
<g id="Layer_11">
	<rect x="110.5" y="84.9" fill="#FFFFFF" stroke="#000000" stroke-width="2" stroke-miterlimit="10" width="232" height="463.34"/>
	<g>
		<g>
			<circle fill="#008246" cx="157.6" cy="118.4" r="19.9"/>
			<polygon fill="#FFFFFF" points="167.7,114.6 167.7,132.3 165.2,134.8 145.5,134.8 147.9,132.7 147.9,114.7 143.6,114.7 
				157.6,102 171.5,114.6 			"/>
			<g id="exit_14_">
				<g>
					<g>
						<path fill="#008246" d="M161.6,131.8l-4.8-8.8c-0.1,1-0.4,2.8-0.5,3.6c-0.1,1.1-1.2,1.4-1.7,1.5l0,0H145l2.4-2.9h5.8l0.4-5.3
							l2.3-4.2h-2h-0.1c-0.1,0.1-0.3,0.4-0.4,0.6l-1.6,2.5c-0.2,0.4-0.6,0.6-1.1,0.6c-0.2,0-0.5-0.1-0.7-0.2
							c-0.6-0.4-0.8-1.1-0.4-1.7l1.6-2.5l0,0c0.5-0.7,0.9-1.1,1.2-1.3c0.5-0.3,1-0.3,1.3-0.3c0.1,0,0.1,0,0.2,0h3.8
							c0.4,0,0.8-0.1,1.1-0.1c2,0,2.9,0.6,3.2,1c0.1,0.1,0.2,0.2,0.3,0.3l2.2,2.9h3.4c0.7,0,1.3,0.6,1.3,1.3s-0.6,1.3-1.3,1.3h-4
							c-0.4,0-0.8-0.2-1-0.5l-1.7-2.3l-1.6,3.5l5.6,11.4L161.6,131.8z"/>
						<path fill="#FFFFFF" d="M158.8,113.3c1.9,0,2.7,0.6,3,1c0.1,0.1,0.2,0.1,0.3,0.2l2.3,3h3.5c0.5,0,1,0.4,1,1s-0.4,1-1,1h-4
							c-0.3,0-0.6-0.1-0.8-0.4l-2-2.6l-1.9,4.1l5.5,11.1l-3-0.1l-5.1-9.3c0,0-0.5,3.3-0.6,4.4c-0.1,1.2-1.5,1.2-1.5,1.2h-9l2-2.4h6
							l0.4-5.6l2.4-4.6l0,0h-2.5h-0.1h-0.1c-0.1,0.1-0.4,0.4-0.5,0.7l-1.6,2.5c-0.2,0.3-0.5,0.5-0.8,0.5c-0.2,0-0.4-0.1-0.5-0.2
							c-0.5-0.3-0.6-0.9-0.3-1.4l1.6-2.5l0,0c0.4-0.7,0.8-1.1,1.1-1.2c0.4-0.3,0.9-0.3,1.2-0.3c0.1,0,0.1,0,0.2,0h3.9
							C158.1,113.3,158.5,113.3,158.8,113.3 M158.8,112.8v0.5V112.8c-0.4,0-0.7,0-1.1,0.1h-3.8c-0.1,0-0.1,0-0.2,0
							c-0.4,0-0.9,0.1-1.4,0.4c-0.4,0.2-0.8,0.7-1.3,1.4c0,0,0,0,0,0.1l-1.6,2.5c-0.4,0.7-0.2,1.7,0.5,2.1c0.2,0.2,0.5,0.2,0.8,0.2
							c0.5,0,1-0.3,1.3-0.7l1.6-2.5c0.1-0.2,0.2-0.3,0.3-0.4l0,0h1.6l-2,3.8l-0.1,0.1v0.1l-0.3,5h-5.5h-0.3l-0.2,0.2l-2,2.4
							l-0.8,0.9h1.2h9l0,0l0,0c0,0,0.4,0,0.9-0.2c0.6-0.3,1-0.8,1.1-1.5c0.1-0.6,0.3-1.8,0.4-2.8l4.3,7.9l0.1,0.3h0.3l3,0.1h0.9
							l-0.4-0.8l-5.4-10.9l1.4-3l1.4,1.9c0.3,0.4,0.7,0.6,1.2,0.6h4c0.8,0,1.5-0.7,1.5-1.5s-0.7-1.5-1.5-1.5h-3.2l-2.1-2.8
							c-0.1-0.1-0.2-0.2-0.3-0.3c-0.3-0.3-0.6-0.5-1.1-0.7C160.5,112.9,159.7,112.8,158.8,112.8L158.8,112.8z"/>
					</g>
					<g>
						<path fill="#008246" d="M160.6,113.2c-1.4,0-2.6-1.2-2.6-2.6s1.2-2.6,2.6-2.6s2.6,1.2,2.6,2.6S162,113.2,160.6,113.2z"/>
						<path fill="#FFFFFF" d="M160.6,108.2c1.3,0,2.4,1.1,2.4,2.3s-1.1,2.3-2.4,2.3s-2.4-1.1-2.4-2.3S159.3,108.2,160.6,108.2
							 M160.6,107.7c-1.6,0-2.9,1.3-2.9,2.9s1.3,2.9,2.9,2.9c1.6,0,2.9-1.3,2.9-2.9S162.1,107.7,160.6,107.7L160.6,107.7z"/>
					</g>
				</g>
			</g>
		</g>
		<text transform="matrix(1 0 0 1 192.4901 125.5197)" font-family="'ArialMT'" font-size="14px">EMERGHENCY EXIT</text>
	</g>
	<g>
		<g>
			<g>
				<path fill="#008246" d="M157.6,195.59c-11.7,0-21.2-9.5-21.2-21.2s9.5-21.2,21.2-21.2s21.2,9.5,21.2,21.2
					S169.3,195.59,157.6,195.59z"/>
				<path fill="#FFFFFF" d="M157.6,154.59c11,0,19.9,8.9,19.9,19.9s-8.9,19.9-19.9,19.9s-19.9-8.9-19.9-19.9
					S146.6,154.59,157.6,154.59 M157.6,152.09c-12.4,0-22.4,10.1-22.4,22.4s10.1,22.4,22.4,22.4s22.4-10.1,22.4-22.4
					S169.9,152.09,157.6,152.09L157.6,152.09z"/>
			</g>
			<g id="aid_1_">
				<polygon fill="#FFFFFF" points="170.8,170.79 161.3,170.79 161.3,161.29 154,161.29 154,170.79 144.4,170.79 144.4,178.19 
					154,178.19 154,187.69 161.3,187.69 161.3,178.19 170.8,178.19 				"/>
			</g>
		</g>
		<text transform="matrix(1 0 0 1 192.4903 181.4465)" font-family="'ArialMT'" font-size="14px">FIRST AID</text>
	</g>
	<g>
		<g>
			<g>
				<path fill="#FF0000" d="M157.6,363.95c-11.7,0-21.2-9.5-21.2-21.2c0-11.7,9.5-21.2,21.2-21.2s21.2,9.5,21.2,21.2
					C178.8,354.45,169.3,363.95,157.6,363.95z"/>
				<path fill="#FFFFFF" d="M157.6,322.85c11,0,19.9,8.9,19.9,19.9s-8.9,19.9-19.9,19.9s-19.9-8.9-19.9-19.9
					S146.6,322.85,157.6,322.85 M157.6,320.35c-12.4,0-22.4,10.1-22.4,22.4s10.1,22.4,22.4,22.4s22.4-10.1,22.4-22.4
					S169.9,320.35,157.6,320.35L157.6,320.35z"/>
			</g>
			<g id="fire_17_">
				<g>
					<path fill="#FFFFFF" d="M168.8,334.55v-4.5l-6.7,0.8v0.8h-3.5v-1.7h-0.9c0,0,0-0.4-0.3-0.8c-0.8-1.2-2.6-1.3-3.4-0.4
						c-1.6,1.6,0,3.3,0,3.3c-1.6,0.7-2.9,1.9-3.4,3c-0.6,1.5,0.9,1.7,1.3,1.1c1.9-2.9,3.9-2.8,3.9-2.8v0.7c-3.3,1.1-3.1,4.1-3.1,4.1
						s0,17.4,0,18.6c0,1,1,0.9,1,0.9c1.4,0,3.2,0,3.2,0s2.6,0,3.6,0s1.1-0.8,1.1-1.4c0-0.6,0-15.2,0-18.2s-3-4.1-3-4.1v-1h3.5v0.8
						L168.8,334.55z M155.5,331.15c-0.5,0-0.9-0.4-0.9-0.9s0.4-0.9,0.9-0.9s0.9,0.4,0.9,0.9S156.1,331.15,155.5,331.15z"/>
				</g>
			</g>
		</g>
		<text transform="matrix(1 0 0 1 192.4899 350.2565)" font-family="'ArialMT'" font-size="14px">EXTINGUISHER</text>
	</g>
	<g>
		<g>
			<g>
				<path fill="#FF0000" d="M157.6,420.03c-11.7,0-21.2-9.5-21.2-21.2s9.5-21.2,21.2-21.2s21.2,9.5,21.2,21.2
					S169.3,420.03,157.6,420.03z"/>
				<path fill="#FFFFFF" d="M157.6,378.93c11,0,19.9,8.9,19.9,19.9s-8.9,19.9-19.9,19.9s-19.9-8.9-19.9-19.9
					S146.6,378.93,157.6,378.93 M157.6,376.43c-12.4,0-22.4,10-22.4,22.4s10.1,22.4,22.4,22.4s22.4-10,22.4-22.4
					S169.9,376.43,157.6,376.43L157.6,376.43z"/>
			</g>
			<path fill="#FFFFFF" d="M167.4,396.73c-2.3,3.2-3.9,2.4-3.9,2.4c1.5-3.2-0.4-7.5-0.4-7.5c-2.7,3.2-3,2.2-3,2.2
				c1.2-4.1-2.7-9.5-2.7-9.5c1.9,4.7-2.5,9.4-2.5,9.4c-0.2-1.5-1.2-2.9-1.2-2.9c-3.3,5.5-2.7,7.6-2.7,7.6c-0.6-1.1-2.5-2-2.5-2
				c-6.1,15.1,6,15.6,6,15.6c-5.9-4.2-4.4-7-4.4-7c0.9,1,2.7,1,2.7,1c-0.7-1.6-0.2-3.5-0.2-3.5c1.2,2.2,3.4,2,3.4,2
				c-1.5-2.6,1.9-5.8,1.9-5.8c-0.5,1.5,0.6,5.4,0.6,5.4c0.1-0.4,0.4-0.5,1.1-0.9c0.6-0.4,1.1-1.4,1.1-1.4c0.8,3,1.2,3.4,1.2,3.4
				c1,0.2,1.9-1,1.9-1c2,5.4-4.6,7.7-4.6,7.7C171.4,411.83,167.4,396.73,167.4,396.73z"/>
		</g>
		<text transform="matrix(1 0 0 1 192.4902 404.7534)" font-family="'ArialMT'" font-size="14px">FIRE BLANKET</text>
	</g>
	<g>
		<g>
			<circle fill="#003E87" cx="157.6" cy="511.01" r="19.9"/>
			<path fill="#FEFEFE" d="M162.4,513.61c0,0.5-0.4,0.9-0.9,0.9s-0.9-0.4-0.9-0.9v-6l0,0c0-1.3,1.1-2.4,2.4-2.4l0,0h4.3l0,0
				c1.3,0,2.4,1.1,2.4,2.4l0,0v6c0,0.5-0.4,0.9-0.9,0.9s-0.9-0.4-0.9-0.9v-5.5h-0.5v14.9c0,0.6-0.5,1.1-1.1,1.1s-1.1-0.5-1.1-1.1
				v-8.6H165v8.6c0,0.6-0.5,1.1-1.1,1.1s-1.1-0.5-1.1-1.1v-14.9h-0.5L162.4,513.61L162.4,513.61z"/>
			<circle fill="#FEFEFE" cx="165.2" cy="502.81" r="2"/>
			<path fill="#FEFEFE" d="M145.6,512.81c-0.1,0.4-0.6,0.7-1,0.5c-0.4-0.1-0.7-0.6-0.6-1l1.6-5.6c0.3-1,1.3-1.8,2.3-1.8l0,0l0,0h2.7
				l0,0c0,0,0,0,0.1,0c1.1,0,2,0.7,2.3,1.8l1.6,5.6c0.1,0.4-0.1,0.9-0.6,1c-0.4,0.1-0.9-0.1-1-0.5l-1.5-5.2H151l2.6,8.9h-2.4v6.6
				c0,0.5-0.4,0.9-0.9,0.9s-0.9-0.4-0.9-0.9v-6.6H149v6.6c0,0.5-0.4,0.9-0.9,0.9s-0.9-0.4-0.9-0.9v-6.6H145l2.6-8.9h-0.5
				L145.6,512.81L145.6,512.81z"/>
			<circle fill="#FEFEFE" cx="149.4" cy="502.71" r="2"/>
			
				<line fill="none" stroke="#FEFEFE" stroke-width="0.8048" stroke-miterlimit="10" x1="157.6" y1="494.51" x2="157.6" y2="527.11"/>
		</g>
		<text transform="matrix(1 0 0 1 192.4899 517.6066)" font-family="'ArialMT'" font-size="14px">TOILETS</text>
	</g>
	<g>
		<text transform="matrix(1 0 0 1 192.4903 237.5331)" font-family="'ArialMT'" font-size="14px">EYE WASH</text>
		<g>
			<circle fill="#008246" cx="157.4" cy="230.57" r="21.2"/>
			<g>
				<path fill="#FFFFFF" d="M157.12,229.94c2.33,0,4.57,0.41,6.66,1.23c1.68,0.66,3.27,1.58,4.73,2.73
					c1.52,1.21,2.59,2.43,3.19,3.22c-0.6,0.78-1.67,2.01-3.19,3.22c-1.46,1.16-3.05,2.07-4.73,2.73c-2.09,0.82-4.33,1.23-6.66,1.23
					c-2.33,0-4.56-0.41-6.64-1.23c-1.67-0.66-3.24-1.58-4.68-2.73c-1.51-1.21-2.56-2.44-3.16-3.22c0.59-0.78,1.65-2.01,3.16-3.22
					c1.44-1.16,3.02-2.07,4.68-2.73C152.56,230.35,154.79,229.94,157.12,229.94 M157.12,228.32c-11.23,0-16.45,8.8-16.45,8.8
					s5.22,8.8,16.45,8.8s16.56-8.8,16.56-8.8S168.35,228.32,157.12,228.32L157.12,228.32z"/>
			</g>
			<g>
				<path fill="#FFFFFF" d="M157.24,230.61c1.74,0,3.37,0.68,4.6,1.91c1.23,1.23,1.91,2.86,1.91,4.6s-0.68,3.37-1.91,4.6
					c-1.23,1.23-2.86,1.91-4.6,1.91s-3.37-0.68-4.6-1.91c-1.23-1.23-1.91-2.86-1.91-4.6s0.68-3.37,1.91-4.6
					C153.86,231.29,155.5,230.61,157.24,230.61 M157.24,228.99c-4.49,0-8.13,3.64-8.13,8.13s3.64,8.13,8.13,8.13
					c4.49,0,8.13-3.64,8.13-8.13C165.37,232.63,161.73,228.99,157.24,228.99L157.24,228.99z"/>
			</g>
			<g>
				<path fill="#FFFFFF" d="M162.15,212.22c0,0,0.64,1.96,1.53,3.32c0.71,1.08,0.65,3.39-1.53,3.39c-2.17,0-2.24-2.3-1.53-3.39
					C161.51,214.18,162.15,212.22,162.15,212.22z"/>
			</g>
			<g>
				<path fill="#FFFFFF" d="M157.18,216.86c0,0,0.64,1.96,1.53,3.32c0.71,1.08,0.65,3.39-1.53,3.39c-2.17,0-2.24-2.3-1.53-3.39
					C156.53,218.82,157.18,216.86,157.18,216.86z"/>
			</g>
			<g>
				<path fill="#FFFFFF" d="M162.27,220.41c0,0,0.64,1.96,1.53,3.32c0.71,1.08,0.65,3.39-1.53,3.39c-2.17,0-2.24-2.3-1.53-3.39
					C161.63,222.37,162.27,220.41,162.27,220.41z"/>
			</g>
		</g>
	</g>
	<g>
		<text transform="matrix(1 0 0 1 192.4903 293.6201)" font-family="'ArialMT'" font-size="14px">DEFIBRILLATOR</text>
		<g>
			<circle fill="#008246" cx="157.4" cy="286.66" r="21.2"/>
			<path fill="#FFFFFF" d="M157.32,302.78c2.94-3.15,15-13.33,15-20.6c0-4.64-3.51-8.4-7.83-8.4c-2.36,0-5.73,2.24-7.17,4.01
				c-1.44-1.77-4.81-4.01-7.17-4.01c-4.32,0-7.83,3.76-7.83,8.4C142.32,289.45,154.38,299.62,157.32,302.78z"/>
			<polygon fill="#008246" points="164.3,275.33 152.52,287.33 157.65,286.63 			"/>
			<polygon fill="#008246" points="150.9,296.04 162.68,284.04 157.55,284.74 			"/>
		</g>
	</g>
	<g>
		<g>
			<path fill="#FF0000" d="M158.05,476.02c-11.7,0-21.2-9.5-21.2-21.2c0-11.7,9.5-21.2,21.2-21.2s21.2,9.5,21.2,21.2
				C179.25,466.52,169.75,476.02,158.05,476.02z"/>
			<path fill="#FFFFFF" d="M158.05,435.02c11,0,19.9,8.9,19.9,19.9s-8.9,19.9-19.9,19.9s-19.9-8.9-19.9-19.9
				S147.05,435.02,158.05,435.02 M158.05,432.52c-12.4,0-22.4,10.1-22.4,22.4s10.1,22.4,22.4,22.4s22.4-10.1,22.4-22.4
				C180.45,442.62,170.35,432.52,158.05,432.52L158.05,432.52z"/>
		</g>
		<g id="aid_7_">
			<polygon fill="#FFFFFF" points="171.25,451.22 161.75,451.22 161.75,441.72 154.45,441.72 154.45,451.22 144.85,451.22 
				144.85,458.62 154.45,458.62 154.45,468.12 161.75,468.12 161.75,458.62 171.25,458.62 			"/>
		</g>
	</g>
	<text transform="matrix(1 0 0 1 192.944 461.8798)" font-family="'ArialMT'" font-size="14px">BURN KIT</text>
	<g>
		<circle fill="#008246" cx="958.98" cy="257.95" r="8"/>
		<polygon fill="#FFFFFF" points="962.98,256.35 962.98,263.55 962.07,264.47 954.07,264.47 955.1,263.67 955.1,256.47 
			953.38,256.47 958.98,251.33 964.58,256.35 		"/>
		<g id="exit_24_">
			<g>
				<g>
					<path fill="#008246" d="M960.58,263.33l-1.94-3.54c0,0.46-0.11,1.14-0.23,1.49c0,0.46-0.46,0.57-0.69,0.57l0,0h-3.89l1.03-1.14
						h2.29l0.11-2.17l0.91-1.71h-0.8l0,0c0,0-0.11,0.11-0.23,0.23l-0.69,1.03c-0.11,0.11-0.23,0.23-0.46,0.23
						c-0.11,0-0.23,0-0.23-0.11c-0.23-0.11-0.34-0.46-0.11-0.69l0.69-1.03l0,0c0.23-0.23,0.34-0.46,0.46-0.57
						c0.23-0.11,0.34-0.11,0.57-0.11c0,0,0,0,0.11,0h1.49c0.11,0,0.34,0,0.46,0c0.8,0,1.14,0.23,1.26,0.46l0.11,0.11l0.91,1.14h1.37
						c0.23,0,0.46,0.23,0.46,0.46s-0.23,0.46-0.46,0.46h-1.6c-0.11,0-0.34-0.11-0.34-0.23l-0.69-0.91l-0.69,1.37l2.29,4.57
						L960.58,263.33z"/>
					<path fill="#FFFFFF" d="M959.44,255.9c0.8,0,1.14,0.23,1.26,0.34c0,0,0.11,0,0.11,0.11l0.91,1.26h1.37
						c0.23,0,0.34,0.23,0.34,0.46s-0.23,0.46-0.34,0.46h-1.6c-0.11,0-0.23,0-0.34-0.11l-0.8-1.03l-0.8,1.6l2.17,4.46h-1.26
						l-2.06-3.77c0,0-0.23,1.26-0.23,1.71c0,0.46-0.57,0.46-0.57,0.46h-3.66l0.8-0.91h2.4l0.11-2.29l1.03-1.83l0,0h-1.03l0,0l0,0
						c0,0-0.11,0.11-0.23,0.23l-0.69,1.03c-0.11,0.11-0.23,0.23-0.34,0.23s-0.11,0-0.23,0c-0.23-0.11-0.23-0.34-0.11-0.57l0.69-1.03
						l0,0c0.23-0.23,0.34-0.46,0.46-0.46c0.23-0.11,0.34-0.11,0.46-0.11c0,0,0,0,0.11,0h1.6C959.21,255.9,959.33,255.9,959.44,255.9
						 M959.44,255.67v0.23V255.67c-0.11,0-0.34,0-0.46,0h-1.49c0,0,0,0-0.11,0s-0.34,0-0.57,0.11c-0.11,0.11-0.34,0.23-0.57,0.57
						l0,0l-0.69,1.03c-0.23,0.23-0.11,0.69,0.23,0.8c0.11,0,0.23,0.11,0.34,0.11c0.23,0,0.34-0.11,0.57-0.34l0.57-1.03l0.11-0.11
						l0,0h0.69l-0.8,1.49l0,0l0,0l-0.11,2.06h-2.17h-0.11v0.11l-0.8,0.91l-0.34,0.34h0.46h3.66l0,0l0,0c0,0,0.23,0,0.34-0.11
						c0.23-0.11,0.46-0.34,0.46-0.57c0-0.23,0.11-0.69,0.11-1.14l1.71,3.2v0.11h0.11h1.26h0.34l-0.11-0.34l-2.17-4.34l0.57-1.26
						l0.57,0.8c0.11,0.11,0.34,0.23,0.46,0.23h1.6c0.34,0,0.57-0.23,0.57-0.57c0-0.34-0.23-0.57-0.57-0.57h-1.26l-0.91-1.14
						l-0.11-0.11c-0.11-0.11-0.23-0.23-0.46-0.23C960.13,255.67,959.78,255.67,959.44,255.67L959.44,255.67z"/>
				</g>
				<g>
					<path fill="#008246" d="M960.13,255.78c-0.57,0-1.03-0.46-1.03-1.03s0.46-1.03,1.03-1.03c0.57,0,1.03,0.46,1.03,1.03
						S960.7,255.78,960.13,255.78z"/>
					<path fill="#FFFFFF" d="M960.13,253.84c0.57,0,0.91,0.46,0.91,0.91s-0.46,0.91-0.91,0.91c-0.57,0-0.91-0.46-0.91-0.91
						S959.67,253.84,960.13,253.84 M960.13,253.61c-0.69,0-1.14,0.57-1.14,1.14c0,0.69,0.57,1.14,1.14,1.14
						c0.57,0,1.14-0.57,1.14-1.14S960.81,253.61,960.13,253.61L960.13,253.61z"/>
				</g>
			</g>
		</g>
	</g>
	<g>
		<circle fill="#003E87" cx="894.64" cy="226.37" r="8"/>
		<path fill="#FEFEFE" d="M893.27,226.94c0,0.23-0.23,0.46-0.46,0.46s-0.46-0.23-0.46-0.46v-2.86l0,0c0-0.69,0.57-1.14,1.14-1.14
			l0,0h2.06l0,0c0.69,0,1.14,0.57,1.14,1.14l0,0v2.86c0,0.23-0.23,0.46-0.46,0.46s-0.46-0.23-0.46-0.46v-2.63l0,0v7.2
			c0,0.34-0.23,0.57-0.57,0.57s-0.57-0.23-0.57-0.57v-4.23h-0.23v4.23c0,0.34-0.23,0.57-0.57,0.57c-0.34,0-0.57-0.23-0.57-0.57v-7.2
			h-0.23L893.27,226.94L893.27,226.94L893.27,226.94z"/>
		<circle fill="#FEFEFE" cx="894.64" cy="221.69" r="0.91"/>
	</g>
	<g>
		<circle fill="#003E87" cx="908.68" cy="394.87" r="8"/>
		<path fill="#FEFEFE" d="M906.85,395.21c0,0.23-0.34,0.34-0.46,0.23c-0.23,0-0.34-0.34-0.23-0.46l0.91-2.74
			c0.11-0.46,0.57-0.8,1.14-0.8l0,0l0,0h1.37l0,0l0,0c0.57,0,1.14,0.34,1.26,0.8l0.8,2.74c0,0.23,0,0.46-0.23,0.46
			c-0.23,0-0.46,0-0.46-0.23l-0.69-2.51h-0.34l1.26,4.34h-0.91v3.2c0,0.23-0.23,0.46-0.46,0.46c-0.23,0-0.46-0.23-0.46-0.46v-3.2
			h-0.57v3.2c0,0.23-0.23,0.46-0.46,0.46s-0.46-0.23-0.46-0.46v-3.2h-0.91l1.26-4.34h-0.34L906.85,395.21L906.85,395.21z"/>
		<circle fill="#FEFEFE" cx="908.8" cy="390.3" r="0.91"/>
	</g>
	<g>
		<circle fill="#008246" cx="754.05" cy="600.34" r="8"/>
		<polygon fill="#FFFFFF" points="758.05,598.74 758.05,605.94 757.13,606.86 749.13,606.86 750.16,606.06 750.16,598.86 
			748.45,598.86 754.05,593.72 759.65,598.74 		"/>
		<g id="exit_1_">
			<g>
				<g>
					<path fill="#008246" d="M755.65,605.72l-1.94-3.54c0,0.46-0.11,1.14-0.23,1.49c0,0.46-0.46,0.57-0.69,0.57l0,0h-3.89l1.03-1.14
						h2.29l0.11-2.17l0.91-1.71h-0.8l0,0c0,0-0.11,0.11-0.23,0.23l-0.69,1.03c-0.11,0.11-0.23,0.23-0.46,0.23
						c-0.11,0-0.23,0-0.23-0.11c-0.23-0.11-0.34-0.46-0.11-0.69l0.69-1.03l0,0c0.23-0.23,0.34-0.46,0.46-0.57
						c0.23-0.11,0.34-0.11,0.57-0.11c0,0,0,0,0.11,0h1.49c0.11,0,0.34,0,0.46,0c0.8,0,1.14,0.23,1.26,0.46l0.11,0.11l0.91,1.14h1.37
						c0.23,0,0.46,0.23,0.46,0.46c0,0.23-0.23,0.46-0.46,0.46h-1.6c-0.11,0-0.34-0.11-0.34-0.23l-0.69-0.91l-0.69,1.37l2.29,4.57
						L755.65,605.72z"/>
					<path fill="#FFFFFF" d="M754.5,598.29c0.8,0,1.14,0.23,1.26,0.34c0,0,0.11,0,0.11,0.11l0.91,1.26h1.37
						c0.23,0,0.34,0.23,0.34,0.46c0,0.23-0.23,0.46-0.34,0.46h-1.6c-0.11,0-0.23,0-0.34-0.11l-0.8-1.03l-0.8,1.6l2.17,4.46h-1.26
						l-2.06-3.77c0,0-0.23,1.26-0.23,1.71c0,0.46-0.57,0.46-0.57,0.46h-3.66l0.8-0.91h2.4l0.11-2.29l1.03-1.83l0,0h-1.03l0,0l0,0
						c0,0-0.11,0.11-0.23,0.23l-0.69,1.03c-0.11,0.11-0.23,0.23-0.34,0.23s-0.11,0-0.23,0c-0.23-0.11-0.23-0.34-0.11-0.57l0.69-1.03
						l0,0c0.23-0.23,0.34-0.46,0.46-0.46c0.23-0.11,0.34-0.11,0.46-0.11c0,0,0,0,0.11,0h1.6
						C754.28,598.29,754.39,598.29,754.5,598.29 M754.5,598.06v0.23V598.06c-0.11,0-0.34,0-0.46,0h-1.49c0,0,0,0-0.11,0
						s-0.34,0-0.57,0.11c-0.11,0.11-0.34,0.23-0.57,0.57l0,0l-0.69,1.03c-0.23,0.23-0.11,0.69,0.23,0.8c0.11,0,0.23,0.11,0.34,0.11
						c0.23,0,0.34-0.11,0.57-0.34l0.57-1.03l0.11-0.11l0,0h0.69l-0.8,1.49l0,0l0,0l-0.11,2.06h-2.17h-0.11v0.11l-0.8,0.91
						l-0.34,0.34h0.46h3.66l0,0l0,0c0,0,0.23,0,0.34-0.11c0.23-0.11,0.46-0.34,0.46-0.57s0.11-0.69,0.11-1.14l1.71,3.2v0.11h0.11
						h1.26h0.34l-0.11-0.34l-2.17-4.34l0.57-1.26l0.57,0.8c0.11,0.11,0.34,0.23,0.46,0.23h1.6c0.34,0,0.57-0.23,0.57-0.57
						s-0.23-0.57-0.57-0.57h-1.26l-0.91-1.14l-0.11-0.11c-0.11-0.11-0.23-0.23-0.46-0.23S754.85,598.06,754.5,598.06L754.5,598.06z"
						/>
				</g>
				<g>
					<path fill="#008246" d="M755.19,598.17c-0.57,0-1.03-0.46-1.03-1.03c0-0.57,0.46-1.03,1.03-1.03s1.03,0.46,1.03,1.03
						C756.22,597.72,755.76,598.17,755.19,598.17z"/>
					<path fill="#FFFFFF" d="M755.19,596.23c0.57,0,0.91,0.46,0.91,0.91c0,0.46-0.46,0.91-0.91,0.91c-0.57,0-0.91-0.46-0.91-0.91
						C754.28,596.69,754.73,596.23,755.19,596.23 M755.19,596c-0.69,0-1.14,0.57-1.14,1.14c0,0.69,0.57,1.14,1.14,1.14
						s1.14-0.57,1.14-1.14C756.33,596.57,755.88,596,755.19,596L755.19,596z"/>
				</g>
			</g>
		</g>
	</g>
	<g>
		<g>
			<path fill="#FF0000" d="M1003.52,585.78c-4.42,0-8-3.58-8-8s3.58-8,8-8s8,3.58,8,8S1007.93,585.78,1003.52,585.78z"/>
		</g>
		<path fill="#FFFFFF" d="M1007.21,576.98c-0.87,1.21-1.47,0.91-1.47,0.91c0.57-1.21-0.15-2.83-0.15-2.83
			c-1.02,1.21-1.13,0.83-1.13,0.83c0.45-1.55-1.02-3.58-1.02-3.58c0.72,1.77-0.94,3.55-0.94,3.55c-0.08-0.57-0.45-1.09-0.45-1.09
			c-1.25,2.08-1.02,2.87-1.02,2.87c-0.23-0.42-0.94-0.75-0.94-0.75c-2.3,5.7,2.26,5.89,2.26,5.89c-2.23-1.58-1.66-2.64-1.66-2.64
			c0.34,0.38,1.02,0.38,1.02,0.38c-0.26-0.6-0.08-1.32-0.08-1.32c0.45,0.83,1.28,0.75,1.28,0.75c-0.57-0.98,0.72-2.19,0.72-2.19
			c-0.19,0.57,0.23,2.04,0.23,2.04c0.04-0.15,0.15-0.19,0.42-0.34c0.23-0.15,0.42-0.53,0.42-0.53c0.3,1.13,0.45,1.28,0.45,1.28
			c0.38,0.08,0.72-0.38,0.72-0.38c0.75,2.04-1.74,2.91-1.74,2.91C1008.72,582.68,1007.21,576.98,1007.21,576.98z"/>
	</g>
</g>
</svg>
