<?xml version="1.0" encoding="UTF-8"?>
<svg xmlns="http://www.w3.org/2000/svg" version="1.1" viewBox="0 0 1920 1080">
  <!-- Generator: Adobe Illustrator 28.6.0, SVG Export Plug-In . SVG Version: 1.2.0 Build 709)  -->
  <g>
    <g id="Layer_1">
      <g id="base">
        <polygon points="1577 779 1640 672 1789 728 1731 763 1613 786 1574 787 1577 779" fill="#babfbc"/>
        <polygon points="-1 1080 1919.22 1080 1919.22 1.62 2 1.62 -1 1080" fill="#babfbc"/>
        <path d="M-.73,930.68l48.23,14.82,143,34,48,22,138-116-39-50,141-110,36.5-34.5,24-36s48.31,31.82,65,42c19.18,11.7,69,41,69,41l-10,23s-108.06-46.48-144-37c-9.4,2.48-28,27-28,27l-76,102-39,91h-20l-34,50,262,86H-1" fill="#88a588"/>
        <polygon points="608 1051 622 1009 669 1015 692 941 751 780 836 811 859 836 1010 882 1002 895 855 853 822 870 762 1052 608 1051" fill="#88a588"/>
        <path d="M569.62,1.62c-71.94,74.62-195.71,180.43-270.62,236.38-10.54,7.87-13.44,36.24-11,50,3.19,17.98,15,48,15,48,0,0,61,76.09,83,100,37.23,40.46,157,154,157,154l12-4-199-266L731,47l-25-45.38" fill="#88a588"/>
        <polygon points="1005 280 1053 173 1164 85 1171 94 1061 178 1014 284 1005 280" fill="#88a588"/>
        <path d="M626,512l7,11,202-152,27,53,27-6-14-65s-4-13-19-14-230,173-230,173Z" fill="#88a588"/>
        <polygon points="1307 144 1299 161 1376 192 1398 175 1307 144" fill="#88a588"/>
        <path d="M1232,799l53,15s47.95-6.86,64-6c13.76.74,54,11,54,11,0,0,27.05-17.61,37-16,9.26,1.5,28,25,28,25l20,46-66,5h-111l-179-12-183-51s-84-28-97-50-14-61-7-78,62-146,62-146l10,3-55,144s0,40,25,49,333,109,333,109l12-48Z" fill="#88a588"/>
        <path d="M1041,403c-14-3-16-5-16-5-6,19-35,32-51,40-7.12,3.56-17.32,16.56-22,23-4.34,5.97-13.17,18.66-14,26-.64,5.6-.13,17.67,5,20l69,22,4-14-27-12,19-44,13-3,20-53Z" fill="#88a588"/>
        <path d="M1369,657l-81-24s-8,7-4,11,25,54,29,58,26,21,26,21l30-66Z" fill="#88a588"/>
        <path d="M1414,494s-11.38,29.61-11,30-60.77-20.16-71-24c-7.95-2.98-8-33-8-33l-85-31,11-30,189,68-15,23-10-3Z" fill="#88a588"/>
        <path d="M1140,566l20,7,5.01-13.52,70.99,26.52s-9,9-21,8l-75-23v-5Z" fill="#88a588"/>
        <path d="M894,574l36,15,10-26s4-13-11-17-22-5-22-5l-13,33Z" fill="#88a588"/>
        <path d="M1548,840s53,4,81-4,66-36,69-41-125,9-125,9l-25,36Z" fill="#88a588"/>
        <path d="M1079,892l14,34,251,31,2-36s-99-6.42-132-10c-33.75-3.67-135-19-135-19Z" fill="#88a588"/>
        <rect x="1343.84" y="520.48" width="52.56" height="47.23" transform="translate(399.77 1653.91) rotate(-70.49)" fill="#b1b2b1"/>
        <path d="M1210,436l-26.5,69.5,74,24-16,51,38.5,18.5,6,25,68,20,23-61-47-18,18-52s-20.96-5.86-26-11c-5.35-5.46-6-30-6-30l-106-36Z" fill="#fff" isolation="isolate" opacity=".38"/>
        <path d="M1210,436l-26.5,69.5,74,24-16,51,38.5,18.5,6,25,68,20,23-61-47-18,18-52s-20.96-5.86-26-11c-5.35-5.46-6-30-6-30l-106-36Z" fill="none" stroke="#fc0000" stroke-dasharray="8 12" stroke-miterlimit="10" stroke-width="2"/>
        <path d="M1414,494s-11.38,29.61-11,30-60.77-20.16-71-24c-7.95-2.98-8-33-8-33l-85-31,11-30,189,68-15,23-10-3Z" fill="#88a588"/>
        <rect x="1307.78" y="574.65" width="245.01" height="119.01" transform="translate(344.76 1760.87) rotate(-69.98)" fill="#fff" stroke="#db2121" stroke-miterlimit="10" stroke-width="4"/>
        <polygon points="1599.46 349.36 1534.06 528.81 1062.4 356.93 1113.76 215.99 1496.4 355.44 1510.44 316.92 1599.46 349.36" fill="#e3e3e3" stroke="#2d2d2d" stroke-miterlimit="10" stroke-width="4"/>
        <polygon points="1057.61 370.08 1206.06 424.18 1154.01 566.99 1037.51 524.53 1058.52 466.89 1026.57 455.25 1057.61 370.08" fill="#e3e3e3" stroke="#2d2d2d" stroke-miterlimit="10" stroke-width="4"/>
        <polygon points="982.61 580.55 920.98 749.67 1228.21 861.63 1272.04 741.37 1075.28 669.66 1093.09 620.81 982.61 580.55" fill="#e3e3e3" stroke="#2d2d2d" stroke-miterlimit="10" stroke-width="4"/>
        <polygon points="1505 821 1448.93 800.02 1565.36 480.53 1656.65 513.8 1602 663 1584 656 1550 749 1533 743 1505 821" fill="#e3e3e3" stroke="#2d2d2d" stroke-miterlimit="10" stroke-width="4"/>
        <rect x="391.34" y="170.7" width="449.13" height="210.29" transform="translate(-43.6 418.97) rotate(-36.37)" fill="#e3e3e3" stroke="#2d2d2d" stroke-miterlimit="10" stroke-width="4"/>
        <polyline points="1.5 834.53 62.06 789.94 85.64 821.97 319.99 649.4 318.04 646.75 326.79 640.3 346.53 667.1 407.09 622.51 396.01 607.47 405.97 600.13 394.09 584 384.13 591.34 325.04 511.09 264.48 555.68 296.41 599.05 287.66 605.49 285.7 602.84 200.67 487.37 .39 634.86" fill="#e3e3e3" stroke="#2d2d2d" stroke-miterlimit="10" stroke-width="4"/>
        <polygon points="866.01 393.13 836.72 355.33 745.82 425.77 775.1 463.57 797.84 445.95 805.62 456 850.13 421.52 842.34 411.47 866.01 393.13" fill="#e3e3e3" stroke="#2d2d2d" stroke-miterlimit="10" stroke-width="4"/>
        <rect x="688.24" y="531.92" width="63.68" height="142.53" transform="translate(-216.56 532.15) rotate(-35.61)" fill="#e3e3e3" stroke="#2d2d2d" stroke-miterlimit="10" stroke-width="4"/>
        <polygon points="634.1 890.1 553.36 859.69 538.25 899.8 409.95 851.48 374.09 946.71 581.61 1024.86 634.1 890.1" fill="#e3e3e3" stroke="#2d2d2d" stroke-miterlimit="10" stroke-width="4"/>
        <polyline points="811.95 1.62 745.7 49.34 824.82 156.79 848.94 139.03 868.53 165.63 924.99 124.05 905.4 97.45 930.63 78.87 872.32 1.62" fill="#e3e3e3" stroke="#2d2d2d" stroke-miterlimit="10" stroke-width="4"/>
        <polyline points="891.93 1.62 950.11 79.97 1001.54 42.09 1023.45 71.85 1058.46 46.06 1036.55 16.31 1058.08 1.62" fill="#e3e3e3" stroke="#2d2d2d" stroke-miterlimit="10" stroke-width="4"/>
        <polyline points="1535.27 1.62 1705.44 62.44 1630.39 268.4 1372.28 174.33 1435.19 1.62" fill="#e3e3e3" stroke="#2d2d2d" stroke-miterlimit="10" stroke-width="4"/>
        <polygon points="1764.81 187.02 1688.69 159.27 1603.18 393.9 1679.31 421.64 1682.26 413.54 1697.48 419.09 1726.36 339.84 1711.14 334.29 1764.81 187.02" fill="#e3e3e3" stroke="#2d2d2d" stroke-miterlimit="10" stroke-width="4"/>
        <polyline points="1919.22 326.38 1911.89 352.09 1775.81 302.49 1808.69 212.27 1919.22 252.82" fill="#e3e3e3" stroke="#2d2d2d" stroke-miterlimit="10" stroke-width="4"/>
        <polyline points="1919.22 230.74 1796.16 186.06 1863.49 1.62 1919.22 1.62" fill="#e3e3e3" stroke="#2d2d2d" stroke-miterlimit="10" stroke-width="4"/>
        <polygon points="1824.94 691.85 1686.56 641.42 1779.69 385.89 1919.22 436.32 1824.94 691.85" fill="#e3e3e3" stroke="#2d2d2d" stroke-miterlimit="10" stroke-width="4"/>
        <polyline points="1442.03 1080 1498.69 923.89 1637.07 974.32 1598.79 1080" fill="#e3e3e3" stroke="#2d2d2d" stroke-miterlimit="10" stroke-width="4"/>
        <polyline points="1196.76 1080 1224.68 1005.4 1426.17 1080" fill="#e3e3e3" stroke="#2d2d2d" stroke-miterlimit="10" stroke-width="4"/>
        <polyline points="1163.25 1080 1174.7 1048.76 1104.48 1023.18 1094.06 1051.78 1012.43 1022.03 1019.06 1003.84 948.84 978.25 942.22 996.44 899.25 980.78 905.06 964.84 834.84 939.25 783.26 1080" fill="#e3e3e3" stroke="#2d2d2d" stroke-miterlimit="10" stroke-width="4"/>
        <polyline points="1919.22 960.48 1919.22 965.2 1854.89 909.24 1919.22 836.13" fill="#e3e3e3" stroke="#2d2d2d" stroke-miterlimit="10" stroke-width="4"/>
        <path d="M1760.5,814.5s-4,53,11,72c22.34,28.3-59.02-41.5-59.02-41.5" fill="none" stroke="#2d2d2d" stroke-linecap="round" stroke-linejoin="round" stroke-width="33"/>
        <line x1="896" y1="327" x2="874" y2="315" fill="none" stroke="#2d2d2d" stroke-linecap="round" stroke-linejoin="round" stroke-width="24"/>
        <line x1="949" y1="292" x2="938" y2="266" fill="none" stroke="#2d2d2d" stroke-linecap="round" stroke-linejoin="round" stroke-width="24"/>
        <line x1="991" y1="294" x2="1001" y2="272" fill="none" stroke="#2d2d2d" stroke-linecap="round" stroke-linejoin="round" stroke-width="24"/>
        <line x1="1005" y1="319" x2="1039" y2="305" fill="none" stroke="#2d2d2d" stroke-linecap="round" stroke-linejoin="round" stroke-width="24"/>
        <path d="M905,460s-3-56-9-71,90,31,90,31c0,0-68,26-71,37s-10,3-10,3Z" fill="#d9d9d9" stroke="#2d2d2d" stroke-miterlimit="10" stroke-width="3"/>
        <path d="M23.15,413.69C211.78,276.96,392.65,144.3,506.37,24.31" fill="none" stroke="#2d2d2d" stroke-linecap="round" stroke-linejoin="round" stroke-width="39"/>
        <path d="M267.45,231.84s-26.95,70.66,14.05,119.66c41,49,161.05,264.2,502,410,152,65,320.24,120.27,482,131,0,0,118.57,10.77,246-2,79.12-7.93,176.5-34.83,206-49,57.75-27.75,121.06-78.31,181.62-157.11" fill="none" stroke="#2d2d2d" stroke-linecap="round" stroke-linejoin="round" stroke-width="39"/>
        <path d="M186.68,292.23s57.82,2.27,117.82,90.27" fill="none" stroke="#2d2d2d" stroke-linecap="round" stroke-linejoin="round" stroke-width="39"/>
        <path d="M711,735s74,21,109-61,108-262,108-262" fill="none" stroke="#2d2d2d" stroke-linecap="round" stroke-linejoin="round" stroke-width="30"/>
        <path d="M849.26,790.42s-46.16-57.77-26.71-123.1" fill="none" stroke="#2d2d2d" stroke-linecap="round" stroke-linejoin="round" stroke-width="30"/>
        <path d="M1463.58,890.29s24.42,14.71,83.42-74.29,107-195,121-231,92-249,92-249l144,56" fill="none" stroke="#2d2d2d" stroke-linecap="round" stroke-linejoin="round" stroke-width="30"/>
        <line x1="1633.13" y1="667.32" x2="1851" y2="743" fill="none" stroke="#2d2d2d" stroke-linecap="round" stroke-linejoin="round" stroke-width="30"/>
        <path d="M1567,792s108.06-3.85,130-12c35-13,109-52,109-52" fill="none" stroke="#2d2d2d" stroke-linecap="round" stroke-linejoin="round" stroke-width="30"/>
        <path d="M1017,851s28,23,19,45" fill="none" stroke="#2d2d2d" stroke-linecap="round" stroke-linejoin="round" stroke-width="30"/>
        <path d="M1080.74,862.03s-41.74,20.97-47.74,43.97" fill="none" stroke="#2d2d2d" stroke-linecap="round" stroke-linejoin="round" stroke-width="30"/>
        <polyline points="890.29 510.55 1237 619 1324 775" fill="none" stroke="#2d2d2d" stroke-linecap="round" stroke-linejoin="round" stroke-width="30"/>
        <path d="M1231,611s27-8,32-20,6-15,6-15" fill="none" stroke="#2d2d2d" stroke-linecap="round" stroke-linejoin="round" stroke-width="30"/>
        <line x1="698" y1="734" x2="687" y2="758" fill="none" stroke="#2d2d2d" stroke-linecap="round" stroke-linejoin="round" stroke-width="30"/>
        <line x1="531" y1="630" x2="502" y2="673" fill="none" stroke="#2d2d2d" stroke-linecap="round" stroke-linejoin="round" stroke-width="30"/>
        <path d="M23.5,413.46C211.46,277.23,391.25,145.42,505.27,25.54" fill="none" stroke="#fff" stroke-linecap="round" stroke-linejoin="round" stroke-width="33"/>
        <path d="M188.68,292.23s55.82,2.27,115.82,90.27" fill="none" stroke="#fff" stroke-linecap="round" stroke-linejoin="round" stroke-width="33"/>
        <path d="M711,735s74,21,109-61,108-262,108-262" fill="none" stroke="#fff" stroke-linecap="round" stroke-linejoin="round" stroke-width="24"/>
        <path d="M849.26,790.42s-46.16-57.77-26.71-123.1" fill="none" stroke="#fff" stroke-linecap="round" stroke-linejoin="round" stroke-width="24"/>
        <line x1="1633.13" y1="667.32" x2="1851" y2="743" fill="none" stroke="#fff" stroke-linecap="round" stroke-linejoin="round" stroke-width="24"/>
        <path d="M1567,792s108.06-3.85,130-12c35-13,109-52,109-52" fill="none" stroke="#fff" stroke-linecap="round" stroke-linejoin="round" stroke-width="24"/>
        <path d="M1017,851s28,23,19,45" fill="none" stroke="#fff" stroke-linecap="round" stroke-linejoin="round" stroke-width="24"/>
        <path d="M1080.74,862.03s-41.74,20.97-47.74,43.97" fill="none" stroke="#fff" stroke-linecap="round" stroke-linejoin="round" stroke-width="24"/>
        <polyline points="890.29 510.55 1237 619 1324 775" fill="none" stroke="#fff" stroke-linecap="round" stroke-linejoin="round" stroke-width="24"/>
        <path d="M1231,611s27-8,32-20,6-15,6-15" fill="none" stroke="#fff" stroke-linecap="round" stroke-linejoin="round" stroke-width="24"/>
        <line x1="698" y1="734" x2="687" y2="758" fill="none" stroke="#fff" stroke-linecap="round" stroke-linejoin="round" stroke-width="24"/>
        <line x1="531" y1="630" x2="502" y2="673" fill="none" stroke="#fff" stroke-linecap="round" stroke-linejoin="round" stroke-width="24"/>
        <ellipse cx="237.5" cy="278.5" rx="20.5" ry="18.5" fill="#fff"/>
        <ellipse cx="801.5" cy="738.5" rx="25.5" ry="24.5" fill="#fff"/>
        <ellipse cx="955.5" cy="355" rx="78.5" ry="78" fill="#fff" stroke="#2d2d2d" stroke-miterlimit="10" stroke-width="3"/>
        <polygon points="903 418 906 447 922 449 933 442 968 425 936 410 904 405 901 399 903 418" fill="#fff"/>
        <line x1="896" y1="327" x2="874" y2="315" fill="none" stroke="#fff" stroke-linecap="round" stroke-linejoin="round" stroke-width="18"/>
        <line x1="949" y1="292" x2="938" y2="266" fill="none" stroke="#fff" stroke-linecap="round" stroke-linejoin="round" stroke-width="18"/>
        <line x1="991" y1="294" x2="1001" y2="272" fill="none" stroke="#fff" stroke-linecap="round" stroke-linejoin="round" stroke-width="18"/>
        <line x1="1005" y1="319" x2="1039" y2="305" fill="none" stroke="#fff" stroke-linecap="round" stroke-linejoin="round" stroke-width="18"/>
        <path d="M267.45,231.84s-26.95,70.66,14.05,119.66c41,49,161.05,264.2,502,410,152,65,320.24,120.27,482,131,0,0,118.57,10.77,246-2,79.12-7.93,176.5-34.83,206-49,57.75-27.75,121.06-78.31,181.62-157.11" fill="none" stroke="#fff" stroke-linecap="round" stroke-linejoin="round" stroke-width="33"/>
        <path d="M1463.58,890.29s24.42,14.71,83.42-74.29,107-195,121-231,92-249,92-249l144.4,56.35" fill="none" stroke="#fff" stroke-linecap="round" stroke-linejoin="round" stroke-width="24"/>
        <path d="M1760.5,814.5s-4,53,11,72c22.34,28.3-59.02-41.5-59.02-41.5" fill="none" stroke="#fff" stroke-linecap="round" stroke-linejoin="round" stroke-width="25"/>
        <polygon points="1751.19 824.87 1724.87 840.35 1731.06 863.58 1757 871 1763.58 845 1751.19 824.87" fill="#fff"/>
        <path d="M1210,436l-26.5,69.5,74,24-16,51,38.5,18.5,6,25,68,20,23-61-47-18,18-52s-20.96-5.86-26-11c-5.35-5.46-6-30-6-30l-106-36Z" fill="#fff" isolation="isolate" opacity=".7"/>
        <path d="M1210,436l-26.5,69.5,74,24-16,51,38.5,18.5,6,25,68,20,23-61-47-18,18-52s-20.96-5.86-26-11c-5.35-5.46-6-30-6-30l-106-36Z" fill="none" stroke="#1e820c" stroke-dasharray="8 12" stroke-miterlimit="10" stroke-width="3"/>
        <path id="SVGID_x5F_1_x5F_" d="M448.59,557.69c39.26,35.25,86.1,71.85,141.98,107.42" fill="none"/>
        <g isolation="isolate">
          <text transform="translate(456.18 564.44) rotate(41.26)" font-family="ArialMT, Arial" font-size="12" isolation="isolate"><tspan x="0" y="0"> </tspan></text>
          <text transform="translate(458.63 566.62) rotate(40.78)" font-family="OpenSans-Semibold, &apos;Open Sans&apos;" font-size="23" font-weight="600" isolation="isolate"><tspan x="0" y="0">P</tspan></text>
          <text transform="translate(469.44 575.93) rotate(40.11)" font-family="OpenSans-Semibold, &apos;Open Sans&apos;" font-size="23" font-weight="600" isolation="isolate"><tspan x="0" y="0">r</tspan></text>
          <text transform="translate(477.17 582.45) rotate(39.47)" font-family="OpenSans-Semibold, &apos;Open Sans&apos;" font-size="23" font-weight="600" isolation="isolate"><tspan x="0" y="0">e</tspan></text>
          <text transform="translate(487.38 590.9) rotate(38.51)" font-family="OpenSans-Semibold, &apos;Open Sans&apos;" font-size="23" font-weight="600" isolation="isolate"><tspan x="0" y="0">m</tspan></text>
          <text transform="translate(504.62 604.55) rotate(37.75)" font-family="OpenSans-Semibold, &apos;Open Sans&apos;" font-size="23" font-weight="600" isolation="isolate"><tspan x="0" y="0">i</tspan></text>
          <text transform="translate(509.68 608.49) rotate(37.23)" font-family="OpenSans-Semibold, &apos;Open Sans&apos;" font-size="23" font-weight="600" isolation="isolate"><tspan x="0" y="0">e</tspan></text>
          <text transform="translate(520.23 616.5) rotate(36.61)" font-family="OpenSans-Semibold, &apos;Open Sans&apos;" font-size="23" font-weight="600" isolation="isolate"><tspan x="0" y="0">r</tspan></text>
          <text transform="translate(528.2 622.41) rotate(36.19)" font-family="OpenSans-Semibold, &apos;Open Sans&apos;" font-size="23" font-weight="600" isolation="isolate"><tspan x="0" y="0"> </tspan></text>
          <text transform="translate(532.99 625.98) rotate(35.47)" font-family="OpenSans-Semibold, &apos;Open Sans&apos;" font-size="23" font-weight="600" isolation="isolate"><tspan x="0" y="0">W</tspan></text>
          <text transform="translate(550.73 638.58) rotate(34.56)" font-family="OpenSans-Semibold, &apos;Open Sans&apos;" font-size="23" font-weight="600" isolation="isolate"><tspan x="0" y="0">a</tspan></text>
          <text transform="translate(561.72 646.14) rotate(33.91)" font-family="OpenSans-Semibold, &apos;Open Sans&apos;" font-size="23" font-weight="600" isolation="isolate"><tspan x="0" y="0">y</tspan></text>
        </g>
        <text transform="translate(571.96 653.01) rotate(33.51)" font-family="ArialMT, Arial" font-size="12"><tspan x="0" y="0"> </tspan></text>
        <text font-family="ArialMT, Arial" font-size="12"><tspan x="0" y="0"> </tspan></text>
        <text transform="translate(102 366.68) rotate(-36.08)" font-family="OpenSans-Semibold, &apos;Open Sans&apos;" font-size="23" font-weight="600" isolation="isolate"><tspan x="0" y="0">A27</tspan></text>
        <text transform="translate(295.05 216.92) rotate(-39.59)" font-family="OpenSans-Semibold, &apos;Open Sans&apos;" font-size="23" font-weight="600" isolation="isolate"><tspan x="0" y="0">Luzborough Ln</tspan></text>
        <path id="SVGID_x5F_00000080193117935692132960000008303887633228056229_x5F_" d="M816.64,786.79c153.89,60.39,323.71,110.57,485.73,116.42" fill="none"/>
        <g isolation="isolate">
          <text transform="translate(1097.66 875.31) rotate(12.57)" font-family="ArialMT, Arial" font-size="12" isolation="isolate"><tspan x="0" y="0"> </tspan></text>
          <text transform="translate(1100.91 876.06) rotate(12.21)" font-family="OpenSans-Semibold, &apos;Open Sans&apos;" font-size="23" font-weight="600" isolation="isolate"><tspan x="0" y="0">P</tspan></text>
          <text transform="translate(1114.74 879.04) rotate(11.71)" font-family="OpenSans-Semibold, &apos;Open Sans&apos;" font-size="23" font-weight="600" isolation="isolate"><tspan x="0" y="0">r</tspan></text>
          <text transform="translate(1124.45 881.06) rotate(11.21)" font-family="OpenSans-Semibold, &apos;Open Sans&apos;" font-size="23" font-weight="600" isolation="isolate"><tspan x="0" y="0">e</tspan></text>
          <text transform="translate(1137.44 883.67) rotate(10.44)" font-family="OpenSans-Semibold, &apos;Open Sans&apos;" font-size="23" font-weight="600" isolation="isolate"><tspan x="0" y="0">m</tspan></text>
          <text transform="translate(1159.07 887.61) rotate(9.79)" font-family="OpenSans-Semibold, &apos;Open Sans&apos;" font-size="23" font-weight="600" isolation="isolate"><tspan x="0" y="0">i</tspan></text>
          <text transform="translate(1165.39 888.71) rotate(9.33)" font-family="OpenSans-Semibold, &apos;Open Sans&apos;" font-size="23" font-weight="600" isolation="isolate"><tspan x="0" y="0">e</tspan></text>
          <text transform="translate(1178.47 890.85) rotate(8.77)" font-family="OpenSans-Semibold, &apos;Open Sans&apos;" font-size="23" font-weight="600" isolation="isolate"><tspan x="0" y="0">r</tspan></text>
          <text transform="translate(1188.27 892.35) rotate(8.38)" font-family="OpenSans-Semibold, &apos;Open Sans&apos;" font-size="23" font-weight="600" isolation="isolate"><tspan x="0" y="0"> </tspan></text>
          <text transform="translate(1194.18 893.27) rotate(7.68)" font-family="OpenSans-Semibold, &apos;Open Sans&apos;" font-size="23" font-weight="600" isolation="isolate"><tspan x="0" y="0">W</tspan></text>
          <text transform="translate(1215.74 896.15) rotate(6.76)" font-family="OpenSans-Semibold, &apos;Open Sans&apos;" font-size="23" font-weight="600" isolation="isolate"><tspan x="0" y="0">a</tspan></text>
          <text transform="translate(1228.99 897.72) rotate(6.07)" font-family="OpenSans-Semibold, &apos;Open Sans&apos;" font-size="23" font-weight="600" isolation="isolate"><tspan x="0" y="0">y</tspan></text>
        </g>
        <text transform="translate(1241.25 899) rotate(5.63)" font-family="ArialMT, Arial" font-size="12"><tspan x="0" y="0"> </tspan></text>
        <text font-family="ArialMT, Arial" font-size="12"><tspan x="0" y="0"> </tspan></text>
        <text transform="translate(1415.26 703.96) rotate(-69.98)" font-family="OpenSans-Semibold, &apos;Open Sans&apos;" font-size="28" font-weight="600" isolation="isolate"><tspan x="0" y="0">Hitachi Rail</tspan></text>
      </g>
      <g id="landmarks-rom">
        <rect id="HitachiRail" x="1307.78" y="574.65" width="245.01" height="119.01" transform="translate(344.76 1760.87) rotate(-69.98)" fill="#db2121" stroke="#fff" stroke-miterlimit="10" stroke-width="4"/>
        <path id="AssembleyPoint" d="M1210,436l-26.5,69.5,74,24-16,51,38.5,18.5,6,25,68,20,23-61-47-18,18-52s-20.96-5.86-26-11c-5.35-5.46-6-30-6-30l-106-36Z" fill="#4dbc37" isolation="isolate" opacity=".7"/>
      </g>
      <g id="nopointer-rom">
        <g>
          <g>
            <path d="M1296.88,550.24c-11.97,0-21.66-9.7-21.66-21.66s9.7-21.66,21.66-21.66,21.66,9.7,21.66,21.66c.02,11.95-9.65,21.64-21.6,21.66h-.06Z" fill="#008246" stroke="#fff" stroke-miterlimit="10"/>
            <path d="M1296.88,507.65c11.56,0,20.93,9.37,20.93,20.93s-9.37,20.93-20.93,20.93-20.93-9.37-20.93-20.93h0c-.01-11.55,9.36-20.92,20.91-20.93t.02,0M1296.88,506.28c-12.37,0-22.4,10.03-22.4,22.4s10.03,22.4,22.4,22.4,22.4-10.03,22.4-22.4c-.01-12.37-10.04-22.39-22.4-22.4Z" fill="#008246" stroke="#fff" stroke-miterlimit="10"/>
          </g>
          <g>
            <path d="M1293.2,522.79h-4.73c-2,0-3.26,1.16-3.26,2.73v5.36c0,.64.52,1.16,1.16,1.16s1.16-.52,1.16-1.16v-5.36c0-.11.11-.21.32-.32v15.98c0,.76.61,1.37,1.37,1.37s1.37-.61,1.37-1.37v-8.1h.95v8.1c0,.76.61,1.37,1.37,1.37s1.37-.61,1.37-1.37v-15.98c.21.11.32.21.32.32v5.36c0,.64.52,1.16,1.16,1.16s1.16-.52,1.16-1.16v-5.36c-.44-1.68-2-2.83-3.72-2.73Z" fill="#fff"/>
            <circle cx="1290.88" cy="519.64" r="2.52" fill="#fff"/>
            <path d="M1305.18,522.79h-4.73c-2,0-3.26,1.16-3.26,2.73v5.36c0,.64.52,1.16,1.16,1.16s1.16-.52,1.16-1.16v-5.36c0-.11.11-.21.32-.32v15.98c0,.76.61,1.37,1.37,1.37s1.37-.61,1.37-1.37v-8.1h.95v8.1c0,.76.61,1.37,1.37,1.37s1.37-.61,1.37-1.37v-15.98c.21.11.32.21.32.32v5.36c0,.64.52,1.16,1.16,1.16s1.16-.52,1.16-1.16v-5.36c-.43-1.68-1.99-2.83-3.72-2.73Z" fill="#fff"/>
            <circle cx="1302.77" cy="519.64" r="2.52" fill="#fff"/>
            <circle cx="1296.88" cy="517.32" r="2.52" fill="#fff"/>
          </g>
        </g>
      </g>
    </g>
  </g>
</svg>