<?xml version="1.0" encoding="utf-8"?>
<!-- Generator: Adobe Illustrator 21.1.0, SVG Export Plug-In . SVG Version: 6.00 Build 0)  -->
<svg version="1.1" xmlns="http://www.w3.org/2000/svg" xmlns:xlink="http://www.w3.org/1999/xlink" x="0px" y="0px" width="1920px"
	 height="1080px" viewBox="0 0 1920 1080" enable-background="new 0 0 1920 1080" xml:space="preserve">
<g id="base">
	<g id="room">
		<polygon fill="#D8D8D6" stroke="#FFFFFF" stroke-width="5.3005" stroke-miterlimit="10" points="1061.84,442.91 1062.03,563.68 
			1119.6,563.48 1119.6,442.91 		"/>
		<g>
			<polygon fill="#FFCFCF" points="870.98,454.19 878.19,454.23 878,445.56 987.55,445.56 987.45,455.55 996.48,455.55 
				996.58,445.56 1056.57,445.56 1056.57,560.84 870.87,561.02 			"/>
			<path fill="#FFFFFF" d="M1053.92,448.21v109.98l-180.4,0.18l0.1-101.52l1.82,0.01l5.44,0.03l-0.12-5.44l-0.07-3.24h104.16
				l-0.05,4.64l-0.05,5.35h5.35h3.73h5.25l0.05-5.25l0.05-4.75H1053.92 M1059.22,442.91h-65.27l-0.1,10h-3.73l0.1-10H875.29
				l0.18,8.65l-7.15-0.04l-0.11,112.15l191-0.19V442.91L1059.22,442.91z"/>
		</g>
		<g>
			<polygon fill="#FFCFCF" points="795.65,445.57 862.92,445.91 863.03,560.84 795.69,561.02 			"/>
			<path fill="#FFFFFF" d="M798.3,448.24l61.97,0.31l0.1,109.65l-62.04,0.16L798.3,448.24 M793,442.91l0.04,120.77l72.64-0.19
				l-0.11-120.21L793,442.91L793,442.91z"/>
		</g>
		<g>
			<polygon fill="#FFCFCF" points="720.39,445.57 737.25,445.62 737.32,455.55 746.56,455.55 746.64,445.75 787.66,445.91 
				787.76,560.84 720.42,561.02 			"/>
			<path fill="#FFFFFF" d="M723.04,448.23l11.58,0.04l0.03,4.68l0.04,5.26h5.26h3.98h5.26l0.04-5.26l0.03-4.53l35.74,0.14
				l0.1,109.65l-62.04,0.16L723.04,448.23 M717.74,442.91l0.04,120.77l72.64-0.19l-0.11-120.21l-46.3-0.18l-0.07,9.81h-3.98
				l-0.07-9.92L717.74,442.91L717.74,442.91z"/>
		</g>
		<polygon fill="#D8D8D6" stroke="#FFFFFF" stroke-width="5.3005" stroke-miterlimit="10" points="715.18,442.91 715.37,512.8 
			668.81,512.8 668.81,442.91 		"/>
		<polygon fill="#D8D8D6" stroke="#FFFFFF" stroke-width="5.3005" stroke-miterlimit="10" points="619.6,442.91 666.25,442.91 
			666.25,512.8 615.96,512.8 615.96,454.25 619.6,454.25 		"/>
		
			<rect x="643.07" y="515.45" fill="#D8D8D6" stroke="#FFFFFF" stroke-width="5.3005" stroke-miterlimit="10" width="23.17" height="33.6"/>
		
			<rect x="668.81" y="515.45" fill="#D8D8D6" stroke="#FFFFFF" stroke-width="5.3005" stroke-miterlimit="10" width="20.43" height="33.6"/>
		<g>
			<polygon fill="#FFCFCF" points="746.41,673.41 746.41,670.26 736.98,670.26 736.98,673.41 621.63,673.41 621.63,667.51 
				618.61,667.51 618.61,593.2 773.72,593.2 773.72,673.41 			"/>
			<path fill="#FFFFFF" d="M771.07,595.85v74.91h-22.01v-3.14h-5.3h-4.13h-5.3v3.14H624.28v-0.59v-5.3h-3.02v-69.02H771.07
				 M776.37,590.55H615.96v79.62h3.02v5.89h120.66v-3.14h4.13v3.14h32.61V590.55L776.37,590.55z"/>
		</g>
		<g>
			<rect x="782.36" y="593.2" fill="#FFCFCF" width="61.85" height="39.15"/>
			<path fill="#FFFFFF" d="M841.57,595.85v33.85h-56.55v-33.85H841.57 M846.87,590.55h-67.15V635h67.15V590.55L846.87,590.55z"/>
		</g>
		<g>
			<rect x="782.36" y="640.59" fill="#FFCFCF" width="61.85" height="32.81"/>
			<path fill="#FFFFFF" d="M841.57,643.24v27.51h-56.55v-27.51H841.57 M846.87,637.94h-67.15v38.11h67.15V637.94L846.87,637.94z"/>
		</g>
		<polygon fill="#D8D8D6" stroke="#FFFFFF" stroke-width="5.3005" stroke-miterlimit="10" points="882.27,590.55 882.27,676.06 
			868.22,676.06 868.22,672.92 865.68,672.92 865.68,676.06 849.26,676.06 849.26,590.55 		"/>
		
			<rect x="884.92" y="590.55" fill="#D8D8D6" stroke="#FFFFFF" stroke-width="5.3005" stroke-miterlimit="10" width="50.98" height="85.51"/>
		<polygon fill="#D8D8D6" stroke="#FFFFFF" stroke-width="5.3005" stroke-miterlimit="10" points="938.85,590.55 992.09,590.55 
			992.09,672.92 989.93,672.92 989.93,676.06 938.85,676.06 		"/>
	</g>
	<g id="misc">
		<g>
			<g>
				<rect x="1093.26" y="622.31" fill="#E9E9E9" width="19.12" height="36.32"/>
				<path fill="#878787" d="M1093.47,622.53l18.67,0l0.02,35.87l-18.67,0L1093.47,622.53 M1093.02,622.08l0.03,36.77l19.57,0
					l-0.03-36.77L1093.02,622.08L1093.02,622.08z"/>
			</g>
			
				<line fill="#E9E9E9" stroke="#878787" stroke-width="0.4509" stroke-miterlimit="10" x1="1093.02" y1="626.79" x2="1112.6" y2="626.79"/>
			
				<line fill="#E9E9E9" stroke="#878787" stroke-width="0.4509" stroke-miterlimit="10" x1="1093.02" y1="631.36" x2="1112.6" y2="631.36"/>
			
				<line fill="#E9E9E9" stroke="#878787" stroke-width="0.4509" stroke-miterlimit="10" x1="1093.02" y1="635.94" x2="1112.6" y2="635.94"/>
			
				<line fill="#E9E9E9" stroke="#878787" stroke-width="0.4509" stroke-miterlimit="10" x1="1093.02" y1="640.51" x2="1112.6" y2="640.51"/>
			
				<line fill="#E9E9E9" stroke="#878787" stroke-width="0.4509" stroke-miterlimit="10" x1="1093.02" y1="645.09" x2="1112.6" y2="645.09"/>
			
				<line fill="#E9E9E9" stroke="#878787" stroke-width="0.4509" stroke-miterlimit="10" x1="1093.02" y1="649.66" x2="1112.6" y2="649.66"/>
			
				<line fill="#E9E9E9" stroke="#878787" stroke-width="0.4509" stroke-miterlimit="10" x1="1093.54" y1="654.23" x2="1112.6" y2="654.23"/>
		</g>
		
			<rect x="998.12" y="594.82" transform="matrix(-1 6.551144e-06 -6.551144e-06 -1 2018.9237 1208.6962)" fill="#C6C9CE" stroke="#878787" stroke-width="0.1749" stroke-miterlimit="10" width="22.68" height="19.05"/>
		
			<line fill="#C6C9CE" stroke="#878787" stroke-width="0.1749" stroke-miterlimit="10" x1="1020.8" y1="594.82" x2="998.12" y2="613.88"/>
		
			<line fill="#C6C9CE" stroke="#878787" stroke-width="0.1749" stroke-miterlimit="10" x1="998.12" y1="594.82" x2="1020.8" y2="613.88"/>
		<g>
			<polygon fill="#E9E9E9" points="1069.61,674.06 1069.61,658.07 1093.45,658.07 1093.44,654.17 1112.42,654.17 1112.44,660.39 
				1112.44,674.06 			"/>
			<g>
				<path fill="#878787" d="M1112.24,654.35l0.02,6.04v13.49l-42.47,0v-15.63l23.48,0h0.36l0-0.36l-0.02-3.54H1112.24
					 M1112.6,653.98h-19.35l0.02,3.9l-23.85,0v16.36l43.2,0v-13.85L1112.6,653.98L1112.6,653.98z"/>
			</g>
		</g>
		<g>
			<g>
				<rect x="1069.76" y="622.31" fill="#E9E9E9" width="19.12" height="35.7"/>
				<path fill="#878787" d="M1069.97,622.53l18.67,0l0.02,35.25l-18.67,0L1069.97,622.53 M1069.52,622.08l0.03,36.15l19.57,0
					l-0.03-36.15L1069.52,622.08L1069.52,622.08z"/>
			</g>
			
				<line fill="#E9E9E9" stroke="#878787" stroke-width="0.4509" stroke-miterlimit="10" x1="1069.52" y1="626.17" x2="1089.1" y2="626.17"/>
			
				<line fill="#E9E9E9" stroke="#878787" stroke-width="0.4509" stroke-miterlimit="10" x1="1069.52" y1="630.74" x2="1089.1" y2="630.74"/>
			
				<line fill="#E9E9E9" stroke="#878787" stroke-width="0.4509" stroke-miterlimit="10" x1="1069.52" y1="635.32" x2="1089.1" y2="635.32"/>
			
				<line fill="#E9E9E9" stroke="#878787" stroke-width="0.4509" stroke-miterlimit="10" x1="1069.52" y1="639.89" x2="1089.1" y2="639.89"/>
			
				<line fill="#E9E9E9" stroke="#878787" stroke-width="0.4509" stroke-miterlimit="10" x1="1069.52" y1="644.46" x2="1089.1" y2="644.46"/>
			
				<line fill="#E9E9E9" stroke="#878787" stroke-width="0.4509" stroke-miterlimit="10" x1="1069.52" y1="649.04" x2="1089.1" y2="649.04"/>
			
				<line fill="#E9E9E9" stroke="#878787" stroke-width="0.4509" stroke-miterlimit="10" x1="1070.04" y1="653.61" x2="1089.1" y2="653.61"/>
		</g>
		<g>
			<g>
				<polyline fill="none" stroke="#6D6D6D" stroke-width="0.2751" stroke-miterlimit="10" points="1079.83,645.09 1079.83,666.32 
					1102.81,666.32 1102.81,657.15 				"/>
				<g>
					<polygon fill="#6D6D6D" points="1101.14,657.38 1104.48,657.38 1102.81,655.71 					"/>
				</g>
			</g>
		</g>
		<g>
			<g>
				<rect x="540.13" y="545.31" fill="#E9E9E9" width="42.69" height="19.84"/>
				<path fill="#878787" d="M582.56,545.56l0,19.34l-42.19,0l0-19.34L582.56,545.56 M583.06,545.06l-43.19,0l0,20.34l43.19,0
					L583.06,545.06L583.06,545.06z"/>
			</g>
			
				<line fill="#E9E9E9" stroke="#878787" stroke-width="0.5006" stroke-miterlimit="10" x1="545.08" y1="565.41" x2="545.08" y2="545.06"/>
			
				<line fill="#E9E9E9" stroke="#878787" stroke-width="0.5006" stroke-miterlimit="10" x1="550.55" y1="565.41" x2="550.55" y2="545.06"/>
			
				<line fill="#E9E9E9" stroke="#878787" stroke-width="0.5006" stroke-miterlimit="10" x1="556.02" y1="565.41" x2="556.02" y2="545.06"/>
			
				<line fill="#E9E9E9" stroke="#878787" stroke-width="0.5006" stroke-miterlimit="10" x1="561.5" y1="565.41" x2="561.5" y2="545.06"/>
			
				<line fill="#E9E9E9" stroke="#878787" stroke-width="0.5006" stroke-miterlimit="10" x1="566.97" y1="565.41" x2="566.97" y2="545.06"/>
			
				<line fill="#E9E9E9" stroke="#878787" stroke-width="0.5006" stroke-miterlimit="10" x1="572.44" y1="565.41" x2="572.44" y2="545.06"/>
		</g>
		
			<line fill="#E9E9E9" stroke="#878787" stroke-width="0.5006" stroke-miterlimit="10" x1="578.24" y1="564.89" x2="578.24" y2="544.54"/>
		<g>
			<g>
				
					<line fill="none" stroke="#6D6D6D" stroke-width="0.2751" stroke-miterlimit="10" x1="581.75" y1="553.07" x2="546.03" y2="553.07"/>
				<g>
					<polygon fill="#6D6D6D" points="546.25,554.74 546.25,551.4 544.58,553.07 					"/>
				</g>
			</g>
		</g>
		<g>
			<g>
				<rect x="540.12" y="566.14" fill="#E9E9E9" width="42.7" height="18.74"/>
				<path fill="#878787" d="M582.58,566.38l0,18.26l-42.21,0l0-18.26L582.58,566.38 M583.06,565.9l-43.19,0l0,19.23l43.19,0
					L583.06,565.9L583.06,565.9z"/>
			</g>
			
				<line fill="#E9E9E9" stroke="#878787" stroke-width="0.4867" stroke-miterlimit="10" x1="545.08" y1="585.13" x2="545.08" y2="565.9"/>
			
				<line fill="#E9E9E9" stroke="#878787" stroke-width="0.4867" stroke-miterlimit="10" x1="550.55" y1="585.13" x2="550.55" y2="565.9"/>
			
				<line fill="#E9E9E9" stroke="#878787" stroke-width="0.4867" stroke-miterlimit="10" x1="556.02" y1="585.13" x2="556.02" y2="565.9"/>
			
				<line fill="#E9E9E9" stroke="#878787" stroke-width="0.4867" stroke-miterlimit="10" x1="561.5" y1="585.13" x2="561.5" y2="565.9"/>
			
				<line fill="#E9E9E9" stroke="#878787" stroke-width="0.4867" stroke-miterlimit="10" x1="566.97" y1="585.13" x2="566.97" y2="565.9"/>
			
				<line fill="#E9E9E9" stroke="#878787" stroke-width="0.4867" stroke-miterlimit="10" x1="572.44" y1="585.13" x2="572.44" y2="565.9"/>
		</g>
		
			<line fill="#E9E9E9" stroke="#878787" stroke-width="0.4867" stroke-miterlimit="10" x1="578.24" y1="584.64" x2="578.24" y2="565.41"/>
	</g>
	<g id="int_x5F_thin">
		
			<line fill="none" stroke="#2D2D2D" stroke-width="2.6502" stroke-miterlimit="10" x1="667.41" y1="550.57" x2="667.41" y2="441.78"/>
		
			<line fill="none" stroke="#2D2D2D" stroke-width="2.6502" stroke-miterlimit="10" x1="778.34" y1="617.69" x2="778.34" y2="590.55"/>
		
			<line fill="none" stroke="#2D2D2D" stroke-width="2.6502" stroke-miterlimit="10" x1="778.34" y1="640.3" x2="778.34" y2="633.23"/>
		
			<line fill="none" stroke="#2D2D2D" stroke-width="2.6502" stroke-miterlimit="10" x1="778.34" y1="677.11" x2="778.34" y2="655.9"/>
		
			<line fill="none" stroke="#2D2D2D" stroke-width="2.6502" stroke-miterlimit="10" x1="993.47" y1="568.79" x2="993.47" y2="564.82"/>
		<polyline fill="none" stroke="#2D2D2D" stroke-width="2.6502" stroke-miterlimit="10" points="989.93,589.55 993.47,589.55 
			993.47,586.02 		"/>
		
			<line fill="none" stroke="#2D2D2D" stroke-width="2.6502" stroke-miterlimit="10" x1="934.09" y1="589.55" x2="974.13" y2="589.55"/>
		
			<line fill="none" stroke="#2D2D2D" stroke-width="2.6502" stroke-miterlimit="10" x1="867.56" y1="589.55" x2="918.28" y2="589.55"/>
		
			<line fill="none" stroke="#2D2D2D" stroke-width="2.6502" stroke-miterlimit="10" x1="774.7" y1="589.55" x2="852.01" y2="589.55"/>
		
			<line fill="none" stroke="#2D2D2D" stroke-width="2.6502" stroke-miterlimit="10" x1="639.93" y1="589.55" x2="759.15" y2="589.55"/>
		
			<line fill="none" stroke="#2D2D2D" stroke-width="2.6502" stroke-miterlimit="10" x1="615.24" y1="589.55" x2="625.34" y2="589.55"/>
		
			<line fill="none" stroke="#2D2D2D" stroke-width="2.6502" stroke-miterlimit="10" x1="619.2" y1="514.24" x2="615.05" y2="514.24"/>
		
			<line fill="none" stroke="#2D2D2D" stroke-width="2.6502" stroke-miterlimit="10" x1="697.45" y1="514.24" x2="635.05" y2="514.24"/>
		
			<line fill="none" stroke="#2D2D2D" stroke-width="2.6502" stroke-miterlimit="10" x1="716.45" y1="514.24" x2="712.82" y2="514.24"/>
		
			<line fill="none" stroke="#2D2D2D" stroke-width="2.6502" stroke-miterlimit="10" x1="622.2" y1="550.38" x2="615.76" y2="550.38"/>
		
			<line fill="none" stroke="#2D2D2D" stroke-width="2.6502" stroke-miterlimit="10" x1="645.33" y1="550.38" x2="638.26" y2="550.38"/>
		
			<line fill="none" stroke="#2D2D2D" stroke-width="2.6502" stroke-miterlimit="10" x1="671.63" y1="550.38" x2="661.1" y2="550.38"/>
		
			<line fill="none" stroke="#2D2D2D" stroke-width="2.6502" stroke-miterlimit="10" x1="697.76" y1="550.38" x2="686.79" y2="550.38"/>
		
			<line fill="none" stroke="#2D2D2D" stroke-width="2.6502" stroke-miterlimit="10" x1="716.45" y1="550.38" x2="712.92" y2="550.38"/>
		
			<line fill="none" stroke="#2D2D2D" stroke-width="2.6502" stroke-miterlimit="10" x1="1090.52" y1="564.82" x2="1119.6" y2="564.82"/>
		
			<line fill="none" stroke="#2D2D2D" stroke-width="2.6502" stroke-miterlimit="10" x1="1056.93" y1="564.82" x2="1064.78" y2="564.82"/>
		
			<line fill="none" stroke="#2D2D2D" stroke-width="2.6502" stroke-miterlimit="10" x1="925.54" y1="564.82" x2="1041.76" y2="564.82"/>
		<polyline fill="none" stroke="#2D2D2D" stroke-width="2.6502" stroke-miterlimit="10" points="719.89,564.82 716.45,564.82 
			716.45,442.91 		"/>
		
			<line fill="none" stroke="#2D2D2D" stroke-width="2.6502" stroke-miterlimit="10" x1="846.87" y1="564.82" x2="736.23" y2="564.82"/>
		
			<line fill="none" stroke="#2D2D2D" stroke-width="2.6502" stroke-miterlimit="10" x1="871.17" y1="564.82" x2="862.23" y2="564.82"/>
		
			<line fill="none" stroke="#2D2D2D" stroke-width="2.6502" stroke-miterlimit="10" x1="933.55" y1="564.82" x2="884.92" y2="564.82"/>
		
			<line fill="none" stroke="#2D2D2D" stroke-width="2.6502" stroke-miterlimit="10" x1="791.7" y1="563.88" x2="791.7" y2="442.91"/>
		
			<line fill="none" stroke="#2D2D2D" stroke-width="2.6502" stroke-miterlimit="10" x1="866.94" y1="564.94" x2="866.94" y2="449.54"/>
		
			<line fill="none" stroke="#2D2D2D" stroke-width="2.6502" stroke-miterlimit="10" x1="1060.85" y1="564.82" x2="1060.85" y2="442.91"/>
		
			<line fill="none" stroke="#2D2D2D" stroke-width="2.6502" stroke-miterlimit="10" x1="1133.78" y1="530.53" x2="1120.49" y2="530.53"/>
		
			<line fill="none" stroke="#2D2D2D" stroke-width="2.6502" stroke-miterlimit="10" x1="1134.82" y1="530.53" x2="1121.24" y2="530.53"/>
		
			<line fill="none" stroke="#2D2D2D" stroke-width="2.6502" stroke-miterlimit="10" x1="1120.74" y1="564.82" x2="1120.74" y2="442.23"/>
		<polyline fill="none" stroke="#2D2D2D" stroke-width="2.6502" stroke-miterlimit="10" points="1120.23,568.79 1120.34,564.82 
			1120.34,529.21 		"/>
		
			<line fill="none" stroke="#2D2D2D" stroke-width="2.6502" stroke-miterlimit="10" x1="1120.29" y1="591.91" x2="1120.29" y2="584.11"/>
		<polyline fill="none" stroke="#2D2D2D" stroke-width="2.6502" stroke-miterlimit="10" points="994.84,589.55 1024.08,589.55 
			1024.08,597.28 		"/>
		<polyline fill="none" stroke="#2D2D2D" stroke-width="2.6502" stroke-miterlimit="10" points="1024.08,611.2 1024.08,621.47 
			994.84,621.47 		"/>
		
			<line fill="none" stroke="#2D2D2D" stroke-width="2.6502" stroke-miterlimit="10" x1="807.88" y1="568.79" x2="807.88" y2="564.82"/>
		
			<line fill="none" stroke="#2D2D2D" stroke-width="2.6502" stroke-miterlimit="10" x1="807.88" y1="589.55" x2="807.88" y2="586.02"/>
		<polyline fill="none" stroke="#2D2D2D" stroke-width="2.6502" stroke-miterlimit="10" points="1349.51,650.32 1345.47,650.32 
			1345.47,672.33 1371.47,672.33 		"/>
		
			<line fill="none" stroke="#2D2D2D" stroke-width="2.6502" stroke-miterlimit="10" x1="1370.38" y1="650.32" x2="1365.62" y2="650.32"/>
		
			<line fill="none" stroke="#2D2D2D" stroke-width="2.6502" stroke-miterlimit="10" x1="848.08" y1="677.11" x2="848.08" y2="590.55"/>
		<polyline fill="none" stroke="#2D2D2D" stroke-width="2.6502" stroke-miterlimit="10" points="607.19,544.54 584.14,544.54 
			584.13,565.19 538.86,565.19 538.86,561.13 		"/>
		<path fill="none" stroke="#2D2D2D" stroke-width="2.6502" stroke-miterlimit="10" d="M606.6,585.24h-77.36
			c0,0-16.66-3.07-16.66-20.77c0-17.7,15.48-20.2,24.93-20.2h45.73"/>
		
			<line fill="none" stroke="#2D2D2D" stroke-width="2.6502" stroke-miterlimit="10" x1="883.84" y1="677.11" x2="883.84" y2="590.55"/>
		
			<line fill="none" stroke="#2D2D2D" stroke-width="2.6502" stroke-miterlimit="10" x1="937.48" y1="677.11" x2="937.48" y2="590.55"/>
		<polyline fill="none" stroke="#2D2D2D" stroke-width="2.6502" stroke-miterlimit="10" points="993.47,677.11 993.47,589.55 
			1009.46,589.55 		"/>
		
			<line fill="none" stroke="#2D2D2D" stroke-width="2.6502" stroke-miterlimit="10" x1="690.52" y1="514.24" x2="690.52" y2="549.85"/>
		
			<line fill="none" stroke="#2D2D2D" stroke-width="2.6502" stroke-miterlimit="10" x1="641.66" y1="514.24" x2="641.66" y2="550.38"/>
		
			<line fill="none" stroke="#2D2D2D" stroke-width="2.6502" stroke-miterlimit="10" x1="847.3" y1="636.77" x2="778.34" y2="636.77"/>
		<polyline fill="none" stroke="#2D2D2D" stroke-width="2.6502" stroke-miterlimit="10" points="1370.83,630.77 1390.28,630.77 
			1390.28,669.38 1386.3,669.38 		"/>
		<polyline fill="none" stroke="#2D2D2D" stroke-width="2.6502" stroke-miterlimit="10" points="1364.59,623.41 1364.59,626.8 
			1370.83,626.8 		"/>
		<polyline fill="none" stroke="#2D2D2D" stroke-width="2.6502" stroke-miterlimit="10" points="1370.38,584.21 1364.59,584.21 
			1364.59,587.16 		"/>
		
			<line fill="none" stroke="#2D2D2D" stroke-width="1.1788" stroke-miterlimit="10" x1="1364.59" y1="624" x2="1364.59" y2="586.42"/>
		<polyline fill="none" stroke="#2D2D2D" stroke-width="1.1788" stroke-miterlimit="10" points="1024.78,622.08 1069.5,622.08 
			1069.5,676.53 		"/>
		<polyline fill="none" stroke="#2D2D2D" stroke-width="1.1788" stroke-miterlimit="10" points="1120.29,622.08 1093.02,622.08 
			1093.02,657.89 1089.1,657.89 1089.1,622.08 		"/>
		
			<line fill="none" stroke="#2D2D2D" stroke-width="1.1788" stroke-miterlimit="10" x1="1113.26" y1="622.08" x2="1113.26" y2="677.11"/>
		
			<line fill="none" stroke="#2D2D2D" stroke-width="1.1788" stroke-miterlimit="10" x1="1069.11" y1="674.24" x2="1112.94" y2="674.24"/>
	</g>
	<g id="int_x5F_med">
		
			<line fill="none" stroke="#2D2D2D" stroke-width="3.9753" stroke-miterlimit="10" x1="1195.77" y1="441.32" x2="1288.37" y2="441.32"/>
		
			<line fill="none" stroke="#2D2D2D" stroke-width="3.9753" stroke-miterlimit="10" x1="1073.2" y1="441.32" x2="1195.77" y2="441.32"/>
		<polyline fill="none" stroke="#2D2D2D" stroke-width="3.9753" stroke-miterlimit="10" points="1077.55,441.32 875,441.32 
			866.94,441.32 866.94,449.54 873.53,449.54 873.53,441.25 		"/>
		<polyline fill="none" stroke="#2D2D2D" stroke-width="3.9753" stroke-miterlimit="10" points="617.5,441.37 617.63,452.63 
			607.88,452.63 607.84,441.32 866.94,441.32 		"/>
		
			<line fill="none" stroke="#2D2D2D" stroke-width="3.9753" stroke-miterlimit="10" x1="992.09" y1="677.91" x2="992.09" y2="672.92"/>
		
			<line fill="none" stroke="#2D2D2D" stroke-width="3.9753" stroke-miterlimit="10" x1="1120.29" y1="677.11" x2="1120.29" y2="590.55"/>
		
			<line fill="none" stroke="#2D2D2D" stroke-width="3.9753" stroke-miterlimit="10" x1="741.93" y1="441.78" x2="741.93" y2="452.9"/>
		
			<line fill="none" stroke="#2D2D2D" stroke-width="3.9753" stroke-miterlimit="10" x1="866.94" y1="439.66" x2="866.94" y2="452.9"/>
		
			<line fill="none" stroke="#2D2D2D" stroke-width="3.9753" stroke-miterlimit="10" x1="992.03" y1="441.25" x2="992.03" y2="452.9"/>
		
			<line fill="none" stroke="#2D2D2D" stroke-width="3.9753" stroke-miterlimit="10" x1="1118.22" y1="439.85" x2="1118.22" y2="452.9"/>
		
			<line fill="none" stroke="#2D2D2D" stroke-width="3.9753" stroke-miterlimit="10" x1="1226.59" y1="439.85" x2="1226.59" y2="452.9"/>
		
			<line fill="none" stroke="#2D2D2D" stroke-width="3.9753" stroke-miterlimit="10" x1="1351.81" y1="439.85" x2="1351.81" y2="452.9"/>
		
			<line fill="none" stroke="#2D2D2D" stroke-width="3.9753" stroke-miterlimit="10" x1="617.7" y1="677.11" x2="617.7" y2="670.16"/>
		<polyline fill="none" stroke="#2D2D2D" stroke-width="3.9753" stroke-miterlimit="10" points="1283.48,441.32 1370.38,441.32 
			1370.38,585.5 		"/>
		
			<line fill="none" stroke="#2D2D2D" stroke-width="3.9753" stroke-miterlimit="10" x1="1370.38" y1="625.76" x2="1370.38" y2="651.4"/>
		
			<line fill="none" stroke="#2D2D2D" stroke-width="3.9753" stroke-miterlimit="10" x1="1370.38" y1="671.16" x2="1370.38" y2="677.11"/>
		
			<line fill="none" stroke="#2D2D2D" stroke-width="3.9753" stroke-miterlimit="10" x1="866.94" y1="677.91" x2="866.94" y2="672.92"/>
		
			<line fill="none" stroke="#2D2D2D" stroke-width="3.9753" stroke-miterlimit="10" x1="741.93" y1="677.91" x2="741.93" y2="672.92"/>
	</g>
	<g id="outside_x5F_1">
		
			<line fill="none" stroke="#2D2D2D" stroke-width="9.9384" stroke-miterlimit="10" x1="1145.33" y1="681.04" x2="993.52" y2="681.04"/>
		
			<line fill="none" stroke="#2D2D2D" stroke-width="9.9384" stroke-miterlimit="10" x1="1372.59" y1="681.04" x2="1140.88" y2="681.04"/>
		
			<line fill="none" stroke="#2D2D2D" stroke-width="9.9384" stroke-miterlimit="10" x1="611.21" y1="565.24" x2="610.88" y2="454.25"/>
		
			<line fill="none" stroke="#2D2D2D" stroke-width="9.9384" stroke-miterlimit="10" x1="611.46" y1="645.45" x2="611.23" y2="579.65"/>
		<polyline fill="none" stroke="#2D2D2D" stroke-width="9.9384" stroke-miterlimit="10" points="1005.62,681.04 611.59,681.04 
			611.46,640.3 		"/>
	</g>
	<g id="outside_x5F_2">
		
			<line fill="none" stroke="#E3E3E3" stroke-width="4.9692" stroke-miterlimit="10" x1="1144.01" y1="681.04" x2="994.84" y2="681.04"/>
		
			<line fill="none" stroke="#E3E3E3" stroke-width="4.9692" stroke-miterlimit="10" x1="1371.27" y1="681.04" x2="1141.88" y2="681.04"/>
		
			<line fill="none" stroke="#E3E3E3" stroke-width="4.9692" stroke-miterlimit="10" x1="611.22" y1="564.26" x2="610.88" y2="456.63"/>
		
			<line fill="none" stroke="#E3E3E3" stroke-width="4.9692" stroke-miterlimit="10" x1="611.46" y1="644.13" x2="611.22" y2="580.63"/>
		<polyline fill="none" stroke="#E3E3E3" stroke-width="4.9692" stroke-miterlimit="10" points="1004.3,681.04 611.59,681.04 
			611.46,641.63 		"/>
	</g>
	<g id="doors">
		<g>
			<path opacity="0.3" fill="#FFFFFF" d="M774.34,604.96c-8.09,0-14.79-5.83-14.79-15.51l14.79,0.01L774.34,604.96z"/>
			<path fill="none" stroke="#2D2D2D" stroke-width="0.918" stroke-miterlimit="10" d="M759.55,589.45c0,9.69,6.7,15.51,14.79,15.51
				"/>
			
				<line fill="none" stroke="#2D2D2D" stroke-width="1.8359" stroke-linecap="square" stroke-miterlimit="10" x1="774.7" y1="589.16" x2="774.7" y2="604.67"/>
		</g>
		<g>
			<path opacity="0.3" fill="#FFFFFF" d="M872.4,549.48c8.09,0,14.79,5.83,14.79,15.51l-14.79-0.01L872.4,549.48z"/>
			<path fill="none" stroke="#2D2D2D" stroke-width="0.918" stroke-miterlimit="10" d="M887.19,564.99c0-9.69-6.7-15.51-14.79-15.51
				"/>
			
				<line fill="none" stroke="#2D2D2D" stroke-width="1.8359" stroke-linecap="square" stroke-miterlimit="10" x1="872.04" y1="565.28" x2="872.04" y2="549.77"/>
		</g>
		<g>
			<path opacity="0.3" fill="#FFFFFF" d="M933.49,604.96c-8.09,0-14.79-5.83-14.79-15.51l14.79,0.01L933.49,604.96z"/>
			<path fill="none" stroke="#2D2D2D" stroke-width="0.918" stroke-miterlimit="10" d="M918.7,589.45c0,9.69,6.7,15.51,14.79,15.51"
				/>
			
				<line fill="none" stroke="#2D2D2D" stroke-width="1.8359" stroke-linecap="square" stroke-miterlimit="10" x1="933.85" y1="589.16" x2="933.85" y2="604.67"/>
		</g>
		<g>
			<path opacity="0.3" fill="#FFFFFF" d="M1003.51,585.27c0-5.52-3.97-10.08-10.57-10.08l0,10.09L1003.51,585.27z"/>
			<path fill="none" stroke="#2D2D2D" stroke-width="0.6257" stroke-miterlimit="10" d="M992.93,575.18
				c6.6,0,10.57,4.57,10.57,10.08"/>
			
				<line fill="none" stroke="#2D2D2D" stroke-width="1.2515" stroke-linecap="square" stroke-miterlimit="10" x1="992.74" y1="585.51" x2="1003.31" y2="585.51"/>
			<path opacity="0.3" fill="#FFFFFF" d="M999.48,568.86c0,3.45-2.48,6.3-6.61,6.3l0-6.3L999.48,568.86z"/>
			<path fill="none" stroke="#2D2D2D" stroke-width="0.6257" stroke-miterlimit="10" d="M992.87,575.17c4.13,0,6.61-2.86,6.61-6.3"
				/>
			
				<line fill="none" stroke="#2D2D2D" stroke-width="1.2515" stroke-linecap="square" stroke-miterlimit="10" x1="992.75" y1="568.71" x2="999.36" y2="568.71"/>
		</g>
		<g>
			<path opacity="0.3" fill="#FFFFFF" d="M797.82,585.14c0-5.52,3.97-10.09,10.57-10.08l0,10.09L797.82,585.14z"/>
			<path fill="none" stroke="#2D2D2D" stroke-width="0.6257" stroke-miterlimit="10" d="M808.39,575.06
				c-6.6,0-10.57,4.57-10.57,10.08"/>
			
				<line fill="none" stroke="#2D2D2D" stroke-width="1.2515" stroke-linecap="square" stroke-miterlimit="10" x1="808.59" y1="585.39" x2="798.02" y2="585.39"/>
			<path opacity="0.3" fill="#FFFFFF" d="M801.84,568.74c0,3.45,2.48,6.3,6.61,6.3l0-6.3L801.84,568.74z"/>
			<path fill="none" stroke="#2D2D2D" stroke-width="0.6257" stroke-miterlimit="10" d="M808.45,575.04c-4.13,0-6.61-2.86-6.61-6.3"
				/>
			
				<line fill="none" stroke="#2D2D2D" stroke-width="1.2515" stroke-linecap="square" stroke-miterlimit="10" x1="808.58" y1="568.58" x2="801.97" y2="568.58"/>
		</g>
		<g>
			<path opacity="0.3" fill="#FFFFFF" d="M624.87,604.96c8.09,0,14.79-5.83,14.79-15.51l-14.79,0.01L624.87,604.96z"/>
			<path fill="none" stroke="#2D2D2D" stroke-width="0.918" stroke-miterlimit="10" d="M639.66,589.45c0,9.69-6.7,15.51-14.79,15.51
				"/>
			
				<line fill="none" stroke="#2D2D2D" stroke-width="1.8359" stroke-linecap="square" stroke-miterlimit="10" x1="624.51" y1="589.16" x2="624.51" y2="604.67"/>
		</g>
		<g>
			<path opacity="0.3" fill="#FFFFFF" d="M793.71,632.87c0-8.09-5.82-14.79-15.51-14.79l0.01,14.79L793.71,632.87z"/>
			<path fill="none" stroke="#2D2D2D" stroke-width="0.918" stroke-miterlimit="10" d="M778.2,618.07c9.69,0,15.51,6.7,15.51,14.79"
				/>
			
				<line fill="none" stroke="#2D2D2D" stroke-width="1.8359" stroke-linecap="square" stroke-miterlimit="10" x1="777.91" y1="633.23" x2="793.42" y2="633.23"/>
		</g>
		<g>
			<path opacity="0.3" fill="#FFFFFF" d="M793.71,640.67c0,8.09-5.82,14.79-15.51,14.79l0.01-14.79L793.71,640.67z"/>
			<path fill="none" stroke="#2D2D2D" stroke-width="0.918" stroke-miterlimit="10" d="M778.2,655.46c9.69,0,15.51-6.7,15.51-14.79"
				/>
			
				<line fill="none" stroke="#2D2D2D" stroke-width="1.8359" stroke-linecap="square" stroke-miterlimit="10" x1="777.91" y1="640.3" x2="793.42" y2="640.3"/>
		</g>
		<g>
			<path opacity="0.3" fill="#FFFFFF" d="M852.38,604.96c8.09,0,14.79-5.83,14.79-15.51l-14.79,0.01L852.38,604.96z"/>
			<path fill="none" stroke="#2D2D2D" stroke-width="0.918" stroke-miterlimit="10" d="M867.17,589.45c0,9.69-6.7,15.51-14.79,15.51
				"/>
			
				<line fill="none" stroke="#2D2D2D" stroke-width="1.8359" stroke-linecap="square" stroke-miterlimit="10" x1="852.01" y1="589.16" x2="852.01" y2="604.67"/>
		</g>
		<g>
			<path opacity="0.3" fill="#FFFFFF" d="M989.19,604.96c-8.09,0-14.79-5.83-14.79-15.51l14.79,0.01L989.19,604.96z"/>
			<path fill="none" stroke="#2D2D2D" stroke-width="0.918" stroke-miterlimit="10" d="M974.39,589.45c0,9.69,6.7,15.51,14.79,15.51
				"/>
			
				<line fill="none" stroke="#2D2D2D" stroke-width="1.8359" stroke-linecap="square" stroke-miterlimit="10" x1="989.55" y1="589.16" x2="989.55" y2="604.67"/>
		</g>
		<g>
			<path opacity="0.3" fill="#FFFFFF" d="M1056.94,549.48c-8.09,0-14.79,5.83-14.79,15.51l14.79-0.01L1056.94,549.48z"/>
			<path fill="none" stroke="#2D2D2D" stroke-width="0.918" stroke-miterlimit="10" d="M1042.15,564.99
				c0-9.69,6.7-15.51,14.79-15.51"/>
			
				<line fill="none" stroke="#2D2D2D" stroke-width="1.8359" stroke-linecap="square" stroke-miterlimit="10" x1="1057.31" y1="565.28" x2="1057.31" y2="549.77"/>
		</g>
		<g>
			<path opacity="0.3" fill="#FFFFFF" d="M1104.91,569.32c0,8.09,5.82,14.8,15.51,14.8l-0.01-14.8L1104.91,569.32z"/>
			<path fill="none" stroke="#2D2D2D" stroke-width="0.918" stroke-miterlimit="10" d="M1120.43,584.11
				c-9.69,0-15.51-6.7-15.51-14.8"/>
			
				<line fill="none" stroke="#2D2D2D" stroke-width="1.8359" stroke-linecap="square" stroke-miterlimit="10" x1="1120.72" y1="568.95" x2="1105.21" y2="568.96"/>
		</g>
		<g>
			<path opacity="0.3" fill="#FFFFFF" d="M861.66,549.48c-8.09,0-14.79,5.83-14.79,15.51l14.79-0.01L861.66,549.48z"/>
			<path fill="none" stroke="#2D2D2D" stroke-width="0.918" stroke-miterlimit="10" d="M846.87,564.99c0-9.69,6.7-15.51,14.79-15.51
				"/>
			
				<line fill="none" stroke="#2D2D2D" stroke-width="1.8359" stroke-linecap="square" stroke-miterlimit="10" x1="862.02" y1="565.28" x2="862.02" y2="549.77"/>
		</g>
		<g>
			<path opacity="0.3" fill="#FFFFFF" d="M721.09,549.48c8.09,0,14.79,5.83,14.79,15.51l-14.79-0.01L721.09,549.48z"/>
			<path fill="none" stroke="#2D2D2D" stroke-width="0.918" stroke-miterlimit="10" d="M735.89,564.99c0-9.69-6.7-15.51-14.79-15.51
				"/>
			
				<line fill="none" stroke="#2D2D2D" stroke-width="1.8359" stroke-linecap="square" stroke-miterlimit="10" x1="720.73" y1="565.28" x2="720.73" y2="549.77"/>
		</g>
		<g>
			<path opacity="0.3" fill="#FFFFFF" d="M645.94,565.74c8.09,0,14.79-5.83,14.79-15.51l-14.79,0.01L645.94,565.74z"/>
			<path fill="none" stroke="#2D2D2D" stroke-width="0.918" stroke-miterlimit="10" d="M660.73,550.23c0,9.69-6.7,15.51-14.79,15.51
				"/>
			
				<line fill="none" stroke="#2D2D2D" stroke-width="1.8359" stroke-linecap="square" stroke-miterlimit="10" x1="645.58" y1="549.94" x2="645.58" y2="565.44"/>
		</g>
		<g>
			<path opacity="0.3" fill="#FFFFFF" d="M637.32,535.02c-8.09,0-14.79,5.83-14.79,15.51l14.79-0.01L637.32,535.02z"/>
			<path fill="none" stroke="#2D2D2D" stroke-width="0.918" stroke-miterlimit="10" d="M622.53,550.53c0-9.69,6.7-15.51,14.79-15.51
				"/>
			
				<line fill="none" stroke="#2D2D2D" stroke-width="1.8359" stroke-linecap="square" stroke-miterlimit="10" x1="637.69" y1="550.82" x2="637.69" y2="535.32"/>
		</g>
		<g>
			<path opacity="0.3" fill="#FFFFFF" d="M686.43,535.02c-8.09,0-14.79,5.83-14.79,15.51l14.79-0.01L686.43,535.02z"/>
			<path fill="none" stroke="#2D2D2D" stroke-width="0.918" stroke-miterlimit="10" d="M671.63,550.53c0-9.69,6.7-15.51,14.79-15.51
				"/>
			
				<line fill="none" stroke="#2D2D2D" stroke-width="1.8359" stroke-linecap="square" stroke-miterlimit="10" x1="686.79" y1="550.82" x2="686.79" y2="535.32"/>
		</g>
		<g>
			<path opacity="0.3" fill="#FFFFFF" d="M712.56,535.02c-8.09,0-14.79,5.83-14.79,15.51l14.79-0.01L712.56,535.02z"/>
			<path fill="none" stroke="#2D2D2D" stroke-width="0.918" stroke-miterlimit="10" d="M697.76,550.53c0-9.69,6.7-15.51,14.79-15.51
				"/>
			
				<line fill="none" stroke="#2D2D2D" stroke-width="1.8359" stroke-linecap="square" stroke-miterlimit="10" x1="712.92" y1="550.82" x2="712.92" y2="535.32"/>
		</g>
		<g>
			<path opacity="0.3" fill="#FFFFFF" d="M712.56,498.81c-8.09,0-14.79,5.83-14.79,15.51l14.79-0.01L712.56,498.81z"/>
			<path fill="none" stroke="#2D2D2D" stroke-width="0.918" stroke-miterlimit="10" d="M697.76,514.32c0-9.69,6.7-15.51,14.79-15.51
				"/>
			
				<line fill="none" stroke="#2D2D2D" stroke-width="1.8359" stroke-linecap="square" stroke-miterlimit="10" x1="712.92" y1="514.61" x2="712.92" y2="499.1"/>
		</g>
		<g>
			<path opacity="0.3" fill="#FFFFFF" d="M619.96,498.81c8.09,0,14.79,5.83,14.79,15.51l-14.79-0.01L619.96,498.81z"/>
			<path fill="none" stroke="#2D2D2D" stroke-width="0.918" stroke-miterlimit="10" d="M634.75,514.32c0-9.69-6.7-15.51-14.79-15.51
				"/>
			
				<line fill="none" stroke="#2D2D2D" stroke-width="1.8359" stroke-linecap="square" stroke-miterlimit="10" x1="619.6" y1="514.61" x2="619.6" y2="499.1"/>
		</g>
		<g>
			<path opacity="0.3" fill="#FFFFFF" d="M590.8,580.14c0-8.09,5.83-14.79,15.51-14.79l-0.01,14.79L590.8,580.14z"/>
			<path fill="none" stroke="#2D2D2D" stroke-width="0.918" stroke-miterlimit="10" d="M606.31,565.35
				c-9.69,0-15.51,6.7-15.51,14.79"/>
			
				<line fill="none" stroke="#2D2D2D" stroke-width="1.8359" stroke-linecap="square" stroke-miterlimit="10" x1="606.6" y1="580.5" x2="591.1" y2="580.5"/>
		</g>
		<g>
			<g>
				<path opacity="0.3" fill="#FFFFFF" d="M1064.25,551.07c7.28,0,13.3,5.24,13.3,13.95l-13.3-0.01L1064.25,551.07z"/>
				<path fill="none" stroke="#2D2D2D" stroke-width="0.8252" stroke-miterlimit="10" d="M1077.55,565.02
					c0-8.71-6.02-13.95-13.3-13.95"/>
				
					<line fill="none" stroke="#2D2D2D" stroke-width="1.6505" stroke-linecap="square" stroke-miterlimit="10" x1="1063.93" y1="565.28" x2="1063.93" y2="551.34"/>
			</g>
			<g>
				<path opacity="0.3" fill="#FFFFFF" d="M1090.86,551.07c-7.28,0-13.3,5.24-13.3,13.95l13.3-0.01L1090.86,551.07z"/>
				<path fill="none" stroke="#2D2D2D" stroke-width="0.8252" stroke-miterlimit="10" d="M1077.55,565.02
					c0-8.71,6.03-13.95,13.3-13.95"/>
				
					<line fill="none" stroke="#2D2D2D" stroke-width="1.6505" stroke-linecap="square" stroke-miterlimit="10" x1="1091.18" y1="565.28" x2="1091.18" y2="551.34"/>
			</g>
		</g>
		<g>
			<path opacity="0.3" fill="#FFFFFF" d="M1364.59,635.1c-8.09,0-14.8,5.82-14.8,15.51l14.8-0.01L1364.59,635.1z"/>
			<path fill="none" stroke="#2D2D2D" stroke-width="0.918" stroke-miterlimit="10" d="M1349.79,650.61c0-9.69,6.7-15.51,14.8-15.51
				"/>
			
				<line fill="none" stroke="#2D2D2D" stroke-width="1.8359" stroke-linecap="square" stroke-miterlimit="10" x1="1364.95" y1="650.9" x2="1364.95" y2="635.4"/>
		</g>
	</g>
</g>
<g id="nopointer-skg">
	<g id="text">
		<text transform="matrix(1 0 0 1 1087.3219 499.1043)"><tspan x="0" y="0" fill="#2D2D2D"  font-family="'Arial'" font-weight="bold"  font-size="5.9631px">I.T</tspan><tspan x="-7.95" y="7.16" fill="#2D2D2D"  font-family="'Arial'" font-weight="bold"  font-size="5.9631px">COMMS</tspan></text>
		<text transform="matrix(1 0 0 1 939.4357 503.864)" fill="#2D2D2D"  font-family="'Arial'" font-weight="bold"  font-size="5.9631px">TRAINING ROOM 01</text>
		<text transform="matrix(1 0 0 1 952.2203 635.3983)"><tspan x="0" y="0" fill="#2D2D2D"  font-family="'Arial'" font-weight="bold"  font-size="5.9631px">KITCHEN</tspan><tspan x="9.93" y="7.16" fill="#2D2D2D"  font-family="'Arial'" font-weight="bold"  font-size="5.9631px">02</tspan></text>
		<text transform="matrix(1 0 0 1 813.5421 499.1043)"><tspan x="0" y="0" fill="#2D2D2D"  font-family="'Arial'" font-weight="bold"  font-size="5.9631px">MEETING</tspan><tspan x="4.31" y="7.16" fill="#2D2D2D"  font-family="'Arial'" font-weight="bold"  font-size="5.9631px">ROOM</tspan><tspan x="11.43" y="14.31" fill="#2D2D2D"  font-family="'Arial'" font-weight="bold"  font-size="5.9631px">B</tspan></text>
		<text transform="matrix(1 0 0 1 740.1964 499.1033)"><tspan x="0" y="0" fill="#2D2D2D"  font-family="'Arial'" font-weight="bold"  font-size="5.9631px">MEETING</tspan><tspan x="4.31" y="7.16" fill="#2D2D2D"  font-family="'Arial'" font-weight="bold"  font-size="5.9631px">ROOM</tspan><tspan x="11.43" y="14.31" fill="#2D2D2D"  font-family="'Arial'" font-weight="bold"  font-size="5.9631px">A</tspan></text>
		<text transform="matrix(1 0 0 1 675.5216 638.0204)" fill="#2D2D2D"  font-family="'Arial'" font-weight="bold"  font-size="5.9631px">MAIN OFFICE</text>
		<text transform="matrix(1 0 0 1 856.673 638.0193)" fill="#2D2D2D"  font-family="'Arial'" font-weight="bold"  font-size="5.9631px">STORE</text>
		<g>
			<g>
				<g>
					<path fill="#008246" d="M949.31,626.29c-3.31,0-6-2.69-6-6c0-3.31,2.69-6,6-6c3.31,0,6,2.69,6,6
						C955.31,623.6,952.62,626.29,949.31,626.29z"/>
				</g>
				<g id="aid_2_">
					<polygon fill="#FFFFFF" points="953.05,619.27 950.36,619.27 950.36,616.58 948.29,616.58 948.29,619.27 945.58,619.27 
						945.58,621.36 948.29,621.36 948.29,624.05 950.36,624.05 950.36,621.36 953.05,621.36 					"/>
				</g>
			</g>
		</g>
		<g>
			<circle fill="#003E87" cx="655.23" cy="532.31" r="6"/>
			<path fill="#FEFEFE" d="M656.68,533.09c0,0.15-0.12,0.27-0.27,0.27s-0.27-0.12-0.27-0.27v-1.81l0,0c0-0.39,0.33-0.72,0.72-0.72
				l0,0h1.3l0,0c0.39,0,0.72,0.33,0.72,0.72l0,0v1.81c0,0.15-0.12,0.27-0.27,0.27s-0.27-0.12-0.27-0.27v-1.66h-0.15v4.49
				c0,0.18-0.15,0.33-0.33,0.33s-0.33-0.15-0.33-0.33v-2.59h-0.06v2.59c0,0.18-0.15,0.33-0.33,0.33s-0.33-0.15-0.33-0.33v-4.49
				h-0.15L656.68,533.09L656.68,533.09z"/>
			<circle fill="#FEFEFE" cx="657.53" cy="529.84" r="0.6"/>
			<path fill="#FEFEFE" d="M651.62,532.85c-0.03,0.12-0.18,0.21-0.3,0.15c-0.12-0.03-0.21-0.18-0.18-0.3l0.48-1.69
				c0.09-0.3,0.39-0.54,0.69-0.54l0,0l0,0h0.81l0,0c0,0,0,0,0.03,0c0.33,0,0.6,0.21,0.69,0.54l0.48,1.69
				c0.03,0.12-0.03,0.27-0.18,0.3c-0.12,0.03-0.27-0.03-0.3-0.15l-0.45-1.57h-0.15l0.78,2.68h-0.72v1.99c0,0.15-0.12,0.27-0.27,0.27
				s-0.27-0.12-0.27-0.27v-1.99h-0.12v1.99c0,0.15-0.12,0.27-0.27,0.27s-0.27-0.12-0.27-0.27v-1.99h-0.66l0.78-2.68h-0.15
				L651.62,532.85L651.62,532.85z"/>
			<circle fill="#FEFEFE" cx="652.76" cy="529.81" r="0.6"/>
			
				<line fill="none" stroke="#FEFEFE" stroke-width="0.2427" stroke-miterlimit="10" x1="655.23" y1="527.34" x2="655.23" y2="537.17"/>
		</g>
		<g>
			<circle fill="#008246" cx="525.84" cy="565.44" r="6"/>
			<polygon fill="#FFFFFF" points="528.89,564.3 528.89,569.63 528.14,570.39 522.2,570.39 522.92,569.75 522.92,564.33 
				521.62,564.33 525.84,560.5 530.04,564.3 			"/>
			<g id="exit_8_">
				<g>
					<g>
						<path fill="#008246" d="M527.05,569.48l-1.45-2.65c-0.03,0.3-0.12,0.84-0.15,1.09c-0.03,0.33-0.36,0.42-0.51,0.45l0,0h-2.89
							l0.72-0.87h1.75l0.12-1.6l0.69-1.27h-0.6h-0.03c-0.03,0.03-0.09,0.12-0.12,0.18l-0.48,0.75c-0.06,0.12-0.18,0.18-0.33,0.18
							c-0.06,0-0.15-0.03-0.21-0.06c-0.18-0.12-0.24-0.33-0.12-0.51l0.48-0.75l0,0c0.15-0.21,0.27-0.33,0.36-0.39
							c0.15-0.09,0.3-0.09,0.39-0.09c0.03,0,0.03,0,0.06,0h1.15c0.12,0,0.24-0.03,0.33-0.03c0.6,0,0.87,0.18,0.96,0.3
							c0.03,0.03,0.06,0.06,0.09,0.09l0.66,0.87h1.03c0.21,0,0.39,0.18,0.39,0.39s-0.18,0.39-0.39,0.39h-1.21
							c-0.12,0-0.24-0.06-0.3-0.15l-0.51-0.69l-0.48,1.06l1.69,3.44L527.05,569.48z"/>
						<path fill="#FFFFFF" d="M526.21,563.91c0.57,0,0.81,0.18,0.9,0.3c0.03,0.03,0.06,0.03,0.09,0.06l0.69,0.9h1.06
							c0.15,0,0.3,0.12,0.3,0.3s-0.12,0.3-0.3,0.3h-1.21c-0.09,0-0.18-0.03-0.24-0.12l-0.6-0.78l-0.57,1.24l1.66,3.35l-0.9-0.03
							l-1.54-2.8c0,0-0.15,0.99-0.18,1.33c-0.03,0.36-0.45,0.36-0.45,0.36h-2.71l0.6-0.72h1.81l0.12-1.69l0.72-1.39l0,0h-0.75h-0.03
							h-0.03c-0.03,0.03-0.12,0.12-0.15,0.21l-0.48,0.75c-0.06,0.09-0.15,0.15-0.24,0.15c-0.06,0-0.12-0.03-0.15-0.06
							c-0.15-0.09-0.18-0.27-0.09-0.42l0.48-0.75l0,0c0.12-0.21,0.24-0.33,0.33-0.36c0.12-0.09,0.27-0.09,0.36-0.09
							c0.03,0,0.03,0,0.06,0h1.18C525.99,563.91,526.12,563.91,526.21,563.91 M526.21,563.75v0.15V563.75c-0.12,0-0.21,0-0.33,0.03
							h-1.15c-0.03,0-0.03,0-0.06,0c-0.12,0-0.27,0.03-0.42,0.12c-0.12,0.06-0.24,0.21-0.39,0.42c0,0,0,0,0,0.03l-0.48,0.75
							c-0.12,0.21-0.06,0.51,0.15,0.63c0.06,0.06,0.15,0.06,0.24,0.06c0.15,0,0.3-0.09,0.39-0.21l0.48-0.75
							c0.03-0.06,0.06-0.09,0.09-0.12l0,0h0.48l-0.6,1.15l-0.03,0.03v0.03l-0.09,1.51h-1.66h-0.09l-0.06,0.06l-0.6,0.72l-0.24,0.27
							h0.36h2.71l0,0l0,0c0,0,0.12,0,0.27-0.06c0.18-0.09,0.3-0.24,0.33-0.45c0.03-0.18,0.09-0.54,0.12-0.84l1.3,2.38l0.03,0.09
							h0.09l0.9,0.03h0.27l-0.12-0.24l-1.63-3.29l0.42-0.9l0.42,0.57c0.09,0.12,0.21,0.18,0.36,0.18h1.21
							c0.24,0,0.45-0.21,0.45-0.45s-0.21-0.45-0.45-0.45h-0.96l-0.63-0.84c-0.03-0.03-0.06-0.06-0.09-0.09
							c-0.09-0.09-0.18-0.15-0.33-0.21C526.72,563.78,526.48,563.75,526.21,563.75L526.21,563.75z"/>
					</g>
					<g>
						<path fill="#008246" d="M526.75,563.87c-0.42,0-0.78-0.36-0.78-0.78s0.36-0.78,0.78-0.78s0.78,0.36,0.78,0.78
							S527.17,563.87,526.75,563.87z"/>
						<path fill="#FFFFFF" d="M526.75,562.37c0.39,0,0.72,0.33,0.72,0.69s-0.33,0.69-0.72,0.69s-0.72-0.33-0.72-0.69
							S526.36,562.37,526.75,562.37 M526.75,562.22c-0.48,0-0.87,0.39-0.87,0.87s0.39,0.87,0.87,0.87s0.87-0.39,0.87-0.87
							S527.2,562.22,526.75,562.22L526.75,562.22z"/>
					</g>
				</g>
			</g>
		</g>
		<text transform="matrix(1 0 0 1 801.5421 610.3137)"><tspan x="0" y="0" fill="#2D2D2D"  font-family="'Arial'" font-weight="bold"  font-size="5.9631px">MEETING</tspan><tspan x="4.31" y="7.16" fill="#2D2D2D"  font-family="'Arial'" font-weight="bold"  font-size="5.9631px">ROOM</tspan><tspan x="11.43" y="14.31" fill="#2D2D2D"  font-family="'Arial'" font-weight="bold"  font-size="5.9631px">C</tspan></text>
		<text transform="matrix(1 0 0 1 801.5422 652.5615)"><tspan x="0" y="0" fill="#2D2D2D"  font-family="'Arial'" font-weight="bold"  font-size="5.9631px">MEETING</tspan><tspan x="4.31" y="7.16" fill="#2D2D2D"  font-family="'Arial'" font-weight="bold"  font-size="5.9631px">ROOM</tspan><tspan x="11.43" y="14.31" fill="#2D2D2D"  font-family="'Arial'" font-weight="bold"  font-size="5.9631px">D</tspan></text>
		<g>
			<g>
				<g>
					<path fill="#FF0000" d="M966.25,672.32c-3.31,0-6-2.69-6-6s2.69-6,6-6s6,2.69,6,6S969.56,672.32,966.25,672.32z"/>
				</g>
				<g id="fire_3_">
					<g>
						<path fill="#FFFFFF" d="M969.42,664v-1.27l-1.9,0.23v0.23h-0.99v-0.48h-0.25c0,0,0-0.11-0.08-0.23
							c-0.23-0.34-0.74-0.37-0.96-0.11c-0.45,0.45,0,0.93,0,0.93c-0.45,0.2-0.82,0.54-0.96,0.85c-0.17,0.42,0.25,0.48,0.37,0.31
							c0.54-0.82,1.1-0.79,1.1-0.79v0.2c-0.93,0.31-0.88,1.16-0.88,1.16s0,4.92,0,5.26c0,0.28,0.28,0.25,0.28,0.25
							c0.4,0,0.91,0,0.91,0s0.74,0,1.02,0s0.31-0.23,0.31-0.4s0-4.3,0-5.15s-0.85-1.16-0.85-1.16v-0.28h0.99v0.23L969.42,664z
							 M965.65,663.04c-0.14,0-0.25-0.11-0.25-0.25c0-0.14,0.11-0.25,0.25-0.25c0.14,0,0.25,0.11,0.25,0.25
							C965.91,662.93,965.82,663.04,965.65,663.04z"/>
					</g>
				</g>
			</g>
		</g>
		<g>
			<g>
				<circle fill="#003E87" cx="692.27" cy="477.85" r="6"/>
				<path fill="#FEFEFE" d="M690.9,478.11c0,0.17-0.26,0.26-0.34,0.17c-0.17,0-0.26-0.26-0.17-0.34l0.69-2.06
					c0.09-0.34,0.43-0.6,0.86-0.6l0,0l0,0h1.03l0,0l0,0c0.43,0,0.86,0.26,0.94,0.6l0.6,2.06c0,0.17,0,0.34-0.17,0.34
					s-0.34,0-0.34-0.17l-0.51-1.89h-0.26l0.94,3.26h-0.69v2.4c0,0.17-0.17,0.34-0.34,0.34s-0.34-0.17-0.34-0.34v-2.4h-0.43v2.4
					c0,0.17-0.17,0.34-0.34,0.34s-0.34-0.17-0.34-0.34v-2.4h-0.69l0.94-3.26h-0.26L690.9,478.11L690.9,478.11z"/>
				<circle fill="#FEFEFE" cx="692.36" cy="474.42" r="0.69"/>
			</g>
			<g>
				<circle fill="#003E87" cx="643.07" cy="477.85" r="6"/>
				<path fill="#FEFEFE" d="M642.04,478.28c0,0.17-0.17,0.34-0.34,0.34s-0.34-0.17-0.34-0.34v-2.14l0,0c0-0.51,0.43-0.86,0.86-0.86
					l0,0h1.54l0,0c0.51,0,0.86,0.43,0.86,0.86l0,0v2.14c0,0.17-0.17,0.34-0.34,0.34s-0.34-0.17-0.34-0.34v-1.97l0,0v5.4
					c0,0.26-0.17,0.43-0.43,0.43s-0.43-0.17-0.43-0.43v-3.17h-0.17v3.17c0,0.26-0.17,0.43-0.43,0.43s-0.43-0.17-0.43-0.43v-5.4
					h-0.17L642.04,478.28L642.04,478.28L642.04,478.28z"/>
				<circle fill="#FEFEFE" cx="643.07" cy="474.34" r="0.69"/>
			</g>
		</g>
		<g>
			<g>
				<g>
					<path fill="#FF0000" d="M667.41,565.44c-3.31,0-6-2.69-6-6s2.69-6,6-6c3.31,0,6,2.69,6,6S670.73,565.44,667.41,565.44z"/>
				</g>
				<g id="fire_1_">
					<g>
						<path fill="#FFFFFF" d="M670.58,557.12v-1.27l-1.9,0.23v0.23h-0.99v-0.48h-0.25c0,0,0-0.11-0.08-0.23
							c-0.23-0.34-0.74-0.37-0.96-0.11c-0.45,0.45,0,0.93,0,0.93c-0.45,0.2-0.82,0.54-0.96,0.85c-0.17,0.42,0.25,0.48,0.37,0.31
							c0.54-0.82,1.1-0.79,1.1-0.79v0.2c-0.93,0.31-0.88,1.16-0.88,1.16s0,4.92,0,5.26c0,0.28,0.28,0.25,0.28,0.25
							c0.4,0,0.91,0,0.91,0s0.74,0,1.02,0s0.31-0.23,0.31-0.4c0-0.17,0-4.3,0-5.15s-0.85-1.16-0.85-1.16v-0.28h0.99v0.23
							L670.58,557.12z M666.82,556.16c-0.14,0-0.25-0.11-0.25-0.25c0-0.14,0.11-0.25,0.25-0.25c0.14,0,0.25,0.11,0.25,0.25
							C667.07,556.05,666.99,556.16,666.82,556.16z"/>
					</g>
				</g>
			</g>
		</g>
	</g>
	<g id="icons">
		<g>
			<g>
				<path fill="#FF0000" d="M980.79,672.17c-3.13,0-5.67-2.54-5.67-5.67s2.54-5.67,5.67-5.67s5.67,2.54,5.67,5.67
					S983.91,672.17,980.79,672.17z"/>
				<path fill="none" d="M980.79,661.17c2.95,0,5.33,2.39,5.33,5.33s-2.39,5.33-5.33,5.33s-5.33-2.39-5.33-5.33
					S977.84,661.17,980.79,661.17 M980.79,660.5c-3.31,0-6,2.69-6,6s2.69,6,6,6s6-2.69,6-6S984.09,660.5,980.79,660.5L980.79,660.5z
					"/>
			</g>
			<path fill="#FFFFFF" d="M983.42,665.95c-0.61,0.87-1.03,0.63-1.03,0.63c0.39-0.85-0.09-2.02-0.09-2.02
				c-0.73,0.87-0.79,0.6-0.79,0.6c0.32-1.11-0.73-2.54-0.73-2.54c0.51,1.26-0.66,2.51-0.66,2.51c-0.06-0.41-0.33-0.79-0.33-0.79
				c-0.89,1.47-0.73,2.04-0.73,2.04c-0.15-0.29-0.66-0.53-0.66-0.53c-1.62,4.03,1.61,4.19,1.61,4.19c-1.57-1.13-1.19-1.87-1.19-1.87
				c0.25,0.27,0.73,0.28,0.73,0.28c-0.19-0.42-0.06-0.95-0.06-0.95c0.33,0.59,0.9,0.53,0.9,0.53c-0.41-0.7,0.51-1.56,0.51-1.56
				c-0.13,0.39,0.17,1.45,0.17,1.45c0.02-0.09,0.11-0.13,0.29-0.24c0.17-0.1,0.3-0.37,0.3-0.37c0.21,0.81,0.32,0.92,0.32,0.92
				c0.26,0.05,0.51-0.27,0.51-0.27c0.53,1.43-1.22,2.07-1.22,2.07C984.49,669.98,983.42,665.95,983.42,665.95z"/>
		</g>
		<rect x="120.5" y="76.23" fill="none" stroke="#000000" stroke-width="2" stroke-miterlimit="10" width="232" height="349.11"/>
		<g>
			<circle fill="#003E87" cx="156.4" cy="388.47" r="22.4"/>
			<path fill="#FEFEFE" d="M161.8,391.39c0,0.56-0.45,1.01-1.01,1.01c-0.56,0-1.01-0.45-1.01-1.01v-6.75l0,0
				c0-1.46,1.24-2.7,2.7-2.7l0,0h4.84l0,0c1.46,0,2.7,1.24,2.7,2.7l0,0v6.75c0,0.56-0.45,1.01-1.01,1.01
				c-0.56,0-1.01-0.45-1.01-1.01v-6.19h-0.56v16.77c0,0.68-0.56,1.24-1.24,1.24c-0.68,0-1.24-0.56-1.24-1.24v-9.68h-0.23v9.68
				c0,0.68-0.56,1.24-1.24,1.24s-1.24-0.56-1.24-1.24V385.2h-0.56L161.8,391.39L161.8,391.39z"/>
			<circle fill="#FEFEFE" cx="164.95" cy="379.24" r="2.25"/>
			<path fill="#FEFEFE" d="M142.89,390.49c-0.11,0.45-0.68,0.79-1.13,0.56c-0.45-0.11-0.79-0.68-0.68-1.13l1.8-6.3
				c0.34-1.13,1.46-2.03,2.59-2.03l0,0l0,0h3.04l0,0c0,0,0,0,0.11,0c1.24,0,2.25,0.79,2.59,2.03l1.8,6.3
				c0.11,0.45-0.11,1.01-0.68,1.13c-0.45,0.11-1.01-0.11-1.13-0.56l-1.69-5.85h-0.56l2.93,10.02h-2.7v7.43
				c0,0.56-0.45,1.01-1.01,1.01c-0.56,0-1.01-0.45-1.01-1.01v-7.43h-0.45v7.43c0,0.56-0.45,1.01-1.01,1.01
				c-0.56,0-1.01-0.45-1.01-1.01v-7.43h-2.48l2.93-10.02h-0.56L142.89,390.49L142.89,390.49z"/>
			<circle fill="#FEFEFE" cx="147.17" cy="379.12" r="2.25"/>
			
				<line fill="none" stroke="#FEFEFE" stroke-width="0.9059" stroke-miterlimit="10" x1="156.4" y1="369.89" x2="156.4" y2="406.59"/>
		</g>
		<text transform="matrix(1 0 0 1 191.718 395.0657)" font-family="'Arial'" font-size="14px">TOILETS</text>
		<g>
			<g>
				<path fill="#FF0000" d="M156.4,301.4c-11.7,0-21.2-9.5-21.2-21.2c0-11.7,9.5-21.2,21.2-21.2s21.2,9.5,21.2,21.2
					C177.6,291.9,168.1,301.4,156.4,301.4z"/>
				<path fill="none" d="M156.4,260.3c11,0,19.9,8.9,19.9,19.9s-8.9,19.9-19.9,19.9s-19.9-8.9-19.9-19.9S145.4,260.3,156.4,260.3
					 M156.4,257.8c-12.4,0-22.4,10.1-22.4,22.4s10.1,22.4,22.4,22.4s22.4-10.1,22.4-22.4S168.7,257.8,156.4,257.8L156.4,257.8z"/>
			</g>
			<g id="fire_4_">
				<g>
					<path fill="#FFFFFF" d="M167.6,272v-4.5l-6.7,0.8v0.8h-3.5v-1.7h-0.9c0,0,0-0.4-0.3-0.8c-0.8-1.2-2.6-1.3-3.4-0.4
						c-1.6,1.6,0,3.3,0,3.3c-1.6,0.7-2.9,1.9-3.4,3c-0.6,1.5,0.9,1.7,1.3,1.1c1.9-2.9,3.9-2.8,3.9-2.8v0.7c-3.3,1.1-3.1,4.1-3.1,4.1
						s0,17.4,0,18.6c0,1,1,0.9,1,0.9c1.4,0,3.2,0,3.2,0s2.6,0,3.6,0s1.1-0.8,1.1-1.4c0-0.6,0-15.2,0-18.2s-3-4.1-3-4.1v-1h3.5v0.8
						L167.6,272z M154.3,268.6c-0.5,0-0.9-0.4-0.9-0.9s0.4-0.9,0.9-0.9s0.9,0.4,0.9,0.9S154.9,268.6,154.3,268.6z"/>
				</g>
			</g>
		</g>
		<text transform="matrix(1 0 0 1 191.718 286.975)" font-family="'Arial'" font-size="14px">EXTINGUISHER</text>
		<g>
			<g>
				<circle fill="#008246" cx="156.4" cy="226.06" r="22.4"/>
				<g>
					<path fill="#FFFFFF" d="M156.1,225.39c2.46,0,4.83,0.44,7.03,1.3c1.77,0.69,3.45,1.66,4.99,2.89c1.61,1.28,2.74,2.57,3.37,3.4
						c-0.64,0.82-1.76,2.12-3.37,3.4c-1.54,1.22-3.22,2.19-4.99,2.89c-2.21,0.86-4.57,1.3-7.03,1.3c-2.46,0-4.82-0.44-7.01-1.3
						c-1.76-0.69-3.42-1.66-4.95-2.88c-1.6-1.28-2.71-2.58-3.34-3.4c0.63-0.82,1.74-2.12,3.34-3.4c1.52-1.22,3.19-2.19,4.95-2.88
						C151.28,225.83,153.64,225.39,156.1,225.39 M156.1,223.68c-11.87,0-17.38,9.3-17.38,9.3s5.51,9.3,17.38,9.3
						c11.87,0,17.5-9.3,17.5-9.3S167.97,223.68,156.1,223.68L156.1,223.68z"/>
				</g>
				<g>
					<path fill="#FFFFFF" d="M156.22,226.1c1.84,0,3.56,0.71,4.86,2.02c1.3,1.3,2.02,3.03,2.02,4.86c0,1.84-0.71,3.56-2.02,4.86
						c-1.3,1.3-3.03,2.02-4.86,2.02c-1.84,0-3.56-0.71-4.86-2.02c-1.3-1.3-2.02-3.03-2.02-4.86c0-1.84,0.71-3.56,2.02-4.86
						C152.66,226.81,154.38,226.1,156.22,226.1 M156.22,224.39c-4.74,0-8.59,3.85-8.59,8.59c0,4.74,3.84,8.59,8.59,8.59
						c4.75,0,8.59-3.85,8.59-8.59S160.97,224.39,156.22,224.39L156.22,224.39z"/>
				</g>
				<g>
					<path fill="#FFFFFF" d="M161.41,206.67c0,0,0.68,2.07,1.61,3.5c0.75,1.15,0.68,3.58-1.61,3.58s-2.36-2.43-1.61-3.58
						C160.73,208.74,161.41,206.67,161.41,206.67z"/>
				</g>
				<g>
					<path fill="#FFFFFF" d="M156.16,211.57c0,0,0.68,2.07,1.61,3.5c0.75,1.15,0.68,3.58-1.61,3.58s-2.36-2.43-1.61-3.58
						C155.48,213.64,156.16,211.57,156.16,211.57z"/>
				</g>
				<g>
					<path fill="#FFFFFF" d="M161.54,215.32c0,0,0.68,2.07,1.61,3.5c0.75,1.15,0.68,3.58-1.61,3.58s-2.36-2.43-1.61-3.58
						C160.86,217.39,161.54,215.32,161.54,215.32z"/>
				</g>
			</g>
		</g>
		<g>
			<g>
				<path fill="#008246" d="M156.4,193.03c-11.7,0-21.2-9.5-21.2-21.2s9.5-21.2,21.2-21.2s21.2,9.5,21.2,21.2
					S168.1,193.03,156.4,193.03z"/>
				<path fill="none" d="M156.4,152.03c11,0,19.9,8.9,19.9,19.9s-8.9,19.9-19.9,19.9s-19.9-8.9-19.9-19.9S145.4,152.03,156.4,152.03
					 M156.4,149.53c-12.4,0-22.4,10.1-22.4,22.4s10.1,22.4,22.4,22.4s22.4-10.1,22.4-22.4S168.7,149.53,156.4,149.53L156.4,149.53z"
					/>
			</g>
			<g id="aid_1_">
				<polygon fill="#FFFFFF" points="169.6,168.23 160.1,168.23 160.1,158.73 152.8,158.73 152.8,168.23 143.2,168.23 143.2,175.63 
					152.8,175.63 152.8,185.13 160.1,185.13 160.1,175.63 169.6,175.63 				"/>
			</g>
		</g>
		<text transform="matrix(1 0 0 1 191.7178 178.8844)" font-family="'Arial'" font-size="14px">FIRST AID</text>
		<text transform="matrix(1 0 0 1 191.7178 232.9301)" font-family="'Arial'" font-size="14px">EYE WASH</text>
		<g>
			<g>
				<path fill="#FF0000" d="M156.4,355.53c-11.7,0-21.2-9.5-21.2-21.2s9.5-21.2,21.2-21.2s21.2,9.5,21.2,21.2
					S168.1,355.53,156.4,355.53z"/>
				<path fill="none" d="M156.4,314.43c11,0,19.9,8.9,19.9,19.9s-8.9,19.9-19.9,19.9s-19.9-8.9-19.9-19.9S145.4,314.43,156.4,314.43
					 M156.4,311.93c-12.4,0-22.4,10-22.4,22.4s10.1,22.4,22.4,22.4s22.4-10,22.4-22.4S168.7,311.93,156.4,311.93L156.4,311.93z"/>
			</g>
			<path fill="#FFFFFF" d="M166.2,332.23c-2.3,3.2-3.9,2.4-3.9,2.4c1.5-3.2-0.4-7.5-0.4-7.5c-2.7,3.2-3,2.2-3,2.2
				c1.2-4.1-2.7-9.5-2.7-9.5c1.9,4.7-2.5,9.4-2.5,9.4c-0.2-1.5-1.2-2.9-1.2-2.9c-3.3,5.5-2.7,7.6-2.7,7.6c-0.6-1.1-2.5-2-2.5-2
				c-6.1,15.1,6,15.6,6,15.6c-5.9-4.2-4.4-7-4.4-7c0.9,1,2.7,1,2.7,1c-0.7-1.6-0.2-3.5-0.2-3.5c1.2,2.2,3.4,2,3.4,2
				c-1.5-2.6,1.9-5.8,1.9-5.8c-0.5,1.5,0.6,5.4,0.6,5.4c0.1-0.4,0.4-0.5,1.1-0.9c0.6-0.4,1.1-1.4,1.1-1.4c0.8,3,1.2,3.4,1.2,3.4
				c1,0.2,1.9-1,1.9-1c2,5.4-4.6,7.7-4.6,7.7C170.2,347.33,166.2,332.23,166.2,332.23z"/>
		</g>
		<text transform="matrix(1 0 0 1 191.7179 341.0205)" font-family="'Arial'" font-size="14px">FIRE BLANKET</text>
		<g>
			<circle fill="#008246" cx="157.6" cy="118.4" r="19.9"/>
			<polygon fill="#FFFFFF" points="167.7,114.6 167.7,132.3 165.2,134.8 145.5,134.8 147.9,132.7 147.9,114.7 143.6,114.7 
				157.6,102 171.5,114.6 			"/>
			<g id="exit_14_">
				<g>
					<g>
						<path fill="#008246" d="M161.6,131.8l-4.8-8.8c-0.1,1-0.4,2.8-0.5,3.6c-0.1,1.1-1.2,1.4-1.7,1.5l0,0H145l2.4-2.9h5.8l0.4-5.3
							l2.3-4.2h-2h-0.1c-0.1,0.1-0.3,0.4-0.4,0.6l-1.6,2.5c-0.2,0.4-0.6,0.6-1.1,0.6c-0.2,0-0.5-0.1-0.7-0.2
							c-0.6-0.4-0.8-1.1-0.4-1.7l1.6-2.5l0,0c0.5-0.7,0.9-1.1,1.2-1.3c0.5-0.3,1-0.3,1.3-0.3c0.1,0,0.1,0,0.2,0h3.8
							c0.4,0,0.8-0.1,1.1-0.1c2,0,2.9,0.6,3.2,1c0.1,0.1,0.2,0.2,0.3,0.3l2.2,2.9h3.4c0.7,0,1.3,0.6,1.3,1.3s-0.6,1.3-1.3,1.3h-4
							c-0.4,0-0.8-0.2-1-0.5l-1.7-2.3l-1.6,3.5l5.6,11.4L161.6,131.8z"/>
						<path fill="#FFFFFF" d="M158.8,113.3c1.9,0,2.7,0.6,3,1c0.1,0.1,0.2,0.1,0.3,0.2l2.3,3h3.5c0.5,0,1,0.4,1,1s-0.4,1-1,1h-4
							c-0.3,0-0.6-0.1-0.8-0.4l-2-2.6l-1.9,4.1l5.5,11.1l-3-0.1l-5.1-9.3c0,0-0.5,3.3-0.6,4.4c-0.1,1.2-1.5,1.2-1.5,1.2h-9l2-2.4h6
							l0.4-5.6l2.4-4.6l0,0h-2.5h-0.1h-0.1c-0.1,0.1-0.4,0.4-0.5,0.7l-1.6,2.5c-0.2,0.3-0.5,0.5-0.8,0.5c-0.2,0-0.4-0.1-0.5-0.2
							c-0.5-0.3-0.6-0.9-0.3-1.4l1.6-2.5l0,0c0.4-0.7,0.8-1.1,1.1-1.2c0.4-0.3,0.9-0.3,1.2-0.3c0.1,0,0.1,0,0.2,0h3.9
							C158.1,113.3,158.5,113.3,158.8,113.3 M158.8,112.8v0.5V112.8c-0.4,0-0.7,0-1.1,0.1h-3.8c-0.1,0-0.1,0-0.2,0
							c-0.4,0-0.9,0.1-1.4,0.4c-0.4,0.2-0.8,0.7-1.3,1.4c0,0,0,0,0,0.1l-1.6,2.5c-0.4,0.7-0.2,1.7,0.5,2.1c0.2,0.2,0.5,0.2,0.8,0.2
							c0.5,0,1-0.3,1.3-0.7l1.6-2.5c0.1-0.2,0.2-0.3,0.3-0.4l0,0h1.6l-2,3.8l-0.1,0.1v0.1l-0.3,5h-5.5h-0.3l-0.2,0.2l-2,2.4
							l-0.8,0.9h1.2h9l0,0l0,0c0,0,0.4,0,0.9-0.2c0.6-0.3,1-0.8,1.1-1.5c0.1-0.6,0.3-1.8,0.4-2.8l4.3,7.9l0.1,0.3h0.3l3,0.1h0.9
							l-0.4-0.8l-5.4-10.9l1.4-3l1.4,1.9c0.3,0.4,0.7,0.6,1.2,0.6h4c0.8,0,1.5-0.7,1.5-1.5s-0.7-1.5-1.5-1.5h-3.2l-2.1-2.8
							c-0.1-0.1-0.2-0.2-0.3-0.3c-0.3-0.3-0.6-0.5-1.1-0.7C160.5,112.9,159.7,112.8,158.8,112.8L158.8,112.8z"/>
					</g>
					<g>
						<path fill="#008246" d="M160.6,113.2c-1.4,0-2.6-1.2-2.6-2.6s1.2-2.6,2.6-2.6s2.6,1.2,2.6,2.6S162,113.2,160.6,113.2z"/>
						<path fill="#FFFFFF" d="M160.6,108.2c1.3,0,2.4,1.1,2.4,2.3s-1.1,2.3-2.4,2.3s-2.4-1.1-2.4-2.3S159.3,108.2,160.6,108.2
							 M160.6,107.7c-1.6,0-2.9,1.3-2.9,2.9s1.3,2.9,2.9,2.9c1.6,0,2.9-1.3,2.9-2.9S162.1,107.7,160.6,107.7L160.6,107.7z"/>
					</g>
				</g>
			</g>
		</g>
		<text transform="matrix(1 0 0 1 192.4901 125.5197)" font-family="'Arial'" font-size="14px">EMERGHENCY EXIT</text>
	</g>
</g>
</svg>
