<?xml version="1.0" encoding="utf-8"?>
<!-- Generator: Adobe Illustrator 21.1.0, SVG Export Plug-In . SVG Version: 6.00 Build 0)  -->
<svg version="1.1" xmlns="http://www.w3.org/2000/svg" xmlns:xlink="http://www.w3.org/1999/xlink" x="0px" y="0px" width="1920px"
	 height="1080px" viewBox="0 0 1920 1080" enable-background="new 0 0 1920 1080" xml:space="preserve">
<g id="base">
	<g id="rooms">
		<g>
			<polygon fill="#F4F1D4" points="238.41,819.28 238.41,434.12 560.69,434.12 560.69,508.66 1003.42,508.66 1003.42,434.6 
				1300.44,434.6 1300.44,548.8 1313.94,548.8 1313.94,434.6 1416.35,434.6 1416.35,523.35 1464.58,523.35 1464.58,598.21 
				1653.05,598.21 1653.05,612.81 1681.83,612.81 1681.83,819.28 			"/>
			<path fill="#FFFFFF" d="M556.2,438.61v65.56v8.98h8.98h433.74h8.98v-8.98v-65.08h288.04v105.22v8.98h8.98h4.51h8.98v-8.98V439.09
				h93.43v79.77v8.98h8.98h39.25v65.88v8.98h8.98h179.49v5.61v8.98h8.98h19.79v197.48H242.9V438.61H556.2 M565.19,429.63H233.91
				v394.14h1452.41V608.32h-28.78v-14.6h-188.47v-74.86h-48.23v-88.75h-111.4v114.21h-4.51V430.11H998.93v74.06H565.19V429.63
				L565.19,429.63z"/>
		</g>
		<g>
			<rect x="1480.68" y="434.6" fill="#D9D8D6" width="138.03" height="147.89"/>
			<g>
				<path fill="#FFFFFF" d="M1614.22,439.09V578h-129.05V439.09H1614.22 M1623.2,430.11h-147.01v156.88h147.01V430.11L1623.2,430.11
					z"/>
			</g>
		</g>
		<g>
			<polygon fill="#D9D8D6" points="1666.72,597.84 1666.72,582.49 1634.9,582.49 1634.9,434.6 1684.07,434.6 1684.07,597.84 			"/>
			<g>
				<path fill="#FFFFFF" d="M1679.58,439.09v154.26h-8.38v-6.36V578h-8.98h-22.83V439.09H1679.58 M1688.57,430.11h-58.16v156.88
					h31.82v15.35h26.34V430.11L1688.57,430.11z"/>
			</g>
		</g>
		<g>
			<rect x="578.19" y="434.12" fill="#D9D8D6" width="131.57" height="57.84"/>
			<path fill="#FFFFFF" d="M705.28,438.61v48.86H582.69v-48.86H705.28 M714.26,429.63H573.7v66.83h140.56V429.63L714.26,429.63z"/>
		</g>
		<g>
			<polygon fill="#FBCECF" points="726.61,491.96 726.61,434.13 987.14,434.59 987.14,491.96 			"/>
			<g>
				<path fill="#FFFFFF" d="M731.1,438.63l251.54,0.45v48.4H731.1V438.63 M722.12,429.63v66.83h269.51v-66.35L722.12,429.63
					L722.12,429.63z"/>
			</g>
		</g>
		<g>
			<rect x="1432.02" y="434.6" fill="#D9D8D6" width="32.57" height="70.13"/>
			<path fill="#FFFFFF" d="M1460.09,439.09v61.15h-23.58v-61.15H1460.09 M1469.07,430.11h-41.55v79.11h41.55V430.11L1469.07,430.11z
				"/>
		</g>
	</g>
	<g id="internal">
		<polyline fill="none" stroke="#4D4D4E" stroke-width="6.7378" stroke-miterlimit="10" points="1472.82,423.03 1472.82,590.35 
			1626.66,590.35 1626.66,423.03 		"/>
		<polyline fill="none" stroke="#4D4D4E" stroke-width="6.7378" stroke-miterlimit="10" points="1626.66,590.35 1661.47,590.35 
			1661.47,604.95 1692.92,604.95 		"/>
		<polyline fill="none" stroke="#4D4D4E" stroke-width="6.7378" stroke-miterlimit="10" points="845.09,500.52 995.56,500.52 
			995.56,423.03 		"/>
		<polyline fill="none" stroke="#4D4D4E" stroke-width="6.7378" stroke-miterlimit="10" points="718.19,423.03 718.19,500.52 
			778.83,500.52 		"/>
		<polyline fill="none" stroke="#4D4D4E" stroke-width="6.7378" stroke-miterlimit="10" points="599.16,500.52 568.84,500.52 
			568.84,423.03 		"/>
		
			<line fill="none" stroke="#4D4D4E" stroke-width="6.7378" stroke-miterlimit="10" x1="718.19" y1="500.52" x2="666.14" y2="500.52"/>
		
			<line fill="none" stroke="#4D4D4E" stroke-width="4.4918" stroke-miterlimit="10" x1="1307.37" y1="427.52" x2="1307.37" y2="544.31"/>
		
			<line fill="none" stroke="#4D4D4E" stroke-width="4.4918" stroke-miterlimit="10" x1="1425.28" y1="470.39" x2="1425.28" y2="427.52"/>
		<polyline fill="none" stroke="#4D4D4E" stroke-width="8.9837" stroke-miterlimit="10" points="1472.82,514.55 1425.28,514.55 
			1425.28,503.89 		"/>
		
			<line opacity="0.2" fill="none" stroke="#010101" stroke-width="62.8857" stroke-miterlimit="10" x1="242.8" y1="707.89" x2="1677.2" y2="707.89"/>
		<g>
			<polygon opacity="0.15" fill="#878787" points="1309.65,430.11 1309.65,504 1318.48,504 1327.31,504 1327.31,430.11 			"/>
			
				<line fill="none" stroke="#878787" stroke-width="0.7395" stroke-miterlimit="10" x1="1318.48" y1="430.11" x2="1318.48" y2="504"/>
			
				<line fill="none" stroke="#878787" stroke-width="1.479" stroke-miterlimit="10" x1="1309.65" y1="479.94" x2="1327.31" y2="479.94"/>
			
				<line fill="none" stroke="#878787" stroke-width="1.479" stroke-miterlimit="10" x1="1309.45" y1="455.11" x2="1327.31" y2="455.11"/>
			<line fill="none" stroke="#878787" stroke-width="0.7395" stroke-miterlimit="10" x1="1309.65" y1="504" x2="1327.31" y2="504"/>
			
				<line fill="none" stroke="#878787" stroke-width="0.7395" stroke-miterlimit="10" x1="1309.45" y1="430.11" x2="1327.31" y2="430.11"/>
		</g>
		<g>
			<polygon opacity="0.15" fill="#878787" points="1372.48,430.11 1372.48,504 1381.31,504 1390.14,504 1390.14,430.11 			"/>
			
				<line fill="none" stroke="#878787" stroke-width="0.7395" stroke-miterlimit="10" x1="1381.31" y1="430.11" x2="1381.31" y2="504"/>
			
				<line fill="none" stroke="#878787" stroke-width="1.479" stroke-miterlimit="10" x1="1372.48" y1="479.94" x2="1390.14" y2="479.94"/>
			
				<line fill="none" stroke="#878787" stroke-width="1.479" stroke-miterlimit="10" x1="1372.28" y1="455.11" x2="1390.14" y2="455.11"/>
			<line fill="none" stroke="#878787" stroke-width="0.7395" stroke-miterlimit="10" x1="1372.48" y1="504" x2="1390.14" y2="504"/>
			
				<line fill="none" stroke="#878787" stroke-width="0.7395" stroke-miterlimit="10" x1="1372.28" y1="430.11" x2="1390.14" y2="430.11"/>
		</g>
	</g>
	<g id="outside_x5F_walls">
		<polyline fill="none" stroke="#2D2D2D" stroke-width="13.4755" stroke-linecap="square" stroke-miterlimit="10" points="
			298.06,830.29 1692.92,830.29 1692.92,783.88 		"/>
		<polyline fill="none" stroke="#2D2D2D" stroke-width="13.4755" stroke-linecap="square" stroke-miterlimit="10" points="
			227.08,785.37 227.08,830.29 251.04,830.29 		"/>
		<polyline fill="none" stroke="#2D2D2D" stroke-width="13.4755" stroke-linecap="square" stroke-miterlimit="10" points="
			1679.72,423.03 1692.92,423.03 1692.92,640.14 		"/>
		
			<line fill="none" stroke="#2D2D2D" stroke-width="13.4755" stroke-linecap="square" stroke-miterlimit="10" x1="1613.56" y1="423.03" x2="1632.84" y2="423.03"/>
		
			<line fill="none" stroke="#2D2D2D" stroke-width="13.4755" stroke-linecap="square" stroke-miterlimit="10" x1="1301" y1="423.03" x2="1534.21" y2="423.03"/>
		
			<line fill="none" stroke="#2D2D2D" stroke-width="13.4755" stroke-linecap="square" stroke-miterlimit="10" x1="618.62" y1="423.03" x2="1254.22" y2="423.03"/>
		<polyline fill="none" stroke="#2D2D2D" stroke-width="13.4755" stroke-linecap="square" stroke-miterlimit="10" points="
			227.08,640.14 227.08,423.03 573.7,423.03 		"/>
		<polyline fill="none" stroke="#F0EFEF" stroke-width="6.7378" stroke-miterlimit="10" points="294.41,830.29 1692.92,830.29 
			1692.92,779.38 		"/>
		<polyline fill="none" stroke="#F0EFEF" stroke-width="6.7378" stroke-miterlimit="10" points="227.08,780.88 227.08,830.29 
			254.41,830.29 		"/>
		<polyline fill="none" stroke="#F0EFEF" stroke-width="6.7378" stroke-miterlimit="10" points="1675.65,423.03 1692.92,423.03 
			1692.92,644.63 		"/>
		
			<line fill="none" stroke="#F0EFEF" stroke-width="6.7378" stroke-miterlimit="10" x1="1609.07" y1="423.03" x2="1635.79" y2="423.03"/>
		
			<line fill="none" stroke="#F0EFEF" stroke-width="6.7378" stroke-miterlimit="10" x1="1297.82" y1="423.03" x2="1538.7" y2="423.03"/>
		
			<line fill="none" stroke="#F0EFEF" stroke-width="6.7378" stroke-miterlimit="10" x1="616.37" y1="423.03" x2="1258.33" y2="423.03"/>
		<polyline fill="none" stroke="#F0EFEF" stroke-width="6.7378" stroke-miterlimit="10" points="227.08,644.63 227.08,423.03 
			578.19,423.03 		"/>
	</g>
	<g id="doors">
		<g>
			<defs>
				<rect id="SVGID_1_" x="580.44" y="394.5" width="33.49" height="35.13"/>
			</defs>
			<clipPath id="SVGID_2_">
				<use xlink:href="#SVGID_1_"  overflow="visible"/>
			</clipPath>
			<g clip-path="url(#SVGID_2_)">
				<defs>
					<rect id="SVGID_3_" x="580.44" y="394.5" width="33.49" height="35.13"/>
				</defs>
				<clipPath id="SVGID_4_">
					<use xlink:href="#SVGID_3_"  overflow="visible"/>
				</clipPath>
				<g opacity="0.3" clip-path="url(#SVGID_4_)">
					<g>
						<defs>
							<rect id="SVGID_5_" x="581.37" y="395.76" width="29.97" height="31.42"/>
						</defs>
						<clipPath id="SVGID_6_">
							<use xlink:href="#SVGID_5_"  overflow="visible"/>
						</clipPath>
						<path clip-path="url(#SVGID_6_)" fill="#FFFFFF" d="M611.34,395.76c-16.4,0-29.97,11.8-29.97,31.42l29.97-0.01L611.34,395.76z
							"/>
					</g>
				</g>
				<path clip-path="url(#SVGID_4_)" fill="none" stroke="#2D2D2D" stroke-width="1.8597" stroke-miterlimit="10" d="M581.37,427.18
					c0-19.62,13.57-31.42,29.97-31.42"/>
				
					<line clip-path="url(#SVGID_4_)" fill="none" stroke="#2D2D2D" stroke-width="3.7193" stroke-linecap="square" stroke-miterlimit="10" x1="612.07" y1="427.77" x2="612.07" y2="396.36"/>
			</g>
		</g>
		<g>
			<defs>
				<rect id="SVGID_7_" x="1260.79" y="394.5" width="33.49" height="35.13"/>
			</defs>
			<clipPath id="SVGID_8_">
				<use xlink:href="#SVGID_7_"  overflow="visible"/>
			</clipPath>
			<g clip-path="url(#SVGID_8_)">
				<defs>
					<rect id="SVGID_9_" x="1260.79" y="394.5" width="33.49" height="35.13"/>
				</defs>
				<clipPath id="SVGID_10_">
					<use xlink:href="#SVGID_9_"  overflow="visible"/>
				</clipPath>
				<g opacity="0.3" clip-path="url(#SVGID_10_)">
					<g>
						<defs>
							<rect id="SVGID_11_" x="1263.39" y="395.76" width="29.97" height="31.42"/>
						</defs>
						<clipPath id="SVGID_12_">
							<use xlink:href="#SVGID_11_"  overflow="visible"/>
						</clipPath>
						<path clip-path="url(#SVGID_12_)" fill="#FFFFFF" d="M1263.39,395.76c16.4,0,29.97,11.8,29.97,31.42l-29.97-0.01
							L1263.39,395.76z"/>
					</g>
				</g>
				<path clip-path="url(#SVGID_10_)" fill="none" stroke="#2D2D2D" stroke-width="1.8597" stroke-miterlimit="10" d="
					M1293.36,427.18c0-19.62-13.57-31.42-29.97-31.42"/>
				
					<line clip-path="url(#SVGID_10_)" fill="none" stroke="#2D2D2D" stroke-width="3.7193" stroke-linecap="square" stroke-miterlimit="10" x1="1262.65" y1="427.77" x2="1262.65" y2="396.36"/>
			</g>
		</g>
		<g>
			<defs>
				<rect id="SVGID_13_" x="1639.42" y="394.5" width="33.49" height="35.13"/>
			</defs>
			<clipPath id="SVGID_14_">
				<use xlink:href="#SVGID_13_"  overflow="visible"/>
			</clipPath>
			<g clip-path="url(#SVGID_14_)">
				<defs>
					<rect id="SVGID_15_" x="1639.42" y="394.5" width="33.49" height="35.13"/>
				</defs>
				<clipPath id="SVGID_16_">
					<use xlink:href="#SVGID_15_"  overflow="visible"/>
				</clipPath>
				<g opacity="0.3" clip-path="url(#SVGID_16_)">
					<g>
						<defs>
							<rect id="SVGID_17_" x="1640.35" y="395.76" width="29.97" height="31.42"/>
						</defs>
						<clipPath id="SVGID_18_">
							<use xlink:href="#SVGID_17_"  overflow="visible"/>
						</clipPath>
						<path clip-path="url(#SVGID_18_)" fill="#FFFFFF" d="M1670.32,395.76c-16.4,0-29.97,11.8-29.97,31.42l29.97-0.01
							L1670.32,395.76z"/>
					</g>
				</g>
				<path clip-path="url(#SVGID_16_)" fill="none" stroke="#2D2D2D" stroke-width="1.8597" stroke-miterlimit="10" d="
					M1640.35,427.18c0-19.62,13.57-31.42,29.97-31.42"/>
				
					<line clip-path="url(#SVGID_16_)" fill="none" stroke="#2D2D2D" stroke-width="3.7193" stroke-linecap="square" stroke-miterlimit="10" x1="1671.05" y1="427.77" x2="1671.05" y2="396.36"/>
			</g>
		</g>
		<g>
			<defs>
				<rect id="SVGID_19_" x="1574.25" y="394.5" width="33.49" height="35.13"/>
			</defs>
			<clipPath id="SVGID_20_">
				<use xlink:href="#SVGID_19_"  overflow="visible"/>
			</clipPath>
			<g clip-path="url(#SVGID_20_)">
				<defs>
					<rect id="SVGID_21_" x="1574.25" y="394.5" width="33.49" height="35.13"/>
				</defs>
				<clipPath id="SVGID_22_">
					<use xlink:href="#SVGID_21_"  overflow="visible"/>
				</clipPath>
				<g opacity="0.3" clip-path="url(#SVGID_22_)">
					<g>
						<defs>
							<rect id="SVGID_23_" x="1575.18" y="395.76" width="29.97" height="31.42"/>
						</defs>
						<clipPath id="SVGID_24_">
							<use xlink:href="#SVGID_23_"  overflow="visible"/>
						</clipPath>
						<path clip-path="url(#SVGID_24_)" fill="#FFFFFF" d="M1605.15,395.76c-16.4,0-29.97,11.8-29.97,31.42l29.97-0.01
							L1605.15,395.76z"/>
					</g>
				</g>
				<path clip-path="url(#SVGID_22_)" fill="none" stroke="#2D2D2D" stroke-width="1.8597" stroke-miterlimit="10" d="
					M1575.18,427.18c0-19.62,13.57-31.42,29.97-31.42"/>
				
					<line clip-path="url(#SVGID_22_)" fill="none" stroke="#2D2D2D" stroke-width="3.7193" stroke-linecap="square" stroke-miterlimit="10" x1="1605.88" y1="427.77" x2="1605.88" y2="396.36"/>
			</g>
		</g>
		<g>
			<defs>
				<rect id="SVGID_25_" x="1540.76" y="394.5" width="33.49" height="35.13"/>
			</defs>
			<clipPath id="SVGID_26_">
				<use xlink:href="#SVGID_25_"  overflow="visible"/>
			</clipPath>
			<g clip-path="url(#SVGID_26_)">
				<defs>
					<rect id="SVGID_27_" x="1540.76" y="394.5" width="33.49" height="35.13"/>
				</defs>
				<clipPath id="SVGID_28_">
					<use xlink:href="#SVGID_27_"  overflow="visible"/>
				</clipPath>
				<g opacity="0.3" clip-path="url(#SVGID_28_)">
					<g>
						<defs>
							<rect id="SVGID_29_" x="1543.35" y="395.76" width="29.97" height="31.42"/>
						</defs>
						<clipPath id="SVGID_30_">
							<use xlink:href="#SVGID_29_"  overflow="visible"/>
						</clipPath>
						<path clip-path="url(#SVGID_30_)" fill="#FFFFFF" d="M1543.35,395.76c16.4,0,29.97,11.8,29.97,31.42l-29.97-0.01
							L1543.35,395.76z"/>
					</g>
				</g>
				<path clip-path="url(#SVGID_28_)" fill="none" stroke="#2D2D2D" stroke-width="1.8597" stroke-miterlimit="10" d="
					M1573.32,427.18c0-19.62-13.57-31.42-29.97-31.42"/>
				
					<line clip-path="url(#SVGID_28_)" fill="none" stroke="#2D2D2D" stroke-width="3.7193" stroke-linecap="square" stroke-miterlimit="10" x1="1542.62" y1="427.77" x2="1542.62" y2="396.36"/>
			</g>
		</g>
		<g>
			<defs>
				<rect id="SVGID_31_" x="257.84" y="823.77" width="33.49" height="35.13"/>
			</defs>
			<clipPath id="SVGID_32_">
				<use xlink:href="#SVGID_31_"  overflow="visible"/>
			</clipPath>
			<g clip-path="url(#SVGID_32_)">
				<defs>
					<rect id="SVGID_33_" x="257.84" y="823.77" width="33.49" height="35.13"/>
				</defs>
				<clipPath id="SVGID_34_">
					<use xlink:href="#SVGID_33_"  overflow="visible"/>
				</clipPath>
				<g opacity="0.3" clip-path="url(#SVGID_34_)">
					<g>
						<defs>
							<rect id="SVGID_35_" x="258.77" y="826.21" width="29.97" height="31.42"/>
						</defs>
						<clipPath id="SVGID_36_">
							<use xlink:href="#SVGID_35_"  overflow="visible"/>
						</clipPath>
						<path clip-path="url(#SVGID_36_)" fill="#FFFFFF" d="M288.74,857.64c-16.4,0-29.97-11.8-29.97-31.42l29.97,0.01L288.74,857.64
							z"/>
					</g>
				</g>
				<path clip-path="url(#SVGID_34_)" fill="none" stroke="#2D2D2D" stroke-width="1.8597" stroke-miterlimit="10" d="
					M258.76,826.21c0,19.62,13.57,31.42,29.97,31.42"/>
				
					<line clip-path="url(#SVGID_34_)" fill="none" stroke="#2D2D2D" stroke-width="3.7193" stroke-linecap="square" stroke-miterlimit="10" x1="289.47" y1="825.63" x2="289.47" y2="857.04"/>
			</g>
		</g>
		<g>
			<defs>
				<rect id="SVGID_37_" x="599.16" y="496.45" width="33.49" height="35.13"/>
			</defs>
			<clipPath id="SVGID_38_">
				<use xlink:href="#SVGID_37_"  overflow="visible"/>
			</clipPath>
			<g clip-path="url(#SVGID_38_)">
				<defs>
					<rect id="SVGID_39_" x="599.16" y="496.45" width="33.49" height="35.13"/>
				</defs>
				<clipPath id="SVGID_40_">
					<use xlink:href="#SVGID_39_"  overflow="visible"/>
				</clipPath>
				<g opacity="0.3" clip-path="url(#SVGID_40_)">
					<g>
						<defs>
							<rect id="SVGID_41_" x="601.75" y="498.9" width="29.97" height="31.42"/>
						</defs>
						<clipPath id="SVGID_42_">
							<use xlink:href="#SVGID_41_"  overflow="visible"/>
						</clipPath>
						<path clip-path="url(#SVGID_42_)" fill="#FFFFFF" d="M601.75,530.32c16.4,0,29.97-11.8,29.97-31.42l-29.97,0.01L601.75,530.32
							z"/>
					</g>
				</g>
				<path clip-path="url(#SVGID_40_)" fill="none" stroke="#2D2D2D" stroke-width="1.8597" stroke-miterlimit="10" d="M631.72,498.9
					c0,19.62-13.57,31.42-29.97,31.42"/>
				
					<line clip-path="url(#SVGID_40_)" fill="none" stroke="#2D2D2D" stroke-width="3.7193" stroke-linecap="square" stroke-miterlimit="10" x1="601.02" y1="498.31" x2="601.02" y2="529.73"/>
			</g>
		</g>
		<g>
			<defs>
				<rect id="SVGID_43_" x="632.65" y="496.45" width="33.49" height="35.13"/>
			</defs>
			<clipPath id="SVGID_44_">
				<use xlink:href="#SVGID_43_"  overflow="visible"/>
			</clipPath>
			<g clip-path="url(#SVGID_44_)">
				<defs>
					<rect id="SVGID_45_" x="632.65" y="496.45" width="33.49" height="35.13"/>
				</defs>
				<clipPath id="SVGID_46_">
					<use xlink:href="#SVGID_45_"  overflow="visible"/>
				</clipPath>
				<g opacity="0.3" clip-path="url(#SVGID_46_)">
					<g>
						<defs>
							<rect id="SVGID_47_" x="633.58" y="498.9" width="29.97" height="31.42"/>
						</defs>
						<clipPath id="SVGID_48_">
							<use xlink:href="#SVGID_47_"  overflow="visible"/>
						</clipPath>
						<path clip-path="url(#SVGID_48_)" fill="#FFFFFF" d="M663.55,530.32c-16.4,0-29.97-11.8-29.97-31.42l29.97,0.01L663.55,530.32
							z"/>
					</g>
				</g>
				<path clip-path="url(#SVGID_46_)" fill="none" stroke="#2D2D2D" stroke-width="1.8597" stroke-miterlimit="10" d="M633.58,498.9
					c0,19.62,13.57,31.42,29.97,31.42"/>
				
					<line clip-path="url(#SVGID_46_)" fill="none" stroke="#2D2D2D" stroke-width="3.7193" stroke-linecap="square" stroke-miterlimit="10" x1="664.28" y1="498.31" x2="664.28" y2="529.73"/>
			</g>
		</g>
		<g>
			<defs>
				<rect id="SVGID_49_" x="778.83" y="496.45" width="33.49" height="35.13"/>
			</defs>
			<clipPath id="SVGID_50_">
				<use xlink:href="#SVGID_49_"  overflow="visible"/>
			</clipPath>
			<g clip-path="url(#SVGID_50_)">
				<defs>
					<rect id="SVGID_51_" x="778.83" y="496.45" width="33.49" height="35.13"/>
				</defs>
				<clipPath id="SVGID_52_">
					<use xlink:href="#SVGID_51_"  overflow="visible"/>
				</clipPath>
				<g opacity="0.3" clip-path="url(#SVGID_52_)">
					<g>
						<defs>
							<rect id="SVGID_53_" x="781.42" y="498.9" width="29.97" height="31.42"/>
						</defs>
						<clipPath id="SVGID_54_">
							<use xlink:href="#SVGID_53_"  overflow="visible"/>
						</clipPath>
						<path clip-path="url(#SVGID_54_)" fill="#FFFFFF" d="M781.42,530.32c16.4,0,29.97-11.8,29.97-31.42l-29.97,0.01L781.42,530.32
							z"/>
					</g>
				</g>
				<path clip-path="url(#SVGID_52_)" fill="none" stroke="#2D2D2D" stroke-width="1.8597" stroke-miterlimit="10" d="M811.39,498.9
					c0,19.62-13.57,31.42-29.97,31.42"/>
				
					<line clip-path="url(#SVGID_52_)" fill="none" stroke="#2D2D2D" stroke-width="3.7193" stroke-linecap="square" stroke-miterlimit="10" x1="780.69" y1="498.31" x2="780.69" y2="529.73"/>
			</g>
		</g>
		<g>
			<defs>
				<rect id="SVGID_55_" x="812.32" y="496.45" width="33.49" height="35.13"/>
			</defs>
			<clipPath id="SVGID_56_">
				<use xlink:href="#SVGID_55_"  overflow="visible"/>
			</clipPath>
			<g clip-path="url(#SVGID_56_)">
				<defs>
					<rect id="SVGID_57_" x="812.32" y="496.45" width="33.49" height="35.13"/>
				</defs>
				<clipPath id="SVGID_58_">
					<use xlink:href="#SVGID_57_"  overflow="visible"/>
				</clipPath>
				<g opacity="0.3" clip-path="url(#SVGID_58_)">
					<g>
						<defs>
							<rect id="SVGID_59_" x="813.25" y="498.9" width="29.97" height="31.42"/>
						</defs>
						<clipPath id="SVGID_60_">
							<use xlink:href="#SVGID_59_"  overflow="visible"/>
						</clipPath>
						<path clip-path="url(#SVGID_60_)" fill="#FFFFFF" d="M843.22,530.32c-16.4,0-29.97-11.8-29.97-31.42l29.97,0.01L843.22,530.32
							z"/>
					</g>
				</g>
				<path clip-path="url(#SVGID_58_)" fill="none" stroke="#2D2D2D" stroke-width="1.8597" stroke-miterlimit="10" d="M813.25,498.9
					c0,19.62,13.57,31.42,29.97,31.42"/>
				
					<line clip-path="url(#SVGID_58_)" fill="none" stroke="#2D2D2D" stroke-width="3.7193" stroke-linecap="square" stroke-miterlimit="10" x1="843.95" y1="498.31" x2="843.95" y2="529.73"/>
			</g>
		</g>
		<g>
			<defs>
				<rect id="SVGID_61_" x="1420.84" y="470.39" width="35.13" height="33.49"/>
			</defs>
			<clipPath id="SVGID_62_">
				<use xlink:href="#SVGID_61_"  overflow="visible"/>
			</clipPath>
			<g clip-path="url(#SVGID_62_)">
				<defs>
					<rect id="SVGID_63_" x="1420.84" y="470.39" width="35.13" height="33.49"/>
				</defs>
				<clipPath id="SVGID_64_">
					<use xlink:href="#SVGID_63_"  overflow="visible"/>
				</clipPath>
				<g opacity="0.3" clip-path="url(#SVGID_64_)">
					<g>
						<defs>
							<rect id="SVGID_65_" x="1423.29" y="471.32" width="31.42" height="29.97"/>
						</defs>
						<clipPath id="SVGID_66_">
							<use xlink:href="#SVGID_65_"  overflow="visible"/>
						</clipPath>
						<path clip-path="url(#SVGID_66_)" fill="#FFFFFF" d="M1454.71,501.29c0-16.4-11.8-29.97-31.42-29.97l0.01,29.97
							L1454.71,501.29z"/>
					</g>
				</g>
				<path clip-path="url(#SVGID_64_)" fill="none" stroke="#2D2D2D" stroke-width="1.8597" stroke-miterlimit="10" d="
					M1423.29,471.32c19.62,0,31.42,13.57,31.42,29.97"/>
				
					<line clip-path="url(#SVGID_64_)" fill="none" stroke="#2D2D2D" stroke-width="3.7193" stroke-linecap="square" stroke-miterlimit="10" x1="1422.7" y1="502.03" x2="1454.11" y2="502.03"/>
			</g>
		</g>
	</g>
</g>
<g id="nopointer-SWA">
	<text transform="matrix(1 0 0 1 854.7593 626.6979)" fill="#2D2D2D" font-family="'Arial'" font-weight="bold" font-size="24px">Maintenance Shed</text>
	<path fill="#ED2224" d="M324.1,810.64c-9.66,0-17.5-7.84-17.5-17.5s7.84-17.5,17.5-17.5s17.5,7.84,17.5,17.5
		S333.76,810.64,324.1,810.64"/>
	<path fill="#FFFFFF" d="M333.34,786.37v-3.71l-5.53,0.66v0.66h-2.89v-1.4h-0.74c0,0,0-0.33-0.25-0.66
		c-0.66-0.99-2.15-1.07-2.81-0.33c-1.32,1.32,0,2.72,0,2.72c-1.32,0.58-2.39,1.57-2.81,2.48c-0.5,1.24,0.74,1.4,1.07,0.91
		c1.57-2.39,3.22-2.31,3.22-2.31v0.58c-2.72,0.91-2.56,3.38-2.56,3.38v15.35c0,0.83,0.83,0.74,0.83,0.74h2.64h2.97
		c0.83,0,0.91-0.66,0.91-1.16v-15.02c0-2.48-2.48-3.38-2.48-3.38v-0.83h2.89v0.66L333.34,786.37z M322.37,783.57
		c-0.41,0-0.74-0.33-0.74-0.74c0-0.41,0.33-0.74,0.74-0.74c0.41,0,0.74,0.33,0.74,0.74C323.11,783.24,322.86,783.57,322.37,783.57"
		/>
	<path fill="#ED2224" d="M658.67,472.61c-9.66,0-17.5-7.84-17.5-17.5s7.84-17.5,17.5-17.5s17.5,7.84,17.5,17.5
		S668.33,472.61,658.67,472.61"/>
	<path fill="#FFFFFF" d="M667.92,448.35v-3.71l-5.53,0.66v0.66h-2.89v-1.4h-0.74c0,0,0-0.33-0.25-0.66
		c-0.66-0.99-2.15-1.07-2.81-0.33c-1.32,1.32,0,2.72,0,2.72c-1.32,0.58-2.39,1.57-2.81,2.48c-0.5,1.24,0.74,1.4,1.07,0.91
		c1.57-2.39,3.22-2.31,3.22-2.31v0.58c-2.72,0.91-2.56,3.38-2.56,3.38v15.35c0,0.83,0.83,0.74,0.83,0.74h2.64h2.97
		c0.83,0,0.91-0.66,0.91-1.16v-15.02c0-2.48-2.48-3.38-2.48-3.38v-0.83h2.89v0.66L667.92,448.35z M656.94,445.54
		c-0.41,0-0.74-0.33-0.74-0.74c0-0.41,0.33-0.74,0.74-0.74c0.41,0,0.74,0.33,0.74,0.74C657.68,445.21,657.43,445.54,656.94,445.54"
		/>
	<path fill="#ED2224" d="M1025.51,472.74c-9.66,0-17.5-7.84-17.5-17.5s7.84-17.5,17.5-17.5c9.66,0,17.5,7.84,17.5,17.5
		S1035.16,472.74,1025.51,472.74"/>
	<path fill="#FFFFFF" d="M1034.75,448.47v-3.71l-5.53,0.66v0.66h-2.89v-1.4h-0.74c0,0,0-0.33-0.25-0.66
		c-0.66-0.99-2.15-1.07-2.81-0.33c-1.32,1.32,0,2.72,0,2.72c-1.32,0.58-2.39,1.57-2.81,2.48c-0.5,1.24,0.74,1.4,1.07,0.91
		c1.57-2.39,3.22-2.31,3.22-2.31v0.58c-2.72,0.91-2.56,3.38-2.56,3.38v15.35c0,0.83,0.83,0.74,0.83,0.74h2.64h2.97
		c0.83,0,0.91-0.66,0.91-1.16v-15.02c0-2.48-2.48-3.38-2.48-3.38v-0.83h2.89v0.66L1034.75,448.47z M1023.77,445.66
		c-0.41,0-0.74-0.33-0.74-0.74c0-0.41,0.33-0.74,0.74-0.74c0.41,0,0.74,0.33,0.74,0.74
		C1024.52,445.33,1024.27,445.66,1023.77,445.66"/>
	<path fill="#ED2224" d="M1234.14,472.74c-9.66,0-17.5-7.84-17.5-17.5s7.84-17.5,17.5-17.5c9.66,0,17.5,7.84,17.5,17.5
		S1243.8,472.74,1234.14,472.74"/>
	<path fill="#FFFFFF" d="M1243.39,448.47v-3.71l-5.53,0.66v0.66h-2.89v-1.4h-0.74c0,0,0-0.33-0.25-0.66
		c-0.66-0.99-2.15-1.07-2.81-0.33c-1.32,1.32,0,2.72,0,2.72c-1.32,0.58-2.39,1.57-2.81,2.48c-0.5,1.24,0.74,1.4,1.07,0.91
		c1.57-2.39,3.22-2.31,3.22-2.31v0.58c-2.72,0.91-2.56,3.38-2.56,3.38v15.35c0,0.83,0.83,0.74,0.83,0.74h2.64h2.97
		c0.83,0,0.91-0.66,0.91-1.16v-15.02c0-2.48-2.48-3.38-2.48-3.38v-0.83h2.89v0.66L1243.39,448.47z M1232.41,445.66
		c-0.41,0-0.74-0.33-0.74-0.74c0-0.41,0.33-0.74,0.74-0.74s0.74,0.33,0.74,0.74C1233.15,445.33,1232.9,445.66,1232.41,445.66"/>
	<path fill="#ED2224" d="M1331.42,546.08c-9.66,0-17.5-7.84-17.5-17.5s7.84-17.5,17.5-17.5c9.66,0,17.5,7.84,17.5,17.5
		S1341.08,546.08,1331.42,546.08"/>
	<path fill="#FFFFFF" d="M1340.67,521.81v-3.71l-5.53,0.66v0.66h-2.89v-1.4h-0.74c0,0,0-0.33-0.25-0.66
		c-0.66-0.99-2.15-1.07-2.81-0.33c-1.32,1.32,0,2.72,0,2.72c-1.32,0.58-2.39,1.57-2.81,2.48c-0.5,1.24,0.74,1.4,1.07,0.91
		c1.57-2.39,3.22-2.31,3.22-2.31v0.58c-2.72,0.91-2.56,3.38-2.56,3.38v15.35c0,0.83,0.83,0.74,0.83,0.74h2.64h2.97
		c0.83,0,0.91-0.66,0.91-1.16V524.7c0-2.48-2.48-3.38-2.48-3.38v-0.83h2.89v0.66L1340.67,521.81z M1329.69,519
		c-0.41,0-0.74-0.33-0.74-0.74c0-0.41,0.33-0.74,0.74-0.74c0.41,0,0.74,0.33,0.74,0.74C1330.43,518.67,1330.18,519,1329.69,519"/>
	<path fill="#028346" d="M1427.52,561.81c-9.66,0-17.5-7.84-17.5-17.5s7.84-17.5,17.5-17.5c9.66,0,17.5,7.84,17.5,17.5
		S1437.18,561.81,1427.52,561.81"/>
	<polygon fill="#FFFFFF" points="1438.42,541.34 1430.58,541.34 1430.58,533.5 1424.55,533.5 1424.55,541.34 1416.63,541.34 
		1416.63,547.45 1424.55,547.45 1424.55,555.29 1430.58,555.29 1430.58,547.45 1438.42,547.45 	"/>
	<g>
		<defs>
			<rect id="SVGID_67_" x="118.5" y="76.23" width="234" height="255.49"/>
		</defs>
		<clipPath id="SVGID_68_">
			<use xlink:href="#SVGID_67_"  overflow="visible"/>
		</clipPath>
		
			<rect x="119.5" y="77.23" clip-path="url(#SVGID_68_)" fill="none" stroke="#010101" stroke-width="2" stroke-miterlimit="10" width="232" height="253.49"/>
		<path clip-path="url(#SVGID_68_)" fill="#1E4384" d="M155.4,266.37c12.37,0,22.4,10.03,22.4,22.4s-10.03,22.4-22.4,22.4
			s-22.4-10.03-22.4-22.4S143.03,266.37,155.4,266.37"/>
		<path clip-path="url(#SVGID_68_)" fill="#FFFFFF" d="M160.8,291.7c0,0.56-0.45,1.01-1.01,1.01s-1.01-0.45-1.01-1.01v-6.75
			c0-1.46,1.24-2.7,2.7-2.7h4.84c1.46,0,2.7,1.24,2.7,2.7v6.75c0,0.56-0.45,1.01-1.01,1.01c-0.56,0-1.01-0.45-1.01-1.01v-6.19h-0.56
			v16.77c0,0.67-0.56,1.24-1.24,1.24s-1.24-0.56-1.24-1.24v-9.68h-0.22v9.68c0,0.67-0.56,1.24-1.24,1.24
			c-0.68,0-1.24-0.56-1.24-1.24v-16.77h-0.56L160.8,291.7z"/>
		<path clip-path="url(#SVGID_68_)" fill="#FFFFFF" d="M163.95,277.29c1.24,0,2.25,1.01,2.25,2.25c0,1.24-1.01,2.25-2.25,2.25
			c-1.24,0-2.25-1.01-2.25-2.25C161.7,278.3,162.71,277.29,163.95,277.29"/>
		<path clip-path="url(#SVGID_68_)" fill="#FFFFFF" d="M141.89,290.8c-0.11,0.45-0.68,0.79-1.13,0.56
			c-0.45-0.11-0.79-0.68-0.67-1.13l1.8-6.3c0.34-1.13,1.46-2.03,2.59-2.03h3.04h0.11c1.24,0,2.25,0.79,2.59,2.03l1.8,6.3
			c0.11,0.45-0.11,1.01-0.68,1.13c-0.45,0.11-1.01-0.11-1.13-0.56l-1.69-5.85h-0.56l2.93,10.02h-2.7v7.43
			c0,0.56-0.45,1.01-1.01,1.01c-0.56,0-1.01-0.45-1.01-1.01v-7.43h-0.45v7.43c0,0.56-0.45,1.01-1.01,1.01
			c-0.56,0-1.01-0.45-1.01-1.01v-7.43h-2.48l2.93-10.02h-0.56L141.89,290.8z"/>
		<path clip-path="url(#SVGID_68_)" fill="#FFFFFF" d="M146.17,277.18c1.24,0,2.25,1.01,2.25,2.25c0,1.24-1.01,2.25-2.25,2.25
			c-1.24,0-2.25-1.01-2.25-2.25C143.92,278.18,144.93,277.18,146.17,277.18"/>
		
			<line clip-path="url(#SVGID_68_)" fill="none" stroke="#FFFFFF" stroke-width="0.906" stroke-miterlimit="10" x1="155.4" y1="270.2" x2="155.4" y2="306.89"/>
		<g clip-path="url(#SVGID_68_)" enable-background="new    ">
			<g>
				<defs>
					<rect id="SVGID_69_" x="190.72" y="283.36" width="58.09" height="16.56"/>
				</defs>
				<clipPath id="SVGID_70_">
					<use xlink:href="#SVGID_69_"  overflow="visible"/>
				</clipPath>
				<g clip-path="url(#SVGID_70_)">
					<text transform="matrix(1 0 0 1 190.7173 295.3689)"><tspan x="0" y="0" fill="#010101" font-family="'Arial'"  font-size="14px">T</tspan><tspan x="8.3" y="0" fill="#010101" font-family="'Arial'"  font-size="14px">OILETS</tspan></text>
				</g>
			</g>
		</g>
		<path clip-path="url(#SVGID_68_)" fill="#ED2224" d="M155.4,249.1c-11.7,0-21.2-9.5-21.2-21.2s9.5-21.2,21.2-21.2
			s21.2,9.5,21.2,21.2S167.1,249.1,155.4,249.1"/>
		<path clip-path="url(#SVGID_68_)" fill="#FFFFFF" d="M166.6,219.7v-4.5l-6.7,0.8v0.8h-3.5v-1.7h-0.9c0,0,0-0.4-0.3-0.8
			c-0.8-1.2-2.6-1.3-3.4-0.4c-1.6,1.6,0,3.3,0,3.3c-1.6,0.7-2.9,1.9-3.4,3c-0.6,1.5,0.9,1.7,1.3,1.1c1.9-2.9,3.9-2.8,3.9-2.8v0.7
			c-3.3,1.1-3.1,4.1-3.1,4.1v18.6c0,1,1,0.9,1,0.9h3.2h3.6c1,0,1.1-0.8,1.1-1.4v-18.2c0-3-3-4.1-3-4.1v-1h3.5v0.8L166.6,219.7z
			 M153.3,216.3c-0.5,0-0.9-0.4-0.9-0.9s0.4-0.9,0.9-0.9s0.9,0.4,0.9,0.9S153.9,216.3,153.3,216.3"/>
		<g clip-path="url(#SVGID_68_)" enable-background="new    ">
			<g>
				<defs>
					<rect id="SVGID_71_" x="190.72" y="222.66" width="105.01" height="16.56"/>
				</defs>
				<clipPath id="SVGID_72_">
					<use xlink:href="#SVGID_71_"  overflow="visible"/>
				</clipPath>
				<g clip-path="url(#SVGID_72_)">
					<text transform="matrix(1 0 0 1 190.7173 234.6744)" fill="#010101" font-family="'Arial'"  font-size="14px">EXTINGUISHER</text>
				</g>
			</g>
		</g>
		<path clip-path="url(#SVGID_68_)" fill="#028346" d="M155.4,194.02c-11.7,0-21.2-9.5-21.2-21.2c0-11.7,9.5-21.2,21.2-21.2
			s21.2,9.5,21.2,21.2C176.6,184.52,167.1,194.02,155.4,194.02"/>
		<polygon clip-path="url(#SVGID_68_)" fill="#FFFFFF" points="168.6,169.23 159.1,169.23 159.1,159.73 151.8,159.73 151.8,169.23 
			142.2,169.23 142.2,176.63 151.8,176.63 151.8,186.13 159.1,186.13 159.1,176.63 168.6,176.63 		"/>
		<g clip-path="url(#SVGID_68_)" enable-background="new    ">
			<g>
				<defs>
					<rect id="SVGID_73_" x="190.72" y="167.87" width="66.64" height="16.56"/>
				</defs>
				<clipPath id="SVGID_74_">
					<use xlink:href="#SVGID_73_"  overflow="visible"/>
				</clipPath>
				<g clip-path="url(#SVGID_74_)">
					<text transform="matrix(1 0 0 1 190.7173 179.884)"><tspan x="0" y="0" fill="#010101" font-family="'Arial'"  font-size="14px">FIRS</tspan><tspan x="31.89" y="0" fill="#010101" font-family="'Arial'"  font-size="14px">T</tspan><tspan x="40.19" y="0" fill="#010101" font-family="'Arial'"  font-size="14px"> </tspan><tspan x="43.32" y="0" fill="#010101" font-family="'Arial'"  font-size="14px">AID</tspan></text>
				</g>
			</g>
		</g>
		<path clip-path="url(#SVGID_68_)" fill="#028346" d="M156.6,99.5c10.99,0,19.9,8.91,19.9,19.9c0,10.99-8.91,19.9-19.9,19.9
			c-10.99,0-19.9-8.91-19.9-19.9C136.7,108.41,145.61,99.5,156.6,99.5"/>
		<polygon clip-path="url(#SVGID_68_)" fill="#FFFFFF" points="166.7,115.6 166.7,133.3 164.2,135.8 144.5,135.8 146.9,133.7 
			146.9,115.7 142.6,115.7 156.6,103 170.5,115.6 		"/>
		<path clip-path="url(#SVGID_68_)" fill="#028346" d="M160.6,132.8l-4.8-8.8c-0.1,1-0.4,2.8-0.5,3.6c-0.1,1.1-1.2,1.4-1.7,1.5H144
			l2.4-2.9h5.8l0.4-5.3l2.3-4.2h-2h-0.1c-0.1,0.1-0.3,0.4-0.4,0.6l-1.6,2.5c-0.2,0.4-0.6,0.6-1.1,0.6c-0.2,0-0.5-0.1-0.7-0.2
			c-0.6-0.4-0.8-1.1-0.4-1.7l1.6-2.5c0.5-0.7,0.9-1.1,1.2-1.3c0.5-0.3,1-0.3,1.3-0.3h0.2h3.8c0.4,0,0.8-0.1,1.1-0.1
			c2,0,2.9,0.6,3.2,1c0.1,0.1,0.2,0.2,0.3,0.3l2.2,2.9h3.4c0.7,0,1.3,0.6,1.3,1.3c0,0.7-0.6,1.3-1.3,1.3h-4c-0.4,0-0.8-0.2-1-0.5
			l-1.7-2.3l-1.6,3.5l5.6,11.4L160.6,132.8z"/>
		<path clip-path="url(#SVGID_68_)" fill="#FFFFFF" d="M157.8,114.3c1.9,0,2.7,0.6,3,1c0.1,0.1,0.2,0.1,0.3,0.2l2.3,3h3.5
			c0.5,0,1,0.4,1,1s-0.4,1-1,1h-4c-0.3,0-0.6-0.1-0.8-0.4l-2-2.6l-1.9,4.1l5.5,11.1l-3-0.1l-5.1-9.3c0,0-0.5,3.3-0.6,4.4
			c-0.1,1.2-1.5,1.2-1.5,1.2h-9l2-2.4h6l0.4-5.6l2.4-4.6h-2.5h-0.1h-0.1c-0.1,0.1-0.4,0.4-0.5,0.7l-1.6,2.5
			c-0.2,0.3-0.5,0.5-0.8,0.5c-0.2,0-0.4-0.1-0.5-0.2c-0.5-0.3-0.6-0.9-0.3-1.4l1.6-2.5c0.4-0.7,0.8-1.1,1.1-1.2
			c0.4-0.3,0.9-0.3,1.2-0.3h0.2h3.9C157.1,114.3,157.5,114.3,157.8,114.3 M157.8,113.8v0.5V113.8c-0.4,0-0.7,0-1.1,0.1h-3.8h-0.2
			c-0.4,0-0.9,0.1-1.4,0.4c-0.4,0.2-0.8,0.7-1.3,1.4v0.1l-1.6,2.5c-0.4,0.7-0.2,1.7,0.5,2.1c0.2,0.2,0.5,0.2,0.8,0.2
			c0.5,0,1-0.3,1.3-0.7l1.6-2.5c0.1-0.2,0.2-0.3,0.3-0.4h1.6l-2,3.8l-0.1,0.1v0.1l-0.3,5h-5.5h-0.3l-0.2,0.2l-2,2.4l-0.8,0.9h1.2h9
			c0,0,0.4,0,0.9-0.2c0.6-0.3,1-0.8,1.1-1.5c0.1-0.6,0.3-1.8,0.4-2.8l4.3,7.9l0.1,0.3h0.3l3,0.1h0.9l-0.4-0.8l-5.4-10.9l1.4-3
			l1.4,1.9c0.3,0.4,0.7,0.6,1.2,0.6h4c0.8,0,1.5-0.7,1.5-1.5c0-0.8-0.7-1.5-1.5-1.5h-3.2l-2.1-2.8c-0.1-0.1-0.2-0.2-0.3-0.3
			c-0.3-0.3-0.6-0.5-1.1-0.7C159.5,113.9,158.7,113.8,157.8,113.8"/>
		<path clip-path="url(#SVGID_68_)" fill="#028346" d="M159.6,114.2c-1.4,0-2.6-1.2-2.6-2.6c0-1.4,1.2-2.6,2.6-2.6
			c1.4,0,2.6,1.2,2.6,2.6C162.2,113,161,114.2,159.6,114.2"/>
		<path clip-path="url(#SVGID_68_)" fill="#FFFFFF" d="M159.6,109.2c1.3,0,2.4,1.1,2.4,2.3c0,1.2-1.1,2.3-2.4,2.3
			c-1.3,0-2.4-1.1-2.4-2.3C157.2,110.3,158.3,109.2,159.6,109.2 M159.6,108.7c-1.6,0-2.9,1.3-2.9,2.9c0,1.6,1.3,2.9,2.9,2.9
			c1.6,0,2.9-1.3,2.9-2.9C162.5,110,161.1,108.7,159.6,108.7"/>
		<g clip-path="url(#SVGID_68_)" enable-background="new    ">
			<g>
				<defs>
					<rect id="SVGID_75_" x="191.49" y="114.51" width="134.85" height="16.56"/>
				</defs>
				<clipPath id="SVGID_76_">
					<use xlink:href="#SVGID_75_"  overflow="visible"/>
				</clipPath>
				<g clip-path="url(#SVGID_76_)">
					<text transform="matrix(1 0 0 1 191.4893 126.5198)"><tspan x="0" y="0" fill="#010101" font-family="'Arial'"  font-size="14px">EMERGHENC</tspan><tspan x="91.01" y="0" fill="#010101" font-family="'Arial'"  font-size="14px">Y</tspan><tspan x="100.11" y="0" fill="#010101" font-family="'Arial'"  font-size="14px"> EXIT</tspan></text>
				</g>
			</g>
		</g>
	</g>
</g>
</svg>
