<?xml version="1.0" encoding="utf-8"?>
<!-- Generator: Adobe Illustrator 21.1.0, SVG Export Plug-In . SVG Version: 6.00 Build 0)  -->
<svg version="1.1" xmlns="http://www.w3.org/2000/svg" xmlns:xlink="http://www.w3.org/1999/xlink" x="0px" y="0px" width="1920px"
	 height="1080px" viewBox="0 0 1920 1080" enable-background="new 0 0 1920 1080" xml:space="preserve">
<g id="base">
	<g id="rooms">
		<g>
			<rect x="140.51" y="440.85" fill="#F4F1D4" width="1659.83" height="232.34"/>
			<path fill="#FFFFFF" d="M1794.76,446.43v221.18H146.09V446.43H1794.76 M1805.92,435.27H134.93v243.5h1670.99V435.27
				L1805.92,435.27z"/>
		</g>
	</g>
	<g id="internal">
		
			<line opacity="0.2" fill="none" stroke="#010101" stroke-width="43.483" stroke-miterlimit="10" x1="146.48" y1="564.41" x2="1793.53" y2="564.41"/>
	</g>
	<g id="outside_x5F_walls">
		<polyline fill="none" stroke="#2D2D2D" stroke-width="16.7416" stroke-linecap="square" stroke-miterlimit="10" points="
			127.48,456.23 127.48,429.05 1812.53,429.05 1812.53,499.25 		"/>
		
			<line fill="none" stroke="#2D2D2D" stroke-width="16.7416" stroke-linecap="square" stroke-miterlimit="10" x1="127.48" y1="499.25" x2="127.48" y2="499.25"/>
		<polyline fill="none" stroke="#2D2D2D" stroke-width="16.7416" stroke-linecap="square" stroke-miterlimit="10" points="
			1812.53,675.67 1812.53,686.23 127.48,686.23 127.48,628.46 		"/>
		
			<line fill="none" stroke="#2D2D2D" stroke-width="16.7416" stroke-linecap="square" stroke-miterlimit="10" x1="1812.53" y1="630.32" x2="1812.53" y2="631.56"/>
		<polyline fill="none" stroke="#F0EFEF" stroke-width="8.3708" stroke-miterlimit="10" points="127.48,461.98 127.48,429.05 
			1812.53,429.05 1812.53,503.6 		"/>
		
			<line fill="none" stroke="#F0EFEF" stroke-width="8.3708" stroke-miterlimit="10" x1="127.48" y1="503.6" x2="127.48" y2="493.97"/>
		<polyline fill="none" stroke="#F0EFEF" stroke-width="8.3708" stroke-miterlimit="10" points="1812.53,669.45 1812.53,686.23 
			127.48,686.23 127.48,624.42 		"/>
		
			<line fill="none" stroke="#F0EFEF" stroke-width="8.3708" stroke-miterlimit="10" x1="1812.53" y1="626.59" x2="1812.53" y2="635.29"/>
	</g>
	<g id="doors">
		<g>
			<defs>
				<rect id="SVGID_1_" x="1816.79" y="639.88" width="28.56" height="27.22"/>
			</defs>
			<clipPath id="SVGID_2_">
				<use xlink:href="#SVGID_1_"  overflow="visible"/>
			</clipPath>
			<g clip-path="url(#SVGID_2_)">
				<defs>
					<rect id="SVGID_3_" x="1816.79" y="639.88" width="28.56" height="27.22"/>
				</defs>
				<clipPath id="SVGID_4_">
					<use xlink:href="#SVGID_3_"  overflow="visible"/>
				</clipPath>
				<g opacity="0.3" clip-path="url(#SVGID_4_)">
					<g>
						<defs>
							<rect id="SVGID_5_" x="1818.78" y="640.64" width="25.54" height="24.36"/>
						</defs>
						<clipPath id="SVGID_6_">
							<use xlink:href="#SVGID_5_"  overflow="visible"/>
						</clipPath>
						<path clip-path="url(#SVGID_6_)" fill="#FFFFFF" d="M1844.32,665c0-13.33-9.59-24.36-25.54-24.36l0.01,24.36L1844.32,665z"/>
					</g>
				</g>
				<path clip-path="url(#SVGID_4_)" fill="none" stroke="#2D2D2D" stroke-width="1.5116" stroke-miterlimit="10" d="
					M1818.78,640.64c15.95,0,25.54,11.03,25.54,24.36"/>
				
					<line clip-path="url(#SVGID_4_)" fill="none" stroke="#2D2D2D" stroke-width="3.0232" stroke-linecap="square" stroke-miterlimit="10" x1="1818.3" y1="665.59" x2="1843.83" y2="665.59"/>
			</g>
		</g>
		<g>
			<defs>
				<rect id="SVGID_7_" x="93.94" y="463.69" width="28.56" height="27.22"/>
			</defs>
			<clipPath id="SVGID_8_">
				<use xlink:href="#SVGID_7_"  overflow="visible"/>
			</clipPath>
			<g clip-path="url(#SVGID_8_)">
				<defs>
					<rect id="SVGID_9_" x="93.94" y="463.69" width="28.56" height="27.22"/>
				</defs>
				<clipPath id="SVGID_10_">
					<use xlink:href="#SVGID_9_"  overflow="visible"/>
				</clipPath>
				<g opacity="0.3" clip-path="url(#SVGID_10_)">
					<g>
						<defs>
							<rect id="SVGID_11_" x="94.97" y="465.8" width="25.54" height="24.36"/>
						</defs>
						<clipPath id="SVGID_12_">
							<use xlink:href="#SVGID_11_"  overflow="visible"/>
						</clipPath>
						<path clip-path="url(#SVGID_12_)" fill="#FFFFFF" d="M94.97,465.8c0,13.33,9.59,24.36,25.54,24.36l-0.01-24.36L94.97,465.8z"
							/>
					</g>
				</g>
				<path clip-path="url(#SVGID_10_)" fill="none" stroke="#2D2D2D" stroke-width="1.5116" stroke-miterlimit="10" d="
					M120.51,490.16c-15.95,0-25.54-11.03-25.54-24.36"/>
				
					<line clip-path="url(#SVGID_10_)" fill="none" stroke="#2D2D2D" stroke-width="3.0232" stroke-linecap="square" stroke-miterlimit="10" x1="120.99" y1="465.2" x2="95.45" y2="465.2"/>
			</g>
		</g>
	</g>
</g>
<g id="nopointer-SWA">
	<text transform="matrix(1 0 0 1 879.6489 520.2274)" fill="#2D2D2D" font-family="'Arial'" font-weight="bold" font-size="29.8169px">Train Wash</text>
	<path fill="#ED2224" d="M1767.28,481.65c-9.66,0-17.5-7.84-17.5-17.5c0-9.66,7.84-17.5,17.5-17.5c9.66,0,17.5,7.84,17.5,17.5
		C1784.78,473.81,1776.94,481.65,1767.28,481.65"/>
	<path fill="#FFFFFF" d="M1776.53,457.38v-3.71l-5.53,0.66v0.66h-2.89v-1.4h-0.74c0,0,0-0.33-0.25-0.66
		c-0.66-0.99-2.15-1.07-2.81-0.33c-1.32,1.32,0,2.72,0,2.72c-1.32,0.58-2.39,1.57-2.81,2.48c-0.5,1.24,0.74,1.4,1.07,0.91
		c1.57-2.39,3.22-2.31,3.22-2.31v0.58c-2.72,0.91-2.56,3.38-2.56,3.38v15.35c0,0.83,0.83,0.74,0.83,0.74h2.64h2.97
		c0.83,0,0.91-0.66,0.91-1.16v-15.02c0-2.48-2.48-3.38-2.48-3.38v-0.83h2.89v0.66L1776.53,457.38z M1765.55,454.58
		c-0.41,0-0.74-0.33-0.74-0.74c0-0.41,0.33-0.74,0.74-0.74c0.41,0,0.74,0.33,0.74,0.74
		C1766.29,454.25,1766.04,454.58,1765.55,454.58"/>
	<path fill="#ED2224" d="M173.98,481.19c-9.66,0-17.5-7.84-17.5-17.5s7.84-17.5,17.5-17.5s17.5,7.84,17.5,17.5
		S183.64,481.19,173.98,481.19"/>
	<path fill="#FFFFFF" d="M183.22,456.92v-3.71l-5.53,0.66v0.66h-2.89v-1.4h-0.74c0,0,0-0.33-0.25-0.66
		c-0.66-0.99-2.15-1.07-2.81-0.33c-1.32,1.32,0,2.72,0,2.72c-1.32,0.58-2.39,1.57-2.81,2.48c-0.5,1.24,0.74,1.4,1.07,0.91
		c1.57-2.39,3.22-2.31,3.22-2.31v0.58c-2.72,0.91-2.56,3.38-2.56,3.38v15.35c0,0.83,0.83,0.74,0.83,0.74h2.64h2.97
		c0.83,0,0.91-0.66,0.91-1.16v-15.02c0-2.48-2.48-3.38-2.48-3.38v-0.83h2.89v0.66L183.22,456.92z M172.24,454.11
		c-0.41,0-0.74-0.33-0.74-0.74c0-0.41,0.33-0.74,0.74-0.74s0.74,0.33,0.74,0.74C172.99,453.78,172.74,454.11,172.24,454.11"/>
	<g>
		<defs>
			<rect id="SVGID_13_" x="118.5" y="76.23" width="234" height="255.49"/>
		</defs>
		<clipPath id="SVGID_14_">
			<use xlink:href="#SVGID_13_"  overflow="visible"/>
		</clipPath>
		
			<rect x="119.5" y="77.23" clip-path="url(#SVGID_14_)" fill="none" stroke="#010101" stroke-width="2" stroke-miterlimit="10" width="232" height="253.49"/>
		<path clip-path="url(#SVGID_14_)" fill="#1E4384" d="M155.4,266.37c12.37,0,22.4,10.03,22.4,22.4s-10.03,22.4-22.4,22.4
			s-22.4-10.03-22.4-22.4S143.03,266.37,155.4,266.37"/>
		<path clip-path="url(#SVGID_14_)" fill="#FFFFFF" d="M160.8,291.7c0,0.56-0.45,1.01-1.01,1.01s-1.01-0.45-1.01-1.01v-6.75
			c0-1.46,1.24-2.7,2.7-2.7h4.84c1.46,0,2.7,1.24,2.7,2.7v6.75c0,0.56-0.45,1.01-1.01,1.01c-0.56,0-1.01-0.45-1.01-1.01v-6.19h-0.56
			v16.77c0,0.67-0.56,1.24-1.24,1.24s-1.24-0.56-1.24-1.24v-9.68h-0.22v9.68c0,0.67-0.56,1.24-1.24,1.24
			c-0.68,0-1.24-0.56-1.24-1.24v-16.77h-0.56L160.8,291.7z"/>
		<path clip-path="url(#SVGID_14_)" fill="#FFFFFF" d="M163.95,277.29c1.24,0,2.25,1.01,2.25,2.25c0,1.24-1.01,2.25-2.25,2.25
			c-1.24,0-2.25-1.01-2.25-2.25C161.7,278.3,162.71,277.29,163.95,277.29"/>
		<path clip-path="url(#SVGID_14_)" fill="#FFFFFF" d="M141.89,290.8c-0.11,0.45-0.68,0.79-1.13,0.56
			c-0.45-0.11-0.79-0.68-0.67-1.13l1.8-6.3c0.34-1.13,1.46-2.03,2.59-2.03h3.04h0.11c1.24,0,2.25,0.79,2.59,2.03l1.8,6.3
			c0.11,0.45-0.11,1.01-0.68,1.13c-0.45,0.11-1.01-0.11-1.13-0.56l-1.69-5.85h-0.56l2.93,10.02h-2.7v7.43
			c0,0.56-0.45,1.01-1.01,1.01c-0.56,0-1.01-0.45-1.01-1.01v-7.43h-0.45v7.43c0,0.56-0.45,1.01-1.01,1.01
			c-0.56,0-1.01-0.45-1.01-1.01v-7.43h-2.48l2.93-10.02h-0.56L141.89,290.8z"/>
		<path clip-path="url(#SVGID_14_)" fill="#FFFFFF" d="M146.17,277.18c1.24,0,2.25,1.01,2.25,2.25c0,1.24-1.01,2.25-2.25,2.25
			c-1.24,0-2.25-1.01-2.25-2.25C143.92,278.18,144.93,277.18,146.17,277.18"/>
		
			<line clip-path="url(#SVGID_14_)" fill="none" stroke="#FFFFFF" stroke-width="0.906" stroke-miterlimit="10" x1="155.4" y1="270.2" x2="155.4" y2="306.89"/>
		<g clip-path="url(#SVGID_14_)" enable-background="new    ">
			<g>
				<defs>
					<rect id="SVGID_15_" x="190.72" y="283.36" width="58.09" height="16.56"/>
				</defs>
				<clipPath id="SVGID_16_">
					<use xlink:href="#SVGID_15_"  overflow="visible"/>
				</clipPath>
				<g clip-path="url(#SVGID_16_)">
					<text transform="matrix(1 0 0 1 190.7173 295.3689)"><tspan x="0" y="0" fill="#010101" font-family="'Arial'"  font-weight="bold"  font-size="14px">T</tspan><tspan x="8.3" y="0" fill="#010101" font-family="'Arial'"  font-weight="bold"  font-size="14px">OILETS</tspan></text>
				</g>
			</g>
		</g>
		<path clip-path="url(#SVGID_14_)" fill="#ED2224" d="M155.4,249.1c-11.7,0-21.2-9.5-21.2-21.2s9.5-21.2,21.2-21.2
			s21.2,9.5,21.2,21.2S167.1,249.1,155.4,249.1"/>
		<path clip-path="url(#SVGID_14_)" fill="#FFFFFF" d="M166.6,219.7v-4.5l-6.7,0.8v0.8h-3.5v-1.7h-0.9c0,0,0-0.4-0.3-0.8
			c-0.8-1.2-2.6-1.3-3.4-0.4c-1.6,1.6,0,3.3,0,3.3c-1.6,0.7-2.9,1.9-3.4,3c-0.6,1.5,0.9,1.7,1.3,1.1c1.9-2.9,3.9-2.8,3.9-2.8v0.7
			c-3.3,1.1-3.1,4.1-3.1,4.1v18.6c0,1,1,0.9,1,0.9h3.2h3.6c1,0,1.1-0.8,1.1-1.4v-18.2c0-3-3-4.1-3-4.1v-1h3.5v0.8L166.6,219.7z
			 M153.3,216.3c-0.5,0-0.9-0.4-0.9-0.9s0.4-0.9,0.9-0.9s0.9,0.4,0.9,0.9S153.9,216.3,153.3,216.3"/>
		<g clip-path="url(#SVGID_14_)" enable-background="new    ">
			<g>
				<defs>
					<rect id="SVGID_17_" x="190.72" y="222.66" width="105.01" height="16.56"/>
				</defs>
				<clipPath id="SVGID_18_">
					<use xlink:href="#SVGID_17_"  overflow="visible"/>
				</clipPath>
				<g clip-path="url(#SVGID_18_)">
					<text transform="matrix(1 0 0 1 190.7173 234.6744)" fill="#010101" font-family="'Arial'"  font-weight="bold"  font-size="14px">EXTINGUISHER</text>
				</g>
			</g>
		</g>
		<path clip-path="url(#SVGID_14_)" fill="#028346" d="M155.4,194.02c-11.7,0-21.2-9.5-21.2-21.2c0-11.7,9.5-21.2,21.2-21.2
			s21.2,9.5,21.2,21.2C176.6,184.52,167.1,194.02,155.4,194.02"/>
		<polygon clip-path="url(#SVGID_14_)" fill="#FFFFFF" points="168.6,169.23 159.1,169.23 159.1,159.73 151.8,159.73 151.8,169.23 
			142.2,169.23 142.2,176.63 151.8,176.63 151.8,186.13 159.1,186.13 159.1,176.63 168.6,176.63 		"/>
		<g clip-path="url(#SVGID_14_)" enable-background="new    ">
			<g>
				<defs>
					<rect id="SVGID_19_" x="190.72" y="167.87" width="66.64" height="16.56"/>
				</defs>
				<clipPath id="SVGID_20_">
					<use xlink:href="#SVGID_19_"  overflow="visible"/>
				</clipPath>
				<g clip-path="url(#SVGID_20_)">
					<text transform="matrix(1 0 0 1 190.7173 179.884)"><tspan x="0" y="0" fill="#010101" font-family="'Arial'"  font-weight="bold"  font-size="14px">FIRS</tspan><tspan x="31.89" y="0" fill="#010101" font-family="'Arial'"  font-weight="bold"  font-size="14px">T</tspan><tspan x="40.19" y="0" fill="#010101" font-family="'Arial'"  font-weight="bold"  font-size="14px"> </tspan><tspan x="43.32" y="0" fill="#010101" font-family="'Arial'"  font-weight="bold"  font-size="14px">AID</tspan></text>
				</g>
			</g>
		</g>
		<path clip-path="url(#SVGID_14_)" fill="#028346" d="M156.6,99.5c10.99,0,19.9,8.91,19.9,19.9c0,10.99-8.91,19.9-19.9,19.9
			c-10.99,0-19.9-8.91-19.9-19.9C136.7,108.41,145.61,99.5,156.6,99.5"/>
		<polygon clip-path="url(#SVGID_14_)" fill="#FFFFFF" points="166.7,115.6 166.7,133.3 164.2,135.8 144.5,135.8 146.9,133.7 
			146.9,115.7 142.6,115.7 156.6,103 170.5,115.6 		"/>
		<path clip-path="url(#SVGID_14_)" fill="#028346" d="M160.6,132.8l-4.8-8.8c-0.1,1-0.4,2.8-0.5,3.6c-0.1,1.1-1.2,1.4-1.7,1.5H144
			l2.4-2.9h5.8l0.4-5.3l2.3-4.2h-2h-0.1c-0.1,0.1-0.3,0.4-0.4,0.6l-1.6,2.5c-0.2,0.4-0.6,0.6-1.1,0.6c-0.2,0-0.5-0.1-0.7-0.2
			c-0.6-0.4-0.8-1.1-0.4-1.7l1.6-2.5c0.5-0.7,0.9-1.1,1.2-1.3c0.5-0.3,1-0.3,1.3-0.3h0.2h3.8c0.4,0,0.8-0.1,1.1-0.1
			c2,0,2.9,0.6,3.2,1c0.1,0.1,0.2,0.2,0.3,0.3l2.2,2.9h3.4c0.7,0,1.3,0.6,1.3,1.3c0,0.7-0.6,1.3-1.3,1.3h-4c-0.4,0-0.8-0.2-1-0.5
			l-1.7-2.3l-1.6,3.5l5.6,11.4L160.6,132.8z"/>
		<path clip-path="url(#SVGID_14_)" fill="#FFFFFF" d="M157.8,114.3c1.9,0,2.7,0.6,3,1c0.1,0.1,0.2,0.1,0.3,0.2l2.3,3h3.5
			c0.5,0,1,0.4,1,1s-0.4,1-1,1h-4c-0.3,0-0.6-0.1-0.8-0.4l-2-2.6l-1.9,4.1l5.5,11.1l-3-0.1l-5.1-9.3c0,0-0.5,3.3-0.6,4.4
			c-0.1,1.2-1.5,1.2-1.5,1.2h-9l2-2.4h6l0.4-5.6l2.4-4.6h-2.5h-0.1h-0.1c-0.1,0.1-0.4,0.4-0.5,0.7l-1.6,2.5
			c-0.2,0.3-0.5,0.5-0.8,0.5c-0.2,0-0.4-0.1-0.5-0.2c-0.5-0.3-0.6-0.9-0.3-1.4l1.6-2.5c0.4-0.7,0.8-1.1,1.1-1.2
			c0.4-0.3,0.9-0.3,1.2-0.3h0.2h3.9C157.1,114.3,157.5,114.3,157.8,114.3 M157.8,113.8v0.5V113.8c-0.4,0-0.7,0-1.1,0.1h-3.8h-0.2
			c-0.4,0-0.9,0.1-1.4,0.4c-0.4,0.2-0.8,0.7-1.3,1.4v0.1l-1.6,2.5c-0.4,0.7-0.2,1.7,0.5,2.1c0.2,0.2,0.5,0.2,0.8,0.2
			c0.5,0,1-0.3,1.3-0.7l1.6-2.5c0.1-0.2,0.2-0.3,0.3-0.4h1.6l-2,3.8l-0.1,0.1v0.1l-0.3,5h-5.5h-0.3l-0.2,0.2l-2,2.4l-0.8,0.9h1.2h9
			c0,0,0.4,0,0.9-0.2c0.6-0.3,1-0.8,1.1-1.5c0.1-0.6,0.3-1.8,0.4-2.8l4.3,7.9l0.1,0.3h0.3l3,0.1h0.9l-0.4-0.8l-5.4-10.9l1.4-3
			l1.4,1.9c0.3,0.4,0.7,0.6,1.2,0.6h4c0.8,0,1.5-0.7,1.5-1.5c0-0.8-0.7-1.5-1.5-1.5h-3.2l-2.1-2.8c-0.1-0.1-0.2-0.2-0.3-0.3
			c-0.3-0.3-0.6-0.5-1.1-0.7C159.5,113.9,158.7,113.8,157.8,113.8"/>
		<path clip-path="url(#SVGID_14_)" fill="#028346" d="M159.6,114.2c-1.4,0-2.6-1.2-2.6-2.6c0-1.4,1.2-2.6,2.6-2.6
			c1.4,0,2.6,1.2,2.6,2.6C162.2,113,161,114.2,159.6,114.2"/>
		<path clip-path="url(#SVGID_14_)" fill="#FFFFFF" d="M159.6,109.2c1.3,0,2.4,1.1,2.4,2.3c0,1.2-1.1,2.3-2.4,2.3
			c-1.3,0-2.4-1.1-2.4-2.3C157.2,110.3,158.3,109.2,159.6,109.2 M159.6,108.7c-1.6,0-2.9,1.3-2.9,2.9c0,1.6,1.3,2.9,2.9,2.9
			c1.6,0,2.9-1.3,2.9-2.9C162.5,110,161.1,108.7,159.6,108.7"/>
		<g clip-path="url(#SVGID_14_)" enable-background="new    ">
			<g>
				<defs>
					<rect id="SVGID_21_" x="191.49" y="114.51" width="134.85" height="16.56"/>
				</defs>
				<clipPath id="SVGID_22_">
					<use xlink:href="#SVGID_21_"  overflow="visible"/>
				</clipPath>
				<g clip-path="url(#SVGID_22_)">
					<text transform="matrix(1 0 0 1 191.4893 126.5198)"><tspan x="0" y="0" fill="#010101" font-family="'Arial'"  font-weight="bold"  font-size="14px">EMERGHENC</tspan><tspan x="91.01" y="0" fill="#010101" font-family="'Arial'"  font-weight="bold"  font-size="14px">Y</tspan><tspan x="100.11" y="0" fill="#010101" font-family="'Arial'"  font-weight="bold"  font-size="14px"> EXIT</tspan></text>
				</g>
			</g>
		</g>
	</g>
</g>
</svg>
