<?xml version="1.0" encoding="utf-8"?>
<!-- Generator: Adobe Illustrator 21.1.0, SVG Export Plug-In . SVG Version: 6.00 Build 0)  -->
<svg version="1.1" xmlns="http://www.w3.org/2000/svg" xmlns:xlink="http://www.w3.org/1999/xlink" x="0px" y="0px" width="1920px"
	 height="1080px" viewBox="0 0 1920 1080" enable-background="new 0 0 1920 1080" xml:space="preserve">
<g id="base">
	<g id="items">
	</g>
	<g id="rooms">
	</g>
	<g id="inside_x5F_walls">
	</g>
	<g id="outside_x5F_walls">
		<rect x="974.63" y="575.26" fill="#E9E8E9" width="52.81" height="109.45"/>
		<rect x="1035.84" y="575.26" fill="#E9E8E9" width="52.81" height="109.45"/>
		<rect x="970.77" y="685.86" fill="#E9E8E9" width="121.95" height="58.42"/>
		<path fill="#878787" d="M975.3,684.13l0-108.16l51.48,0l0,108.17L975.3,684.13z M973.97,685.42l54.15,0l0-110.73l-54.15,0
			L973.97,685.42z"/>
		<g>
			
				<line fill="none" stroke="#878787" stroke-width="1.3087" stroke-miterlimit="10" x1="1028.11" y1="672.07" x2="973.97" y2="672.07"/>
		</g>
		<g>
			
				<line fill="none" stroke="#878787" stroke-width="1.3087" stroke-miterlimit="10" x1="1028.11" y1="658.04" x2="973.97" y2="658.04"/>
		</g>
		<g>
			
				<line fill="none" stroke="#878787" stroke-width="1.3087" stroke-miterlimit="10" x1="1028.11" y1="644.01" x2="973.97" y2="644.01"/>
		</g>
		<g>
			
				<line fill="none" stroke="#878787" stroke-width="1.3087" stroke-miterlimit="10" x1="1028.11" y1="629.98" x2="973.97" y2="629.98"/>
		</g>
		<g>
			
				<line fill="none" stroke="#878787" stroke-width="1.3087" stroke-miterlimit="10" x1="1028.11" y1="615.95" x2="973.97" y2="615.95"/>
		</g>
		<g>
			
				<line fill="none" stroke="#878787" stroke-width="1.3087" stroke-miterlimit="10" x1="1028.11" y1="601.93" x2="973.97" y2="601.93"/>
			
				<line fill="none" stroke="#878787" stroke-width="1.3087" stroke-miterlimit="10" x1="1026.73" y1="587.05" x2="975.25" y2="587.05"/>
		</g>
		<path fill="#878787" d="M1036.5,684.14V575.97l51.48,0l0,108.17L1036.5,684.14z M1035.17,685.42l54.15,0l0-110.73l-54.15,0
			L1035.17,685.42z"/>
		<g>
			
				<line fill="none" stroke="#878787" stroke-width="1.3087" stroke-miterlimit="10" x1="1089.32" y1="672.07" x2="1035.17" y2="672.07"/>
		</g>
		<g>
			
				<line fill="none" stroke="#878787" stroke-width="1.3087" stroke-miterlimit="10" x1="1089.32" y1="658.04" x2="1035.17" y2="658.04"/>
		</g>
		<g>
			
				<line fill="none" stroke="#878787" stroke-width="1.3087" stroke-miterlimit="10" x1="1089.32" y1="644.01" x2="1035.17" y2="644.01"/>
		</g>
		<g>
			
				<line fill="none" stroke="#878787" stroke-width="1.3087" stroke-miterlimit="10" x1="1089.32" y1="629.99" x2="1035.17" y2="629.99"/>
		</g>
		<g>
			
				<line fill="none" stroke="#878787" stroke-width="1.3087" stroke-miterlimit="10" x1="1089.32" y1="615.96" x2="1035.17" y2="615.96"/>
		</g>
		<g>
			
				<line fill="none" stroke="#878787" stroke-width="1.3087" stroke-miterlimit="10" x1="1089.32" y1="601.93" x2="1035.17" y2="601.93"/>
			
				<line fill="none" stroke="#878787" stroke-width="1.3087" stroke-miterlimit="10" x1="1087.94" y1="587.05" x2="1036.45" y2="587.05"/>
		</g>
		<g>
			<g>
				<polyline fill="none" stroke="#878787" stroke-width="1.3088" stroke-miterlimit="10" points="1001.04,609.32 1001.04,714.14 
					1060.4,714.14 1060.4,672.94 				"/>
				<g>
					<polygon fill="#878787" points="1066.93,674.85 1060.4,663.55 1053.88,674.85 					"/>
				</g>
			</g>
		</g>
		
			<rect x="1027.45" y="575.63" fill="none" stroke="#878787" stroke-width="1.8269" stroke-miterlimit="10" width="7.72" height="116.16"/>
		<g>
			<polygon fill="#FBCECF" points="839.23,796.09 839.23,792.81 816.7,792.81 816.7,796.09 704.04,796.09 704.04,793.12 
				681.51,793.12 681.51,796.09 665.67,796.09 665.67,581.19 951.89,581.19 951.89,632.29 882.47,632.29 882.47,645.75 
				951.89,645.75 951.89,761.15 977.62,761.15 977.62,753.53 1027.07,753.53 1027.07,785.2 951.89,785.2 951.89,796.09 			"/>
			<path fill="#FFFFFF" d="M948.24,584.85v43.79h-62.12h-7.31v7.31v6.15v7.31h7.31h62.12v108.09v7.31h7.31h18.42h7.31v-7.31v-0.3
				h42.14v24.36h-67.87h-7.31v7.31v3.58h-14.31h-91.04v-3.27h-7.31h-15.22h-7.31v3.27H707.69v-2.97h-7.31h-15.22h-7.31v2.97h-8.53
				V584.85H948.24 M955.55,577.54H662.02v222.2h23.14v-2.97h15.22v2.97h119.97v-3.27h15.22v3.27h98.35h21.62v-10.89h75.18v-38.97
				h-56.76v7.61h-18.42v-115.4h-69.42v-6.15h69.42V577.54L955.55,577.54z"/>
		</g>
		<g>
			<polygon fill="#FBCECF" points="1246.03,798.29 1246.03,794.26 1223.49,794.26 1223.49,798.29 1111.14,798.29 1111.14,784.9 
				1038.82,784.9 1038.82,753.51 1085.66,753.25 1085.66,761.76 1110.23,761.76 1110.23,753.23 1181.32,753.23 1181.32,740.63 
				1112.21,740.63 1112.21,710.91 1219.25,710.91 1219.25,697.81 1112.21,697.81 1112.21,649.7 1181.32,649.7 1181.32,637.22 
				1112.21,637.22 1112.21,581.19 1184.52,581.19 1184.52,525.78 1362.95,525.78 1362.95,798.29 			"/>
			<path fill="#FFFFFF" d="M1359.3,529.43v265.21h-109.62v-4.03h-7.31h-15.22h-7.31v4.03h-105.05v-6.09v-7.31h-7.31h-65.01v-24.1
				l39.53-0.22v1.18v7.31h7.31h17.25h7.31v-7.31v-1.22h63.79h7.31v-7.31v-5.29v-7.31h-7.31h-61.81v-22.42h99.74h7.31v-7.31v-5.79
				v-7.31h-7.31h-99.74v-40.8h61.81h7.31v-7.31v-5.18v-7.31h-7.31h-61.81v-48.72h65.01h7.31v-7.31v-48.11H1359.3 M1366.6,522.12
				h-185.74v55.42h-72.32v63.33h69.12v5.18h-69.12v55.42h107.05v5.79h-107.05v37.03h69.12v5.29h-71.1v8.53h-17.25v-8.53l-54.15,0.3
				v38.67h72.32v9.36v4.03h119.66v-4.03h15.22v4.03h124.23V522.12L1366.6,522.12z"/>
		</g>
		<g>
			<polygon fill="#D9D8D6" points="570.07,797.68 570.07,793.42 547.53,793.42 547.53,797.68 433.35,797.68 433.35,793.73 
				427.26,793.73 427.26,473.56 433.35,473.56 433.35,469.45 547.53,469.45 547.53,473.56 570.07,473.56 570.07,469.45 
				652.58,469.45 652.58,797.68 			"/>
			<path fill="#FFFFFF" d="M648.93,473.1v320.93h-75.21v-4.26h-7.31h-15.22h-7.31v4.26H437v-3.96h-6.09V477.21H437v-4.11h106.87
				v4.11h7.31h15.22h7.31v-4.11H648.93 M656.24,465.79h-89.82v4.11h-15.22v-4.11H429.7v4.11h-6.09v327.48h6.09v3.96h121.49v-4.26
				h15.22v4.26h89.82V465.79L656.24,465.79z"/>
		</g>
		
			<line fill="none" stroke="#4D4D4E" stroke-width="5.4808" stroke-miterlimit="10" x1="658.98" y1="804.38" x2="658.98" y2="524.26"/>
		<polyline fill="none" stroke="#4D4D4E" stroke-width="5.4808" stroke-miterlimit="10" points="958.17,524.26 958.17,753.99 
			971.06,753.99 971.06,739.83 		"/>
		<polyline fill="none" stroke="#4D4D4E" stroke-width="5.4808" stroke-miterlimit="10" points="1031.97,746.72 1031.97,791.44 
			1104.59,791.44 1104.59,801.95 		"/>
		<polyline fill="none" stroke="#4D4D4E" stroke-width="5.4808" stroke-miterlimit="10" points="1030.15,791.44 958.17,791.44 
			958.17,804.38 		"/>
		
			<line fill="none" stroke="#4D4D4E" stroke-width="5.4808" stroke-miterlimit="10" x1="1177.67" y1="525.17" x2="1177.67" y2="462.14"/>
		<polyline fill="none" stroke="#4D4D4E" stroke-width="5.4808" stroke-miterlimit="10" points="1104.59,575.41 1104.59,755.93 
			1092.19,755.93 1092.19,575.41 1092.72,575.41 1177.67,575.41 1177.67,563.82 		"/>
		
			<line fill="none" stroke="#4D4D4E" stroke-width="5.4808" stroke-miterlimit="10" x1="958.17" y1="739.83" x2="958.17" y2="755.93"/>
		
			<line fill="none" stroke="#4D4D4E" stroke-width="5.4808" stroke-miterlimit="10" x1="1369.65" y1="519.38" x2="1177.67" y2="519.38"/>
		
			<line fill="none" stroke="#4D4D4E" stroke-width="5.4808" stroke-miterlimit="10" x1="1273.66" y1="519.38" x2="1273.66" y2="462.14"/>
		
			<line fill="none" stroke="#4D4D4E" stroke-width="5.4808" stroke-miterlimit="10" x1="787.75" y1="574.8" x2="958.17" y2="574.8"/>
		<line fill="none" stroke="#4D4D4E" stroke-width="5.4808" stroke-miterlimit="10" x1="658.98" y1="574.8" x2="749.1" y2="574.8"/>
		
			<line fill="none" stroke="#4D4D4E" stroke-width="5.4808" stroke-miterlimit="10" x1="958.17" y1="639.12" x2="886.12" y2="639.12"/>
		
			<line fill="none" stroke="#4D4D4E" stroke-width="5.4808" stroke-miterlimit="10" x1="1104.59" y1="643.61" x2="1177.67" y2="643.61"/>
		
			<line fill="none" stroke="#4D4D4E" stroke-width="5.4808" stroke-miterlimit="10" x1="1104.59" y1="703.9" x2="1216.19" y2="703.9"/>
		<polyline fill="none" stroke="#4D4D4E" stroke-width="5.4808" stroke-miterlimit="10" points="824.62,574.04 824.62,525.17 
			971.06,525.17 971.06,746.72 1092.72,746.72 1177.67,746.72 		"/>
		
			<line fill="none" stroke="#4D4D4E" stroke-width="5.4808" stroke-miterlimit="10" x1="741.19" y1="524.26" x2="741.19" y2="574.8"/>
		
			<line fill="none" stroke="#4D4D4E" stroke-width="5.4808" stroke-miterlimit="10" x1="674.81" y1="574.8" x2="674.81" y2="524.26"/>
		
			<line fill="none" stroke="#4D4D4E" stroke-width="5.4808" stroke-miterlimit="10" x1="1092.19" y1="477.67" x2="1092.19" y2="462.14"/>
		
			<line fill="none" stroke="#4D4D4E" stroke-width="5.4808" stroke-miterlimit="10" x1="1092.19" y1="575.41" x2="1092.19" y2="515.24"/>
		
			<line fill="none" stroke="#4D4D4E" stroke-width="5.4808" stroke-miterlimit="10" x1="551.19" y1="467.62" x2="566.41" y2="467.62"/>
		
			<line fill="none" stroke="#4D4D4E" stroke-width="5.4808" stroke-miterlimit="10" x1="685.16" y1="467.62" x2="700.39" y2="467.62"/>
		
			<line fill="none" stroke="#4D4D4E" stroke-width="5.4808" stroke-miterlimit="10" x1="820.35" y1="467.62" x2="835.58" y2="467.62"/>
		<line fill="none" stroke="#4D4D4E" stroke-width="5.4808" stroke-miterlimit="10" x1="957" y1="467.62" x2="972.23" y2="467.62"/>
		
			<line fill="none" stroke="#4D4D4E" stroke-width="5.4808" stroke-miterlimit="10" x1="1093.33" y1="467.62" x2="1108.55" y2="467.62"/>
		
			<line fill="none" stroke="#4D4D4E" stroke-width="5.4808" stroke-miterlimit="10" x1="1227.15" y1="467.62" x2="1242.37" y2="467.62"/>
		
			<line fill="none" stroke="#4D4D4E" stroke-width="5.4808" stroke-miterlimit="10" x1="419.95" y1="467.62" x2="429.7" y2="467.62"/>
		
			<line fill="none" stroke="#4D4D4E" stroke-width="5.4808" stroke-miterlimit="10" x1="419.95" y1="800.12" x2="429.7" y2="800.12"/>
		
			<line fill="none" stroke="#4D4D4E" stroke-width="5.4808" stroke-miterlimit="10" x1="551.19" y1="799.74" x2="566.41" y2="799.74"/>
		
			<line fill="none" stroke="#4D4D4E" stroke-width="5.4808" stroke-miterlimit="10" x1="685.16" y1="799.74" x2="700.39" y2="799.74"/>
		
			<line fill="none" stroke="#4D4D4E" stroke-width="5.4808" stroke-miterlimit="10" x1="820.35" y1="799.74" x2="835.58" y2="799.74"/>
		<line fill="none" stroke="#4D4D4E" stroke-width="5.4808" stroke-miterlimit="10" x1="957" y1="799.74" x2="972.23" y2="799.74"/>
		
			<line fill="none" stroke="#4D4D4E" stroke-width="5.4808" stroke-miterlimit="10" x1="1093.33" y1="799.74" x2="1108.55" y2="799.74"/>
		
			<line fill="none" stroke="#4D4D4E" stroke-width="5.4808" stroke-miterlimit="10" x1="1227.15" y1="799.74" x2="1242.37" y2="799.74"/>
		
			<line fill="none" stroke="#4D4D4E" stroke-width="5.4808" stroke-miterlimit="10" x1="658.98" y1="477.67" x2="658.98" y2="462.14"/>
		<line fill="none" stroke="#4D4D4E" stroke-width="5.4808" stroke-miterlimit="10" x1="658.98" y1="534" x2="658.98" y2="516.32"/>
		<polyline fill="none" stroke="#4D4D4E" stroke-width="5.4808" stroke-miterlimit="10" points="972.23,569.02 1033.34,569.02 
			1033.34,574.69 		"/>
		
			<line fill="none" stroke="#4D4D4E" stroke-width="5.4808" stroke-miterlimit="10" x1="777.44" y1="525.17" x2="658.98" y2="525.17"/>
		
			<line fill="none" stroke="#4D4D4E" stroke-width="5.4808" stroke-miterlimit="10" x1="839.84" y1="525.17" x2="816.09" y2="525.17"/>
		<polyline fill="none" stroke="#D9D8D6" stroke-width="1.8269" stroke-miterlimit="10" points="1369.65,459.4 1596.8,459.4 
			1597.25,806.97 1370.11,806.97 		"/>
		<polyline fill="none" stroke="#D9D8D6" stroke-width="1.8269" stroke-miterlimit="10" points="958.17,459.4 958.17,407.94 
			1092.19,329.38 1107.79,329.38 1238.42,406.11 1238.42,457.57 		"/>
		
			<line fill="none" stroke="#878787" stroke-width="2.7404" stroke-miterlimit="10" x1="441.88" y1="462.14" x2="1361.05" y2="462.14"/>
		
			<line fill="none" stroke="#878787" stroke-width="2.7404" stroke-miterlimit="10" x1="441.88" y1="804.38" x2="1361.05" y2="804.38"/>
		<polyline fill="none" stroke="#2D2D2D" stroke-width="7.3077" stroke-linecap="square" stroke-miterlimit="10" points="
			722.31,462.14 420.26,462.14 420.26,804.38 722.31,804.38 		"/>
		
			<line fill="none" stroke="#2D2D2D" stroke-width="7.3077" stroke-linecap="square" stroke-miterlimit="10" x1="855.67" y1="462.14" x2="800.87" y2="462.14"/>
		
			<line fill="none" stroke="#2D2D2D" stroke-width="7.3077" stroke-linecap="square" stroke-miterlimit="10" x1="981.5" y1="462.14" x2="934.84" y2="462.14"/>
		
			<line fill="none" stroke="#2D2D2D" stroke-width="7.3077" stroke-linecap="square" stroke-miterlimit="10" x1="1045.67" y1="462.14" x2="1017.66" y2="462.14"/>
		
			<line fill="none" stroke="#2D2D2D" stroke-width="7.3077" stroke-linecap="square" stroke-miterlimit="10" x1="1116.32" y1="462.14" x2="1083.43" y2="462.14"/>
		
			<line fill="none" stroke="#2D2D2D" stroke-width="7.3077" stroke-linecap="square" stroke-miterlimit="10" x1="1185.74" y1="462.14" x2="1151.64" y2="462.14"/>
		
			<line fill="none" stroke="#2D2D2D" stroke-width="7.3077" stroke-linecap="square" stroke-miterlimit="10" x1="1319.71" y1="462.14" x2="1222.28" y2="462.14"/>
		<polyline fill="none" stroke="#2D2D2D" stroke-width="7.3077" stroke-linecap="square" stroke-miterlimit="10" points="
			1341.03,804.38 1369.65,804.38 1369.65,462.14 1358.69,462.14 		"/>
		
			<line fill="none" stroke="#2D2D2D" stroke-width="7.3077" stroke-linecap="square" stroke-miterlimit="10" x1="1206.44" y1="804.38" x2="1263.08" y2="804.38"/>
		
			<line fill="none" stroke="#2D2D2D" stroke-width="7.3077" stroke-linecap="square" stroke-miterlimit="10" x1="937.28" y1="804.38" x2="1126.67" y2="804.38"/>
		
			<line fill="none" stroke="#2D2D2D" stroke-width="7.3077" stroke-linecap="square" stroke-miterlimit="10" x1="800.87" y1="804.38" x2="854.46" y2="804.38"/>
		<polyline fill="none" stroke="#E3E3E3" stroke-width="3.6538" stroke-miterlimit="10" points="722.31,462.14 420.26,462.14 
			420.26,804.38 722.31,804.38 		"/>
		
			<line fill="none" stroke="#E3E3E3" stroke-width="3.6538" stroke-miterlimit="10" x1="855.67" y1="462.14" x2="800.87" y2="462.14"/>
		
			<line fill="none" stroke="#E3E3E3" stroke-width="3.6538" stroke-miterlimit="10" x1="981.5" y1="462.14" x2="934.84" y2="462.14"/>
		
			<line fill="none" stroke="#E3E3E3" stroke-width="3.6538" stroke-miterlimit="10" x1="1045.67" y1="462.14" x2="1017.66" y2="462.14"/>
		
			<line fill="none" stroke="#E3E3E3" stroke-width="3.6538" stroke-miterlimit="10" x1="1116.32" y1="462.14" x2="1083.43" y2="462.14"/>
		
			<line fill="none" stroke="#E3E3E3" stroke-width="3.6538" stroke-miterlimit="10" x1="1185.74" y1="462.14" x2="1151.64" y2="462.14"/>
		
			<line fill="none" stroke="#E3E3E3" stroke-width="3.6538" stroke-miterlimit="10" x1="1319.71" y1="462.14" x2="1222.28" y2="462.14"/>
		<polyline fill="none" stroke="#E3E3E3" stroke-width="3.6538" stroke-miterlimit="10" points="1341.03,804.38 1369.65,804.38 
			1369.65,462.14 1358.69,462.14 		"/>
		
			<line fill="none" stroke="#E3E3E3" stroke-width="3.6538" stroke-miterlimit="10" x1="1206.44" y1="804.38" x2="1263.08" y2="804.38"/>
		
			<line fill="none" stroke="#E3E3E3" stroke-width="3.6538" stroke-miterlimit="10" x1="937.28" y1="804.38" x2="1126.67" y2="804.38"/>
		
			<line fill="none" stroke="#E3E3E3" stroke-width="3.6538" stroke-miterlimit="10" x1="800.87" y1="804.38" x2="854.46" y2="804.38"/>
		<g>
			<defs>
				<rect id="SVGID_1_" x="777.44" y="522.43" width="38.65" height="40.54"/>
			</defs>
			<clipPath id="SVGID_2_">
				<use xlink:href="#SVGID_1_"  overflow="visible"/>
			</clipPath>
			<g clip-path="url(#SVGID_2_)">
				<defs>
					<rect id="SVGID_3_" x="777.44" y="522.43" width="38.65" height="40.54"/>
				</defs>
				<clipPath id="SVGID_4_">
					<use xlink:href="#SVGID_3_"  overflow="visible"/>
				</clipPath>
				<g opacity="0.3" clip-path="url(#SVGID_4_)">
					<g>
						<defs>
							<rect id="SVGID_5_" x="778.52" y="525.25" width="34.58" height="36.26"/>
						</defs>
						<clipPath id="SVGID_6_">
							<use xlink:href="#SVGID_5_"  overflow="visible"/>
						</clipPath>
						<path clip-path="url(#SVGID_6_)" fill="#FFFFFF" d="M813.1,561.51c-18.92,0-34.58-13.62-34.58-36.26l34.58,0.01L813.1,561.51z
							"/>
					</g>
				</g>
				<path clip-path="url(#SVGID_4_)" fill="none" stroke="#2D2D2D" stroke-width="2.1459" stroke-miterlimit="10" d="M778.52,525.25
					c0,22.64,15.66,36.26,34.58,36.26"/>
				
					<line clip-path="url(#SVGID_4_)" fill="none" stroke="#2D2D2D" stroke-width="4.2917" stroke-linecap="square" stroke-miterlimit="10" x1="813.94" y1="524.57" x2="813.94" y2="560.82"/>
			</g>
		</g>
		<g>
			<defs>
				<rect id="SVGID_7_" x="749.1" y="572.06" width="38.65" height="40.54"/>
			</defs>
			<clipPath id="SVGID_8_">
				<use xlink:href="#SVGID_7_"  overflow="visible"/>
			</clipPath>
			<g clip-path="url(#SVGID_8_)">
				<defs>
					<rect id="SVGID_9_" x="749.1" y="572.06" width="38.65" height="40.54"/>
				</defs>
				<clipPath id="SVGID_10_">
					<use xlink:href="#SVGID_9_"  overflow="visible"/>
				</clipPath>
				<g opacity="0.3" clip-path="url(#SVGID_10_)">
					<g>
						<defs>
							<rect id="SVGID_11_" x="750.18" y="574.88" width="34.58" height="36.26"/>
						</defs>
						<clipPath id="SVGID_12_">
							<use xlink:href="#SVGID_11_"  overflow="visible"/>
						</clipPath>
						<path clip-path="url(#SVGID_12_)" fill="#FFFFFF" d="M784.76,611.14c-18.92,0-34.58-13.62-34.58-36.26l34.58,0.01
							L784.76,611.14z"/>
					</g>
				</g>
				<path clip-path="url(#SVGID_10_)" fill="none" stroke="#2D2D2D" stroke-width="2.1459" stroke-miterlimit="10" d="
					M750.18,574.88c0,22.64,15.66,36.26,34.58,36.26"/>
				
					<line clip-path="url(#SVGID_10_)" fill="none" stroke="#2D2D2D" stroke-width="4.2917" stroke-linecap="square" stroke-miterlimit="10" x1="785.6" y1="574.21" x2="785.61" y2="610.45"/>
			</g>
		</g>
		<g>
			<defs>
				<rect id="SVGID_13_" x="1175.06" y="525.17" width="40.54" height="38.65"/>
			</defs>
			<clipPath id="SVGID_14_">
				<use xlink:href="#SVGID_13_"  overflow="visible"/>
			</clipPath>
			<g clip-path="url(#SVGID_14_)">
				<defs>
					<rect id="SVGID_15_" x="1175.06" y="525.17" width="40.54" height="38.65"/>
				</defs>
				<clipPath id="SVGID_16_">
					<use xlink:href="#SVGID_15_"  overflow="visible"/>
				</clipPath>
				<g opacity="0.3" clip-path="url(#SVGID_16_)">
					<g>
						<defs>
							<rect id="SVGID_17_" x="1177.88" y="528.16" width="36.26" height="34.58"/>
						</defs>
						<clipPath id="SVGID_18_">
							<use xlink:href="#SVGID_17_"  overflow="visible"/>
						</clipPath>
						<path clip-path="url(#SVGID_18_)" fill="#FFFFFF" d="M1214.14,528.16c0,18.92-13.62,34.58-36.26,34.58l0.01-34.58
							L1214.14,528.16z"/>
					</g>
				</g>
				<path clip-path="url(#SVGID_16_)" fill="none" stroke="#2D2D2D" stroke-width="2.1459" stroke-miterlimit="10" d="
					M1177.88,562.74c22.64,0,36.26-15.66,36.26-34.58"/>
				
					<line clip-path="url(#SVGID_16_)" fill="none" stroke="#2D2D2D" stroke-width="4.2917" stroke-linecap="square" stroke-miterlimit="10" x1="1177.21" y1="527.32" x2="1213.45" y2="527.32"/>
			</g>
		</g>
		<g>
			<defs>
				<rect id="SVGID_19_" x="1089.32" y="477.67" width="40.54" height="38.65"/>
			</defs>
			<clipPath id="SVGID_20_">
				<use xlink:href="#SVGID_19_"  overflow="visible"/>
			</clipPath>
			<g clip-path="url(#SVGID_20_)">
				<defs>
					<rect id="SVGID_21_" x="1089.32" y="477.67" width="40.54" height="38.65"/>
				</defs>
				<clipPath id="SVGID_22_">
					<use xlink:href="#SVGID_21_"  overflow="visible"/>
				</clipPath>
				<g opacity="0.3" clip-path="url(#SVGID_22_)">
					<g>
						<defs>
							<rect id="SVGID_23_" x="1092.14" y="480.66" width="36.26" height="34.58"/>
						</defs>
						<clipPath id="SVGID_24_">
							<use xlink:href="#SVGID_23_"  overflow="visible"/>
						</clipPath>
						<path clip-path="url(#SVGID_24_)" fill="#FFFFFF" d="M1128.4,480.66c0,18.92-13.62,34.58-36.26,34.58l0.01-34.58
							L1128.4,480.66z"/>
					</g>
				</g>
				<path clip-path="url(#SVGID_22_)" fill="none" stroke="#2D2D2D" stroke-width="2.1459" stroke-miterlimit="10" d="
					M1092.14,515.24c22.64,0,36.26-15.66,36.26-34.58"/>
				
					<line clip-path="url(#SVGID_22_)" fill="none" stroke="#2D2D2D" stroke-width="4.2917" stroke-linecap="square" stroke-miterlimit="10" x1="1091.46" y1="479.82" x2="1127.71" y2="479.82"/>
			</g>
		</g>
		<g>
			<defs>
				<rect id="SVGID_25_" x="621.12" y="477.67" width="40.54" height="38.65"/>
			</defs>
			<clipPath id="SVGID_26_">
				<use xlink:href="#SVGID_25_"  overflow="visible"/>
			</clipPath>
			<g clip-path="url(#SVGID_26_)">
				<defs>
					<rect id="SVGID_27_" x="621.12" y="477.67" width="40.54" height="38.65"/>
				</defs>
				<clipPath id="SVGID_28_">
					<use xlink:href="#SVGID_27_"  overflow="visible"/>
				</clipPath>
				<g opacity="0.3" clip-path="url(#SVGID_28_)">
					<g>
						<defs>
							<rect id="SVGID_29_" x="622.58" y="480.66" width="36.26" height="34.58"/>
						</defs>
						<clipPath id="SVGID_30_">
							<use xlink:href="#SVGID_29_"  overflow="visible"/>
						</clipPath>
						<path clip-path="url(#SVGID_30_)" fill="#FFFFFF" d="M622.58,480.66c0,18.92,13.62,34.58,36.26,34.58l-0.01-34.58
							L622.58,480.66z"/>
					</g>
				</g>
				<path clip-path="url(#SVGID_28_)" fill="none" stroke="#2D2D2D" stroke-width="2.1459" stroke-miterlimit="10" d="
					M658.84,515.24c-22.64,0-36.26-15.66-36.26-34.58"/>
				
					<line clip-path="url(#SVGID_28_)" fill="none" stroke="#2D2D2D" stroke-width="4.2917" stroke-linecap="square" stroke-miterlimit="10" x1="659.52" y1="479.82" x2="623.27" y2="479.82"/>
			</g>
		</g>
		<text transform="matrix(1 0 0 1 1206.0229 672.0695)" fill="#2D2D2D" font-family="'Arial'" font-weight="bold" font-size="14.6154px">Male Locker Room</text>
		<text transform="matrix(1 0 0 1 743.6011 703.9015)" fill="#2D2D2D" font-family="'Arial'" font-weight="bold" font-size="14.6154px">Male Locker Room</text>
		<path fill="#1E4384" d="M1273.66,612.48c9.67,0,17.5,7.83,17.5,17.5s-7.83,17.5-17.5,17.5c-9.67,0-17.5-7.83-17.5-17.5
			S1263.99,612.48,1273.66,612.48"/>
		<path fill="#FFFFFF" d="M1270.66,631.23c0,0.5-0.5,1-1,1c-0.5,0-1-0.5-1-1v-6.25c0-1.51,1.25-2.5,2.5-2.5h4.5
			c1.5,0,2.5,1.25,2.5,2.5v6.25c0,0.5-0.5,1-1,1c-0.5,0-1-0.5-1-1v-5.75v15.75c0,0.75-0.5,1.25-1.25,1.25
			c-0.75,0-1.25-0.5-1.25-1.25v-9.25h-0.5v9.25c0,0.75-0.5,1.25-1.25,1.25c-0.75,0-1.25-0.5-1.25-1.25v-15.75h-0.5L1270.66,631.23z"
			/>
		<path fill="#FFFFFF" d="M1273.66,617.73c1.1,0,2,0.9,2,2c0,1.1-0.9,2-2,2s-2-0.9-2-2
			C1271.66,618.63,1272.56,617.73,1273.66,617.73"/>
		<path fill="#ED2224" d="M995.58,562.83c-9.66,0-17.5-7.84-17.5-17.5c0-9.66,7.84-17.5,17.5-17.5s17.5,7.84,17.5,17.5
			C1013.08,554.98,1005.23,562.83,995.58,562.83"/>
		<path fill="#FFFFFF" d="M1004.82,538.56v-3.71l-5.53,0.66v0.66h-2.89v-1.4h-0.74c0,0,0-0.33-0.25-0.66
			c-0.66-0.99-2.15-1.07-2.81-0.33c-1.32,1.32,0,2.72,0,2.72c-1.32,0.58-2.39,1.57-2.81,2.48c-0.5,1.24,0.74,1.4,1.07,0.91
			c1.57-2.39,3.22-2.31,3.22-2.31v0.58c-2.72,0.91-2.56,3.38-2.56,3.38v15.35c0,0.83,0.83,0.74,0.83,0.74H995h2.97
			c0.83,0,0.91-0.66,0.91-1.16v-15.02c0-2.48-2.48-3.38-2.48-3.38v-0.83h2.89v0.66L1004.82,538.56z M993.84,535.75
			c-0.41,0-0.74-0.33-0.74-0.74c0-0.41,0.33-0.74,0.74-0.74c0.41,0,0.74,0.33,0.74,0.74C994.59,535.42,994.34,535.75,993.84,535.75"
			/>
		<path fill="#1E4384" d="M808.57,644.23c9.67,0,17.5,7.83,17.5,17.5s-7.83,17.5-17.5,17.5s-17.5-7.83-17.5-17.5
			S798.91,644.23,808.57,644.23"/>
		<path fill="#FFFFFF" d="M805.57,662.98c0,0.5-0.5,1-1,1c-0.5,0-1-0.5-1-1v-6.25c0-1.51,1.25-2.5,2.5-2.5h4.5
			c1.5,0,2.5,1.25,2.5,2.5v6.25c0,0.5-0.5,1-1,1s-1-0.5-1-1v-5.75v15.75c0,0.75-0.5,1.25-1.25,1.25c-0.75,0-1.25-0.5-1.25-1.25
			v-9.25h-0.5v9.25c0,0.75-0.5,1.25-1.25,1.25s-1.25-0.5-1.25-1.25v-15.75h-0.5L805.57,662.98z"/>
		<path fill="#FFFFFF" d="M808.57,649.48c1.1,0,2,0.9,2,2s-0.9,2-2,2s-2-0.9-2-2S807.47,649.48,808.57,649.48"/>
	</g>
	<g id="doors">
	</g>
	<g id="label">
	</g>
</g>
<g id="nopointer-SWA">
	<g>
		<defs>
			<rect id="SVGID_31_" x="118.5" y="76.23" width="234" height="351.11"/>
		</defs>
		<clipPath id="SVGID_32_">
			<use xlink:href="#SVGID_31_"  overflow="visible"/>
		</clipPath>
		
			<rect x="119.5" y="77.23" clip-path="url(#SVGID_32_)" fill="none" stroke="#010101" stroke-width="2" stroke-miterlimit="10" width="232" height="349.11"/>
		<path clip-path="url(#SVGID_32_)" fill="#1E4384" d="M155.4,367.07c12.37,0,22.4,10.03,22.4,22.4c0,12.37-10.03,22.4-22.4,22.4
			s-22.4-10.03-22.4-22.4C133,377.1,143.03,367.07,155.4,367.07"/>
		<path clip-path="url(#SVGID_32_)" fill="#FFFFFF" d="M160.8,392.39c0,0.56-0.45,1.01-1.01,1.01s-1.01-0.45-1.01-1.01v-6.75
			c0-1.46,1.24-2.7,2.7-2.7h4.84c1.46,0,2.7,1.24,2.7,2.7v6.75c0,0.56-0.45,1.01-1.01,1.01c-0.56,0-1.01-0.45-1.01-1.01v-6.19h-0.56
			v16.77c0,0.67-0.56,1.24-1.24,1.24s-1.24-0.56-1.24-1.24v-9.68h-0.22v9.68c0,0.67-0.56,1.24-1.24,1.24
			c-0.68,0-1.24-0.56-1.24-1.24V386.2h-0.56L160.8,392.39z"/>
		<path clip-path="url(#SVGID_32_)" fill="#FFFFFF" d="M163.95,377.98c1.24,0,2.25,1.01,2.25,2.25c0,1.24-1.01,2.25-2.25,2.25
			c-1.24,0-2.25-1.01-2.25-2.25C161.7,378.99,162.71,377.98,163.95,377.98"/>
		<path clip-path="url(#SVGID_32_)" fill="#FFFFFF" d="M141.89,391.49c-0.11,0.45-0.68,0.79-1.13,0.56
			c-0.45-0.11-0.79-0.67-0.67-1.13l1.8-6.3c0.34-1.13,1.46-2.03,2.59-2.03h3.04h0.11c1.24,0,2.25,0.79,2.59,2.03l1.8,6.3
			c0.11,0.45-0.11,1.01-0.68,1.13c-0.45,0.11-1.01-0.11-1.13-0.56l-1.69-5.85h-0.56l2.93,10.02h-2.7v7.43
			c0,0.56-0.45,1.01-1.01,1.01c-0.56,0-1.01-0.45-1.01-1.01v-7.43h-0.45v7.43c0,0.56-0.45,1.01-1.01,1.01
			c-0.56,0-1.01-0.45-1.01-1.01v-7.43h-2.48l2.93-10.02h-0.56L141.89,391.49z"/>
		<path clip-path="url(#SVGID_32_)" fill="#FFFFFF" d="M146.17,377.87c1.24,0,2.25,1.01,2.25,2.25c0,1.24-1.01,2.25-2.25,2.25
			c-1.24,0-2.25-1.01-2.25-2.25C143.92,378.88,144.93,377.87,146.17,377.87"/>
		
			<line clip-path="url(#SVGID_32_)" fill="none" stroke="#FFFFFF" stroke-width="0.906" stroke-miterlimit="10" x1="155.4" y1="370.89" x2="155.4" y2="407.59"/>
		<g clip-path="url(#SVGID_32_)" enable-background="new    ">
			<g>
				<defs>
					<rect id="SVGID_33_" x="190.72" y="384.05" width="58.09" height="16.56"/>
				</defs>
				<clipPath id="SVGID_34_">
					<use xlink:href="#SVGID_33_"  overflow="visible"/>
				</clipPath>
				<g clip-path="url(#SVGID_34_)">
					<text transform="matrix(1 0 0 1 190.7173 396.0657)"><tspan x="0" y="0" fill="#010101" font-family="'Arial'"  font-size="14px">T</tspan><tspan x="8.3" y="0" fill="#010101" font-family="'Arial'"  font-size="14px">OILETS</tspan></text>
				</g>
			</g>
		</g>
		<path clip-path="url(#SVGID_32_)" fill="#ED2224" d="M155.4,302.4c-11.7,0-21.2-9.5-21.2-21.2c0-11.7,9.5-21.2,21.2-21.2
			s21.2,9.5,21.2,21.2C176.6,292.9,167.1,302.4,155.4,302.4"/>
		<path clip-path="url(#SVGID_32_)" fill="#FFFFFF" d="M166.6,273v-4.5l-6.7,0.8v0.8h-3.5v-1.7h-0.9c0,0,0-0.4-0.3-0.8
			c-0.8-1.2-2.6-1.3-3.4-0.4c-1.6,1.6,0,3.3,0,3.3c-1.6,0.7-2.9,1.9-3.4,3c-0.6,1.5,0.9,1.7,1.3,1.1c1.9-2.9,3.9-2.8,3.9-2.8v0.7
			c-3.3,1.1-3.1,4.1-3.1,4.1v18.6c0,1,1,0.9,1,0.9h3.2h3.6c1,0,1.1-0.8,1.1-1.4v-18.2c0-3-3-4.1-3-4.1v-1h3.5v0.8L166.6,273z
			 M153.3,269.6c-0.5,0-0.9-0.4-0.9-0.9s0.4-0.9,0.9-0.9s0.9,0.4,0.9,0.9S153.9,269.6,153.3,269.6"/>
		<g clip-path="url(#SVGID_32_)" enable-background="new    ">
			<g>
				<defs>
					<rect id="SVGID_35_" x="190.72" y="275.96" width="105.01" height="16.56"/>
				</defs>
				<clipPath id="SVGID_36_">
					<use xlink:href="#SVGID_35_"  overflow="visible"/>
				</clipPath>
				<g clip-path="url(#SVGID_36_)">
					<text transform="matrix(1 0 0 1 190.7173 287.9749)" fill="#010101" font-family="'Arial'"  font-size="14px">EXTINGUISHER</text>
				</g>
			</g>
		</g>
		<path clip-path="url(#SVGID_32_)" fill="#028346" d="M155.4,204.66c12.37,0,22.4,10.03,22.4,22.4s-10.03,22.4-22.4,22.4
			s-22.4-10.03-22.4-22.4S143.03,204.66,155.4,204.66"/>
		<path clip-path="url(#SVGID_32_)" fill="#FFFFFF" d="M155.1,226.39c2.46,0,4.83,0.44,7.03,1.3c1.78,0.69,3.46,1.66,4.99,2.89
			c1.61,1.28,2.74,2.57,3.37,3.4c-0.64,0.82-1.76,2.12-3.37,3.4c-1.54,1.22-3.22,2.19-4.99,2.89c-2.21,0.87-4.57,1.3-7.03,1.3
			c-2.46,0-4.82-0.44-7.01-1.3c-1.76-0.69-3.42-1.66-4.95-2.88c-1.6-1.28-2.71-2.58-3.34-3.4c0.63-0.82,1.74-2.12,3.34-3.4
			c1.52-1.22,3.19-2.19,4.95-2.88C150.28,226.83,152.64,226.39,155.1,226.39 M155.1,224.68c-11.87,0-17.38,9.3-17.38,9.3
			s5.51,9.3,17.38,9.3s17.5-9.3,17.5-9.3S166.97,224.68,155.1,224.68"/>
		<path clip-path="url(#SVGID_32_)" fill="#FFFFFF" d="M155.22,227.1c1.83,0,3.57,0.71,4.86,2.02c1.3,1.3,2.02,3.03,2.02,4.86
			c0,1.83-0.71,3.56-2.02,4.86c-1.3,1.3-3.03,2.02-4.86,2.02c-1.84,0-3.57-0.71-4.86-2.02c-1.3-1.3-2.02-3.03-2.02-4.86
			c0-1.84,0.71-3.57,2.02-4.86C151.66,227.81,153.38,227.1,155.22,227.1 M155.22,225.39c-4.74,0-8.59,3.85-8.59,8.59
			c0,4.74,3.84,8.59,8.59,8.59c4.75,0,8.59-3.85,8.59-8.59C163.81,229.24,159.96,225.39,155.22,225.39"/>
		<path clip-path="url(#SVGID_32_)" fill="#FFFFFF" d="M160.41,207.67c0,0,0.68,2.07,1.61,3.51c0.75,1.15,0.68,3.58-1.61,3.58
			s-2.36-2.43-1.61-3.58C159.73,209.74,160.41,207.67,160.41,207.67"/>
		<path clip-path="url(#SVGID_32_)" fill="#FFFFFF" d="M155.16,212.57c0,0,0.68,2.07,1.61,3.51c0.75,1.15,0.68,3.58-1.61,3.58
			c-2.3,0-2.36-2.43-1.61-3.58C154.48,214.64,155.16,212.57,155.16,212.57"/>
		<path clip-path="url(#SVGID_32_)" fill="#FFFFFF" d="M160.54,216.32c0,0,0.68,2.07,1.61,3.5c0.75,1.15,0.68,3.58-1.61,3.58
			s-2.36-2.43-1.61-3.58C159.86,218.39,160.54,216.32,160.54,216.32"/>
		<path clip-path="url(#SVGID_32_)" fill="#028346" d="M155.4,194.02c-11.7,0-21.2-9.5-21.2-21.2c0-11.7,9.5-21.2,21.2-21.2
			s21.2,9.5,21.2,21.2C176.6,184.52,167.1,194.02,155.4,194.02"/>
		<polygon clip-path="url(#SVGID_32_)" fill="#FFFFFF" points="168.6,169.23 159.1,169.23 159.1,159.73 151.8,159.73 151.8,169.23 
			142.2,169.23 142.2,176.63 151.8,176.63 151.8,186.13 159.1,186.13 159.1,176.63 168.6,176.63 		"/>
		<g clip-path="url(#SVGID_32_)" enable-background="new    ">
			<g>
				<defs>
					<rect id="SVGID_37_" x="190.72" y="167.87" width="66.64" height="16.56"/>
				</defs>
				<clipPath id="SVGID_38_">
					<use xlink:href="#SVGID_37_"  overflow="visible"/>
				</clipPath>
				<g clip-path="url(#SVGID_38_)">
					<text transform="matrix(1 0 0 1 190.7173 179.884)"><tspan x="0" y="0" fill="#010101" font-family="'Arial'"  font-size="14px">FIRS</tspan><tspan x="31.89" y="0" fill="#010101" font-family="'Arial'"  font-size="14px">T</tspan><tspan x="40.19" y="0" fill="#010101" font-family="'Arial'"  font-size="14px"> </tspan><tspan x="43.32" y="0" fill="#010101" font-family="'Arial'"  font-size="14px">AID</tspan></text>
				</g>
			</g>
		</g>
		<g clip-path="url(#SVGID_32_)" enable-background="new    ">
			<g>
				<defs>
					<rect id="SVGID_39_" x="190.72" y="221.92" width="73.38" height="16.56"/>
				</defs>
				<clipPath id="SVGID_40_">
					<use xlink:href="#SVGID_39_"  overflow="visible"/>
				</clipPath>
				<g clip-path="url(#SVGID_40_)">
					<text transform="matrix(1 0 0 1 190.7173 233.9299)"><tspan x="0" y="0" fill="#010101" font-family="'Arial'"  font-size="14px">EYE </tspan><tspan x="31.9" y="0" fill="#010101" font-family="'Arial'"  font-size="14px">W</tspan><tspan x="44.6" y="0" fill="#010101" font-family="'Arial'"  font-size="14px">ASH</tspan></text>
				</g>
			</g>
		</g>
		<path clip-path="url(#SVGID_32_)" fill="#ED2224" d="M155.4,356.53c-11.7,0-21.2-9.5-21.2-21.2c0-11.7,9.5-21.2,21.2-21.2
			s21.2,9.5,21.2,21.2C176.6,347.03,167.1,356.53,155.4,356.53"/>
		<path clip-path="url(#SVGID_32_)" fill="#FFFFFF" d="M165.2,333.23c-2.3,3.2-3.9,2.4-3.9,2.4c1.5-3.2-0.4-7.5-0.4-7.5
			c-2.7,3.2-3,2.2-3,2.2c1.2-4.1-2.7-9.5-2.7-9.5c1.9,4.7-2.5,9.4-2.5,9.4c-0.2-1.5-1.2-2.9-1.2-2.9c-3.3,5.5-2.7,7.6-2.7,7.6
			c-0.6-1.1-2.5-2-2.5-2c-6.1,15.1,6,15.6,6,15.6c-5.9-4.2-4.4-7-4.4-7c0.9,1,2.7,1,2.7,1c-0.7-1.6-0.2-3.5-0.2-3.5
			c1.2,2.2,3.4,2,3.4,2c-1.5-2.6,1.9-5.8,1.9-5.8c-0.5,1.5,0.6,5.4,0.6,5.4c0.1-0.4,0.4-0.5,1.1-0.9c0.6-0.4,1.1-1.4,1.1-1.4
			c0.8,3,1.2,3.4,1.2,3.4c1,0.2,1.9-1,1.9-1c2,5.4-4.6,7.7-4.6,7.7C169.2,348.33,165.2,333.23,165.2,333.23"/>
		<g clip-path="url(#SVGID_32_)" enable-background="new    ">
			<g>
				<defs>
					<rect id="SVGID_41_" x="190.72" y="330.01" width="99.33" height="16.56"/>
				</defs>
				<clipPath id="SVGID_42_">
					<use xlink:href="#SVGID_41_"  overflow="visible"/>
				</clipPath>
				<g clip-path="url(#SVGID_42_)">
					<text transform="matrix(1 0 0 1 190.7173 342.0198)" fill="#010101" font-family="'Arial'"  font-size="14px">FIRE BLANKET</text>
				</g>
			</g>
		</g>
		<path clip-path="url(#SVGID_32_)" fill="#028346" d="M156.6,99.5c10.99,0,19.9,8.91,19.9,19.9c0,10.99-8.91,19.9-19.9,19.9
			c-10.99,0-19.9-8.91-19.9-19.9C136.7,108.41,145.61,99.5,156.6,99.5"/>
		<polygon clip-path="url(#SVGID_32_)" fill="#FFFFFF" points="166.7,115.6 166.7,133.3 164.2,135.8 144.5,135.8 146.9,133.7 
			146.9,115.7 142.6,115.7 156.6,103 170.5,115.6 		"/>
		<path clip-path="url(#SVGID_32_)" fill="#028346" d="M160.6,132.8l-4.8-8.8c-0.1,1-0.4,2.8-0.5,3.6c-0.1,1.1-1.2,1.4-1.7,1.5H144
			l2.4-2.9h5.8l0.4-5.3l2.3-4.2h-2h-0.1c-0.1,0.1-0.3,0.4-0.4,0.6l-1.6,2.5c-0.2,0.4-0.6,0.6-1.1,0.6c-0.2,0-0.5-0.1-0.7-0.2
			c-0.6-0.4-0.8-1.1-0.4-1.7l1.6-2.5c0.5-0.7,0.9-1.1,1.2-1.3c0.5-0.3,1-0.3,1.3-0.3h0.2h3.8c0.4,0,0.8-0.1,1.1-0.1
			c2,0,2.9,0.6,3.2,1c0.1,0.1,0.2,0.2,0.3,0.3l2.2,2.9h3.4c0.7,0,1.3,0.6,1.3,1.3c0,0.7-0.6,1.3-1.3,1.3h-4c-0.4,0-0.8-0.2-1-0.5
			l-1.7-2.3l-1.6,3.5l5.6,11.4L160.6,132.8z"/>
		<path clip-path="url(#SVGID_32_)" fill="#FFFFFF" d="M157.8,114.3c1.9,0,2.7,0.6,3,1c0.1,0.1,0.2,0.1,0.3,0.2l2.3,3h3.5
			c0.5,0,1,0.4,1,1s-0.4,1-1,1h-4c-0.3,0-0.6-0.1-0.8-0.4l-2-2.6l-1.9,4.1l5.5,11.1l-3-0.1l-5.1-9.3c0,0-0.5,3.3-0.6,4.4
			c-0.1,1.2-1.5,1.2-1.5,1.2h-9l2-2.4h6l0.4-5.6l2.4-4.6h-2.5h-0.1h-0.1c-0.1,0.1-0.4,0.4-0.5,0.7l-1.6,2.5
			c-0.2,0.3-0.5,0.5-0.8,0.5c-0.2,0-0.4-0.1-0.5-0.2c-0.5-0.3-0.6-0.9-0.3-1.4l1.6-2.5c0.4-0.7,0.8-1.1,1.1-1.2
			c0.4-0.3,0.9-0.3,1.2-0.3h0.2h3.9C157.1,114.3,157.5,114.3,157.8,114.3 M157.8,113.8v0.5V113.8c-0.4,0-0.7,0-1.1,0.1h-3.8h-0.2
			c-0.4,0-0.9,0.1-1.4,0.4c-0.4,0.2-0.8,0.7-1.3,1.4v0.1l-1.6,2.5c-0.4,0.7-0.2,1.7,0.5,2.1c0.2,0.2,0.5,0.2,0.8,0.2
			c0.5,0,1-0.3,1.3-0.7l1.6-2.5c0.1-0.2,0.2-0.3,0.3-0.4h1.6l-2,3.8l-0.1,0.1v0.1l-0.3,5h-5.5h-0.3l-0.2,0.2l-2,2.4l-0.8,0.9h1.2h9
			c0,0,0.4,0,0.9-0.2c0.6-0.3,1-0.8,1.1-1.5c0.1-0.6,0.3-1.8,0.4-2.8l4.3,7.9l0.1,0.3h0.3l3,0.1h0.9l-0.4-0.8l-5.4-10.9l1.4-3
			l1.4,1.9c0.3,0.4,0.7,0.6,1.2,0.6h4c0.8,0,1.5-0.7,1.5-1.5c0-0.8-0.7-1.5-1.5-1.5h-3.2l-2.1-2.8c-0.1-0.1-0.2-0.2-0.3-0.3
			c-0.3-0.3-0.6-0.5-1.1-0.7C159.5,113.9,158.7,113.8,157.8,113.8"/>
		<path clip-path="url(#SVGID_32_)" fill="#028346" d="M159.6,114.2c-1.4,0-2.6-1.2-2.6-2.6c0-1.4,1.2-2.6,2.6-2.6
			c1.4,0,2.6,1.2,2.6,2.6C162.2,113,161,114.2,159.6,114.2"/>
		<path clip-path="url(#SVGID_32_)" fill="#FFFFFF" d="M159.6,109.2c1.3,0,2.4,1.1,2.4,2.3c0,1.2-1.1,2.3-2.4,2.3
			c-1.3,0-2.4-1.1-2.4-2.3C157.2,110.3,158.3,109.2,159.6,109.2 M159.6,108.7c-1.6,0-2.9,1.3-2.9,2.9c0,1.6,1.3,2.9,2.9,2.9
			c1.6,0,2.9-1.3,2.9-2.9C162.5,110,161.1,108.7,159.6,108.7"/>
		<g clip-path="url(#SVGID_32_)" enable-background="new    ">
			<g>
				<defs>
					<rect id="SVGID_43_" x="191.49" y="114.51" width="134.85" height="16.56"/>
				</defs>
				<clipPath id="SVGID_44_">
					<use xlink:href="#SVGID_43_"  overflow="visible"/>
				</clipPath>
				<g clip-path="url(#SVGID_44_)">
					<text transform="matrix(1 0 0 1 191.4893 126.5198)"><tspan x="0" y="0" fill="#010101" font-family="'Arial'"  font-size="14px">EMERGHENC</tspan><tspan x="91.01" y="0" fill="#010101" font-family="'Arial'"  font-size="14px">Y</tspan><tspan x="100.11" y="0" fill="#010101" font-family="'Arial'"  font-size="14px"> EXIT</tspan></text>
				</g>
			</g>
		</g>
	</g>
</g>
</svg>
