<?xml version="1.0" encoding="utf-8"?>
<!-- Generator: Adobe Illustrator 21.1.0, SVG Export Plug-In . SVG Version: 6.00 Build 0)  -->
<svg version="1.1" xmlns="http://www.w3.org/2000/svg" xmlns:xlink="http://www.w3.org/1999/xlink" x="0px" y="0px" width="1920px"
	 height="1080px" viewBox="0 0 1920 1080" enable-background="new 0 0 1920 1080" xml:space="preserve">
<g id="base">
	<g id="items">
		<rect x="966.42" y="685.44" fill="#E9E8E9" width="121.95" height="58.42"/>
		<rect x="970.28" y="574.91" fill="#E9E8E9" width="52.81" height="109.45"/>
		<path fill="#878787" d="M970.95,683.72l0-108.16l51.48,0l0,108.17L970.95,683.72z M969.62,685l54.15,0l0-110.73l-54.15,0
			L969.62,685z"/>
		<g>
			
				<line fill="none" stroke="#878787" stroke-width="1.3087" stroke-miterlimit="10" x1="1023.76" y1="671.65" x2="969.62" y2="671.65"/>
		</g>
		<g>
			
				<line fill="none" stroke="#878787" stroke-width="1.3087" stroke-miterlimit="10" x1="1023.76" y1="657.62" x2="969.62" y2="657.62"/>
		</g>
		<g>
			
				<line fill="none" stroke="#878787" stroke-width="1.3087" stroke-miterlimit="10" x1="1023.76" y1="643.59" x2="969.62" y2="643.59"/>
		</g>
		<g>
			
				<line fill="none" stroke="#878787" stroke-width="1.3087" stroke-miterlimit="10" x1="1023.76" y1="629.57" x2="969.62" y2="629.57"/>
		</g>
		<g>
			
				<line fill="none" stroke="#878787" stroke-width="1.3087" stroke-miterlimit="10" x1="1023.76" y1="615.54" x2="969.62" y2="615.54"/>
		</g>
		<g>
			
				<line fill="none" stroke="#878787" stroke-width="1.3087" stroke-miterlimit="10" x1="1023.76" y1="601.51" x2="969.62" y2="601.51"/>
			
				<line fill="none" stroke="#878787" stroke-width="1.3087" stroke-miterlimit="10" x1="1022.38" y1="586.63" x2="970.9" y2="586.63"/>
		</g>
		<rect x="1031.48" y="574.91" fill="#E9E8E9" width="52.81" height="109.45"/>
		<path fill="#878787" d="M1032.15,683.72l0-108.16l51.48,0l0,108.17L1032.15,683.72z M1030.82,685l54.15,0l0-110.73l-54.15,0
			L1030.82,685z"/>
		<g>
			
				<line fill="none" stroke="#878787" stroke-width="1.3087" stroke-miterlimit="10" x1="1084.96" y1="671.65" x2="1030.82" y2="671.65"/>
		</g>
		<g>
			
				<line fill="none" stroke="#878787" stroke-width="1.3087" stroke-miterlimit="10" x1="1084.96" y1="657.62" x2="1030.82" y2="657.62"/>
		</g>
		<g>
			
				<line fill="none" stroke="#878787" stroke-width="1.3087" stroke-miterlimit="10" x1="1084.96" y1="643.59" x2="1030.82" y2="643.59"/>
		</g>
		<g>
			
				<line fill="none" stroke="#878787" stroke-width="1.3087" stroke-miterlimit="10" x1="1084.96" y1="629.57" x2="1030.82" y2="629.57"/>
		</g>
		<g>
			
				<line fill="none" stroke="#878787" stroke-width="1.3087" stroke-miterlimit="10" x1="1084.96" y1="615.54" x2="1030.82" y2="615.54"/>
		</g>
		<g>
			
				<line fill="none" stroke="#878787" stroke-width="1.3087" stroke-miterlimit="10" x1="1084.96" y1="601.51" x2="1030.82" y2="601.51"/>
			
				<line fill="none" stroke="#878787" stroke-width="1.3087" stroke-miterlimit="10" x1="1083.58" y1="586.64" x2="1032.1" y2="586.64"/>
		</g>
		<g>
			<g>
				<polyline fill="none" stroke="#878787" stroke-width="1.3088" stroke-miterlimit="10" points="996.69,608.91 996.69,713.72 
					1056.05,713.72 1056.05,672.52 				"/>
				<g>
					<polygon fill="#878787" points="1062.58,674.43 1056.05,663.13 1049.53,674.43 					"/>
				</g>
			</g>
		</g>
		
			<rect x="1023.1" y="574.27" fill="none" stroke="#878787" stroke-width="1.8269" stroke-miterlimit="10" width="7.72" height="116.16"/>
	</g>
	<g id="rooms">
		<g>
			<polygon fill="#FBCECF" points="1511.98,795.33 1511.98,786.19 1487.78,786.19 1487.78,795.33 1468.82,795.33 1468.82,463.13 
				1578.44,463.13 1578.44,471.66 1585.75,471.66 1585.75,786.19 1577.98,786.19 1577.98,795.33 			"/>
			<g>
				<path fill="#FFFFFF" d="M1574.78,466.78V468v7.31h7.31l0,0v307.23h-0.46h-7.31v7.31v1.83h-58.69v-1.83v-7.31h-7.31h-16.9h-7.31
					v7.31v1.83h-8.3h-3.35V466.78H1574.78 M1582.09,459.48h-116.92v339.5h10.66h15.6v-9.13h16.9v9.13h73.31v-9.13h7.76V468h-7.31
					V459.48L1582.09,459.48z"/>
			</g>
		</g>
		<g>
			<polygon fill="#D9D8D6" points="1377.25,794.72 1377.25,786.34 1353.04,786.34 1353.04,794.72 1242.74,794.72 1242.74,786.34 
				1218.53,786.34 1218.53,794.72 1215.57,794.72 1215.57,596.8 1304.4,596.8 1304.4,527.83 1457.1,527.83 1457.1,794.72 			"/>
			<path fill="#FFFFFF" d="M1453.45,531.49v259.58h-72.54V790v-7.31h-7.31h-16.9h-7.31V790v1.07h-102.99V790v-7.31h-7.31h-16.9
				h-2.97V600.45h81.53h7.31v-7.31v-61.66H1453.45 M1460.75,524.18h-160.01v68.97h-88.83v205.22h10.28V790h16.9v8.37h117.61V790
				h16.9v8.37h87.16V524.18L1460.75,524.18z"/>
		</g>
		<g>
			<polygon fill="#878787" points="1107.09,794.72 1107.09,785.28 1094.91,785.28 1094.91,781.32 1081.31,781.32 1081.31,794.72 
				1030.03,794.72 1030.03,749.35 1081.31,749.35 1081.31,756.2 1094.91,756.2 1094.91,619.19 1163.12,619.19 1163.12,596.8 
				1203.31,596.8 1203.31,794.72 			"/>
			<g>
				<path fill="#FFFFFF" d="M1199.66,600.45v190.61h-88.91v-2.13v-7.31h-7.31h-4.87v-3.96h-7.31h-6.29h-7.31v7.31v6.09h-43.98V753
					h43.98v6.85h7.31h6.29h7.31v-7.31v-129.7h60.9h7.31v-7.31v-15.08H1199.66 M1206.96,593.15h-47.5v22.39h-68.21v137.01h-6.29
					v-6.85h-58.59v52.68h58.59v-13.4h6.29v3.96h12.18v9.44h103.53V593.15L1206.96,593.15z"/>
			</g>
		</g>
		<g>
			<polygon fill="#FBCECF" points="637.12,686.78 637.12,596.8 665.43,596.8 665.43,527.83 855.89,527.83 855.89,686.78 			"/>
			<path fill="#FFFFFF" d="M852.24,531.49v151.64H640.77v-82.67h21.01h7.31v-7.31v-61.66H852.24 M859.54,524.18H661.78v68.97h-28.32
				v97.28h226.08V524.18L859.54,524.18z"/>
		</g>
		<g>
			<polygon fill="#FBCECF" points="835.79,794.72 835.79,786.34 812.5,786.34 812.5,794.72 701.52,794.72 701.52,786.34 
				677.31,786.34 677.31,794.72 637.12,794.72 637.12,696.37 855.89,696.37 855.89,794.72 			"/>
			<path fill="#FFFFFF" d="M852.24,700.02v91.04h-12.79V790v-7.31h-7.31h-15.99h-7.31V790v1.07H705.17V790v-7.31h-7.31h-16.9h-7.31
				V790v1.07h-32.88v-91.04H852.24 M859.54,692.71H633.46v105.66h47.5V790h16.9v8.37h118.29V790h15.99v8.37h27.4V692.71
				L859.54,692.71z"/>
		</g>
		<g>
			<polygon fill="#FBCECF" points="564.95,794.72 564.95,786.8 540.75,786.8 540.75,794.72 431.43,794.72 431.43,785.43 
				422.91,785.43 422.91,641.86 625.09,641.86 625.09,794.72 			"/>
			<g>
				<path fill="#FFFFFF" d="M621.43,645.52v145.54h-52.83v-0.61v-7.31h-7.31h-16.9h-7.31v7.31v0.61h-102v-1.98v-7.31h-7.31h-1.22
					V645.52H621.43 M628.74,638.21H419.26v150.87h8.53v9.29H544.4v-7.92h16.9v7.92h67.44V638.21L628.74,638.21z"/>
			</g>
		</g>
		<g>
			<polygon fill="#878787" points="422.91,630.55 422.91,471.66 431.13,471.66 431.13,463.43 540.75,463.43 540.75,471.66 
				552.93,471.66 552.93,630.55 			"/>
			<g>
				<path fill="#FFFFFF" d="M537.09,467.09V468v7.31h7.31h4.87V626.9H426.56V475.31h0.91h7.31V468v-0.91H537.09 M544.4,459.78
					H427.48V468h-8.22v166.2h137.32V468H544.4V459.78L544.4,459.78z"/>
			</g>
		</g>
		<g>
			<polygon fill="#D9D8D6" points="868.22,794.72 868.22,581.73 960.25,581.73 960.25,749.35 975.1,749.35 975.1,756.2 
				985.83,756.2 985.83,750.26 1018.03,750.26 1018.03,779.72 986.06,779.72 986.06,772.18 975.1,772.18 975.1,779.49 
				963.05,779.49 963.05,784.97 947.46,784.97 947.46,794.72 			"/>
			<path fill="#FFFFFF" d="M956.6,585.38v160.31V753h7.31h7.54v6.85h7.31h3.43h7.31v-5.94h24.89v22.15h-24.66v-0.23v-7.31h-7.31
				h-3.65h-7.31v7.31h-4.74h-7.31v5.48h-8.28h-7.31v7.31v2.44h-71.94V585.38H956.6 M963.91,578.07h-92.94h-6.39v220.3h86.55v-9.74
				h15.59v-5.48h12.05v-7.31h3.65v7.54h39.28v-36.77h-39.51v5.94h-3.43v-6.85h-14.84V578.07L963.91,578.07z"/>
		</g>
		<polygon fill="#FBCECF" stroke="#FFFFFF" stroke-width="10.9615" stroke-miterlimit="10" points="1230.71,468 1230.71,457.95 
			1227.97,457.95 1227.97,403.74 1102.22,330.97 1084.97,330.97 961.55,403.51 961.55,452.62 969.62,452.62 969.62,574.27 
			1022.38,574.27 1022.38,518.85 1084.97,518.85 1230.71,518.85 1230.71,518.8 1460.94,517.63 1460.94,458.26 1372.91,458.26 
			1372.91,468 1357.38,468 1357.38,457.95 1240.15,457.95 1240.23,468 		"/>
	</g>
	<g id="inside_x5F_walls">
		
			<line fill="none" stroke="#4D4D4E" stroke-width="3.6538" stroke-miterlimit="10" x1="620.52" y1="636.08" x2="631.18" y2="636.08"/>
		
			<line fill="none" stroke="#4D4D4E" stroke-width="3.6538" stroke-miterlimit="10" x1="415.47" y1="636.08" x2="581.87" y2="636.08"/>
		
			<line fill="none" stroke="#4D4D4E" stroke-width="3.6538" stroke-miterlimit="10" x1="558.1" y1="474.85" x2="558.1" y2="455.82"/>
		<line fill="none" stroke="#4D4D4E" stroke-width="3.6538" stroke-miterlimit="10" x1="558.1" y1="636.08" x2="558.1" y2="513.5"/>
		
			<line fill="none" stroke="#4D4D4E" stroke-width="3.6538" stroke-miterlimit="10" x1="952.72" y1="521.44" x2="965.51" y2="521.44"/>
		
			<line fill="none" stroke="#4D4D4E" stroke-width="3.6538" stroke-miterlimit="10" x1="714.76" y1="521.44" x2="917.09" y2="521.44"/>
		<polyline fill="none" stroke="#4D4D4E" stroke-width="3.6538" stroke-miterlimit="10" points="631.18,802.02 631.18,583.1 
			631.18,529.2 631.18,521.44 676.85,521.44 		"/>
		<polyline fill="none" stroke="#4D4D4E" stroke-width="3.6538" stroke-miterlimit="10" points="659.95,521.44 659.95,590.41 
			631.18,590.41 		"/>
		
			<line fill="none" stroke="#4D4D4E" stroke-width="3.6538" stroke-miterlimit="10" x1="861.83" y1="802.02" x2="861.83" y2="521.44"/>
		
			<line fill="none" stroke="#4D4D4E" stroke-width="3.6538" stroke-miterlimit="10" x1="673.2" y1="691.34" x2="631.18" y2="691.34"/>
		
			<line fill="none" stroke="#4D4D4E" stroke-width="3.6538" stroke-miterlimit="10" x1="861.83" y1="691.34" x2="789.21" y2="691.34"/>
		
			<line fill="none" stroke="#878787" stroke-width="1.8269" stroke-miterlimit="10" x1="734.89" y1="692.71" x2="675.2" y2="692.71"/>
		
			<line fill="none" stroke="#878787" stroke-width="1.8269" stroke-miterlimit="10" x1="789.21" y1="690.43" x2="729.52" y2="690.43"/>
		
			<line fill="none" stroke="#4D4D4E" stroke-width="3.6538" stroke-miterlimit="10" x1="1462.89" y1="473.03" x2="1462.89" y2="455.82"/>
		
			<line fill="none" stroke="#4D4D4E" stroke-width="3.6538" stroke-miterlimit="10" x1="1462.89" y1="802.02" x2="1462.89" y2="511.39"/>
		
			<line fill="none" stroke="#4D4D4E" stroke-width="5.4808" stroke-miterlimit="10" x1="1088.37" y1="784.97" x2="1088.37" y2="800.04"/>
		<polyline fill="none" stroke="#4D4D4E" stroke-width="5.4808" stroke-miterlimit="10" points="1095.81,520.75 1087.83,520.6 
			1087.83,556.38 1087.83,753.08 		"/>
		
			<line fill="none" stroke="#4D4D4E" stroke-width="5.4808" stroke-miterlimit="10" x1="1252.33" y1="521.44" x2="1134.46" y2="520.86"/>
		
			<line fill="none" stroke="#4D4D4E" stroke-width="5.4808" stroke-miterlimit="10" x1="1462.89" y1="521.44" x2="1289.78" y2="521.44"/>
		<polyline fill="none" stroke="#4D4D4E" stroke-width="5.4808" stroke-miterlimit="10" points="966.42,470.74 966.42,455.82 
			952.72,455.82 		"/>
		<polyline fill="none" stroke="#4D4D4E" stroke-width="5.4808" stroke-miterlimit="10" points="1088.37,743.87 966.7,743.87 
			966.7,507.74 		"/>
		<polyline fill="none" stroke="#4D4D4E" stroke-width="3.6538" stroke-miterlimit="10" points="1036.3,521.44 1023.74,521.44 
			1023.74,574.27 1088.37,574.27 		"/>
		
			<line fill="none" stroke="#4D4D4E" stroke-width="3.6538" stroke-miterlimit="10" x1="1088.37" y1="521.44" x2="1066.82" y2="521.44"/>
		
			<line fill="none" stroke="#4D4D4E" stroke-width="9.1346" stroke-miterlimit="10" x1="1235.43" y1="468" x2="1235.43" y2="455.82"/>
		
			<line fill="none" stroke="#4D4D4E" stroke-width="9.1346" stroke-miterlimit="10" x1="1357.38" y1="463.28" x2="1372.91" y2="463.28"/>
		
			<line fill="none" stroke="#4D4D4E" stroke-width="9.1346" stroke-miterlimit="10" x1="816.15" y1="463.28" x2="832.14" y2="463.28"/>
		
			<line fill="none" stroke="#4D4D4E" stroke-width="9.1346" stroke-miterlimit="10" x1="544.4" y1="463.28" x2="561.3" y2="463.28"/>
		<line fill="none" stroke="#4D4D4E" stroke-width="9.1346" stroke-miterlimit="10" x1="422.91" y1="468" x2="422.91" y2="455.82"/>
		
			<line fill="none" stroke="#4D4D4E" stroke-width="9.1346" stroke-miterlimit="10" x1="422.91" y1="789.08" x2="422.91" y2="800.04"/>
		
			<line fill="none" stroke="#4D4D4E" stroke-width="9.1346" stroke-miterlimit="10" x1="544.4" y1="794.56" x2="561.3" y2="794.56"/>
		
			<line fill="none" stroke="#4D4D4E" stroke-width="9.1346" stroke-miterlimit="10" x1="680.96" y1="794.56" x2="697.86" y2="794.56"/>
		
			<line fill="none" stroke="#4D4D4E" stroke-width="9.1346" stroke-miterlimit="10" x1="815.7" y1="794.56" x2="832.6" y2="794.56"/>
		
			<line fill="none" stroke="#4D4D4E" stroke-width="9.1346" stroke-miterlimit="10" x1="951.12" y1="794.56" x2="968.02" y2="794.56"/>
		
			<line fill="none" stroke="#4D4D4E" stroke-width="9.1346" stroke-miterlimit="10" x1="1086.54" y1="794.56" x2="1103.44" y2="794.56"/>
		
			<line fill="none" stroke="#4D4D4E" stroke-width="9.1346" stroke-miterlimit="10" x1="1222.19" y1="794.56" x2="1239.09" y2="794.56"/>
		
			<line fill="none" stroke="#4D4D4E" stroke-width="9.1346" stroke-miterlimit="10" x1="1356.7" y1="794.56" x2="1373.59" y2="794.56"/>
		
			<line fill="none" stroke="#4D4D4E" stroke-width="9.1346" stroke-miterlimit="10" x1="1491.43" y1="794.56" x2="1508.33" y2="794.56"/>
		
			<line fill="none" stroke="#4D4D4E" stroke-width="9.1346" stroke-miterlimit="10" x1="1581.64" y1="794.56" x2="1592.44" y2="794.56"/>
		
			<line fill="none" stroke="#4D4D4E" stroke-width="9.1346" stroke-miterlimit="10" x1="1587.04" y1="468" x2="1587.04" y2="455.82"/>
		
			<line fill="none" stroke="#4D4D4E" stroke-width="3.6538" stroke-miterlimit="10" x1="1209.86" y1="802.02" x2="1209.86" y2="591.32"/>
		<polyline fill="none" stroke="#4D4D4E" stroke-width="3.6538" stroke-miterlimit="10" points="1088.37,524.18 1088.37,612.79 
			1157.64,612.79 1157.64,536.51 		"/>
		
			<line fill="none" stroke="#4D4D4E" stroke-width="3.6538" stroke-miterlimit="10" x1="1157.64" y1="521.44" x2="1157.64" y2="536.51"/>
		<polyline fill="none" stroke="#4D4D4E" stroke-width="3.6538" stroke-miterlimit="10" points="1254.76,591.32 1298.46,591.32 
			1298.46,521.44 		"/>
		
			<line fill="none" stroke="#4D4D4E" stroke-width="3.6538" stroke-miterlimit="10" x1="1203.01" y1="591.32" x2="1216.11" y2="591.32"/>
		
			<line fill="none" stroke="#4D4D4E" stroke-width="3.6538" stroke-miterlimit="10" x1="1157.64" y1="591.32" x2="1164.6" y2="591.32"/>
		
			<line fill="none" stroke="#4D4D4E" stroke-width="3.6538" stroke-miterlimit="10" x1="871.88" y1="576.7" x2="861.83" y2="576.7"/>
		<line fill="none" stroke="#4D4D4E" stroke-width="3.6538" stroke-miterlimit="10" x1="964.8" y1="576.7" x2="910.52" y2="576.7"/>
		
			<line fill="none" stroke="#4D4D4E" stroke-width="3.6538" stroke-miterlimit="10" x1="1023.97" y1="800.04" x2="1023.97" y2="743.87"/>
		
			<line fill="none" stroke="#4D4D4E" stroke-width="3.6538" stroke-miterlimit="10" x1="980.58" y1="775.84" x2="980.58" y2="784.97"/>
		
			<line fill="none" stroke="#4D4D4E" stroke-width="3.6538" stroke-miterlimit="10" x1="980.58" y1="745.69" x2="980.58" y2="752.54"/>
		<polyline fill="none" stroke="#4D4D4E" stroke-width="3.6538" stroke-miterlimit="10" points="968.02,802.02 968.02,784.97 
			1023.97,784.97 		"/>
		<g>
			<polygon fill="#D9D8D6" points="1092,609.13 1091.51,524.3 1153.98,525.05 1153.98,609.13 			"/>
			<path fill="#FFFFFF" d="M1095.18,528l55.15,0.66v76.82h-54.7L1095.18,528 M1087.83,520.6l0.53,92.18h69.27v-91.35L1087.83,520.6
				L1087.83,520.6z"/>
		</g>
	</g>
	<g id="outside_x5F_walls">
		
			<line fill="none" stroke="#878787" stroke-width="2.7404" stroke-miterlimit="10" x1="957.89" y1="408.02" x2="957.89" y2="447.98"/>
		
			<line fill="none" stroke="#878787" stroke-width="2.7404" stroke-miterlimit="10" x1="1230.71" y1="408.02" x2="1230.71" y2="447.98"/>
		
			<line fill="none" stroke="#878787" stroke-width="2.7404" stroke-miterlimit="10" x1="958.5" y1="401.32" x2="1079.35" y2="330.97"/>
		
			<line fill="none" stroke="#878787" stroke-width="2.7404" stroke-miterlimit="10" x1="1114.16" y1="334.23" x2="1163.48" y2="362.62"/>
		
			<line fill="none" stroke="#878787" stroke-width="2.7404" stroke-miterlimit="10" x1="1592.44" y1="455.82" x2="1233.15" y2="455.82"/>
		
			<line fill="none" stroke="#878787" stroke-width="2.7404" stroke-miterlimit="10" x1="1592.44" y1="784.97" x2="1592.44" y2="461"/>
		
			<line fill="none" stroke="#878787" stroke-width="2.7404" stroke-miterlimit="10" x1="415.91" y1="802.02" x2="1592.44" y2="802.02"/>
		
			<line fill="none" stroke="#878787" stroke-width="2.7404" stroke-miterlimit="10" x1="415.91" y1="455.82" x2="952.72" y2="455.82"/>
		
			<line fill="none" stroke="#2D2D2D" stroke-width="7.3077" stroke-linecap="square" stroke-miterlimit="10" x1="1002.79" y1="375.54" x2="1008.6" y2="372.15"/>
		<polyline fill="none" stroke="#2D2D2D" stroke-width="7.3077" stroke-linecap="square" stroke-miterlimit="10" points="
			958.5,413.5 958.5,401.32 971.1,393.99 		"/>
		<polyline fill="none" stroke="#2D2D2D" stroke-width="7.3077" stroke-linecap="square" stroke-miterlimit="10" points="
			930.49,455.82 957.89,455.82 957.74,440.14 		"/>
		
			<line fill="none" stroke="#2D2D2D" stroke-width="7.3077" stroke-linecap="square" stroke-miterlimit="10" x1="888.47" y1="455.82" x2="895.78" y2="455.82"/>
		
			<line fill="none" stroke="#2D2D2D" stroke-width="7.3077" stroke-linecap="square" stroke-miterlimit="10" x1="795.3" y1="455.82" x2="850.1" y2="455.82"/>
		<polyline fill="none" stroke="#2D2D2D" stroke-width="7.3077" stroke-linecap="square" stroke-miterlimit="10" points="
			659.95,455.82 715.52,455.82 752.06,455.82 759.37,455.82 		"/>
		
			<line fill="none" stroke="#2D2D2D" stroke-width="7.3077" stroke-linecap="square" stroke-miterlimit="10" x1="616.87" y1="455.82" x2="624.18" y2="455.82"/>
		<polyline fill="none" stroke="#2D2D2D" stroke-width="7.3077" stroke-linecap="square" stroke-miterlimit="10" points="
			446.35,802.02 415.91,802.02 415.91,455.82 582.77,455.82 		"/>
		
			<line fill="none" stroke="#2D2D2D" stroke-width="7.3077" stroke-linecap="square" stroke-miterlimit="10" x1="490.81" y1="802.02" x2="483.5" y2="802.02"/>
		
			<line fill="none" stroke="#2D2D2D" stroke-width="7.3077" stroke-linecap="square" stroke-miterlimit="10" x1="579.11" y1="802.02" x2="526.13" y2="802.02"/>
		
			<line fill="none" stroke="#2D2D2D" stroke-width="7.3077" stroke-linecap="square" stroke-miterlimit="10" x1="717.96" y1="802.02" x2="618.09" y2="802.02"/>
		
			<line fill="none" stroke="#2D2D2D" stroke-width="7.3077" stroke-linecap="square" stroke-miterlimit="10" x1="760.59" y1="802.02" x2="753.28" y2="802.02"/>
		
			<line fill="none" stroke="#2D2D2D" stroke-width="7.3077" stroke-linecap="square" stroke-miterlimit="10" x1="889.69" y1="802.02" x2="796.51" y2="802.02"/>
		
			<line fill="none" stroke="#2D2D2D" stroke-width="7.3077" stroke-linecap="square" stroke-miterlimit="10" x1="1122.32" y1="802.02" x2="925.62" y2="802.02"/>
		
			<line fill="none" stroke="#2D2D2D" stroke-width="7.3077" stroke-linecap="square" stroke-miterlimit="10" x1="1165.55" y1="802.02" x2="1157.64" y2="802.02"/>
		
			<line fill="none" stroke="#2D2D2D" stroke-width="7.3077" stroke-linecap="square" stroke-miterlimit="10" x1="1258.73" y1="802.02" x2="1202.09" y2="802.02"/>
		
			<line fill="none" stroke="#2D2D2D" stroke-width="7.3077" stroke-linecap="square" stroke-miterlimit="10" x1="1300.75" y1="802.02" x2="1292.83" y2="802.02"/>
		<polyline fill="none" stroke="#2D2D2D" stroke-width="7.3077" stroke-linecap="square" stroke-miterlimit="10" points="
			1592.44,737.47 1592.44,802.02 1336.68,802.02 		"/>
		
			<line fill="none" stroke="#2D2D2D" stroke-width="7.3077" stroke-linecap="square" stroke-miterlimit="10" x1="1592.44" y1="692.41" x2="1592.44" y2="700.33"/>
		
			<line fill="none" stroke="#2D2D2D" stroke-width="7.3077" stroke-linecap="square" stroke-miterlimit="10" x1="1592.44" y1="607.76" x2="1592.44" y2="655.16"/>
		
			<line fill="none" stroke="#2D2D2D" stroke-width="7.3077" stroke-linecap="square" stroke-miterlimit="10" x1="1592.44" y1="563.91" x2="1592.44" y2="572.44"/>
		<polyline fill="none" stroke="#2D2D2D" stroke-width="7.3077" stroke-linecap="square" stroke-miterlimit="10" points="
			1431.68,455.82 1592.44,455.82 1592.44,528.59 		"/>
		
			<line fill="none" stroke="#2D2D2D" stroke-width="7.3077" stroke-linecap="square" stroke-miterlimit="10" x1="1336.68" y1="455.82" x2="1391.48" y2="455.82"/>
		
			<line fill="none" stroke="#2D2D2D" stroke-width="7.3077" stroke-linecap="square" stroke-miterlimit="10" x1="1293.44" y1="455.82" x2="1300.14" y2="455.82"/>
		<polyline fill="none" stroke="#2D2D2D" stroke-width="7.3077" stroke-linecap="square" stroke-miterlimit="10" points="
			1230.71,440.14 1230.71,455.82 1255.68,455.82 		"/>
		<polyline fill="none" stroke="#2D2D2D" stroke-width="7.3077" stroke-linecap="square" stroke-miterlimit="10" points="
			1218.21,394.12 1230.71,401.32 1230.71,412.89 		"/>
		
			<line fill="none" stroke="#2D2D2D" stroke-width="7.3077" stroke-linecap="square" stroke-miterlimit="10" x1="1146.1" y1="352.61" x2="1179.07" y2="371.59"/>
		<polyline fill="none" stroke="#2D2D2D" stroke-width="7.3077" stroke-linecap="square" stroke-miterlimit="10" points="
			1075.58,333.16 1084.91,327.73 1102.85,327.72 1114.16,334.23 		"/>
		
			<line fill="none" stroke="#2D2D2D" stroke-width="7.3077" stroke-linecap="square" stroke-miterlimit="10" x1="1038.47" y1="354.77" x2="1044.12" y2="351.48"/>
		
			<line fill="none" stroke="#E3E3E3" stroke-width="3.6538" stroke-miterlimit="10" x1="1002.79" y1="375.54" x2="1008.6" y2="372.15"/>
		<polyline fill="none" stroke="#E3E3E3" stroke-width="3.6538" stroke-miterlimit="10" points="958.5,413.5 958.5,401.32 
			971.1,393.99 		"/>
		<polyline fill="none" stroke="#E3E3E3" stroke-width="3.6538" stroke-miterlimit="10" points="930.49,455.82 957.89,455.82 
			957.74,440.14 		"/>
		
			<line fill="none" stroke="#E3E3E3" stroke-width="3.6538" stroke-miterlimit="10" x1="888.47" y1="455.82" x2="895.78" y2="455.82"/>
		
			<line fill="none" stroke="#E3E3E3" stroke-width="3.6538" stroke-miterlimit="10" x1="795.3" y1="455.82" x2="850.1" y2="455.82"/>
		<polyline fill="none" stroke="#E3E3E3" stroke-width="3.6538" stroke-miterlimit="10" points="659.95,455.82 715.52,455.82 
			752.06,455.82 759.37,455.82 		"/>
		
			<line fill="none" stroke="#E3E3E3" stroke-width="3.6538" stroke-miterlimit="10" x1="616.87" y1="455.82" x2="624.18" y2="455.82"/>
		<polyline fill="none" stroke="#E3E3E3" stroke-width="3.6538" stroke-miterlimit="10" points="446.35,802.02 415.91,802.02 
			415.91,455.82 582.77,455.82 		"/>
		
			<line fill="none" stroke="#E3E3E3" stroke-width="3.6538" stroke-miterlimit="10" x1="490.81" y1="802.02" x2="483.5" y2="802.02"/>
		
			<line fill="none" stroke="#E3E3E3" stroke-width="3.6538" stroke-miterlimit="10" x1="579.11" y1="802.02" x2="526.13" y2="802.02"/>
		
			<line fill="none" stroke="#E3E3E3" stroke-width="3.6538" stroke-miterlimit="10" x1="717.96" y1="802.02" x2="618.09" y2="802.02"/>
		
			<line fill="none" stroke="#E3E3E3" stroke-width="3.6538" stroke-miterlimit="10" x1="760.59" y1="802.02" x2="753.28" y2="802.02"/>
		
			<line fill="none" stroke="#E3E3E3" stroke-width="3.6538" stroke-miterlimit="10" x1="889.69" y1="802.02" x2="796.51" y2="802.02"/>
		
			<line fill="none" stroke="#E3E3E3" stroke-width="3.6538" stroke-miterlimit="10" x1="1122.32" y1="802.02" x2="925.62" y2="802.02"/>
		
			<line fill="none" stroke="#E3E3E3" stroke-width="3.6538" stroke-miterlimit="10" x1="1165.55" y1="802.02" x2="1157.64" y2="802.02"/>
		
			<line fill="none" stroke="#E3E3E3" stroke-width="3.6538" stroke-miterlimit="10" x1="1258.73" y1="802.02" x2="1202.09" y2="802.02"/>
		
			<line fill="none" stroke="#E3E3E3" stroke-width="3.6538" stroke-miterlimit="10" x1="1300.75" y1="802.02" x2="1292.83" y2="802.02"/>
		<polyline fill="none" stroke="#E3E3E3" stroke-width="3.6538" stroke-miterlimit="10" points="1592.44,737.47 1592.44,802.02 
			1336.68,802.02 		"/>
		
			<line fill="none" stroke="#E3E3E3" stroke-width="3.6538" stroke-miterlimit="10" x1="1592.44" y1="692.41" x2="1592.44" y2="700.33"/>
		
			<line fill="none" stroke="#E3E3E3" stroke-width="3.6538" stroke-miterlimit="10" x1="1592.44" y1="607.76" x2="1592.44" y2="655.16"/>
		
			<line fill="none" stroke="#E3E3E3" stroke-width="3.6538" stroke-miterlimit="10" x1="1592.44" y1="563.91" x2="1592.44" y2="572.44"/>
		<polyline fill="none" stroke="#E3E3E3" stroke-width="3.6538" stroke-miterlimit="10" points="1431.68,455.82 1592.44,455.82 
			1592.44,528.59 		"/>
		
			<line fill="none" stroke="#E3E3E3" stroke-width="3.6538" stroke-miterlimit="10" x1="1336.68" y1="455.82" x2="1391.48" y2="455.82"/>
		
			<line fill="none" stroke="#E3E3E3" stroke-width="3.6538" stroke-miterlimit="10" x1="1293.44" y1="455.82" x2="1300.14" y2="455.82"/>
		<polyline fill="none" stroke="#E3E3E3" stroke-width="3.6538" stroke-miterlimit="10" points="1230.71,440.14 1230.71,455.82 
			1255.68,455.82 		"/>
		<polyline fill="none" stroke="#E3E3E3" stroke-width="3.6538" stroke-miterlimit="10" points="1218.21,394.12 1230.71,401.32 
			1230.71,412.89 		"/>
		
			<line fill="none" stroke="#E3E3E3" stroke-width="3.6538" stroke-miterlimit="10" x1="1146.1" y1="352.61" x2="1179.07" y2="371.59"/>
		<polyline fill="none" stroke="#E3E3E3" stroke-width="3.6538" stroke-miterlimit="10" points="1075.58,333.16 1084.91,327.73 
			1102.85,327.72 1114.16,334.23 		"/>
		
			<line fill="none" stroke="#E3E3E3" stroke-width="3.6538" stroke-miterlimit="10" x1="1038.47" y1="354.77" x2="1044.12" y2="351.48"/>
	</g>
	<g id="doors">
		<g>
			<defs>
				<rect id="SVGID_1_" x="1251.78" y="518.85" width="38.65" height="40.54"/>
			</defs>
			<clipPath id="SVGID_2_">
				<use xlink:href="#SVGID_1_"  overflow="visible"/>
			</clipPath>
			<g clip-path="url(#SVGID_2_)">
				<defs>
					<rect id="SVGID_3_" x="1251.78" y="518.85" width="38.65" height="40.54"/>
				</defs>
				<clipPath id="SVGID_4_">
					<use xlink:href="#SVGID_3_"  overflow="visible"/>
				</clipPath>
				<g opacity="0.3" clip-path="url(#SVGID_4_)">
					<g>
						<defs>
							<rect id="SVGID_5_" x="1252.85" y="521.67" width="34.58" height="36.26"/>
						</defs>
						<clipPath id="SVGID_6_">
							<use xlink:href="#SVGID_5_"  overflow="visible"/>
						</clipPath>
						<path clip-path="url(#SVGID_6_)" fill="#FFFFFF" d="M1287.43,557.93c-18.92,0-34.58-13.62-34.58-36.26l34.58,0.01
							L1287.43,557.93z"/>
					</g>
				</g>
				<path clip-path="url(#SVGID_4_)" fill="none" stroke="#2D2D2D" stroke-width="2.1459" stroke-miterlimit="10" d="
					M1252.85,521.67c0,22.64,15.66,36.26,34.58,36.26"/>
				
					<line clip-path="url(#SVGID_4_)" fill="none" stroke="#2D2D2D" stroke-width="4.2917" stroke-linecap="square" stroke-miterlimit="10" x1="1288.28" y1="520.99" x2="1288.28" y2="557.24"/>
			</g>
		</g>
		<g>
			<defs>
				<rect id="SVGID_7_" x="1216.11" y="588.64" width="38.65" height="40.54"/>
			</defs>
			<clipPath id="SVGID_8_">
				<use xlink:href="#SVGID_7_"  overflow="visible"/>
			</clipPath>
			<g clip-path="url(#SVGID_8_)">
				<defs>
					<rect id="SVGID_9_" x="1216.11" y="588.64" width="38.65" height="40.54"/>
				</defs>
				<clipPath id="SVGID_10_">
					<use xlink:href="#SVGID_9_"  overflow="visible"/>
				</clipPath>
				<g opacity="0.3" clip-path="url(#SVGID_10_)">
					<g>
						<defs>
							<rect id="SVGID_11_" x="1219.1" y="591.46" width="34.58" height="36.26"/>
						</defs>
						<clipPath id="SVGID_12_">
							<use xlink:href="#SVGID_11_"  overflow="visible"/>
						</clipPath>
						<path clip-path="url(#SVGID_12_)" fill="#FFFFFF" d="M1219.1,627.72c18.92,0,34.58-13.62,34.58-36.26l-34.58,0.01
							L1219.1,627.72z"/>
					</g>
				</g>
				<path clip-path="url(#SVGID_10_)" fill="none" stroke="#2D2D2D" stroke-width="2.1459" stroke-miterlimit="10" d="
					M1253.68,591.46c0,22.64-15.66,36.26-34.58,36.26"/>
				
					<line clip-path="url(#SVGID_10_)" fill="none" stroke="#2D2D2D" stroke-width="4.2917" stroke-linecap="square" stroke-miterlimit="10" x1="1218.26" y1="590.78" x2="1218.26" y2="627.03"/>
			</g>
		</g>
		<g>
			<defs>
				<rect id="SVGID_13_" x="1164.42" y="588.64" width="38.65" height="40.54"/>
			</defs>
			<clipPath id="SVGID_14_">
				<use xlink:href="#SVGID_13_"  overflow="visible"/>
			</clipPath>
			<g clip-path="url(#SVGID_14_)">
				<defs>
					<rect id="SVGID_15_" x="1164.42" y="588.64" width="38.65" height="40.54"/>
				</defs>
				<clipPath id="SVGID_16_">
					<use xlink:href="#SVGID_15_"  overflow="visible"/>
				</clipPath>
				<g opacity="0.3" clip-path="url(#SVGID_16_)">
					<g>
						<defs>
							<rect id="SVGID_17_" x="1165.5" y="591.46" width="34.58" height="36.26"/>
						</defs>
						<clipPath id="SVGID_18_">
							<use xlink:href="#SVGID_17_"  overflow="visible"/>
						</clipPath>
						<path clip-path="url(#SVGID_18_)" fill="#FFFFFF" d="M1200.08,627.72c-18.92,0-34.58-13.62-34.58-36.26l34.58,0.01
							L1200.08,627.72z"/>
					</g>
				</g>
				<path clip-path="url(#SVGID_16_)" fill="none" stroke="#2D2D2D" stroke-width="2.1459" stroke-miterlimit="10" d="
					M1165.5,591.46c0,22.64,15.66,36.26,34.58,36.26"/>
				
					<line clip-path="url(#SVGID_16_)" fill="none" stroke="#2D2D2D" stroke-width="4.2917" stroke-linecap="square" stroke-miterlimit="10" x1="1200.92" y1="590.78" x2="1200.92" y2="627.03"/>
			</g>
		</g>
		<g>
			<defs>
				<rect id="SVGID_19_" x="676.11" y="519.16" width="38.65" height="40.54"/>
			</defs>
			<clipPath id="SVGID_20_">
				<use xlink:href="#SVGID_19_"  overflow="visible"/>
			</clipPath>
			<g clip-path="url(#SVGID_20_)">
				<defs>
					<rect id="SVGID_21_" x="676.11" y="519.15" width="38.65" height="40.54"/>
				</defs>
				<clipPath id="SVGID_22_">
					<use xlink:href="#SVGID_21_"  overflow="visible"/>
				</clipPath>
				<g opacity="0.3" clip-path="url(#SVGID_22_)">
					<g>
						<defs>
							<rect id="SVGID_23_" x="677.19" y="521.98" width="34.58" height="36.26"/>
						</defs>
						<clipPath id="SVGID_24_">
							<use xlink:href="#SVGID_23_"  overflow="visible"/>
						</clipPath>
						<path clip-path="url(#SVGID_24_)" fill="#FFFFFF" d="M711.77,558.24c-18.92,0-34.58-13.62-34.58-36.26l34.58,0.01
							L711.77,558.24z"/>
					</g>
				</g>
				<path clip-path="url(#SVGID_22_)" fill="none" stroke="#2D2D2D" stroke-width="2.1459" stroke-miterlimit="10" d="
					M677.19,521.98c0,22.64,15.66,36.26,34.58,36.26"/>
				
					<line clip-path="url(#SVGID_22_)" fill="none" stroke="#2D2D2D" stroke-width="4.2917" stroke-linecap="square" stroke-miterlimit="10" x1="712.61" y1="521.3" x2="712.61" y2="557.55"/>
			</g>
		</g>
		<g>
			<defs>
				<rect id="SVGID_25_" x="581.87" y="634.21" width="38.65" height="40.54"/>
			</defs>
			<clipPath id="SVGID_26_">
				<use xlink:href="#SVGID_25_"  overflow="visible"/>
			</clipPath>
			<g clip-path="url(#SVGID_26_)">
				<defs>
					<rect id="SVGID_27_" x="581.87" y="634.21" width="38.65" height="40.54"/>
				</defs>
				<clipPath id="SVGID_28_">
					<use xlink:href="#SVGID_27_"  overflow="visible"/>
				</clipPath>
				<g opacity="0.3" clip-path="url(#SVGID_28_)">
					<g>
						<defs>
							<rect id="SVGID_29_" x="582.95" y="637.03" width="34.58" height="36.26"/>
						</defs>
						<clipPath id="SVGID_30_">
							<use xlink:href="#SVGID_29_"  overflow="visible"/>
						</clipPath>
						<path clip-path="url(#SVGID_30_)" fill="#FFFFFF" d="M617.53,673.29c-18.92,0-34.58-13.62-34.58-36.26l34.58,0.01
							L617.53,673.29z"/>
					</g>
				</g>
				<path clip-path="url(#SVGID_28_)" fill="none" stroke="#2D2D2D" stroke-width="2.1459" stroke-miterlimit="10" d="
					M582.95,637.03c0,22.64,15.66,36.26,34.58,36.26"/>
				
					<line clip-path="url(#SVGID_28_)" fill="none" stroke="#2D2D2D" stroke-width="4.2917" stroke-linecap="square" stroke-miterlimit="10" x1="618.37" y1="636.35" x2="618.38" y2="672.6"/>
			</g>
		</g>
		<g>
			<defs>
				<rect id="SVGID_31_" x="519.26" y="474.85" width="40.54" height="38.65"/>
			</defs>
			<clipPath id="SVGID_32_">
				<use xlink:href="#SVGID_31_"  overflow="visible"/>
			</clipPath>
			<g clip-path="url(#SVGID_32_)">
				<defs>
					<rect id="SVGID_33_" x="519.26" y="474.85" width="40.54" height="38.65"/>
				</defs>
				<clipPath id="SVGID_34_">
					<use xlink:href="#SVGID_33_"  overflow="visible"/>
				</clipPath>
				<g opacity="0.3" clip-path="url(#SVGID_34_)">
					<g>
						<defs>
							<rect id="SVGID_35_" x="520.71" y="477.84" width="36.26" height="34.58"/>
						</defs>
						<clipPath id="SVGID_36_">
							<use xlink:href="#SVGID_35_"  overflow="visible"/>
						</clipPath>
						<path clip-path="url(#SVGID_36_)" fill="#FFFFFF" d="M520.71,477.84c0,18.92,13.62,34.58,36.26,34.58l-0.01-34.58
							L520.71,477.84z"/>
					</g>
				</g>
				<path clip-path="url(#SVGID_34_)" fill="none" stroke="#2D2D2D" stroke-width="2.1459" stroke-miterlimit="10" d="
					M556.98,512.43c-22.64,0-36.26-15.66-36.26-34.58"/>
				
					<line clip-path="url(#SVGID_34_)" fill="none" stroke="#2D2D2D" stroke-width="4.2917" stroke-linecap="square" stroke-miterlimit="10" x1="557.65" y1="477" x2="521.4" y2="477"/>
			</g>
		</g>
		<g>
			<defs>
				<rect id="SVGID_37_" x="1460.94" y="472.89" width="40.54" height="38.65"/>
			</defs>
			<clipPath id="SVGID_38_">
				<use xlink:href="#SVGID_37_"  overflow="visible"/>
			</clipPath>
			<g clip-path="url(#SVGID_38_)">
				<defs>
					<rect id="SVGID_39_" x="1460.94" y="472.89" width="40.54" height="38.65"/>
				</defs>
				<clipPath id="SVGID_40_">
					<use xlink:href="#SVGID_39_"  overflow="visible"/>
				</clipPath>
				<g opacity="0.3" clip-path="url(#SVGID_40_)">
					<g>
						<defs>
							<rect id="SVGID_41_" x="1463.77" y="475.88" width="36.26" height="34.58"/>
						</defs>
						<clipPath id="SVGID_42_">
							<use xlink:href="#SVGID_41_"  overflow="visible"/>
						</clipPath>
						<path clip-path="url(#SVGID_42_)" fill="#FFFFFF" d="M1500.03,475.88c0,18.92-13.62,34.58-36.26,34.58l0.01-34.58
							L1500.03,475.88z"/>
					</g>
				</g>
				<path clip-path="url(#SVGID_40_)" fill="none" stroke="#2D2D2D" stroke-width="2.1459" stroke-miterlimit="10" d="
					M1463.77,510.46c22.64,0,36.26-15.66,36.26-34.58"/>
				
					<line clip-path="url(#SVGID_40_)" fill="none" stroke="#2D2D2D" stroke-width="4.2917" stroke-linecap="square" stroke-miterlimit="10" x1="1463.09" y1="475.03" x2="1499.34" y2="475.03"/>
			</g>
		</g>
		<g>
			<defs>
				<rect id="SVGID_43_" x="914.07" y="518.85" width="38.65" height="40.54"/>
			</defs>
			<clipPath id="SVGID_44_">
				<use xlink:href="#SVGID_43_"  overflow="visible"/>
			</clipPath>
			<g clip-path="url(#SVGID_44_)">
				<defs>
					<rect id="SVGID_45_" x="914.07" y="518.85" width="38.65" height="40.54"/>
				</defs>
				<clipPath id="SVGID_46_">
					<use xlink:href="#SVGID_45_"  overflow="visible"/>
				</clipPath>
				<g opacity="0.3" clip-path="url(#SVGID_46_)">
					<g>
						<defs>
							<rect id="SVGID_47_" x="915.14" y="521.67" width="34.58" height="36.26"/>
						</defs>
						<clipPath id="SVGID_48_">
							<use xlink:href="#SVGID_47_"  overflow="visible"/>
						</clipPath>
						<path clip-path="url(#SVGID_48_)" fill="#FFFFFF" d="M949.73,557.93c-18.92,0-34.58-13.62-34.58-36.26l34.58,0.01
							L949.73,557.93z"/>
					</g>
				</g>
				<path clip-path="url(#SVGID_46_)" fill="none" stroke="#2D2D2D" stroke-width="2.1459" stroke-miterlimit="10" d="
					M915.14,521.67c0,22.64,15.66,36.26,34.58,36.26"/>
				
					<line clip-path="url(#SVGID_46_)" fill="none" stroke="#2D2D2D" stroke-width="4.2917" stroke-linecap="square" stroke-miterlimit="10" x1="950.57" y1="520.99" x2="950.57" y2="557.24"/>
			</g>
		</g>
		<g>
			<defs>
				
					<rect id="SVGID_49_" x="1186.48" y="349.07" transform="matrix(0.4975 -0.8674 0.8674 0.4975 286.7902 1231.8981)" width="40.54" height="38.65"/>
			</defs>
			<clipPath id="SVGID_50_">
				<use xlink:href="#SVGID_49_"  overflow="visible"/>
			</clipPath>
			<g clip-path="url(#SVGID_50_)">
				<defs>
					
						<rect id="SVGID_51_" x="1186.48" y="349.07" transform="matrix(0.4975 -0.8674 0.8674 0.4975 286.7901 1231.8982)" width="40.54" height="38.65"/>
				</defs>
				<clipPath id="SVGID_52_">
					<use xlink:href="#SVGID_51_"  overflow="visible"/>
				</clipPath>
				<g opacity="0.3" clip-path="url(#SVGID_52_)">
					<g>
						<defs>
							
								<rect id="SVGID_53_" x="1188.13" y="350.04" transform="matrix(0.4975 -0.8674 0.8674 0.4975 287.4702 1230.934)" width="36.26" height="34.58"/>
						</defs>
						<clipPath id="SVGID_54_">
							<use xlink:href="#SVGID_53_"  overflow="visible"/>
						</clipPath>
						<path clip-path="url(#SVGID_54_)" fill="#FFFFFF" d="M1230.28,360.2c-16.41-9.41-36.77-5.4-48.04,14.25l30.01,17.19
							L1230.28,360.2z"/>
					</g>
				</g>
				<path clip-path="url(#SVGID_52_)" fill="none" stroke="#2D2D2D" stroke-width="2.1459" stroke-miterlimit="10" d="
					M1182.24,374.45c11.27-19.64,31.63-23.66,48.04-14.25"/>
				
					<line clip-path="url(#SVGID_52_)" fill="none" stroke="#2D2D2D" stroke-width="4.2917" stroke-linecap="square" stroke-miterlimit="10" x1="1212.63" y1="392.66" x2="1230.67" y2="361.22"/>
			</g>
		</g>
		<g>
			<defs>
				<rect id="SVGID_55_" x="871.88" y="574.88" width="38.65" height="40.54"/>
			</defs>
			<clipPath id="SVGID_56_">
				<use xlink:href="#SVGID_55_"  overflow="visible"/>
			</clipPath>
			<g clip-path="url(#SVGID_56_)">
				<defs>
					<rect id="SVGID_57_" x="871.88" y="574.88" width="38.65" height="40.54"/>
				</defs>
				<clipPath id="SVGID_58_">
					<use xlink:href="#SVGID_57_"  overflow="visible"/>
				</clipPath>
				<g opacity="0.3" clip-path="url(#SVGID_58_)">
					<g>
						<defs>
							<rect id="SVGID_59_" x="874.87" y="577.7" width="34.58" height="36.26"/>
						</defs>
						<clipPath id="SVGID_60_">
							<use xlink:href="#SVGID_59_"  overflow="visible"/>
						</clipPath>
						<path clip-path="url(#SVGID_60_)" fill="#FFFFFF" d="M874.87,613.96c18.92,0,34.58-13.62,34.58-36.26l-34.58,0.01
							L874.87,613.96z"/>
					</g>
				</g>
				<path clip-path="url(#SVGID_58_)" fill="none" stroke="#2D2D2D" stroke-width="2.1459" stroke-miterlimit="10" d="M909.45,577.7
					c0,22.64-15.66,36.26-34.58,36.26"/>
				
					<line clip-path="url(#SVGID_58_)" fill="none" stroke="#2D2D2D" stroke-width="4.2917" stroke-linecap="square" stroke-miterlimit="10" x1="874.02" y1="577.02" x2="874.02" y2="613.27"/>
			</g>
		</g>
		<g>
			<defs>
				<rect id="SVGID_61_" x="928.68" y="468.92" width="40.54" height="38.65"/>
			</defs>
			<clipPath id="SVGID_62_">
				<use xlink:href="#SVGID_61_"  overflow="visible"/>
			</clipPath>
			<g clip-path="url(#SVGID_62_)">
				<defs>
					<rect id="SVGID_63_" x="928.68" y="468.92" width="40.54" height="38.65"/>
				</defs>
				<clipPath id="SVGID_64_">
					<use xlink:href="#SVGID_63_"  overflow="visible"/>
				</clipPath>
				<g opacity="0.3" clip-path="url(#SVGID_64_)">
					<g>
						<defs>
							<rect id="SVGID_65_" x="930.13" y="471.91" width="36.26" height="34.58"/>
						</defs>
						<clipPath id="SVGID_66_">
							<use xlink:href="#SVGID_65_"  overflow="visible"/>
						</clipPath>
						<path clip-path="url(#SVGID_66_)" fill="#FFFFFF" d="M930.13,471.91c0,18.92,13.62,34.58,36.26,34.58l-0.01-34.58
							L930.13,471.91z"/>
					</g>
				</g>
				<path clip-path="url(#SVGID_64_)" fill="none" stroke="#2D2D2D" stroke-width="2.1459" stroke-miterlimit="10" d="M966.4,506.49
					c-22.64,0-36.26-15.66-36.26-34.58"/>
				
					<line clip-path="url(#SVGID_64_)" fill="none" stroke="#2D2D2D" stroke-width="4.2917" stroke-linecap="square" stroke-miterlimit="10" x1="967.07" y1="471.06" x2="930.82" y2="471.06"/>
			</g>
		</g>
		<g>
			<defs>
				<rect id="SVGID_67_" x="1095.81" y="518.09" width="38.65" height="40.54"/>
			</defs>
			<clipPath id="SVGID_68_">
				<use xlink:href="#SVGID_67_"  overflow="visible"/>
			</clipPath>
			<g clip-path="url(#SVGID_68_)">
				<defs>
					<rect id="SVGID_69_" x="1095.81" y="518.09" width="38.65" height="40.54"/>
				</defs>
				<clipPath id="SVGID_70_">
					<use xlink:href="#SVGID_69_"  overflow="visible"/>
				</clipPath>
				<g opacity="0.3" clip-path="url(#SVGID_70_)">
					<g>
						<defs>
							<rect id="SVGID_71_" x="1098.8" y="520.91" width="34.58" height="36.26"/>
						</defs>
						<clipPath id="SVGID_72_">
							<use xlink:href="#SVGID_71_"  overflow="visible"/>
						</clipPath>
						<path clip-path="url(#SVGID_72_)" fill="#FFFFFF" d="M1098.8,557.17c18.92,0,34.58-13.62,34.58-36.26l-34.58,0.01
							L1098.8,557.17z"/>
					</g>
				</g>
				<path clip-path="url(#SVGID_70_)" fill="none" stroke="#2D2D2D" stroke-width="2.1459" stroke-miterlimit="10" d="
					M1133.39,520.91c0,22.64-15.66,36.26-34.58,36.26"/>
				
					<line clip-path="url(#SVGID_70_)" fill="none" stroke="#2D2D2D" stroke-width="4.2917" stroke-linecap="square" stroke-miterlimit="10" x1="1097.96" y1="520.23" x2="1097.96" y2="556.48"/>
			</g>
		</g>
		<g>
			<defs>
				<rect id="SVGID_73_" x="1036.09" y="490.91" width="30.73" height="32.23"/>
			</defs>
			<clipPath id="SVGID_74_">
				<use xlink:href="#SVGID_73_"  overflow="visible"/>
			</clipPath>
			<g clip-path="url(#SVGID_74_)">
				<defs>
					<rect id="SVGID_75_" x="1036.09" y="490.91" width="30.73" height="32.23"/>
				</defs>
				<clipPath id="SVGID_76_">
					<use xlink:href="#SVGID_75_"  overflow="visible"/>
				</clipPath>
				<g opacity="0.3" clip-path="url(#SVGID_76_)">
					<g>
						<defs>
							<rect id="SVGID_77_" x="1038.47" y="492.07" width="27.5" height="28.83"/>
						</defs>
						<clipPath id="SVGID_78_">
							<use xlink:href="#SVGID_77_"  overflow="visible"/>
						</clipPath>
						<path clip-path="url(#SVGID_78_)" fill="#FFFFFF" d="M1038.47,492.07c15.04,0,27.5,10.83,27.5,28.83l-27.5-0.01
							L1038.47,492.07z"/>
					</g>
				</g>
				<path clip-path="url(#SVGID_76_)" fill="none" stroke="#2D2D2D" stroke-width="1.7063" stroke-miterlimit="10" d="
					M1065.97,520.9c0-18.01-12.45-28.83-27.5-28.83"/>
				
					<line clip-path="url(#SVGID_76_)" fill="none" stroke="#2D2D2D" stroke-width="3.4125" stroke-linecap="square" stroke-miterlimit="10" x1="1037.8" y1="521.44" x2="1037.8" y2="492.62"/>
			</g>
		</g>
	</g>
	<g id="label">
		<text transform="matrix(1 0 0 1 1051.6709 427.4129)" fill="#2D2D2D" font-family="'Arial'" font-weight="bold" font-size="14.6154px">RECEPTION</text>
		
			<text transform="matrix(9.999900e-06 1 -1 0 1526.6161 602.8455)" fill="#2D2D2D" font-family="'Arial'" font-weight="bold" font-size="14.6155px">CANTEEN</text>
		<text transform="matrix(1 0 0 1 711.9912 608.9051)"><tspan x="0" y="0" fill="#2D2D2D" font-family="'Arial'" font-weight="bold" font-size="14.6154px">Operation</tspan><tspan x="13.81" y="17.54" fill="#2D2D2D" font-family="'Arial'" font-weight="bold" font-size="14.6154px">Room</tspan></text>
		<text transform="matrix(1 0 0 1 703.8662 743.866)" fill="#2D2D2D" font-family="'Arial'" font-weight="bold" font-size="14.6154px">LOPS Office</text>
		<text transform="matrix(1 0 0 1 493.0421 720.7913)"><tspan x="0" y="0" fill="#2D2D2D" font-family="'Arial'" font-weight="bold" font-size="14.6154px">Meeting</tspan><tspan x="6.9" y="17.54" fill="#2D2D2D" font-family="'Arial'" font-weight="bold" font-size="14.6154px">Room</tspan></text>
		<text transform="matrix(1 0 0 1 1275.4316 678.909)" fill="#2D2D2D" font-family="'Arial'" font-weight="bold" font-size="14.6154px">Male Locker Room</text>
		<text transform="matrix(1 0 0 1 886.8555 678.91)"><tspan x="0" y="0" fill="#2D2D2D" font-family="'Arial'" font-weight="bold" font-size="14.6154px">Female </tspan><tspan x="1.22" y="17.54" fill="#2D2D2D" font-family="'Arial'" font-weight="bold" font-size="14.6154px">Locker </tspan><tspan x="6.51" y="35.08" fill="#2D2D2D" font-family="'Arial'" font-weight="bold" font-size="14.6154px">Room</tspan></text>
		<text transform="matrix(1 0 0 1 1118.2393 691.3416)"><tspan x="0" y="0" fill="#2D2D2D" font-family="'Arial'" font-weight="bold" font-size="14.6154px">Cleaners</tspan><tspan x="12.19" y="17.54" fill="#2D2D2D" font-family="'Arial'" font-weight="bold" font-size="14.6154px">Store</tspan></text>
	</g>
</g>
<g id="nopointer-SWA">
	<g>
		<defs>
			<rect id="SVGID_79_" x="118.5" y="76.23" width="234" height="351.11"/>
		</defs>
		<clipPath id="SVGID_80_">
			<use xlink:href="#SVGID_79_"  overflow="visible"/>
		</clipPath>
		
			<rect x="119.5" y="77.23" clip-path="url(#SVGID_80_)" fill="none" stroke="#010101" stroke-width="2" stroke-miterlimit="10" width="232" height="349.11"/>
		<path clip-path="url(#SVGID_80_)" fill="#1E4384" d="M155.4,367.07c12.37,0,22.4,10.03,22.4,22.4c0,12.37-10.03,22.4-22.4,22.4
			s-22.4-10.03-22.4-22.4C133,377.1,143.03,367.07,155.4,367.07"/>
		<path clip-path="url(#SVGID_80_)" fill="#FFFFFF" d="M160.8,392.39c0,0.56-0.45,1.01-1.01,1.01s-1.01-0.45-1.01-1.01v-6.75
			c0-1.46,1.24-2.7,2.7-2.7h4.84c1.46,0,2.7,1.24,2.7,2.7v6.75c0,0.56-0.45,1.01-1.01,1.01c-0.56,0-1.01-0.45-1.01-1.01v-6.19h-0.56
			v16.77c0,0.67-0.56,1.24-1.24,1.24s-1.24-0.56-1.24-1.24v-9.68h-0.22v9.68c0,0.67-0.56,1.24-1.24,1.24
			c-0.68,0-1.24-0.56-1.24-1.24V386.2h-0.56L160.8,392.39z"/>
		<path clip-path="url(#SVGID_80_)" fill="#FFFFFF" d="M163.95,377.98c1.24,0,2.25,1.01,2.25,2.25c0,1.24-1.01,2.25-2.25,2.25
			c-1.24,0-2.25-1.01-2.25-2.25C161.7,378.99,162.71,377.98,163.95,377.98"/>
		<path clip-path="url(#SVGID_80_)" fill="#FFFFFF" d="M141.89,391.49c-0.11,0.45-0.68,0.79-1.13,0.56
			c-0.45-0.11-0.79-0.67-0.67-1.13l1.8-6.3c0.34-1.13,1.46-2.03,2.59-2.03h3.04h0.11c1.24,0,2.25,0.79,2.59,2.03l1.8,6.3
			c0.11,0.45-0.11,1.01-0.68,1.13c-0.45,0.11-1.01-0.11-1.13-0.56l-1.69-5.85h-0.56l2.93,10.02h-2.7v7.43
			c0,0.56-0.45,1.01-1.01,1.01c-0.56,0-1.01-0.45-1.01-1.01v-7.43h-0.45v7.43c0,0.56-0.45,1.01-1.01,1.01
			c-0.56,0-1.01-0.45-1.01-1.01v-7.43h-2.48l2.93-10.02h-0.56L141.89,391.49z"/>
		<path clip-path="url(#SVGID_80_)" fill="#FFFFFF" d="M146.17,377.87c1.24,0,2.25,1.01,2.25,2.25c0,1.24-1.01,2.25-2.25,2.25
			c-1.24,0-2.25-1.01-2.25-2.25C143.92,378.88,144.93,377.87,146.17,377.87"/>
		
			<line clip-path="url(#SVGID_80_)" fill="none" stroke="#FFFFFF" stroke-width="0.906" stroke-miterlimit="10" x1="155.4" y1="370.89" x2="155.4" y2="407.59"/>
		<g clip-path="url(#SVGID_80_)" enable-background="new    ">
			<g>
				<defs>
					<rect id="SVGID_81_" x="190.72" y="384.05" width="58.09" height="16.56"/>
				</defs>
				<clipPath id="SVGID_82_">
					<use xlink:href="#SVGID_81_"  overflow="visible"/>
				</clipPath>
				<g clip-path="url(#SVGID_82_)">
					<text transform="matrix(1 0 0 1 190.7173 396.0657)"><tspan x="0" y="0" fill="#010101" font-family="'Arial'"  font-size="14px">T</tspan><tspan x="8.3" y="0" fill="#010101" font-family="'Arial'"  font-size="14px">OILETS</tspan></text>
				</g>
			</g>
		</g>
		<path clip-path="url(#SVGID_80_)" fill="#ED2224" d="M155.4,302.4c-11.7,0-21.2-9.5-21.2-21.2c0-11.7,9.5-21.2,21.2-21.2
			s21.2,9.5,21.2,21.2C176.6,292.9,167.1,302.4,155.4,302.4"/>
		<path clip-path="url(#SVGID_80_)" fill="#FFFFFF" d="M166.6,273v-4.5l-6.7,0.8v0.8h-3.5v-1.7h-0.9c0,0,0-0.4-0.3-0.8
			c-0.8-1.2-2.6-1.3-3.4-0.4c-1.6,1.6,0,3.3,0,3.3c-1.6,0.7-2.9,1.9-3.4,3c-0.6,1.5,0.9,1.7,1.3,1.1c1.9-2.9,3.9-2.8,3.9-2.8v0.7
			c-3.3,1.1-3.1,4.1-3.1,4.1v18.6c0,1,1,0.9,1,0.9h3.2h3.6c1,0,1.1-0.8,1.1-1.4v-18.2c0-3-3-4.1-3-4.1v-1h3.5v0.8L166.6,273z
			 M153.3,269.6c-0.5,0-0.9-0.4-0.9-0.9s0.4-0.9,0.9-0.9s0.9,0.4,0.9,0.9S153.9,269.6,153.3,269.6"/>
		<g clip-path="url(#SVGID_80_)" enable-background="new    ">
			<g>
				<defs>
					<rect id="SVGID_83_" x="190.72" y="275.96" width="105.01" height="16.56"/>
				</defs>
				<clipPath id="SVGID_84_">
					<use xlink:href="#SVGID_83_"  overflow="visible"/>
				</clipPath>
				<g clip-path="url(#SVGID_84_)">
					<text transform="matrix(1 0 0 1 190.7173 287.9749)" fill="#010101" font-family="'Arial'"  font-size="14px">EXTINGUISHER</text>
				</g>
			</g>
		</g>
		<path clip-path="url(#SVGID_80_)" fill="#028346" d="M155.4,204.66c12.37,0,22.4,10.03,22.4,22.4s-10.03,22.4-22.4,22.4
			s-22.4-10.03-22.4-22.4S143.03,204.66,155.4,204.66"/>
		<path clip-path="url(#SVGID_80_)" fill="#FFFFFF" d="M155.1,226.39c2.46,0,4.83,0.44,7.03,1.3c1.78,0.69,3.46,1.66,4.99,2.89
			c1.61,1.28,2.74,2.57,3.37,3.4c-0.64,0.82-1.76,2.12-3.37,3.4c-1.54,1.22-3.22,2.19-4.99,2.89c-2.21,0.87-4.57,1.3-7.03,1.3
			c-2.46,0-4.82-0.44-7.01-1.3c-1.76-0.69-3.42-1.66-4.95-2.88c-1.6-1.28-2.71-2.58-3.34-3.4c0.63-0.82,1.74-2.12,3.34-3.4
			c1.52-1.22,3.19-2.19,4.95-2.88C150.28,226.83,152.64,226.39,155.1,226.39 M155.1,224.68c-11.87,0-17.38,9.3-17.38,9.3
			s5.51,9.3,17.38,9.3s17.5-9.3,17.5-9.3S166.97,224.68,155.1,224.68"/>
		<path clip-path="url(#SVGID_80_)" fill="#FFFFFF" d="M155.22,227.1c1.83,0,3.57,0.71,4.86,2.02c1.3,1.3,2.02,3.03,2.02,4.86
			c0,1.83-0.71,3.56-2.02,4.86c-1.3,1.3-3.03,2.02-4.86,2.02c-1.84,0-3.57-0.71-4.86-2.02c-1.3-1.3-2.02-3.03-2.02-4.86
			c0-1.84,0.71-3.57,2.02-4.86C151.66,227.81,153.38,227.1,155.22,227.1 M155.22,225.39c-4.74,0-8.59,3.85-8.59,8.59
			c0,4.74,3.84,8.59,8.59,8.59c4.75,0,8.59-3.85,8.59-8.59C163.81,229.24,159.96,225.39,155.22,225.39"/>
		<path clip-path="url(#SVGID_80_)" fill="#FFFFFF" d="M160.41,207.67c0,0,0.68,2.07,1.61,3.51c0.75,1.15,0.68,3.58-1.61,3.58
			s-2.36-2.43-1.61-3.58C159.73,209.74,160.41,207.67,160.41,207.67"/>
		<path clip-path="url(#SVGID_80_)" fill="#FFFFFF" d="M155.16,212.57c0,0,0.68,2.07,1.61,3.51c0.75,1.15,0.68,3.58-1.61,3.58
			c-2.3,0-2.36-2.43-1.61-3.58C154.48,214.64,155.16,212.57,155.16,212.57"/>
		<path clip-path="url(#SVGID_80_)" fill="#FFFFFF" d="M160.54,216.32c0,0,0.68,2.07,1.61,3.5c0.75,1.15,0.68,3.58-1.61,3.58
			s-2.36-2.43-1.61-3.58C159.86,218.39,160.54,216.32,160.54,216.32"/>
		<path clip-path="url(#SVGID_80_)" fill="#028346" d="M155.4,194.02c-11.7,0-21.2-9.5-21.2-21.2c0-11.7,9.5-21.2,21.2-21.2
			s21.2,9.5,21.2,21.2C176.6,184.52,167.1,194.02,155.4,194.02"/>
		<polygon clip-path="url(#SVGID_80_)" fill="#FFFFFF" points="168.6,169.23 159.1,169.23 159.1,159.73 151.8,159.73 151.8,169.23 
			142.2,169.23 142.2,176.63 151.8,176.63 151.8,186.13 159.1,186.13 159.1,176.63 168.6,176.63 		"/>
		<g clip-path="url(#SVGID_80_)" enable-background="new    ">
			<g>
				<defs>
					<rect id="SVGID_85_" x="190.72" y="167.87" width="66.64" height="16.56"/>
				</defs>
				<clipPath id="SVGID_86_">
					<use xlink:href="#SVGID_85_"  overflow="visible"/>
				</clipPath>
				<g clip-path="url(#SVGID_86_)">
					<text transform="matrix(1 0 0 1 190.7173 179.884)"><tspan x="0" y="0" fill="#010101" font-family="'Arial'"  font-size="14px">FIRS</tspan><tspan x="31.89" y="0" fill="#010101" font-family="'Arial'"  font-size="14px">T</tspan><tspan x="40.19" y="0" fill="#010101" font-family="'Arial'"  font-size="14px"> </tspan><tspan x="43.32" y="0" fill="#010101" font-family="'Arial'"  font-size="14px">AID</tspan></text>
				</g>
			</g>
		</g>
		<g clip-path="url(#SVGID_80_)" enable-background="new    ">
			<g>
				<defs>
					<rect id="SVGID_87_" x="190.72" y="221.92" width="73.38" height="16.56"/>
				</defs>
				<clipPath id="SVGID_88_">
					<use xlink:href="#SVGID_87_"  overflow="visible"/>
				</clipPath>
				<g clip-path="url(#SVGID_88_)">
					<text transform="matrix(1 0 0 1 190.7173 233.9299)"><tspan x="0" y="0" fill="#010101" font-family="'Arial'"  font-size="14px">EYE </tspan><tspan x="31.9" y="0" fill="#010101" font-family="'Arial'"  font-size="14px">W</tspan><tspan x="44.6" y="0" fill="#010101" font-family="'Arial'"  font-size="14px">ASH</tspan></text>
				</g>
			</g>
		</g>
		<path clip-path="url(#SVGID_80_)" fill="#ED2224" d="M155.4,356.53c-11.7,0-21.2-9.5-21.2-21.2c0-11.7,9.5-21.2,21.2-21.2
			s21.2,9.5,21.2,21.2C176.6,347.03,167.1,356.53,155.4,356.53"/>
		<path clip-path="url(#SVGID_80_)" fill="#FFFFFF" d="M165.2,333.23c-2.3,3.2-3.9,2.4-3.9,2.4c1.5-3.2-0.4-7.5-0.4-7.5
			c-2.7,3.2-3,2.2-3,2.2c1.2-4.1-2.7-9.5-2.7-9.5c1.9,4.7-2.5,9.4-2.5,9.4c-0.2-1.5-1.2-2.9-1.2-2.9c-3.3,5.5-2.7,7.6-2.7,7.6
			c-0.6-1.1-2.5-2-2.5-2c-6.1,15.1,6,15.6,6,15.6c-5.9-4.2-4.4-7-4.4-7c0.9,1,2.7,1,2.7,1c-0.7-1.6-0.2-3.5-0.2-3.5
			c1.2,2.2,3.4,2,3.4,2c-1.5-2.6,1.9-5.8,1.9-5.8c-0.5,1.5,0.6,5.4,0.6,5.4c0.1-0.4,0.4-0.5,1.1-0.9c0.6-0.4,1.1-1.4,1.1-1.4
			c0.8,3,1.2,3.4,1.2,3.4c1,0.2,1.9-1,1.9-1c2,5.4-4.6,7.7-4.6,7.7C169.2,348.33,165.2,333.23,165.2,333.23"/>
		<g clip-path="url(#SVGID_80_)" enable-background="new    ">
			<g>
				<defs>
					<rect id="SVGID_89_" x="190.72" y="330.01" width="99.33" height="16.56"/>
				</defs>
				<clipPath id="SVGID_90_">
					<use xlink:href="#SVGID_89_"  overflow="visible"/>
				</clipPath>
				<g clip-path="url(#SVGID_90_)">
					<text transform="matrix(1 0 0 1 190.7173 342.0198)" fill="#010101" font-family="'Arial'"  font-size="14px">FIRE BLANKET</text>
				</g>
			</g>
		</g>
		<path clip-path="url(#SVGID_80_)" fill="#028346" d="M156.6,99.5c10.99,0,19.9,8.91,19.9,19.9c0,10.99-8.91,19.9-19.9,19.9
			c-10.99,0-19.9-8.91-19.9-19.9C136.7,108.41,145.61,99.5,156.6,99.5"/>
		<polygon clip-path="url(#SVGID_80_)" fill="#FFFFFF" points="166.7,115.6 166.7,133.3 164.2,135.8 144.5,135.8 146.9,133.7 
			146.9,115.7 142.6,115.7 156.6,103 170.5,115.6 		"/>
		<path clip-path="url(#SVGID_80_)" fill="#028346" d="M160.6,132.8l-4.8-8.8c-0.1,1-0.4,2.8-0.5,3.6c-0.1,1.1-1.2,1.4-1.7,1.5H144
			l2.4-2.9h5.8l0.4-5.3l2.3-4.2h-2h-0.1c-0.1,0.1-0.3,0.4-0.4,0.6l-1.6,2.5c-0.2,0.4-0.6,0.6-1.1,0.6c-0.2,0-0.5-0.1-0.7-0.2
			c-0.6-0.4-0.8-1.1-0.4-1.7l1.6-2.5c0.5-0.7,0.9-1.1,1.2-1.3c0.5-0.3,1-0.3,1.3-0.3h0.2h3.8c0.4,0,0.8-0.1,1.1-0.1
			c2,0,2.9,0.6,3.2,1c0.1,0.1,0.2,0.2,0.3,0.3l2.2,2.9h3.4c0.7,0,1.3,0.6,1.3,1.3c0,0.7-0.6,1.3-1.3,1.3h-4c-0.4,0-0.8-0.2-1-0.5
			l-1.7-2.3l-1.6,3.5l5.6,11.4L160.6,132.8z"/>
		<path clip-path="url(#SVGID_80_)" fill="#FFFFFF" d="M157.8,114.3c1.9,0,2.7,0.6,3,1c0.1,0.1,0.2,0.1,0.3,0.2l2.3,3h3.5
			c0.5,0,1,0.4,1,1s-0.4,1-1,1h-4c-0.3,0-0.6-0.1-0.8-0.4l-2-2.6l-1.9,4.1l5.5,11.1l-3-0.1l-5.1-9.3c0,0-0.5,3.3-0.6,4.4
			c-0.1,1.2-1.5,1.2-1.5,1.2h-9l2-2.4h6l0.4-5.6l2.4-4.6h-2.5h-0.1h-0.1c-0.1,0.1-0.4,0.4-0.5,0.7l-1.6,2.5
			c-0.2,0.3-0.5,0.5-0.8,0.5c-0.2,0-0.4-0.1-0.5-0.2c-0.5-0.3-0.6-0.9-0.3-1.4l1.6-2.5c0.4-0.7,0.8-1.1,1.1-1.2
			c0.4-0.3,0.9-0.3,1.2-0.3h0.2h3.9C157.1,114.3,157.5,114.3,157.8,114.3 M157.8,113.8v0.5V113.8c-0.4,0-0.7,0-1.1,0.1h-3.8h-0.2
			c-0.4,0-0.9,0.1-1.4,0.4c-0.4,0.2-0.8,0.7-1.3,1.4v0.1l-1.6,2.5c-0.4,0.7-0.2,1.7,0.5,2.1c0.2,0.2,0.5,0.2,0.8,0.2
			c0.5,0,1-0.3,1.3-0.7l1.6-2.5c0.1-0.2,0.2-0.3,0.3-0.4h1.6l-2,3.8l-0.1,0.1v0.1l-0.3,5h-5.5h-0.3l-0.2,0.2l-2,2.4l-0.8,0.9h1.2h9
			c0,0,0.4,0,0.9-0.2c0.6-0.3,1-0.8,1.1-1.5c0.1-0.6,0.3-1.8,0.4-2.8l4.3,7.9l0.1,0.3h0.3l3,0.1h0.9l-0.4-0.8l-5.4-10.9l1.4-3
			l1.4,1.9c0.3,0.4,0.7,0.6,1.2,0.6h4c0.8,0,1.5-0.7,1.5-1.5c0-0.8-0.7-1.5-1.5-1.5h-3.2l-2.1-2.8c-0.1-0.1-0.2-0.2-0.3-0.3
			c-0.3-0.3-0.6-0.5-1.1-0.7C159.5,113.9,158.7,113.8,157.8,113.8"/>
		<path clip-path="url(#SVGID_80_)" fill="#028346" d="M159.6,114.2c-1.4,0-2.6-1.2-2.6-2.6c0-1.4,1.2-2.6,2.6-2.6
			c1.4,0,2.6,1.2,2.6,2.6C162.2,113,161,114.2,159.6,114.2"/>
		<path clip-path="url(#SVGID_80_)" fill="#FFFFFF" d="M159.6,109.2c1.3,0,2.4,1.1,2.4,2.3c0,1.2-1.1,2.3-2.4,2.3
			c-1.3,0-2.4-1.1-2.4-2.3C157.2,110.3,158.3,109.2,159.6,109.2 M159.6,108.7c-1.6,0-2.9,1.3-2.9,2.9c0,1.6,1.3,2.9,2.9,2.9
			c1.6,0,2.9-1.3,2.9-2.9C162.5,110,161.1,108.7,159.6,108.7"/>
		<g clip-path="url(#SVGID_80_)" enable-background="new    ">
			<g>
				<defs>
					<rect id="SVGID_91_" x="191.49" y="114.51" width="134.85" height="16.56"/>
				</defs>
				<clipPath id="SVGID_92_">
					<use xlink:href="#SVGID_91_"  overflow="visible"/>
				</clipPath>
				<g clip-path="url(#SVGID_92_)">
					<text transform="matrix(1 0 0 1 191.4893 126.5198)"><tspan x="0" y="0" fill="#010101" font-family="'Arial'"  font-size="14px">EMERGHENC</tspan><tspan x="91.01" y="0" fill="#010101" font-family="'Arial'"  font-size="14px">Y</tspan><tspan x="100.11" y="0" fill="#010101" font-family="'Arial'"  font-size="14px"> EXIT</tspan></text>
				</g>
			</g>
		</g>
	</g>
	<g>
		<defs>
			<rect id="SVGID_93_" x="1225.7" y="316.73" width="35" height="35"/>
		</defs>
		<clipPath id="SVGID_94_">
			<use xlink:href="#SVGID_93_"  overflow="visible"/>
		</clipPath>
		<path clip-path="url(#SVGID_94_)" fill="#028346" d="M1243.2,316.73c9.66,0,17.5,7.84,17.5,17.5s-7.84,17.5-17.5,17.5
			c-9.66,0-17.5-7.84-17.5-17.5S1233.53,316.73,1243.2,316.73"/>
		<polygon clip-path="url(#SVGID_94_)" fill="#FFFFFF" points="1252.08,330.88 1252.08,346.45 1249.88,348.65 1232.56,348.65 
			1234.67,346.8 1234.67,330.97 1230.89,330.97 1243.2,319.8 1255.42,330.88 		"/>
		<path clip-path="url(#SVGID_94_)" fill="#028346" d="M1246.72,346.01l-4.22-7.74c-0.09,0.88-0.35,2.46-0.44,3.17
			c-0.09,0.97-1.06,1.23-1.5,1.32h-8.44l2.11-2.55h5.1l0.35-4.66l2.02-3.69h-1.76h-0.09c-0.09,0.09-0.26,0.35-0.35,0.53l-1.41,2.2
			c-0.17,0.35-0.53,0.53-0.97,0.53c-0.18,0-0.44-0.09-0.62-0.18c-0.53-0.35-0.7-0.96-0.35-1.49l1.4-2.2
			c0.44-0.62,0.79-0.97,1.05-1.14c0.44-0.26,0.88-0.26,1.15-0.26h0.18h3.34c0.35,0,0.7-0.09,0.97-0.09c1.76,0,2.55,0.52,2.81,0.88
			l0.27,0.27l1.93,2.55h2.99c0.62,0,1.14,0.53,1.14,1.14c0,0.62-0.53,1.14-1.14,1.14h-3.52c-0.35,0-0.7-0.17-0.88-0.44l-1.5-2.03
			l-1.4,3.08l4.93,10.03L1246.72,346.01z"/>
		<path clip-path="url(#SVGID_94_)" fill="#FFFFFF" d="M1244.25,329.74c1.67,0,2.37,0.52,2.64,0.88c0.09,0.09,0.18,0.09,0.26,0.18
			l2.02,2.64h3.08c0.44,0,0.88,0.35,0.88,0.88c0,0.52-0.35,0.88-0.88,0.88h-3.52c-0.26,0-0.53-0.09-0.7-0.35l-1.76-2.28l-1.67,3.61
			l4.83,9.76l-2.64-0.09l-4.48-8.18c0,0-0.44,2.9-0.53,3.87c-0.09,1.05-1.32,1.05-1.32,1.05h-7.91l1.76-2.11h5.28l0.35-4.93
			l2.11-4.05h-2.2h-0.09h-0.09c-0.09,0.09-0.35,0.35-0.44,0.62l-1.4,2.2c-0.18,0.26-0.44,0.44-0.7,0.44c-0.17,0-0.35-0.09-0.44-0.17
			c-0.44-0.26-0.52-0.79-0.26-1.23l1.41-2.2c0.35-0.62,0.7-0.97,0.97-1.05c0.35-0.26,0.79-0.26,1.05-0.26h0.18h3.43
			C1243.64,329.74,1243.99,329.74,1244.25,329.74 M1244.25,329.3v0.44V329.3c-0.35,0-0.62,0-0.97,0.09h-3.34h-0.17
			c-0.35,0-0.79,0.09-1.23,0.35c-0.35,0.17-0.7,0.61-1.14,1.23v0.09l-1.41,2.2c-0.35,0.62-0.18,1.5,0.44,1.85
			c0.18,0.18,0.44,0.18,0.7,0.18c0.44,0,0.88-0.26,1.14-0.62l1.41-2.2c0.09-0.18,0.17-0.27,0.26-0.35h1.4l-1.75,3.34l-0.09,0.09
			v0.09l-0.27,4.4h-4.83h-0.27l-0.18,0.18l-1.76,2.11l-0.7,0.79h1.06h7.91c0,0,0.35,0,0.79-0.18c0.53-0.26,0.88-0.7,0.97-1.32
			c0.09-0.53,0.26-1.58,0.35-2.46l3.78,6.95l0.09,0.26h0.27l2.64,0.09h0.79l-0.35-0.7l-4.75-9.59l1.23-2.64l1.23,1.67
			c0.26,0.35,0.61,0.53,1.05,0.53h3.52c0.7,0,1.32-0.61,1.32-1.32s-0.61-1.32-1.32-1.32h-2.81l-1.85-2.46
			c-0.09-0.09-0.18-0.18-0.27-0.26c-0.26-0.26-0.53-0.44-0.97-0.61C1245.75,329.39,1245.05,329.3,1244.25,329.3"/>
		<path clip-path="url(#SVGID_94_)" fill="#028346" d="M1245.84,329.65c-1.23,0-2.28-1.05-2.28-2.28c0-1.23,1.05-2.29,2.28-2.29
			s2.28,1.05,2.28,2.29C1248.12,328.6,1247.07,329.65,1245.84,329.65"/>
		<path clip-path="url(#SVGID_94_)" fill="#FFFFFF" d="M1245.84,325.26c1.14,0,2.11,0.97,2.11,2.02s-0.97,2.02-2.11,2.02
			c-1.14,0-2.11-0.97-2.11-2.02S1244.69,325.26,1245.84,325.26 M1245.84,324.82c-1.41,0-2.55,1.14-2.55,2.55s1.14,2.55,2.55,2.55
			c1.41,0,2.55-1.14,2.55-2.55S1247.15,324.82,1245.84,324.82"/>
	</g>
	<path fill="#1E4384" d="M914.12,735.58c9.67,0,17.5,7.83,17.5,17.5s-7.83,17.5-17.5,17.5s-17.5-7.83-17.5-17.5
		S904.46,735.58,914.12,735.58"/>
	<path fill="#FFFFFF" d="M910.12,753.83c0,0.5-0.75,0.75-1,0.5c-0.5,0-0.75-0.75-0.5-1l2-6c0.24-1,1.25-1.76,2.5-1.76h3
		c1.25,0,2.5,0.75,2.75,1.76l1.75,6c0,0.5,0,1-0.5,1c-0.5,0-1,0-1-0.5l-1.5-5.5h-0.75l2.75,9.5h-1.99v7c0,0.5-0.5,1-1,1
		c-0.5,0-1-0.5-1-1v-7h-1.25v7c0,0.5-0.5,1-1,1s-1-0.5-1-1v-7h-2l2.75-9.5h-0.75L910.12,753.83z"/>
	<path fill="#FFFFFF" d="M914.37,741.08c1.1,0,2,0.89,2,2c0,1.1-0.9,2-2,2s-2-0.9-2-2C912.37,741.97,913.27,741.08,914.37,741.08"/>
	<path fill="#1E4384" d="M1336.68,700.79c9.67,0,17.5,7.83,17.5,17.5s-7.83,17.5-17.5,17.5c-9.67,0-17.5-7.83-17.5-17.5
		S1327.01,700.79,1336.68,700.79"/>
	<path fill="#FFFFFF" d="M1333.68,719.54c0,0.5-0.5,1-1,1c-0.5,0-1-0.5-1-1v-6.25c0-1.51,1.25-2.5,2.5-2.5h4.5
		c1.5,0,2.5,1.25,2.5,2.5v6.25c0,0.5-0.5,1-1,1c-0.5,0-1-0.5-1-1v-5.75v15.75c0,0.75-0.5,1.25-1.25,1.25c-0.75,0-1.25-0.5-1.25-1.25
		v-9.25h-0.5v9.25c0,0.75-0.5,1.25-1.25,1.25c-0.75,0-1.25-0.5-1.25-1.25v-15.75h-0.5L1333.68,719.54z"/>
	<path fill="#FFFFFF" d="M1336.68,706.04c1.1,0,2,0.9,2,2c0,1.1-0.9,2-2,2c-1.1,0-2-0.9-2-2
		C1334.67,706.94,1335.57,706.04,1336.68,706.04"/>
	<path fill="#1E4384" d="M1123,560.57c9.66,0,17.5,7.84,17.5,17.5s-7.84,17.5-17.5,17.5c-9.66,0-17.5-7.84-17.5-17.5
		S1113.34,560.57,1123,560.57"/>
	<path fill="#FFFFFF" d="M1127.22,580.36c0,0.44-0.35,0.79-0.79,0.79c-0.44,0-0.79-0.35-0.79-0.79v-5.28c0-1.14,0.97-2.11,2.11-2.11
		h3.78c1.14,0,2.11,0.97,2.11,2.11v5.28c0,0.44-0.35,0.79-0.79,0.79c-0.44,0-0.79-0.35-0.79-0.79v-4.84h-0.44v13.1
		c0,0.53-0.44,0.97-0.97,0.97s-0.97-0.44-0.97-0.97v-7.56h-0.18v7.56c0,0.53-0.44,0.97-0.97,0.97c-0.53,0-0.97-0.44-0.97-0.97v-13.1
		h-0.44L1127.22,580.36z"/>
	<path fill="#FFFFFF" d="M1129.68,569.1c0.97,0,1.76,0.79,1.76,1.76c0,0.97-0.79,1.76-1.76,1.76c-0.97,0-1.76-0.79-1.76-1.76
		C1127.93,569.89,1128.71,569.1,1129.68,569.1"/>
	<path fill="#FFFFFF" d="M1112.45,579.66c-0.09,0.35-0.53,0.62-0.88,0.44c-0.35-0.09-0.62-0.53-0.53-0.88l1.41-4.92
		c0.26-0.88,1.14-1.58,2.02-1.58h2.37h0.09c0.97,0,1.76,0.62,2.02,1.58l1.41,4.92c0.09,0.35-0.09,0.79-0.53,0.88
		c-0.35,0.09-0.79-0.09-0.88-0.44l-1.32-4.57h-0.44l2.29,7.83h-2.11v5.8c0,0.44-0.35,0.79-0.79,0.79c-0.44,0-0.79-0.35-0.79-0.79
		v-5.8h-0.35v5.8c0,0.44-0.35,0.79-0.79,0.79c-0.44,0-0.79-0.35-0.79-0.79v-5.8h-1.94l2.29-7.83h-0.44L1112.45,579.66z"/>
	<path fill="#FFFFFF" d="M1115.79,569.02c0.97,0,1.76,0.79,1.76,1.76c0,0.97-0.79,1.76-1.76,1.76c-0.97,0-1.76-0.79-1.76-1.76
		C1114.03,569.8,1114.82,569.02,1115.79,569.02"/>
	<line fill="none" stroke="#FFFFFF" stroke-width="0.7078" stroke-miterlimit="10" x1="1123" y1="563.56" x2="1123" y2="592.23"/>
	<path fill="#028346" d="M1564.46,499.63c-9.66,0-17.5-7.84-17.5-17.5c0-9.66,7.84-17.5,17.5-17.5c9.66,0,17.5,7.84,17.5,17.5
		C1581.96,491.79,1574.12,499.63,1564.46,499.63"/>
	<polygon fill="#FFFFFF" points="1575.36,479.16 1567.52,479.16 1567.52,471.32 1561.49,471.32 1561.49,479.16 1553.57,479.16 
		1553.57,485.27 1561.49,485.27 1561.49,493.11 1567.52,493.11 1567.52,485.27 1575.36,485.27 	"/>
	<path fill="#ED2224" d="M1526.62,499.71c-9.66,0-17.5-7.84-17.5-17.5s7.84-17.5,17.5-17.5c9.66,0,17.5,7.84,17.5,17.5
		S1536.27,499.71,1526.62,499.71"/>
	<path fill="#FFFFFF" d="M1535.86,475.44v-3.71l-5.53,0.66v0.66h-2.89v-1.4h-0.74c0,0,0-0.33-0.25-0.66
		c-0.66-0.99-2.15-1.07-2.81-0.33c-1.32,1.32,0,2.72,0,2.72c-1.32,0.58-2.39,1.57-2.81,2.48c-0.5,1.24,0.74,1.4,1.07,0.91
		c1.57-2.39,3.22-2.31,3.22-2.31v0.58c-2.72,0.91-2.56,3.38-2.56,3.38v15.35c0,0.83,0.83,0.74,0.83,0.74h2.64h2.97
		c0.83,0,0.91-0.66,0.91-1.16v-15.02c0-2.48-2.48-3.38-2.48-3.38v-0.83h2.89v0.66L1535.86,475.44z M1524.88,472.64
		c-0.41,0-0.74-0.33-0.74-0.74c0-0.41,0.33-0.74,0.74-0.74c0.41,0,0.74,0.33,0.74,0.74
		C1525.63,472.31,1525.38,472.64,1524.88,472.64"/>
	<path fill="#ED2224" d="M1146.1,516.14c-9.66,0-17.5-7.84-17.5-17.5s7.84-17.5,17.5-17.5c9.66,0,17.5,7.84,17.5,17.5
		S1155.76,516.14,1146.1,516.14"/>
	<path fill="#FFFFFF" d="M1155.35,491.87v-3.71l-5.53,0.66v0.66h-2.89v-1.4h-0.74c0,0,0-0.33-0.25-0.66
		c-0.66-0.99-2.15-1.07-2.81-0.33c-1.32,1.32,0,2.72,0,2.72c-1.32,0.58-2.39,1.57-2.81,2.48c-0.5,1.24,0.74,1.4,1.07,0.91
		c1.57-2.39,3.22-2.31,3.22-2.31v0.58c-2.72,0.91-2.56,3.38-2.56,3.38v15.35c0,0.83,0.83,0.74,0.83,0.74h2.64h2.97
		c0.83,0,0.91-0.66,0.91-1.16v-15.02c0-2.48-2.48-3.38-2.48-3.38v-0.83h2.89v0.66L1155.35,491.87z M1144.37,489.07
		c-0.41,0-0.74-0.33-0.74-0.74c0-0.41,0.33-0.74,0.74-0.74c0.41,0,0.74,0.33,0.74,0.74
		C1145.11,488.74,1144.87,489.07,1144.37,489.07"/>
	<path fill="#ED2224" d="M695.44,498.64c-9.66,0-17.5-7.84-17.5-17.5s7.84-17.5,17.5-17.5s17.5,7.84,17.5,17.5
		S705.09,498.64,695.44,498.64"/>
	<path fill="#FFFFFF" d="M704.68,474.37v-3.71l-5.53,0.66v0.66h-2.89v-1.4h-0.74c0,0,0-0.33-0.25-0.66
		c-0.66-0.99-2.15-1.07-2.81-0.33c-1.32,1.32,0,2.72,0,2.72c-1.32,0.58-2.39,1.57-2.81,2.48c-0.5,1.24,0.74,1.4,1.07,0.91
		c1.57-2.39,3.22-2.31,3.22-2.31v0.58c-2.72,0.91-2.56,3.38-2.56,3.38v15.35c0,0.83,0.83,0.74,0.83,0.74h2.64h2.97
		c0.83,0,0.91-0.66,0.91-1.16v-15.02c0-2.48-2.48-3.38-2.48-3.38v-0.83h2.89v0.66L704.68,474.37z M693.7,471.57
		c-0.41,0-0.74-0.33-0.74-0.74c0-0.41,0.33-0.74,0.74-0.74c0.41,0,0.74,0.33,0.74,0.74C694.45,471.24,694.2,471.57,693.7,471.57"/>
	<path fill="#ED2224" d="M535.12,555.86c-9.66,0-17.5-7.84-17.5-17.5c0-9.66,7.84-17.5,17.5-17.5s17.5,7.84,17.5,17.5
		C552.62,548.02,544.78,555.86,535.12,555.86"/>
	<path fill="#FFFFFF" d="M544.37,531.59v-3.71l-5.53,0.66v0.66h-2.89v-1.4h-0.74c0,0,0-0.33-0.25-0.66
		c-0.66-0.99-2.15-1.07-2.81-0.33c-1.32,1.32,0,2.72,0,2.72c-1.32,0.58-2.39,1.57-2.81,2.48c-0.5,1.24,0.74,1.4,1.07,0.91
		c1.57-2.39,3.22-2.31,3.22-2.31v0.58c-2.72,0.91-2.56,3.38-2.56,3.38v15.35c0,0.83,0.83,0.74,0.83,0.74h2.64h2.97
		c0.83,0,0.91-0.66,0.91-1.16v-15.02c0-2.48-2.48-3.38-2.48-3.38v-0.83h2.89v0.66L544.37,531.59z M533.39,528.78
		c-0.41,0-0.74-0.33-0.74-0.74c0-0.41,0.33-0.74,0.74-0.74c0.41,0,0.74,0.33,0.74,0.74C534.13,528.45,533.88,528.78,533.39,528.78"
		/>
</g>
</svg>
